<?xml version="1.0" encoding="utf-8"?>
<!-- Generator: Adobe Illustrator 27.9.0, SVG Export Plug-In . SVG Version: 6.00 Build 0)  -->
<svg version="1.1" id="Layer_1" xmlns="http://www.w3.org/2000/svg" xmlns:xlink="http://www.w3.org/1999/xlink" x="0px" y="0px"
	 width="160px" height="160px" viewBox="0 0 160 160" enable-background="new 0 0 160 160" xml:space="preserve">
<g>
	<path fill="#3F4F81" d="M24.277,107.649c0.13,3.04,1.081,5.907,2.939,8.544c-7.751,6.066-12.765,10.302-14.005,11.353H0
		C8.342,120.4,16.439,113.772,24.277,107.649z"/>
	<g>
		
			<linearGradient id="SVGID_1_" gradientUnits="userSpaceOnUse" x1="1.9495" y1="160.2358" x2="1.9495" y2="158.7951" gradientTransform="matrix(71.5825 0 0 -41.75 -31.115 6723.77)">
			<stop  offset="0" style="stop-color:#969EBE"/>
			<stop  offset="1" style="stop-color:#3F4F81"/>
		</linearGradient>
		<path fill="url(#SVGID_1_)" d="M112.584,87.924c3.559-15.906,18.831-34.882,16.915-34.118
			c-25.516,10.215-51.335,25.934-72.155,40.27c-0.749-2.709-0.764-6.267,1.009-10.734c0.072-0.202,0.158-0.403,0.245-0.62
			c59.937-40.184,98.982-48.8,101.403-48.8c-30.084,32.029-34.046,45.832-34.046,45.832S115.696,87.723,112.584,87.924z"/>
		
			<linearGradient id="SVGID_00000093892522226038656520000006302851840599170707_" gradientUnits="userSpaceOnUse" x1="1.8164" y1="160.5032" x2="1.8164" y2="159.0624" gradientTransform="matrix(75.7624 0 0 -63.3069 -55.9846 10193.4062)">
			<stop  offset="0" style="stop-color:#969EBE"/>
			<stop  offset="1" style="stop-color:#3F4F81"/>
		</linearGradient>
		<path fill="url(#SVGID_00000093892522226038656520000006302851840599170707_)" d="M34.939,118.339
			c-1.945-1.412-3.501-2.939-4.668-4.538c-1.945-2.579-2.939-5.389-3.155-8.371C24.94,76.816,81.65,47.553,118.159,32.454
			c-43.901,24.695-59.663,41.97-64.086,53.324c-1.859,4.697-1.758,8.385-0.893,11.166c1.441,4.654,4.971,6.714,4.971,6.714
			s17.232,20.776,77.126-25.199c10.201-7.824-65.513,65.095-100.351,39.881H34.939z"/>
	</g>
	<path fill="#38393E" d="M63.683,127.546c7.535-2.219,27.894-10.086,57.444-33.542c-4.567,15.661-5.187,31.352-5.244,33.542H63.683z
		"/>
</g>
</svg>
