<?xml version="1.0" encoding="UTF-8"?><svg id="a" xmlns="http://www.w3.org/2000/svg" width="93" height="40" viewBox="0 0 93 40"><path id="b" d="m57.695,33.628c-5.404,3.98-13.238,6.103-19.982,6.103-9.457,0-17.97-3.494-24.411-9.306-.506-.457-.053-1.08.555-.724,6.951,4.04,15.545,6.471,24.423,6.471,5.987,0,12.574-1.238,18.63-3.806.915-.388,1.68.599.785,1.262" fill="#f90" stroke-width="0"/><path id="c" d="m59.942,31.06c-.688-.882-4.566-.417-6.307-.21-.53.065-.611-.396-.134-.728,3.089-2.172,8.157-1.545,8.748-.817.591.732-.154,5.808-3.056,8.231-.445.372-.87.174-.672-.32.652-1.626,2.113-5.27,1.421-6.156" fill="#f90" stroke-width="0"/><path id="d" d="m53.756,14.789v-2.111c0-.32.243-.534.534-.534h9.461c.304,0,.547.218.547.534v1.808c-.004.303-.259.7-.712,1.327l-4.902,6.993c1.822-.044,3.745.226,5.396,1.157.372.21.474.518.502.821v2.253c0,.307-.34.667-.696.481-2.911-1.525-6.777-1.691-9.995.016-.328.178-.672-.178-.672-.485v-2.14c0-.344.004-.93.348-1.452l5.68-8.138h-4.943c-.304,0-.547-.214-.547-.53" fill="#fff" stroke-width="0"/><path id="e" d="m19.245,27.962h-2.878c-.275-.02-.494-.226-.514-.489v-14.758c0-.295.247-.53.555-.53h2.684c.279.012.502.226.522.493v1.929h.053c.7-1.865,2.016-2.734,3.789-2.734,1.801,0,2.927.87,3.737,2.734.696-1.865,2.279-2.734,3.975-2.734,1.206,0,2.526.497,3.332,1.614.911,1.242.725,3.046.725,4.627l-.004,9.314c0,.295-.247.534-.555.534h-2.874c-.287-.02-.518-.251-.518-.534v-7.822c0-.623.057-2.176-.081-2.766-.215-.991-.858-1.27-1.692-1.27-.696,0-1.425.465-1.72,1.209-.296.744-.267,1.99-.267,2.827v7.822c0,.295-.247.534-.555.534h-2.874c-.291-.02-.518-.251-.518-.534l-.004-7.822c0-1.646.271-4.069-1.773-4.069-2.069,0-1.988,2.362-1.988,4.069v7.822c0,.295-.247.534-.555.534" fill="#fff" stroke-width="0"/><path id="f" d="m72.443,11.873c4.271,0,6.582,3.664,6.582,8.324,0,4.502-2.554,8.073-6.582,8.073-4.194,0-6.477-3.664-6.477-8.231,0-4.595,2.312-8.166,6.477-8.166m.024,3.013c-2.121,0-2.255,2.888-2.255,4.688s-.028,5.654,2.231,5.654c2.231,0,2.336-3.106,2.336-4.999,0-1.246-.053-2.734-.429-3.915-.324-1.027-.968-1.428-1.882-1.428" fill="#fff" stroke-width="0"/><path id="g" d="m84.563,27.962h-2.866c-.287-.02-.518-.251-.518-.534l-.004-14.762c.024-.271.263-.481.555-.481h2.668c.251.012.457.182.514.413v2.257h.053c.806-2.018,1.935-2.981,3.923-2.981,1.291,0,2.55.465,3.36,1.739.753,1.181.753,3.167.753,4.595v9.29c-.032.259-.271.465-.555.465h-2.886c-.263-.02-.482-.214-.51-.465v-8.016c0-1.614.186-3.976-1.801-3.976-.7,0-1.344.469-1.664,1.181-.405.902-.457,1.8-.457,2.795v7.947c-.004.295-.255.534-.563.534" fill="#fff" stroke-width="0"/><g id="h"><path id="i" d="m46.215,20.912v-.623c-2.081,0-4.279.445-4.279,2.896,0,1.242.644,2.083,1.749,2.083.81,0,1.534-.497,1.992-1.306.567-.995.538-1.929.538-3.05m2.903,7.009c-.19.17-.466.182-.68.069-.955-.793-1.125-1.161-1.652-1.917-1.579,1.61-2.696,2.091-4.745,2.091-2.421,0-4.307-1.492-4.307-4.481,0-2.334,1.267-3.923,3.069-4.7,1.563-.688,3.745-.809,5.412-.999v-.372c0-.684.053-1.492-.348-2.083-.352-.53-1.024-.748-1.615-.748-1.097,0-2.077.562-2.316,1.727-.049.259-.239.514-.498.526l-2.793-.299c-.235-.053-.494-.243-.429-.603.644-3.381,3.7-4.4,6.437-4.4,1.401,0,3.23.372,4.336,1.432,1.401,1.306,1.267,3.05,1.267,4.946v4.481c0,1.347.559,1.937,1.085,2.665.186.259.227.57-.008.764-.587.489-1.631,1.399-2.206,1.909l-.008-.008" fill="#fff" stroke-width="0"/></g><path id="j" d="m8.481,20.912v-.623c-2.081,0-4.279.445-4.279,2.896,0,1.242.644,2.083,1.749,2.083.81,0,1.534-.497,1.992-1.306.567-.995.538-1.929.538-3.05m2.903,7.009c-.19.17-.466.182-.68.069-.955-.793-1.125-1.161-1.652-1.917-1.579,1.61-2.696,2.091-4.745,2.091-2.421,0-4.307-1.492-4.307-4.481,0-2.334,1.267-3.923,3.069-4.7,1.563-.688,3.745-.809,5.412-.999v-.372c0-.684.053-1.492-.348-2.083-.352-.53-1.024-.748-1.615-.748-1.097,0-2.077.562-2.316,1.727-.049.259-.239.514-.498.526l-2.793-.299c-.235-.053-.494-.243-.429-.603.644-3.381,3.7-4.4,6.437-4.4,1.401,0,3.23.372,4.336,1.432,1.401,1.306,1.267,3.05,1.267,4.946v4.481c0,1.347.559,1.937,1.085,2.665.186.259.227.57-.008.764-.587.489-1.631,1.399-2.206,1.909l-.008-.008" fill="#fff" stroke-width="0"/><rect width="93" height="40" fill="none" stroke-width="0"/></svg>