<svg width="16" height="16" viewBox="0 0 16 16" fill="none" xmlns="http://www.w3.org/2000/svg">
<path d="M8.5 2C8.5 1.72386 8.27614 1.5 8 1.5C7.72386 1.5 7.5 1.72386 7.5 2H8.5ZM13.5 8.5C13.7761 8.5 14 8.27614 14 8C14 7.72386 13.7761 7.5 13.5 7.5V8.5ZM13.5 6L13.8536 5.64645C13.7106 5.50345 13.4955 5.46067 13.3087 5.53806C13.1218 5.61545 13 5.79777 13 6H13.5ZM15.5 8L15.8536 8.35355C16.0488 8.15829 16.0488 7.84171 15.8536 7.64645L15.5 8ZM13.5 10H13C13 10.2022 13.1218 10.3845 13.3087 10.4619C13.4955 10.5393 13.7106 10.4966 13.8536 10.3536L13.5 10ZM11.2 7.5C9.70883 7.5 8.5 6.29117 8.5 4.8H7.5C7.5 6.84345 9.15655 8.5 11.2 8.5V7.5ZM8.5 4.8V2H7.5V4.8H8.5ZM13.5 7.5H11.2V8.5H13.5V7.5ZM13.1464 6.35355L15.1464 8.35355L15.8536 7.64645L13.8536 5.64645L13.1464 6.35355ZM15.1464 7.64645L13.1464 9.64645L13.8536 10.3536L15.8536 8.35355L15.1464 7.64645ZM13 6V10H14V6H13Z" fill="url(#paint0_linear_2112_279)"/>
<defs>
<linearGradient id="paint0_linear_2112_279" x1="8" y1="2" x2="15" y2="8" gradientUnits="userSpaceOnUse">
<stop stop-color="white"/>
<stop offset="1" stop-color="#BFBFBF"/>
</linearGradient>
</defs>
</svg>
