<svg width="160" height="160" viewBox="0 0 160 160" fill="none" xmlns="http://www.w3.org/2000/svg">
<path opacity="0.35" d="M79.9432 159C110.076 159 134.503 156.015 134.503 152.333C134.503 148.651 110.076 145.667 79.9432 145.667C49.8109 145.667 25.3838 148.651 25.3838 152.333C25.3838 156.015 49.8109 159 79.9432 159Z" fill="url(#paint0_radial_108_201)"/>
<path d="M157.349 27.9998L128.023 4.99997L102.449 1H102.108H58.8012H58.4602L32.8855 4.99997C32.8855 4.99997 32.8855 4.99997 32.5445 4.99997L2.53681 27.9998C1.51382 28.3331 1.17282 29.3331 1.85481 30.3331C1.85481 30.6664 2.19581 30.9998 2.53681 30.9998L78.579 126.666C78.579 126.666 78.92 126.666 78.92 126.999H79.261H79.602C79.602 126.999 79.602 126.999 79.943 126.999H80.284H80.625C80.625 126.999 80.625 126.999 80.966 126.999H81.307H81.6479C81.6479 126.999 81.9889 126.999 81.9889 126.666L157.69 30.9998C158.031 30.6664 158.372 30.6664 158.372 30.3331C158.713 29.3331 158.372 28.3331 157.349 27.9998ZM145.755 23.9998L109.269 11.6666L125.977 8.6666L145.755 23.9998ZM13.7897 23.9998L33.9085 8.33327L51.2993 11.3332L33.9085 39.6663H33.5675L8.67474 29.3331L43.7974 14.3332L13.7897 23.9998ZM83.3529 108.332L79.943 59.9995L76.533 108.332L37.6594 48.3329L67.3261 105.999L9.69773 33.6664L32.8855 41.9997H33.2265L75.851 44.6663L34.2495 39.6663L54.7092 13.3332L77.215 40.6663L56.7552 9.33327C56.7552 8.6666 56.4142 8.33327 55.7322 7.99994C55.3912 7.66661 55.0502 7.66661 54.3682 7.66661L45.1613 5.99996L59.1422 3.99998H101.085L115.066 5.99996L105.859 7.66661C105.518 7.66661 105.177 7.66661 105.177 7.66661H104.836L67.3261 10.3333L101.767 11.9999L88.4679 33.3331L105.177 13.6666L125.636 39.9997L84.0349 44.9996L125.636 42.333L83.3529 108.332ZM126.318 39.9997L108.587 11.6666L151.211 29.3331L126.318 39.9997Z" fill="url(#paint1_linear_108_201)"/>
<path d="M157.349 27.9998L128.023 4.99997L102.449 1H102.108H58.8012H58.4602L32.8855 4.99997C32.8855 4.99997 32.8855 4.99997 32.5445 4.99997L2.53681 27.9998C1.51382 28.3331 1.17282 29.3331 1.85481 30.3331C1.85481 30.6664 2.19581 30.9998 2.53681 30.9998L78.579 126.666C78.579 126.666 78.92 126.666 78.92 126.999H79.261H79.602C79.602 126.999 79.602 126.999 79.943 126.999H80.284H80.625C80.625 126.999 80.625 126.999 80.966 126.999H81.307H81.6479C81.6479 126.999 81.9889 126.999 81.9889 126.666L157.69 30.9998C158.031 30.6664 158.372 30.6664 158.372 30.3331C158.713 29.3331 158.372 28.3331 157.349 27.9998Z" stroke="#262626" stroke-width="2" stroke-miterlimit="10" stroke-linecap="round" stroke-linejoin="round"/>
<path d="M145.755 24.0018L109.269 11.6685L125.978 8.66855L145.755 24.0018ZM108.587 11.6685L151.211 29.335L126.319 39.6683H125.978L108.587 11.6685ZM58.8013 4.66858H100.744L114.725 6.66856L105.518 8.33522C105.177 8.33522 104.836 8.33522 104.836 8.33522H104.495L67.3262 10.3352L101.767 12.0019L88.4679 33.335L105.177 13.6685L125.637 40.0016L84.035 45.0016L125.637 42.3349L83.353 108.334L79.943 60.0015L76.5331 108.334L37.6595 48.3349L67.3262 106.001L9.69779 33.6683L32.8855 42.0016H33.2265L75.8511 44.6682L34.2495 39.6683L54.7093 13.3352L77.2151 40.6683L56.7553 9.33521C56.7553 8.66855 56.4143 8.33522 55.7323 8.00188C55.3913 7.66855 55.0503 7.66855 54.3683 7.66855L45.1614 6.0019L58.8013 4.66858ZM33.9085 8.33522L51.2993 11.3352L33.9085 39.6683H33.5675L8.6748 29.335L43.7974 14.3352L13.7897 24.3351L33.9085 8.33522Z" fill="url(#paint2_radial_108_201)"/>
<defs>
<radialGradient id="paint0_radial_108_201" cx="0" cy="0" r="1" gradientUnits="userSpaceOnUse" gradientTransform="translate(79.9432 152.332) scale(54.2996 6.51013)">
<stop stop-opacity="0.75"/>
<stop offset="1" stop-opacity="0"/>
</radialGradient>
<linearGradient id="paint1_linear_108_201" x1="79.943" y1="127.332" x2="79.943" y2="0.666666" gradientUnits="userSpaceOnUse">
<stop stop-opacity="0.5"/>
<stop offset="1" stop-opacity="0.05"/>
</linearGradient>
<radialGradient id="paint2_radial_108_201" cx="0" cy="0" r="1" gradientUnits="userSpaceOnUse" gradientTransform="translate(42.5776 27.6778) rotate(42.1039) scale(74.3306 81.2181)">
<stop stop-color="white" stop-opacity="0.25"/>
<stop offset="1" stop-color="white" stop-opacity="0"/>
</radialGradient>
</defs>
</svg>
