<svg width="24" height="24" viewBox="0 0 24 24" fill="none" xmlns="http://www.w3.org/2000/svg">
<g clip-path="url(#clip0_239_4160)">
<path d="M14.5608 18.8235C14.5608 18.8235 15.043 17.414 16.4525 16.0045C20.1988 16.9318 23.5 20.233 23.5 20.233C23.5 20.233 21.6083 24.9437 15.9703 23.052C10.0356 21.0861 2.91391 13.9644 0.948028 8.02969C-0.943667 2.39169 3.76702 0.5 3.76702 0.5C3.76702 0.5 7.06822 3.80119 7.99552 7.54749C7.06822 8.47479 5.17652 9.43919 5.17652 9.43919" stroke="#999999" stroke-miterlimit="10" stroke-linecap="round" stroke-linejoin="round"/>
<path d="M12.0015 0.5C18.3442 0.5 23.5 5.6558 23.5 11.9985" stroke="#999999" stroke-miterlimit="10" stroke-linecap="round" stroke-linejoin="round"/>
<path d="M12.0015 4.69141C16.0445 4.69141 19.3086 7.95551 19.3086 11.9985" stroke="#999999" stroke-miterlimit="10" stroke-linecap="round" stroke-linejoin="round"/>
<path d="M12.0015 8.8457C13.7448 8.8457 15.1543 10.2552 15.1543 11.9985" stroke="#999999" stroke-miterlimit="10" stroke-linecap="round" stroke-linejoin="round"/>
</g>
<defs>
<clipPath id="clip0_239_4160">
<rect width="24" height="24" fill="white"/>
</clipPath>
</defs>
</svg>
