<?xml version="1.0" encoding="UTF-8"?><svg id="a" xmlns="http://www.w3.org/2000/svg" xmlns:xlink="http://www.w3.org/1999/xlink" viewBox="0 0 128 128"><defs><style>.c{fill:none;}.c,.d{stroke-width:0px;}.d{fill:url(#b);}</style><linearGradient id="b" x1="64" y1="126" x2="64" y2="6" gradientTransform="translate(0 130) scale(1 -1)" gradientUnits="userSpaceOnUse"><stop offset="0" stop-color="#f6cd51"/><stop offset="1" stop-color="#f48e2a"/></linearGradient></defs><path class="d" d="m32.39,56.53c-.13-.02-.19.04-.22.11,0,.2-.09.4.15.57v.16c-.15.22-.04.44-.04.66.2.57-.04,1.15.19,1.72,0,.04.06.05.09.07h-.02c-.09.22.15.38.17.58l.02.33c.19.11-.06.24-.02.35-.39.35-.09.68,0,1l.02.09v.09c.13.13.04.35.39.38.07,0,.13-.02.2-.04.11-.07.19-.16.11-.26.07-.02.15-.05.19-.09-.06.38-.09.78-.3,1.15-.02.04.06.09.09.15-.48.36-.3.77-.11,1.17.44.22.5,0,.61-.18.06.05.11.09.17.15-.13-.02-.24.02-.28.11,0,.02,0,.04.02.04-.13.09-.31.16-.2.31l.22.09c.06,0,.09-.02.11-.04-.02.07-.07.16-.09.24v.05c0,.11.02.27.26.2.22-.05.5-.2.39-.38-.11-.2-.11-.38-.07-.57.11-.11.13-.22-.02-.33-.11-.18.06-.44-.37-.55h-.02c.06-.18.52-.02.56-.22l.11-.02c.09-.46.59-.66,1.26-.77.26-.18-.19-.27-.15-.42.2-.09.17-.22.17-.33-.09.04-.2.13-.3.13-.17-.02-.11-.11-.09-.18.02,0,.06.02.07.02.2-.02.26-.09.22-.2-.04-.09-.06-.2.11-.26.17-.09.43-.2-.02-.27-.31-.04-.09-.29-.37-.36-.04,0-.04.02-.07.04h.02c-.15-.13-.17-.27-.15-.42-.15-.18.46-.22.28-.4.04-.04.06-.07.07-.13,0-.04-.02-.07-.04-.13-.35-.24-.74-.44-.78-.78-.19-.07-.04-.31-.37-.33-.02,0-.02-.02-.04-.02.15-.44.07-.86-.17-1.28l.07-.51.09-.05c.07-.11.02-.13-.07-.15,0-.05-.06-.09-.09-.07-.2.09-.19-.27-.06-.31.04,0,.07,0,.11-.02v-.04s.04-.02.06-.04c.07-.05.13-.09.17-.16.02-.04.04-.09.04-.13-.04-.09-.04-.2-.09-.29.07-.07.07-.16.07-.26.13-.04.22-.04.13.18-.04.09-.02.2-.02.29.93.13,1.17.44.76.93.11.02.22.04.3.07v.09l-.13.07v.35c.06.02.11.02.13,0-.02.05-.02.11.02.16l.13.58c-.2.02-.39.02-.41.18.17.22.22.24.26.18.26-.26.28-.05.33.05.04.05.09.13.13.18v.33s-.07.02-.11.02c-.13.02-.3-.33-.39.02l-.04.15c-.3.04-.22-.18-.39-.22l-.17.16c.04.16.2.27.44.33l.26.02.15-.09c.2-.05.46-.2.33.11-.04.09-.02.2-.02.29.93.15,1.15.47.74.97.26.04.48.11.35.31l-.11.02c-.02.16.06.36-.07.46-.76.49-.59,1.06-.44,1.62.04,0,.09,0,.13-.02h-.11c-.22.13-.2.27-.15.42v.09l-.02.26-.11.02-.02.42h.02c-.24.11-.5.22-.3.44h.15c-.07.26.22.16.43.16.09-.11.17-.22.11-.35l.02-.05c.39.35.48-.02.7-.13.02-.02.04-.04.02-.07.59-.22.35-.57.39-.88l.28-.18c.11-.07.02-.16.02-.24.04.04.07.09.15.07l.09.05s-.02.04-.04.05c-.02.05,0,.11.07.16.3.27.56.05.83-.02l.04-.68s.02-.07,0-.09c.2-.18.11-.44.39-.6l-.22-.11-.04-.33v-.35l.13-.09c.13-.13.28-.24.43-.02-.09-.38.31-.75.13-1.13.02-.16.22-.33-.02-.49-.09-.05-.2-.13-.02-.2.48-.18.22-.42.13-.64.11-.24.19-.47.11-.71.02-.02.02-.05.02-.07l.11-.04v-.16l-.02-.75s.04-.05.06-.09c-.02-.09.04-.2-.06-.27,0,0,.02,0,.02-.02.13-.18.11-.4.37-.53.04-.04.04-.07,0-.11-.02-.02-.04-.05-.04-.09-.04-.02-.07-.04-.11-.05l-.06-.73s.04-.05.04-.07l.11-.2c0-.16,0-.31.02-.47.02-.15.11-.29-.22-.33v-.05s.06.04.09.04c.37-.07.33-.26.35-.44s-.09-.35.04-.53l-.02-.26c-.19,0-.35-.11-.54-.05v-.16c.17-.02.35.04.52-.05l-.02-.09s.04-.04.02-.07c.22-.15.07-.31.09-.47-.13-.04-.28-.04-.37-.11.09-.04.15-.07.19-.15l.13-.11c.19-.15.06-.26-.13-.35v-.16c.06-.15.09-.29,0-.44t-.04-.02l.07-.2.02-.49s.09-.02.11-.04c-.24-.53-.19-1.11-.28-1.66.09-.11.04-.18-.15-.18l-.02-.15.07-.16c.13-.09.11-.18.07-.27.02-.02.04-.02.06-.04,0-.07.02-.16-.07-.24l-.11-.15s-.04-.02-.07-.02l.06.02c0-.26.44-.55-.09-.75,0,.02,0,.05-.02.07h-.02s.04-.05.04-.07l.11-.31.09-1.44-.22-.99c.09-.64.06-1.26-.09-1.86.39-.6-.04-1.13-.07-1.68.04-.02.07-.04.11-.04.22-.29.17-.57.15-.88-.02-.55-.39-.99-.46-1.5.3-.47.07-.89.07-1.35s-.48-.84-.28-1.35c-.04-.13-.02-.29-.19-.38.02-.02,0-.02.02-.04.11-.2-.06-.35-.11-.51.06-.04.09-.07.13-.13.31-.22-.33-.51.3-.71,0,0-.02-.15-.06-.15-.39-.02-.26-.2-.26-.35s-.02-.29-.28-.35c-.15-.07-.2-.16-.02-.27.19-.04.22-.13.17-.22-.2-.33-.17-.69-.28-1.04.07-.11.06-.18,0-.24-.02-.42-.28-.8-.17-1.24-.02-.04-.06-.05-.13-.04,0,0,0,.02-.02.02-.07-.15-.11-.31.11-.47.13-.11.09-.2-.09-.24l-.06.13-.17-.11c-.06-.16.04-.31.17-.46.07-.16-.15-.22-.22-.33l-.06-.05c.07-.26.07-.51.06-.77l-.11-.24c-.07-.22.2-.51-.2-.64-.02-.16,0-.33-.04-.49-.06-.24.11-.53-.26-.68-.04-.02-.07,0-.11,0-.04-.09-.13-.18.02-.29.3-.2.31-.38.04-.55-.09-.35-.24-.68-.31-1.02-.19-.73-.33-1.59-.69-2.15-.04.02-.06.02-.07.02.04,0,.06-.02.09-.02,0-.07.19-.13-.06-.16.41-.05.02-.09.17-.15.06-.02.26,0-.07-.07-.04-.07.41.02-.07-.16-.09,0-.11,0-.15-.02l.11.04c.26.07.3.09.26.05l-.07-.05c.17.02.15-.02.13-.07.43.24.04-.04.24.07l-.17-.13c-.24-.2.13.07.13.07.04.02.02,0,0-.02,0-.02.13.07.13.05-.11-.13.15.11.06,0s-.11-.16,0-.05c.13.18-.2-.33.07.07-.02-.07,0,0,.07.02.15-.04.3-.09.33-.31l-.04-.02.04.04c.09.04.24,0,.24.05l.04.05s0-.02-.02-.07c.02,0,.06.05.04-.05.07.4,0-.15.04.02v-.05.04-.04h.02v.15h.02c-.02.09-.06.29,0,.02l.04-.13c.07-.2-.04.16.04,0-.09.26,0,.07.04.04q-.07.13.02,0c-.17.26-.06.09.04,0,.06,0,.07-.04.09-.05-.02.04-.04.05-.06.07.02-.02.06-.04.13.02-.04.15-.31.46.11.26l.09-.09s-.07.04-.09.09c.09.53.54.68.96.82.06.04.11.05.19.05l.33.29c.2,0,.22.22.39.26h.07s-.02,0-.04.04c-.02.02-.04.05-.04.09.06.22.19.37.48.29.11.15-.02.51.31.46l.15.07c0,.33.37.24.54.37l.06.2.06.05c.67.51,1.54.78,2.08,1.42.04-.02.07-.05.09-.09.15.07.3.16.44.24.82.36,1.67.66,2.72.53.24.07.54-.09.8-.09.15.15.44-.11.61-.04l.65-.37v.02c0,.05.04.09.09.07l.07.04c.35-.35.78-.47,1.11-.88.33,0,.59-.35.89-.55l.63-.69c.87-.84,1.39-1.81,1.82-2.81l.19-.22.06-.11-.02-.35.04-.16v-.38c.04-.15.09-.33-.02-.4v-.49c0-.36-.26-.6-.06-1.08-.17.09-.19-.07-.28-.09-.26-.18-.28-.58-.5-.8-.48-.44-.87-.97-1.3-1.48-.06-.18-.28-.11-.39-.22-.41-.46-.91-.82-1.57-1l-.57-.46-.09.05-.02-.04h-.04s.02-.04.02-.07c-.15-.11-.22-.31-.44-.31l-.13-.11c-.02-.35-.41-.27-.56-.46-.22-.29-.5-.55-.8-.78l-.22-.16c-.06-.05-.15-.11-.3-.26l-.83-.71c-.15-.07-.28-.16-.37-.33l-1.35-1.17-.76-.75-.07.05v.11-.09l-1.02-.99s-.04-.02-.06-.04c.04-.02.06-.05.09-.11-.56-.8-1.26-1.17-1.85-1.84l-.06-.04c-.2.11-.41.24-.59.37l-2.26.91-1.91,1.15-.06.02-.06.05-.57.29c-.65.18-1.24.58-1.85.93l-1.2.8-.35.15-.2.09c-.13.07-.26.15-.39.22l-1.19.75c-.69.4-1.35.84-2,1.28-1.09.71-2.13,1.46-3.21,2.19-.5.37-1.22.68-1.45,1.13l-.06.04c-.17,0-.28.04-.37.07-.02.24.28.62.32.89l-.02.42.52,1.48c-.11.29.02.64.28,1v-.02l.07.29c.02.97.56,1.93.82,2.88.13.29.19.6.28.91.04.15.09.33.15.42.06.07.11.15.2.2.04.07.13.15.09.22-.19.66.15,1.2.35,1.77.35.97.52,1.97.72,2.97l.19.99.15.49.11.4c.09.69.06,1.42.74,1.97-.11.11-.11.2.06.26l.15.66c.06.16-.2.38.07.49l.04.16-.02.04.02.04c-.04.05-.04.09-.02.15-.02.15,0,.27.11.38l.02.13c-.06.33-.09.66.17.93.07.13.22.22.2.36-.04.02-.07.02-.11.04-.06.46-.02.91.2,1.31.15.46-.04.97.17,1.42,0,.02.02.05.02.07-.09.51.24.97.26,1.46.04.64.26,1.28.41,1.92h.09c.3.91.26,1.86.37,2.79l.04.04c0,.29.04.58.17.86l.04.29c.02.38-.07.78.06,1.15,0,.02,0,.05.02.07v.11c-.09,0-.13.05-.17.11,0,.2-.07.4.17.55l.02.16c-.13.22-.02.44,0,.66.22.55.04,1.15.28,1.7,0,.04.06.05.09.05h-.02c-.09.22.17.36.2.57l.04.33c.19.11-.04.24,0,.35-.37.36-.06.68.06,1l.02.09v.09c.09.07.09.2.19.27v.16l.11.11c.06.02.09,0,.15-.02h-.15l.07,1.1c.04.16.22.31.17.49-.41.27.11.57-.09.84,0,0,0,.09,0,.09Zm28.28-4.93c-.07.02-.15.04-.22.07,0-.02,0-.04.02-.04.06-.02.13-.04.2-.04ZM4.48,75.38c.74-.05,1.15.33,1.76.47l1.35.57h.33l.06-.02h.02s-.06.02-.07.02c.31.13.65.26.98.36l.7.22,1.02.29c.72.22,1.48.31,2.17.62.17.09.37.02.56.09.07.04.15,0,.15-.13h.02l.2.13c.3.13.65.13.89.38.57-.04,1.06.27,1.59.37.17.04.32.09.48.15.26.31.56.46.98.47.5.02.94.4,1.41.62,1.28.46,2.63.71,3.85,1.26l.82.27.72.38c.31-.05.54.16.8.29l1.41.51.91.46c.19-.09.3,0,.39.15l1.24.38c.11.04.2.11.33.02l.13.04h.02c.07.35.37.37.57.51.15.11.31.16.48.26h.04l.02.04c.78.33,1.52.75,2.32,1,1.28.44,2.43,1.08,3.61,1.66.13.07.24.16.37.26,1.11.36,2.13.91,3.15,1.48.15.09.33.15.5.2.2.16.43.27.69.33.28.26.57.46.93.6l.13.05.04.15.44.24c.26.05.43.27.72.24,0,.02.02.04.02.05.13.05.26.07.33.2.24-.02.33.38.65.11-.02,0-.04-.02-.06-.04l-.04-.29c.11-.13.19.22.33-.07.17-.04.2.31.44.05l.37.16c.11-.46-.41-.27-.43-.6,0-.04-.02-.07-.06-.09h-.04s-.02-.02-.02-.04c-.04-.05-.09-.07-.15-.09h-.02s.02-.02.02-.04c.02-.04,0-.05,0-.05-.04-.15-.15-.2-.24-.27h-.02l.02-.18.11-.22c.04-.24.07-.47-.02-.68-.09-.05-.11-.15-.02-.29-.06-.36-.33-.46-.59-.55l-.26-.02s.04-.07.04-.11c-.13-.2-.15-.58-.5-.49l-.24-.13c.02-.22-.04-.27-.24-.09-.22.22-.43.24-.56-.02.09.02.19,0,.26-.15l.26-.51c-.2-.09-.24.18-.35.31v.04s-.06-.04-.07-.04l-.2-.13v-.24c.33.05.11-.44.35-.47l.15.05.17.24c.15-.04.26.2.43-.07.13-.07.22-.05.24.11-.04.42.28.42.5.46.19.04.35.09.52.18.09.02.17.11.3,0,.02.02.06.02.07.04l.31.33.35.07c.06.04.11.09.2,0l.02-.04c.11.2.28.27.5.26l.19.09s-.04.07-.04.09c.41.27.85.47,1.37.58.19.04.35.02.54-.13.19.02.2.24.28.38l.06-.02v.09s.06.04.11,0c.26-.31.59-.36.87-.42.22-.05.26-.2.35-.37l-.02-.15c0-.13-.07-.16-.17-.16-.02,0-.04.02-.06.04.02-.26.07-.49.35-.62l.17-.27c.31.16.67.05,1.04-.11v.04c.06.07.13.11.22.13.26-.07.57.22.78-.35-.06-.16-.35.13-.33-.16.11-.15-.02-.26.04-.38-.06-.07-.07-.22-.19-.22-.02-.02-.02-.05-.04-.07-.06-.09-.13-.16-.22-.22-.2-.05-.43-.09-.67-.02l-.02.02v-.13c.26-.13.17-.29.13-.44-.02-.02-.04-.04-.06-.07l-.15.05c-.07.11-.13.07-.2.05l-.24-.26c.13-.4-.28-.27-.35-.47.02-.13-.06-.15-.13-.18-.22.04-.39,0-.44-.26-.04-.13-.09-.24-.26-.11-.3-.15-.63-.22-.82-.53,0-.07-.06-.11-.13-.11-.02.02-.04.04-.06.05v-.02s-.02-.05-.06-.05l-.11-.16s-.04.04-.06.07l-.22-.15-.11.02-.04.07s.04-.05.04-.07l-.09-.2c-.19-.18-.35-.36-.61-.44-.07,0-.13,0-.2.02-.07.02-.13.07-.17.15-.3,0,0-.31-.07-.42l.04.02c.06-.05.06-.13.07-.18,0-.04.02-.07.04-.11.04-.04.04-.07.07-.11l.06-.05.04-.05.06-.15s.04,0,.04-.02c.07-.04.15-.09.22-.15.07.13.2.16.37.09l.11-.05v.02l.24.09c.04.16.17.18.28.26l.15-.02.78.2c.19.2.48-.04.7,0,.19.04.48-.11.44.31l.07.05c0,.05.04.07.07.07,0,.02.02.04.06.04l.22-.04c.17.02.19.27.39.22v-.02l.04.02.04.02c.2-.15.37-.09.52,0,.35-.29-.04-.36,0-.55-.02-.18-.15-.22-.26-.27l-.24-.13c-.13-.07-.26-.15-.31-.31l-.28-.11s-.04-.05-.06-.09c-.17-.09-.37-.04-.57-.02-.02,0-.02.02-.02.04-.19,0-.04-.55-.41-.22-.04-.13,0-.35-.24-.22-.11.05-.19.04-.19-.11l.07-.11c-.02-.15-.17-.07-.24-.13-.31-.36-.7-.6-1.17-.69l-.06.11-.06.11s-.06,0-.06-.02c-.07-.07-.07-.29-.28-.13l-.07-.04c-.15-.24-.46-.2-.67-.33-.02.04-.02.07-.02.11h-.02s.02-.07.02-.09l-.26-.18.09-.05s-.02,0-.04-.02c.02-.02.04-.02.06-.04.02-.37-.2-.37-.43-.38-.85-.26-1.52-.88-2.32-1.22-.54-.24-1.07-.49-1.61-.75-.26-.4-.78-.35-1.07-.68-.19.04-.33-.02-.41-.2l-2.78-1.2c-.28-.11-.54-.26-.87-.09-.28-.11-.57-.18-.78-.42-.69-.24-1.28-.69-1.91-1.04-.41-.24-.87-.38-1.28-.62l-.15-.16c-.54-.2-1.09-.36-1.56-.71-.13-.16-.3-.22-.5-.18l-.07-.04-1.59-.57c.06-.27-.13-.26-.24-.31-.26-.15-.57-.11-.82-.29l-.15-.04c-.41-.11-.83-.26-1.28-.22l-1.09-.38c-.06-.2-.19-.33-.32-.46-.15-.24-.35-.27-.61-.2-.33.05-.54-.27-.85-.27l-.06-.13c-.35.05-.5-.35-.82-.38l-.26.16-.5-.16-.96-.27-.07-.02c-.13-.02-.2-.24-.37-.16-.02,0-.04.02-.07.04-.15.02-.19-.16-.3-.2-.26.09-.44-.09-.67-.09-.02.04-.02.05-.02.09l.02-.09-1.06-.42c-.09-.05-.22-.05-.24-.22l-.39-.26c-.09,0-.19-.04-.28-.05h-.37s-.04-.02-.07-.04c-.28-.29-.67-.29-1.02-.4-.61,0-1.11-.35-1.72-.33-.09,0-.19-.04-.26.05l-.17-.04c-.11-.13-.28-.15-.43-.15-.04,0-.06,0-.07-.02-.11-.18-.3-.2-.46-.24-.07-.04-.13-.05-.2-.07-.2-.05-.17-.04-.19-.04,0,0-.02.02-.02.04,0-.02.02-.05.07-.22,0,0,0,.02-.06.11-.06.07.09-.2-.07.09l-.06.05-.06.09s.04-.05.06-.09v-.02c.04-.09,0-.07.04-.15l.02-.02s-.17.15,0-.04c.07-.09-.13.09-.15.09,0,0,0-.02.04-.04h-.02s.04-.04-.11.07c-.02-.02-.04-.04-.06-.05h-.02s.06-.05-.04-.04l-.04-.11-.02-.05s0,.04-.02-.09l-.02-.33v-.26c.24,0,.06-.04.11-.04h.07c.24.02.02-.02.24.02.04,0,.07,0,.11.02s.09.04-.06-.02c-.11-.04-.19-.07-.28-.11s.22.07.15.05c.15.05.13.05.13.05,0,0-.07-.05.07.04l-.09-.05s-.17-.11-.15-.11l.04.02h.04l.06.02-.11-.09c-.26-.27.06,0,.06,0,0-.02-.02-.18.09,0v-.02l.02-.02s-.06.02.17-.05c.06.02.11.02.15-.02.3,0,.57-.09.83-.22l.52-.15.09-.02c.26-.07.57,0,.78-.26l.2.04.35-.11.07-.13s.06-.02.07-.04c.35-.29.85-.16,1.17-.51l.24-.07c.13-.04.26-.07.32-.24l.2.04c.3,0,.5-.22.7-.4l.15-.15c.07.11.13.11.2.05.13,0,.24-.04.33-.13l.24-.11.17-.05c.3.07.48-.27.8-.16.11-.22.39.04.52-.18l.31-.15,1-.38.19-.29c.04-.11.09-.22,0-.33-.02-.02-.11.07-.17.11-.17.07-.24-.07-.3-.24.13-.31.35-.47.63-.57.06-.02.19.02.13-.13-.04-.13-.15-.18-.24-.13-.15.11-.32.16-.5.05,0-.09,0-.18.06-.24.04-.04.19.02.11-.13-.04-.09-.13-.13-.2-.11-.22.07-.43.16-.65.26l-.11.2-.33.11c-.06.02-.06.07-.04.13-.06.04-.09,0-.13-.05l-.41.15c-.19.04-.24-.11-.3-.29l-.06.46-.02-.02.02-.02c-.13-.09-.24-.04-.35-.02.02-.04.02-.07,0-.13s-.06-.11-.09-.15c.04-.04.06-.05.09-.11h.02c.15.05.28,0,.39-.09.17-.11.43,0,.52-.26,0-.04,0-.05-.02-.09.04,0,.06-.04.06-.07.13-.09.39-.02.35-.36.13,0,.22-.05.31-.15l-.02-.35c.2.02.37-.11.59.04.04,0,.06-.02.07-.04.11,0,.19-.05.2-.2l.17-.31c.06.02.07,0,.09-.05,0-.02-.02-.04-.02-.05.11-.02.26.02.15-.26-.09.04-.15-.02-.19-.11.17.05.31.05.39-.13-.04-.26-.17-.42-.37-.46-.15-.11-.28-.11-.41-.11.06-.02.11-.07.13-.16l.06-.04c.13-.02.02-.22.09-.27l-.43.04-.17-.42c.06-.04.11-.07.09-.18.11.02.2.24.33.13l-.17-.44-.06-.18c.24-.09-.04-.26-.04-.38-.07-.29.04-.53.04-.8.06,0,.17.11.17-.04,0-.11-.07-.2-.17-.24l-.15-.16c.24-.05.26-.18.02-.4.02-.16.02-.33-.09-.47,0-.35-.24-.44-.43-.6.07-.46-.22-.55-.46-.71-.13-.02-.2-.16-.28-.27l-.17-.16c-.13-.09-.19,0-.24.07.02-.11,0-.22-.11-.33-.07-.07-.13-.09-.2-.04h-.07l-.11-.07c-.06-.18-.15-.24-.28-.24l-.3-.05c-.06-.07-.13-.09-.2-.09-.11-.09-.22-.42-.32-.07-.09-.02-.19-.13-.28-.05-.13-.35-.3-.16-.44-.18-.26-.02-.56-.16-.74.09-.07-.11-.13-.02-.2-.02-.17-.07-.33-.09-.48,0-.02.02-.02.05-.02.07t-.02-.02s.02-.05,0-.07-.04-.04-.04-.02c-.13-.09-.22-.07-.24.11-.35.02-.69.09-.95.33-.2-.04-.41-.04-.57.11-.19-.02-.39-.11-.48.18l.02.07s0-.05-.02-.07c-.19-.02-.33.22-.56-.07-.06-.05-.17.05-.19.2l.04.18-.15.07s.02.04.02.05h-.02v-.05c-.06,0-.13-.04-.17-.02-.91.62-2.04.6-3,1.11-.19-.04-.33.04-.48.13l-.22.13s-.07.04-.13.05c-.07.02-.17.04-.24.05l-.04.04-.06.02c-.06.04-.07.07-.06.11-.78.09-1.48.4-2.17.66l-.46.11v.02s-.04-.05-.06-.09c-.54.04-1.06.15-1.46.38-.07.07-.17.11-.32.09-.93-.02-1.5.42-2.28.57-.37.07-.87.11-1.04.35-.09-.04-.2-.07-.31-.09l-.35.07c-.15.82-.26,1.7-.11,2.68l-.17,2.26c.24.57,0,.99-.06,1.48-.04.27-.17.53.06.8.22.38-.13.73.04,1.11-.11.57-.13,1.17-.11,1.77l.04.57c.02.16.02.33.02.66v1.66s-.04.07-.06.13c-.04,0-.07.02-.11.04L0,67.09c.13.73.07,1.55.33,2.19-.19.49.19.82.04,1.3.06.13.22.16.15.42-.11.46-.04.8.13,1.08l.02.16c-.06.22-.06.36.13.26-.07.11-.02.26-.06.38.04.53.06,1.08.13,1.59,0,0,3.61.91,3.61.91Zm27.44,44.04s-.02-.07-.04-.11c.02,0,.02.02.04.02v.09l3.43,1.75,3.15,1.62c.09-.02.26.04.17-.18-.65-.31-1.13-1.08-1.78-1.3-.04-.04-.07-.05-.11-.09h.46l1.17.62c.35.2.74.49,1.07.47l.26.13,1.52.86c.41-.38.8-.78,1.17-1.3-.02-.02-.04-.02-.06-.04,0,0,0-.02.02-.02l.06.04c.57-.31,1.13-.86,1.61-1.5l.28-.4c1.07-.62,1.87-1.82,2.84-2.66l.8-.73c.43-.09.57-.47.91-.68-.02-.04-.04-.07-.07-.09l1.91-1.66c.54-.77,1.24-1.37,1.95-1.97.02-.07.04-.16.09-.2l2.83-2.54.06-.22c.11-.07.41-.07.02-.38l-.19.02c.11.22-.11.18-.13.29-.43.26-.8.57-1.13.93-.09.09-.13.26-.37.05v.02c-.8.75-1.72,1.31-2.65,1.92-.13.07-.24.18-.37.29-.09.11-.2.2-.31.27-.26-.05-.13-.2-.17-.31l.67-.57c.07,0,.13-.04.13-.13l.3-.33s-.06-.04-.09-.05c.02.02.06.04.09.05l.28-.2c.19,0,.33-.07.31-.29l.2-.16.26-.24-.09-.09.02-.02s.02.07.07.09l.54-.44c.04.05.07.09.13.11.15,0,.26-.07.24-.24.22-.24.43-.47.72-.64.06-.09.19-.09.11-.27l.09-.15.3-.07-.06-.07.11-.11c.39-.07.59-.4.89-.62,0-.02.02-.02.04-.04.02.04.04.07.07.09l1.17-1s-.04-.04-.04-.05c-.02-.04-.06-.04-.07-.05,0,0,.02,0,.02-.02l.06.07.02-.02.02.07c.54-.13.74-.69,1.3-.88,0,.35-.35.33-.32.62.04.35-.09.53-.35.62-.11.04-.2.11-.19.29l-.04.02v.04c-.13.07-.3.15-.35.38.35.07.52-.05.72-.15.41-.18.26-.78.52-1.04.06,0,.11-.02.13-.07.44-.22.76-.58,1.06-.99-.02-.02-.04-.02-.06-.02.02,0,.04.02.06.04l.19-.16s-.04-.04-.04-.05l.02-.02.04.07c.2-.05.33-.18.44-.35.04-.04.06-.09.09-.13.17-.18.37-.31.59-.42.57-.29,1.19-.49,1.67-.91.26-.04.39-.27.59-.38l.93-.66,1.98-1.44c.09-.02.17-.07.22-.13.35-.2.65-.47.96-.77.09-.05.19-.09.26-.15,1.13-.77,1.98-1.9,3.13-2.66.91-.62,1.8-1.28,2.61-2.06.44-.42,1.02-.68,1.3-1.31.02-.18-.07-.18-.19-.2-.17-.15-.22-.09-.31.04-.26.35-.61.57-.96.77-.15-.05-.2.07-.32.11-.09.02-.19.13-.26-.13l-.06-.09c-.09-.18-.26-.35-.09-.53.15-.15.31-.33.35-.6l.13.02.07.11c.15-.15.3-.29.37-.51.33.13.52.04.56-.31l.69-.44s-.04-.02-.04-.05t.04-.02l.02.05c.3.07.41-.16.5-.36.13-.24.28-.44.56-.47.39.09.39-.35.57-.57,0-.05.02-.11.04-.16l.26-.22.57-.4c.02-.2.19-.27.28-.46-.15.04-.24.05-.33.09l-.69.55s0-.04-.02-.05h-.07l-.59.53c-.22.26-.56.35-.74.66l-.13.13c-.19-.04-.33.02-.41.2l-.13.13-.22.15c-.15-.07-.19.05-.28.09-.04-.07-.26.02-.15-.18.07-.13.2-.22.31-.31l.59-.55.26-.22c.13-.11.06-.2-.09-.29l-.46.42s-.06.02-.07.04c-.44.16-.76.49-1.06.86l-.06.09c-.61.42-1.22.84-1.78,1.33-.11.09-.17.38-.46.13v-.16s.04-.04.04-.07c.93-.71,1.61-1.73,2.5-2.48l.39-.33c.11-.02.19-.09.26-.16l.28-.18.13-.11c.24-.13.44-.27.59-.51.35.07.44-.29.63-.47.61-.58,1.32-1.04,1.82-1.79.52-.49,1.06-.95,1.57-1.42-.46-.27-.67-.07-.91.07-.11-.11-.35-.18-.17-.38.09-.11.19-.26.07-.44-.13-.2-.31-.15-.46-.13-.28-.04-.56-.11-.78.05l-.28.04c-.22-.05-.39.07-.56.15-.31.07-.61.2-.85.42-.26,0-.35.26-.52.36l-1.15.27c-.37-.11-.61.09-.91.15-.04-.42.33-.35.46-.58l.69-.44-.04-.07h.02l.02.07c.24,0,.33-.24.54-.31.46-.16.85-.44,1.33-.82-.72-.07-1.15.16-1.57.44-.76-.09-1.3.24-1.82.64.02.05.06.07.07.09l-.07-.09c-.17,0-.31.07-.41.2l-.2.16c-.26.04-.48.16-.69.29-.94.31-1.89.6-2.74,1.08-.2.07-.43.13-.57.29-.63.15-1.15.49-1.69.82-.32.09-.59.22-.83.42-.43.07-.72.35-1.04.58-.33.15-.74.2-.96.53-.89.46-1.76.89-2.58,1.44-.19-.05-.26.07-.37.15l-1.41,1.06c-.07.05-.19.07-.24.13-.91.44-1.59,1.15-2.32,1.83-.04,0-.06.02-.07.05-.59.47-1.39.64-1.93,1.19l-1.24.77c-.87.36-1.48,1.04-2.2,1.59l-.3.11c-.43.15-.72.47-1.07.73-1.39.99-2.71,2.04-3.98,3.16-.19.35-.67.38-.82.8l-.26.38-2.56,2.43c-.06.04-.11.05-.17.09-.44.31-.85.68-1.24,1.06l-.98.97s-.06-.04-.02.04c0,0,0,.02.02.04l.02.02c0,.07-.04.13-.06.24l-.02.05c-.06.04-.15.04-.24.05-.04-.11-.06-.09-.09-.09-.11-.18-.11-.36-.28-.31l-.02-.05c-.13.04-.19.05-.26.05.02-.04.04-.09-.04-.04-.13.05.06-.15-.2-.02v-.02s0-.05-.11,0l-.02-.04s0-.05-.13,0v-.02s.04-.05-.11-.02l-.15-.02s-.07-.05-.09-.09c-.15-.05-.06-.16-.28-.27,0-.05-.02-.11-.02-.16,0-.04-.02-.05-.04-.09s-.06-.05-.06-.26c.06-.22.09-.44.02-.68.11-.4.15-.8.07-1.22l.04-.04-.02-.04c-.02-.24.15-.44.04-.68.09-.42.06-.86-.02-1.31.13-.35.04-.71-.09-1.08.11-.2.11-.44,0-.66.09-.26.04-.51-.09-.78.06-.24.06-.47-.11-.71.04-.18.13-.36-.09-.55l-.15-.55c-.17-.78-.44-1.55-1.07-2.26-.11-.07.02-.2-.17-.26l-.07-.18c.11-.29-.13-.58-.3-.86-.04-.07-.15-.13-.26-.13-.04,0-.11.05-.09.09.07.31-.15.64.33.91,0,.02-.02.05-.04.07-.09.09-.11.18.02.27,0,0-.02,0-.02.02-.04.05-.02.13.04.18l-.09-.04c0-.15-.06-.29-.24-.4-.63-.55-.85-1.22-1.48-1.77-.43-.35-1.11-.51-1.46-.2-.57.49-1.43.78-1.95,1.31-.3.05-.22.36-.57.36-.11-.36-.13-.73-.59-1.02-.33-.15-.43.04-.52.16-.13.18-.22.4-.19.62.07.44-.19.8-.31,1.2.02.2,0,.4-.11.58,0,.04-.02.09-.02.13.02.15-.06.27-.11.4-.02.04-.04.07-.04.13-.04.13-.04.26,0,.38,0,.04-.02.07-.02.13-.19.22-.17.49-.22.75.09.33-.24.57-.13.89-.15.68-.22,1.39-.44,2.06-.22.69-.37,1.41-.54,2.12l-.56,1.9-.63,2.08-1.59,5.06,2.28,1.55c.07.02.13,0,.17-.02.76.6,1.78,1.02,2.5,1.64-.43.2.13.44.22.66,1.26.68,2.43,1.68,3.82,2.34h0ZM61.91,25.34c-.07.02-.15.02-.2.05-1.06.99-2.33,1.66-3.5,2.48-.65.46-1.26.97-1.89,1.44l-.26.2-1.95,1.41.09.13h-.02c-.02-.05-.04-.11-.09-.15-.83.55-1.7,1.04-2.43,1.73-.31.07-.39.47-.69.57l-.54.47c0,.05.02.13.07.18.31.15.52.04.74-.02l-.31.29s0-.02-.02-.02c-.06-.02-.09-.02-.09.04l-1.37,1.15-.31.18c.02.05,0,.11.02.16-.07.05-.15.11-.28.18.17.05.26.07.35.11l.31-.16c.35.04.57-.18.85-.33.35,0,.56-.24.83-.35.54-.16,1-.46,1.46-.73.17.16-.15.24.07.4.31-.05.61-.09.91-.15.22.11.37.02.48-.13.04-.05.07-.15.06-.24-.02-.04-.02-.05-.04-.09.06-.04.11-.05.19.02.04.18-.04.27-.07.4l-.52.33s0-.02-.02-.02c-.06-.02-.09,0-.11.05l-.48.4c-.07.05-.13.22.02.22.33,0,.11.33.26.38l.02.02-.24.13c-.06.09-.2.07-.24.2-.02.02-.04.02-.04.05-.02.33-.31.31-.46.46-.02-.02-.02-.02-.04-.04-.09.11-.33.05-.31.33-.02.02,0,.05.02.07-.35.02-.56.29-.85.42.02.04.02.07.04.11l.06.04h-.02l-.04-.05-.43.29.13.22s.02,0,.04.02c.09.07.17.42.28.16.11-.13.26,0,.41.09h-.02c-.06,0-.07.02-.09.07-.04.07,0,.16.04.24-.02,0-.02-.02-.02-.02-.3-.04-.48.02-.35.47-.19.05-.31.44-.65-.13-.07-.11-.13.02-.17.09-.04.09-.04.18.09.27l.41.29c.33.26.06.33.07.49l-.17.07-.24.16c-.07.02-.15.04-.09.18l-.17.07c-.2-.07-.26.22-.46.11-.06.16-.33.07-.3.36-.17,0-.17.35-.43.2-.07.05-.2.05-.17.24.19.35.24-.02.39.11-.02-.35.39-.09.41-.36.15-.13.31-.18.54-.15.09-.2.35-.16.44-.38v-.02c.09-.04.17-.09.3-.02.2-.29.59-.29.85-.49-.02-.04-.02-.07-.04-.09l.3-.16c.5-.11.93-.35,1.32-.68l-.02-.09s.06-.02.06-.04c.04.02.06.02.06-.02l.09.07.11-.07c.11,0,.2-.04.3-.07.15.05.24-.02.33-.11.02-.02.02-.04.02-.05l.02.02.02.16c.02.16.24.31.19.47v.07c-.07-.02-.11-.02-.15.05l-.11.02s-.07-.02-.11-.04c-.11.02-.07.15-.07.24l.06.11-.13-.04-.09.02v.36s-.06,0-.07.02c-.02-.04-.06-.07-.09-.07l-.2.15c.09.26-.22.05-.2.24l-.15.13h-.09c-.2-.05-.15.22-.28.26l-.44.18.04.07c-.07.09-.22.13-.19.31.04.15.17.2.28.2l.02-.16.04.04c.09,0,.15-.05.19-.13v.04c.06.16.13.31.24.44v.02c-.06.15-.35-.09-.31.18-.2-.18-.3-.05-.41.02l-.2-.51c-.28-.15-.37.11-.57.13l-.04.02-.04.02c.24.46.33.13.48.09.09.2.24.33.39.44.02.4-.28.04-.41.09.02.29-.24.29-.28.55-.02.15-.17.22-.07.4,0,.02-.02.02-.02.04-.04.05-.07.13-.07.22-.24-.05-.19.33-.33.4-.06.2-.02.4.22.58t.04.02c-.02.05-.04.09-.07.11.19.13.37.26.41-.02.26-.18.74,0,.83-.47l.44-.13c.39-.07.7-.24.76-.73q-.02-.05-.04-.05h.04-.02l1.3-.75c.06-.07.19-.09.19-.26.04,0,.06-.02.07-.05.19-.11.41-.16.54-.36.06.04.09.04.11-.02l.83-.55c.07-.18.24-.22.41-.26l.11-.18,1.09-.68c.28.07.24-.31.48-.29.15.04.26.02.37-.04.19-.18.78.07.41-.64.02-.02.04-.04.07-.04.17.11.33.24.46.4-.02.02-.04.04-.06.06v.05c-.11-.02-.2,0-.28.05-.07.02-.15.07-.22.11-.07.04-.13.09-.19.13-.09.07-.2.16-.17.36l-1.32.93s0,.05-.04.05c-.04.02-.04.05-.04.07-.37.22-.78.42-.98.86l-.04.16-.13.11c-.3-.07-.44.15-.59.31l-.41.31s.02.07.04.13c-.3.09-.5.33-.67.58-.02,0-.04-.02-.07-.02-.06-.02-.07.02-.07.07l-.28.24c-.39-.09-.46.33-.69.49.2.13.39.11.56.04l.15-.16.26-.09c.09.02.13,0,.15-.09l.15-.13c.48-.13.8-.51,1.2-.73.26-.09.67,0,.5-.58h.02c.07.09.15.11.22.11.02.04.04.07.06.11.06.09.09.16.17.24-.06,0-.11-.02-.15,0-.04.04-.07.09-.07.16-.02,0-.06-.02-.07-.02-.11.05-.22.09-.24.26l.06.44.5-.27.26-.13c.26.09.28-.16.39-.27.37-.18.76-.35,1.04-.64.19-.18.5-.15.65-.38.22-.18.54-.24.65-.57l-.06-.04v-.02l.06.04c.31-.15.85-.04.8-.69,0-.05-.04-.09-.07-.11l.07.11.24.05c.43-.35.96-.55,1.32-.99l.13-.09c.56-.36,1.19-.6,1.65-1.11.19-.02.31-.09.39-.27.2-.15.48-.22.56-.53.04,0,.06-.02.07-.04.48.16.59-.2.76-.47.02,0,.04-.02.04-.07.59-.07.91-.55,1.3-.89.41-.05.56-.46.83-.69.37-.31.82-.51,1.15-.88l2.91-2.14.82-.78c.61-.35,1.15-.78,1.65-1.28l.13-.11c.41-.16.8-.36,1-.78.2-.04.35-.15.43-.35.28-.02.39-.22.52-.42l.22-.16c.98-.75,1.96-1.46,2.84-2.32.35-.13.63-.36.82-.68.04,0,.06-.02.04-.05.24-.2.56-.33.72-.6.13-.04.24-.11.3-.24.13-.04.22-.13.28-.26,1.07-.77,2.04-1.68,2.96-2.61.19.04.28-.09.37-.18.85-.77,1.69-1.53,2.5-2.32l.31-.27c.09-.07.06-.04.07-.05.02-.02.02-.05-.02-.16l.02-.02c.06.02.07.04.06-.04l.09-.07c.06.09.04,0,.04-.05l.04-.05c.04.05.06.04.07-.05l.02.02s.04.05.04,0c.02.09.04.07.04.02l.22.11c.02.13.04.18.09-.02l.04.07c.02.05.04.11.07.04.04.15.11.11.2.11-.02.11-.02.15.07.04t.02,0l.02.02.04.02c-.04.11-.04.16.07.05-.02.11.04.09.13.07-.02.05-.06.11.04.04l.11.04.02.02s-.09.16.19,0c-.24.22-.02.09,0,.13l.11.07.04.02c-.06.04-.06.05.04.04l.04.04s-.02.04,0,.05c-.02.04.04.04.06.05l-.02.02c-.15.05-.06.05-.02.07l-.04.02-.02.13c-.02.05-.15.07-.02.13l-.02.09c-.06-.05-.11.16-.07.27l-.07.27-.2.82-.02.09-.02.09-.3,1.28-.04.18c-.19.35-.19.73-.26,1.1l-.02.09-.17.82-.06.18c-.07.44-.3.86-.17,1.33l-.02.15c-.15.47-.24.95-.13,1.59.24-.27.43-.44.39-.68l.15-.64.02-.09c.22-.11.26-.27.09-.46l.02-.04v-.04c.19-.07.19-.22.2-.37.11-.2.15-.4.15-.64l.15-.73.07-.37c.13-.2.24-.38.15-.64.11-.16.33-.29.24-.51l.06-.29c.07-.09.09-.18.04-.29l.22-.6-.04-.4c.15-.07.19-.2.17-.33.07,0,.13-.02.17-.05.09-.2.19-.4.24-.6.02-.09.04-.24.02-.29-.04-.04-.07-.07-.15-.11-.04-.02-.09-.02-.15-.04l.17-.05-.06-.02s.07,0,.09-.02c.13-.02.19-.05.2-.11l.07.07-.15.05s.04.02.02.02c.11.07-.06.11.06.2.02.02.04.04.04.13l-.07.07c-.11.16-.19.35-.11.55.04.02.09.04.13.04l-.02.11c-.06,0-.09.02-.13.04-.06.09-.11.16.02.27l-.22.33.02.09-.17.71c.2.26-.33.4-.04.66-.04.02-.07.05-.07.09-.02.15-.02.31-.06.46-.15.73-.41,1.46-.22,2.26.07.2-.39.31-.09.55-.06.11-.31.2-.07.37.17.37-.28.68.07,1.06-.13.42-.13.84-.09,1.28l.07,1.15c.02.15.11.24.37.24.31-.33.56-.68.48-1.09.02-.04-.02-.07-.04-.11l.02.02.11-.02.17-.69c.22-.42.31-.88.41-1.31l.31-.88c.22-.2.07-.51.28-.71.02-.07.09-.07.19-.05l-.04.27s.04.05.07.05c-.11.18-.15.4-.13.62.06.24-.13.44.02.68l-.04.89c-.15.6.04,1.24-.04,1.84l-.04.8c.17.24.13.44.11.68-.02.36-.22.71.04,1.17.35-.26.37-.55.46-.89.31.31.7.35,1.09.38.32.18.63.31,1.02.2l.69.05c.5-.05,1.13.13,1.43-.24.24.02.28-.15.46-.18.19-.11.37-.2.46-.36,0-.02-.02-.02-.02-.04.17-.04.24-.15.3-.26h.13s.02-.05.04-.07c.22.07.07.22.2.31.09.27-.09.55.31.88.17-.42.24-.82.93-.93.28-.29.5-.6.33-1l.07-.53.09-.33c.09-.07.11-.16.11-.26.37-.79.7-1.59.78-2.45.06-.04.04-.09.02-.16l.56-1.81-.06-.02.06.04c.22-.26.17-.57.19-.86-.06,0-.09-.02-.15-.04.04.02.09.04.15.04.11-.24.22-.49.3-.73l.11-.37.15-.57.8-3.14s-.07.02-.11.04v-.04s.07.02.11.02l1.57-5.71-9.21-5.84-9.78-4.95-4.74,4.67-.26.26-1.02,1-.94.89c-.96.89-1.96,1.79-2.96,2.65l-.04.02v.05l-2.22,1.95-2.61,2.21c-.41.22-.65.6-1,.88l-2.3,1.84c-.94.77-1.91,1.5-2.89,2.21,0,0-3.58,2.7-3.58,2.7Zm-.37,51.98l.39.09c.5.15,1.02.16,1.52.13.07.04.15.04.2.02.91.11,1.8-.07,2.69-.22.5-.13,1.04-.13,1.5-.36l.48-.15.2-.05c.78-.27,1.52-.6,2.24-1.02,1.45-.82,2.8-1.86,3.76-3.21.39-.35.7-.75.89-1.24.2-.44.63-.73.7-1.24l.09-.18.19-.36c.17-.4.33-.8.48-1.22.13-.46.26-.89.35-1.35l.13-.6c.09-.46.15-.93.17-1.41v-.11c.09-1.53-.07-3.08-.54-4.56-.2-.66-.39-1.31-.82-1.88-.11-.24-.26-.46-.39-.68-.41-.77-.89-1.48-1.45-2.15,0-.16-.15-.26-.24-.36-.39-.44-.83-.86-1.28-1.26-.82-.46-1.48-1.15-2.37-1.44-.52-.16-.85-.71-1.46-.62-.37-.11-.74-.18-1.09-.31-.7-.27-1.46-.4-2.22-.44l-.11-.11-.17.05h-.06c-.02-.35-.3-.26-.48-.27-.54-.05-1.06.13-1.61.04-.35.07-.74-.02-1.07.2-.07-.04-.17-.09-.24-.09-1.04.15-2.06.44-3.02.82l-.7.42c0,.05.02.07.06.11l-.06-.11c-.3.11-.56.29-.78.51-.15.07-.35.04-.43.24-.89.47-1.72,1.06-2.35,1.84-.65.64-1.24,1.35-1.74,2.1-.35.51-.63,1.06-.91,1.62l-.09.18c-.2.2-.19.49-.28.75-.2.24-.24.53-.31.8l-.13.47c-.06.22-.13.44-.17.66l-.09.58c-.13.88-.26,1.77-.06,2.65.02.6-.07,1.26.2,1.84l-.02.04.02.04c-.02.47.24.88.35,1.31.2.82.56,1.61,1.06,2.28l.3.49c.26.4.56.78.93,1.11.19.13.26.38.61.4-.13-.15-.22-.27-.31-.38-.09-.2-.31-.33-.3-.58.04-.11.02-.22-.04-.31-.07-.13-.17-.26-.3-.35-.02-.02-.04,0-.06-.02,0-.05-.02-.13-.04-.18.02.04.04.05.06.09.04.05.07.09.15.11.15.24.3.47.5.66.17.26.39.46.56.73.02.07.07.13.15.16.02,0,.02-.02.04-.02l.22.27c.17.09.19.38.52.35-.2-.33-.3-.68-.56-.91.04-.2-.09-.29-.2-.4,0-.24-.17-.38-.28-.55l-.22-.49c.02-.13-.04-.22-.06-.33.04.04.07.05.15.05l.13.02c.13.15.19.35.43.42l.2.26c.09,0,.15-.05.17-.13l-.2-.26c-.13-.27-.26-.55-.35-.82t-.04-.05v-.05c.04-.18-.07-.31-.15-.44-.02-.04-.06-.05-.09-.09l-.04-.11c.02-.07.02-.15,0-.2.04.02.07.05.11.07.02,0,.06.02.07.02-.02.18.11.31.22.42h-.04s-.07.07-.07.11c0,.09.06.15.15.16l.11.11.04.15s.02.05.06.04c0,0,0,.02-.02.02,0,.04.02.07.06.09.17,0,.31.02.48-.15-.19-.22.07-.64-.22-.8.3-.31.04-.46.04-.68.07-.11.06-.2-.02-.27-.02-.02-.06-.05-.11-.05-.02,0-.04.02-.06.02l-.13-.31c.02-.13-.13-.24-.02-.38l.02-.11-.2-.07c.31-.31-.07-.47.02-.73l-.19-.18.02-.07c.11-.07.15-.15.09-.22-.02,0-.04,0-.07-.02.04-.05.07-.09.07-.15,0,.09.07.18.22.29.11.05.13.13.15.2-.02.04-.04.09-.04.15s.02.09.07.13h.02s-.02.05-.02.07c.04.02.07.04.11.07l.09.13v.04s.02.05.04.07v.02s-.04,0-.07.02c-.2.2,0,.35-.07.53,0,.13.04.24.15.33.04.02.09.02.13.04,0,.09.02.16.19.13-.09.11-.17.2-.17.31.02.04.04.05.07.07.07.16.24.26.31.4-.02.02-.04.02-.04.04.2.38.39.8.82,1.02l.19.2.17-.13-.17-.2c0-.11-.19-.05-.19-.2.04-.35-.15-.58-.24-.86-.15-.35-.11-.75-.28-1.08.09-.22,0-.35-.09-.51.11-.18.06-.31-.02-.44.06-.2.07-.38-.13-.53.31-.15.13-.24.13-.36-.04-.16.15-.35-.06-.47l.07-.24v-.18s.04-.04,0-.04c.2-.35-.02-.68.13-1,.07-.07.04-.16.06-.26-.02-.02-.04-.02-.07-.04l.04-.11s.04-.04.04-.05v-.16l.15-.16c.04-.15.06-.29.09-.44l.11-.05c-.19.18-.09.42,0,.64v.04c-.09.09-.04.24-.09.35-.04,0-.06,0-.09.02l.02.16-.02.33c-.02.05-.02.11-.04.16.13.13.04.26.07.38l.07.05c-.13.18,0,.33.02.49l.04.16.22-.04-.02-.22c.04-.13.07-.26-.04-.36.02-.11.02-.22.06-.35.07-.26.19-.49,0-.77.11-.02.13-.05.09-.11.13-.27.17-.57.17-.88.2-.22.22-.49.33-.73.33-.05.15-.38.52-.4.04-.02.07-.05.09-.07.04-.07.11-.15.04-.29.02.02.04.02.06,0l.07-.11c.13.02.19-.02.22-.07.04-.04.06-.09.06-.15.04.02.09.04.11.04l-.09.16c-.07.11-.13.22-.19.35l-.19.27v.02s-.04-.04-.07-.04c-.13.26-.24.53-.35.8l.07.11h.04l-.02-.02c-.22.2-.22.46-.17.71-.04.13-.15.24-.06.36l-.06.53c.07.04.15.04.24,0,.04-.2.19-.38.17-.58l.19-.38c.11-.07.11-.18.11-.27-.04-.02-.06-.02-.07-.04h.04l.02-.09.04-.13s.04-.02.04-.02c.2-.02.02-.2.26-.22-.02.11-.04.18-.06.27l.09.02v.02s-.04-.04-.07-.04l-.09.33c0,.11.02.2.04.31,0,.13-.13.24-.06.36v.13l-.02.33c.04.09-.11.22.09.31-.07.13-.13.27.13.36l.02.11c-.09.49.24.91.54,1.26.13.2.24.4.39.57l.04-.04-.04.04c.09.15.19.29.3.44.04-.02.06-.04.07-.05v.02l-.07.05c.09.13.13.33.37.33.04.04.02.15.13.15l.17-.16c-.06.04-.13.07-.17.15.04.04.09.07.15.11.07.07.13.13.22.2.15-.26.07-.22.04-.26l-.04-.05c.06-.16-.11-.15-.09-.26l-.04.04c-.06-.07.02-.26-.24-.16-.06,0-.04-.04-.02-.09.22-.22.2-.09.28-.11l.02.07c-.13.16.04.09.11.07l.07.07.13.15.04.02-.04.04c.17.05.22.27.46.22.07.05.17.11.26.16.11-.13.13-.22.09-.24-.06-.07-.04-.22-.13-.24l-.02.04c.11-.2-.02-.15-.07-.18v-.04c.15-.24.02-.22,0-.29.02-.16-.06-.22-.11-.29.07-.16-.07-.16-.09-.26.11-.26-.15-.29-.07-.51.11-.15-.11-.16.07-.33.11-.04.2-.07.31-.11,0-.04.02-.05.02-.11.07,0,.13,0,.19-.02l.04-.02s-.06.02-.07.04c-.02.02,0,.04.06.04.07.05.06.15.2.15v.02l.02-.02.04.05c-.09.09-.06.09.04.05l.04.05c-.04.07.02.07.07.07-.02.05.02.05.13,0-.02.07-.04.11.06.07.06,0-.02.15.11.09l.09-.05c-.09.26.2.05.24.15.11-.13-.02.15.19-.13.06-.29-.02-.33-.04-.47-.04-.02-.06-.05-.07-.09.11-.15.02-.09.02-.13-.02-.02-.04-.05-.06-.07.07-.11.17-.2.04-.18-.02-.02-.02-.04-.04-.05.04-.04.04-.04.04-.05.07-.11-.06-.15,0-.24l-.07.02s.04,0,.07-.02c.15-.13.37-.2.41-.24h-.04.04c.17-.02.11-.02.13-.04.11,0,.17,0,.13-.02t0,0c.11.02.13.02.11,0h.02q.06.02,0,0c.19.05.09.02.11.02.19.07.06.02.09.04l.04.04s-.02-.02-.02-.04l-.19-.27c.06.09.11.15.19.27.04.05.02.04,0,0,.04.07-.02-.07,0-.13.02-.02.02.07.04-.09,0,.09,0,.05.02,0,.02-.11.02.05.06-.11v.04s.19-.18.17-.05c-.11.18,0,.05-.02.11-.13.16,0,.04-.04.11-.04.04-.09.07.07-.05-.13.11-.15.13-.13.13-.02,0,0,0,.02-.02.02,0,.02-.02.04-.02-.13.09-.09.07-.07.07s0,.02.02.02c-.02.02,0,.02,0,.04s-.04.02.09.05c.02,0,.04,0,.06.02l-.06-.02c-.06-.02.04.02.11.05-.07-.02-.04,0-.02,0,.06.05.13.13.09.15-.07.07-.15.11-.22.15-.07.02-.09.11-.24.36-.06.11-.15.18-.28.36-.02-.05-.07.02-.13.09-.07.07-.07-.04-.28.24-.11.33,0,.24-.02.36l-.11.16-.06.11-.06.09c-.2.46-.35.68-.41.55,0-.05-.02-.07-.07-.02-.13.07-.2.26-.24.44-.04.16.06.11.07.15-.04.15.04.13.07.13.13.05.24.15.39.18.02-.02.02-.04.04-.07v.02l-.04.05c.04.33.19.44.35.51l-.04.07-.07-.02c-.2-.04-.41,0-.7.22l-.07.07c-.13-.04-.22-.18-.46.05-.04-.02-.07.02-.13.09-.09.07-.13-.02-.24.11l-.07.07c-.19.16-.13.35-.24.53-.17.04-.35.2-.5.53-.04.07-.04.11-.02.13v.24c.24.22.54.31.52,1-.17.09-.26-.09-.41-.07-.07,0-.13-.16-.24.13-.02.16.07.2.11.31l.04.02.02.02.02.13c.02.24.17.33.28.47.06.05.11.15.22.09,0,0,0-.02.02-.04l.22.09c.02.42-.15.27-.28.29-.07,0-.15.02-.22.02v-.05c-.07-.04-.15-.11-.26-.05h-.31c-.26-.02-.35.27-.48.53-.17-.04-.31-.09-.52,0-.17.02-.33.11-.48.29l-.57.29c-.26.22-.3.46-.19.71-.13.26-.13.46.11.58.11.27.32.42.57.51.61.22,1.22.36,1.83.62.07.05.15.11.24.15.89.35,1.85.29,2.78.4.06.07.11.09.19.13-.09,0-.19.04-.3.09l-1.07-.04c-.37-.05-.72-.16-1.11-.09-.19-.09-.37-.13-.56-.11-.48-.13-.94-.33-1.46-.35l-.28-.07c-.22-.09-.44-.2-.67-.26s-.17.07-.06.18c.22.22.52.31.83.35.7.44,1.52.58,2.33.75h0Zm63.41-24.42h-.07c-1-.42-2.17-.69-3.3-1-.24-.18-.54-.31-.91-.26-.37-.15-.76-.27-1.15-.4l-.98-.31c-.39-.11-.78-.22-1.17-.35-.56-.4-1.26-.36-1.85-.64-.26-.11-.54-.18-.8-.27l-.67-.2-.78-.26c-.13-.09-.28-.13-.43-.13-.2-.02-.31-.31-.57-.09-.2-.16-.39-.36-.67-.35-.2-.11-.39-.27-.65-.2-.54-.18-1.04-.44-1.58-.58-.06-.02-.11-.04-.17-.05h-.04s-.07-.02-.11-.02c-.93-.26-1.78-.73-2.76-.86l-.74-.26-3.26-1.28c-.07-.13-.22-.13-.33-.18-.65-.36-1.35-.62-2.04-.91l-.72-.33c-.46-.36-1-.55-1.54-.77l-.17-.07-.67-.29-.31-.16-.8-.36c-.06-.18-.2-.16-.35-.15l-.26-.09-.24-.13-.13-.07c-.33-.18-.67-.4-1.04-.51-.07-.04-.17-.07-.26-.07-.3-.18-.57-.42-.94-.44l-.74-.33c-.39-.13-.72-.42-1.15-.47-.04-.02-.09-.04-.15-.02-.28-.09-.5-.33-.85-.27-.07-.18-.24-.18-.41-.18-.17-.09-.3-.26-.54-.16l-.26-.09c-.13-.11-.3-.09-.46-.11-.22-.11-.39-.33-.7-.24-.26-.2-.56-.27-.87-.31-.52-.2-1.04-.38-1.61-.46-.09-.04-.17-.16-.3-.02l-.15-.05-.13-.11c-.07-.27-.33-.29-.52-.38-.5-.24-1-.46-1.56-.58-.15-.11-.31-.18-.54-.15l-.07-.05-.61-.22c-.13.09-.07.18-.04.26l.87.49.94.55.04-.04.31.31-.02.02c.19-.02.3.09.43.16h-.02c-.09.04-.19.07-.2.22l.63.33.07-.07.72.38.89.64s.06.05.07.07c.28.29.65.4.98.6,0,.02,0,.05-.02.09-.2-.04-.33-.24-.59-.15-.17-.2-.33-.35-.61-.33v-.02l-.19-.18c-.09-.05-.2.02-.31.06.02-.04.02-.07.02-.11l-.31-.18-.31-.16-.33-.16-.33-.16-.24-.13-.15-.09-.31-.16c-.17-.02-.3-.11-.46-.11v-.04c-.39-.09-.72-.29-1.15-.27-.04.27.17.26.28.35.07.15.19.26.31.33.11-.04.17.05.26.05l.04.04c.09.07.2.11.3.18.07.04.15.09.24.11.04-.02.07-.02.11-.02l.26.15.39.26c.04.16.17.24.3.29.06.02.09.02.15,0,.02,0,.04-.04.06-.05v.02l.78.57s.09.04.15.04c.22-.02.39.2.63.07,0,.04.02.07.04.09.06.05.11.09.19.11.02,0,.02.02.04.02.15.27.5.27.67.51.56.15,1.02.51,1.59.66.06,0,.11-.04.17-.09l1.04.55c-.28.16-.41-.11-.61-.16-.02,0-.04.02-.06.04-.24-.09-.41-.29-.7-.24l-.41-.22c-.09,0-.17-.07-.28-.07t-.04-.02c-.06-.09-.17-.13-.28-.13l-.39-.16-.06.04s-.06-.02-.09-.02c0,0,0,.02-.02.02l-.5-.24s-.04-.05-.04-.07c-.07-.07-.19-.09-.24-.2-.02,0-.04,0-.06-.02-.07-.02-.13,0-.2.04-.02-.09-.06-.16-.13-.2l-.13.05c-.13-.16-.37.15-.5-.04-.22-.07-.24-.42-.48-.46l-.11.16v.02s.02-.04,0-.05c-.11-.04-.19-.15-.31-.09-.35-.26-.85-.2-1.19-.47l-.24-.16c-.11-.05-.22-.16-.39-.09l-.17-.05-.09-.04s-.04-.05-.06-.07c.02-.16-.11-.16-.19-.26-.43-.13-.7-.53-1.2-.53l-.17-.05c-.13-.07-.11-.4-.39-.24l-.07-.04c-.17.22-.41-.04-.57.26.09.05.2.09.19.26l-.13.2c-.17.13.02.11.02.16l.15.09c.07.31.41.29.57.49l.04-.02.11.09c.04.07.09.11.19.07.06-.09.11-.16.2-.16l.19.26.13-.11s0,.02.02.02c.06.02.11.02.17,0-.07.05-.15.13-.2.2-.02.05-.04.11-.02.15.04.09.11.13.2.15.19-.02.35-.02.52.02.17,0,.22.13.24.29,0,.04.04.04.06.05.09.22.06.36-.26.36v.04h-.02l.02-.04-.17-.07c.02-.11-.04-.16-.11-.2l-.31-.02s-.06.04-.06.05v.04c-.06.04-.09.09-.11.16-.06-.11,0-.18.11-.2l.06-.04c.15-.36-.15-.33-.28-.42-.07-.04-.15-.05-.22,0l-.19.31-.3-.02c-.04-.09-.11-.09-.2-.11-.13,0-.26,0-.39.13t-.02.04c-.04-.09-.09-.11-.17-.09v-.04c-.02-.13.02-.27-.02-.4-.02-.04-.06-.05-.09-.04-.04,0-.06-.02-.09-.02-.04.02-.07.05-.09.07-.02-.07-.04-.15-.06-.22-.07-.07-.15-.09-.24,0,0,.02-.02.02-.02.04l-.06-.02c-.13.11-.2.02-.3-.02-.13.36.09.27.24.27,0,.02-.02.02-.02.04-.06.11-.07.22-.06.33.17.09.31.18.52.18l.13.18.41.22c.11.13.33.11.37.33l.37.09c.11-.04.17-.15.2-.26,0-.04-.02-.05-.04-.09l.07-.09.04.02.04.02c-.06.15-.24.29-.13.46.15.05.22.27.43.16l.11.16c-.02.07,0,.15.04.2l.04.04.5.24s.06-.04.07-.07l.04.02h.04l.5.4.07-.05,1,.47.07.05.24.15.5.26s.06,0,.07.02c.02,0,.02-.02.04-.02.09.04.17.11.22.18.13.13.3.2.48.27.07.02.15.02.24-.02t.02-.04l.02.07s.06.04.07.04c.02.11.11.18.2.24.02.02.04.02.06.02-.09.02-.19.15-.28.07-.06-.05-.09-.02-.13.05-.02-.04-.04-.07-.07-.11-.02-.22-.3-.13-.33-.33l-.2-.09s0-.04-.02-.07c-.06-.07-.11-.09-.2-.05l-.09.04v-.02c-.04-.05-.09-.07-.17-.07.02-.04.02-.09.02-.13-.11-.13-.24-.13-.41,0,0-.02.02-.04.02-.07-.02-.05-.04-.09-.07-.13-.41-.16-.82-.36-1.35-.16h-.09c-.11.42.26.29.37.44l.28.15c.11.26.31.31.57.29l.06.09c.04.07.09.11.17.11.02,0,.04-.02.04-.04l.35.05.04-.04v.04h-.04l-.04.11-.19.33c.04-.42-.22-.46-.52-.42l-1.13-.53s0,.05-.02.07c.02-.04.04-.05.02-.07-.54-.38-1.13-.66-1.7-.95l-.07-.04-.41-.24s-.04-.04-.06-.05l.02-.09-1.32-.71-.74-.42h-.22c-.43-.22-.91-.31-1.41-.35-.02.04-.04.05-.06.07l-.07-.04c-.11.04-.22.05-.35.09.39.95,1.28,1.22,2,1.72l.04.15c.41.16.46.73.87.91.02.2.2.18.32.29.09.16.19.29.37.33,0,0,0-.02.02-.02,0,.04,0,.07-.04.15.13.18.37.24.5.44.13.13.28.24.5.18t.02-.04v.02s-.02.05-.02.09h-.31s-.04-.05-.06-.05l-.13-.2-.09-.02s-.06-.04-.07-.05l-.17-.11-.15-.09c-.04-.18-.17-.16-.31-.11,0,.16.09.26.19.31l.04.18c.02.18.15.22.26.27l-.07.15c-.17-.11-.31-.26-.56-.22l-.35-.16s.02-.04.04-.05c-.31-.11-.63-.18-.96-.18-.31.33.09.36.07.58l.07.05c.06.35.5.16.59.47-.04.26.24.2.28.38l1.24.69.17.09.24.15.09.04.02.04h.04c.04.05.07.09.11.11.3.27.7.38,1.04.62l.06.11s-.07,0-.11-.02h-.31c-.09.04-.13.11-.11.2l.5.27.02.04h.04c.02.15.15.18.22.24l.59.29c.02.05.06.11.09.15.8.55,1.69.91,2.5,1.42l.07.07c-.02.18.11.16.19.22.09.05.17.22.3.05.04,0,.07,0,.11-.04h.04s-.04.07-.02.11c.19.36.67.27.85.62.5.46,1.11.68,1.7.91.31.02.52.29.83.27.43.05.8.27,1.2.42.24.09.46.24.74.16l.02.02,1.2.47c.09.04.11.11.07.22l.43-.05s-.02.05-.02.09c.04.24.11.42.39.31h.31l.13.22c.06.22.31.13.43.29.02,0,.04.02.06.04.33-.16.37.29.63.31l.61-.02c-.04.35.17.31.37.33.26,0,.3.33.5.42l.22-.05.06-.11h.07l.09-.11c.06.02.09.05.15.05.07.07.13.2.24.24,1.17.46,2.3,1.02,3.45,1.51.22.09.44.22.7.13.02-.02.04-.05.04-.07l.15.16.06.02c-.06.26,0,.31.41.4l1.72.62c.2.07.39.15.61.11,1.07.36,2.17.66,3.22,1.04,1.33.49,2.65,1,4.02,1.41.48.38,1.09.42,1.65.62l2.19.71c.06.02.24.07.2.07v.05h.04l-.02-.02c-.15.07-.02.02.02,0v.02c.09-.02.17-.04.22-.04l-.22.04h.02v.18c0,.18-.02.57-.02.46,0,0,.02.02.07.04-.02,0,0,0,.06.02.02.04.06.11.06.16l-.04.05s-.07.04-.11.05l-.02.02-.13.04-.54.18-.87.29s-.07.02-.11.04l-.07.04c-1.3.35-2.52.91-3.69,1.53-.43.24-.85.44-1.32.58-.93.27-1.82.58-2.5,1.35l-.39.38c-.22.07-.37.24-.41.53-.22.24-.35.55-.35.93-.15.29-.07.64,0,.97.04.15.11.29.09.4-.17,1.31.72,2.1,1.37,2.99,1.04,1.42,2.3,1.57,3.54,1.73,1.8.22,3.47-.13,5.15-.38.31.07.56-.09.83-.13.83-.02,1.63-.29,2.45-.35.13,0,.17.02.39-.02l.57-.07,1.19-.18c.8-.13,1.61-.29,2.43-.47,1.48-.24,2.96-.57,4.41-.91.07-.4.11-.86.17-1.3.17-.13.17-.38.07-.68l.06-.66c.33-1.57.43-3.3.52-5.02.04-.73.06-1.57.06-2.23l-.04-1.79c-.02-.69-.04-1.39-.07-2.06-.11-2.06-.15-4.18-.41-6.22.02-.24.02-.46,0-.68-.74-.27-1.61-.47-2.46-.68l-.07.02h0Zm-27.37,15.64c-.04-.44-.06-.88-.17-1.31-.06-.2.04-.44-.24-.64v.47c-.06.2.06.42-.11.62-.09.07-.13.16-.13.27,0,.15,0,.29.06.44,0,.02.04.02.04.04-.02.05-.04.11-.06.16v-.09c0-.05-.04-.09-.07-.13-.02-.27,0-.55-.06-.82,0-.29-.04-.58.02-.88.04-.07.04-.15,0-.22t-.04-.02v-.35c-.06-.18.13-.38-.13-.6-.09.36-.28.68-.22,1.04-.15.13-.11.29-.11.46-.15.2-.11.42-.09.62l-.09.53c-.09.09-.09.22-.13.33-.02-.05-.04-.09-.11-.13l-.11-.09c-.02-.2.04-.42-.13-.62l-.02-.35c-.07-.05-.15-.05-.22,0l.02.35-.15.99s.02.04.02.05c-.02.02-.04.05-.06.07-.13.16-.07.33-.07.51,0,.04.02.07.04.13l-.02.15c-.06.07-.07.15-.07.22-.02-.04-.06-.07-.07-.11l-.06-.05c.09-.18.04-.36,0-.55t.04.02c.06,0,.09-.04.13-.07.04-.09.02-.16-.06-.24l-.04-.18.04-.16s.02-.05-.02-.07c0,0,.02,0,.02-.02.02-.04.02-.07,0-.11-.13-.09-.26-.22-.48-.15.04.35-.41.62-.22.99-.41.16-.24.49-.33.75-.11.09-.11.22-.09.33.02.04.04.09.07.13.02.02.04,0,.06.02l.02.42c-.06.15.06.33-.11.47l.02.16.19.16c-.39.27-.06.62-.17.91l.15.27-.02.09c-.13.07-.17.15-.11.26.02.02.04.02.06.02-.06.05-.07.11-.09.16,0-.11-.06-.24-.19-.42-.09-.09-.11-.18-.11-.27.02-.05.06-.13.06-.18,0-.07,0-.13-.06-.18,0,0-.02,0-.02-.02.02-.04.04-.05.02-.09s-.06-.07-.09-.11l-.06-.22s0-.04.02-.05c.02-.04,0-.07-.02-.11v-.04s.04.02.07.02c.24-.18.09-.44.2-.64.04-.16.04-.31-.02-.47-.04-.04-.07-.07-.11-.09.04-.11.04-.22-.13-.24.11-.07.24-.16.28-.29,0-.04-.02-.09-.04-.13.02-.22-.11-.44-.11-.66.02,0,.04,0,.06-.02-.02-.57.07-1.15-.15-1.7v-.36h-.22v.36c-.07.13.13.22.04.36-.2.36-.2.77-.24,1.17-.04.51-.24,1.02-.19,1.53-.17.24-.13.49-.07.73-.17.2-.13.4-.09.62-.11.27-.15.55.04.8-.33.11-.17.33-.17.51,0,.24-.17.49.02.73l-.07.36v.27s-.04.04,0,.05c-.17.53.06,1.04-.02,1.57-.06.15,0,.27,0,.42.04.02.06.04.07.04l-.02.18s-.04.05-.02.09l.06.26-.09.29.06.73-.09.15c.09-.36-.06-.68-.2-1,0-.02,0-.04-.02-.05.06-.18-.04-.38,0-.58.02-.02.06-.02.07-.04l-.04-.27-.04-.53.02-.29c-.15-.2-.06-.42-.09-.62l-.07-.09c.11-.27,0-.55-.04-.82l-.02-.27-.22.02.02.36c-.04.22-.07.42.04.64,0,.2,0,.38-.02.58-.06.44-.11.89.13,1.31-.11.05-.11.13-.07.2-.06.51-.02,1.02.11,1.53-.09.47-.02.93.02,1.41-.26.33.06.71-.24,1.04-.02.07-.04.15-.04.22.02.16,0,.35.15.47h-.02s-.04.02-.04.05v.26c-.11.11-.13.24-.11.36,0,.09.04.2.07.29-.06.02-.07.05-.11.09l-.04-.35-.09-.73-.04-.62s.06,0,.07-.04l-.13-1.62-.11-.16c.11-.47.02-.93-.13-1.39,0-.24.06-.49-.07-.71l-.06-1c-.07-.05-.17-.04-.24.02,0,.4-.11.8-.02,1.2l-.06.84c-.07.2-.04.42,0,.62.04.02.06,0,.09.02-.02,0-.02.02-.04.02l.02.18.02.27s-.02.04-.02.07c-.19.18.07.42-.13.64-.04-.22-.07-.42-.09-.6-.04,0-.06.02-.09.04v-.02s.06,0,.09-.02l-.06-.73-.15-.64c-.06-.27.04-.55-.07-.82l-.02-.09-.02-.18-.06-.73c-.06-.22.07-.47-.13-.68.07-.29.09-.58-.17-.82l-.02-.24c.07-1.08-.17-2.1-.39-3.16l-.17-1.66s-.04.02-.04.04v-.02l.04-.02-.06-1.28s-.07-.02-.09,0c.04,0,.06,0,.09.02-.02-.4.07-.82-.11-1.2,0-.15.07-.31-.02-.46l-.02-.46v-.75c-.28.15-.2.27-.22.38l-.02.16c-.17.2-.04.46-.11.68h.04c0,.26-.17.51.07.75.04.07,0,.15-.06.22-.31.13-.22-.13-.3-.22l.02-.18c.2-.15.04-.26-.04-.36l-.02-.27v-.66l.06.02c-.09-.47.06-.95-.15-1.41l-.02-.89c-.17-.04-.26.05-.26.16-.04.26-.19.49-.13.75h.04c-.22.16-.11.36-.09.55-.02.02-.04.04-.02.05-.28.18-.19.44-.2.68-.13.33-.13.68-.13,1.02-.15.31-.04.62-.09.93-.2.58-.02,1.2-.17,1.79-.17.36.04.77-.19,1.11-.13-.02-.22-.11-.33-.15-.02.13-.04.24-.06.42-.07-.15-.13-.24-.19-.31h-.04s.06,0,.07-.04c.02-.09.02-.18-.04-.26-.06-.42.02-.84-.15-1.24l.02-.04-.04-.02v-.37c.13-.13.11-.26,0-.38l-.02-.36c.06-.18.04-.38-.02-.57.04-.16.02-.33-.11-.47.06-.18.09-.38,0-.57-.04-.27.11-.57-.02-.84l-.09-.27c.26-.6-.09-1.19-.02-1.79-.17-.16.13-.44-.2-.57-.26.77-.28,1.57-.39,2.35v1.02c-.19.24-.07.51-.07.77v.84c-.11.46-.24.89-.09,1.37l.04.82c-.06.13-.06.26-.04.4-.07.88.06,1.75.02,2.63l.07.04s-.04-.04-.07-.05c-.13,1-.3,2.03-.26,3.05l.04.02s0,.02-.02.04c-.02-.02-.02-.04-.02-.05-.15.31-.06.64-.06.95-.09.38-.11.77-.04,1.17,0,.04-.02.07.02.11-.09.31-.09.62-.02.93v.26c-.06.07-.06.15.02.22-.17.53.02,1.06.02,1.59-.09.93.13,1.84.19,2.77l.28,2.35c-.04.16-.02.33.06.47-.04.26.04.51.09.75l.06.38c-.02.33.04.64.13.95l.09.66c.13,1.42.5,2.79.76,4.18.13.71.17,1.44.44,2.12-.04.27.06.53.15.78.2.58.19,1.22.44,1.79.02.13.02.26.06.36.31,1.33.76,2.65.96,4.02-.02.04-.02.05,0,.07-.07.51.2.95.24,1.44-.07.66.26,1.24.35,1.88-.02.16-.04.33.19.38-.07.26-.07.49-.02.73.02.09.06.16.07.26v.05s.02,0,.02.02v.02h.04s.04-.02.04,0c-.17.05-.11.04-.09.07l.02.04v.02s-.02.02-.04.04c-.04.02-.06,0-.02.11.02.02.02.04.04.05l-.04-.05v.02c-.2.05-.44.31-.52.44-.06-.07-.04-.04-.04-.02,0,.09-.06.22-.13.24-.04,0-.09.04-.13.02l-.11-.15-.06-.05-.17-.46c-1.54-1.44-3.13-2.83-4.89-4.02-.76-.51-1.5-1.06-2.33-1.48-.2-.26-.5-.4-.82-.53-.41-.2-.7-.62-1.26-.6.02.44.37.58.52.88l-.13.16-.15.04-.15.02c-.35.37-.67.42-.94.09-.04-.09-.11-.16-.22-.18-.35-.11-.35.11-.35.35.02.2.2.26.31.38,0,.18.13.24.24.31l1.04.95c.15.51.46.88.82,1.24l-.11.02-.15-.13c-.44-.38-.94-.69-1.56-.8h-.13c-.28-.22-.48-.55-.93-.49-.06-.05-.15-.05-.22,0-.17,0-.26-.16-.44-.09l-.13.02c-.3.07-.15.36-.31.49-.3-.11-.54,0-.72.31-.06.05-.06.11-.04.15l.02.29c.37.4.82.75.65,1.46-.26-.02-.33-.26-.54-.33-.09-.05-.17-.26-.33,0-.04.16.07.27.11.4l.04.04.04.04v.15c-.02.27.15.44.24.64.06.09.11.2.24.22.02,0,.02-.02.02-.02l.22.24c-.11.42-.28.16-.43.11l-.28-.11s.02-.04,0-.05c-.09-.07-.15-.18-.3-.2l-.35-.16c-.3-.15-.46.11-.65.33-.17-.11-.33-.22-.57-.18-.19-.04-.37.02-.56.16l-.65.16c-.3.16-.37.4-.31.68-.17.22-.22.44-.04.58.04.27.19.46.39.62.48.36,1,.69,1.39,1.15.04.07.07.16.13.22.57.66,1.35,1.1,1.95,1.73,0,.09.02.15.04.2-.07-.05-.15-.09-.26-.11l-.76-.62c-.24-.22-.46-.47-.82-.58-.09-.16-.22-.27-.41-.31-.35-.29-.63-.66-1.09-.8l-.2-.15c-.17-.15-.3-.31-.5-.4-.19-.09-.17.04-.11.15.13.26.35.4.61.51.43.58,1.02.99,1.54,1.48l.24.24c.3.33.63.62,1,.86.02.05.07.09.11.13.52.58,1.19,1.02,1.76,1.53.33.29.61.66,1,.88l.31.31.13.13,2.15,2.03c1.85,1.79,3.69,3.7,5.54,5.44l1.09-.53c.82-.31,1.65-.66,2.46-1.15.76-.44,1.56-.55,2.3-1.08l.31-.15.65-.33c.7-.35,1.41-.71,2.11-1.09.96-.53.83-.47,1.65-.95l.94-.57c.72-.44,1.45-.89,2.15-1.37l.15-.09,5.19-3.6-.52-1.84c-.33-1.19-.57-2.37-1.06-3.56l-.39-1.35-.56-2.21-.26-1.11c.07-.15,0-.26-.02-.38l-.33-1.51c-.37-.75-.35-1.59-.67-2.34-.19-.44.04-.97-.35-1.35-.09-.31-.22-.64-.28-.95-.09-.66-.22-1.31-.43-1.95l.07-.11-.09-.13-.02-.05c.31-.11.19-.31.17-.46-.07-.46-.31-.88-.3-1.37-.13-.29-.04-.66-.24-.93.04-.07.09-.15.07-.2l-.43-2.68-.2-.68s-.07,0-.11.02l.11-.02c-.02-.27-.07-.55-.22-.8-.02-.15.09-.31-.06-.44-.06-.89-.13-1.77-.33-2.65l-.28-2.43-.19-1.66-.02-.18c.07-.26-.06-.47-.11-.71.07-.27-.02-.53-.04-.78l-.04-.44-.06-.62-.04-.53c-.09-.78-.06-1.61-.26-2.37-.04-.57.11-1.13-.09-1.68l.02-.04-.02-.04c.09-.42-.09-.82-.09-1.24,0-.77-.04-1.53-.17-2.3l.04-.49h0Z"/><rect class="c" width="128" height="128"/></svg>