<?xml version="1.0" encoding="utf-8"?>
<!-- Generator: Adobe Illustrator 27.9.0, SVG Export Plug-In . SVG Version: 6.00 Build 0)  -->
<svg version="1.1" id="Layer_1" xmlns="http://www.w3.org/2000/svg" xmlns:xlink="http://www.w3.org/1999/xlink" x="0px" y="0px"
	 width="160px" height="160px" viewBox="0 0 160 160" enable-background="new 0 0 160 160" xml:space="preserve">
<g>
	
		<linearGradient id="SVGID_1_" gradientUnits="userSpaceOnUse" x1="30.5912" y1="101.9276" x2="43.3503" y2="78.8961" gradientTransform="matrix(1 0 0 -1 0 162)">
		<stop  offset="0" style="stop-color:#0099FF;stop-opacity:0"/>
		<stop  offset="0.1" style="stop-color:#0099FF;stop-opacity:0"/>
		<stop  offset="0.32" style="stop-color:#0099FF;stop-opacity:0.26"/>
		<stop  offset="0.83" style="stop-color:#0099FF;stop-opacity:0.91"/>
		<stop  offset="0.9" style="stop-color:#0099FF"/>
		<stop  offset="1" style="stop-color:#0099FF"/>
	</linearGradient>
	<path fill="url(#SVGID_1_)" d="M52.206,64.604l-16.621-9.208l-13.898,7.699L7.791,70.792l13.896,7.699L30,83.095l8.311,4.602
		L52.206,80l13.898-7.699L52.206,64.604z"/>
	
		<linearGradient id="SVGID_00000103227743979581888400000001043627247678470797_" gradientUnits="userSpaceOnUse" x1="44.4878" y1="45.0218" x2="57.2468" y2="21.9877" gradientTransform="matrix(1 0 0 -1 0 162)">
		<stop  offset="0" style="stop-color:#FF6600;stop-opacity:0"/>
		<stop  offset="0.1" style="stop-color:#FF6600;stop-opacity:0"/>
		<stop  offset="0.32" style="stop-color:#FF6600;stop-opacity:0.26"/>
		<stop  offset="0.83" style="stop-color:#FF6600;stop-opacity:0.91"/>
		<stop  offset="0.9" style="stop-color:#FF6600"/>
		<stop  offset="1" style="stop-color:#FF6600"/>
	</linearGradient>
	<path fill="url(#SVGID_00000103227743979581888400000001043627247678470797_)" d="M66.104,121.508L49.481,112.3L35.585,120
		l-13.898,7.697l13.898,7.699l8.311,4.604l8.311,4.604l13.898-7.699L80,129.208L66.104,121.508z"/>
	
		<linearGradient id="SVGID_00000022545298316216785930000013627569976236456360_" gradientUnits="userSpaceOnUse" x1="125.6296" y1="36.0151" x2="81.4655" y2="42.4171" gradientTransform="matrix(1 0 0 -1 0 162)">
		<stop  offset="0" style="stop-color:#FFCC00"/>
		<stop  offset="0.1" style="stop-color:#FFCC00"/>
		<stop  offset="0.62" style="stop-color:#FF8A00"/>
		<stop  offset="0.9" style="stop-color:#FF6600"/>
		<stop  offset="1" style="stop-color:#FF6600"/>
	</linearGradient>
	<path fill="url(#SVGID_00000022545298316216785930000013627569976236456360_)" d="M152.209,89.208l-13.895,7.697l-13.899,7.699
		l-13.895,7.697l-16.624,9.208L80,129.208l-13.896,7.697l-13.898,7.699l13.898,7.697L80,160l13.896-7.699l13.898-7.697l16.621-9.208
		l13.899-7.699L152.209,120v-15.395V89.208z"/>
	
		<linearGradient id="SVGID_00000140734962585417497380000011695511949995084477_" gradientUnits="userSpaceOnUse" x1="57.7924" y1="147.7266" x2="57.7924" y2="116.2449" gradientTransform="matrix(1 0 0 -1 0 162)">
		<stop  offset="0" style="stop-color:#0033FF"/>
		<stop  offset="0.41" style="stop-color:#005AFF"/>
		<stop  offset="1" style="stop-color:#0099FF"/>
	</linearGradient>
	<path fill="url(#SVGID_00000140734962585417497380000011695511949995084477_)" d="M93.896,7.697L80,0L66.104,7.697l-13.898,7.699
		l-16.621,9.208l-13.898,7.697L7.791,40v15.396v15.396l13.896-7.699l13.898-7.697l13.896-7.699l16.624-9.206L80,30.792l13.896-7.697
		l13.898-7.699L93.896,7.697z"/>
	<path fill="#0099FF" d="M152.209,40l-13.896-7.699L124.415,40l-13.896,7.697l-16.623,9.208L80,64.604l-13.896,7.697L52.206,80
		l-16.621,9.208l-13.898,7.697l-13.896,7.699V120l13.896,7.697L35.585,120l13.896-7.699l16.624-9.206L80,95.395l13.896-7.699
		L107.794,80l16.621-9.208l13.896-7.697l13.898-7.699V40z"/>
	
		<linearGradient id="SVGID_00000030448882120882179760000014749443481027517869_" gradientUnits="userSpaceOnUse" x1="98.9005" y1="68.9099" x2="154.6739" y2="118.6608" gradientTransform="matrix(1 0 0 -1 0 162)">
		<stop  offset="0" style="stop-color:#FF6600"/>
		<stop  offset="0.1" style="stop-color:#FF6600"/>
		<stop  offset="0.62" style="stop-color:#FF2400"/>
		<stop  offset="0.9" style="stop-color:#FF0000"/>
		<stop  offset="1" style="stop-color:#FF0000"/>
	</linearGradient>
	<path fill="url(#SVGID_00000030448882120882179760000014749443481027517869_)" d="M152.209,40L93.896,87.697l58.313-32.301V40z"/>
</g>
</svg>
