<?xml version="1.0" encoding="utf-8"?>
<!-- Generator: Adobe Illustrator 27.8.1, SVG Export Plug-In . SVG Version: 6.00 Build 0)  -->
<svg version="1.1" id="Layer_1" xmlns="http://www.w3.org/2000/svg" xmlns:xlink="http://www.w3.org/1999/xlink" x="0px" y="0px"
	 viewBox="0 0 284 40" style="enable-background:new 0 0 284 40;" xml:space="preserve">
<style type="text/css">
	.st0{fill:#B50007;}
</style>
<g>
	<path d="M18.57,20.75c-2.86,0-2.93,0.06-2.93,1.68v8.32c0,5.38,0.42,5.9,3.56,6.24l2.23,0.23c0.56,0.35,0.56,1.68,0,2.02
		c-3.98-0.12-7.47-0.17-10.61-0.17c-3.35,0-6.84,0.06-10.4,0.17c-0.56-0.35-0.56-1.68,0-2.02l1.68-0.17
		c3.21-0.35,3.56-0.92,3.56-6.3V9.25c0-5.38-0.35-5.95-3.56-6.3L0.42,2.78c-0.56-0.35-0.56-1.68,0-2.02
		c3.42,0.12,7.05,0.17,10.4,0.17c3.14,0,6.63-0.06,9.7-0.17c0.56,0.35,0.56,1.67,0,2.02l-1.47,0.17c-3,0.35-3.42,0.92-3.42,6.3v6.71
		c0,1.68,0.07,1.73,2.93,1.73h14.52c2.93,0,2.93-0.06,2.93-1.73V9.25c0-5.38-0.35-5.84-3.56-6.24l-1.88-0.23
		c-0.56-0.35-0.56-1.68,0-2.02c3.84,0.12,7.26,0.17,10.61,0.17c3.42,0,6.63-0.06,9.84-0.17c0.56,0.35,0.56,1.67,0,2.02l-1.4,0.17
		C46.42,3.35,46,3.87,46,9.25v21.5c0,5.38,0.42,5.78,3.63,6.24l1.68,0.23c0.56,0.35,0.56,1.68,0,2.02
		c-3.49-0.12-6.91-0.17-10.12-0.17c-3.49,0-6.91,0.06-10.26,0.17c-0.56-0.35-0.56-1.68,0-2.02l1.53-0.17
		c3.21-0.35,3.56-0.92,3.56-6.3v-8.32c0-1.62,0-1.68-2.93-1.68H18.57z"/>
	<path d="M60.32,24.51c-1.6,0-1.75,0.12-1.75,1.1c0,4.6,3.35,9.06,9.84,9.06c1.95,0,4.61-0.37,6.49-3.19
		c0.77-0.12,1.81,0.37,1.81,1.41c-2.86,5.21-8.03,6.98-12.21,6.98c-9.42,0-14.52-5.82-14.52-12.49c0-7.72,6.35-13.72,15.08-13.72
		c7.26,0,11.17,4.1,11.17,8.82c0,1.16-0.35,2.02-2.51,2.02H60.32z M64.93,21.82c0.98,0,2.09-0.12,2.86-0.55
		c0.35-0.18,0.49-0.79,0.49-1.41c0-2.02-1.33-3.37-3.7-3.37c-2.93,0-5.44,2.45-5.44,4.41c0,0.86,0.98,0.92,3.21,0.92H64.93z"/>
	<path d="M102.48,30.64c-0.28,4.16,1.74,5.27,3.14,5.27c0.84,0,1.54-0.18,2.65-0.74c0.63,0.12,1.05,0.86,0.84,1.41
		c-0.84,0.98-4.12,3.31-8.1,3.31c-2.44,0-3.98-0.74-5.86-2.14c-0.49-0.37-0.77-0.49-1.12-0.49c-0.35,0-0.77,0.24-1.47,0.68
		c-1.26,0.79-3.35,1.96-5.93,1.96c-4.05,0-7.82-2.14-7.82-6.43c0-3.12,2.16-5.02,7.26-6.37c2.65-0.73,4.61-1.22,6.56-1.72
		c1.26-0.31,1.61-0.73,1.67-1.22c0.07-0.68,0.14-1.35,0.14-2.08c0-2.33-1.05-5.27-4.05-5.27c-1.68,0-3.14,0.86-3.63,3.49
		c-0.14,0.98-0.56,1.53-1.19,1.96c-1.05,0.67-3.77,1.41-5.03,1.41c-1.19,0-1.6-0.67-1.6-1.53c0-1.59,1.67-3.55,3.35-4.72
		c2.37-1.65,6.77-3.74,11.73-3.74c5.86,0,9.28,2.57,8.93,8.88L102.48,30.64z M94.1,29.04c0.07-0.98,0-1.16-0.49-1.1
		c-3.14,0.37-5.86,1.41-5.86,4.29c0,1.96,1.61,3.67,3.56,3.67c2.16,0,2.58-1.1,2.65-3L94.1,29.04z"/>
	<path d="M112.87,22.8c0-2.45,0-3.19-1.33-3.92l-0.98-0.55c-0.49-0.37-0.49-1.47,0-1.84c3.21-0.8,8.03-2.45,10.19-3.67
		c0.56,0,0.98,0.18,1.25,0.55c-0.14,1.23-0.28,2.08-0.28,2.64c0,0.43,0.14,0.61,0.7,0.73c1.89-1.04,3.91-3.06,6.84-3.06
		c1.89,0,3.84,1.29,3.84,3.61c0,2.82-2.23,3.98-4.47,3.98c-0.98,0-1.81-0.37-2.72-1.1c-1.6-1.16-2.23-1.23-2.65-1.23
		c-0.98,0-1.33,1.35-1.33,3.67v9.43c0,4.29,0.28,4.78,2.58,4.96l2.23,0.18c0.56,0.37,0.56,1.78-0.07,2.14
		c-3.35-0.12-6.14-0.18-9.42-0.18c-2.86,0-5.93,0.06-8.24,0.18c-0.63-0.37-0.63-1.77-0.07-2.14l1.33-0.12
		c2.3-0.18,2.58-0.73,2.58-5.02V22.8z"/>
	<path d="M148.39,17.84c-0.91,0-0.98,0.06-0.98,1.41v9.19c0,3.43,0,7.23,4.89,7.23c0.98,0,2.09-0.43,2.93-0.92
		c0.7,0.18,1.12,0.86,0.98,1.59c-1.95,1.84-5.72,3.55-10.05,3.55c-5.79,0-7.82-2.94-7.82-6.98V19.25c0-1.28-0.07-1.41-1.33-1.41
		h-2.16c-0.77-0.24-0.98-1.47-0.42-1.9c2.16-0.67,4.12-1.77,5.79-2.75c1.26-0.79,3-2.08,5.17-4.78c0.49-0.24,1.75-0.18,2.09,0.31
		v4.59c0,1.16,0.07,1.23,1.32,1.23h6.21c0.35,0.24,0.56,0.61,0.56,1.16c0,0.68-0.21,1.78-0.91,2.14H148.39z"/>
	<path d="M202.81,27.27c-0.07-8.76,7.82-13.6,16.05-13.6c8.24,0,15.64,4.41,15.64,13.05c0,8.94-7.47,13.17-16.05,13.17
		C210.14,39.88,202.88,35.72,202.81,27.27z M212.86,25.92c0,6.43,2.3,11.14,6.35,11.14c3.98,0,5.31-3.98,5.24-9.49
		c-0.07-5.94-2.03-11.08-6-11.08C215.37,16.49,212.86,19.25,212.86,25.92z"/>
	<path d="M238.87,22.8c0-2.45,0-3.19-1.32-3.92l-0.98-0.55c-0.49-0.37-0.49-1.47,0-1.84c3.21-0.8,8.03-2.45,10.19-3.67
		c0.56,0,0.98,0.18,1.26,0.55c-0.14,1.23-0.28,2.08-0.28,2.64c0,0.43,0.14,0.61,0.7,0.73c1.88-1.04,3.91-3.06,6.84-3.06
		c1.88,0,3.84,1.29,3.84,3.61c0,2.82-2.23,3.98-4.47,3.98c-0.98,0-1.81-0.37-2.72-1.1c-1.61-1.16-2.23-1.23-2.65-1.23
		c-0.98,0-1.32,1.35-1.32,3.67v9.43c0,4.29,0.28,4.78,2.58,4.96l2.23,0.18c0.56,0.37,0.56,1.78-0.07,2.14
		c-3.35-0.12-6.14-0.18-9.42-0.18c-2.86,0-5.93,0.06-8.24,0.18c-0.63-0.37-0.63-1.77-0.07-2.14l1.33-0.12
		c2.31-0.18,2.58-0.73,2.58-5.02V22.8z"/>
	<path d="M267.6,24.51c-1.61,0-1.75,0.12-1.75,1.1c0,4.6,3.35,9.06,9.84,9.06c1.96,0,4.61-0.37,6.49-3.19
		c0.77-0.12,1.81,0.37,1.81,1.41c-2.86,5.21-8.03,6.98-12.21,6.98c-9.42,0-14.52-5.82-14.52-12.49c0-7.72,6.35-13.72,15.08-13.72
		c7.26,0,11.17,4.1,11.17,8.82c0,1.16-0.35,2.02-2.51,2.02H267.6z M272.2,21.82c0.98,0,2.09-0.12,2.86-0.55
		c0.35-0.18,0.49-0.79,0.49-1.41c0-2.02-1.33-3.37-3.7-3.37c-2.93,0-5.44,2.45-5.44,4.41c0,0.86,0.98,0.92,3.21,0.92H272.2z"/>
	<g>
		<path d="M199.48,1.5c0,1.04,0.21,5.66,0.84,9.02c-0.28,0.69-2.16,0.92-2.65,0.4c-1.89-5.38-6.35-8.26-13.12-8.26
			c-7.75,0-16.05,5.49-16.05,16.99c0,11.5,8.03,17.69,16.4,17.69c8.44,0,12.35-5.03,14.24-8.96c0.56-0.46,2.23-0.29,2.65,0.41
			c-0.49,4.28-1.68,7.74-2.65,9.08c-3.77,0.87-8.73,2.14-14.17,2.14c-6.84,0-13.82-1.33-18.78-4.39c-5.03-3.18-8.86-7.98-8.86-15.14
			c0-7.05,3.63-12.02,8.45-15.32C170.72,1.73,177.84,0,185.1,0C192.22,0,197.38,1.39,199.48,1.5z"/>
		<path class="st0" d="M192.45,19.94c0,4.39-3.57,7.96-7.96,7.96c-4.39,0-7.95-3.56-7.95-7.96s3.56-7.96,7.95-7.96
			C188.88,11.98,192.45,15.54,192.45,19.94z"/>
	</g>
</g>
</svg>
