<?xml version="1.0" encoding="utf-8"?>
<!-- Generator: Adobe Illustrator 27.9.0, SVG Export Plug-In . SVG Version: 6.00 Build 0)  -->
<svg version="1.1" id="Layer_1" xmlns="http://www.w3.org/2000/svg" xmlns:xlink="http://www.w3.org/1999/xlink" x="0px" y="0px"
	 viewBox="0 0 284 40" style="enable-background:new 0 0 284 40;" xml:space="preserve">
<style type="text/css">
	.st0{fill:#B50007;}
</style>
<g>
	<path d="M18.6,20.7c-2.9,0-2.9,0.1-2.9,1.7v8.3c0,5.4,0.4,5.9,3.6,6.2l2.2,0.2c0.6,0.3,0.6,1.7,0,2c-4-0.1-7.5-0.2-10.6-0.2
		c-3.4,0-6.8,0.1-10.4,0.2c-0.6-0.3-0.6-1.7,0-2L2.1,37c3.2-0.3,3.6-0.9,3.6-6.3V9.2c0-5.4-0.4-5.9-3.6-6.3L0.4,2.8
		c-0.6-0.3-0.6-1.7,0-2c3.4,0.1,7.1,0.2,10.4,0.2c3.1,0,6.6-0.1,9.7-0.2c0.6,0.3,0.6,1.7,0,2l-1.5,0.2c-3,0.3-3.4,0.9-3.4,6.3V16
		c0,1.7,0.1,1.7,2.9,1.7h14.5c2.9,0,2.9-0.1,2.9-1.7V9.2c0-5.4-0.4-5.8-3.6-6.2l-1.9-0.2c-0.6-0.3-0.6-1.7,0-2
		c3.8,0.1,7.3,0.2,10.6,0.2c3.4,0,6.6-0.1,9.8-0.2c0.6,0.3,0.6,1.7,0,2l-1.4,0.2C46.4,3.3,46,3.9,46,9.2v21.5c0,5.4,0.4,5.8,3.6,6.2
		l1.7,0.2c0.6,0.3,0.6,1.7,0,2c-3.5-0.1-6.9-0.2-10.1-0.2c-3.5,0-6.9,0.1-10.3,0.2c-0.6-0.3-0.6-1.7,0-2l1.5-0.2
		c3.2-0.3,3.6-0.9,3.6-6.3v-8.3c0-1.6,0-1.7-2.9-1.7H18.6z"/>
	<path d="M60.3,24.5c-1.6,0-1.8,0.1-1.8,1.1c0,4.6,3.4,9.1,9.8,9.1c2,0,4.6-0.4,6.5-3.2c0.8-0.1,1.8,0.4,1.8,1.4
		c-2.9,5.2-8,7-12.2,7C55.1,39.9,50,34,50,27.4c0-7.7,6.4-13.7,15.1-13.7c7.3,0,11.2,4.1,11.2,8.8c0,1.2-0.4,2-2.5,2L60.3,24.5
		L60.3,24.5z M64.9,21.8c1,0,2.1-0.1,2.9-0.5c0.4-0.2,0.5-0.8,0.5-1.4c0-2-1.3-3.4-3.7-3.4c-2.9,0-5.4,2.4-5.4,4.4
		c0,0.9,1,0.9,3.2,0.9C62.4,21.8,64.9,21.8,64.9,21.8z"/>
	<path d="M102.5,30.6c-0.3,4.2,1.7,5.3,3.1,5.3c0.8,0,1.5-0.2,2.7-0.7c0.6,0.1,1.1,0.9,0.8,1.4c-0.8,1-4.1,3.3-8.1,3.3
		c-2.4,0-4-0.7-5.9-2.1c-0.5-0.4-0.8-0.5-1.1-0.5c-0.4,0-0.8,0.2-1.5,0.7c-1.3,0.8-3.4,2-5.9,2c-4.1,0-7.8-2.1-7.8-6.4
		c0-3.1,2.2-5,7.3-6.4c2.7-0.7,4.6-1.2,6.6-1.7c1.3-0.3,1.6-0.7,1.7-1.2c0.1-0.7,0.1-1.3,0.1-2.1c0-2.3-1.1-5.3-4.1-5.3
		c-1.7,0-3.1,0.9-3.6,3.5c-0.1,1-0.6,1.5-1.2,2c-1.1,0.7-3.8,1.4-5,1.4c-1.2,0-1.6-0.7-1.6-1.5c0-1.6,1.7-3.5,3.4-4.7
		c2.4-1.6,6.8-3.7,11.7-3.7c5.9,0,9.3,2.6,8.9,8.9L102.5,30.6z M94.1,29c0.1-1,0-1.2-0.5-1.1c-3.1,0.4-5.9,1.4-5.9,4.3
		c0,2,1.6,3.7,3.6,3.7c2.2,0,2.6-1.1,2.7-3L94.1,29z"/>
	<path d="M112.9,22.8c0-2.4,0-3.2-1.3-3.9l-1-0.5c-0.5-0.4-0.5-1.5,0-1.8c3.2-0.8,8-2.4,10.2-3.7c0.6,0,1,0.2,1.3,0.5
		c-0.1,1.2-0.3,2.1-0.3,2.6c0,0.4,0.1,0.6,0.7,0.7c1.9-1,3.9-3.1,6.8-3.1c1.9,0,3.8,1.3,3.8,3.6c0,2.8-2.2,4-4.5,4
		c-1,0-1.8-0.4-2.7-1.1c-1.6-1.2-2.2-1.2-2.7-1.2c-1,0-1.3,1.3-1.3,3.7V32c0,4.3,0.3,4.8,2.6,5l2.2,0.2c0.6,0.4,0.6,1.8-0.1,2.1
		c-3.4-0.1-6.1-0.2-9.4-0.2c-2.9,0-5.9,0.1-8.2,0.2c-0.6-0.4-0.6-1.8-0.1-2.1l1.3-0.1c2.3-0.2,2.6-0.7,2.6-5L112.9,22.8L112.9,22.8z
		"/>
	<path d="M148.4,17.8c-0.9,0-1,0.1-1,1.4v9.2c0,3.4,0,7.2,4.9,7.2c1,0,2.1-0.4,2.9-0.9c0.7,0.2,1.1,0.9,1,1.6
		c-2,1.8-5.7,3.5-10.1,3.5c-5.8,0-7.8-2.9-7.8-7V19.2c0-1.3-0.1-1.4-1.3-1.4h-2.2c-0.8-0.2-1-1.5-0.4-1.9c2.2-0.7,4.1-1.8,5.8-2.7
		c1.3-0.8,3-2.1,5.2-4.8c0.5-0.2,1.8-0.2,2.1,0.3v4.6c0,1.2,0.1,1.2,1.3,1.2h6.2c0.4,0.2,0.6,0.6,0.6,1.2c0,0.7-0.2,1.8-0.9,2.1
		H148.4z"/>
	<path d="M202.8,27.3c-0.1-8.8,7.8-13.6,16.1-13.6c8.2,0,15.6,4.4,15.6,13c0,8.9-7.5,13.2-16.1,13.2
		C210.1,39.9,202.9,35.7,202.8,27.3z M212.9,25.9c0,6.4,2.3,11.1,6.4,11.1c4,0,5.3-4,5.2-9.5c-0.1-5.9-2-11.1-6-11.1
		C215.4,16.5,212.9,19.2,212.9,25.9z"/>
	<path d="M238.9,22.8c0-2.4,0-3.2-1.3-3.9l-1-0.5c-0.5-0.4-0.5-1.5,0-1.8c3.2-0.8,8-2.4,10.2-3.7c0.6,0,1,0.2,1.3,0.5
		c-0.1,1.2-0.3,2.1-0.3,2.6c0,0.4,0.1,0.6,0.7,0.7c1.9-1,3.9-3.1,6.8-3.1c1.9,0,3.8,1.3,3.8,3.6c0,2.8-2.2,4-4.5,4
		c-1,0-1.8-0.4-2.7-1.1c-1.6-1.2-2.2-1.2-2.7-1.2c-1,0-1.3,1.3-1.3,3.7V32c0,4.3,0.3,4.8,2.6,5l2.2,0.2c0.6,0.4,0.6,1.8-0.1,2.1
		c-3.4-0.1-6.1-0.2-9.4-0.2c-2.9,0-5.9,0.1-8.2,0.2c-0.6-0.4-0.6-1.8-0.1-2.1l1.3-0.1c2.3-0.2,2.6-0.7,2.6-5L238.9,22.8L238.9,22.8z
		"/>
	<path d="M267.6,24.5c-1.6,0-1.8,0.1-1.8,1.1c0,4.6,3.4,9.1,9.8,9.1c2,0,4.6-0.4,6.5-3.2c0.8-0.1,1.8,0.4,1.8,1.4
		c-2.9,5.2-8,7-12.2,7c-9.4,0-14.5-5.8-14.5-12.5c0-7.7,6.4-13.7,15.1-13.7c7.3,0,11.2,4.1,11.2,8.8c0,1.2-0.4,2-2.5,2L267.6,24.5
		L267.6,24.5z M272.2,21.8c1,0,2.1-0.1,2.9-0.5c0.4-0.2,0.5-0.8,0.5-1.4c0-2-1.3-3.4-3.7-3.4c-2.9,0-5.4,2.4-5.4,4.4
		c0,0.9,1,0.9,3.2,0.9C269.6,21.8,272.2,21.8,272.2,21.8z"/>
	<g>
		<path d="M199.5,1.5c0,1,0.2,5.7,0.8,9c-0.3,0.7-2.2,0.9-2.7,0.4c-1.9-5.4-6.4-8.3-13.1-8.3c-7.8,0-16.1,5.5-16.1,17
			s8,17.7,16.4,17.7c8.4,0,12.4-5,14.2-9c0.6-0.5,2.2-0.3,2.7,0.4c-0.5,4.3-1.7,7.7-2.7,9.1c-3.8,0.9-8.7,2.1-14.2,2.1
			c-6.8,0-13.8-1.3-18.8-4.4c-5-3.2-8.9-8-8.9-15.1c0-7,3.6-12,8.5-15.3c4.9-3.4,12.1-5.2,19.3-5.2C192.2,0,197.4,1.4,199.5,1.5z"/>
		<path class="st0" d="M192.5,19.9c0,4.4-3.6,8-8,8s-8-3.6-8-8s3.6-8,8-8C188.9,12,192.5,15.5,192.5,19.9z"/>
	</g>
</g>
</svg>
