<?xml version="1.0" encoding="utf-8"?>
<!-- Generator: Adobe Illustrator 27.9.0, SVG Export Plug-In . SVG Version: 6.00 Build 0)  -->
<svg version="1.1" id="Layer_1" xmlns="http://www.w3.org/2000/svg" xmlns:xlink="http://www.w3.org/1999/xlink" x="0px" y="0px"
	 viewBox="0 0 800 218" style="enable-background:new 0 0 800 218;" xml:space="preserve">
<style type="text/css">
	.st0{fill:url(#SVGID_1_);}
	.st1{fill:url(#SVGID_00000091711678715696228510000002071719451178736824_);}
</style>
<linearGradient id="SVGID_1_" gradientUnits="userSpaceOnUse" x1="4.499563e-03" y1="108.9986" x2="799.9955" y2="108.9986">
	<stop  offset="0" style="stop-color:#2D3486"/>
	<stop  offset="0.459" style="stop-color:#402673"/>
	<stop  offset="1" style="stop-color:#150D26"/>
</linearGradient>
<path class="st0" d="M307.88,28.41h-21.05c-1.94,0-3.51,1.57-3.51,3.51v3.87c-7.96-5.75-17.63-9.13-28.07-9.13
	c-27.13,0-49.12,22.78-49.12,50.88c0,28.1,21.99,50.88,49.12,50.88c10.44,0,20.11-3.38,28.07-9.13v3.87c0,1.94,1.57,3.51,3.51,3.51
	h21.05c1.94,0,3.51-1.57,3.51-3.51V31.92C311.39,29.98,309.82,28.41,307.88,28.41z M258.76,103.85c-13.56,0-24.56-11.78-24.56-26.32
	c0-14.53,11-26.32,24.56-26.32s24.56,11.78,24.56,26.32C283.32,92.07,272.33,103.85,258.76,103.85z M666.28,126.66
	c1.94,0,3.51-1.57,3.51-3.51V67.6c0-8.54,6.52-15.97,15.05-16.36c2.96-0.14,5.75,0.55,8.16,1.84c1.49,0.79,3.32,0.39,4.37-0.92
	l12.41-15.65c1.36-1.72,0.82-4.24-1.1-5.29c-5.33-2.91-11.4-4.56-17.83-4.56c-7.77,0-15,2.41-21.05,6.54v-1.27
	c0-1.94-1.57-3.51-3.51-3.51h-21.05c-1.94,0-3.51,1.57-3.51,3.51v91.23c0,1.94,1.57,3.51,3.51,3.51h21.04V126.66z M579.83,26.66
	c-30.04,0-54.39,22.78-54.39,50.88c0,28.1,24.35,50.88,54.39,50.88c30.04,0,54.39-22.78,54.39-50.88
	C634.21,49.44,609.86,26.66,579.83,26.66z M579.83,103.85c-14.53,0-26.32-11.78-26.32-26.32c0-14.53,11.78-26.32,26.32-26.32
	c14.53,0,26.32,11.78,26.32,26.32C606.14,92.07,594.36,103.85,579.83,103.85z M498.19,128.41c10.69,0,20.66-2.89,29.06-7.87
	c1.82-1.08,2.24-3.54,0.93-5.19l-11.6-14.63c-1.12-1.42-3.11-1.71-4.65-0.76c-4.81,2.96-10.64,4.42-16.84,3.71
	c-12.04-1.39-21.74-11.14-23.05-23.19c-1.72-15.85,10.65-29.26,26.16-29.26c5.04,0,9.74,1.43,13.74,3.89
	c1.54,0.95,3.53,0.66,4.65-0.76l11.6-14.63c1.31-1.66,0.89-4.12-0.93-5.19c-8.41-4.98-18.37-7.87-29.06-7.87
	c-30.04,0-54.39,22.78-54.39,50.88C443.81,105.63,468.16,128.41,498.19,128.41z M371.64,26.68c-7.01,0.7-13.5,3.27-19,7.22v-2.15
	c0-1.94-1.57-3.51-3.51-3.51h-21.05c-1.94,0-3.51,1.57-3.51,3.51v91.23c0,1.94,1.57,3.51,3.51,3.51h21.05
	c1.94,0,3.51-1.57,3.51-3.51v-54.4c0-9.69,7.85-17.54,17.54-17.54h1.75c1.94,0,3.51-1.57,3.51-3.51V30.18
	C375.44,28.13,373.68,26.47,371.64,26.68z M151.78,26.66c-27.13,0-49.12,22.78-49.12,50.88c0,28.1,21.99,50.88,49.12,50.88
	c19.02,0,35.75-9.13,45.47-22.97c1.2-1.73,0.57-4.14-1.31-5.11l-17.9-9.24c-1.6-0.82-3.51-0.26-4.52,1.22
	c-4.73,6.96-12.7,11.54-21.75,11.54c-6.75,0-12.74-3.98-16.59-10.16l62.94-13.77c1.65-0.36,2.8-1.85,2.77-3.55
	C200.3,48.81,178.54,26.66,151.78,26.66z M131.04,73.05c1.71-12.39,10.33-21.83,20.73-21.83c7.83,0,14.66,5.36,18.28,13.3
	L131.04,73.05z M750.88,26.65c-27.13,0-49.12,22.78-49.12,50.88c0.01,28.1,22,50.88,49.13,50.88c19.02,0,35.75-9.14,45.47-22.97
	c1.22-1.73,0.58-4.14-1.29-5.11l-17.91-9.24c-1.6-0.82-3.51-0.26-4.52,1.22c-4.73,6.96-12.71,11.54-21.76,11.54
	c-6.74,0-12.74-3.98-16.59-10.16l62.94-13.77c1.65-0.36,2.8-1.85,2.76-3.55C799.4,48.8,777.63,26.65,750.88,26.65z M730.17,73.05
	c1.7-12.39,10.32-21.83,20.72-21.83c7.84,0,14.66,5.36,18.28,13.3L730.17,73.05z M3.51,126.66h21.05c1.94,0,3.51-1.57,3.51-3.51
	V72.91c0-10.63,8.31-19.74,18.94-19.93c10.82-0.2,19.66,8.52,19.66,19.29v50.88c0,1.94,1.57,3.51,3.51,3.51h21.05
	c1.94,0,3.51-1.57,3.51-3.51v-49.9c0-24.31-19.35-44.73-43.66-44.84c-8.43-0.04-16.31,2.3-23.01,6.39V3.85
	c0-2.24-2.07-3.91-4.26-3.43L2.76,5.03C1.15,5.38,0,6.81,0,8.46v114.69C0,125.09,1.57,126.66,3.51,126.66z M448.37,119.29
	l-11.63-14.66c-0.91-1.15-2.46-1.7-3.84-1.2c-0.74,0.27-1.54,0.42-2.38,0.42c-3.93-0.02-6.98-3.47-6.98-7.4V51.22h15.06
	c1.94,0,3.51-1.57,3.51-3.51V30.17c0-1.94-1.57-3.51-3.51-3.51h-15.06V3.85c0-2.24-2.07-3.91-4.26-3.43l-21.05,4.61
	c-1.61,0.35-2.76,1.78-2.76,3.43v18.2h-7.02c-1.94,0-3.51,1.57-3.51,3.51v17.54c0,1.94,1.57,3.51,3.51,3.51h7.02v45.61
	c0,17.44,15.71,31.58,35.09,31.58c5.98,0,11.6-1.36,16.53-3.75C449.13,123.67,449.78,121.08,448.37,119.29z M498.19,91.57
	c7.75,0,14.04-6.28,14.04-14.04s-6.28-14.04-14.04-14.04s-14.04,6.28-14.04,14.04S490.44,91.57,498.19,91.57z M333.49,162.75h-9.35
	l-24.36,54.13h9.74l5.51-12.76h27.51l5.49,12.76h9.98L333.49,162.75z M318.29,196.62l10.53-24.38l10.5,24.38H318.29z M271.32,200.11
	l-30.39-37.36h-7.81v54.13h9.43v-37.45l30.39,37.45h7.82v-54.13h-9.44V200.11z M207.88,162.75h-9.43v54.13h9.43V162.75z
	 M138.76,216.88h9.43v-20.96h26.45v-8.12h-26.45v-16.94h29.78v-8.12h-39.21V216.88z M415.26,200.11l-30.39-37.36h-7.81v54.13h9.43
	v-37.45l30.39,37.45h7.81v-54.13h-9.44v37.36H415.26z M579.64,162.75h-9.35l-24.36,54.13h9.74l5.51-12.76h27.51l5.49,12.76h9.98
	L579.64,162.75z M564.43,196.62l10.53-24.38l10.5,24.38H564.43z M632.62,208.76v-46.01h-9.43v54.13h38.05v-8.12L632.62,208.76
	L632.62,208.76z M526.85,162.75h-9.43v54.13h9.43V162.75z M462.4,175.85c1.78-1.73,3.88-3.07,6.3-4.02
	c2.42-0.95,5.08-1.43,7.97-1.43c2.84,0,5.48,0.53,7.93,1.59c2.45,1.06,4.68,2.64,6.69,4.76l6.11-5.8c-2.47-2.94-5.54-5.17-9.2-6.69
	s-7.66-2.28-11.99-2.28c-4.13,0-7.95,0.68-11.48,2.05c-3.53,1.37-6.6,3.3-9.2,5.8s-4.63,5.45-6.07,8.85
	c-1.44,3.4-2.17,7.11-2.17,11.14c0,4.02,0.72,7.73,2.17,11.14c1.44,3.4,3.47,6.36,6.07,8.85c2.6,2.5,5.66,4.43,9.16,5.8
	c3.51,1.36,7.32,2.05,11.45,2.05c4.38,0,8.4-0.77,12.06-2.32c3.66-1.54,6.73-3.76,9.2-6.65l-6.11-5.88
	c-2.01,2.17-4.24,3.78-6.69,4.83c-2.45,1.06-5.09,1.59-7.93,1.59c-2.89,0-5.54-0.48-7.97-1.43c-2.42-0.95-4.52-2.29-6.3-4.02
	c-1.78-1.73-3.15-3.78-4.1-6.15c-0.96-2.37-1.43-4.97-1.43-7.81s0.48-5.44,1.43-7.81C459.24,179.63,460.61,177.59,462.4,175.85
	L462.4,175.85z"/>
<radialGradient id="SVGID_00000075140982636206063990000012707827713359164345_" cx="400" cy="108.9986" r="293.0902" gradientUnits="userSpaceOnUse">
	<stop  offset="0" style="stop-color:#64577D"/>
	<stop  offset="1" style="stop-color:#64577D;stop-opacity:0"/>
</radialGradient>
<path style="fill:url(#SVGID_00000075140982636206063990000012707827713359164345_);" d="M307.88,28.41h-21.05
	c-1.94,0-3.51,1.57-3.51,3.51v3.87c-7.96-5.75-17.63-9.13-28.07-9.13c-27.13,0-49.12,22.78-49.12,50.88
	c0,28.1,21.99,50.88,49.12,50.88c10.44,0,20.11-3.38,28.07-9.13v3.87c0,1.94,1.57,3.51,3.51,3.51h21.05c1.94,0,3.51-1.57,3.51-3.51
	V31.92C311.39,29.98,309.82,28.41,307.88,28.41z M258.76,103.85c-13.56,0-24.56-11.78-24.56-26.32c0-14.53,11-26.32,24.56-26.32
	s24.56,11.78,24.56,26.32C283.32,92.07,272.33,103.85,258.76,103.85z M666.28,126.66c1.94,0,3.51-1.57,3.51-3.51V67.6
	c0-8.54,6.52-15.97,15.05-16.36c2.96-0.14,5.75,0.55,8.16,1.84c1.49,0.79,3.32,0.39,4.37-0.92l12.41-15.65
	c1.36-1.72,0.82-4.24-1.1-5.29c-5.33-2.91-11.4-4.56-17.83-4.56c-7.77,0-15,2.41-21.05,6.54v-1.27c0-1.94-1.57-3.51-3.51-3.51
	h-21.05c-1.94,0-3.51,1.57-3.51,3.51v91.23c0,1.94,1.57,3.51,3.51,3.51h21.04V126.66z M579.83,26.66
	c-30.04,0-54.39,22.78-54.39,50.88c0,28.1,24.35,50.88,54.39,50.88c30.04,0,54.39-22.78,54.39-50.88
	C634.21,49.44,609.86,26.66,579.83,26.66z M579.83,103.85c-14.53,0-26.32-11.78-26.32-26.32c0-14.53,11.78-26.32,26.32-26.32
	c14.53,0,26.32,11.78,26.32,26.32C606.14,92.07,594.36,103.85,579.83,103.85z M498.19,128.41c10.69,0,20.66-2.89,29.06-7.87
	c1.82-1.08,2.24-3.54,0.93-5.19l-11.6-14.63c-1.12-1.42-3.11-1.71-4.65-0.76c-4.81,2.96-10.64,4.42-16.84,3.71
	c-12.04-1.39-21.74-11.14-23.05-23.19c-1.72-15.85,10.65-29.26,26.16-29.26c5.04,0,9.74,1.43,13.74,3.89
	c1.54,0.95,3.53,0.66,4.65-0.76l11.6-14.63c1.31-1.66,0.89-4.12-0.93-5.19c-8.41-4.98-18.37-7.87-29.06-7.87
	c-30.04,0-54.39,22.78-54.39,50.88C443.81,105.63,468.16,128.41,498.19,128.41z M371.64,26.68c-7.01,0.7-13.5,3.27-19,7.22v-2.15
	c0-1.94-1.57-3.51-3.51-3.51h-21.05c-1.94,0-3.51,1.57-3.51,3.51v91.23c0,1.94,1.57,3.51,3.51,3.51h21.05
	c1.94,0,3.51-1.57,3.51-3.51v-54.4c0-9.69,7.85-17.54,17.54-17.54h1.75c1.94,0,3.51-1.57,3.51-3.51V30.18
	C375.44,28.13,373.68,26.47,371.64,26.68z M151.78,26.66c-27.13,0-49.12,22.78-49.12,50.88c0,28.1,21.99,50.88,49.12,50.88
	c19.02,0,35.75-9.13,45.47-22.97c1.2-1.73,0.57-4.14-1.31-5.11l-17.9-9.24c-1.6-0.82-3.51-0.26-4.52,1.22
	c-4.73,6.96-12.7,11.54-21.75,11.54c-6.75,0-12.74-3.98-16.59-10.16l62.94-13.77c1.65-0.36,2.8-1.85,2.77-3.55
	C200.3,48.81,178.54,26.66,151.78,26.66z M131.04,73.05c1.71-12.39,10.33-21.83,20.73-21.83c7.83,0,14.66,5.36,18.28,13.3
	L131.04,73.05z M750.88,26.65c-27.13,0-49.12,22.78-49.12,50.88c0.01,28.1,22,50.88,49.13,50.88c19.02,0,35.75-9.14,45.47-22.97
	c1.22-1.73,0.58-4.14-1.29-5.11l-17.91-9.24c-1.6-0.82-3.51-0.26-4.52,1.22c-4.73,6.96-12.71,11.54-21.76,11.54
	c-6.74,0-12.74-3.98-16.59-10.16l62.94-13.77c1.65-0.36,2.8-1.85,2.76-3.55C799.4,48.8,777.63,26.65,750.88,26.65z M730.17,73.05
	c1.7-12.39,10.32-21.83,20.72-21.83c7.84,0,14.66,5.36,18.28,13.3L730.17,73.05z M3.51,126.66h21.05c1.94,0,3.51-1.57,3.51-3.51
	V72.91c0-10.63,8.31-19.74,18.94-19.93c10.82-0.2,19.66,8.52,19.66,19.29v50.88c0,1.94,1.57,3.51,3.51,3.51h21.05
	c1.94,0,3.51-1.57,3.51-3.51v-49.9c0-24.31-19.35-44.73-43.66-44.84c-8.43-0.04-16.31,2.3-23.01,6.39V3.85
	c0-2.24-2.07-3.91-4.26-3.43L2.76,5.03C1.15,5.38,0,6.81,0,8.46v114.69C0,125.09,1.57,126.66,3.51,126.66z M448.37,119.29
	l-11.63-14.66c-0.91-1.15-2.46-1.7-3.84-1.2c-0.74,0.27-1.54,0.42-2.38,0.42c-3.93-0.02-6.98-3.47-6.98-7.4V51.22h15.06
	c1.94,0,3.51-1.57,3.51-3.51V30.17c0-1.94-1.57-3.51-3.51-3.51h-15.06V3.85c0-2.24-2.07-3.91-4.26-3.43l-21.05,4.61
	c-1.61,0.35-2.76,1.78-2.76,3.43v18.2h-7.02c-1.94,0-3.51,1.57-3.51,3.51v17.54c0,1.94,1.57,3.51,3.51,3.51h7.02v45.61
	c0,17.44,15.71,31.58,35.09,31.58c5.98,0,11.6-1.36,16.53-3.75C449.13,123.67,449.78,121.08,448.37,119.29z M498.19,91.57
	c7.75,0,14.04-6.28,14.04-14.04s-6.28-14.04-14.04-14.04s-14.04,6.28-14.04,14.04S490.44,91.57,498.19,91.57z M333.49,162.75h-9.35
	l-24.36,54.13h9.74l5.51-12.76h27.51l5.49,12.76h9.98L333.49,162.75z M318.29,196.62l10.53-24.38l10.5,24.38H318.29z M271.32,200.11
	l-30.39-37.36h-7.81v54.13h9.43v-37.45l30.39,37.45h7.82v-54.13h-9.44V200.11z M207.88,162.75h-9.43v54.13h9.43V162.75z
	 M138.76,216.88h9.43v-20.96h26.45v-8.12h-26.45v-16.94h29.78v-8.12h-39.21V216.88z M415.26,200.11l-30.39-37.36h-7.81v54.13h9.43
	v-37.45l30.39,37.45h7.81v-54.13h-9.44v37.36H415.26z M579.64,162.75h-9.35l-24.36,54.13h9.74l5.51-12.76h27.51l5.49,12.76h9.98
	L579.64,162.75z M564.43,196.62l10.53-24.38l10.5,24.38H564.43z M632.62,208.76v-46.01h-9.43v54.13h38.05v-8.12L632.62,208.76
	L632.62,208.76z M526.85,162.75h-9.43v54.13h9.43V162.75z M462.4,175.85c1.78-1.73,3.88-3.07,6.3-4.02
	c2.42-0.95,5.08-1.43,7.97-1.43c2.84,0,5.48,0.53,7.93,1.59c2.45,1.06,4.68,2.64,6.69,4.76l6.11-5.8c-2.47-2.94-5.54-5.17-9.2-6.69
	s-7.66-2.28-11.99-2.28c-4.13,0-7.95,0.68-11.48,2.05c-3.53,1.37-6.6,3.3-9.2,5.8s-4.63,5.45-6.07,8.85
	c-1.44,3.4-2.17,7.11-2.17,11.14c0,4.02,0.72,7.73,2.17,11.14c1.44,3.4,3.47,6.36,6.07,8.85c2.6,2.5,5.66,4.43,9.16,5.8
	c3.51,1.36,7.32,2.05,11.45,2.05c4.38,0,8.4-0.77,12.06-2.32c3.66-1.54,6.73-3.76,9.2-6.65l-6.11-5.88
	c-2.01,2.17-4.24,3.78-6.69,4.83c-2.45,1.06-5.09,1.59-7.93,1.59c-2.89,0-5.54-0.48-7.97-1.43c-2.42-0.95-4.52-2.29-6.3-4.02
	c-1.78-1.73-3.15-3.78-4.1-6.15c-0.96-2.37-1.43-4.97-1.43-7.81s0.48-5.44,1.43-7.81C459.24,179.63,460.61,177.59,462.4,175.85
	L462.4,175.85z"/>
</svg>
