<svg width="118" height="32" viewBox="0 0 118 32" fill="none" xmlns="http://www.w3.org/2000/svg">
<g clip-path="url(#clip0_2072_382)">
<path d="M27.7995 23.1111L24.2121 30.8887H25.647L26.459 29.0555H30.5092L31.3181 30.8887H32.7872L29.1773 23.1111H27.7995ZM26.9365 27.9776L28.4878 24.4752L30.0334 27.9776H26.9365Z" fill="#BFBFBF"/>
<path d="M20.02 28.4783L15.5446 23.1111H14.3944V30.8887H15.7837V25.509L20.2594 30.8887H21.4095V23.1111H20.02V28.4783Z" fill="#BFBFBF"/>
<path d="M10.6774 23.1111H9.28811V30.8887H10.6774V23.1111Z" fill="#BFBFBF"/>
<path d="M0.5 30.8887H1.88929V27.8777H5.7842V26.7108H1.88929V24.2775H6.27382V23.1111H0.5V30.8887Z" fill="#BFBFBF"/>
<path d="M41.2153 28.4783L36.7399 23.1111H35.5898V30.8887H36.9791V25.509L41.4547 30.8887H42.6049V23.1111H41.2153V28.4783Z" fill="#BFBFBF"/>
<path d="M64.0439 23.1111L60.4565 30.8887H61.8914L62.7034 29.0555H66.7536L67.5625 30.8887H69.0316L65.4217 23.1111H64.0439ZM63.1809 27.9776L64.7322 24.4752L66.2778 27.9776H63.1809Z" fill="#BFBFBF"/>
<path d="M73.2235 29.7218V23.1111H71.8342V30.8887H77.4372V29.7218H73.2235Z" fill="#BFBFBF"/>
<path d="M57.6481 23.1111H56.2588V30.8887H57.6481V23.1111Z" fill="#BFBFBF"/>
<path d="M48.1563 24.9942C48.4181 24.7463 48.7273 24.5537 49.0843 24.4164C49.441 24.2797 49.8319 24.2108 50.2573 24.2108C50.675 24.2108 51.0639 24.2868 51.4244 24.4387C51.7851 24.5906 52.1137 24.8185 52.4097 25.1223L53.3092 24.289C52.945 23.8663 52.4932 23.5463 51.9541 23.3277C51.415 23.109 50.8267 23 50.1889 23C49.5813 23 49.0178 23.0982 48.4979 23.2946C47.9777 23.491 47.5259 23.7688 47.1425 24.1279C46.7591 24.4871 46.4611 24.9108 46.2487 25.4001C46.036 25.8889 45.9298 26.4222 45.9298 27C45.9298 27.5778 46.036 28.1111 46.2487 28.5999C46.4611 29.0887 46.7591 29.513 47.1425 29.8721C47.5259 30.2313 47.9758 30.509 48.492 30.7054C49.0083 30.9012 49.5699 31 50.1775 31C50.8228 31 51.415 30.8888 51.9541 30.6663C52.4932 30.4444 52.945 30.126 53.3092 29.7109L52.4097 28.8662C52.1137 29.1776 51.785 29.4093 51.4244 29.5607C51.0638 29.7126 50.6749 29.7886 50.2573 29.7886C49.832 29.7886 49.441 29.7202 49.0843 29.5829C48.7273 29.4462 48.4181 29.2536 48.1563 29.0051C47.8944 28.7572 47.693 28.4626 47.5527 28.1219C47.412 27.7812 47.3419 27.4074 47.3419 27C47.3419 26.5926 47.412 26.2182 47.5527 25.8775C47.693 25.5368 47.8943 25.2428 48.1563 24.9943V24.9942Z" fill="#BFBFBF"/>
<path d="M45.3367 4.1332H42.2366C41.9512 4.1332 41.72 4.36453 41.72 4.64984V5.21996C40.5482 4.37306 39.1239 3.87484 37.5866 3.87484C33.5916 3.87484 30.3531 7.22904 30.3531 11.3666C30.3531 15.5042 33.5916 18.8584 37.5866 18.8584C39.1239 18.8584 40.5481 18.3602 41.72 17.5133V18.0834C41.72 18.3688 41.9513 18.6 42.2366 18.6H45.3367C45.6221 18.6 45.8533 18.3687 45.8533 18.0834V4.64984C45.8533 4.36445 45.622 4.1332 45.3367 4.1332ZM38.1032 15.2418C36.1058 15.2418 34.4865 13.5068 34.4865 11.3667C34.4865 9.22656 36.1058 7.49163 38.1032 7.49163C40.1006 7.49163 41.7199 9.22656 41.7199 11.3667C41.7199 13.5068 40.1006 15.2418 38.1032 15.2418Z" fill="url(#paint0_linear_2072_382)"/>
<path d="M98.1112 18.6001C98.3966 18.6001 98.6278 18.3688 98.6278 18.0835V9.90359C98.6278 8.64655 99.5882 7.55181 100.844 7.49418C101.28 7.47417 101.69 7.57509 102.045 7.76537C102.264 7.88223 102.534 7.82324 102.688 7.62929L104.515 5.32479C104.716 5.07161 104.636 4.70077 104.353 4.54597C103.568 4.11741 102.675 3.87484 101.728 3.87484C100.584 3.87484 99.5194 4.22949 98.6277 4.83757V4.64984C98.6277 4.36445 98.3964 4.1332 98.1111 4.1332H95.011C94.7257 4.1332 94.4944 4.36453 94.4944 4.64984V18.0835C94.4944 18.3688 94.7257 18.6001 95.011 18.6001H98.1112Z" fill="url(#paint1_linear_2072_382)"/>
<path d="M85.3808 3.87484C80.9579 3.87484 77.3723 7.22904 77.3723 11.3666C77.3723 15.5042 80.9579 18.8584 85.3808 18.8584C89.8038 18.8584 93.3893 15.5042 93.3893 11.3666C93.3893 7.22904 89.8038 3.87484 85.3808 3.87484ZM85.3808 15.2418C83.2407 15.2418 81.5057 13.5068 81.5057 11.3667C81.5057 9.22656 83.2407 7.49163 85.3808 7.49163C87.5209 7.49163 89.2559 9.22656 89.2559 11.3667C89.2559 13.5068 87.5209 15.2418 85.3808 15.2418Z" fill="url(#paint2_linear_2072_382)"/>
<path d="M73.3601 18.8585C74.934 18.8585 76.4016 18.4334 77.6394 17.6998C77.9074 17.541 77.9699 17.179 77.7763 16.9349L76.0682 14.7811C75.9028 14.5726 75.61 14.5297 75.3833 14.6692C74.6751 15.105 73.8172 15.3206 72.9029 15.2153C71.1302 15.0111 69.7013 13.5744 69.5086 11.8005C69.255 9.46595 71.0769 7.49155 73.3601 7.49155C74.1022 7.49155 74.7946 7.70168 75.3833 8.06398C75.61 8.20341 75.9028 8.1606 76.0681 7.95206L77.7763 5.79822C77.9699 5.55413 77.9073 5.19222 77.6393 5.03343C76.4014 4.2998 74.9339 3.87476 73.3601 3.87476C68.9371 3.87476 65.3516 7.22896 65.3516 11.3665C65.3516 15.5041 68.9372 18.8585 73.3601 18.8585Z" fill="url(#paint3_linear_2072_382)"/>
<path d="M54.7244 3.87739C53.6919 3.9811 52.7365 4.35887 51.926 4.93984V4.62265C51.926 4.33727 51.6947 4.10602 51.4094 4.10602H48.3093C48.0239 4.10602 47.7927 4.33735 47.7927 4.62265V18.0563C47.7927 18.3417 48.024 18.5729 48.3093 18.5729H51.4094C51.6947 18.5729 51.926 18.3416 51.926 18.0563V10.0478C51.926 8.62104 53.0826 7.46444 54.5094 7.46444H54.7677C55.0531 7.46444 55.2844 7.23311 55.2844 6.9478V4.39363C55.2844 4.09135 55.0252 3.84718 54.7244 3.87739Z" fill="url(#paint4_linear_2072_382)"/>
<path d="M28.8532 14.7242L26.2167 13.3634C25.9818 13.2422 25.6997 13.3244 25.5511 13.543C24.8542 14.5678 23.6807 15.2418 22.3479 15.2418C21.3542 15.2418 20.472 14.655 19.9046 13.7461L29.1722 11.7189C29.4158 11.6656 29.5849 11.4458 29.5796 11.1965C29.4922 7.13745 26.288 3.87484 22.3479 3.87484C18.353 3.87484 15.1144 7.22904 15.1144 11.3666C15.1144 15.5042 18.353 18.8584 22.3479 18.8584C25.1483 18.8584 27.612 17.5133 29.0434 15.4765C29.2222 15.2221 29.1296 14.8669 28.8532 14.7242ZM22.3479 7.49163C23.5016 7.49163 24.5059 8.28097 25.0398 9.44953L19.2962 10.7059C19.5475 8.88123 20.8164 7.49163 22.3479 7.49163Z" fill="url(#paint5_linear_2072_382)"/>
<path d="M110.57 18.8585C113.371 18.8585 115.835 17.5133 117.266 15.4766C117.445 15.2222 117.352 14.8669 117.076 14.7242L114.439 13.3634C114.204 13.2422 113.922 13.3244 113.774 13.543C113.077 14.5678 111.903 15.2418 110.57 15.2418C109.577 15.2418 108.694 14.655 108.127 13.7461L117.395 11.7189C117.638 11.6656 117.807 11.4458 117.802 11.1965C117.715 7.13745 114.51 3.87484 110.57 3.87484C106.575 3.87484 103.337 7.22904 103.337 11.3666C103.337 15.5042 106.575 18.8585 110.57 18.8585ZM110.57 7.49155C111.724 7.49155 112.728 8.28089 113.262 9.44945L107.519 10.7058C107.77 8.88115 109.039 7.49155 110.57 7.49155Z" fill="url(#paint6_linear_2072_382)"/>
<path d="M0.516638 18.6001H3.61671C3.90209 18.6001 4.13334 18.3688 4.13334 18.0835V10.6859C4.13334 9.12127 5.35746 7.7791 6.92188 7.75048C8.51572 7.7213 9.81684 9.00457 9.81684 10.5917V18.0835C9.81684 18.3689 10.0482 18.6001 10.3335 18.6001H13.4335C13.7189 18.6001 13.9502 18.3688 13.9502 18.0835V10.7358C13.9502 7.15668 11.1005 4.1494 7.52143 4.1333C6.28009 4.12772 5.11983 4.47257 4.13334 5.07426V0.516669C4.13334 0.186805 3.82851 -0.05856 3.5063 0.0119088L0.406232 0.690051C0.168998 0.741946 0 0.951997 0 1.19481V18.0835C0 18.3689 0.231335 18.6001 0.516638 18.6001Z" fill="url(#paint7_linear_2072_382)"/>
<path d="M66.0232 17.5154L64.3109 15.3564C64.1767 15.1872 63.9488 15.1058 63.746 15.1801C63.6368 15.2202 63.519 15.2422 63.3954 15.2417C62.8173 15.2389 62.367 14.7305 62.367 14.1524V7.49155H64.5846C64.8699 7.49155 65.1012 7.26021 65.1012 6.97491V4.39156C65.1012 4.10617 64.8699 3.87492 64.5846 3.87492H62.367V0.516651C62.367 0.186787 62.0622 -0.058578 61.7399 0.0118907L58.6398 0.690033C58.4027 0.741928 58.2336 0.951979 58.2336 1.19479V3.87484H57.2002C56.9149 3.87484 56.6836 4.10617 56.6836 4.39148V6.97483C56.6836 7.26021 56.9149 7.49147 57.2002 7.49147H58.2336V14.2082C58.2336 16.7764 60.5469 18.8583 63.4004 18.8583C64.2814 18.8583 65.1092 18.6577 65.8342 18.3068C66.1359 18.1608 66.2315 17.7781 66.0232 17.5154Z" fill="url(#paint8_linear_2072_382)"/>
<path d="M73.3601 13.4334C74.5015 13.4334 75.4268 12.5081 75.4268 11.3667C75.4268 10.2253 74.5015 9.29998 73.3601 9.29998C72.2187 9.29998 71.2934 10.2253 71.2934 11.3667C71.2934 12.5081 72.2187 13.4334 73.3601 13.4334Z" fill="url(#paint9_linear_2072_382)"/>
</g>
<defs>
<linearGradient id="paint0_linear_2072_382" x1="59" y1="-4.53592e-06" x2="59" y2="19" gradientUnits="userSpaceOnUse">
<stop offset="0.217106" stop-color="white"/>
<stop offset="1" stop-color="#B3B3B3"/>
</linearGradient>
<linearGradient id="paint1_linear_2072_382" x1="59" y1="-4.53592e-06" x2="59" y2="19" gradientUnits="userSpaceOnUse">
<stop offset="0.217106" stop-color="white"/>
<stop offset="1" stop-color="#B3B3B3"/>
</linearGradient>
<linearGradient id="paint2_linear_2072_382" x1="59" y1="-4.53592e-06" x2="59" y2="19" gradientUnits="userSpaceOnUse">
<stop offset="0.217106" stop-color="white"/>
<stop offset="1" stop-color="#B3B3B3"/>
</linearGradient>
<linearGradient id="paint3_linear_2072_382" x1="59" y1="-4.53592e-06" x2="59" y2="19" gradientUnits="userSpaceOnUse">
<stop offset="0.217106" stop-color="white"/>
<stop offset="1" stop-color="#B3B3B3"/>
</linearGradient>
<linearGradient id="paint4_linear_2072_382" x1="59" y1="-4.53592e-06" x2="59" y2="19" gradientUnits="userSpaceOnUse">
<stop offset="0.217106" stop-color="white"/>
<stop offset="1" stop-color="#B3B3B3"/>
</linearGradient>
<linearGradient id="paint5_linear_2072_382" x1="59" y1="-4.53592e-06" x2="59" y2="19" gradientUnits="userSpaceOnUse">
<stop offset="0.217106" stop-color="white"/>
<stop offset="1" stop-color="#B3B3B3"/>
</linearGradient>
<linearGradient id="paint6_linear_2072_382" x1="59" y1="-4.53592e-06" x2="59" y2="19" gradientUnits="userSpaceOnUse">
<stop offset="0.217106" stop-color="white"/>
<stop offset="1" stop-color="#B3B3B3"/>
</linearGradient>
<linearGradient id="paint7_linear_2072_382" x1="59" y1="-4.53592e-06" x2="59" y2="19" gradientUnits="userSpaceOnUse">
<stop offset="0.217106" stop-color="white"/>
<stop offset="1" stop-color="#B3B3B3"/>
</linearGradient>
<linearGradient id="paint8_linear_2072_382" x1="59" y1="-4.53592e-06" x2="59" y2="19" gradientUnits="userSpaceOnUse">
<stop offset="0.217106" stop-color="white"/>
<stop offset="1" stop-color="#B3B3B3"/>
</linearGradient>
<linearGradient id="paint9_linear_2072_382" x1="59" y1="-4.53592e-06" x2="59" y2="19" gradientUnits="userSpaceOnUse">
<stop offset="0.217106" stop-color="white"/>
<stop offset="1" stop-color="#B3B3B3"/>
</linearGradient>
<clipPath id="clip0_2072_382">
<rect width="117.802" height="32" fill="white"/>
</clipPath>
</defs>
</svg>
