<?xml version="1.0" encoding="utf-8"?>
<!-- Generator: Adobe Illustrator 27.9.0, SVG Export Plug-In . SVG Version: 6.00 Build 0)  -->
<svg version="1.1" id="Layer_1" xmlns="http://www.w3.org/2000/svg" xmlns:xlink="http://www.w3.org/1999/xlink" x="0px" y="0px"
	 viewBox="0 0 800 218" style="enable-background:new 0 0 800 218;" xml:space="preserve">
<style type="text/css">
	.st0{fill:url(#SVGID_1_);}
	.st1{fill:url(#SVGID_00000012447317963993280270000002923938731406922915_);}
</style>
<linearGradient id="SVGID_1_" gradientUnits="userSpaceOnUse" x1="4.499563e-03" y1="108.9986" x2="799.9955" y2="108.9986">
	<stop  offset="0" style="stop-color:#2D3486"/>
	<stop  offset="0.459" style="stop-color:#402673"/>
	<stop  offset="1" style="stop-color:#150D26"/>
</linearGradient>
<path class="st0" d="M307.9,28.4h-21c-1.9,0-3.5,1.6-3.5,3.5v3.9c-8-5.8-17.6-9.1-28.1-9.1c-27.1,0-49.1,22.8-49.1,50.9
	c0,28.1,22,50.9,49.1,50.9c10.4,0,20.1-3.4,28.1-9.1v3.9c0,1.9,1.6,3.5,3.5,3.5h21c1.9,0,3.5-1.6,3.5-3.5V31.9
	C311.4,30,309.8,28.4,307.9,28.4z M258.8,103.8c-13.6,0-24.6-11.8-24.6-26.3c0-14.5,11-26.3,24.6-26.3s24.6,11.8,24.6,26.3
	C283.3,92.1,272.3,103.8,258.8,103.8z M666.3,126.7c1.9,0,3.5-1.6,3.5-3.5V67.6c0-8.5,6.5-16,15-16.4c3-0.1,5.8,0.5,8.2,1.8
	c1.5,0.8,3.3,0.4,4.4-0.9l12.4-15.6c1.4-1.7,0.8-4.2-1.1-5.3c-5.3-2.9-11.4-4.6-17.8-4.6c-7.8,0-15,2.4-21,6.5v-1.3
	c0-1.9-1.6-3.5-3.5-3.5h-21c-1.9,0-3.5,1.6-3.5,3.5v91.2c0,1.9,1.6,3.5,3.5,3.5L666.3,126.7L666.3,126.7z M579.8,26.7
	c-30,0-54.4,22.8-54.4,50.9c0,28.1,24.3,50.9,54.4,50.9c30,0,54.4-22.8,54.4-50.9C634.2,49.4,609.9,26.7,579.8,26.7z M579.8,103.8
	c-14.5,0-26.3-11.8-26.3-26.3c0-14.5,11.8-26.3,26.3-26.3c14.5,0,26.3,11.8,26.3,26.3C606.1,92.1,594.4,103.8,579.8,103.8z
	 M498.2,128.4c10.7,0,20.7-2.9,29.1-7.9c1.8-1.1,2.2-3.5,0.9-5.2l-11.6-14.6c-1.1-1.4-3.1-1.7-4.7-0.8c-4.8,3-10.6,4.4-16.8,3.7
	c-12-1.4-21.7-11.1-23-23.2c-1.7-15.8,10.6-29.3,26.2-29.3c5,0,9.7,1.4,13.7,3.9c1.5,1,3.5,0.7,4.7-0.8l11.6-14.6
	c1.3-1.7,0.9-4.1-0.9-5.2c-8.4-5-18.4-7.9-29.1-7.9c-30,0-54.4,22.8-54.4,50.9C443.8,105.6,468.2,128.4,498.2,128.4z M371.6,26.7
	c-7,0.7-13.5,3.3-19,7.2v-2.1c0-1.9-1.6-3.5-3.5-3.5h-21c-1.9,0-3.5,1.6-3.5,3.5V123c0,1.9,1.6,3.5,3.5,3.5h21
	c1.9,0,3.5-1.6,3.5-3.5V68.6c0-9.7,7.9-17.5,17.5-17.5h1.8c1.9,0,3.5-1.6,3.5-3.5V30.2C375.4,28.1,373.7,26.5,371.6,26.7z
	 M151.8,26.7c-27.1,0-49.1,22.8-49.1,50.9c0,28.1,22,50.9,49.1,50.9c19,0,35.8-9.1,45.5-23c1.2-1.7,0.6-4.1-1.3-5.1L178,91.1
	c-1.6-0.8-3.5-0.3-4.5,1.2c-4.7,7-12.7,11.5-21.8,11.5c-6.8,0-12.7-4-16.6-10.2l62.9-13.8c1.6-0.4,2.8-1.8,2.8-3.5
	C200.3,48.8,178.5,26.7,151.8,26.7z M131,73c1.7-12.4,10.3-21.8,20.7-21.8c7.8,0,14.7,5.4,18.3,13.3L131,73z M750.9,26.6
	c-27.1,0-49.1,22.8-49.1,50.9c0,28.1,22,50.9,49.1,50.9c19,0,35.8-9.1,45.5-23c1.2-1.7,0.6-4.1-1.3-5.1l-17.9-9.2
	c-1.6-0.8-3.5-0.3-4.5,1.2c-4.7,7-12.7,11.5-21.8,11.5c-6.7,0-12.7-4-16.6-10.2l62.9-13.8c1.7-0.4,2.8-1.8,2.8-3.5
	C799.4,48.8,777.6,26.6,750.9,26.6z M730.2,73c1.7-12.4,10.3-21.8,20.7-21.8c7.8,0,14.7,5.4,18.3,13.3L730.2,73z M3.5,126.7h21
	c1.9,0,3.5-1.6,3.5-3.5V72.9c0-10.6,8.3-19.7,18.9-19.9c10.8-0.2,19.7,8.5,19.7,19.3v50.9c0,1.9,1.6,3.5,3.5,3.5h21
	c1.9,0,3.5-1.6,3.5-3.5V73.3c0-24.3-19.3-44.7-43.7-44.8c-8.4,0-16.3,2.3-23,6.4v-31c0-2.2-2.1-3.9-4.3-3.4L2.8,5
	C1.2,5.4,0,6.8,0,8.5v114.7C0,125.1,1.6,126.7,3.5,126.7z M448.4,119.3l-11.6-14.7c-0.9-1.2-2.5-1.7-3.8-1.2
	c-0.7,0.3-1.5,0.4-2.4,0.4c-3.9,0-7-3.5-7-7.4V51.2h15.1c1.9,0,3.5-1.6,3.5-3.5V30.2c0-1.9-1.6-3.5-3.5-3.5h-15.1V3.8
	c0-2.2-2.1-3.9-4.3-3.4l-21,4.6c-1.6,0.3-2.8,1.8-2.8,3.4v18.2h-7c-1.9,0-3.5,1.6-3.5,3.5v17.5c0,1.9,1.6,3.5,3.5,3.5h7v45.6
	c0,17.4,15.7,31.6,35.1,31.6c6,0,11.6-1.4,16.5-3.8C449.1,123.7,449.8,121.1,448.4,119.3z M498.2,91.6c7.8,0,14-6.3,14-14
	s-6.3-14-14-14s-14,6.3-14,14S490.4,91.6,498.2,91.6z M333.5,162.8h-9.3l-24.4,54.1h9.7l5.5-12.8h27.5l5.5,12.8h10L333.5,162.8z
	 M318.3,196.6l10.5-24.4l10.5,24.4H318.3z M271.3,200.1l-30.4-37.4h-7.8v54.1h9.4v-37.4l30.4,37.4h7.8v-54.1h-9.4V200.1z
	 M207.9,162.8h-9.4v54.1h9.4V162.8z M138.8,216.9h9.4v-21h26.5v-8.1h-26.5v-16.9H178v-8.1h-39.2V216.9z M415.3,200.1l-30.4-37.4
	h-7.8v54.1h9.4v-37.4l30.4,37.4h7.8v-54.1h-9.4L415.3,200.1L415.3,200.1z M579.6,162.8h-9.3l-24.4,54.1h9.7l5.5-12.8h27.5l5.5,12.8
	h10L579.6,162.8z M564.4,196.6l10.5-24.4l10.5,24.4H564.4z M632.6,208.8v-46h-9.4v54.1h38v-8.1L632.6,208.8L632.6,208.8z
	 M526.9,162.8h-9.4v54.1h9.4V162.8z M462.4,175.9c1.8-1.7,3.9-3.1,6.3-4c2.4-0.9,5.1-1.4,8-1.4c2.8,0,5.5,0.5,7.9,1.6
	c2.5,1.1,4.7,2.6,6.7,4.8l6.1-5.8c-2.5-2.9-5.5-5.2-9.2-6.7s-7.7-2.3-12-2.3c-4.1,0-8,0.7-11.5,2.1c-3.5,1.4-6.6,3.3-9.2,5.8
	s-4.6,5.4-6.1,8.9c-1.4,3.4-2.2,7.1-2.2,11.1c0,4,0.7,7.7,2.2,11.1c1.4,3.4,3.5,6.4,6.1,8.9c2.6,2.5,5.7,4.4,9.2,5.8
	c3.5,1.4,7.3,2.1,11.5,2.1c4.4,0,8.4-0.8,12.1-2.3c3.7-1.5,6.7-3.8,9.2-6.6l-6.1-5.9c-2,2.2-4.2,3.8-6.7,4.8
	c-2.5,1.1-5.1,1.6-7.9,1.6c-2.9,0-5.5-0.5-8-1.4c-2.4-0.9-4.5-2.3-6.3-4c-1.8-1.7-3.1-3.8-4.1-6.1c-1-2.4-1.4-5-1.4-7.8
	s0.5-5.4,1.4-7.8C459.2,179.6,460.6,177.6,462.4,175.9L462.4,175.9z"/>
<radialGradient id="SVGID_00000075885186763005257430000011959153887855169980_" cx="400" cy="108.9986" r="293.0902" gradientUnits="userSpaceOnUse">
	<stop  offset="0" style="stop-color:#64577D"/>
	<stop  offset="1" style="stop-color:#64577D;stop-opacity:0"/>
</radialGradient>
<path style="fill:url(#SVGID_00000075885186763005257430000011959153887855169980_);" d="M307.9,28.4h-21c-1.9,0-3.5,1.6-3.5,3.5
	v3.9c-8-5.8-17.6-9.1-28.1-9.1c-27.1,0-49.1,22.8-49.1,50.9c0,28.1,22,50.9,49.1,50.9c10.4,0,20.1-3.4,28.1-9.1v3.9
	c0,1.9,1.6,3.5,3.5,3.5h21c1.9,0,3.5-1.6,3.5-3.5V31.9C311.4,30,309.8,28.4,307.9,28.4z M258.8,103.8c-13.6,0-24.6-11.8-24.6-26.3
	c0-14.5,11-26.3,24.6-26.3s24.6,11.8,24.6,26.3C283.3,92.1,272.3,103.8,258.8,103.8z M666.3,126.7c1.9,0,3.5-1.6,3.5-3.5V67.6
	c0-8.5,6.5-16,15-16.4c3-0.1,5.8,0.5,8.2,1.8c1.5,0.8,3.3,0.4,4.4-0.9l12.4-15.6c1.4-1.7,0.8-4.2-1.1-5.3
	c-5.3-2.9-11.4-4.6-17.8-4.6c-7.8,0-15,2.4-21,6.5v-1.3c0-1.9-1.6-3.5-3.5-3.5h-21c-1.9,0-3.5,1.6-3.5,3.5v91.2
	c0,1.9,1.6,3.5,3.5,3.5L666.3,126.7L666.3,126.7z M579.8,26.7c-30,0-54.4,22.8-54.4,50.9c0,28.1,24.3,50.9,54.4,50.9
	c30,0,54.4-22.8,54.4-50.9C634.2,49.4,609.9,26.7,579.8,26.7z M579.8,103.8c-14.5,0-26.3-11.8-26.3-26.3c0-14.5,11.8-26.3,26.3-26.3
	c14.5,0,26.3,11.8,26.3,26.3C606.1,92.1,594.4,103.8,579.8,103.8z M498.2,128.4c10.7,0,20.7-2.9,29.1-7.9c1.8-1.1,2.2-3.5,0.9-5.2
	l-11.6-14.6c-1.1-1.4-3.1-1.7-4.7-0.8c-4.8,3-10.6,4.4-16.8,3.7c-12-1.4-21.7-11.1-23-23.2c-1.7-15.8,10.6-29.3,26.2-29.3
	c5,0,9.7,1.4,13.7,3.9c1.5,1,3.5,0.7,4.7-0.8l11.6-14.6c1.3-1.7,0.9-4.1-0.9-5.2c-8.4-5-18.4-7.9-29.1-7.9
	c-30,0-54.4,22.8-54.4,50.9C443.8,105.6,468.2,128.4,498.2,128.4z M371.6,26.7c-7,0.7-13.5,3.3-19,7.2v-2.1c0-1.9-1.6-3.5-3.5-3.5
	h-21c-1.9,0-3.5,1.6-3.5,3.5V123c0,1.9,1.6,3.5,3.5,3.5h21c1.9,0,3.5-1.6,3.5-3.5V68.6c0-9.7,7.9-17.5,17.5-17.5h1.8
	c1.9,0,3.5-1.6,3.5-3.5V30.2C375.4,28.1,373.7,26.5,371.6,26.7z M151.8,26.7c-27.1,0-49.1,22.8-49.1,50.9c0,28.1,22,50.9,49.1,50.9
	c19,0,35.8-9.1,45.5-23c1.2-1.7,0.6-4.1-1.3-5.1L178,91.1c-1.6-0.8-3.5-0.3-4.5,1.2c-4.7,7-12.7,11.5-21.8,11.5
	c-6.8,0-12.7-4-16.6-10.2l62.9-13.8c1.6-0.4,2.8-1.8,2.8-3.5C200.3,48.8,178.5,26.7,151.8,26.7z M131,73
	c1.7-12.4,10.3-21.8,20.7-21.8c7.8,0,14.7,5.4,18.3,13.3L131,73z M750.9,26.6c-27.1,0-49.1,22.8-49.1,50.9c0,28.1,22,50.9,49.1,50.9
	c19,0,35.8-9.1,45.5-23c1.2-1.7,0.6-4.1-1.3-5.1l-17.9-9.2c-1.6-0.8-3.5-0.3-4.5,1.2c-4.7,7-12.7,11.5-21.8,11.5
	c-6.7,0-12.7-4-16.6-10.2l62.9-13.8c1.7-0.4,2.8-1.8,2.8-3.5C799.4,48.8,777.6,26.6,750.9,26.6z M730.2,73
	c1.7-12.4,10.3-21.8,20.7-21.8c7.8,0,14.7,5.4,18.3,13.3L730.2,73z M3.5,126.7h21c1.9,0,3.5-1.6,3.5-3.5V72.9
	c0-10.6,8.3-19.7,18.9-19.9c10.8-0.2,19.7,8.5,19.7,19.3v50.9c0,1.9,1.6,3.5,3.5,3.5h21c1.9,0,3.5-1.6,3.5-3.5V73.3
	c0-24.3-19.3-44.7-43.7-44.8c-8.4,0-16.3,2.3-23,6.4v-31c0-2.2-2.1-3.9-4.3-3.4L2.8,5C1.2,5.4,0,6.8,0,8.5v114.7
	C0,125.1,1.6,126.7,3.5,126.7z M448.4,119.3l-11.6-14.7c-0.9-1.2-2.5-1.7-3.8-1.2c-0.7,0.3-1.5,0.4-2.4,0.4c-3.9,0-7-3.5-7-7.4V51.2
	h15.1c1.9,0,3.5-1.6,3.5-3.5V30.2c0-1.9-1.6-3.5-3.5-3.5h-15.1V3.8c0-2.2-2.1-3.9-4.3-3.4l-21,4.6c-1.6,0.3-2.8,1.8-2.8,3.4v18.2h-7
	c-1.9,0-3.5,1.6-3.5,3.5v17.5c0,1.9,1.6,3.5,3.5,3.5h7v45.6c0,17.4,15.7,31.6,35.1,31.6c6,0,11.6-1.4,16.5-3.8
	C449.1,123.7,449.8,121.1,448.4,119.3z M498.2,91.6c7.8,0,14-6.3,14-14s-6.3-14-14-14s-14,6.3-14,14S490.4,91.6,498.2,91.6z
	 M333.5,162.8h-9.3l-24.4,54.1h9.7l5.5-12.8h27.5l5.5,12.8h10L333.5,162.8z M318.3,196.6l10.5-24.4l10.5,24.4H318.3z M271.3,200.1
	l-30.4-37.4h-7.8v54.1h9.4v-37.4l30.4,37.4h7.8v-54.1h-9.4V200.1z M207.9,162.8h-9.4v54.1h9.4V162.8z M138.8,216.9h9.4v-21h26.5
	v-8.1h-26.5v-16.9H178v-8.1h-39.2V216.9z M415.3,200.1l-30.4-37.4h-7.8v54.1h9.4v-37.4l30.4,37.4h7.8v-54.1h-9.4L415.3,200.1
	L415.3,200.1z M579.6,162.8h-9.3l-24.4,54.1h9.7l5.5-12.8h27.5l5.5,12.8h10L579.6,162.8z M564.4,196.6l10.5-24.4l10.5,24.4H564.4z
	 M632.6,208.8v-46h-9.4v54.1h38v-8.1L632.6,208.8L632.6,208.8z M526.9,162.8h-9.4v54.1h9.4V162.8z M462.4,175.9
	c1.8-1.7,3.9-3.1,6.3-4c2.4-0.9,5.1-1.4,8-1.4c2.8,0,5.5,0.5,7.9,1.6c2.5,1.1,4.7,2.6,6.7,4.8l6.1-5.8c-2.5-2.9-5.5-5.2-9.2-6.7
	s-7.7-2.3-12-2.3c-4.1,0-8,0.7-11.5,2.1c-3.5,1.4-6.6,3.3-9.2,5.8s-4.6,5.4-6.1,8.9c-1.4,3.4-2.2,7.1-2.2,11.1c0,4,0.7,7.7,2.2,11.1
	c1.4,3.4,3.5,6.4,6.1,8.9c2.6,2.5,5.7,4.4,9.2,5.8c3.5,1.4,7.3,2.1,11.5,2.1c4.4,0,8.4-0.8,12.1-2.3c3.7-1.5,6.7-3.8,9.2-6.6
	l-6.1-5.9c-2,2.2-4.2,3.8-6.7,4.8c-2.5,1.1-5.1,1.6-7.9,1.6c-2.9,0-5.5-0.5-8-1.4c-2.4-0.9-4.5-2.3-6.3-4c-1.8-1.7-3.1-3.8-4.1-6.1
	c-1-2.4-1.4-5-1.4-7.8s0.5-5.4,1.4-7.8C459.2,179.6,460.6,177.6,462.4,175.9L462.4,175.9z"/>
</svg>
