<svg width="118" height="32" viewBox="0 0 118 32" fill="none" xmlns="http://www.w3.org/2000/svg">
<g clip-path="url(#clip0_2072_382)">
<path d="M48.7858 23.9145L45.1984 31.886H46.6333L47.4453 30.0071H51.4955L52.3045 31.886H53.7735L50.1636 23.9145H48.7858ZM47.9228 28.9023L49.4742 25.3125L51.0198 28.9023H47.9228Z" fill="#BFBFBF"/>
<path d="M41.0063 29.4155L36.5309 23.9145H35.3807V31.886H36.77V26.3721L41.2457 31.886H42.3959V23.9145H41.0063V29.4155Z" fill="#BFBFBF"/>
<path d="M31.6637 23.9145H30.2744V31.886H31.6637V23.9145Z" fill="#BFBFBF"/>
<path d="M21.4863 31.886H22.8756V28.7999H26.7705V27.6039H22.8756V25.11H27.2601V23.9145H21.4863V31.886Z" fill="#BFBFBF"/>
<path d="M62.2017 29.4155L57.7263 23.9145H56.5761V31.886H57.9654V26.3721L62.441 31.886H63.5913V23.9145H62.2017V29.4155Z" fill="#BFBFBF"/>
<path d="M85.0302 23.9145L81.4428 31.886H82.8777L83.6897 30.0071H87.7399L88.5488 31.886H90.0179L86.408 23.9145H85.0302ZM84.1672 28.9023L85.7185 25.3125L87.2642 28.9023H84.1672Z" fill="#BFBFBF"/>
<path d="M94.2098 30.69V23.9145H92.8205V31.886H98.4236V30.69H94.2098Z" fill="#BFBFBF"/>
<path d="M78.6344 23.9145H77.2451V31.886H78.6344V23.9145Z" fill="#BFBFBF"/>
<path d="M69.1426 25.8445C69.4045 25.5904 69.7137 25.393 70.0706 25.2523C70.4274 25.1122 70.8182 25.0416 71.2437 25.0416C71.6613 25.0416 72.0502 25.1194 72.4108 25.2751C72.7714 25.4308 73.1 25.6644 73.3961 25.9757L74.2955 25.1217C73.9313 24.6885 73.4795 24.3605 72.9404 24.1364C72.4013 23.9123 71.813 23.8005 71.1752 23.8005C70.5677 23.8005 70.0042 23.9012 69.4843 24.1025C68.964 24.3038 68.5123 24.5885 68.1288 24.9566C67.7454 25.3247 67.4474 25.759 67.235 26.2605C67.0223 26.7615 66.9161 27.3081 66.9161 27.9003C66.9161 28.4925 67.0223 29.0391 67.235 29.5402C67.4474 30.0412 67.7454 30.476 68.1288 30.8441C68.5123 31.2122 68.9621 31.4969 69.4784 31.6981C69.9947 31.8989 70.5563 32.0001 71.1638 32.0001C71.8091 32.0001 72.4013 31.8861 72.9404 31.6581C73.4795 31.4307 73.9313 31.1043 74.2955 30.6789L73.3961 29.8131C73.1 30.1323 72.7713 30.3697 72.4108 30.5249C72.0501 30.6806 71.6612 30.7585 71.2437 30.7585C70.8183 30.7585 70.4274 30.6884 70.0706 30.5477C69.7137 30.4075 69.4045 30.2102 69.1426 29.9555C68.8807 29.7013 68.6794 29.3995 68.539 29.0502C68.3983 28.701 68.3282 28.3179 68.3282 27.9003C68.3282 27.4828 68.3983 27.099 68.539 26.7499C68.6794 26.4006 68.8806 26.0993 69.1426 25.8446V25.8445Z" fill="#BFBFBF"/>
<path d="M45.3367 4.1332H42.2366C41.9512 4.1332 41.72 4.36453 41.72 4.64984V5.21996C40.5482 4.37306 39.1239 3.87484 37.5866 3.87484C33.5916 3.87484 30.3531 7.22904 30.3531 11.3666C30.3531 15.5042 33.5916 18.8584 37.5866 18.8584C39.1239 18.8584 40.5481 18.3602 41.72 17.5133V18.0834C41.72 18.3688 41.9513 18.6 42.2366 18.6H45.3367C45.6221 18.6 45.8533 18.3687 45.8533 18.0834V4.64984C45.8533 4.36445 45.622 4.1332 45.3367 4.1332ZM38.1032 15.2418C36.1058 15.2418 34.4865 13.5068 34.4865 11.3667C34.4865 9.22656 36.1058 7.49163 38.1032 7.49163C40.1006 7.49163 41.7199 9.22656 41.7199 11.3667C41.7199 13.5068 40.1006 15.2418 38.1032 15.2418Z" fill="url(#paint0_linear_2072_382)"/>
<path d="M98.1112 18.6001C98.3966 18.6001 98.6278 18.3688 98.6278 18.0835V9.90359C98.6278 8.64655 99.5882 7.55181 100.844 7.49418C101.28 7.47417 101.69 7.57509 102.045 7.76537C102.264 7.88223 102.534 7.82324 102.688 7.62929L104.515 5.32479C104.716 5.07161 104.636 4.70077 104.353 4.54597C103.568 4.11741 102.675 3.87484 101.728 3.87484C100.584 3.87484 99.5194 4.22949 98.6277 4.83757V4.64984C98.6277 4.36445 98.3964 4.1332 98.1111 4.1332H95.011C94.7257 4.1332 94.4944 4.36453 94.4944 4.64984V18.0835C94.4944 18.3688 94.7257 18.6001 95.011 18.6001H98.1112Z" fill="url(#paint1_linear_2072_382)"/>
<path d="M85.3808 3.87484C80.9579 3.87484 77.3723 7.22904 77.3723 11.3666C77.3723 15.5042 80.9579 18.8584 85.3808 18.8584C89.8038 18.8584 93.3893 15.5042 93.3893 11.3666C93.3893 7.22904 89.8038 3.87484 85.3808 3.87484ZM85.3808 15.2418C83.2407 15.2418 81.5057 13.5068 81.5057 11.3667C81.5057 9.22656 83.2407 7.49163 85.3808 7.49163C87.5209 7.49163 89.2559 9.22656 89.2559 11.3667C89.2559 13.5068 87.5209 15.2418 85.3808 15.2418Z" fill="url(#paint2_linear_2072_382)"/>
<path d="M73.3601 18.8585C74.934 18.8585 76.4015 18.4334 77.6394 17.6998C77.9074 17.541 77.97 17.179 77.7763 16.9349L76.0682 14.7811C75.9028 14.5726 75.61 14.5297 75.3833 14.6692C74.6751 15.105 73.8172 15.3206 72.9029 15.2153C71.1303 15.0111 69.7013 13.5744 69.5086 11.8005C69.255 9.46595 71.0769 7.49155 73.3601 7.49155C74.1022 7.49155 74.7946 7.70168 75.3833 8.06399C75.61 8.20341 75.9028 8.1606 76.0681 7.95206L77.7763 5.79822C77.9699 5.55413 77.9073 5.19222 77.6393 5.03343C76.4014 4.2998 74.9339 3.87476 73.3601 3.87476C68.9371 3.87476 65.3516 7.22896 65.3516 11.3665C65.3516 15.5041 68.9371 18.8583 73.3601 18.8583L73.3601 18.8585Z" fill="url(#paint3_linear_2072_382)"/>
<path d="M54.7244 3.87739C53.6919 3.9811 52.7366 4.35887 51.926 4.93984V4.62265C51.926 4.33727 51.6947 4.10602 51.4094 4.10602H48.3093C48.0239 4.10602 47.7927 4.33735 47.7927 4.62265V18.0563C47.7927 18.3417 48.024 18.5729 48.3093 18.5729H51.4094C51.6947 18.5729 51.926 18.3416 51.926 18.0563V10.0478C51.926 8.62104 53.0826 7.46444 54.5094 7.46444H54.7677C55.0531 7.46444 55.2844 7.23311 55.2844 6.9478V4.39363C55.2844 4.09135 55.0252 3.84734 54.7244 3.87755V3.87739Z" fill="url(#paint4_linear_2072_382)"/>
<path d="M28.8532 14.7242L26.2167 13.3634C25.9818 13.2422 25.6997 13.3244 25.5511 13.543C24.8542 14.5678 23.6807 15.2418 22.3479 15.2418C21.3542 15.2418 20.472 14.655 19.9046 13.7461L29.1722 11.7189C29.4158 11.6656 29.5849 11.4458 29.5796 11.1965C29.4922 7.13745 26.288 3.87484 22.3479 3.87484C18.353 3.87484 15.1144 7.22904 15.1144 11.3666C15.1144 15.5042 18.353 18.8584 22.3479 18.8584C25.1483 18.8584 27.612 17.5133 29.0434 15.4765C29.2222 15.2221 29.1296 14.8668 28.8532 14.7242V14.7242ZM22.3479 7.49163C23.5016 7.49163 24.5059 8.28097 25.0398 9.44953L19.2962 10.7059C19.5475 8.88123 20.8164 7.49163 22.3479 7.49163Z" fill="url(#paint5_linear_2072_382)"/>
<path d="M110.57 18.8585C113.371 18.8585 115.835 17.5133 117.266 15.4766C117.445 15.2222 117.352 14.8669 117.076 14.7242L114.439 13.3634C114.204 13.2422 113.922 13.3244 113.774 13.543C113.077 14.5678 111.903 15.2418 110.57 15.2418C109.577 15.2418 108.694 14.655 108.127 13.7461L117.395 11.7189C117.638 11.6656 117.807 11.4458 117.802 11.1965C117.715 7.13745 114.51 3.87484 110.57 3.87484C106.575 3.87484 103.337 7.22904 103.337 11.3666C103.337 15.5042 106.575 18.8584 110.57 18.8584V18.8585ZM110.57 7.49155C111.724 7.49155 112.728 8.28089 113.262 9.44945L107.519 10.7058C107.77 8.88115 109.039 7.49155 110.57 7.49155Z" fill="url(#paint6_linear_2072_382)"/>
<path d="M0.516638 18.6001H3.61671C3.90209 18.6001 4.13334 18.3688 4.13334 18.0835V10.6859C4.13334 9.12127 5.35746 7.7791 6.92188 7.75048C8.51572 7.7213 9.81684 9.00457 9.81684 10.5917V18.0835C9.81684 18.3689 10.0482 18.6001 10.3335 18.6001H13.4335C13.7189 18.6001 13.9502 18.3688 13.9502 18.0835V10.7358C13.9502 7.15668 11.1005 4.1494 7.52143 4.1333C6.28009 4.12772 5.11983 4.47257 4.13334 5.07426V0.516669C4.13334 0.186805 3.82851 -0.05856 3.5063 0.0119088L0.406232 0.690051C0.168998 0.741946 0 0.951997 0 1.19481V18.0835C0 18.3689 0.231335 18.6001 0.516638 18.6001Z" fill="url(#paint7_linear_2072_382)"/>
<path d="M66.0232 17.5154L64.3109 15.3564C64.1767 15.1872 63.9488 15.1058 63.746 15.1801C63.6368 15.2202 63.519 15.2422 63.3954 15.2417C62.8173 15.2389 62.367 14.7305 62.367 14.1524V7.49155H64.5846C64.8699 7.49155 65.1012 7.26021 65.1012 6.97491V4.39156C65.1012 4.10617 64.8699 3.87492 64.5846 3.87492H62.367V0.516651C62.367 0.186787 62.0622 -0.058578 61.7399 0.0118907L58.6398 0.690033C58.4027 0.741928 58.2336 0.951979 58.2336 1.19479V3.87484H57.2002C56.9149 3.87484 56.6836 4.10617 56.6836 4.39148V6.97483C56.6836 7.26021 56.9149 7.49147 57.2002 7.49147H58.2336V14.2082C58.2336 16.7764 60.5469 18.8583 63.4004 18.8583C64.2814 18.8583 65.1092 18.6577 65.8342 18.3068C66.1359 18.1608 66.2315 17.7779 66.0232 17.5153V17.5154Z" fill="url(#paint8_linear_2072_382)"/>
<path d="M73.3601 13.4334C74.5015 13.4334 75.4268 12.5081 75.4268 11.3667C75.4268 10.2253 74.5015 9.29998 73.3601 9.29998C72.2187 9.29998 71.2934 10.2253 71.2934 11.3667C71.2934 12.5081 72.2187 13.4334 73.3601 13.4334Z" fill="url(#paint9_linear_2072_382)"/>
</g>
<defs>
<linearGradient id="paint0_linear_2072_382" x1="59" y1="-4.53592e-06" x2="59" y2="19" gradientUnits="userSpaceOnUse">
<stop stop-color="white"/>
<stop offset="1" stop-color="#B3B3B3"/>
</linearGradient>
<linearGradient id="paint1_linear_2072_382" x1="59" y1="-4.53592e-06" x2="59" y2="19" gradientUnits="userSpaceOnUse">
<stop stop-color="white"/>
<stop offset="1" stop-color="#B3B3B3"/>
</linearGradient>
<linearGradient id="paint2_linear_2072_382" x1="59" y1="-4.53592e-06" x2="59" y2="19" gradientUnits="userSpaceOnUse">
<stop stop-color="white"/>
<stop offset="1" stop-color="#B3B3B3"/>
</linearGradient>
<linearGradient id="paint3_linear_2072_382" x1="59" y1="-4.53592e-06" x2="59" y2="19" gradientUnits="userSpaceOnUse">
<stop stop-color="white"/>
<stop offset="1" stop-color="#B3B3B3"/>
</linearGradient>
<linearGradient id="paint4_linear_2072_382" x1="59" y1="-4.53592e-06" x2="59" y2="19" gradientUnits="userSpaceOnUse">
<stop stop-color="white"/>
<stop offset="1" stop-color="#B3B3B3"/>
</linearGradient>
<linearGradient id="paint5_linear_2072_382" x1="59" y1="-4.53592e-06" x2="59" y2="19" gradientUnits="userSpaceOnUse">
<stop stop-color="white"/>
<stop offset="1" stop-color="#B3B3B3"/>
</linearGradient>
<linearGradient id="paint6_linear_2072_382" x1="59" y1="-4.53592e-06" x2="59" y2="19" gradientUnits="userSpaceOnUse">
<stop stop-color="white"/>
<stop offset="1" stop-color="#B3B3B3"/>
</linearGradient>
<linearGradient id="paint7_linear_2072_382" x1="59" y1="-4.53592e-06" x2="59" y2="19" gradientUnits="userSpaceOnUse">
<stop stop-color="white"/>
<stop offset="1" stop-color="#B3B3B3"/>
</linearGradient>
<linearGradient id="paint8_linear_2072_382" x1="59" y1="-4.53592e-06" x2="59" y2="19" gradientUnits="userSpaceOnUse">
<stop stop-color="white"/>
<stop offset="1" stop-color="#B3B3B3"/>
</linearGradient>
<linearGradient id="paint9_linear_2072_382" x1="59" y1="-4.53592e-06" x2="59" y2="19" gradientUnits="userSpaceOnUse">
<stop stop-color="white"/>
<stop offset="1" stop-color="#B3B3B3"/>
</linearGradient>
<clipPath id="clip0_2072_382">
<rect width="117.802" height="32" fill="white"/>
</clipPath>
</defs>
</svg>
