<?xml version="1.0" encoding="utf-8"?>
<!-- Generator: Adobe Illustrator 27.9.0, SVG Export Plug-In . SVG Version: 6.00 Build 0)  -->
<svg version="1.1" id="Layer_1" xmlns="http://www.w3.org/2000/svg" xmlns:xlink="http://www.w3.org/1999/xlink" x="0px" y="0px"
	 width="800px" height="240px" viewBox="0 0 800 240" style="enable-background:new 0 0 800 240;" xml:space="preserve">
<style type="text/css">
	.st0{fill:url(#SVGID_1_);}
	.st1{fill:url(#SVGID_00000163047829675851907590000002067708722867250062_);}
	.st2{fill:url(#SVGID_00000091726856084565595690000004837458005698500748_);}
	.st3{fill:url(#SVGID_00000168114435635104585480000001012993003218577577_);}
	.st4{fill:url(#SVGID_00000036941810314744999200000002273869498130369691_);}
	.st5{fill:url(#SVGID_00000182495271254248361520000015550959304569900949_);}
	.st6{fill:url(#SVGID_00000103971263724328942940000015838467630297553310_);}
	.st7{fill:url(#SVGID_00000105392908699931076780000001446712822020678333_);}
	.st8{fill:url(#SVGID_00000046321437043700553030000003574111425160447160_);}
	.st9{fill:url(#SVGID_00000023269591046733629360000015935362791474565777_);}
	.st10{fill:url(#SVGID_00000000917129305141306700000016531236592870207927_);}
	.st11{fill:url(#SVGID_00000171718128781669532330000000855148847905279421_);}
	.st12{fill:url(#SVGID_00000077297525726672773460000007184900254887164344_);}
	.st13{fill:url(#SVGID_00000023998741091756518300000015970465083954199718_);}
	.st14{fill:url(#SVGID_00000125569488430364900600000010798441279803448760_);}
	.st15{fill:url(#SVGID_00000041277667129535216800000010192024426486204302_);}
	.st16{fill:url(#SVGID_00000098936380135176605390000007004865551986752956_);}
	.st17{fill:url(#SVGID_00000156573726879743652420000009908715826914010291_);}
	.st18{fill:url(#SVGID_00000127042291717673942320000013927918533184551072_);}
	.st19{fill:url(#SVGID_00000178924882159890822380000018339224856327696777_);}
	.st20{fill:url(#SVGID_00000030472945287540437910000014399040822720280254_);}
	.st21{fill:url(#SVGID_00000093883271230020654960000012345624052213031561_);}
	.st22{fill:url(#SVGID_00000119837171725746920570000004635411883335135398_);}
	.st23{fill:url(#SVGID_00000183957295087237028480000008477290495660090520_);}
	.st24{fill:url(#SVGID_00000170990822520084286820000013869985715205825195_);}
	.st25{fill:url(#SVGID_00000152256828204217303380000013598103867159093165_);}
	.st26{fill:url(#SVGID_00000056396575382338149160000017589616023451847589_);}
	.st27{fill:url(#SVGID_00000015337753994681950930000013688956168533906850_);}
	.st28{fill:url(#SVGID_00000008117150767583629860000008956478513947124622_);}
	.st29{fill:url(#SVGID_00000063597206604086830170000016364900994550752180_);}
	.st30{fill:url(#SVGID_00000043430544552283124440000016453618416760559802_);}
	.st31{fill:url(#SVGID_00000052099507575511071720000005088621429392287668_);}
	.st32{fill:url(#SVGID_00000110433792749736590170000008059233612706563772_);}
	.st33{fill:url(#SVGID_00000148631505029884662610000002831210664230151082_);}
	.st34{fill:url(#SVGID_00000170243738884659047000000012222978150916812216_);}
	.st35{fill:url(#SVGID_00000169527768120574300050000002857574346286120073_);}
	.st36{fill:url(#SVGID_00000120556918421824902710000015089505786853361042_);}
	.st37{fill:url(#SVGID_00000162334659990349897100000010430803237618371473_);}
</style>
<g>
	<linearGradient id="SVGID_1_" gradientUnits="userSpaceOnUse" x1="29.6803" y1="78.6511" x2="840.0361" y2="78.6511">
		<stop  offset="0" style="stop-color:#2D3486"/>
		<stop  offset="0.459" style="stop-color:#402673"/>
		<stop  offset="1" style="stop-color:#150D26"/>
	</linearGradient>
	<path class="st0" d="M750,26.8c-27.6,0-50,23.2-50,51.8c0,28.6,22.4,51.8,50,51.8c19.4,0,36.4-9.3,46.3-23.4
		c1.2-1.8,0.6-4.2-1.3-5.2l-18.2-9.4c-1.6-0.8-3.6-0.3-4.6,1.2c-4.8,7.1-12.9,11.8-22.1,11.8c-6.9,0-13-4.1-16.9-10.4l64.1-14
		c1.7-0.4,2.9-1.9,2.8-3.6C799.4,49.4,777.3,26.8,750,26.8z M728.9,74.1c1.7-12.6,10.5-22.2,21.1-22.2c8,0,14.9,5.5,18.6,13.5
		L728.9,74.1z"/>
	
		<linearGradient id="SVGID_00000138530903358685687100000013796027331502152601_" gradientUnits="userSpaceOnUse" x1="1.1252" y1="77.7515" x2="858.93" y2="77.7515">
		<stop  offset="0" style="stop-color:#2D3486"/>
		<stop  offset="0.459" style="stop-color:#402673"/>
		<stop  offset="1" style="stop-color:#150D26"/>
	</linearGradient>
	<path style="fill:url(#SVGID_00000138530903358685687100000013796027331502152601_);" d="M708.3,31.5c-5.4-3-11.6-4.6-18.1-4.6
		c-7.9,0-15.3,2.4-21.4,6.7v-1.3c0-2-1.6-3.6-3.6-3.6h-21.4c-2,0-3.6,1.6-3.6,3.6v92.9c0,2,1.6,3.6,3.6,3.6h21.4
		c2,0,3.6-1.6,3.6-3.6V68.5c0-8.7,6.6-16.3,15.3-16.7c3-0.1,5.9,0.6,8.3,1.9c1.5,0.8,3.4,0.4,4.4-0.9l12.6-15.9
		C710.8,35.1,710.3,32.5,708.3,31.5z"/>
	
		<linearGradient id="SVGID_00000073720298571138238930000012311176848970615221_" gradientUnits="userSpaceOnUse" x1="3.0592" y1="78.6445" x2="836.5644" y2="78.6445">
		<stop  offset="0" style="stop-color:#2D3486"/>
		<stop  offset="0.459" style="stop-color:#402673"/>
		<stop  offset="1" style="stop-color:#150D26"/>
	</linearGradient>
	
		<ellipse style="fill:url(#SVGID_00000073720298571138238930000012311176848970615221_);" cx="578.6" cy="78.6" rx="13.4" ry="13.4"/>
	
		<linearGradient id="SVGID_00000173868569191587829740000001457079629617978285_" gradientUnits="userSpaceOnUse" x1="5.646484e-02" y1="78.6465" x2="837.91" y2="78.6465">
		<stop  offset="0" style="stop-color:#2D3486"/>
		<stop  offset="0.459" style="stop-color:#402673"/>
		<stop  offset="1" style="stop-color:#150D26"/>
	</linearGradient>
	<path style="fill:url(#SVGID_00000173868569191587829740000001457079629617978285_);" d="M578.6,26.8c-30.6,0-55.4,23.2-55.4,51.8
		s24.8,51.8,55.4,51.8c30.6,0,55.4-23.2,55.4-51.8C633.9,50,609.2,26.8,578.6,26.8z M578.6,105.5c-14.8,0-26.8-12-26.8-26.8
		s12-26.8,26.8-26.8c14.8,0,26.8,12,26.8,26.8C605.4,93.4,593.4,105.5,578.6,105.5z"/>
	
		<linearGradient id="SVGID_00000023239438555876791240000016639828161924185788_" gradientUnits="userSpaceOnUse" x1="46.0978" y1="78.632" x2="791.2584" y2="78.632">
		<stop  offset="0" style="stop-color:#2D3486"/>
		<stop  offset="0.459" style="stop-color:#402673"/>
		<stop  offset="1" style="stop-color:#150D26"/>
	</linearGradient>
	<path style="fill:url(#SVGID_00000023239438555876791240000016639828161924185788_);" d="M515.2,102.3c-1.1-1.5-3.2-1.7-4.7-0.8
		c-4.9,3-10.8,4.5-17.1,3.8c-12.2-1.4-22.1-11.4-23.5-23.6c-1.8-16.2,10.8-29.8,26.6-29.8c5.1,0,9.9,1.5,14,4c1.6,1,3.6,0.7,4.7-0.8
		L527,40.1c1.3-1.7,0.9-4.2-0.9-5.3c-8.6-5.1-18.7-8-29.6-8c-30.6,0-55.4,23.2-55.4,51.8c0,28.6,24.8,51.8,55.4,51.8
		c10.9,0,21-3,29.6-8c1.9-1.1,2.3-3.6,0.9-5.3L515.2,102.3z"/>
	
		<linearGradient id="SVGID_00000145748790341869076850000017725982075423617954_" gradientUnits="userSpaceOnUse" x1="110.5064" y1="65.2315" x2="718.027" y2="65.2315">
		<stop  offset="0" style="stop-color:#2D3486"/>
		<stop  offset="0.459" style="stop-color:#402673"/>
		<stop  offset="1" style="stop-color:#150D26"/>
	</linearGradient>
	<path style="fill:url(#SVGID_00000145748790341869076850000017725982075423617954_);" d="M436.7,106.2c-0.9-1.2-2.5-1.7-3.9-1.2
		c-0.8,0.3-1.6,0.4-2.4,0.4c-4,0-7.1-3.5-7.1-7.5V51.8h15.3c2,0,3.6-1.6,3.6-3.6V30.4c0-2-1.6-3.6-3.6-3.6h-15.3V3.6
		c0-2.3-2.1-4-4.3-3.5l-21.4,4.7c-1.6,0.4-2.8,1.8-2.8,3.5v18.5h-7.1c-2,0-3.6,1.6-3.6,3.6v17.9c0,2,1.6,3.6,3.6,3.6h7.1v46.5
		c0,17.8,16,32.2,35.7,32.2c6.1,0,11.8-1.4,16.8-3.8c2.1-1,2.8-3.6,1.3-5.5L436.7,106.2z"/>
	
		<linearGradient id="SVGID_00000098217960193767714200000007060774796466791605_" gradientUnits="userSpaceOnUse" x1="21.778" y1="77.6483" x2="813.6183" y2="77.6483">
		<stop  offset="0" style="stop-color:#2D3486"/>
		<stop  offset="0.459" style="stop-color:#402673"/>
		<stop  offset="1" style="stop-color:#150D26"/>
	</linearGradient>
	<path style="fill:url(#SVGID_00000098217960193767714200000007060774796466791605_);" d="M372.9,26.8c-7.1,0.7-13.7,3.3-19.3,7.3
		V32c0-2-1.6-3.6-3.6-3.6h-21.4c-2,0-3.6,1.6-3.6,3.6v92.9c0,2,1.6,3.6,3.6,3.6H350c2,0,3.6-1.6,3.6-3.6V69.5
		c0-9.9,8-17.9,17.9-17.9h1.8c2,0,3.6-1.6,3.6-3.6V30.4C376.8,28.3,375,26.6,372.9,26.8z"/>
	
		<linearGradient id="SVGID_00000044872237695453372550000007825431487846480804_" gradientUnits="userSpaceOnUse" x1="9.9222" y1="78.6465" x2="764.2344" y2="78.6465">
		<stop  offset="0" style="stop-color:#2D3486"/>
		<stop  offset="0.459" style="stop-color:#402673"/>
		<stop  offset="1" style="stop-color:#150D26"/>
	</linearGradient>
	<path style="fill:url(#SVGID_00000044872237695453372550000007825431487846480804_);" d="M308.9,28.6h-21.4c-2,0-3.6,1.6-3.6,3.6v4
		c-8.1-5.9-17.9-9.3-28.6-9.3c-27.6,0-50,23.2-50,51.8s22.4,51.8,50,51.8c10.6,0,20.5-3.5,28.6-9.3v4c0,2,1.6,3.6,3.6,3.6h21.4
		c2,0,3.6-1.6,3.6-3.6v-93C312.5,30.2,310.9,28.6,308.9,28.6z M258.9,105.5c-13.8,0-25-12-25-26.8s11.2-26.8,25-26.8s25,12,25,26.8
		C283.9,93.4,272.7,105.5,258.9,105.5z"/>
	
		<linearGradient id="SVGID_00000038381864555091898600000011275752085127129755_" gradientUnits="userSpaceOnUse" x1="-11.7849" y1="78.6611" x2="798.603" y2="78.6611">
		<stop  offset="0" style="stop-color:#2D3486"/>
		<stop  offset="0.459" style="stop-color:#402673"/>
		<stop  offset="1" style="stop-color:#150D26"/>
	</linearGradient>
	<path style="fill:url(#SVGID_00000038381864555091898600000011275752085127129755_);" d="M151.8,26.8c-27.6,0-50,23.2-50,51.8
		s22.4,51.8,50,51.8c19.4,0,36.4-9.3,46.3-23.4c1.2-1.8,0.6-4.2-1.3-5.2l-18.2-9.4c-1.6-0.8-3.6-0.3-4.6,1.2
		c-4.8,7.1-12.9,11.8-22.1,11.8c-6.9,0-13-4.1-16.9-10.4l64.1-14c1.7-0.4,2.9-1.9,2.8-3.6C201.2,49.4,179,26.8,151.8,26.8z
		 M130.7,74.1c1.7-12.6,10.5-22.2,21.1-22.2c8,0,14.9,5.5,18.6,13.5L130.7,74.1z"/>
	
		<linearGradient id="SVGID_00000170986352773417544910000010284375073622910352_" gradientUnits="userSpaceOnUse" x1="-0.9385" y1="64.3465" x2="635.5687" y2="64.3465">
		<stop  offset="0" style="stop-color:#2D3486"/>
		<stop  offset="0.459" style="stop-color:#402673"/>
		<stop  offset="1" style="stop-color:#150D26"/>
	</linearGradient>
	<path style="fill:url(#SVGID_00000170986352773417544910000010284375073622910352_);" d="M52,28.6c-8.6,0-16.6,2.3-23.4,6.5V3.6
		c0-2.3-2.1-4-4.3-3.5L2.8,4.8C1.2,5.1,0,6.6,0,8.3v116.8c0,2,1.6,3.6,3.6,3.6H25c2,0,3.6-1.6,3.6-3.6V73.9
		c0-10.8,8.5-20.1,19.3-20.3c11-0.2,20,8.7,20,19.7v51.8c0,2,1.6,3.6,3.6,3.6h21.4c2,0,3.6-1.6,3.6-3.6V74.3
		C96.4,49.5,76.7,28.7,52,28.6z"/>
	
		<linearGradient id="SVGID_00000052090973808952567800000009254975272468117396_" gradientUnits="userSpaceOnUse" x1="0.7494" y1="217.4905" x2="765.1354" y2="217.4905">
		<stop  offset="0" style="stop-color:#2D3486"/>
		<stop  offset="0.459" style="stop-color:#402673"/>
		<stop  offset="1" style="stop-color:#150D26"/>
	</linearGradient>
	<path style="fill:url(#SVGID_00000052090973808952567800000009254975272468117396_);" d="M473.9,206.4c1.4-1.4,3.1-2.4,4.9-3.2
		c1.9-0.8,4-1.1,6.3-1.1c2.3,0,4.4,0.4,6.4,1.3c2,0.8,3.7,2.1,5.3,3.8l5.2-4.9c-2-2.4-4.5-4.2-7.5-5.4c-3-1.2-6.2-1.9-9.8-1.9
		c-3.4,0-6.5,0.6-9.3,1.7c-2.8,1.1-5.3,2.7-7.4,4.7c-2.1,2-3.8,4.4-4.9,7.1c-1.2,2.8-1.7,5.8-1.7,9c0,3.3,0.6,6.3,1.7,9
		c1.2,2.8,2.8,5.2,4.9,7.2c2.1,2,4.6,3.6,7.4,4.7c2.9,1.1,6,1.6,9.3,1.6c3.6,0,6.9-0.6,9.9-1.9c3-1.2,5.5-3.1,7.5-5.4l-5.2-5
		c-1.6,1.8-3.4,3.1-5.3,3.9c-2,0.8-4.1,1.2-6.4,1.2c-2.3,0-4.4-0.4-6.3-1.1c-1.9-0.8-3.5-1.8-4.9-3.2c-1.4-1.4-2.5-3-3.2-4.9
		c-0.8-1.9-1.1-3.9-1.1-6.2c0-2.2,0.4-4.3,1.1-6.2C471.4,209.4,472.5,207.8,473.9,206.4z"/>
	
		<linearGradient id="SVGID_00000080185189776006986280000000426728665805546663_" gradientUnits="userSpaceOnUse" x1="-27.0061" y1="217.4905" x2="716.8557" y2="217.4905">
		<stop  offset="0" style="stop-color:#2D3486"/>
		<stop  offset="0.459" style="stop-color:#402673"/>
		<stop  offset="1" style="stop-color:#150D26"/>
	</linearGradient>
	<polygon style="fill:url(#SVGID_00000080185189776006986280000000426728665805546663_);" points="153.7,239.4 161.8,239.4 
		161.8,222.6 182.9,222.6 182.9,215.7 161.8,215.7 161.8,202.4 185.6,202.4 185.6,195.6 153.7,195.6 	"/>
	
		<linearGradient id="SVGID_00000149340139602700389760000001238304603304073376_" gradientUnits="userSpaceOnUse" x1="110.3788" y1="217.4905" x2="442.4496" y2="217.4905">
		<stop  offset="0" style="stop-color:#2D3486"/>
		<stop  offset="0.459" style="stop-color:#402673"/>
		<stop  offset="1" style="stop-color:#150D26"/>
	</linearGradient>
	
		<rect x="214.1" y="195.6" style="fill:url(#SVGID_00000149340139602700389760000001238304603304073376_);" width="8.1" height="43.8"/>
	
		<linearGradient id="SVGID_00000065755044553206882620000003558588278905629588_" gradientUnits="userSpaceOnUse" x1="21.2843" y1="217.4905" x2="671.5675" y2="217.4905">
		<stop  offset="0" style="stop-color:#2D3486"/>
		<stop  offset="0.459" style="stop-color:#402673"/>
		<stop  offset="1" style="stop-color:#150D26"/>
	</linearGradient>
	<polygon style="fill:url(#SVGID_00000065755044553206882620000003558588278905629588_);" points="285.4,225.2 261.3,195.6 
		254.6,195.6 254.6,239.4 262.7,239.4 262.7,209.7 286.8,239.4 293.5,239.4 293.5,195.6 285.4,195.6 	"/>
	
		<linearGradient id="SVGID_00000052076765070137590130000008404685499538658737_" gradientUnits="userSpaceOnUse" x1="-70.9857" y1="217.4905" x2="799.7142" y2="217.4905">
		<stop  offset="0" style="stop-color:#2D3486"/>
		<stop  offset="0.459" style="stop-color:#402673"/>
		<stop  offset="1" style="stop-color:#150D26"/>
	</linearGradient>
	<path style="fill:url(#SVGID_00000052076765070137590130000008404685499538658737_);" d="M339.3,195.6l-19.7,43.8h8.4l4.3-10.1
		h21.9l4.3,10.1h8.5l-19.7-43.8H339.3z M335.1,222.9l8.2-19.2l8.2,19.2H335.1z"/>
	
		<linearGradient id="SVGID_00000111172079944360549600000017818864599513647000_" gradientUnits="userSpaceOnUse" x1="56.3581" y1="217.4905" x2="706.6625" y2="217.4905">
		<stop  offset="0" style="stop-color:#2D3486"/>
		<stop  offset="0.459" style="stop-color:#402673"/>
		<stop  offset="1" style="stop-color:#150D26"/>
	</linearGradient>
	<polygon style="fill:url(#SVGID_00000111172079944360549600000017818864599513647000_);" points="424,225.2 399.9,195.6 
		393.2,195.6 393.2,239.4 401.3,239.4 401.3,209.7 425.4,239.4 432.1,239.4 432.1,195.6 424,195.6 	"/>
	
		<linearGradient id="SVGID_00000018226633188268207130000003412698550125771692_" gradientUnits="userSpaceOnUse" x1="306.0804" y1="217.4905" x2="638.1637" y2="217.4905">
		<stop  offset="0" style="stop-color:#2D3486"/>
		<stop  offset="0.459" style="stop-color:#402673"/>
		<stop  offset="1" style="stop-color:#150D26"/>
	</linearGradient>
	
		<rect x="530.4" y="195.6" style="fill:url(#SVGID_00000018226633188268207130000003412698550125771692_);" width="8.1" height="43.8"/>
	
		<linearGradient id="SVGID_00000025432156216032596450000012885795217681627545_" gradientUnits="userSpaceOnUse" x1="-70.9857" y1="217.4905" x2="799.7142" y2="217.4905">
		<stop  offset="0" style="stop-color:#2D3486"/>
		<stop  offset="0.459" style="stop-color:#402673"/>
		<stop  offset="1" style="stop-color:#150D26"/>
	</linearGradient>
	<path style="fill:url(#SVGID_00000025432156216032596450000012885795217681627545_);" d="M584.5,195.6l-19.7,43.8h8.4l4.3-10.1
		h21.9l4.3,10.1h8.5l-19.7-43.8H584.5z M580.2,222.9l8.2-19.2l8.2,19.2H580.2z"/>
	
		<linearGradient id="SVGID_00000000904054663399893240000005935430497526857094_" gradientUnits="userSpaceOnUse" x1="149.8731" y1="217.4905" x2="760.8411" y2="217.4905">
		<stop  offset="0" style="stop-color:#2D3486"/>
		<stop  offset="0.459" style="stop-color:#402673"/>
		<stop  offset="1" style="stop-color:#150D26"/>
	</linearGradient>
	<polygon style="fill:url(#SVGID_00000000904054663399893240000005935430497526857094_);" points="646.5,195.6 638.4,195.6 
		638.4,239.4 669.4,239.4 669.4,232.5 646.5,232.5 	"/>
</g>
<g>
	
		<radialGradient id="SVGID_00000128452095603193106940000015465383482290585003_" cx="245.3699" cy="232.4585" r="354.2127" gradientUnits="userSpaceOnUse">
		<stop  offset="0" style="stop-color:#64577D"/>
		<stop  offset="1" style="stop-color:#64577D;stop-opacity:0"/>
	</radialGradient>
	<path style="fill:url(#SVGID_00000128452095603193106940000015465383482290585003_);" d="M750,26.8c-27.6,0-50,23.2-50,51.8
		c0,28.6,22.4,51.8,50,51.8c19.4,0,36.4-9.3,46.3-23.4c1.2-1.8,0.6-4.2-1.3-5.2l-18.2-9.4c-1.6-0.8-3.6-0.3-4.6,1.2
		c-4.8,7.1-12.9,11.8-22.1,11.8c-6.9,0-13-4.1-16.9-10.4l64.1-14c1.7-0.4,2.9-1.9,2.8-3.6C799.4,49.4,777.3,26.8,750,26.8z
		 M728.9,74.1c1.7-12.6,10.5-22.2,21.1-22.2c8,0,14.9,5.5,18.6,13.5L728.9,74.1z"/>
	
		<radialGradient id="SVGID_00000025416866592494097990000006960120482012943529_" cx="245.3699" cy="232.4585" r="354.2127" gradientUnits="userSpaceOnUse">
		<stop  offset="0" style="stop-color:#64577D"/>
		<stop  offset="1" style="stop-color:#64577D;stop-opacity:0"/>
	</radialGradient>
	<path style="fill:url(#SVGID_00000025416866592494097990000006960120482012943529_);" d="M708.3,31.5c-5.4-3-11.6-4.6-18.1-4.6
		c-7.9,0-15.3,2.4-21.4,6.7v-1.3c0-2-1.6-3.6-3.6-3.6h-21.4c-2,0-3.6,1.6-3.6,3.6v92.9c0,2,1.6,3.6,3.6,3.6h21.4
		c2,0,3.6-1.6,3.6-3.6V68.5c0-8.7,6.6-16.3,15.3-16.7c3-0.1,5.9,0.6,8.3,1.9c1.5,0.8,3.4,0.4,4.4-0.9l12.6-15.9
		C710.8,35.1,710.3,32.5,708.3,31.5z"/>
	
		<radialGradient id="SVGID_00000057833280578088014100000002310399059494931090_" cx="245.3699" cy="232.4585" r="354.2127" gradientUnits="userSpaceOnUse">
		<stop  offset="0" style="stop-color:#64577D"/>
		<stop  offset="1" style="stop-color:#64577D;stop-opacity:0"/>
	</radialGradient>
	
		<ellipse style="fill:url(#SVGID_00000057833280578088014100000002310399059494931090_);" cx="578.6" cy="78.6" rx="13.4" ry="13.4"/>
	
		<radialGradient id="SVGID_00000107586916821069707720000003912770351582283434_" cx="245.3699" cy="232.4585" r="354.2127" gradientUnits="userSpaceOnUse">
		<stop  offset="0" style="stop-color:#64577D"/>
		<stop  offset="1" style="stop-color:#64577D;stop-opacity:0"/>
	</radialGradient>
	<path style="fill:url(#SVGID_00000107586916821069707720000003912770351582283434_);" d="M578.6,26.8c-30.6,0-55.4,23.2-55.4,51.8
		s24.8,51.8,55.4,51.8c30.6,0,55.4-23.2,55.4-51.8C633.9,50,609.2,26.8,578.6,26.8z M578.6,105.5c-14.8,0-26.8-12-26.8-26.8
		s12-26.8,26.8-26.8c14.8,0,26.8,12,26.8,26.8C605.4,93.4,593.4,105.5,578.6,105.5z"/>
	
		<radialGradient id="SVGID_00000070118114578569043460000009515797093076405636_" cx="245.3699" cy="232.4585" r="354.2127" gradientUnits="userSpaceOnUse">
		<stop  offset="0" style="stop-color:#64577D"/>
		<stop  offset="1" style="stop-color:#64577D;stop-opacity:0"/>
	</radialGradient>
	<path style="fill:url(#SVGID_00000070118114578569043460000009515797093076405636_);" d="M515.2,102.3c-1.1-1.5-3.2-1.7-4.7-0.8
		c-4.9,3-10.8,4.5-17.1,3.8c-12.2-1.4-22.1-11.4-23.5-23.6c-1.8-16.2,10.8-29.8,26.6-29.8c5.1,0,9.9,1.5,14,4c1.6,1,3.6,0.7,4.7-0.8
		L527,40.1c1.3-1.7,0.9-4.2-0.9-5.3c-8.6-5.1-18.7-8-29.6-8c-30.6,0-55.4,23.2-55.4,51.8c0,28.6,24.8,51.8,55.4,51.8
		c10.9,0,21-3,29.6-8c1.9-1.1,2.3-3.6,0.9-5.3L515.2,102.3z"/>
	
		<radialGradient id="SVGID_00000021805399316691865710000016303516510410007951_" cx="245.3699" cy="232.4585" r="354.2127" gradientUnits="userSpaceOnUse">
		<stop  offset="0" style="stop-color:#64577D"/>
		<stop  offset="1" style="stop-color:#64577D;stop-opacity:0"/>
	</radialGradient>
	<path style="fill:url(#SVGID_00000021805399316691865710000016303516510410007951_);" d="M436.7,106.2c-0.9-1.2-2.5-1.7-3.9-1.2
		c-0.8,0.3-1.6,0.4-2.4,0.4c-4,0-7.1-3.5-7.1-7.5V51.8h15.3c2,0,3.6-1.6,3.6-3.6V30.4c0-2-1.6-3.6-3.6-3.6h-15.3V3.6
		c0-2.3-2.1-4-4.3-3.5l-21.4,4.7c-1.6,0.4-2.8,1.8-2.8,3.5v18.5h-7.1c-2,0-3.6,1.6-3.6,3.6v17.9c0,2,1.6,3.6,3.6,3.6h7.1v46.5
		c0,17.8,16,32.2,35.7,32.2c6.1,0,11.8-1.4,16.8-3.8c2.1-1,2.8-3.6,1.3-5.5L436.7,106.2z"/>
	
		<radialGradient id="SVGID_00000176723821471291815280000001677678050295512506_" cx="245.3699" cy="232.4585" r="354.2127" gradientUnits="userSpaceOnUse">
		<stop  offset="0" style="stop-color:#64577D"/>
		<stop  offset="1" style="stop-color:#64577D;stop-opacity:0"/>
	</radialGradient>
	<path style="fill:url(#SVGID_00000176723821471291815280000001677678050295512506_);" d="M372.9,26.8c-7.1,0.7-13.7,3.3-19.3,7.3
		V32c0-2-1.6-3.6-3.6-3.6h-21.4c-2,0-3.6,1.6-3.6,3.6v92.9c0,2,1.6,3.6,3.6,3.6H350c2,0,3.6-1.6,3.6-3.6V69.5
		c0-9.9,8-17.9,17.9-17.9h1.8c2,0,3.6-1.6,3.6-3.6V30.4C376.8,28.3,375,26.6,372.9,26.8z"/>
	
		<radialGradient id="SVGID_00000165950912616099367510000006909627661337904786_" cx="245.3699" cy="232.4585" r="354.2127" gradientUnits="userSpaceOnUse">
		<stop  offset="0" style="stop-color:#64577D"/>
		<stop  offset="1" style="stop-color:#64577D;stop-opacity:0"/>
	</radialGradient>
	<path style="fill:url(#SVGID_00000165950912616099367510000006909627661337904786_);" d="M308.9,28.6h-21.4c-2,0-3.6,1.6-3.6,3.6v4
		c-8.1-5.9-17.9-9.3-28.6-9.3c-27.6,0-50,23.2-50,51.8s22.4,51.8,50,51.8c10.6,0,20.5-3.5,28.6-9.3v4c0,2,1.6,3.6,3.6,3.6h21.4
		c2,0,3.6-1.6,3.6-3.6v-93C312.5,30.2,310.9,28.6,308.9,28.6z M258.9,105.5c-13.8,0-25-12-25-26.8s11.2-26.8,25-26.8s25,12,25,26.8
		C283.9,93.4,272.7,105.5,258.9,105.5z"/>
	
		<radialGradient id="SVGID_00000111170181592690117980000000834187559518054817_" cx="245.3699" cy="232.4585" r="354.2127" gradientUnits="userSpaceOnUse">
		<stop  offset="0" style="stop-color:#64577D"/>
		<stop  offset="1" style="stop-color:#64577D;stop-opacity:0"/>
	</radialGradient>
	<path style="fill:url(#SVGID_00000111170181592690117980000000834187559518054817_);" d="M151.8,26.8c-27.6,0-50,23.2-50,51.8
		s22.4,51.8,50,51.8c19.4,0,36.4-9.3,46.3-23.4c1.2-1.8,0.6-4.2-1.3-5.2l-18.2-9.4c-1.6-0.8-3.6-0.3-4.6,1.2
		c-4.8,7.1-12.9,11.8-22.1,11.8c-6.9,0-13-4.1-16.9-10.4l64.1-14c1.7-0.4,2.9-1.9,2.8-3.6C201.2,49.4,179,26.8,151.8,26.8z
		 M130.7,74.1c1.7-12.6,10.5-22.2,21.1-22.2c8,0,14.9,5.5,18.6,13.5L130.7,74.1z"/>
	
		<radialGradient id="SVGID_00000180348260967625456880000011232686341426355124_" cx="245.3699" cy="232.4585" r="354.2127" gradientUnits="userSpaceOnUse">
		<stop  offset="0" style="stop-color:#64577D"/>
		<stop  offset="1" style="stop-color:#64577D;stop-opacity:0"/>
	</radialGradient>
	<path style="fill:url(#SVGID_00000180348260967625456880000011232686341426355124_);" d="M52,28.6c-8.6,0-16.6,2.3-23.4,6.5V3.6
		c0-2.3-2.1-4-4.3-3.5L2.8,4.8C1.2,5.1,0,6.6,0,8.3v116.8c0,2,1.6,3.6,3.6,3.6H25c2,0,3.6-1.6,3.6-3.6V73.9
		c0-10.8,8.5-20.1,19.3-20.3c11-0.2,20,8.7,20,19.7v51.8c0,2,1.6,3.6,3.6,3.6h21.4c2,0,3.6-1.6,3.6-3.6V74.3
		C96.4,49.5,76.7,28.7,52,28.6z"/>
	
		<radialGradient id="SVGID_00000156546444363331608890000006614749310356192670_" cx="245.3699" cy="232.4585" r="354.2127" gradientUnits="userSpaceOnUse">
		<stop  offset="0" style="stop-color:#64577D"/>
		<stop  offset="1" style="stop-color:#64577D;stop-opacity:0"/>
	</radialGradient>
	<path style="fill:url(#SVGID_00000156546444363331608890000006614749310356192670_);" d="M473.9,206.4c1.4-1.4,3.1-2.4,4.9-3.2
		c1.9-0.8,4-1.1,6.3-1.1c2.3,0,4.4,0.4,6.4,1.3c2,0.8,3.7,2.1,5.3,3.8l5.2-4.9c-2-2.4-4.5-4.2-7.5-5.4c-3-1.2-6.2-1.9-9.8-1.9
		c-3.4,0-6.5,0.6-9.3,1.7c-2.8,1.1-5.3,2.7-7.4,4.7c-2.1,2-3.8,4.4-4.9,7.1c-1.2,2.8-1.7,5.8-1.7,9c0,3.3,0.6,6.3,1.7,9
		c1.2,2.8,2.8,5.2,4.9,7.2c2.1,2,4.6,3.6,7.4,4.7c2.9,1.1,6,1.6,9.3,1.6c3.6,0,6.9-0.6,9.9-1.9c3-1.2,5.5-3.1,7.5-5.4l-5.2-5
		c-1.6,1.8-3.4,3.1-5.3,3.9c-2,0.8-4.1,1.2-6.4,1.2c-2.3,0-4.4-0.4-6.3-1.1c-1.9-0.8-3.5-1.8-4.9-3.2c-1.4-1.4-2.5-3-3.2-4.9
		c-0.8-1.9-1.1-3.9-1.1-6.2c0-2.2,0.4-4.3,1.1-6.2C471.4,209.4,472.5,207.8,473.9,206.4z"/>
	
		<radialGradient id="SVGID_00000121981613889768237840000004063188303029595037_" cx="245.3699" cy="232.4585" r="354.2127" gradientUnits="userSpaceOnUse">
		<stop  offset="0" style="stop-color:#64577D"/>
		<stop  offset="1" style="stop-color:#64577D;stop-opacity:0"/>
	</radialGradient>
	<polygon style="fill:url(#SVGID_00000121981613889768237840000004063188303029595037_);" points="153.7,239.4 161.8,239.4 
		161.8,222.6 182.9,222.6 182.9,215.7 161.8,215.7 161.8,202.4 185.6,202.4 185.6,195.6 153.7,195.6 	"/>
	
		<radialGradient id="SVGID_00000091731436198291902320000002361780473651892135_" cx="245.3699" cy="232.4585" r="354.2127" gradientUnits="userSpaceOnUse">
		<stop  offset="0" style="stop-color:#64577D"/>
		<stop  offset="1" style="stop-color:#64577D;stop-opacity:0"/>
	</radialGradient>
	
		<rect x="214.1" y="195.6" style="fill:url(#SVGID_00000091731436198291902320000002361780473651892135_);" width="8.1" height="43.8"/>
	
		<radialGradient id="SVGID_00000063634010115943294800000006911895726161383302_" cx="245.3699" cy="232.4585" r="354.2127" gradientUnits="userSpaceOnUse">
		<stop  offset="0" style="stop-color:#64577D"/>
		<stop  offset="1" style="stop-color:#64577D;stop-opacity:0"/>
	</radialGradient>
	<polygon style="fill:url(#SVGID_00000063634010115943294800000006911895726161383302_);" points="285.4,225.2 261.3,195.6 
		254.6,195.6 254.6,239.4 262.7,239.4 262.7,209.7 286.8,239.4 293.5,239.4 293.5,195.6 285.4,195.6 	"/>
	
		<radialGradient id="SVGID_00000154428375497848424130000004126433670382545838_" cx="245.3699" cy="232.4585" r="354.2127" gradientUnits="userSpaceOnUse">
		<stop  offset="0" style="stop-color:#64577D"/>
		<stop  offset="1" style="stop-color:#64577D;stop-opacity:0"/>
	</radialGradient>
	<path style="fill:url(#SVGID_00000154428375497848424130000004126433670382545838_);" d="M339.3,195.6l-19.7,43.8h8.4l4.3-10.1
		h21.9l4.3,10.1h8.5l-19.7-43.8H339.3z M335.1,222.9l8.2-19.2l8.2,19.2H335.1z"/>
	
		<radialGradient id="SVGID_00000046299910746084445360000012584412971396148909_" cx="245.3699" cy="232.4585" r="354.2127" gradientUnits="userSpaceOnUse">
		<stop  offset="0" style="stop-color:#64577D"/>
		<stop  offset="1" style="stop-color:#64577D;stop-opacity:0"/>
	</radialGradient>
	<polygon style="fill:url(#SVGID_00000046299910746084445360000012584412971396148909_);" points="424,225.2 399.9,195.6 
		393.2,195.6 393.2,239.4 401.3,239.4 401.3,209.7 425.4,239.4 432.1,239.4 432.1,195.6 424,195.6 	"/>
	
		<radialGradient id="SVGID_00000018951189167087535720000013509756058564801949_" cx="245.3699" cy="232.4585" r="354.2127" gradientUnits="userSpaceOnUse">
		<stop  offset="0" style="stop-color:#64577D"/>
		<stop  offset="1" style="stop-color:#64577D;stop-opacity:0"/>
	</radialGradient>
	
		<rect x="530.4" y="195.6" style="fill:url(#SVGID_00000018951189167087535720000013509756058564801949_);" width="8.1" height="43.8"/>
	
		<radialGradient id="SVGID_00000155136266949010928350000018283166392626748045_" cx="245.3699" cy="232.4585" r="354.2127" gradientUnits="userSpaceOnUse">
		<stop  offset="0" style="stop-color:#64577D"/>
		<stop  offset="1" style="stop-color:#64577D;stop-opacity:0"/>
	</radialGradient>
	<path style="fill:url(#SVGID_00000155136266949010928350000018283166392626748045_);" d="M584.5,195.6l-19.7,43.8h8.4l4.3-10.1
		h21.9l4.3,10.1h8.5l-19.7-43.8H584.5z M580.2,222.9l8.2-19.2l8.2,19.2H580.2z"/>
	
		<radialGradient id="SVGID_00000005954524926814737700000002962473043436000132_" cx="245.3699" cy="232.4585" r="354.2127" gradientUnits="userSpaceOnUse">
		<stop  offset="0" style="stop-color:#64577D"/>
		<stop  offset="1" style="stop-color:#64577D;stop-opacity:0"/>
	</radialGradient>
	<polygon style="fill:url(#SVGID_00000005954524926814737700000002962473043436000132_);" points="646.5,195.6 638.4,195.6 
		638.4,239.4 669.4,239.4 669.4,232.5 646.5,232.5 	"/>
</g>
</svg>
