<svg width="118" height="32" viewBox="0 0 118 32" fill="none" xmlns="http://www.w3.org/2000/svg">
<path d="M27.2995 23.9145L23.7121 31.886H25.147L25.959 30.0071H30.0092L30.8181 31.886H32.2872L28.6773 23.9145H27.2995ZM26.4365 28.9023L27.9878 25.3125L29.5334 28.9023H26.4365Z" fill="#BFBFBF"/>
<path d="M19.52 29.4155L15.0446 23.9145H13.8944V31.886H15.2837V26.3721L19.7594 31.886H20.9095V23.9145H19.52V29.4155Z" fill="#BFBFBF"/>
<path d="M10.1774 23.9145H8.78811V31.886H10.1774V23.9145Z" fill="#BFBFBF"/>
<path d="M0 31.886H1.38929V28.7999H5.2842V27.6039H1.38929V25.11H5.77382V23.9145H0V31.886Z" fill="#BFBFBF"/>
<path d="M40.7153 29.4155L36.2399 23.9145H35.0898V31.886H36.4791V26.3721L40.9547 31.886H42.1049V23.9145H40.7153V29.4155Z" fill="#BFBFBF"/>
<path d="M63.5439 23.9145L59.9565 31.886H61.3914L62.2034 30.0071H66.2536L67.0625 31.886H68.5316L64.9217 23.9145H63.5439ZM62.6809 28.9023L64.2322 25.3125L65.7778 28.9023H62.6809Z" fill="#BFBFBF"/>
<path d="M72.7235 30.69V23.9145H71.3342V31.886H76.9372V30.69H72.7235Z" fill="#BFBFBF"/>
<path d="M57.1481 23.9145H55.7588V31.886H57.1481V23.9145Z" fill="#BFBFBF"/>
<path d="M47.6563 25.8445C47.9181 25.5904 48.2273 25.393 48.5843 25.2523C48.941 25.1122 49.3319 25.0416 49.7573 25.0416C50.175 25.0416 50.5639 25.1194 50.9244 25.2751C51.2851 25.4308 51.6137 25.6644 51.9097 25.9757L52.8092 25.1217C52.445 24.6885 51.9932 24.3605 51.4541 24.1364C50.915 23.9123 50.3267 23.8005 49.6889 23.8005C49.0813 23.8005 48.5178 23.9012 47.9979 24.1025C47.4777 24.3038 47.0259 24.5885 46.6425 24.9566C46.2591 25.3247 45.9611 25.759 45.7487 26.2605C45.536 26.7615 45.4298 27.3081 45.4298 27.9003C45.4298 28.4925 45.536 29.0391 45.7487 29.5402C45.9611 30.0412 46.2591 30.476 46.6425 30.8441C47.0259 31.2122 47.4758 31.4969 47.992 31.6981C48.5083 31.8989 49.0699 32.0001 49.6775 32.0001C50.3228 32.0001 50.915 31.8861 51.4541 31.6581C51.9932 31.4307 52.445 31.1043 52.8092 30.6789L51.9097 29.8131C51.6137 30.1323 51.285 30.3697 50.9244 30.5249C50.5638 30.6806 50.1749 30.7585 49.7573 30.7585C49.332 30.7585 48.941 30.6884 48.5843 30.5477C48.2273 30.4075 47.9181 30.2102 47.6563 29.9555C47.3944 29.7013 47.193 29.3995 47.0527 29.0502C46.912 28.701 46.8419 28.3179 46.8419 27.9003C46.8419 27.4828 46.912 27.099 47.0527 26.7499C47.193 26.4006 47.3943 26.0993 47.6563 25.8446V25.8445Z" fill="#BFBFBF"/>
<path d="M45.3367 4.1332H42.2366C41.9512 4.1332 41.72 4.36453 41.72 4.64984V5.21996C40.5482 4.37306 39.1239 3.87484 37.5866 3.87484C33.5916 3.87484 30.3531 7.22904 30.3531 11.3666C30.3531 15.5042 33.5916 18.8584 37.5866 18.8584C39.1239 18.8584 40.5481 18.3602 41.72 17.5133V18.0834C41.72 18.3688 41.9513 18.6 42.2366 18.6H45.3367C45.6221 18.6 45.8533 18.3687 45.8533 18.0834V4.64984C45.8533 4.36445 45.622 4.1332 45.3367 4.1332ZM38.1032 15.2418C36.1058 15.2418 34.4865 13.5068 34.4865 11.3667C34.4865 9.22656 36.1058 7.49163 38.1032 7.49163C40.1006 7.49163 41.7199 9.22656 41.7199 11.3667C41.7199 13.5068 40.1006 15.2418 38.1032 15.2418Z" fill="url(#paint0_linear_2072_382)"/>
<path d="M98.1112 18.6001C98.3966 18.6001 98.6278 18.3688 98.6278 18.0835V9.90359C98.6278 8.64655 99.5882 7.55181 100.844 7.49418C101.28 7.47417 101.69 7.57509 102.045 7.76537C102.264 7.88223 102.534 7.82324 102.688 7.62929L104.515 5.32479C104.716 5.07161 104.636 4.70077 104.353 4.54597C103.568 4.11741 102.675 3.87484 101.728 3.87484C100.584 3.87484 99.5194 4.22949 98.6277 4.83757V4.64984C98.6277 4.36445 98.3964 4.1332 98.1111 4.1332H95.011C94.7257 4.1332 94.4944 4.36453 94.4944 4.64984V18.0835C94.4944 18.3688 94.7257 18.6001 95.011 18.6001H98.1112Z" fill="url(#paint1_linear_2072_382)"/>
<path d="M85.3808 3.87484C80.9579 3.87484 77.3723 7.22904 77.3723 11.3666C77.3723 15.5042 80.9579 18.8584 85.3808 18.8584C89.8038 18.8584 93.3893 15.5042 93.3893 11.3666C93.3893 7.22904 89.8038 3.87484 85.3808 3.87484ZM85.3808 15.2418C83.2407 15.2418 81.5057 13.5068 81.5057 11.3667C81.5057 9.22656 83.2407 7.49163 85.3808 7.49163C87.5209 7.49163 89.2559 9.22656 89.2559 11.3667C89.2559 13.5068 87.5209 15.2418 85.3808 15.2418Z" fill="url(#paint2_linear_2072_382)"/>
<path d="M73.3601 18.8585C74.934 18.8585 76.4016 18.4334 77.6394 17.6998C77.9074 17.541 77.9699 17.179 77.7763 16.9349L76.0682 14.7811C75.9028 14.5726 75.61 14.5297 75.3833 14.6692C74.6751 15.105 73.8172 15.3206 72.9029 15.2153C71.1302 15.0111 69.7013 13.5744 69.5086 11.8005C69.255 9.46595 71.0769 7.49155 73.3601 7.49155C74.1022 7.49155 74.7946 7.70168 75.3833 8.06398C75.61 8.20341 75.9028 8.1606 76.0681 7.95206L77.7763 5.79822C77.9699 5.55413 77.9073 5.19222 77.6393 5.03343C76.4014 4.2998 74.9339 3.87476 73.3601 3.87476C68.9371 3.87476 65.3516 7.22896 65.3516 11.3665C65.3516 15.5041 68.9372 18.8585 73.3601 18.8585Z" fill="url(#paint3_linear_2072_382)"/>
<path d="M54.7244 3.87739C53.6919 3.9811 52.7365 4.35887 51.926 4.93984V4.62265C51.926 4.33727 51.6947 4.10602 51.4094 4.10602H48.3093C48.0239 4.10602 47.7927 4.33735 47.7927 4.62265V18.0563C47.7927 18.3417 48.024 18.5729 48.3093 18.5729H51.4094C51.6947 18.5729 51.926 18.3416 51.926 18.0563V10.0478C51.926 8.62104 53.0826 7.46444 54.5094 7.46444H54.7677C55.0531 7.46444 55.2844 7.23311 55.2844 6.9478V4.39363C55.2844 4.09135 55.0252 3.84718 54.7244 3.87739Z" fill="url(#paint4_linear_2072_382)"/>
<path d="M28.8532 14.7242L26.2167 13.3634C25.9818 13.2422 25.6997 13.3244 25.5511 13.543C24.8542 14.5678 23.6807 15.2418 22.3479 15.2418C21.3542 15.2418 20.472 14.655 19.9046 13.7461L29.1722 11.7189C29.4158 11.6656 29.5849 11.4458 29.5796 11.1965C29.4922 7.13745 26.288 3.87484 22.3479 3.87484C18.353 3.87484 15.1144 7.22904 15.1144 11.3666C15.1144 15.5042 18.353 18.8584 22.3479 18.8584C25.1483 18.8584 27.612 17.5133 29.0434 15.4765C29.2222 15.2221 29.1296 14.8669 28.8532 14.7242ZM22.3479 7.49163C23.5016 7.49163 24.5059 8.28097 25.0398 9.44953L19.2962 10.7059C19.5475 8.88123 20.8164 7.49163 22.3479 7.49163Z" fill="url(#paint5_linear_2072_382)"/>
<path d="M110.57 18.8585C113.371 18.8585 115.835 17.5133 117.266 15.4766C117.445 15.2222 117.352 14.8669 117.076 14.7242L114.439 13.3634C114.204 13.2422 113.922 13.3244 113.774 13.543C113.077 14.5678 111.903 15.2418 110.57 15.2418C109.577 15.2418 108.694 14.655 108.127 13.7461L117.395 11.7189C117.638 11.6656 117.807 11.4458 117.802 11.1965C117.715 7.13745 114.51 3.87484 110.57 3.87484C106.575 3.87484 103.337 7.22904 103.337 11.3666C103.337 15.5042 106.575 18.8585 110.57 18.8585ZM110.57 7.49155C111.724 7.49155 112.728 8.28089 113.262 9.44945L107.519 10.7058C107.77 8.88115 109.039 7.49155 110.57 7.49155Z" fill="url(#paint6_linear_2072_382)"/>
<path d="M0.516638 18.6001H3.61671C3.90209 18.6001 4.13334 18.3688 4.13334 18.0835V10.6859C4.13334 9.12127 5.35746 7.7791 6.92188 7.75048C8.51572 7.7213 9.81684 9.00457 9.81684 10.5917V18.0835C9.81684 18.3689 10.0482 18.6001 10.3335 18.6001H13.4335C13.7189 18.6001 13.9502 18.3688 13.9502 18.0835V10.7358C13.9502 7.15668 11.1005 4.1494 7.52143 4.1333C6.28009 4.12772 5.11983 4.47257 4.13334 5.07426V0.516669C4.13334 0.186805 3.82851 -0.05856 3.5063 0.0119088L0.406232 0.690051C0.168998 0.741946 0 0.951997 0 1.19481V18.0835C0 18.3689 0.231335 18.6001 0.516638 18.6001Z" fill="url(#paint7_linear_2072_382)"/>
<path d="M66.0232 17.5154L64.3109 15.3564C64.1767 15.1872 63.9488 15.1058 63.746 15.1801C63.6368 15.2202 63.519 15.2422 63.3954 15.2417C62.8173 15.2389 62.367 14.7305 62.367 14.1524V7.49155H64.5846C64.8699 7.49155 65.1012 7.26021 65.1012 6.97491V4.39156C65.1012 4.10617 64.8699 3.87492 64.5846 3.87492H62.367V0.516651C62.367 0.186787 62.0622 -0.058578 61.7399 0.0118907L58.6398 0.690033C58.4027 0.741928 58.2336 0.951979 58.2336 1.19479V3.87484H57.2002C56.9149 3.87484 56.6836 4.10617 56.6836 4.39148V6.97483C56.6836 7.26021 56.9149 7.49147 57.2002 7.49147H58.2336V14.2082C58.2336 16.7764 60.5469 18.8583 63.4004 18.8583C64.2814 18.8583 65.1092 18.6577 65.8342 18.3068C66.1359 18.1608 66.2315 17.7781 66.0232 17.5154Z" fill="url(#paint8_linear_2072_382)"/>
<path d="M73.3601 13.4334C74.5015 13.4334 75.4268 12.5081 75.4268 11.3667C75.4268 10.2253 74.5015 9.29998 73.3601 9.29998C72.2187 9.29998 71.2934 10.2253 71.2934 11.3667C71.2934 12.5081 72.2187 13.4334 73.3601 13.4334Z" fill="url(#paint9_linear_2072_382)"/>
<defs>
<linearGradient id="paint0_linear_2072_382" x1="59" y1="-4.53592e-06" x2="59" y2="19" gradientUnits="userSpaceOnUse">
<stop offset="0.217106" stop-color="white"/>
<stop offset="1" stop-color="#B3B3B3"/>
</linearGradient>
<linearGradient id="paint1_linear_2072_382" x1="59" y1="-4.53592e-06" x2="59" y2="19" gradientUnits="userSpaceOnUse">
<stop offset="0.217106" stop-color="white"/>
<stop offset="1" stop-color="#B3B3B3"/>
</linearGradient>
<linearGradient id="paint2_linear_2072_382" x1="59" y1="-4.53592e-06" x2="59" y2="19" gradientUnits="userSpaceOnUse">
<stop offset="0.217106" stop-color="white"/>
<stop offset="1" stop-color="#B3B3B3"/>
</linearGradient>
<linearGradient id="paint3_linear_2072_382" x1="59" y1="-4.53592e-06" x2="59" y2="19" gradientUnits="userSpaceOnUse">
<stop offset="0.217106" stop-color="white"/>
<stop offset="1" stop-color="#B3B3B3"/>
</linearGradient>
<linearGradient id="paint4_linear_2072_382" x1="59" y1="-4.53592e-06" x2="59" y2="19" gradientUnits="userSpaceOnUse">
<stop offset="0.217106" stop-color="white"/>
<stop offset="1" stop-color="#B3B3B3"/>
</linearGradient>
<linearGradient id="paint5_linear_2072_382" x1="59" y1="-4.53592e-06" x2="59" y2="19" gradientUnits="userSpaceOnUse">
<stop offset="0.217106" stop-color="white"/>
<stop offset="1" stop-color="#B3B3B3"/>
</linearGradient>
<linearGradient id="paint6_linear_2072_382" x1="59" y1="-4.53592e-06" x2="59" y2="19" gradientUnits="userSpaceOnUse">
<stop offset="0.217106" stop-color="white"/>
<stop offset="1" stop-color="#B3B3B3"/>
</linearGradient>
<linearGradient id="paint7_linear_2072_382" x1="59" y1="-4.53592e-06" x2="59" y2="19" gradientUnits="userSpaceOnUse">
<stop offset="0.217106" stop-color="white"/>
<stop offset="1" stop-color="#B3B3B3"/>
</linearGradient>
<linearGradient id="paint8_linear_2072_382" x1="59" y1="-4.53592e-06" x2="59" y2="19" gradientUnits="userSpaceOnUse">
<stop offset="0.217106" stop-color="white"/>
<stop offset="1" stop-color="#B3B3B3"/>
</linearGradient>
<linearGradient id="paint9_linear_2072_382" x1="59" y1="-4.53592e-06" x2="59" y2="19" gradientUnits="userSpaceOnUse">
<stop offset="0.217106" stop-color="white"/>
<stop offset="1" stop-color="#B3B3B3"/>
</linearGradient>
</defs>
</svg>
