<?xml version="1.0" encoding="utf-8"?>
<!-- Generator: Adobe Illustrator 27.9.0, SVG Export Plug-In . SVG Version: 6.00 Build 0)  -->
<svg version="1.1" id="Layer_1" xmlns="http://www.w3.org/2000/svg" xmlns:xlink="http://www.w3.org/1999/xlink" x="0px" y="0px"
	 width="160px" height="160px" viewBox="0 0 160 160" enable-background="new 0 0 160 160" xml:space="preserve">
<g>
	<path fill="#83AE42" d="M139.926,6c0.092,0.178,0.183,0.285,0.201,0.402c0.085,0.557,0.148,1.118,0.221,1.677
		c0.187,1.427,0.397,2.851,0.554,4.282c0.114,1.038,0.145,2.084,0.234,3.125c0.111,1.291,0.285,2.577,0.357,3.87
		c0.074,1.337,0.052,2.679,0.085,4.019c0.03,1.219,0.119,2.439,0.107,3.657c-0.023,2.326-0.09,4.652-0.159,6.978
		c-0.036,1.219-0.016,2.452-0.201,3.651c-0.247,1.591-0.304,3.187-0.421,4.784c-0.089,1.214-0.211,2.427-0.348,3.637
		c-0.054,0.479-0.192,0.948-0.287,1.423c-0.04,0.198-0.074,0.397-0.099,0.597c-0.171,1.362-0.326,2.725-0.511,4.085
		c-0.141,1.035-0.313,2.066-0.479,3.097c-0.112,0.698-0.232,1.396-0.357,2.092c-0.201,1.115-0.389,2.234-0.623,3.342
		c-0.141,0.666-0.374,1.313-0.538,1.975c-0.097,0.392-0.139,0.797-0.208,1.195c-0.126,0.724-0.231,1.453-0.386,2.171
		c-0.238,1.1-0.505,2.193-0.771,3.287c-0.148,0.607-0.321,1.208-0.477,1.814c-0.161,0.625-0.302,1.255-0.472,1.878
		c-0.236,0.863-0.494,1.72-0.737,2.582c-0.054,0.193-0.074,0.396-0.128,0.59c-0.298,1.075-0.597,2.151-0.904,3.223
		c-0.143,0.5-0.311,0.993-0.461,1.491c-0.169,0.563-0.319,1.132-0.497,1.692c-0.215,0.677-0.452,1.347-0.678,2.021
		c-0.348,1.038-0.692,2.078-1.045,3.114c-0.264,0.775-0.534,1.549-0.813,2.319c-0.318,0.877-0.629,1.757-0.979,2.622
		c-0.304,0.751-0.672,1.475-0.983,2.223c-0.257,0.618-0.453,1.262-0.708,1.881c-0.365,0.886-0.765,1.759-1.14,2.641
		c-0.217,0.509-0.396,1.035-0.627,1.538c-0.576,1.256-1.169,2.505-1.762,3.753c-0.589,1.24-1.183,2.478-1.782,3.713
		c-0.153,0.315-0.309,0.633-0.509,0.918c-0.08,0.115-0.28,0.201-0.427,0.205c-0.955,0.025-1.911,0.029-2.866,0.029
		c-25.597,0.001-51.193,0.001-76.79,0c-0.568,0-1.137-0.01-1.705-0.009c-0.268,0.001-0.39-0.132-0.51-0.373
		c-0.404-0.811-0.86-1.596-1.276-2.402c-0.222-0.431-0.392-0.888-0.603-1.325c-0.491-1.016-1.02-2.015-1.482-3.043
		c-0.408-0.908-0.735-1.853-1.122-2.771c-0.299-0.707-0.646-1.393-0.954-2.096c-0.32-0.73-0.61-1.473-0.929-2.203
		c-0.327-0.75-0.689-1.486-1.005-2.24c-0.155-0.369-0.232-0.771-0.362-1.151c-0.285-0.839-0.587-1.672-0.871-2.511
		c-0.431-1.273-0.839-2.554-1.282-3.823c-0.308-0.883-0.687-1.743-0.983-2.63c-0.277-0.831-0.482-1.685-0.725-2.527
		c-0.226-0.783-0.473-1.56-0.689-2.346c-0.318-1.159-0.611-2.326-0.927-3.486c-0.146-0.536-0.334-1.061-0.481-1.597
		c-0.087-0.318-0.112-0.654-0.202-0.971c-0.174-0.617-0.396-1.22-0.557-1.84c-0.181-0.696-0.309-1.406-0.473-2.107
		c-0.163-0.695-0.349-1.384-0.512-2.079c-0.105-0.448-0.18-0.903-0.28-1.352c-0.192-0.863-0.411-1.72-0.584-2.587
		c-0.158-0.792-0.256-1.595-0.404-2.388c-0.165-0.886-0.358-1.766-0.538-2.649c-0.075-0.368-0.166-0.734-0.218-1.105
		c-0.088-0.632-0.062-1.294-0.243-1.895c-0.403-1.342-0.44-2.722-0.589-4.093c-0.104-0.96-0.212-1.921-0.343-2.878
		c-0.069-0.504-0.209-0.999-0.281-1.503c-0.074-0.516-0.109-1.037-0.153-1.557c-0.128-1.514-0.166-3.041-0.398-4.538
		c-0.285-1.841-0.37-3.688-0.404-5.538c-0.075-4.045-0.131-8.092-0.108-12.138c0.012-2.046,0.101-4.105,0.362-6.132
		c0.198-1.535,0.252-3.075,0.422-4.608c0.111-1.004,0.214-2.009,0.344-3.01c0.067-0.52,0.172-1.036,0.285-1.548
		c0.079-0.354,0.237-0.405,0.506-0.163c0.209,0.188,0.392,0.408,0.566,0.63c0.313,0.399,0.606,0.813,0.916,1.215
		c0.399,0.517,0.794,1.038,1.214,1.538c0.39,0.464,0.822,0.893,1.216,1.354c0.424,0.496,0.809,1.025,1.241,1.513
		c1.083,1.225,2.176,2.442,3.279,3.649c0.546,0.598,1.133,1.158,1.686,1.75c0.404,0.432,0.768,0.901,1.176,1.329
		c0.417,0.437,0.872,0.836,1.297,1.265c0.418,0.422,0.809,0.872,1.233,1.287c0.433,0.425,0.904,0.81,1.335,1.236
		c0.522,0.516,1.004,1.072,1.533,1.582c0.426,0.411,0.908,0.763,1.341,1.167c0.65,0.606,1.272,1.242,1.917,1.853
		c0.605,0.572,1.23,1.122,1.837,1.691c0.482,0.451,0.95,0.916,1.425,1.374c0.021,0.02,0.044,0.04,0.07,0.051
		c0.788,0.329,1.268,1.033,1.898,1.555c1.279,1.061,2.586,2.089,3.854,3.163c0.796,0.674,1.534,1.415,2.314,2.109
		c0.388,0.345,0.811,0.65,1.216,0.976c0.698,0.561,1.391,1.127,2.091,1.684c0.645,0.514,1.303,1.013,1.944,1.532
		c0.629,0.508,1.235,1.044,1.867,1.548c0.972,0.774,1.96,1.527,2.935,2.298c0.444,0.351,0.863,0.732,1.306,1.084
		c0.833,0.662,1.68,1.306,2.511,1.97c0.652,0.521,1.285,1.067,1.934,1.592c0.766,0.62,1.536,1.235,2.311,1.842
		c0.365,0.286,0.76,0.535,1.119,0.828c0.348,0.285,0.661,0.613,1.001,0.908c0.842,0.728,1.683,1.459,2.541,2.168
		c0.895,0.741,1.818,1.449,2.713,2.191c0.535,0.444,1.059,0.906,1.553,1.396c0.554,0.55,1.186,0.508,1.69-0.123
		c0.176-0.221,0.431-0.38,0.652-0.565c0.087-0.073,0.186-0.133,0.273-0.206c0.751-0.637,1.505-1.269,2.249-1.915
		c0.433-0.376,0.833-0.79,1.274-1.156c0.452-0.376,0.945-0.702,1.404-1.071c0.62-0.498,1.22-1.022,1.838-1.522
		c0.536-0.434,1.09-0.845,1.626-1.279c0.24-0.194,0.444-0.436,0.687-0.626c0.917-0.715,1.848-1.411,2.765-2.126
		c0.666-0.52,1.321-1.053,1.973-1.59c1.01-0.831,2.012-1.672,3.019-2.506c0.928-0.769,1.849-1.548,2.793-2.297
		c0.629-0.498,1.311-0.93,1.939-1.43c0.439-0.349,0.813-0.777,1.241-1.142c0.558-0.476,1.135-0.931,1.713-1.383
		c0.766-0.599,1.555-1.169,2.309-1.784c0.497-0.406,0.936-0.882,1.422-1.302c0.887-0.767,1.791-1.514,2.684-2.274
		c0.47-0.399,0.928-0.812,1.397-1.212c0.534-0.455,1.086-0.887,1.607-1.356c0.392-0.353,0.733-0.762,1.123-1.118
		c0.395-0.362,0.837-0.672,1.231-1.035c0.851-0.784,1.683-1.59,2.527-2.381c0.257-0.24,0.539-0.454,0.794-0.695
		c0.843-0.798,1.687-1.596,2.517-2.408c0.862-0.845,1.714-1.701,2.559-2.563c0.541-0.551,1.02-1.17,1.6-1.674
		c0.922-0.802,1.659-1.771,2.519-2.627c0.773-0.769,1.462-1.623,2.183-2.445c0.587-0.668,1.165-1.344,1.748-2.016
		c0.775-0.893,1.561-1.777,2.324-2.68c0.416-0.492,0.784-1.024,1.192-1.524C138.948,7.133,139.412,6.604,139.926,6z"/>
	<path fill="#567C03" d="M121.53,109.249c-0.113-0.091-0.252-0.158-0.325-0.269c-0.142-0.216-0.241-0.459-0.368-0.685
		c-0.435-0.775-0.864-1.554-1.316-2.319c-0.417-0.705-0.985-1.348-1.267-2.1c-0.473-1.26-1.331-2.272-1.965-3.424
		c-0.443-0.805-1.015-1.538-1.509-2.316c-0.422-0.663-0.811-1.347-1.222-2.018c-0.276-0.451-0.483-0.99-0.869-1.315
		c-0.458-0.386-0.69-0.897-1.033-1.341c-0.473-0.613-0.872-1.282-1.324-1.912c-0.376-0.523-0.793-1.017-1.174-1.536
		c-0.528-0.718-1.016-1.465-1.565-2.166c-0.478-0.611-1.027-1.165-1.524-1.762c-0.367-0.441-0.69-0.919-1.054-1.363
		c-0.424-0.518-0.873-1.015-1.306-1.526c-0.436-0.514-0.815-1.089-1.312-1.532c-0.461-0.41-0.843-0.826-1.175-1.361
		c-0.465-0.748-1.121-1.379-1.716-2.042c-0.519-0.579-1.059-1.141-1.603-1.697c-0.661-0.675-1.342-1.33-2-2.007
		c-0.199-0.205-0.324-0.485-0.528-0.683c-0.369-0.357-0.776-0.674-1.16-1.015c-0.193-0.172-0.373-0.359-0.557-0.541
		c-0.041-0.04-0.071-0.121-0.114-0.126c-0.484-0.063-0.539-0.541-0.805-0.813c-0.317-0.324-0.641-0.642-0.969-0.956
		c-0.447-0.428-0.906-0.844-1.351-1.274c-0.463-0.448-0.905-0.917-1.374-1.357c-0.397-0.372-0.821-0.714-1.231-1.073
		c-0.497-0.435-1-0.863-1.482-1.313c-0.387-0.362-0.723-0.779-1.123-1.124c-0.551-0.475-1.157-0.886-1.709-1.359
		c-0.408-0.35-0.756-0.769-1.153-1.133c-0.414-0.378-0.843-0.743-1.289-1.082c-0.511-0.389-0.491-0.676,0.029-1.026
		c0.538-0.362,1.041-0.779,1.539-1.196c0.655-0.548,1.286-1.125,1.936-1.679c0.462-0.394,0.945-0.764,1.409-1.154
		c0.673-0.566,1.33-1.152,2.011-1.708c0.615-0.502,1.257-0.97,1.88-1.463c0.79-0.624,1.57-1.259,2.358-1.886
		c0.684-0.544,1.378-1.076,2.056-1.627c0.468-0.381,0.909-0.794,1.375-1.177c0.546-0.45,1.109-0.88,1.66-1.323
		c0.903-0.726,1.801-1.46,2.706-2.184c0.562-0.45,1.133-0.89,1.7-1.335c0.838-0.657,1.691-1.295,2.509-1.975
		c1.045-0.869,2.051-1.785,3.095-2.657c0.62-0.518,1.294-0.97,1.917-1.484c0.5-0.412,0.948-0.887,1.441-1.309
		c0.549-0.469,1.13-0.9,1.683-1.365c0.57-0.479,1.121-0.981,1.685-1.468c0.729-0.631,1.474-1.244,2.19-1.89
		c1.102-0.993,2.176-2.017,3.277-3.01c0.895-0.807,1.82-1.58,2.718-2.384c0.357-0.32,0.669-0.691,1.016-1.022
		c0.544-0.518,1.115-1.009,1.648-1.537c0.525-0.52,1.013-1.077,1.525-1.61c0.768-0.799,1.538-1.596,2.316-2.386
		c0.756-0.768,1.536-1.513,2.278-2.293c0.755-0.793,1.49-1.606,2.208-2.433c0.649-0.748,1.261-1.528,1.895-2.289
		c0.576-0.691,1.159-1.378,1.743-2.063c0.549-0.644,1.108-1.279,1.654-1.925c0.455-0.539,0.895-1.089,1.346-1.632
		c0.052-0.063,0.128-0.108,0.261-0.217c0.055,0.188,0.11,0.322,0.131,0.461c0.061,0.4,0.108,0.802,0.16,1.203
		c0.105,0.808,0.23,1.614,0.308,2.424c0.142,1.471,0.255,2.946,0.38,4.419c0.048,0.562,0.052,1.132,0.153,1.685
		c0.3,1.65,0.25,3.315,0.285,4.978c0.051,2.354,0.107,4.708,0.142,7.062c0.015,0.99-0.004,1.981-0.032,2.971
		c-0.049,1.728,0.004,3.471-0.213,5.179c-0.209,1.638-0.265,3.278-0.402,4.917c-0.096,1.153-0.196,2.307-0.333,3.456
		c-0.115,0.969-0.293,1.931-0.427,2.898c-0.166,1.189-0.316,2.38-0.471,3.57c-0.022,0.173-0.017,0.351-0.048,0.522
		c-0.126,0.697-0.27,1.391-0.391,2.089c-0.084,0.484-0.147,0.971-0.214,1.458c-0.069,0.501-0.105,1.008-0.203,1.502
		c-0.166,0.838-0.386,1.665-0.553,2.503c-0.147,0.738-0.239,1.486-0.383,2.225c-0.156,0.8-0.344,1.594-0.519,2.39
		c-0.086,0.395-0.17,0.791-0.259,1.185c-0.107,0.471-0.223,0.941-0.325,1.413c-0.17,0.787-0.316,1.58-0.501,2.363
		c-0.117,0.495-0.304,0.974-0.431,1.467c-0.177,0.682-0.323,1.372-0.491,2.056c-0.155,0.635-0.318,1.269-0.481,1.902
		c-0.158,0.611-0.317,1.221-0.485,1.829c-0.266,0.96-0.531,1.92-0.812,2.875c-0.314,1.07-0.641,2.136-0.971,3.201
		c-0.253,0.816-0.508,1.631-0.783,2.439c-0.271,0.796-0.577,1.58-0.852,2.374c-0.308,0.889-0.575,1.793-0.905,2.674
		c-0.352,0.939-0.768,1.853-1.136,2.786c-0.216,0.547-0.369,1.119-0.592,1.663c-0.371,0.907-0.782,1.798-1.162,2.701
		c-0.206,0.49-0.364,1-0.578,1.486c-0.382,0.868-0.792,1.724-1.185,2.587c-0.107,0.235-0.191,0.481-0.296,0.718
		c-0.409,0.921-0.807,1.848-1.24,2.758c-0.307,0.643-0.676,1.255-0.995,1.893c-0.185,0.369-0.304,0.772-0.491,1.14
		C122.219,108.014,121.888,108.591,121.53,109.249z"/>
	<g>
		<path d="M17.052,139.375c-0.147,0.118-0.224,0.157-0.267,0.219c-0.579,0.833-1.149,1.673-1.731,2.504
			c-0.573,0.82-1.161,1.629-1.735,2.448c-0.392,0.559-0.762,1.134-1.162,1.687c-0.479,0.662-0.98,1.307-1.469,1.961
			c-0.066,0.089-0.117,0.19-0.184,0.278c-0.084,0.112-0.208,0.32-0.262,0.304c-0.139-0.04-0.274-0.162-0.366-0.284
			c-0.318-0.42-0.621-0.851-0.921-1.285c-0.396-0.572-0.775-1.157-1.177-1.725c-0.403-0.568-0.836-1.115-1.238-1.683
			c-0.765-1.081-1.514-2.174-2.277-3.257c-0.268-0.38-0.559-0.744-0.933-1.098c0,4.641,0,9.282,0,13.978
			c-1.071,0-2.072,0.007-3.073-0.013c-0.083-0.002-0.204-0.169-0.235-0.28c-0.041-0.149-0.012-0.318-0.012-0.478
			c0.001-5.84,0.006-11.681-0.006-17.521c-0.001-0.397,0.133-0.502,0.504-0.494c0.874,0.019,1.754,0.066,2.621-0.016
			c0.574-0.054,0.87,0.239,1.146,0.602c0.404,0.532,0.761,1.1,1.14,1.651c0.298,0.433,0.594,0.867,0.902,1.292
			c0.479,0.663,0.981,1.31,1.449,1.981c0.509,0.729,0.986,1.48,1.485,2.216c0.232,0.343,0.475,0.679,0.728,1.007
			c0.179,0.233,0.357,0.122,0.483-0.061c0.3-0.436,0.577-0.888,0.878-1.323c0.404-0.586,0.818-1.166,1.233-1.744
			c0.475-0.662,0.96-1.318,1.433-1.982c0.378-0.53,0.736-1.075,1.118-1.601c0.451-0.62,0.909-1.234,1.388-1.832
			c0.087-0.108,0.284-0.177,0.432-0.179c0.976-0.015,1.953,0.004,2.929-0.011c0.373-0.006,0.472,0.16,0.472,0.5
			c-0.006,5.695-0.003,11.39-0.006,17.084c-0.001,1.204-0.009,1.204-1.225,1.204c-0.666,0-1.333,0-2.061,0
			C17.052,148.733,17.052,144.102,17.052,139.375z"/>
		<path d="M139.795,134.644c1.163,0,2.27-0.01,3.377,0.012c0.154,0.003,0.349,0.13,0.448,0.259c0.382,0.496,0.731,1.017,1.095,1.527
			c0.442,0.618,0.888,1.232,1.329,1.851c0.385,0.54,0.764,1.084,1.15,1.624c0.526,0.736,1.057,1.468,1.581,2.205
			c0.322,0.453,0.635,0.911,0.998,1.432c0.157-0.176,0.337-0.348,0.481-0.546c0.189-0.259,0.336-0.55,0.528-0.807
			c0.357-0.477,0.736-0.937,1.1-1.41c0.091-0.119,0.153-0.259,0.237-0.385c0.419-0.629,0.827-1.266,1.264-1.883
			c0.441-0.623,0.916-1.222,1.366-1.839c0.418-0.573,0.807-1.168,1.243-1.726c0.12-0.154,0.36-0.295,0.549-0.3
			c0.99-0.03,1.982-0.005,2.973-0.02c0.341-0.005,0.488,0.078,0.487,0.463c-0.011,5.957-0.009,11.915,0,17.872
			c0,0.326-0.074,0.474-0.433,0.465c-0.801-0.021-1.603-0.005-2.405-0.01c-0.408-0.003-0.487-0.132-0.443-0.533
			c0.046-0.425,0.056-0.857,0.057-1.285c0.004-3.35,0.005-6.7-0.003-10.05c-0.001-0.443-0.072-0.885-0.085-1.328
			c-0.005-0.167,0.078-0.335,0.091-0.505c0.006-0.083-0.055-0.172-0.086-0.258c-0.074,0.045-0.17,0.073-0.22,0.138
			c-0.408,0.527-0.824,1.048-1.204,1.595c-0.476,0.685-0.902,1.405-1.384,2.086c-0.349,0.493-0.759,0.942-1.128,1.422
			c-0.141,0.184-0.232,0.407-0.362,0.601c-0.389,0.578-0.778,1.156-1.183,1.723c-0.392,0.549-0.804,1.083-1.204,1.626
			c-0.152,0.207-0.238,0.208-0.404-0.024c-0.676-0.947-1.392-1.867-2.074-2.81c-0.271-0.375-0.481-0.794-0.742-1.177
			c-0.553-0.813-1.11-1.624-1.688-2.419c-0.355-0.49-0.769-0.937-1.123-1.428c-0.262-0.363-0.46-0.772-0.708-1.147
			c-0.068-0.103-0.214-0.155-0.431-0.303c0,4.789,0,9.413,0,14.059c-1.032,0-2.018,0-3.044,0
			C139.795,147.164,139.795,140.929,139.795,134.644z"/>
		<path d="M131.972,144.076c0,0.349,0.064,0.713-0.012,1.046c-0.242,1.069-0.468,2.149-0.829,3.181
			c-0.377,1.08-1.081,2.008-1.889,2.799c-0.609,0.596-1.38,1.031-2.097,1.511c-0.864,0.578-1.883,0.733-2.848,1.049
			c-0.682,0.223-1.365,0.225-2.033,0.3c-0.888,0.099-1.808,0.016-2.683-0.296c-0.456-0.163-0.929-0.306-1.407-0.373
			c-0.739-0.103-1.297-0.559-1.901-0.909c-0.693-0.402-1.275-0.951-1.829-1.551c-0.583-0.632-1.063-1.312-1.425-2.072
			c-0.494-1.039-0.901-2.112-0.919-3.294c-0.009-0.578-0.158-1.162-0.1-1.73c0.11-1.084,0.234-2.182,0.521-3.228
			c0.2-0.732,0.657-1.4,1.04-2.074c0.589-1.038,1.427-1.874,2.405-2.524c0.857-0.569,1.8-0.979,2.8-1.316
			c1.679-0.565,3.366-0.424,5.057-0.355c0.461,0.019,0.963,0.063,1.425,0.342c0.449,0.271,1.045,0.292,1.512,0.543
			c0.71,0.38,1.411,0.807,2.03,1.318c0.829,0.685,1.458,1.543,1.991,2.499c0.526,0.942,0.795,1.926,0.957,2.965
			c0.112,0.718,0.235,1.435,0.354,2.153C132.052,144.065,132.012,144.071,131.972,144.076z M121.981,137.285
			c-0.538,0.032-1.098-0.021-1.609,0.114c-1.104,0.293-2.072,0.844-2.917,1.649c-0.669,0.637-1.1,1.415-1.452,2.215
			c-0.422,0.957-0.49,2.022-0.396,3.067c0.066,0.728,0.155,1.468,0.36,2.164c0.207,0.7,0.615,1.318,1.023,1.944
			c0.583,0.895,1.405,1.463,2.292,1.878c0.746,0.349,1.631,0.484,2.466,0.538c1.206,0.078,2.398-0.16,3.435-0.823
			c0.604-0.387,1.23-0.816,1.665-1.368c0.474-0.602,0.973-1.237,1.123-2.051c0.13-0.708,0.361-1.397,0.486-2.106
			c0.188-1.061-0.173-2.066-0.46-3.058c-0.151-0.522-0.302-1.083-0.747-1.494c-0.378-0.349-0.677-0.782-1.053-1.133
			c-0.371-0.346-0.755-0.719-1.204-0.93C124.051,137.447,123.042,137.215,121.981,137.285z"/>
		<path d="M52.489,153.407c0-6.263,0-12.486,0-18.765c0.229,0,0.428,0,0.627,0c2.36,0.001,4.72-0.016,7.08,0.01
			c1.079,0.012,2.159,0.153,3.173,0.526c1.048,0.386,2.076,0.853,2.928,1.599c0.439,0.384,0.79,0.868,1.194,1.293
			c0.657,0.692,0.941,1.566,1.309,2.422c0.73,1.697,0.608,3.447,0.495,5.192c-0.057,0.884-0.48,1.706-0.818,2.538
			c-0.484,1.191-1.354,2.083-2.261,2.879c-0.779,0.683-1.74,1.183-2.752,1.578c-0.822,0.32-1.663,0.479-2.5,0.688
			c-0.332,0.083-0.695,0.057-1.044,0.057c-2.389,0.004-4.778,0.003-7.167,0.002C52.68,153.426,52.609,153.416,52.489,153.407z
			 M55.804,150.329c0.109,0.022,0.166,0.046,0.22,0.042c1.49-0.109,3.002,0.255,4.478-0.24c0.716-0.24,1.506-0.297,2.18-0.613
			c0.586-0.275,1.029-0.836,1.582-1.2c0.686-0.452,0.823-1.236,1.204-1.865c0.232-0.383,0.314-0.896,0.341-1.358
			c0.082-1.437,0.047-2.844-0.604-4.209c-0.466-0.976-1.189-1.654-2.036-2.196c-0.603-0.385-1.327-0.639-2.031-0.79
			c-0.77-0.166-1.58-0.17-2.374-0.2c-0.8-0.03-1.604,0.018-2.404-0.016c-0.438-0.018-0.571,0.105-0.568,0.556
			c0.019,3.525,0.011,7.05,0.011,10.574C55.804,149.309,55.804,149.803,55.804,150.329z"/>
		<path d="M106.27,153.428c-0.572,0-1.105,0-1.639,0c-0.481,0-0.962,0-1.443,0.001c-0.635,0.002-0.679-0.068-0.946-0.638
			c-0.365-0.779-0.8-1.526-1.188-2.295c-0.204-0.403-0.337-0.844-0.563-1.233c-0.709-1.216-1.353-2.464-2.632-3.254
			c-0.932-0.575-1.907-0.537-2.905-0.505c-0.108,0.003-0.287,0.265-0.297,0.416c-0.037,0.536-0.015,1.077-0.015,1.616
			c0,1.806,0,3.612-0.001,5.417c0,0.142-0.013,0.284-0.022,0.45c-1.102,0-2.174,0-3.297,0c-0.014-0.153-0.041-0.306-0.041-0.459
			c0-5.927,0.005-11.854-0.004-17.781c-0.001-0.382,0.073-0.533,0.5-0.529c2.244,0.022,4.488-0.022,6.731,0.023
			c1.048,0.021,2.131,0.099,3.092,0.537c0.689,0.314,1.408,0.625,1.951,1.239c0.47,0.531,0.758,1.107,1.017,1.761
			c0.449,1.134,0.423,2.283,0.144,3.384c-0.209,0.826-0.62,1.636-1.318,2.253c-0.443,0.392-0.899,0.705-1.457,0.884
			c-0.316,0.101-0.445,0.371-0.245,0.537c0.954,0.788,1.487,1.86,2.03,2.928c0.27,0.532,0.532,1.069,0.788,1.608
			c0.338,0.711,0.655,1.432,1.003,2.138c0.202,0.41,0.45,0.798,0.671,1.2C106.224,153.197,106.231,153.285,106.27,153.428z
			 M94.644,140.05c0,0.698,0.015,1.397-0.007,2.095c-0.011,0.331,0.073,0.468,0.43,0.46c1.048-0.024,2.097-0.037,3.144-0.017
			c0.806,0.016,1.578-0.148,2.195-0.633c0.382-0.3,0.74-0.794,0.832-1.256c0.114-0.574,0.183-1.199-0.19-1.813
			c-0.282-0.463-0.643-0.806-1.074-0.985c-0.544-0.226-1.165-0.324-1.759-0.355c-1.045-0.056-2.096-0.012-3.144-0.028
			c-0.324-0.005-0.439,0.117-0.433,0.436C94.653,138.653,94.643,139.351,94.644,140.05z"/>
		<path d="M33.499,137.694c-0.02,0.616-0.048,1.178-0.053,1.74c-0.008,0.874,0.011,1.748-0.004,2.622
			c-0.006,0.37,0.121,0.514,0.504,0.512c2.55-0.011,5.101-0.005,7.651-0.005c0.23,0,0.46,0,0.748,0c0,0.951,0.012,1.863-0.018,2.775
			c-0.003,0.094-0.253,0.255-0.391,0.258c-0.961,0.024-1.924,0.014-2.886,0.015c-1.691,0-3.382,0.011-5.072-0.009
			c-0.399-0.005-0.547,0.115-0.541,0.519c0.017,1.282,0.019,2.564-0.001,3.845c-0.005,0.344,0.12,0.414,0.433,0.414
			c2.886-0.008,5.772-0.003,8.658-0.002c0.549,0,0.569,0.019,0.571,0.565c0.002,0.67-0.026,1.342,0.011,2.01
			c0.022,0.407-0.134,0.483-0.499,0.481c-3.119-0.011-6.238-0.006-9.357-0.006c-0.918,0-1.837-0.009-2.755,0.006
			c-0.319,0.005-0.425-0.094-0.424-0.425c0.009-5.958,0.01-11.916-0.001-17.874c-0.001-0.389,0.124-0.499,0.502-0.498
			c3.994,0.011,7.987,0.012,11.981,0c0.426-0.001,0.565,0.151,0.55,0.561c-0.025,0.669-0.034,1.341-0.003,2.009
			c0.018,0.391-0.112,0.497-0.493,0.495c-2.624-0.014-5.247-0.007-7.871-0.007C34.361,137.694,33.983,137.694,33.499,137.694z"/>
		<path d="M78.279,144.026c0-2.956,0.008-5.913-0.01-8.869c-0.003-0.426,0.16-0.526,0.536-0.519c0.787,0.015,1.574,0.005,2.36,0.004
			c0.533,0,0.573,0.038,0.573,0.566c0,2.563,0,5.126,0,7.689c0,3.306-0.001,6.612-0.001,9.918c0,0.592-0.024,0.615-0.614,0.614
			c-0.801-0.001-1.603-0.008-2.404,0.003c-0.325,0.005-0.451-0.092-0.449-0.45C78.286,149.997,78.28,147.011,78.279,144.026z"/>
	</g>
</g>
</svg>
