<?xml version="1.0" encoding="utf-8"?>
<!-- Generator: Adobe Illustrator 27.9.0, SVG Export Plug-In . SVG Version: 6.00 Build 0)  -->
<svg version="1.1" id="Layer_1" xmlns="http://www.w3.org/2000/svg" xmlns:xlink="http://www.w3.org/1999/xlink" x="0px" y="0px"
	 width="160px" height="160px" viewBox="0 0 160 160" enable-background="new 0 0 160 160" xml:space="preserve">
<linearGradient id="SVGID_1_" gradientUnits="userSpaceOnUse" x1="15.5011" y1="141.8989" x2="67.4037" y2="100.0927">
	<stop  offset="0" style="stop-color:#F89520"/>
	<stop  offset="1" style="stop-color:#FD1011"/>
</linearGradient>
<path fill="url(#SVGID_1_)" d="M130.766,57.443c0.595,0.217,0.879-0.151,1.251-0.545c0.907-0.96,1.921-1.819,2.842-2.767
	c2.286-2.599,4.912-5.004,7.38-7.362c4.649-3.515,6.545-8.13,13.205-6.59c4.401,1.642,6.361,8.596,2.458,11.849
	c-4.809,4.312-9.593,8.705-14.091,13.328c-2.142,1.838-3.874,3.971-5.728,6.078c-1.072,1.339-3.5,2.635-2.129,4.55
	c0.337,2.402,0.565,4.868,0.653,7.293c0.507,10.91-0.634,21.938-4.854,32.018c-2.994,5.83-6.664,12.245-13.074,14.809
	c-3.95,2.305-10.614,2.136-14.632,0.021c-24.956-12.066,1.141-42.999,12.257-56.348c1.031-1.46,3.504-2.816,3.448-4.693
	c-2.324-7.031-5.628-14.089-11.282-19.039c-7.123-6.368-16.437-7.92-25.697-7.196c-7.476,0.784-14.309,4.21-20.621,8.1
	c-6.402,4.45-12.187,9.907-17.094,15.969c-2.074,2.711-4.683,5.151-6.1,8.174c-6.397,8.783-11.776,18.564-16.235,28.547
	c-2.74,5.286-4.554,10.915-6.849,16.367c-1.254,3.01-1.341,6.804-4.053,8.922c-3.982,4.34-12.425,0.506-11.788-5.424
	c-0.087-1.441,0.196-2.78,0.947-4.038c0.762-2.791,1.663-5.59,2.871-8.243c2.314-5.466,4.247-11.052,7.01-16.278
	c9.845-20.833,22.827-41.437,41.873-55.073C79.848,20.683,117.048,24.317,130.766,57.443z M121.854,89.741
	c-5.052,6.914-11.327,13.259-13.79,21.462c-1.66,10.011,6.43,6.986,9.172,0.445C120.528,105.034,122.426,97.219,121.854,89.741z"/>
</svg>
