<?xml version="1.0" encoding="UTF-8"?><svg id="a" xmlns="http://www.w3.org/2000/svg" xmlns:xlink="http://www.w3.org/1999/xlink" viewBox="0 0 600 160"><defs><style>.n,.o,.p,.q{fill:none;}.n,.p,.q,.r,.s{stroke-linecap:round;stroke-linejoin:round;}.n,.q{stroke:#f6cd51;}.o,.t,.u,.v,.w,.x,.y,.z,.aa,.ab{stroke-width:0px;}.p{stroke:url(#m);}.p,.r,.s{stroke-width:2px;}.q{stroke-dasharray:0 0 3.73 3.73;}.r{fill:url(#d);stroke:url(#e);}.s{fill:url(#h);stroke:url(#i);}.t{fill:#0d0910;}.u{fill:#cebfd9;}.v{fill:url(#b);}.w{fill:url(#c);}.x{fill:url(#f);}.y{fill:url(#j);}.z{fill:url(#g);}.aa{fill:url(#k);}.ab{fill:url(#l);}</style><linearGradient id="b" x1="376" y1="60" x2="376" y2="68" gradientUnits="userSpaceOnUse"><stop offset="0" stop-color="#f6cd51"/><stop offset="1" stop-color="#f48e2a"/></linearGradient><linearGradient id="c" x1="444" x2="444" xlink:href="#b"/><linearGradient id="d" x1="520" y1="113" x2="520" y2="3" gradientTransform="translate(0 122) scale(1 -1)" gradientUnits="userSpaceOnUse"><stop offset="0" stop-color="#0d0a10"/><stop offset="1" stop-color="#281d30"/></linearGradient><linearGradient id="e" x1="520" y1="112.67" x2="520" y2="3.33" gradientTransform="translate(0 122) scale(1 -1)" xlink:href="#b"/><linearGradient id="f" x1="156" x2="156" xlink:href="#b"/><linearGradient id="g" x1="224" x2="224" xlink:href="#b"/><linearGradient id="h" x1="80.8" y1="120" x2="80.8" y2="-4" xlink:href="#d"/><linearGradient id="i" x1="80.8" y1="119.69" x2="80.8" y2="-3.69" gradientTransform="translate(0 122) scale(1 -1)" xlink:href="#b"/><linearGradient id="j" x1="80" y1="90" x2="80" y2="26" gradientTransform="translate(0 122) scale(1 -1)" xlink:href="#b"/><linearGradient id="k" x1="300" y1="113" x2="300" y2="3" xlink:href="#d"/><linearGradient id="l" x1="334.53" y1="113" x2="334.53" y2="3" gradientTransform="translate(0 122) scale(1 -1)" gradientUnits="userSpaceOnUse"><stop offset="0" stop-color="#0d0a10"/><stop offset="1" stop-color="#281d30"/></linearGradient><linearGradient id="m" x1="300" y1="112.67" x2="300" y2="3.32" gradientTransform="translate(0 122) scale(1 -1)" xlink:href="#b"/></defs><line class="n" x1="380" y1="64" x2="382" y2="64"/><line class="q" x1="385.73" y1="64" x2="436.13" y2="64"/><line class="n" x1="438" y1="64" x2="440" y2="64"/><circle class="t" cx="376" cy="64" r="4"/><path class="v" d="m376,61c1.65,0,3,1.35,3,3s-1.35,3-3,3-3-1.35-3-3,1.35-3,3-3m0-1c-2.21,0-4,1.79-4,4s1.79,4,4,4,4-1.79,4-4-1.79-4-4-4h0Z"/><polygon class="t" points="448 64 440 60 440 68 448 64"/><path class="w" d="m441,61.62l4.76,2.38-4.76,2.38v-4.76m-1-1.62v8l8-4-8-4h0Z"/><path class="u" d="m451.58,148.67c1.02.54,2.82,1.65,3.6,2.38l.64-1.02c-.77-.64-2.51-1.73-3.65-2.32l-.59.96Z"/><path class="u" d="m450.48,152.06c-1.04,0-2.3.2-3.5.58,0-.19,0-.38,0-.55,0-.65.01-1.41.03-2.16,1.17-.14,2.41-.35,3.35-.58l-.03-1.25c-.9.27-2.11.5-3.28.64.02-.71.05-1.34.07-1.71.02-.38.05-.82.1-1.1h-1.41c.05.26.08.82.08,1.12s-.01.99-.03,1.82c-.45.03-.87.05-1.24.05-.58,0-1.15-.02-2.03-.13l.03,1.23c.53.05,1.14.08,2.03.08.34,0,.75-.02,1.19-.06-.01.72-.02,1.46-.02,2.1,0,.29,0,.6,0,.91-1.84.79-3.51,2.17-3.51,3.49,0,1.44,2.08,2.66,3.33,2.66.88,0,1.42-.48,1.42-1.95,0-.7-.04-2.11-.06-3.47,1.14-.4,2.27-.62,3.49-.62,1.5,0,2.74.72,2.74,2.08,0,1.49-1.28,2.24-2.67,2.51-.61.13-1.28.11-1.89.11l.45,1.28c.56-.03,1.28-.06,1.98-.22,2.21-.51,3.42-1.74,3.42-3.68s-1.68-3.18-4.03-3.18Zm-5.17,5.81c-.62,0-1.74-.64-1.74-1.36s.96-1.64,2.27-2.26c.02,1.17.05,2.26.05,2.84,0,.53-.21.78-.58.78Z"/><path class="u" d="m467.5,152.22c1.18.99,1.76,2.18,1.76,3.25,0,1.66-1.55,2.72-3.98,2.72-1.82,0-2.7-.94-2.7-2.5,0-.4.04-.96.1-1.62.2,0,.4.02.59.02,1.07,0,2.06-.03,3.14-.14l.02-1.22c-1.12.16-2.22.19-3.33.19-.09,0-.2,0-.29,0,.1-.93.23-1.94.35-2.88.03,0,.07,0,.1,0,1.3,0,2.24-.05,3.26-.14l.03-1.22c-.94.14-2.04.21-3.25.21.09-.66.16-1.24.21-1.65.06-.35.11-.69.21-1.12l-1.42-.08c.03.29.03.58-.02,1.14-.04.46-.1,1.04-.17,1.67-1.19-.08-2.51-.28-3.51-.6l-.08,1.17c1.01.28,2.29.47,3.45.57-.12.95-.25,1.95-.36,2.88-1.13-.08-2.35-.26-3.41-.63l-.06,1.22c.97.3,2.15.47,3.35.56-.08.76-.13,1.42-.13,1.87,0,2.61,1.76,3.57,3.92,3.57,3.17,0,5.3-1.46,5.3-3.84,0-1.36-.54-2.48-1.65-3.7l-1.41.3Z"/><path class="u" d="m497.12,149.09l-.03-1.18c-.81.27-1.66.45-2.51.58.26-.92.48-1.89.64-2.47l-1.41-.14c-.04.86-.25,1.88-.51,2.76-.62.05-1.23.09-1.8.09-.69,0-1.38-.03-1.97-.1l.1,1.2c.59.02,1.28.03,1.87.03.46,0,.93-.02,1.4-.05-.71,1.87-2.09,4.45-3.42,6l1.23.64c1.29-1.73,2.7-4.51,3.49-6.78,1.05-.14,2.06-.35,2.91-.58Z"/><path class="u" d="m481.79,147.34c-2.96.26-5.97.54-7.01.66-.32.03-.83.06-1.44.08l.14,1.41c1.74-.37,5.81-.77,7.54-.94-1.47.86-2.99,2.9-2.99,5.39,0,3.58,3.36,5.15,6.34,5.26l.45-1.31c-2.59-.11-5.52-1.1-5.52-4.22,0-1.89,1.39-4.34,3.68-5.07.82-.22,2.21-.26,3.14-.24l-.02-1.28c-1.07.03-2.56.13-4.3.27Z"/><path class="u" d="m564.88,149.84h2.29v-1.15h-2.29v-3.26h-1.17v3.26h-3.12v-3.25h-1.18v3.25h-2.06v1.15h2.06v3.95h-2.46v1.18h10.42v-1.18h-2.48v-3.95Zm-4.29,0h3.12v3.95h-3.12v-3.95Z"/><path class="u" d="m564.32,155.9l-.94.54c1.07,1.07,2.26,2.56,2.8,3.55l1.01-.64c-.58-.98-1.76-2.4-2.86-3.46Z"/><path class="u" d="m550.14,145.79h-7.6v5.25h7.6v-5.25Zm-1.15,4.32h-5.34v-1.28h5.34v1.28Zm0-2.13h-5.34v-1.28h5.34v1.28Z"/><path class="u" d="m593.14,151.41c-.72,0-1.49.08-2.22.32,1.25-1.02,3.42-2.9,4.21-3.5.3-.24.62-.45.91-.64l-.74-.94c-.18.06-.4.1-.88.14-.85.08-4.64.19-5.49.19-.32,0-.77-.02-1.12-.05l.03,1.31c.35-.05.7-.06,1.07-.1.83-.05,4.03-.18,4.88-.22-.8.72-2.82,2.4-3.71,3.14-.91.78-2.98,2.51-4.3,3.6l.93.93c2.02-2.06,3.46-3.18,6.11-3.18,2.1,0,3.6,1.17,3.6,2.75,0,1.31-.74,2.23-2.01,2.72-.21-1.5-1.27-2.83-3.27-2.83-1.47,0-2.46.99-2.46,2.08,0,1.34,1.33,2.29,3.5,2.29,3.39,0,5.52-1.68,5.52-4.26,0-2.16-1.9-3.74-4.56-3.74Zm-1.15,6.86c-1.26,0-2.14-.46-2.14-1.25,0-.56.56-1.01,1.3-1.01,1.22,0,1.98.89,2.13,2.15-.4.06-.82.11-1.29.11Z"/><path class="u" d="m546.86,158.59v-2.52h3.36v-.99h-3.36v-1.87h4.16v-1.01h-9.22v1.01h3.94v5.07c-.91-.39-1.64-1.13-2.09-2.5.13-.53.23-1.09.3-1.68l-1.09-.13c-.26,2.37-.98,4.18-2.4,5.31.24.18.7.53.9.72.84-.75,1.47-1.75,1.92-2.97,1.04,2.29,2.74,2.73,5.08,2.73h2.82c.03-.3.19-.82.35-1.07-.56.02-2.72.02-3.12.02-.54,0-1.06-.03-1.54-.1Z"/><path class="u" d="m541.52,153.39l-.18-1.1c-.54.17-1.08.35-1.62.51v-3.18h1.78v-1.12h-1.78v-3.22h-1.12v3.22h-1.98v1.12h1.98v3.53c-.81.25-1.56.47-2.16.63l.3,1.17c.56-.18,1.2-.38,1.86-.6v4.14c0,.24-.06.3-.27.3-.19,0-.8,0-1.5-.02.16.34.3.83.35,1.12,1.01,0,1.63-.03,2-.22.4-.19.54-.51.54-1.17v-4.52c.59-.19,1.2-.39,1.79-.59Z"/><path class="u" d="m557.42,145.66l-1.14-.35c-.9,2.43-2.4,4.83-3.97,6.38.22.27.56.91.69,1.18.54-.56,1.07-1.22,1.58-1.94v9.03h1.18v-10.87c.63-1.1,1.2-2.26,1.65-3.43Z"/><path class="u" d="m556.85,159.2c.27.16.74.54.96.75,1.07-.91,2.29-2.34,3.07-3.73l-1.14-.35c-.69,1.23-1.79,2.5-2.9,3.33Z"/><path class="u" d="m511.71,158.21c-1.52,0-2.62-.61-2.62-2.37,0-2.38.13-6.18.19-7.98.03-.53.08-1.09.16-1.62h-1.63c.1.46.14,1.02.14,1.62,0,1.68-.16,5.73-.16,8.1,0,2.62,1.58,3.57,3.89,3.57,3.5,0,5.58-2,6.67-3.52l-.9-1.09c-1.15,1.66-2.82,3.3-5.74,3.3Z"/><path class="u" d="m498.53,149.17c1.06.5,2.8,1.47,3.66,2.21l.72-1.06c-.77-.58-2.58-1.62-3.74-2.11l-.64.96Z"/><path class="u" d="m498.96,152.67c-.02-.58-.02-1.06.03-1.71h-1.26c.04,1.13.13,2.71.19,4.03-.5-.1-1.02-.17-1.58-.17-1.79,0-3.18.93-3.18,2.4,0,1.6,1.42,2.3,3.18,2.3,1.98,0,2.8-1.04,2.8-2.32,0-.18,0-.41-.01-.66,1.04.51,1.92,1.22,2.6,1.84l.67-1.09c-.82-.71-1.94-1.51-3.32-2-.04-.99-.1-2.03-.12-2.63Zm-.99,4.13c0,.86-.45,1.57-1.78,1.57-1.25,0-1.87-.51-1.87-1.25s.8-1.28,1.98-1.28c.58,0,1.13.09,1.65.24,0,.27.01.53.01.72Z"/><path class="u" d="m577.93,148.1c0-.43.01-.81.02-1.06,0-.19.05-.82.08-1.01h-1.47c.03.14.08.59.11,1.02.01.23.02.6.03,1.05-2.39.04-5.4.14-7.18.16l.03,1.23c2.01-.15,4.73-.25,7.17-.28,0,.57.01,1.16.01,1.64-.32-.12-.67-.2-1.07-.2-1.52,0-2.83,1.18-2.83,2.77,0,1.74,1.3,2.69,2.64,2.69.52,0,.98-.14,1.36-.42-.66,1.44-2.11,2.32-4.21,2.82l1.07,1.04c3.71-1.1,4.77-3.5,4.77-5.68,0-.78-.18-1.47-.52-2.01,0-.74-.02-1.73-.02-2.66.07,0,.15,0,.22,0,2.35,0,3.79.03,4.69.08l.02-1.18c-.75-.02-2.74-.02-4.69-.02-.07,0-.16,0-.23,0Zm-2.27,6.91c-.88,0-1.63-.58-1.63-1.58s.78-1.7,1.63-1.7c.62,0,1.15.32,1.4,1.02.14,1.52-.47,2.26-1.4,2.26Z"/><path class="u" d="m534.1,151.65l-.51-1.18c-.45.22-.85.4-1.33.62-.82.39-1.8.78-2.91,1.3-.24-.94-1.08-1.46-2.11-1.46-.7,0-1.62.22-2.24.59.55-.72,1.06-1.61,1.45-2.47,1.74-.06,3.72-.2,5.32-.44v-1.18c-1.51.27-3.24.41-4.88.48.24-.74.37-1.36.48-1.84l-1.31-.11c-.04.58-.18,1.29-.41,1.99-.37,0-.72.01-1.06.01-.74,0-1.84-.05-2.7-.16v1.2c.9.06,1.95.1,2.64.1.21,0,.45,0,.68,0-.6,1.3-1.67,2.96-3.69,4.89l1.1.82c.53-.66.98-1.23,1.44-1.68.74-.66,1.74-1.17,2.77-1.17.71,0,1.28.32,1.44,1-1.86.96-3.76,2.15-3.76,4.06s1.84,2.43,4.11,2.43c1.39,0,3.17-.13,4.38-.27l.05-1.3c-1.41.26-3.14.4-4.38.4-1.65,0-2.88-.19-2.88-1.44,0-1.06,1.04-1.9,2.53-2.71,0,.84-.02,1.89-.07,2.51h1.23c-.01-.8-.04-2.14-.04-3.07,1.21-.57,2.36-1.04,3.26-1.39.43-.16,1.01-.38,1.41-.51Z"/><path class="r" d="m571.25,19.49c14.33,13.99,14.33,36.04,0,50.02l-51.25,49.49-51.25-49.49c-14.33-13.99-14.33-36.04,0-50.02,14.33-13.99,36.92-13.99,51.25,0,14.33-13.99,36.92-13.99,51.25,0Z"/><rect class="o" x="456" y="0" width="128" height="128"/><rect class="o" x="440" y="0" width="160" height="160"/><line class="n" x1="160" y1="64" x2="162" y2="64"/><line class="q" x1="165.73" y1="64" x2="216.13" y2="64"/><line class="n" x1="218" y1="64" x2="220" y2="64"/><circle class="t" cx="156" cy="64" r="4"/><path class="x" d="m156,61c1.65,0,3,1.35,3,3s-1.35,3-3,3-3-1.35-3-3,1.35-3,3-3m0-1c-2.21,0-4,1.79-4,4s1.79,4,4,4,4-1.79,4-4-1.79-4-4-4h0Z"/><polygon class="t" points="228 64 220 60 220 68 228 64"/><path class="z" d="m221,61.62l4.76,2.38-4.76,2.38v-4.76m-1-1.62v8l8-4-8-4h0Z"/><path class="u" d="m45.5,149.89h2.29v-1.15h-2.29v-3.44h-1.15v3.44h-2.61v1.15h2.43c-.55,2.22-1.68,4.71-2.8,6.06.21.27.51.75.64,1.09.86-1.1,1.7-2.9,2.34-4.76v7.72h1.15v-7.32c.61.79,1.33,1.79,1.63,2.33l.75-.99c-.36-.42-1.82-2.12-2.38-2.7v-1.43Z"/><path class="u" d="m48.5,159.92h1.15v-.99h4.88v.94h1.2v-13.63h-7.23v13.68Zm1.15-2.1v-2.78h4.88v2.78h-4.88Zm4.88-3.89h-4.88v-2.77h4.88v2.77Zm0-6.54v2.67h-4.88v-2.67h4.88Z"/><path class="u" d="m87.02,151.68l-.51-1.18c-.45.22-.85.4-1.33.62-.82.39-1.8.78-2.91,1.3-.24-.94-1.08-1.46-2.11-1.46-.7,0-1.62.22-2.24.59.55-.72,1.06-1.61,1.45-2.47,1.74-.06,3.72-.2,5.32-.44v-1.18c-1.51.27-3.24.41-4.88.48.24-.74.37-1.36.48-1.84l-1.31-.11c-.04.58-.18,1.29-.41,1.99-.37,0-.72.01-1.06.01-.74,0-1.84-.05-2.7-.16v1.2c.9.06,1.95.1,2.64.1.21,0,.45,0,.68,0-.6,1.3-1.67,2.96-3.69,4.89l1.1.82c.53-.66.98-1.23,1.44-1.68.74-.66,1.74-1.17,2.77-1.17.71,0,1.28.32,1.44,1-1.86.96-3.76,2.15-3.76,4.06s1.84,2.43,4.11,2.43c1.39,0,3.17-.13,4.38-.27l.05-1.3c-1.41.26-3.14.4-4.38.4-1.65,0-2.88-.19-2.88-1.44,0-1.06,1.04-1.9,2.53-2.71,0,.84-.02,1.89-.07,2.51h1.23c-.01-.8-.04-2.14-.04-3.07,1.21-.57,2.36-1.04,3.26-1.39.43-.16,1.01-.38,1.41-.51Z"/><path class="u" d="m114.06,151.44c-.72,0-1.49.08-2.22.32,1.25-1.02,3.42-2.9,4.21-3.5.3-.24.62-.45.91-.64l-.74-.94c-.18.06-.4.1-.88.14-.85.08-4.64.19-5.49.19-.32,0-.77-.02-1.12-.05l.03,1.31c.35-.05.7-.06,1.07-.1.83-.05,4.03-.18,4.88-.22-.8.72-2.82,2.4-3.71,3.14-.91.78-2.98,2.51-4.3,3.6l.93.93c2.02-2.06,3.46-3.18,6.11-3.18,2.1,0,3.6,1.17,3.6,2.75,0,1.31-.74,2.23-2.01,2.72-.21-1.5-1.27-2.83-3.27-2.83-1.47,0-2.46.99-2.46,2.08,0,1.34,1.33,2.29,3.5,2.29,3.39,0,5.52-1.68,5.52-4.26,0-2.16-1.9-3.74-4.56-3.74Zm-1.15,6.86c-1.26,0-2.14-.46-2.14-1.25,0-.56.56-1.01,1.3-1.01,1.22,0,1.98.89,2.13,2.15-.4.06-.82.11-1.29.11Z"/><path class="u" d="m97.68,159.57h1.15v-1.28h3.41v1.1h1.2v-12.7h-5.76v12.88Zm4.56-11.74v9.33h-3.41v-9.33h3.41Z"/><path class="u" d="m65.57,150.99h5.7v-1.15h-5.7v-2.61c1.89-.23,3.65-.53,5.01-.93l-.9-.98c-2.43.75-7.1,1.18-10.91,1.36.11.27.26.75.29,1.06,1.67-.07,3.49-.19,5.26-.37v2.47h-5.54v1.15h5.54v2.61h-6.61v1.17h6.61v3.57c0,.34-.13.45-.5.45-.35.02-1.63.03-2.96-.02.19.32.42.86.5,1.2,1.7.02,2.74-.02,3.34-.21.61-.19.86-.56.86-1.41v-3.58h6.59v-1.17h-6.59v-2.61Z"/><path class="u" d="m94.16,151.22v-2.64h2.53v-1.12h-4.59c.2-.63.37-1.28.51-1.94l-1.17-.22c-.38,1.95-1.04,3.87-2,5.1.27.16.78.5.99.69.48-.69.91-1.55,1.28-2.51h1.24v2.62c0,.18,0,.37,0,.56h-3.3v1.15h3.23c-.21,2.12-.97,4.44-3.41,6.18.26.18.69.64.85.9,1.84-1.31,2.82-3.03,3.33-4.76.87,1,2.12,2.52,2.65,3.29l.82-1.01c-.48-.57-2.42-2.76-3.18-3.49.07-.37.12-.74.15-1.1h3.09v-1.15h-3.02c0-.18,0-.37,0-.54Z"/><path class="s" d="m127.98,58.43C160.34,18.35,85.05-16.74,54.25,13.25c-26.86,0-35.78,29.69-20.64,45.18-4.87,0-8.81,3.8-8.81,8.5s2.9,19.69,11.61,19.69c6.43,20.49,17.84,39.38,44.39,39.38s37.96-18.89,44.39-39.38c8.61,0,11.61-15.09,11.61-19.69s-3.94-8.5-8.81-8.5Z"/><path class="y" d="m72.38,76.51v-1.04c.02-3.55.34-6.38.97-8.49.64-2.11,1.58-3.82,2.81-5.12,1.23-1.3,2.7-2.48,4.43-3.53,1.29-.81,2.44-1.65,3.46-2.53,1.02-.87,1.83-1.84,2.43-2.89.6-1.08.9-2.27.9-3.59,0-1.4-.34-2.63-1.03-3.68-.69-1.06-1.61-1.87-2.78-2.44-1.14-.57-2.41-.85-3.8-.85s-2.63.29-3.84.88c-1.21.57-2.19,1.42-2.96,2.56-.77,1.12-1.18,2.51-1.25,4.17h-12.72c.1-4.06,1.1-7.41,2.99-10.05,1.89-2.66,4.4-4.64,7.51-5.94,3.12-1.32,6.56-1.98,10.32-1.98,4.14,0,7.8.67,10.98,2.01,3.18,1.32,5.67,3.24,7.48,5.75,1.81,2.52,2.71,5.55,2.71,9.1,0,2.37-.41,4.49-1.22,6.33-.79,1.83-1.9,3.45-3.34,4.87-1.43,1.4-3.13,2.67-5.08,3.81-1.64.95-2.99,1.95-4.05,2.98-1.04,1.04-1.82,2.23-2.34,3.59-.5,1.36-.76,3.04-.78,5.02v1.04h-11.82Zm6.17,19.49c-2.08,0-3.86-.71-5.33-2.13-1.46-1.44-2.17-3.17-2.15-5.18-.02-1.99.7-3.69,2.15-5.12,1.48-1.42,3.25-2.13,5.33-2.13s3.71.71,5.21,2.13c1.5,1.42,2.26,3.13,2.28,5.12-.02,1.34-.38,2.57-1.09,3.68-.69,1.1-1.59,1.98-2.71,2.65-1.12.65-2.35.97-3.68.97Z"/><rect class="o" x="16" y="0" width="128" height="128"/><rect class="o" y="0" width="160" height="160"/><path class="u" d="m250.9,159.97h1.12v-.96h7.09v.83h1.15v-13.62h-9.36v13.74Zm8.21-12.67v10.64h-7.09v-10.64h7.09Z"/><path class="u" d="m330.1,147.06c-.58-.54-1.7-1.23-2.61-1.65l-.69.85c.93.46,2.03,1.22,2.56,1.76l.74-.96Z"/><path class="u" d="m353.02,146.91c-1.55-.02-5.02-.35-6.8-.75l-.19,1.22c1.81.32,5.02.64,6.8.77l.19-1.23Z"/><path class="u" d="m255.1,152.32h-1.76v4.29h4.59v-4.29h-1.86v-1.76h2.48v-.94h-2.48v-1.81h-.98v1.81h-2.43v.94h2.43v1.76Zm1.87,3.38h-2.7v-2.48h2.7v2.48Z"/><polygon class="u" points="295.73 147.58 307.1 147.58 307.1 149.38 308.26 149.38 308.26 146.54 302.02 146.54 302.02 145.25 300.82 145.25 300.82 146.54 294.61 146.54 294.61 149.38 295.73 149.38 295.73 147.58"/><path class="u" d="m249.23,145.33c-.78,2.43-2.1,4.85-3.54,6.42.21.29.54.94.64,1.23.54-.62,1.07-1.36,1.57-2.16v9.18h1.14v-11.22c.5-1.01.94-2.07,1.3-3.14l-1.1-.32Z"/><polygon class="u" points="263.84 147.81 274.98 147.81 274.98 149.73 276.19 149.73 276.19 146.7 270.02 146.7 270.02 145.26 268.78 145.26 268.78 146.7 262.66 146.7 262.66 149.73 263.84 149.73 263.84 147.81"/><path class="u" d="m291.3,149.18v-1.3c-1.58.24-4.83.3-6.58,0l.02,1.3c1.74.19,4.85.19,6.56,0Z"/><path class="u" d="m329.41,151.25c-.58-.51-1.74-1.15-2.7-1.52l-.67.88c.96.4,2.11,1.09,2.69,1.6l.69-.96Z"/><path class="u" d="m337.63,154.35c.94,1.2,1.92,2.88,2.3,4l1.02-.54c-.42-1.1-1.39-2.74-2.38-3.94l-.94.48Z"/><path class="u" d="m331.82,154.1c-.35,1.26-1.01,2.69-2,3.5l.88.7c1.09-.96,1.71-2.51,2.1-3.87l-.98-.34Z"/><path class="u" d="m333.82,158.64c0,.19-.06.24-.27.26s-.91.02-1.71-.02c.14.34.3.77.34,1.07,1.09,0,1.79,0,2.21-.18.45-.18.56-.51.56-1.12v-6.22h-1.12v6.21Z"/><path class="u" d="m335.65,154.7c.5,1.09.94,2.51,1.09,3.46l.98-.37c-.16-.93-.61-2.34-1.15-3.41l-.91.32Z"/><path class="u" d="m337.44,150.34h3.13v-1.1h-5.69c.26-.64.48-1.31.66-2.05,1.59-.2,3.1-.48,4.26-.86l-.94-.91c-1.89.61-5.46.99-8.46,1.15.14.29.29.74.34,1.02,1.12-.05,2.32-.14,3.51-.26-.17.68-.37,1.32-.63,1.9h-3.78v1.1h3.19c-.87,1.42-2.07,2.5-3.66,3.25.24.21.66.69.82.94,1.83-.97,3.21-2.35,4.19-4.19h1.81c.89,1.66,2.39,3.19,3.99,3.98.18-.3.54-.75.82-.98-1.38-.58-2.72-1.73-3.55-3.01Z"/><path class="u" d="m350.35,149.87c-1.86,0-3.66.51-4.78.77-.5.1-1.02.21-1.47.24l.4,1.47c.38-.16.86-.34,1.36-.48.93-.27,2.51-.8,4.35-.8,1.65,0,2.74.94,2.74,2.3,0,2.86-2.74,4.38-6.62,4.88l.74,1.22c4.14-.64,7.25-2.58,7.25-6.05,0-2.29-1.68-3.55-3.95-3.55Z"/><path class="u" d="m318.46,146.88c-2.03,0-3.7,2-4.35,3.65.1-1.12.4-3.28.74-4.46l-1.39-.05c-.03.45-.06.9-.13,1.38-.19,1.31-.5,3.66-.5,5.18,0,1.04.08,1.94.16,2.54l1.25-.1c-.11-.8-.11-1.36-.03-1.97.19-2.1,2.05-5.01,4.05-5.01,1.68,0,2.53,1.82,2.53,4.35,0,4.02-2.7,5.42-6.19,5.95l.77,1.15c3.95-.72,6.75-2.69,6.75-7.12,0-3.36-1.54-5.5-3.65-5.5Z"/><path class="u" d="m287.82,157.33c-2.19,0-2.7-.72-2.7-1.46,0-.43.08-.88.22-1.46l-1.15-.11c-.18.77-.26,1.34-.26,1.87,0,1.5,1.2,2.4,3.87,2.4,1.66,0,3.01-.13,4-.34l-.03-1.34c-1.28.3-2.53.43-3.95.43Z"/><path class="u" d="m302.74,158.32v-3.54h-6.29v4.35h1.12v-.82h5.17Zm-1.14-2.59v1.65h-4.03v-1.65h4.03Z"/><path class="u" d="m280.74,156.1c-.1-.78-.14-1.46-.14-2.22,0-1.81.5-4.66.8-6.14.06-.29.19-.8.29-1.07l-1.42-.11c-.02.35-.06.75-.11,1.12-.19,1.33-.72,4.06-.72,6.42,0,2.18.27,4.02.59,5.15l1.14-.08c-.02-.18-.03-.4-.05-.56,0-.19.03-.5.08-.72.14-.77.74-2.45,1.14-3.58l-.67-.53c-.27.66-.64,1.62-.91,2.34Z"/><path class="u" d="m306.61,152.03c-1.2-.65-3.42-1.43-5.22-1.89.05-.09.09-.19.13-.28h4.99v-.98h-4.67c.08-.34.14-.7.19-1.09h-1.15c-.04.4-.11.76-.2,1.09h-4.33v.98h3.92c-.66,1.04-1.95,1.62-4.57,1.95.19.22.45.66.54.91,2.35-.35,3.75-.91,4.59-1.81,1.67.48,3.62,1.2,4.83,1.81h-11.31v1.07h10.67v4.8c0,.22-.08.27-.34.3-.26,0-1.14,0-2.13-.03.16.34.34.78.38,1.1,1.26,0,2.1,0,2.59-.18.53-.18.67-.5.67-1.17v-4.83h2.32v-1.07h-2.4l.48-.69Z"/><path class="u" d="m326.38,159.09l1.09.69c.7-1.42,1.49-3.3,2.1-4.9l-.96-.67c-.66,1.73-1.57,3.7-2.22,4.88Z"/><path class="u" d="m273.76,149.73l-.8-.5-.22.05h-4.73c.27-.31.52-.63.75-.94l-1.3-.26c-.82,1.25-2.37,2.64-4.59,3.63.27.18.64.58.82.86.96-.47,1.78-1.01,2.51-1.58.62.7,1.35,1.32,2.18,1.87-1.94,1-4.22,1.72-6.37,2.11.22.27.48.75.59,1.06.8-.17,1.62-.38,2.43-.63v4.55h1.18v-.53h6.48v.51h1.23v-4.72c.71.18,1.42.33,2.16.45.18-.35.5-.86.77-1.14-2.28-.29-4.43-.87-6.23-1.7,1.28-.87,2.38-1.9,3.15-3.1Zm-6.72.55s.03-.02.04-.03h4.84c-.65.74-1.48,1.41-2.44,2-.98-.57-1.81-1.22-2.45-1.97Zm-.83,8.13v-2.34h6.48v2.34h-6.48Zm7.04-3.36h-7.13c1.17-.42,2.31-.92,3.36-1.51,1.15.62,2.41,1.13,3.77,1.51Z"/><path class="aa" d="m349.63,69.2l.9.7c4.12,2.85,5.19,8.55,2.38,12.74-2.2,3.27-6.11,4.65-9.68,3.73,2.65,3.22,3,7.95.56,11.59-2.94,4.4-8.85,5.53-13.17,2.54l-1.97-1.36c1.66,2.95,1.64,6.73-.36,9.73-2.8,4.19-8.42,5.27-12.55,2.42l-3.42-2.36c.33,2.11-.11,4.35-1.38,6.26-2.67,3.98-8,5.01-11.92,2.3l-5.23-3.61c-2.57,2.93-6.97,3.19-9.84.57-2.87-2.62-3.12-7.12-.55-10.05l-.82.94c-2.72,3.1-7.38,3.37-10.42.6-3.04-2.77-3.31-7.53-.59-10.64l.28-.31c-2.86,3.28-7.79,3.56-11,.63-3.21-2.93-3.48-7.95-.62-11.23l.82-.94c-2.72,3.1-7.38,3.37-10.42.6-3.04-2.77-3.31-7.53-.59-10.64l.21-.26c-2.08-10.57-12.24-14.78-12.24-14.78l14.96-44.56c8.34,4.98,20.42,4.98,26.76,4.39,4.33-4.11,9.78-8.21,14.11-9.09,7.19-1.15,28.77,6.75,37.97,6.78,10.64.28,14.96-1.77,14.96-1.77l15.24,44.54s-9.21,2.66-12.37,10.54Z"/><path class="ab" d="m343.22,86.37c-.99-.26-1.97-.69-2.86-1.31l-14.53-10.04"/><path class="p" d="m349.63,69.2l.9.7c4.12,2.85,5.19,8.55,2.38,12.74-2.2,3.27-6.11,4.65-9.68,3.73m6.41-17.17c3.16-7.88,12.37-10.54,12.37-10.54l-15.24-44.54s-4.32,2.05-14.96,1.77c-9.2-.03-30.77-7.93-37.97-6.78-4.33.88-9.78,4.98-14.11,9.09-6.34.59-18.41.59-26.76-4.39l-14.96,44.56s10.17,4.21,12.24,14.78l-.21.26c-2.72,3.11-2.45,7.87.59,10.64,3.04,2.77,7.71,2.5,10.42-.6l-.82.94c-2.86,3.28-2.59,8.3.62,11.23,3.21,2.93,8.14,2.65,11-.63m77.77-25.79c-6.62-4.51-19.78-14.43-28.33-20.5-11.74-8.33-19.2-19.3-25.49-19.05-6.03.28-9.2,8.81-19.56,11.14-12.1,2.93-13.53-4.11-10.36-8.21,2.86-4.39,6.34-6.16,8.93-9.37,1.16-1.46,2.86-3.24,4.88-4.98m63.54,68.14c2.65,3.22,3,7.95.56,11.59-2.94,4.4-8.85,5.53-13.17,2.54l-1.97-1.36c1.66,2.95,1.64,6.73-.36,9.73-2.8,4.19-8.42,5.27-12.55,2.42l-3.42-2.36c.33,2.11-.11,4.35-1.38,6.26-2.67,3.98-8,5.01-11.92,2.3l-5.23-3.61m49.42-27.51c-.99-.26-1.97-.69-2.86-1.31l-14.53-10.04m-32.03,38.86c-2.57,2.93-6.97,3.19-9.84.57-2.87-2.62-3.12-7.12-.55-10.05m10.39,9.48c2.57-2.93,2.31-7.43-.55-10.05-2.86-2.62-7.27-2.36-9.84.57m0,0l-.82.94c-2.72,3.1-7.38,3.37-10.42.6-3.04-2.77-3.31-7.53-.59-10.64l.28-.31m11.55,9.41l1.37-1.56c2.72-3.1,2.45-7.87-.59-10.64-3.04-2.77-7.71-2.5-10.42.6l-1.91,2.19m0,0l2.73-3.12c2.86-3.28,2.59-8.3-.62-11.23-3.21-2.93-8.13-2.64-11,.63l-1.91,2.19,2.18-2.5c2.72-3.1,2.45-7.87-.59-10.64-3.04-2.77-7.71-2.5-10.42.6l-1.97,2.25m49.23,26.9l12.83,8.87m.9-20.46l15.43,10.67"/><rect class="o" x="236" width="128" height="128"/><rect class="o" x="220" y="0" width="160" height="160"/><rect class="o" y="0" width="600" height="160"/></svg>