<?xml version="1.0" encoding="UTF-8"?><svg id="a" xmlns="http://www.w3.org/2000/svg" xmlns:xlink="http://www.w3.org/1999/xlink" viewBox="0 0 256 288"><defs><style>.n,.o,.p,.q,.r{fill:none;}.n,.p,.q,.s,.t,.r{stroke-linecap:round;stroke-linejoin:round;}.n,.q,.r{stroke:#f6cd51;}.o,.u,.v,.w,.x,.y,.z,.aa,.ab,.ac{stroke-width:0px;}.p{stroke:url(#k);}.p,.s,.t{stroke-width:2px;}.q{stroke-dasharray:0 0 3.88 3.88;}.s{fill:url(#b);stroke:url(#c);}.t{fill:url(#f);stroke:url(#g);}.r{stroke-dasharray:0 0 4 4;}.u{fill:#0d0910;}.v{fill:#cebfd9;}.w{fill:url(#e);}.x{fill:url(#d);}.y{fill:url(#j);}.z{fill:url(#i);}.aa{fill:url(#h);}.ab{fill:url(#m);}.ac{fill:url(#l);}</style><linearGradient id="b" x1="128" y1="67.38" x2="128" y2="-1.37" gradientTransform="translate(0 258) scale(1 -1)" gradientUnits="userSpaceOnUse"><stop offset="0" stop-color="#0d0a10"/><stop offset="1" stop-color="#281d30"/></linearGradient><linearGradient id="c" x1="128" y1="67.54" x2="128" y2="-1.54" gradientTransform="translate(0 258) scale(1 -1)" gradientUnits="userSpaceOnUse"><stop offset="0" stop-color="#f6cd51"/><stop offset="1" stop-color="#f48e2a"/></linearGradient><linearGradient id="d" x1="108" y1="38" x2="108" y2="46" gradientTransform="matrix(1,0,0,1,0,0)" xlink:href="#c"/><linearGradient id="e" x1="148" y1="38" x2="148" y2="46" gradientTransform="matrix(1,0,0,1,0,0)" xlink:href="#c"/><linearGradient id="f" x1="53.2" y1="256.75" x2="53.2" y2="179.25" xlink:href="#b"/><linearGradient id="g" x1="53.2" y1="256.92" x2="53.2" y2="179.08" xlink:href="#c"/><linearGradient id="h" x1="52.7" y1="238" x2="52.7" y2="198" xlink:href="#c"/><linearGradient id="i" x1="201.7" y1="252.37" x2="201.7" y2="183.62" xlink:href="#b"/><linearGradient id="j" x1="223.28" y1="252.37" x2="223.28" y2="183.62" gradientTransform="translate(0 258) scale(1 -1)" gradientUnits="userSpaceOnUse"><stop offset="0" stop-color="#0d0a10"/><stop offset="1" stop-color="#281d30"/></linearGradient><linearGradient id="k" x1="201.7" y1="252.54" x2="201.7" y2="183.46" xlink:href="#c"/><linearGradient id="l" x1="201.7" y1="118" x2="201.7" y2="126" gradientTransform="matrix(1,0,0,1,0,0)" xlink:href="#c"/><linearGradient id="m" x1="128" y1="174" x2="128" y2="182" gradientTransform="matrix(1,0,0,1,0,0)" xlink:href="#c"/></defs><path class="v" d="m59.58,276.67c1.02.54,2.82,1.65,3.6,2.38l.64-1.02c-.77-.64-2.51-1.73-3.65-2.32l-.59.96Z"/><path class="v" d="m58.48,280.06c-1.04,0-2.3.2-3.5.58,0-.19,0-.38,0-.55,0-.65.01-1.41.03-2.16,1.17-.14,2.41-.35,3.35-.58l-.03-1.25c-.9.27-2.11.5-3.28.64.02-.71.05-1.34.07-1.71.02-.38.05-.82.1-1.1h-1.41c.05.26.08.82.08,1.12s-.01.99-.03,1.82c-.45.03-.87.05-1.24.05-.58,0-1.15-.02-2.03-.13l.03,1.23c.53.05,1.14.08,2.03.08.34,0,.75-.02,1.19-.06-.01.72-.02,1.46-.02,2.1,0,.29,0,.6,0,.91-1.84.79-3.51,2.17-3.51,3.49,0,1.44,2.08,2.66,3.33,2.66.88,0,1.42-.48,1.42-1.95,0-.7-.04-2.11-.06-3.47,1.14-.4,2.27-.62,3.49-.62,1.5,0,2.74.72,2.74,2.08,0,1.49-1.28,2.24-2.67,2.51-.61.13-1.28.11-1.89.11l.45,1.28c.56-.03,1.28-.06,1.98-.22,2.21-.51,3.42-1.74,3.42-3.68s-1.68-3.18-4.03-3.18Zm-5.17,5.81c-.62,0-1.74-.64-1.74-1.36s.96-1.64,2.27-2.26c.02,1.17.05,2.26.05,2.84,0,.53-.21.78-.58.78Z"/><path class="v" d="m75.5,280.22c1.18.99,1.76,2.18,1.76,3.25,0,1.66-1.55,2.72-3.98,2.72-1.82,0-2.7-.94-2.7-2.5,0-.4.04-.96.1-1.62.2,0,.4.02.59.02,1.07,0,2.06-.03,3.14-.14l.02-1.22c-1.12.16-2.22.19-3.33.19-.09,0-.2,0-.29,0,.1-.93.23-1.94.35-2.88.03,0,.07,0,.1,0,1.3,0,2.24-.05,3.26-.14l.03-1.22c-.94.14-2.04.21-3.25.21.09-.66.16-1.24.21-1.65.06-.35.11-.69.21-1.12l-1.42-.08c.03.29.03.58-.02,1.14-.04.46-.1,1.04-.17,1.67-1.19-.08-2.51-.28-3.51-.6l-.08,1.17c1.01.28,2.29.47,3.45.57-.12.95-.25,1.95-.36,2.88-1.13-.08-2.35-.26-3.41-.63l-.06,1.22c.97.3,2.15.47,3.35.56-.08.76-.13,1.42-.13,1.87,0,2.61,1.76,3.57,3.92,3.57,3.17,0,5.3-1.46,5.3-3.84,0-1.36-.54-2.48-1.65-3.7l-1.41.3Z"/><path class="v" d="m105.12,277.09l-.03-1.18c-.81.27-1.66.45-2.51.58.26-.92.48-1.89.64-2.47l-1.41-.14c-.04.86-.25,1.88-.51,2.76-.62.05-1.23.09-1.8.09-.69,0-1.38-.03-1.97-.1l.1,1.2c.59.02,1.28.03,1.87.03.46,0,.93-.02,1.4-.05-.71,1.87-2.09,4.45-3.42,6l1.23.64c1.29-1.73,2.7-4.51,3.49-6.78,1.05-.14,2.06-.35,2.91-.58Z"/><path class="v" d="m89.79,275.34c-2.96.26-5.97.54-7.01.66-.32.03-.83.06-1.44.08l.14,1.41c1.74-.37,5.81-.77,7.54-.94-1.47.86-2.99,2.9-2.99,5.39,0,3.58,3.36,5.15,6.34,5.26l.45-1.31c-2.59-.11-5.52-1.1-5.52-4.22,0-1.89,1.39-4.34,3.68-5.07.82-.22,2.21-.26,3.14-.24l-.02-1.28c-1.07.03-2.56.13-4.3.27Z"/><path class="v" d="m172.88,277.84h2.29v-1.15h-2.29v-3.26h-1.17v3.26h-3.12v-3.25h-1.18v3.25h-2.06v1.15h2.06v3.95h-2.46v1.18h10.42v-1.18h-2.48v-3.95Zm-4.29,0h3.12v3.95h-3.12v-3.95Z"/><path class="v" d="m172.32,283.9l-.94.54c1.07,1.07,2.26,2.56,2.8,3.55l1.01-.64c-.58-.98-1.76-2.4-2.86-3.46Z"/><path class="v" d="m158.14,273.79h-7.6v5.25h7.6v-5.25Zm-1.15,4.32h-5.34v-1.28h5.34v1.28Zm0-2.13h-5.34v-1.28h5.34v1.28Z"/><path class="v" d="m201.14,279.41c-.72,0-1.49.08-2.22.32,1.25-1.02,3.42-2.9,4.21-3.5.3-.24.62-.45.91-.64l-.74-.94c-.18.06-.4.1-.88.14-.85.08-4.64.19-5.49.19-.32,0-.77-.02-1.12-.05l.03,1.31c.35-.05.7-.06,1.07-.1.83-.05,4.03-.18,4.88-.22-.8.72-2.82,2.4-3.71,3.14-.91.78-2.98,2.51-4.3,3.6l.93.93c2.02-2.06,3.46-3.18,6.11-3.18,2.1,0,3.6,1.17,3.6,2.75,0,1.31-.74,2.23-2.01,2.72-.21-1.5-1.27-2.83-3.27-2.83-1.47,0-2.46.99-2.46,2.08,0,1.34,1.33,2.29,3.5,2.29,3.39,0,5.52-1.68,5.52-4.26,0-2.16-1.9-3.74-4.56-3.74Zm-1.15,6.86c-1.26,0-2.14-.46-2.14-1.25,0-.56.56-1.01,1.3-1.01,1.22,0,1.98.89,2.13,2.15-.4.06-.82.11-1.29.11Z"/><path class="v" d="m154.86,286.59v-2.52h3.36v-.99h-3.36v-1.87h4.16v-1.01h-9.22v1.01h3.94v5.07c-.91-.39-1.64-1.13-2.09-2.5.13-.53.23-1.09.3-1.68l-1.09-.13c-.26,2.37-.98,4.18-2.4,5.31.24.18.7.53.9.72.84-.75,1.47-1.75,1.92-2.97,1.04,2.29,2.74,2.73,5.08,2.73h2.82c.03-.3.19-.82.35-1.07-.56.02-2.72.02-3.12.02-.54,0-1.06-.03-1.54-.1Z"/><path class="v" d="m149.52,281.39l-.18-1.1c-.54.17-1.08.35-1.62.51v-3.18h1.78v-1.12h-1.78v-3.22h-1.12v3.22h-1.98v1.12h1.98v3.53c-.81.25-1.56.47-2.16.63l.3,1.17c.56-.18,1.2-.38,1.86-.6v4.14c0,.24-.06.3-.27.3-.19,0-.8,0-1.5-.02.16.34.3.83.35,1.12,1.01,0,1.63-.03,2-.22.4-.19.54-.51.54-1.17v-4.52c.59-.19,1.2-.39,1.79-.59Z"/><path class="v" d="m165.42,273.66l-1.14-.35c-.9,2.43-2.4,4.83-3.97,6.38.22.27.56.91.69,1.18.54-.56,1.07-1.22,1.58-1.94v9.03h1.18v-10.87c.63-1.1,1.2-2.26,1.65-3.43Z"/><path class="v" d="m164.85,287.2c.27.16.74.54.96.75,1.07-.91,2.29-2.34,3.07-3.73l-1.14-.35c-.69,1.23-1.79,2.5-2.9,3.33Z"/><path class="v" d="m119.71,286.21c-1.52,0-2.62-.61-2.62-2.37,0-2.38.13-6.18.19-7.98.03-.53.08-1.09.16-1.62h-1.63c.1.46.14,1.02.14,1.62,0,1.68-.16,5.73-.16,8.1,0,2.62,1.58,3.57,3.89,3.57,3.5,0,5.58-2,6.67-3.52l-.9-1.09c-1.15,1.66-2.82,3.3-5.74,3.3Z"/><path class="v" d="m106.53,277.17c1.06.5,2.8,1.47,3.66,2.21l.72-1.06c-.77-.58-2.58-1.62-3.74-2.11l-.64.96Z"/><path class="v" d="m106.96,280.67c-.02-.58-.02-1.06.03-1.71h-1.26c.04,1.13.13,2.71.19,4.03-.5-.1-1.02-.17-1.58-.17-1.79,0-3.18.93-3.18,2.4,0,1.6,1.42,2.3,3.18,2.3,1.98,0,2.8-1.04,2.8-2.32,0-.18,0-.41-.01-.66,1.04.51,1.92,1.22,2.6,1.84l.67-1.09c-.82-.71-1.94-1.51-3.32-2-.04-.99-.1-2.03-.12-2.63Zm-.99,4.13c0,.86-.45,1.57-1.78,1.57-1.25,0-1.87-.51-1.87-1.25s.8-1.28,1.98-1.28c.58,0,1.13.09,1.65.24,0,.27.01.53.01.72Z"/><path class="v" d="m185.93,276.1c0-.43.01-.81.02-1.06,0-.19.05-.82.08-1.01h-1.47c.03.14.08.59.11,1.02.01.23.02.6.03,1.05-2.39.04-5.4.14-7.18.16l.03,1.23c2.01-.15,4.73-.25,7.17-.28,0,.57.01,1.16.01,1.64-.32-.12-.67-.2-1.07-.2-1.52,0-2.83,1.18-2.83,2.77,0,1.74,1.3,2.69,2.64,2.69.52,0,.98-.14,1.36-.42-.66,1.44-2.11,2.32-4.21,2.82l1.07,1.04c3.71-1.1,4.77-3.5,4.77-5.68,0-.78-.18-1.47-.52-2.01,0-.74-.02-1.73-.02-2.66.07,0,.15,0,.22,0,2.35,0,3.79.03,4.69.08l.02-1.18c-.75-.02-2.74-.02-4.69-.02-.07,0-.16,0-.23,0Zm-2.27,6.91c-.88,0-1.63-.58-1.63-1.58s.78-1.7,1.63-1.7c.62,0,1.15.32,1.4,1.02.14,1.52-.47,2.26-1.4,2.26Z"/><path class="v" d="m142.1,279.65l-.51-1.18c-.45.22-.85.4-1.33.62-.82.39-1.8.78-2.91,1.3-.24-.94-1.08-1.46-2.11-1.46-.7,0-1.62.22-2.24.59.55-.72,1.06-1.61,1.45-2.47,1.74-.06,3.72-.2,5.32-.44v-1.18c-1.51.27-3.24.41-4.88.48.24-.74.37-1.36.48-1.84l-1.31-.11c-.04.58-.18,1.29-.41,1.99-.37,0-.72.01-1.06.01-.74,0-1.84-.05-2.7-.16v1.2c.9.06,1.95.1,2.64.1.21,0,.45,0,.68,0-.6,1.3-1.67,2.96-3.69,4.89l1.1.82c.53-.66.98-1.23,1.44-1.68.74-.66,1.74-1.17,2.77-1.17.71,0,1.28.32,1.44,1-1.86.96-3.76,2.15-3.76,4.06s1.84,2.43,4.11,2.43c1.39,0,3.17-.13,4.38-.27l.05-1.3c-1.41.26-3.14.4-4.38.4-1.65,0-2.88-.19-2.88-1.44,0-1.06,1.04-1.9,2.53-2.71,0,.84-.02,1.89-.07,2.51h1.23c-.01-.8-.04-2.14-.04-3.07,1.21-.57,2.36-1.04,3.26-1.39.43-.16,1.01-.38,1.41-.51Z"/><path class="s" d="m160.03,197.18c8.96,8.74,8.96,22.52,0,31.27l-32.03,30.93-32.03-30.93c-8.96-8.74-8.96-22.52,0-31.27,8.96-8.74,23.08-8.74,32.03,0,8.96-8.74,23.08-8.74,32.03,0Z"/><rect class="o" x="88" y="185" width="80" height="80"/><line class="n" x1="112" y1="42" x2="114" y2="42"/><line class="r" x1="118" y1="42" x2="140" y2="42"/><line class="n" x1="142" y1="42" x2="144" y2="42"/><circle class="u" cx="108" cy="42" r="4"/><path class="x" d="m108,39c1.65,0,3,1.35,3,3s-1.35,3-3,3-3-1.35-3-3,1.35-3,3-3m0-1c-2.21,0-4,1.79-4,4s1.79,4,4,4,4-1.79,4-4-1.79-4-4-4h0Z"/><polygon class="u" points="152 42 144 38 144 46 152 42"/><path class="w" d="m145,39.62l4.76,2.38-4.76,2.38v-4.76m-1-1.62v8l8-4-8-4h0Z"/><path class="v" d="m18.2,96.59h2.29v-1.15h-2.29v-3.44h-1.15v3.44h-2.61v1.15h2.43c-.55,2.22-1.68,4.71-2.8,6.06.21.27.51.75.64,1.09.86-1.1,1.7-2.9,2.34-4.76v7.72h1.15v-7.32c.61.79,1.33,1.79,1.63,2.33l.75-.99c-.36-.42-1.82-2.12-2.38-2.7v-1.43Z"/><path class="v" d="m21.19,106.62h1.15v-.99h4.88v.94h1.2v-13.63h-7.23v13.68Zm1.15-2.1v-2.78h4.88v2.78h-4.88Zm4.88-3.89h-4.88v-2.77h4.88v2.77Zm0-6.54v2.67h-4.88v-2.67h4.88Z"/><path class="v" d="m59.72,98.38l-.51-1.18c-.45.22-.85.4-1.33.62-.82.39-1.8.78-2.91,1.3-.24-.94-1.08-1.46-2.11-1.46-.7,0-1.62.22-2.24.59.55-.72,1.06-1.61,1.45-2.47,1.74-.06,3.72-.2,5.32-.44v-1.18c-1.51.27-3.24.41-4.88.48.24-.74.37-1.36.48-1.84l-1.31-.11c-.04.58-.18,1.29-.41,1.99-.37,0-.72.01-1.06.01-.74,0-1.84-.05-2.7-.16v1.2c.9.06,1.95.1,2.64.1.21,0,.45,0,.68,0-.6,1.3-1.67,2.96-3.69,4.89l1.1.82c.53-.66.98-1.23,1.44-1.68.74-.66,1.74-1.17,2.77-1.17.71,0,1.28.32,1.44,1-1.86.96-3.76,2.15-3.76,4.06s1.84,2.43,4.11,2.43c1.39,0,3.17-.13,4.38-.27l.05-1.3c-1.41.26-3.14.4-4.38.4-1.65,0-2.88-.19-2.88-1.44,0-1.06,1.04-1.9,2.53-2.71,0,.84-.02,1.89-.07,2.51h1.23c-.01-.8-.04-2.14-.04-3.07,1.21-.57,2.36-1.04,3.26-1.39.43-.16,1.01-.38,1.41-.51Z"/><path class="v" d="m86.76,98.14c-.72,0-1.49.08-2.22.32,1.25-1.02,3.42-2.9,4.21-3.5.3-.24.62-.45.91-.64l-.74-.94c-.18.06-.4.1-.88.14-.85.08-4.64.19-5.49.19-.32,0-.77-.02-1.12-.05l.03,1.31c.35-.05.7-.06,1.07-.1.83-.05,4.03-.18,4.88-.22-.8.72-2.82,2.4-3.71,3.14-.91.78-2.98,2.51-4.3,3.6l.93.93c2.02-2.06,3.46-3.18,6.11-3.18,2.1,0,3.6,1.17,3.6,2.75,0,1.31-.74,2.23-2.01,2.72-.21-1.5-1.27-2.83-3.27-2.83-1.47,0-2.46.99-2.46,2.08,0,1.34,1.33,2.29,3.5,2.29,3.39,0,5.52-1.68,5.52-4.26,0-2.16-1.9-3.74-4.56-3.74Zm-1.15,6.86c-1.26,0-2.14-.46-2.14-1.25,0-.56.56-1.01,1.3-1.01,1.22,0,1.98.89,2.13,2.15-.4.06-.82.11-1.29.11Z"/><path class="v" d="m70.38,106.27h1.15v-1.28h3.41v1.1h1.2v-12.7h-5.76v12.88Zm4.56-11.74v9.33h-3.41v-9.33h3.41Z"/><path class="v" d="m38.26,97.7h5.7v-1.15h-5.7v-2.61c1.89-.23,3.65-.53,5.01-.93l-.9-.98c-2.43.75-7.1,1.18-10.91,1.36.11.27.26.75.29,1.06,1.67-.07,3.49-.19,5.26-.37v2.47h-5.54v1.15h5.54v2.61h-6.61v1.17h6.61v3.57c0,.34-.13.45-.5.45-.35.02-1.63.03-2.96-.02.19.32.42.86.5,1.2,1.7.02,2.74-.02,3.34-.21.61-.19.86-.56.86-1.41v-3.58h6.59v-1.17h-6.59v-2.61Z"/><path class="v" d="m66.86,97.92v-2.64h2.53v-1.12h-4.59c.2-.63.37-1.28.51-1.94l-1.17-.22c-.38,1.95-1.04,3.87-2,5.1.27.16.78.5.99.69.48-.69.91-1.55,1.28-2.51h1.24v2.62c0,.18,0,.37,0,.56h-3.3v1.15h3.23c-.21,2.12-.97,4.44-3.41,6.18.26.18.69.64.85.9,1.84-1.31,2.82-3.03,3.33-4.76.87,1,2.12,2.52,2.65,3.29l.82-1.01c-.48-.57-2.42-2.76-3.18-3.49.07-.37.12-.74.15-1.1h3.09v-1.15h-3.02c0-.18,0-.37,0-.54Z"/><path class="t" d="m82.69,36.52C102.91,11.47,55.85-10.46,36.6,8.28c-16.79,0-22.36,18.55-12.9,28.24-3.05,0-5.51,2.37-5.51,5.31s1.81,12.31,7.26,12.31c4.02,12.81,11.15,24.61,27.74,24.61s23.72-11.81,27.74-24.61c5.38,0,7.26-9.43,7.26-12.31s-2.46-5.31-5.51-5.31Z"/><path class="aa" d="m47.93,47.82v-.65c.01-2.22.21-3.99.6-5.31.4-1.32.99-2.39,1.75-3.2.77-.81,1.69-1.55,2.77-2.21.81-.51,1.53-1.03,2.16-1.58.64-.55,1.14-1.15,1.52-1.81.38-.67.57-1.42.57-2.25,0-.88-.21-1.64-.64-2.3-.43-.66-1.01-1.17-1.73-1.52-.71-.36-1.51-.53-2.38-.53s-1.64.18-2.4.55c-.75.36-1.37.89-1.85,1.6-.48.7-.74,1.57-.78,2.61h-7.95c.06-2.54.69-4.63,1.87-6.28,1.18-1.66,2.75-2.9,4.7-3.71,1.95-.82,4.1-1.24,6.45-1.24,2.59,0,4.87.42,6.86,1.26,1.99.82,3.55,2.02,4.68,3.6,1.13,1.57,1.7,3.47,1.7,5.69,0,1.48-.25,2.8-.76,3.96-.49,1.14-1.19,2.16-2.09,3.04-.9.88-1.96,1.67-3.18,2.38-1.03.6-1.87,1.22-2.53,1.87-.65.65-1.14,1.4-1.46,2.25-.31.85-.47,1.9-.49,3.14v.65h-7.39Zm3.86,12.18c-1.3,0-2.41-.44-3.33-1.33-.91-.9-1.36-1.98-1.34-3.23-.01-1.24.44-2.31,1.34-3.2.92-.89,2.03-1.33,3.33-1.33s2.32.44,3.25,1.33c.94.89,1.41,1.95,1.42,3.2-.01.84-.24,1.6-.68,2.3-.43.69-.99,1.24-1.7,1.66-.7.41-1.47.61-2.3.61Z"/><rect class="o" x="12.7" width="80" height="80"/><path class="v" d="m152.59,106.72h1.12v-.96h7.09v.83h1.15v-13.62h-9.36v13.74Zm8.21-12.67v10.64h-7.09v-10.64h7.09Z"/><path class="v" d="m231.79,93.81c-.58-.54-1.7-1.23-2.61-1.65l-.69.85c.93.46,2.03,1.22,2.56,1.76l.74-.96Z"/><path class="v" d="m254.72,93.66c-1.55-.02-5.02-.35-6.8-.75l-.19,1.22c1.81.32,5.02.64,6.8.77l.19-1.23Z"/><path class="v" d="m156.8,99.07h-1.76v4.29h4.59v-4.29h-1.86v-1.76h2.48v-.94h-2.48v-1.81h-.98v1.81h-2.43v.94h2.43v1.76Zm1.87,3.38h-2.7v-2.48h2.7v2.48Z"/><polygon class="v" points="197.42 94.34 208.8 94.34 208.8 96.13 209.95 96.13 209.95 93.3 203.71 93.3 203.71 92 202.51 92 202.51 93.3 196.3 93.3 196.3 96.13 197.42 96.13 197.42 94.34"/><path class="v" d="m150.93,92.08c-.78,2.43-2.1,4.85-3.54,6.42.21.29.54.94.64,1.23.54-.62,1.07-1.36,1.57-2.16v9.18h1.14v-11.22c.5-1.01.94-2.07,1.3-3.14l-1.1-.32Z"/><polygon class="v" points="165.54 94.56 176.67 94.56 176.67 96.48 177.89 96.48 177.89 93.46 171.71 93.46 171.71 92.02 170.48 92.02 170.48 93.46 164.35 93.46 164.35 96.48 165.54 96.48 165.54 94.56"/><path class="v" d="m192.99,95.94v-1.3c-1.58.24-4.83.3-6.58,0l.02,1.3c1.74.19,4.85.19,6.56,0Z"/><path class="v" d="m231.1,98c-.58-.51-1.74-1.15-2.7-1.52l-.67.88c.96.4,2.11,1.09,2.69,1.6l.69-.96Z"/><path class="v" d="m239.33,101.1c.94,1.2,1.92,2.88,2.3,4l1.02-.54c-.42-1.1-1.39-2.74-2.38-3.94l-.94.48Z"/><path class="v" d="m233.52,100.85c-.35,1.26-1.01,2.69-2,3.5l.88.7c1.09-.96,1.71-2.51,2.1-3.87l-.98-.34Z"/><path class="v" d="m235.52,105.39c0,.19-.06.24-.27.26s-.91.02-1.71-.02c.14.34.3.77.34,1.07,1.09,0,1.79,0,2.21-.18.45-.18.56-.51.56-1.12v-6.22h-1.12v6.21Z"/><path class="v" d="m237.34,101.46c.5,1.09.94,2.51,1.09,3.46l.98-.37c-.16-.93-.61-2.34-1.15-3.41l-.91.32Z"/><path class="v" d="m239.14,97.09h3.13v-1.1h-5.69c.26-.64.48-1.31.66-2.05,1.59-.2,3.1-.48,4.26-.86l-.94-.91c-1.89.61-5.46.99-8.46,1.15.14.29.29.74.34,1.02,1.12-.05,2.32-.14,3.51-.26-.17.68-.37,1.32-.63,1.9h-3.78v1.1h3.19c-.87,1.42-2.07,2.5-3.66,3.25.24.21.66.69.82.94,1.83-.97,3.21-2.35,4.19-4.19h1.81c.89,1.66,2.39,3.19,3.99,3.98.18-.3.54-.75.82-.98-1.38-.58-2.72-1.73-3.55-3.01Z"/><path class="v" d="m252.05,96.62c-1.86,0-3.66.51-4.78.77-.5.1-1.02.21-1.47.24l.4,1.47c.38-.16.86-.34,1.36-.48.93-.27,2.51-.8,4.35-.8,1.65,0,2.74.94,2.74,2.3,0,2.86-2.74,4.38-6.62,4.88l.74,1.22c4.14-.64,7.25-2.58,7.25-6.05,0-2.29-1.68-3.55-3.95-3.55Z"/><path class="v" d="m220.16,93.63c-2.03,0-3.7,2-4.35,3.65.1-1.12.4-3.28.74-4.46l-1.39-.05c-.03.45-.06.9-.13,1.38-.19,1.31-.5,3.66-.5,5.18,0,1.04.08,1.94.16,2.54l1.25-.1c-.11-.8-.11-1.36-.03-1.97.19-2.1,2.05-5.01,4.05-5.01,1.68,0,2.53,1.82,2.53,4.35,0,4.02-2.7,5.42-6.19,5.95l.77,1.15c3.95-.72,6.75-2.69,6.75-7.12,0-3.36-1.54-5.5-3.65-5.5Z"/><path class="v" d="m189.52,104.08c-2.19,0-2.7-.72-2.7-1.46,0-.43.08-.88.22-1.46l-1.15-.11c-.18.77-.26,1.34-.26,1.87,0,1.5,1.2,2.4,3.87,2.4,1.66,0,3.01-.13,4-.34l-.03-1.34c-1.28.3-2.53.43-3.95.43Z"/><path class="v" d="m204.43,105.07v-3.54h-6.29v4.35h1.12v-.82h5.17Zm-1.14-2.59v1.65h-4.03v-1.65h4.03Z"/><path class="v" d="m182.43,102.85c-.1-.78-.14-1.46-.14-2.22,0-1.81.5-4.66.8-6.14.06-.29.19-.8.29-1.07l-1.42-.11c-.02.35-.06.75-.11,1.12-.19,1.33-.72,4.06-.72,6.42,0,2.18.27,4.02.59,5.15l1.14-.08c-.02-.18-.03-.4-.05-.56,0-.19.03-.5.08-.72.14-.77.74-2.45,1.14-3.58l-.67-.53c-.27.66-.64,1.62-.91,2.34Z"/><path class="v" d="m208.3,98.78c-1.2-.65-3.42-1.43-5.22-1.89.05-.09.09-.19.13-.28h4.99v-.98h-4.67c.08-.34.14-.7.19-1.09h-1.15c-.04.4-.11.76-.2,1.09h-4.33v.98h3.92c-.66,1.04-1.95,1.62-4.57,1.95.19.22.45.66.54.91,2.35-.35,3.75-.91,4.59-1.81,1.67.48,3.62,1.2,4.83,1.81h-11.31v1.07h10.67v4.8c0,.22-.08.27-.34.3-.26,0-1.14,0-2.13-.03.16.34.34.78.38,1.1,1.26,0,2.1,0,2.59-.18.53-.18.67-.5.67-1.17v-4.83h2.32v-1.07h-2.4l.48-.69Z"/><path class="v" d="m228.08,105.84l1.09.69c.7-1.42,1.49-3.3,2.1-4.9l-.96-.67c-.66,1.73-1.57,3.7-2.22,4.88Z"/><path class="v" d="m175.46,96.48l-.8-.5-.22.05h-4.73c.27-.31.52-.63.75-.94l-1.3-.26c-.82,1.25-2.37,2.64-4.59,3.63.27.18.64.58.82.86.96-.47,1.78-1.01,2.51-1.58.62.7,1.35,1.32,2.18,1.87-1.94,1-4.22,1.72-6.37,2.11.22.27.48.75.59,1.06.8-.17,1.62-.38,2.43-.63v4.55h1.18v-.53h6.48v.51h1.23v-4.72c.71.18,1.42.33,2.16.45.18-.35.5-.86.77-1.14-2.28-.29-4.43-.87-6.23-1.7,1.28-.87,2.38-1.9,3.15-3.1Zm-6.72.55s.03-.02.04-.03h4.84c-.65.74-1.48,1.41-2.44,2-.98-.57-1.81-1.22-2.45-1.97Zm-.83,8.13v-2.34h6.48v2.34h-6.48Zm7.04-3.36h-7.13c1.17-.42,2.31-.92,3.36-1.51,1.15.62,2.41,1.13,3.77,1.51Z"/><path class="z" d="m232.71,43.25l.56.44c2.58,1.78,3.24,5.34,1.49,7.96-1.37,2.04-3.82,2.91-6.05,2.33,1.65,2.01,1.88,4.97.35,7.24-1.84,2.75-5.53,3.46-8.23,1.59l-1.23-.85c1.04,1.84,1.03,4.21-.23,6.08-1.75,2.62-5.27,3.29-7.84,1.51l-2.13-1.47c.2,1.32-.07,2.72-.86,3.91-1.67,2.49-5,3.13-7.45,1.44l-3.27-2.26c-1.61,1.83-4.35,1.99-6.15.36-1.8-1.64-1.95-4.45-.34-6.28l-.51.59c-1.7,1.94-4.61,2.11-6.51.37-1.9-1.73-2.07-4.71-.37-6.65l.17-.19c-1.79,2.05-4.87,2.22-6.88.39-2.01-1.83-2.18-4.97-.39-7.02l.51-.59c-1.7,1.94-4.61,2.11-6.51.37-1.9-1.73-2.07-4.71-.37-6.65l.13-.16c-1.3-6.61-7.65-9.24-7.65-9.24l9.35-27.85c5.22,3.11,12.76,3.11,16.72,2.74,2.71-2.57,6.11-5.13,8.82-5.68,4.5-.72,17.98,4.22,23.73,4.24,6.65.17,9.35-1.11,9.35-1.11l9.53,27.84s-5.76,1.66-7.73,6.59Z"/><path class="y" d="m228.71,53.98c-.62-.16-1.23-.43-1.79-.82l-9.08-6.27"/><path class="p" d="m232.71,43.25l.56.44c2.58,1.78,3.24,5.34,1.49,7.96-1.37,2.04-3.82,2.91-6.05,2.33m4-10.73c1.97-4.92,7.73-6.59,7.73-6.59l-9.53-27.84s-2.7,1.28-9.35,1.11c-5.75-.02-19.23-4.96-23.73-4.24-2.71.55-6.11,3.11-8.82,5.68-3.96.37-11.51.37-16.72-2.74l-9.35,27.85s6.35,2.63,7.65,9.24l-.13.16c-1.7,1.94-1.53,4.92.37,6.65,1.9,1.73,4.82,1.56,6.51-.37l-.51.59c-1.79,2.05-1.62,5.19.39,7.02,2.01,1.83,5.09,1.66,6.88-.39m48.61-16.12c-4.14-2.82-12.36-9.02-17.71-12.81-7.34-5.21-12-12.06-15.93-11.91-3.77.17-5.75,5.51-12.23,6.96-7.56,1.83-8.46-2.57-6.48-5.13,1.79-2.74,3.96-3.85,5.58-5.86.73-.91,1.79-2.02,3.05-3.11m39.71,42.58c1.65,2.01,1.88,4.97.35,7.24-1.84,2.75-5.53,3.46-8.23,1.59l-1.23-.85c1.04,1.84,1.03,4.21-.23,6.08-1.75,2.62-5.27,3.29-7.84,1.51l-2.13-1.47c.2,1.32-.07,2.72-.86,3.91-1.67,2.49-5,3.13-7.45,1.44l-3.27-2.26m30.89-17.19c-.62-.16-1.23-.43-1.79-.82l-9.08-6.27m-20.02,24.29c-1.61,1.83-4.35,1.99-6.15.36-1.8-1.64-1.95-4.45-.34-6.28m6.5,5.92c1.61-1.83,1.45-4.64-.34-6.28-1.79-1.64-4.55-1.47-6.15.36m0,0l-.51.59c-1.7,1.94-4.61,2.11-6.51.37-1.9-1.73-2.07-4.71-.37-6.65l.17-.19m7.22,5.88l.85-.97c1.7-1.94,1.53-4.92-.37-6.65-1.9-1.73-4.82-1.56-6.51.37l-1.19,1.37m0,0l1.71-1.95c1.79-2.05,1.62-5.19-.39-7.02-2.01-1.83-5.08-1.65-6.88.39l-1.19,1.37,1.37-1.56c1.7-1.94,1.53-4.92-.37-6.65-1.9-1.73-4.82-1.56-6.51.37l-1.23,1.41m30.77,16.81l8.02,5.54m.56-12.79l9.64,6.67"/><rect class="o" x="161.7" y="0" width="80" height="80"/><path class="n" d="m128,174c0-.67.03-1.34.08-2"/><path class="q" d="m128.71,168.17c2.6-10.44,12.04-18.17,23.29-18.17h25.7c11.92,0,21.81-8.69,23.68-20.07"/><path class="n" d="m201.61,128c.05-.66.08-1.33.08-2"/><circle class="u" cx="201.7" cy="122" r="4"/><path class="ac" d="m201.7,119c1.65,0,3,1.35,3,3s-1.35,3-3,3-3-1.35-3-3,1.35-3,3-3m0-1c-2.21,0-4,1.79-4,4s1.79,4,4,4,4-1.79,4-4-1.79-4-4-4h0Z"/><polygon class="u" points="128 182 132 174 124 174 128 182"/><path class="ab" d="m130.38,175l-2.38,4.76-2.38-4.76h4.76m1.62-1h0,0Zm0,0h-8l4,8,4-8h0Z"/><rect class="o" width="256" height="288"/></svg>