<?xml version="1.0" encoding="UTF-8"?><svg id="a" xmlns="http://www.w3.org/2000/svg" xmlns:xlink="http://www.w3.org/1999/xlink" viewBox="0 0 600 400.5"><defs><style>.an,.ao,.ap,.aq,.ar,.as,.at,.au,.av,.aw,.ax,.ay,.az,.ba,.bb,.bc,.bd{stroke-linecap:round;stroke-linejoin:round;}.an,.aw,.ax,.ba,.bb{stroke:#0d0910;}.an,.be,.bf{fill:#0d0910;}.ao,.as,.av,.az,.bd{stroke:#855fa0;}.ao,.bg{fill:#855fa0;}.ap,.ar,.au{stroke:#6a4c80;}.ap,.bh{fill:#6a4c80;}.aq,.ar,.as,.bi,.at,.au,.av,.ay,.bc,.bd{fill:none;}.aq,.at,.ay,.bc{stroke:#f6cd51;}.bi,.be,.bj,.bk,.bl,.bf,.bm,.bn,.bg,.bo,.bp,.bh,.bq,.br,.bs,.bt,.bu,.bv,.bw,.bx,.by,.bz,.ca,.cb,.cc,.cd,.ce,.cf,.cg,.ch,.ci,.cj,.ck,.cl,.cm,.cn,.co,.cp,.cq,.cr,.cs,.ct{stroke-width:0px;}.cu{fill:url(#k);stroke:url(#l);stroke-miterlimit:10;}.at{stroke-dasharray:0 0 4.02 4.02;}.au,.av{stroke-width:2px;}.aw{fill:url(#n);stroke-width:.5px;}.aw,.be{fill-rule:evenodd;}.ax{fill:url(#ah);}.cv{opacity:.5;}.ay{stroke-dasharray:0 0 3.97 3.97;}.az{fill:url(#e);}.ba{fill:url(#z);}.bb{fill:url(#t);}.cw{clip-path:url(#af);}.bc{stroke-dasharray:0 0 4.11 4.11;}.bj{fill:#281d30;}.bk{fill:#352640;}.bl{fill:#1b1320;}.bm{fill:#423050;}.bn{fill:#9d7fb3;}.bo{fill:#f6cd51;}.bp{fill:#e97a0c;}.bq{fill:url(#ag);}.br{fill:url(#aa);}.bs{fill:url(#ae);}.bt{fill:url(#ab);}.bu{fill:url(#aj);}.bv{fill:url(#ai);}.bw{fill:url(#ad);}.bx{fill:url(#am);}.by{fill:url(#ac);}.bz{fill:url(#ak);}.ca{fill:url(#al);}.cb{fill:url(#b);}.cc{fill:url(#v);}.cd{fill:url(#c);}.ce{fill:url(#y);}.cf{fill:url(#x);}.cg{fill:url(#w);}.ch{fill:url(#u);}.ci{fill:url(#f);}.cj{fill:url(#d);}.ck{fill:url(#s);}.cl{fill:url(#j);}.cm{fill:url(#q);}.cn{fill:url(#r);}.co{fill:url(#i);}.cp{fill:url(#h);}.cq{fill:url(#m);}.cr{fill:url(#g);}.cs{fill:url(#o);}.ct{fill:url(#p);}.bd{stroke-width:3px;}</style><linearGradient id="b" x1="128" y1="402.5" x2="128" y2="256.5" gradientTransform="translate(0 403) scale(1 -1)" gradientUnits="userSpaceOnUse"><stop offset="0" stop-color="#0d0a10"/><stop offset="1" stop-color="#281d30"/></linearGradient><linearGradient id="c" x1="40" y1="34.5" x2="40" y2="130.5" gradientUnits="userSpaceOnUse"><stop offset="0" stop-color="#352640"/><stop offset="1" stop-color="#1b1320"/></linearGradient><linearGradient id="d" x1="216" x2="216" xlink:href="#c"/><linearGradient id="e" x1="128" y1="369.11" x2="128" y2="271.89" gradientTransform="translate(0 403) scale(1 -1)" xlink:href="#c"/><linearGradient id="f" x1="128" y1=".5" x2="128" y2="146.5" gradientUnits="userSpaceOnUse"><stop offset="0" stop-color="#f6cd51"/><stop offset="1" stop-color="#f48e2a"/></linearGradient><radialGradient id="g" cx="472" cy="184.1" fx="472" fy="184.1" r="111.25" gradientTransform="translate(0 163) scale(1 .05)" gradientUnits="userSpaceOnUse"><stop offset="0" stop-color="#000"/><stop offset="1" stop-color="#000" stop-opacity="0"/></radialGradient><linearGradient id="h" x1="472" y1="260.5" x2="472" y2="229.5" gradientTransform="translate(0 403) scale(1 -1)" gradientUnits="userSpaceOnUse"><stop offset="0" stop-color="#9b5108"/><stop offset=".4" stop-color="#e97a0c"/><stop offset=".8" stop-color="#f6cd51"/></linearGradient><linearGradient id="i" x1="472" y1="403.64" x2="472" y2="257.36" xlink:href="#b"/><linearGradient id="j" x1="472" x2="472" y2="144.5" xlink:href="#f"/><linearGradient id="k" x1="470" y1="354.5" x2="470" y2="314.5" gradientTransform="translate(0 403) scale(1 -1)" xlink:href="#c"/><linearGradient id="l" x1="470" y1="48" x2="470" y2="89" gradientUnits="userSpaceOnUse"><stop offset="0" stop-color="#f6cd51"/><stop offset="1" stop-color="#f48e2a"/></linearGradient><linearGradient id="m" x1="400" y1="33.5" x2="400" y2="61.5" xlink:href="#l"/><linearGradient id="n" x1="400" y1="365.5" x2="400" y2="345.5" gradientTransform="translate(0 403) scale(1 -1)" xlink:href="#f"/><linearGradient id="o" x1="344" y1="68.5" x2="344" y2="76.5" xlink:href="#l"/><linearGradient id="p" x1="76" y1="272.5" x2="76" y2="400.5" gradientTransform="matrix(1,0,0,1,0,0)" xlink:href="#b"/><linearGradient id="q" x1="76" y1="272.5" x2="76" y2="400.5" xlink:href="#l"/><linearGradient id="r" x1="42" y1="350" x2="42" y2="390" xlink:href="#c"/><linearGradient id="s" x1="110" y1="305" x2="110" y2="345" xlink:href="#c"/><linearGradient id="t" x1="76" y1="258.35" x2="76" y2="304" xlink:href="#l"/><linearGradient id="u" x1="300" y1="272.5" x2="300" y2="400.5" gradientTransform="matrix(1,0,0,1,0,0)" xlink:href="#b"/><linearGradient id="v" x1="300" y1="272.5" x2="300" y2="400.5" xlink:href="#l"/><linearGradient id="w" x1="254.5" y1="350" x2="254.5" y2="390" xlink:href="#c"/><linearGradient id="x" x1="345.5" y1="350" x2="345.5" y2="390" xlink:href="#c"/><linearGradient id="y" x1="300" y1="350" x2="300" y2="390" xlink:href="#c"/><linearGradient id="z" x1="299.97" y1="147" x2="299.97" y2="98.5" gradientTransform="translate(0 403) scale(1 -1)" xlink:href="#l"/><linearGradient id="aa" x1="524" y1="272.5" x2="524" y2="400.5" gradientTransform="matrix(1,0,0,1,0,0)" xlink:href="#b"/><linearGradient id="ab" x1="524" y1="272.5" x2="524" y2="400.5" xlink:href="#l"/><linearGradient id="ac" x1="506" y1="305" x2="506" y2="368" xlink:href="#c"/><linearGradient id="ad" x1="574" y1="305" x2="574" y2="336" xlink:href="#c"/><linearGradient id="ae" x1="574" y1="341" x2="574" y2="372" xlink:href="#c"/><clipPath id="af"><rect class="bi" x="558" y="376.5" width="32" height="22"/></clipPath><linearGradient id="ag" x1="574" y1="377" x2="574" y2="400" xlink:href="#c"/><linearGradient id="ah" x1="524" y1="252" x2="524" y2="304" xlink:href="#l"/><linearGradient id="ai" x1="300" y1="224.5" x2="300" y2="232.5" xlink:href="#l"/><linearGradient id="aj" x1="76" y1="224.5" x2="76" y2="232.5" xlink:href="#l"/><linearGradient id="ak" x1="524" y1="224.5" x2="524" y2="232.5" xlink:href="#l"/><linearGradient id="al" x1="197" y1="24.5" x2="197" y2="32.5" gradientUnits="userSpaceOnUse"><stop offset="0" stop-color="#f6cd51"/><stop offset="1" stop-color="#f48e2a"/></linearGradient><linearGradient id="am" x1="331.76" y1="25.25" x2="331.76" y2="33.73" xlink:href="#al"/></defs><path class="cb" d="m256,107.72c0-20.66-16.17-37.53-36.57-38.71v-.07c0-27.72-22.51-50.19-50.29-50.19-8.39,0-16.29,2.06-23.23,5.68C136.03,9.99,119.42.5,100.57.5c-30.3,0-54.86,24.51-54.86,54.75C20.47,55.25,0,75.68,0,100.87s20.47,45.62,45.71,45.62h173.71v-.07c20.4-1.19,36.57-18.06,36.57-38.71Z"/><path class="cd" d="m2,114.25c1.86,6.05,4.94,11.56,8.96,16.25h62.81c2.33,0,4.22-1.9,4.22-4.25V55.35c0-1.13-.44-2.21-1.24-3.01l-16.48-16.6c-.79-.8-1.87-1.25-2.99-1.25h-7.5c-2.63,6.4-4.09,13.4-4.09,20.75-20.58,0-37.99,13.58-43.71,32.25v26.74Z"/><path class="cj" d="m254,120v-24.57c-4.92-14.71-18.41-25.49-34.57-26.43v-.07c0-13.34-5.22-25.45-13.73-34.44h-23.48c-2.33,0-4.22,1.9-4.22,4.25v87.49c0,2.35,1.89,4.25,4.22,4.25h66.36c2.31-3.17,4.15-6.7,5.42-10.5Z"/><path class="az" d="m145.3,34.5c1.12,0,2.19.45,2.99,1.25l16.47,16.6c.79.8,1.24,1.88,1.24,3.01v70.9c0,2.35-1.89,4.25-4.22,4.25h-67.56c-2.33,0-4.22-1.9-4.22-4.25V38.75c0-2.35,1.89-4.25,4.22-4.25h51.08Z"/><path class="ao" d="m147.9,48.47v-13.12l17.24,17.37h-13.02c-2.33,0-4.22-1.9-4.22-4.25Z"/><path class="as" d="m137.6,93.5h14.4"/><path class="as" d="m113.6,93.5h19.2"/><path class="as" d="m104,93.5h4.8"/><path class="as" d="m118.4,107.9h-14.4"/><path class="as" d="m142.4,107.9h-19.2"/><path class="as" d="m152,107.9h-4.8"/><path class="as" d="m128,98.3h24"/><path class="as" d="m104,98.3h19.2"/><path class="as" d="m128,112.7h-24"/><path class="as" d="m152,112.7h-19.2"/><path class="as" d="m118.4,103.1h33.6"/><path class="as" d="m104,103.1h9.6"/><path class="as" d="m104,117.5h19.2"/><path class="bg" d="m126,52.5h-20c-1.1,0-2-.9-2-2s.9-2,2-2h20c1.1,0,2,.9,2,2s-.9,2-2,2Z"/><rect class="as" x="104" y="60.5" width="49" height="24"/><line class="as" x1="104" y1="60.5" x2="153" y2="84.5"/><line class="as" x1="153" y1="60.5" x2="104" y2="84.5"/><path class="as" d="m51,34.5h6.3c1.12,0,2.19.45,2.99,1.25l16.47,16.6c.79.8,1.24,1.88,1.24,3.01v70.9c0,2.35-1.89,4.25-4.22,4.25H10.95"/><path class="ao" d="m59.9,48.47v-13.12l17.24,17.37h-13.02c-2.33,0-4.22-1.9-4.22-4.25Z"/><path class="as" d="m49.6,93.5h14.4"/><path class="as" d="m25.6,93.5h19.2"/><path class="as" d="m16,93.5h4.8"/><path class="as" d="m30.4,107.9h-14.4"/><path class="as" d="m54.4,107.9h-19.2"/><path class="as" d="m64,107.9h-4.8"/><path class="as" d="m40,98.3h24"/><path class="as" d="m16,98.3h19.2"/><path class="as" d="m40,112.7h-24"/><path class="as" d="m64,112.7h-19.2"/><path class="as" d="m30.4,103.1h33.6"/><path class="as" d="m16,103.1h9.6"/><path class="as" d="m16,117.5h19.2"/><polyline class="as" points="27 60.5 65 60.5 65 84.5 16 84.5 16 67.5"/><line class="as" x1="22" y1="63.44" x2="65" y2="84.5"/><line class="as" x1="65" y1="60.5" x2="16" y2="84.5"/><path class="as" d="m247,130.5h-64.78c-2.33,0-4.22-1.9-4.22-4.25V38.75c0-2.35,1.89-4.25,4.22-4.25h21.78"/><path class="as" d="m225.6,93.5h14.4"/><path class="as" d="m201.6,93.5h19.2"/><path class="as" d="m192,93.5h4.8"/><path class="as" d="m206.4,107.9h-14.4"/><path class="as" d="m230.4,107.9h-19.2"/><path class="as" d="m240,107.9h-4.8"/><path class="as" d="m216,98.3h24"/><path class="as" d="m192,98.3h19.2"/><path class="as" d="m216,112.7h-24"/><path class="as" d="m240,112.7h-19.2"/><path class="as" d="m206.4,103.1h33.6"/><path class="as" d="m192,103.1h9.6"/><path class="as" d="m192,117.5h19.2"/><path class="bg" d="m215.73,51.5c-.35.6-.99,1-1.73,1h-20c-1.1,0-2-.9-2-2s.9-2,2-2h20l1.73,3Z"/><polyline class="as" points="241 78.5 241 84.5 192 84.5 192 60.5 217 60.5"/><line class="as" x1="192" y1="60.5" x2="241" y2="84.5"/><line class="as" x1="220.58" y1="70.5" x2="192" y2="84.5"/><path class="ci" d="m100.57,2.5c17.48,0,33.81,8.62,43.69,23.06l1,1.46,1.57-.82c6.96-3.62,14.46-5.45,22.31-5.45,26.62,0,48.29,21.62,48.29,48.19v1.96l1.88.11c19.45,1.13,34.69,17.26,34.69,36.72s-15.24,35.59-34.69,36.72l-1.12.07H45.71c-24.1,0-43.71-19.57-43.71-43.62s19.61-43.62,43.71-43.62h2v-2c0-29.09,23.71-52.75,52.86-52.75m0-2c-30.3,0-54.86,24.51-54.86,54.75C20.47,55.25,0,75.68,0,100.87s20.47,45.62,45.71,45.62h173.71v-.07c20.4-1.19,36.57-18.06,36.57-38.71s-16.17-37.53-36.57-38.71v-.07c0-27.72-22.51-50.19-50.29-50.19-8.39,0-16.29,2.06-23.23,5.68C136.03,9.99,119.42.5,100.57.5h0Z"/><g class="cv"><ellipse class="cr" cx="472" cy="171.5" rx="112" ry="5"/></g><path class="bp" d="m536,169.33h-128v3.04c0,2.28,28.65,4.12,64,4.12s64-1.85,64-4.12v-3.04Z"/><path class="cp" d="m490.83,150.5l-2.83-8h-32l-2.83,8c-3.75,10.27-15.19,15.06-28.79,16.05-10.19.74-16.39,1.71-16.39,2.78,0,2.3,28.65,4.17,64,4.17s64-1.86,64-4.17c0-1.07-6.2-2.04-16.39-2.78-13.59-.99-25.03-5.78-28.79-16.05Z"/><path class="co" d="m352.07.5h239.86c4.46,0,8.07,3.58,8.07,8v128c0,4.42-3.61,8-8.07,8h-239.86c-4.46,0-8.07-3.58-8.07-8V8.5c0-4.42,3.61-8,8.07-8Z"/><path class="cl" d="m591.93,2.5c3.35,0,6.07,2.69,6.07,6v128c0,3.31-2.72,6-6.07,6h-239.86c-3.35,0-6.07-2.69-6.07-6V8.5c0-3.31,2.72-6,6.07-6h239.86m0-2h-239.86c-4.46,0-8.07,3.58-8.07,8v128c0,4.42,3.61,8,8.07,8h239.86c4.46,0,8.07-3.58,8.07-8V8.5c0-4.42-3.61-8-8.07-8h0Z"/><rect class="bf" x="359" y="17.5" width="190" height="110" rx="3" ry="3"/><path class="bg" d="m546,18.5c1.1,0,2,.9,2,2v104c0,1.1-.9,2-2,2h-184c-1.1,0-2-.9-2-2V20.5c0-1.1.9-2,2-2h184m0-2h-184c-2.21,0-4,1.79-4,4v104c0,2.21,1.79,4,4,4h184c2.21,0,4-1.79,4-4V20.5c0-2.21-1.79-4-4-4h0Z"/><path class="bg" d="m362,16.5h184c2.21,0,4,1.79,4,4v8h-192v-8c0-2.21,1.79-4,4-4Z"/><path class="bf" d="m368,20.5h0c1.1,0,2,.9,2,2h0c0,1.1-.9,2-2,2h0c-1.1,0-2-.9-2-2h0c0-1.1.9-2,2-2Z"/><path class="bf" d="m373,20.5h0c1.1,0,2,.9,2,2h0c0,1.1-.9,2-2,2h0c-1.1,0-2-.9-2-2h0c0-1.1.9-2,2-2Z"/><path class="bf" d="m378,20.5h0c1.1,0,2,.9,2,2h0c0,1.1-.9,2-2,2h0c-1.1,0-2-.9-2-2h0c0-1.1.9-2,2-2Z"/><rect class="bh" x="360" y="28.5" width="188" height="12"/><path class="bj" d="m367,37.5c-.26,0-.51-.1-.71-.29l-2-2c-.39-.39-.39-1.02,0-1.41l2-2c.39-.39,1.02-.39,1.41,0s.39,1.02,0,1.41l-1.29,1.29,1.29,1.29c.39.39.39,1.02,0,1.41-.2.2-.45.29-.71.29Z"/><path class="bj" d="m373,37.5c-.26,0-.51-.1-.71-.29-.39-.39-.39-1.02,0-1.41l1.29-1.29-1.29-1.29c-.39-.39-.39-1.02,0-1.41s1.02-.39,1.41,0l2,2c.39.39.39,1.02,0,1.41l-2,2c-.2.2-.45.29-.71.29Z"/><path class="bj" d="m543,30.5h0c.55,0,1,.45,1,1h0c0,.55-.45,1-1,1h0c-.55,0-1-.45-1-1h0c0-.55.45-1,1-1Z"/><path class="bj" d="m543,33.5h0c.55,0,1,.45,1,1h0c0,.55-.45,1-1,1h0c-.55,0-1-.45-1-1h0c0-.55.45-1,1-1Z"/><path class="bj" d="m543,36.5h0c.55,0,1,.45,1,1h0c0,.55-.45,1-1,1h0c-.55,0-1-.45-1-1h0c0-.55.45-1,1-1Z"/><rect class="bj" x="380" y="30.5" width="158" height="8" rx="4" ry="4"/><path class="bk" d="m360,40.5h32v86h-30c-1.1,0-2-.9-2-2V40.5Z"/><path class="bn" d="m368,68.5c1.1,0,2-.89,2-2s-.9-2-2-2-2,.89-2,2,.9,2,2,2Z"/><path class="bg" d="m375,65.5h10c.55,0,1,.45,1,1h0c0,.55-.45,1-1,1h-10c-.55,0-1-.45-1-1h0c0-.55.45-1,1-1Z"/><path class="bn" d="m368,78.1c1.1,0,2-.9,2-2s-.9-2-2-2-2,.89-2,2,.9,2,2,2Z"/><path class="bg" d="m375,75.1h10c.55,0,1,.45,1,1h0c0,.55-.45,1-1,1h-10c-.55,0-1-.45-1-1h0c0-.55.45-1,1-1Z"/><path class="bn" d="m368,87.7c1.1,0,2-.9,2-2s-.9-2-2-2-2,.89-2,2,.9,2,2,2Z"/><path class="bg" d="m375,84.7h10c.55,0,1,.45,1,1h0c0,.55-.45,1-1,1h-10c-.55,0-1-.45-1-1h0c0-.55.45-1,1-1Z"/><path class="bn" d="m368,97.3c1.1,0,2-.89,2-2s-.9-2-2-2-2,.9-2,2,.9,2,2,2Z"/><path class="bg" d="m375,94.3h10c.55,0,1,.45,1,1h0c0,.55-.45,1-1,1h-10c-.55,0-1-.45-1-1h0c0-.55.45-1,1-1Z"/><path class="bn" d="m368,106.9c1.1,0,2-.89,2-2s-.9-2-2-2-2,.9-2,2,.9,2,2,2Z"/><path class="bg" d="m375,103.9h10c.55,0,1,.45,1,1h0c0,.55-.45,1-1,1h-10c-.55,0-1-.45-1-1h0c0-.55.45-1,1-1Z"/><path class="bn" d="m368,116.5c1.1,0,2-.89,2-2s-.9-2-2-2-2,.89-2,2,.9,2,2,2Z"/><path class="bg" d="m375,113.5h10c.55,0,1,.45,1,1h0c0,.55-.45,1-1,1h-10c-.55,0-1-.45-1-1h0c0-.55.45-1,1-1Z"/><path class="cu" d="m402.22,48.5h135.56c1.23,0,2.22.87,2.22,1.95v36.1c0,1.08-.99,1.95-2.22,1.95h-135.56c-1.23,0-2.22-.87-2.22-1.95v-36.1c0-1.08.99-1.95,2.22-1.95Z"/><path class="au" d="m408.5,58.5h21.5"/><path class="au" d="m434,58.5h9.58"/><path class="ar" d="m408,62.5h21"/><path class="ar" d="m408,68.5h16"/><path class="ar" d="m408,78.5h37"/><path class="ar" d="m428,68.5h34"/><path class="ar" d="m408,71.83h29"/><path class="ar" d="m408,75.17h10"/><path class="ar" d="m441,71.83h21"/><path class="ar" d="m434,75.17h28"/><path class="ar" d="m422,75.17h7.77"/><path class="bl" d="m400,33.5h0c7.73,0,14,6.27,14,14h0c0,7.73-6.27,14-14,14h0c-7.73,0-14-6.27-14-14h0c0-7.73,6.27-14,14-14Z"/><path class="cq" d="m400,34.5c7.17,0,13,5.83,13,13s-5.83,13-13,13-13-5.83-13-13,5.83-13,13-13m0-1c-7.73,0-14,6.27-14,14s6.27,14,14,14,14-6.27,14-14-6.27-14-14-14h0Z"/><path class="aw" d="m410,46.55v1.81c0,.54-.36.9-.91,1h-.45c-.45,0-.82.27-.91.63-.18.45-.36.9-.55,1.27-.18.36-.09.81.18,1.08l.27.27c.36.36.36.9,0,1.27l-1.27,1.27c-.36.36-.91.36-1.27,0l-.27-.27c-.27-.36-.73-.36-1.09-.18-.36.18-.82.36-1.27.54-.36.18-.64.45-.64.9v.45c0,.54-.36.9-.91.9h-1.82c-.55,0-.91-.36-.91-.9v-.45c0-.45-.27-.82-.64-.9-.45-.18-.91-.36-1.27-.54-.36-.18-.82-.18-1.09.09l-.27.27c-.36.36-.91.36-1.27,0l-1.27-1.27c-.36-.36-.36-.9,0-1.27l.27-.27c.36-.27.36-.72.18-1.09-.18-.36-.36-.81-.55-1.27-.18-.36-.45-.63-.91-.63h-.45c-.55,0-.91-.36-.91-.9v-1.81c0-.54.36-.9.91-.9h.45c.36,0,.73-.27.82-.63.18-.45.36-.9.55-1.27.18-.36.18-.81-.18-1.18l-.27-.27c-.36-.36-.36-.9,0-1.27l1.27-1.27c.36-.36.91-.36,1.27,0l.36.36c.27.27.73.27,1.09.09.36-.18.82-.36,1.27-.45.36-.18.64-.45.64-.9v-.45c0-.54.36-.9.91-.9h1.82c.55,0,.91.36.91.9v.36c0,.45.27.81.64.9.45.18.91.36,1.27.54.36.18.82.18,1.09-.09l.27-.27c.36-.36.91-.36,1.27,0l1.27,1.27c.36.36.36.9,0,1.27l-.27.27c-.36.27-.36.72-.18,1.08.18.36.36.82.55,1.27.18.36.45.63.91.63h.45c.55,0,.91.36.91.9Zm-5.87.95c0,2.28-1.85,4.13-4.13,4.13s-4.13-1.85-4.13-4.13,1.85-4.13,4.13-4.13,4.13,1.85,4.13,4.13Z"/><path class="ap" d="m513.18,65.22c1.09.57,1.09,1.99,0,2.56l-6.74,3.52c-1.09.57-2.45-.14-2.45-1.28v-7.04c0-1.14,1.36-1.85,2.45-1.28l6.74,3.52Z"/><rect class="bf" x="470.5" y="53" width="65" height="31" rx="1.5" ry="1.5"/><path class="bh" d="m534,53.5c.55,0,1,.45,1,1v28c0,.55-.45,1-1,1h-62c-.55,0-1-.45-1-1v-28c0-.55.45-1,1-1h62m0-1h-62c-1.1,0-2,.9-2,2v28c0,1.1.9,2,2,2h62c1.1,0,2-.9,2-2v-28c0-1.1-.9-2-2-2h0Z"/><path class="bg" d="m511.02,66.96c1.31.68,1.31,2.39,0,3.07l-8.08,4.22c-1.31.68-2.94-.17-2.94-1.54v-8.45c0-1.37,1.63-2.22,2.94-1.54l8.08,4.22Z"/><rect class="ar" x="514" y="92.5" width="26" height="26" rx="2" ry="2"/><rect class="ar" x="483" y="92.5" width="26" height="26" rx="2" ry="2"/><rect class="ar" x="452" y="92.5" width="26" height="26" rx="2" ry="2"/><rect class="ar" x="400" y="92.5" width="47" height="26" rx="2" ry="2"/><path class="bh" d="m429.18,104.22c1.09.57,1.09,1.99,0,2.56l-6.73,3.52c-1.09.57-2.45-.14-2.45-1.28v-7.04c0-1.14,1.36-1.85,2.45-1.28l6.73,3.52Z"/><rect class="ar" x="518" y="107.5" width="4.5" height="7"/><rect class="ar" x="522.5" y="109.5" width="4.5" height="5"/><rect class="ar" x="527" y="106.5" width="4.5" height="8"/><rect class="ar" x="531.5" y="102.5" width="4.5" height="12"/><polyline class="ar" points="518 102.5 524.75 104.5 529.25 99.5 536 96.5"/><line class="ar" x1="518" y1="96.5" x2="523" y2="96.5"/><line class="ar" x1="518" y1="98.5" x2="521" y2="98.5"/><path class="ar" d="m509,114.5l-4.14-4.14-2.22,2.21-6.64-6.64-6.64,6.64m0,0l-2.22-2.21-4.14,4.14m6.36-1.94l1.94,1.94"/><path class="ar" d="m483.03,98.9c.29-.95,1.18-1.65,2.25-1.65.94,0,1.72.53,2.12,1.32.29-.21.65-.29,1.06-.29,1.06,0,1.96.86,1.96,1.97,0,.12,0,.25-.04.37.82.16,1.43.9,1.43,1.77,0,.99-.78,1.81-1.8,1.81-.25,0-.53-.04-.78-.16-.25.62-.86,1.03-1.55,1.03-.45,0-.82-.16-1.1-.41-.2.25-.49.41-.86.41-.45,0-.86-.29-.98-.74-.37.33-.82.53-1.35.53"/><path class="ar" d="m501.54,96.19v1.07m0,5.87v1.07m4-4h-1.07m-5.87,0h-1.07m2-3.47l.53.92m2.93,5.09l.53.92m1.47-5.47l-.92.53m-5.09,2.93l-.92.53m0-4l.92.53m5.09,2.93l.92.53m-1.47-5.47l-.53.92m-2.93,5.09l-.53.92m4.13-3.47c0,1.18-.96,2.13-2.13,2.13s-2.13-.96-2.13-2.13.96-2.13,2.13-2.13,2.13.96,2.13,2.13Z"/><line class="ar" x1="457" y1="97.5" x2="466" y2="97.5"/><line class="ar" x1="457" y1="99.5" x2="463" y2="99.5"/><line class="ar" x1="457" y1="113.5" x2="468" y2="113.5"/><line class="ar" x1="466" y1="111.5" x2="473" y2="111.5"/><line class="ar" x1="457" y1="111.5" x2="464" y2="111.5"/><line class="ar" x1="462" y1="109.5" x2="473" y2="109.5"/><line class="ar" x1="457" y1="109.5" x2="460" y2="109.5"/><line class="ar" x1="470" y1="107.5" x2="473" y2="107.5"/><line class="ar" x1="457" y1="107.5" x2="468" y2="107.5"/><line class="ar" x1="465" y1="105.5" x2="473" y2="105.5"/><line class="ar" x1="457" y1="105.5" x2="463" y2="105.5"/><rect class="bm" x="580" y="10.5" width="10" height="12" rx="2" ry="2"/><line class="ar" x1="579" y1="25.5" x2="591" y2="25.5"/><line class="ar" x1="581" y1="27.5" x2="589" y2="27.5"/><rect class="bm" x="580" y="35.5" width="10" height="12" rx="2" ry="2"/><line class="ar" x1="579" y1="50.5" x2="591" y2="50.5"/><line class="ar" x1="581" y1="52.5" x2="589" y2="52.5"/><rect class="bm" x="580" y="60.5" width="10" height="12" rx="2" ry="2"/><line class="ar" x1="579" y1="75.5" x2="591" y2="75.5"/><line class="ar" x1="581" y1="77.5" x2="589" y2="77.5"/><circle class="bf" cx="344" cy="72.5" r="4"/><path class="cs" d="m344,69.5c1.65,0,3,1.35,3,3s-1.35,3-3,3-3-1.35-3-3,1.35-3,3-3m0-1c-2.21,0-4,1.79-4,4s1.79,4,4,4,4-1.79,4-4-1.79-4-4-4h0Z"/><rect class="ct" y="272.5" width="152" height="128" rx="8" ry="8"/><path class="cm" d="m144,274.5c3.31,0,6,2.69,6,6v112c0,3.31-2.69,6-6,6H8c-3.31,0-6-2.69-6-6v-112c0-3.31,2.69-6,6-6h136m0-2H8c-4.42,0-8,3.58-8,8v112c0,4.42,3.58,8,8,8h136c4.42,0,8-3.58,8-8v-112c0-4.42-3.58-8-8-8h0Z"/><path class="bo" d="m8,272.5h136c4.42,0,8,3.58,8,8v4H0v-4c0-4.42,3.58-8,8-8Z"/><path class="bf" d="m10,276.5h0c1.1,0,2,.9,2,2h0c0,1.1-.9,2-2,2h0c-1.1,0-2-.9-2-2h0c0-1.1.9-2,2-2Z"/><path class="bf" d="m15,276.5h0c1.1,0,2,.9,2,2h0c0,1.1-.9,2-2,2h0c-1.1,0-2-.9-2-2h0c0-1.1.9-2,2-2Z"/><path class="bf" d="m20,276.5h0c1.1,0,2,.9,2,2h0c0,1.1-.9,2-2,2h0c-1.1,0-2-.9-2-2h0c0-1.1.9-2,2-2Z"/><rect class="bh" x="2" y="284.5" width="148" height="12"/><path class="bj" d="m9,293.5c-.26,0-.51-.1-.71-.29l-2-2c-.39-.39-.39-1.02,0-1.41l2-2c.39-.39,1.02-.39,1.41,0s.39,1.02,0,1.41l-1.29,1.29,1.29,1.29c.39.39.39,1.02,0,1.41-.2.2-.45.29-.71.29Z"/><path class="bj" d="m15,293.5c-.26,0-.51-.1-.71-.29-.39-.39-.39-1.02,0-1.41l1.29-1.29-1.29-1.29c-.39-.39-.39-1.02,0-1.41s1.02-.39,1.41,0l2,2c.39.39.39,1.02,0,1.41l-2,2c-.2.2-.45.29-.71.29Z"/><path class="bj" d="m145,286.5h0c.55,0,1,.45,1,1h0c0,.55-.45,1-1,1h0c-.55,0-1-.45-1-1h0c0-.55.45-1,1-1Z"/><path class="bj" d="m145,289.5h0c.55,0,1,.45,1,1h0c0,.55-.45,1-1,1h0c-.55,0-1-.45-1-1h0c0-.55.45-1,1-1Z"/><path class="bj" d="m145,292.5h0c.55,0,1,.45,1,1h0c0,.55-.45,1-1,1h0c-.55,0-1-.45-1-1h0c0-.55.45-1,1-1Z"/><rect class="bj" x="22" y="286.5" width="118" height="8" rx="4" ry="4"/><rect class="cn" x="10.5" y="350" width="63" height="40" rx="1.5" ry="1.5"/><path class="bg" d="m72,350.5c.55,0,1,.45,1,1v37c0,.55-.45,1-1,1H12c-.55,0-1-.45-1-1v-37c0-.55.45-1,1-1h60m0-1H12c-1.1,0-2,.9-2,2v37c0,1.1.9,2,2,2h60c1.1,0,2-.9,2-2v-37c0-1.1-.9-2-2-2h0Z"/><rect class="ck" x="78.5" y="305" width="63" height="40" rx="1.5" ry="1.5"/><path class="bg" d="m140,305.5c.55,0,1,.45,1,1v37c0,.55-.45,1-1,1h-60c-.55,0-1-.45-1-1v-37c0-.55.45-1,1-1h60m0-1h-60c-1.1,0-2,.9-2,2v37c0,1.1.9,2,2,2h60c1.1,0,2-.9,2-2v-37c0-1.1-.9-2-2-2h0Z"/><path class="bg" d="m118.69,322.95c1.74.91,1.74,3.19,0,4.1l-10.78,5.63c-1.74.91-3.92-.23-3.92-2.05v-11.26c0-1.82,2.18-2.96,3.92-2.05l10.78,5.63Z"/><rect class="as" x="18" y="377.5" width="8" height="5"/><rect class="as" x="26" y="373.5" width="8" height="9"/><rect class="as" x="34" y="375.5" width="8" height="7"/><rect class="as" x="42" y="371.5" width="8" height="11"/><rect class="as" x="50" y="368.5" width="8" height="14"/><rect class="ao" x="58" y="363.5" width="8" height="19"/><polyline class="as" points="22 370.5 30 366.5 38 368.5 46 364.5 54 361.5 62 356.5"/><line class="as" x1="19" y1="356.5" x2="35" y2="356.5"/><line class="as" x1="19" y1="359.5" x2="29" y2="359.5"/><line class="av" x1="16" y1="310.5" x2="34" y2="310.5"/><line class="av" x1="16" y1="314.5" x2="30" y2="314.5"/><line class="as" x1="16" y1="321.5" x2="26" y2="321.5"/><line class="as" x1="29" y1="321.5" x2="34" y2="321.5"/><line class="as" x1="16" y1="324.5" x2="22" y2="324.5"/><line class="as" x1="37" y1="321.5" x2="68" y2="321.5"/><line class="as" x1="51" y1="324.5" x2="63" y2="324.5"/><line class="as" x1="25" y1="324.5" x2="48" y2="324.5"/><line class="as" x1="16" y1="327.5" x2="57" y2="327.5"/><path class="bg" d="m18,340c-1.38,0-2.5-1.12-2.5-2.5s1.12-2.5,2.5-2.5h11c1.38,0,2.5,1.12,2.5,2.5s-1.12,2.5-2.5,2.5h-11Z"/><path class="bg" d="m29,335.5c1.1,0,2,.9,2,2s-.9,2-2,2h-11c-1.1,0-2-.9-2-2s.9-2,2-2h11m0-1h-11c-1.66,0-3,1.34-3,3s1.34,3,3,3h11c1.66,0,3-1.34,3-3s-1.34-3-3-3h0Z"/><path class="bg" d="m50,335.5c1.1,0,2,.9,2,2s-.9,2-2,2h-11c-1.1,0-2-.9-2-2s.9-2,2-2h11m0-1h-11c-1.66,0-3,1.34-3,3s1.34,3,3,3h11c1.66,0,3-1.34,3-3s-1.34-3-3-3h0Z"/><line class="av" x1="84" y1="356" x2="95" y2="356"/><line class="av" x1="99" y1="356" x2="112" y2="356"/><line class="av" x1="84" y1="360" x2="103" y2="360"/><line class="as" x1="84" y1="367" x2="101" y2="367"/><line class="as" x1="104" y1="367" x2="110" y2="367"/><line class="as" x1="84" y1="370" x2="90" y2="370"/><line class="as" x1="123" y1="370" x2="133" y2="370"/><line class="as" x1="113" y1="367" x2="137" y2="367"/><line class="as" x1="93" y1="370" x2="120" y2="370"/><line class="as" x1="84" y1="373" x2="99" y2="373"/><line class="as" x1="84" y1="378" x2="101" y2="378"/><line class="as" x1="104" y1="378" x2="122" y2="378"/><line class="as" x1="84" y1="381" x2="97" y2="381"/><line class="as" x1="111" y1="381" x2="133" y2="381"/><line class="as" x1="125" y1="378" x2="137" y2="378"/><line class="as" x1="100" y1="381" x2="108" y2="381"/><line class="as" x1="84" y1="384" x2="117" y2="384"/><rect class="bi" x="44" y="240.5" width="64" height="64"/><path class="an" d="m52.41,269.9c-2.44,0-4.41,1.99-4.41,4.44s1.45,9.09,5.81,9.09c3.21,10.72,8.92,20.57,22.19,20.57,13.27,0,18.98-9.85,22.19-20.57,4.36,0,5.81-6.63,5.81-9.09s-1.97-4.44-4.41-4.44c16.18-19.8-21.47-38.36-36.87-23.55-13.43,0-17.89,15.9-10.32,23.55Z"/><path class="bb" d="m99.59,269.9c2.44,0,4.41,1.99,4.41,4.44s-1.45,9.09-5.81,9.09c-3.21,10.72-8.92,20.57-22.19,20.57-13.27,0-18.98-9.85-22.19-20.57-4.36,0-5.81-6.63-5.81-9.09s1.97-4.44,4.41-4.44c2.8-8.57,10.32-11.55,16.23-11.55,9.33,9.7,23.02-.05,30.96,11.55Z"/><circle class="bf" cx="68.5" cy="275.5" r="3"/><circle class="bf" cx="83.5" cy="275.5" r="3"/><rect class="ch" x="224" y="272.5" width="152" height="128" rx="8" ry="8"/><path class="cc" d="m368,274.5c3.31,0,6,2.69,6,6v112c0,3.31-2.69,6-6,6h-136c-3.31,0-6-2.69-6-6v-112c0-3.31,2.69-6,6-6h136m0-2h-136c-4.42,0-8,3.58-8,8v112c0,4.42,3.58,8,8,8h136c4.42,0,8-3.58,8-8v-112c0-4.42-3.58-8-8-8h0Z"/><path class="bo" d="m232,272.5h136c4.42,0,8,3.58,8,8v4h-152v-4c0-4.42,3.58-8,8-8Z"/><path class="bf" d="m234,276.5h0c1.1,0,2,.9,2,2h0c0,1.1-.9,2-2,2h0c-1.1,0-2-.9-2-2h0c0-1.1.9-2,2-2Z"/><path class="bf" d="m239,276.5h0c1.1,0,2,.9,2,2h0c0,1.1-.9,2-2,2h0c-1.1,0-2-.9-2-2h0c0-1.1.9-2,2-2Z"/><path class="bf" d="m244,276.5h0c1.1,0,2,.9,2,2h0c0,1.1-.9,2-2,2h0c-1.1,0-2-.9-2-2h0c0-1.1.9-2,2-2Z"/><rect class="bh" x="226" y="284.5" width="148" height="12"/><path class="bj" d="m233,293.5c-.26,0-.51-.1-.71-.29l-2-2c-.39-.39-.39-1.02,0-1.41l2-2c.39-.39,1.02-.39,1.41,0s.39,1.02,0,1.41l-1.29,1.29,1.29,1.29c.39.39.39,1.02,0,1.41-.2.2-.45.29-.71.29Z"/><path class="bj" d="m239,293.5c-.26,0-.51-.1-.71-.29-.39-.39-.39-1.02,0-1.41l1.29-1.29-1.29-1.29c-.39-.39-.39-1.02,0-1.41s1.02-.39,1.41,0l2,2c.39.39.39,1.02,0,1.41l-2,2c-.2.2-.45.29-.71.29Z"/><path class="bj" d="m369,286.5h0c.55,0,1,.45,1,1h0c0,.55-.45,1-1,1h0c-.55,0-1-.45-1-1h0c0-.55.45-1,1-1Z"/><path class="bj" d="m369,289.5h0c.55,0,1,.45,1,1h0c0,.55-.45,1-1,1h0c-.55,0-1-.45-1-1h0c0-.55.45-1,1-1Z"/><path class="bj" d="m369,292.5h0c.55,0,1,.45,1,1h0c0,.55-.45,1-1,1h0c-.55,0-1-.45-1-1h0c0-.55.45-1,1-1Z"/><rect class="bj" x="246" y="286.5" width="118" height="8" rx="4" ry="4"/><rect class="cg" x="234.5" y="350" width="40" height="40" rx="1.5" ry="1.5"/><path class="bg" d="m273,350.5c.55,0,1,.45,1,1v37c0,.55-.45,1-1,1h-37c-.55,0-1-.45-1-1v-37c0-.55.45-1,1-1h37m0-1h-37c-1.1,0-2,.9-2,2v37c0,1.1.9,2,2,2h37c1.1,0,2-.9,2-2v-37c0-1.1-.9-2-2-2h0Z"/><path class="as" d="m274,383.36l-6.22-6.22-3.33,3.31-9.95-9.95-9.95,9.95m0,0l-3.33-3.31-6.22,6.22m9.55-2.9l2.9,2.9"/><path class="as" d="m234.63,357.02c.77-1.05,2.03-1.73,3.45-1.73,1.71,0,3.12.97,3.86,2.39.52-.37,1.19-.52,1.93-.52,1.93,0,3.57,1.57,3.57,3.59,0,.22,0,.45-.07.67,1.49.3,2.6,1.65,2.6,3.22,0,1.8-1.41,3.29-3.27,3.29-.45,0-.97-.07-1.41-.3-.45,1.12-1.56,1.87-2.82,1.87-.82,0-1.49-.3-2.01-.75-.37.45-.89.75-1.56.75-.82,0-1.56-.52-1.78-1.35-.67.6-1.49.97-2.45.97"/><path class="as" d="m263,353.5v2.13m0,11.73v2.13m8-8h-2.13m-11.73,0h-2.13m4-6.93l1.07,1.84m5.87,10.19l1.07,1.84m2.93-10.93l-1.84,1.07m-10.19,5.87l-1.84,1.07m0-8l1.84,1.07m10.19,5.87l1.84,1.07m-2.93-10.93l-1.07,1.84m-5.87,10.19l-1.07,1.84m8.27-6.93c0,2.36-1.91,4.27-4.27,4.27s-4.27-1.91-4.27-4.27,1.91-4.27,4.27-4.27,4.27,1.91,4.27,4.27Z"/><rect class="cf" x="325.5" y="350" width="40" height="40" rx="1.5" ry="1.5"/><path class="bg" d="m364,350.5c.55,0,1,.45,1,1v37c0,.55-.45,1-1,1h-37c-.55,0-1-.45-1-1v-37c0-.55.45-1,1-1h37m0-1h-37c-1.1,0-2,.9-2,2v37c0,1.1.9,2,2,2h37c1.1,0,2-.9,2-2v-37c0-1.1-.9-2-2-2h0Z"/><path class="as" d="m365,383.36l-6.22-6.22-3.33,3.31-9.95-9.95-9.95,9.95m0,0l-3.33-3.31-6.22,6.22m9.55-2.9l2.9,2.9"/><path class="as" d="m325.63,357.02c.77-1.05,2.03-1.73,3.45-1.73,1.71,0,3.12.97,3.86,2.39.52-.37,1.19-.52,1.93-.52,1.93,0,3.57,1.57,3.57,3.59,0,.22,0,.45-.07.67,1.49.3,2.6,1.65,2.6,3.22,0,1.8-1.41,3.29-3.27,3.29-.45,0-.97-.07-1.41-.3-.45,1.12-1.56,1.87-2.82,1.87-.82,0-1.49-.3-2.01-.75-.37.45-.89.75-1.56.75-.82,0-1.56-.52-1.78-1.35-.67.6-1.49.97-2.45.97"/><path class="as" d="m354,353.5v2.13m0,11.73v2.13m8-8h-2.13m-11.73,0h-2.13m4-6.93l1.07,1.84m5.87,10.19l1.07,1.84m2.93-10.93l-1.84,1.07m-10.19,5.87l-1.84,1.07m0-8l1.84,1.07m10.19,5.87l1.84,1.07m-2.93-10.93l-1.07,1.84m-5.87,10.19l-1.07,1.84m8.27-6.93c0,2.36-1.91,4.27-4.27,4.27s-4.27-1.91-4.27-4.27,1.91-4.27,4.27-4.27,4.27,1.91,4.27,4.27Z"/><rect class="ce" x="280" y="350" width="40" height="40" rx="1.5" ry="1.5"/><path class="bg" d="m318.5,350.5c.55,0,1,.45,1,1v37c0,.55-.45,1-1,1h-37c-.55,0-1-.45-1-1v-37c0-.55.45-1,1-1h37m0-1h-37c-1.1,0-2,.9-2,2v37c0,1.1.9,2,2,2h37c1.1,0,2-.9,2-2v-37c0-1.1-.9-2-2-2h0Z"/><path class="as" d="m319.5,383.36l-6.22-6.22-3.33,3.31-9.95-9.95-9.95,9.95m0,0l-3.33-3.31-6.22,6.22m9.55-2.9l2.9,2.9"/><path class="as" d="m280.13,357.02c.77-1.05,2.03-1.73,3.45-1.73,1.71,0,3.12.97,3.86,2.39.52-.37,1.19-.52,1.93-.52,1.93,0,3.57,1.57,3.57,3.59,0,.22,0,.45-.07.67,1.49.3,2.6,1.65,2.6,3.22,0,1.8-1.41,3.29-3.27,3.29-.45,0-.97-.07-1.41-.3-.45,1.12-1.56,1.87-2.82,1.87-.82,0-1.49-.3-2.01-.75-.37.45-.89.75-1.56.75-.82,0-1.56-.52-1.78-1.35-.67.6-1.49.97-2.45.97"/><path class="as" d="m308.5,353.5v2.13m0,11.73v2.13m8-8h-2.13m-11.73,0h-2.13m4-6.93l1.07,1.84m5.87,10.19l1.07,1.84m2.93-10.93l-1.84,1.07m-10.19,5.87l-1.84,1.07m0-8l1.84,1.07m10.19,5.87l1.84,1.07m-2.93-10.93l-1.07,1.84m-5.87,10.19l-1.07,1.84m8.27-6.93c0,2.36-1.91,4.27-4.27,4.27s-4.27-1.91-4.27-4.27,1.91-4.27,4.27-4.27,4.27,1.91,4.27,4.27Z"/><line class="bd" x1="278.5" y1="309" x2="293" y2="309"/><line class="bd" x1="299" y1="309" x2="321.5" y2="309"/><line class="bd" x1="288" y1="315" x2="312" y2="315"/><line class="as" x1="265" y1="323" x2="284" y2="323"/><line class="as" x1="287" y1="323" x2="292" y2="323"/><line class="as" x1="295" y1="323" x2="335" y2="323"/><line class="as" x1="270" y1="326" x2="282.5" y2="326"/><line class="as" x1="311.5" y1="326" x2="330" y2="326"/><line class="as" x1="285.5" y1="326" x2="308.5" y2="326"/><line class="as" x1="279.5" y1="329" x2="320.5" y2="329"/><path class="bg" d="m284,340.5c-1.38,0-2.5-1.12-2.5-2.5s1.12-2.5,2.5-2.5h11c1.38,0,2.5,1.12,2.5,2.5s-1.12,2.5-2.5,2.5h-11Z"/><path class="bg" d="m295,336c1.1,0,2,.9,2,2s-.9,2-2,2h-11c-1.1,0-2-.9-2-2s.9-2,2-2h11m0-1h-11c-1.66,0-3,1.34-3,3s1.34,3,3,3h11c1.66,0,3-1.34,3-3s-1.34-3-3-3h0Z"/><path class="bg" d="m316,336c1.1,0,2,.9,2,2s-.9,2-2,2h-11c-1.1,0-2-.9-2-2s.9-2,2-2h11m0-1h-11c-1.66,0-3,1.34-3,3s1.34,3,3,3h11c1.66,0,3-1.34,3-3s-1.34-3-3-3h0Z"/><rect class="bi" x="268" y="240.5" width="64" height="64"/><path class="bf" d="m289.83,300.83s-11.61,3.72-21.83-.62c8.72-10.23,5.83-21.85,5.83-27.69,0-20.4,13.06-32.03,26.17-32.03s26.17,11.62,26.17,32.03c0,5.84-2.89,17.46,5.83,27.64-10.17,4.39-21.83.62-21.83.62-2.94,2.32-6.35,3.72-10.17,3.72s-7.23-1.4-10.17-3.67Z"/><path class="ba" d="m319.96,284.06c-1.92,6.42-5.32,12.49-9.93,16.24-.06.02-.12.05-.17.09-2.87,2.27-6.17,3.61-9.86,3.61s-6.99-1.35-9.81-3.56c-.05-.04-.11-.07-.18-.09-4.65-3.75-8.06-9.87-10.03-16.35-.06-.21-.26-.35-.48-.35-.87,0-1.63-.46-2.32-1.3-.68-.84-1.24-2.01-1.68-3.28-.8-2.32-1.16-4.89-1.22-6.18,7.1-2.91,14.45-9.52,18.51-16.05,7.78,8.47,17.79,14.44,32.85,16.15-.07,1.31-.43,3.85-1.22,6.14-.44,1.28-1,2.45-1.68,3.28-.68.84-1.45,1.3-2.32,1.3-.22,0-.42.14-.48.36Z"/><circle class="bf" cx="293" cy="275.5" r="3"/><circle class="bf" cx="308" cy="275.5" r="3"/><rect class="br" x="448" y="272.5" width="152" height="128" rx="8" ry="8"/><path class="bt" d="m592,274.5c3.31,0,6,2.69,6,6v112c0,3.31-2.69,6-6,6h-136c-3.31,0-6-2.69-6-6v-112c0-3.31,2.69-6,6-6h136m0-2h-136c-4.42,0-8,3.58-8,8v112c0,4.42,3.58,8,8,8h136c4.42,0,8-3.58,8-8v-112c0-4.42-3.58-8-8-8h0Z"/><path class="bo" d="m456,272.5h136c4.42,0,8,3.58,8,8v4h-152v-4c0-4.42,3.58-8,8-8Z"/><path class="bf" d="m458,276.5h0c1.1,0,2,.9,2,2h0c0,1.1-.9,2-2,2h0c-1.1,0-2-.9-2-2h0c0-1.1.9-2,2-2Z"/><path class="bf" d="m463,276.5h0c1.1,0,2,.9,2,2h0c0,1.1-.9,2-2,2h0c-1.1,0-2-.9-2-2h0c0-1.1.9-2,2-2Z"/><path class="bf" d="m468,276.5h0c1.1,0,2,.9,2,2h0c0,1.1-.9,2-2,2h0c-1.1,0-2-.9-2-2h0c0-1.1.9-2,2-2Z"/><rect class="bh" x="450" y="284.5" width="148" height="12"/><path class="bj" d="m457,293.5c-.26,0-.51-.1-.71-.29l-2-2c-.39-.39-.39-1.02,0-1.41l2-2c.39-.39,1.02-.39,1.41,0s.39,1.02,0,1.41l-1.29,1.29,1.29,1.29c.39.39.39,1.02,0,1.41-.2.2-.45.29-.71.29Z"/><path class="bj" d="m463,293.5c-.26,0-.51-.1-.71-.29-.39-.39-.39-1.02,0-1.41l1.29-1.29-1.29-1.29c-.39-.39-.39-1.02,0-1.41s1.02-.39,1.41,0l2,2c.39.39.39,1.02,0,1.41l-2,2c-.2.2-.45.29-.71.29Z"/><path class="bj" d="m593,286.5h0c.55,0,1,.45,1,1h0c0,.55-.45,1-1,1h0c-.55,0-1-.45-1-1h0c0-.55.45-1,1-1Z"/><path class="bj" d="m593,289.5h0c.55,0,1,.45,1,1h0c0,.55-.45,1-1,1h0c-.55,0-1-.45-1-1h0c0-.55.45-1,1-1Z"/><path class="bj" d="m593,292.5h0c.55,0,1,.45,1,1h0c0,.55-.45,1-1,1h0c-.55,0-1-.45-1-1h0c0-.55.45-1,1-1Z"/><rect class="bj" x="470" y="286.5" width="118" height="8" rx="4" ry="4"/><rect class="by" x="458.5" y="305" width="95" height="63" rx="1.5" ry="1.5"/><path class="bg" d="m552,305.5c.55,0,1,.45,1,1v60c0,.55-.45,1-1,1h-92c-.55,0-1-.45-1-1v-60c0-.55.45-1,1-1h92m0-1h-92c-1.1,0-2,.9-2,2v60c0,1.1.9,2,2,2h92c1.1,0,2-.9,2-2v-60c0-1.1-.9-2-2-2h0Z"/><path class="bg" d="m519.04,333.43c2.61,1.37,2.61,4.78,0,6.14l-16.16,8.45c-2.61,1.37-5.88-.34-5.88-3.07v-16.89c0-2.73,3.27-4.44,5.88-3.07l16.16,8.45Z"/><rect class="bw" x="558.5" y="305" width="31" height="31" rx="1.5" ry="1.5"/><path class="bg" d="m588,305.5c.55,0,1,.45,1,1v28c0,.55-.45,1-1,1h-28c-.55,0-1-.45-1-1v-28c0-.55.45-1,1-1h28m0-1h-28c-1.1,0-2,.9-2,2v28c0,1.1.9,2,2,2h28c1.1,0,2-.9,2-2v-28c0-1.1-.9-2-2-2h0Z"/><path class="as" d="m589.22,330.93l-4.85-4.85-2.6,2.58-7.77-7.77-7.77,7.77m0,0l-2.6-2.58-4.85,4.85m7.45-2.27l2.27,2.27"/><path class="as" d="m558.49,310.37c.6-.82,1.59-1.35,2.69-1.35,1.33,0,2.43.76,3.01,1.87.41-.29.93-.41,1.51-.41,1.51,0,2.78,1.23,2.78,2.8,0,.18,0,.35-.06.53,1.16.23,2.03,1.28,2.03,2.51,0,1.4-1.1,2.57-2.55,2.57-.35,0-.75-.06-1.1-.23-.35.88-1.22,1.46-2.2,1.46-.64,0-1.16-.23-1.57-.58-.29.35-.7.58-1.22.58-.64,0-1.22-.41-1.39-1.05-.52.47-1.16.76-1.91.76"/><path class="as" d="m580.63,307.62v1.67m0,9.16v1.67m6.24-6.24h-1.67m-9.16,0h-1.67m3.12-5.41l.83,1.44m4.58,7.95l.83,1.44m2.29-8.53l-1.44.83m-7.95,4.58l-1.44.83m0-6.24l1.44.83m7.95,4.58l1.44.83m-2.29-8.53l-.83,1.44m-4.58,7.95l-.83,1.44m6.45-5.41c0,1.84-1.49,3.33-3.33,3.33s-3.33-1.49-3.33-3.33,1.49-3.33,3.33-3.33,3.33,1.49,3.33,3.33Z"/><rect class="bs" x="558.5" y="341" width="31" height="31" rx="1.5" ry="1.5"/><path class="bg" d="m588,341.5c.55,0,1,.45,1,1v28c0,.55-.45,1-1,1h-28c-.55,0-1-.45-1-1v-28c0-.55.45-1,1-1h28m0-1h-28c-1.1,0-2,.9-2,2v28c0,1.1.9,2,2,2h28c1.1,0,2-.9,2-2v-28c0-1.1-.9-2-2-2h0Z"/><path class="as" d="m589.22,366.93l-4.85-4.85-2.6,2.58-7.77-7.77-7.77,7.77m0,0l-2.6-2.58-4.85,4.85m7.45-2.27l2.27,2.27"/><path class="as" d="m558.49,346.37c.6-.82,1.59-1.35,2.69-1.35,1.33,0,2.43.76,3.01,1.87.41-.29.93-.41,1.51-.41,1.51,0,2.78,1.23,2.78,2.8,0,.18,0,.35-.06.53,1.16.23,2.03,1.28,2.03,2.51,0,1.4-1.1,2.57-2.55,2.57-.35,0-.75-.06-1.1-.23-.35.88-1.22,1.46-2.2,1.46-.64,0-1.16-.23-1.57-.58-.29.35-.7.58-1.22.58-.64,0-1.22-.41-1.39-1.05-.52.47-1.16.76-1.91.76"/><path class="as" d="m580.63,343.62v1.67m0,9.16v1.67m6.24-6.24h-1.67m-9.16,0h-1.67m3.12-5.41l.83,1.44m4.58,7.95l.83,1.44m2.29-8.53l-1.44.83m-7.95,4.58l-1.44.83m0-6.24l1.44.83m7.95,4.58l1.44.83m-2.29-8.53l-.83,1.44m-4.58,7.95l-.83,1.44m6.45-5.41c0,1.84-1.49,3.33-3.33,3.33s-3.33-1.49-3.33-3.33,1.49-3.33,3.33-3.33,3.33,1.49,3.33,3.33Z"/><line class="av" x1="459" y1="374.5" x2="480" y2="374.5"/><line class="av" x1="484" y1="374.5" x2="495" y2="374.5"/><line class="av" x1="459" y1="378.5" x2="473" y2="378.5"/><line class="as" x1="459" y1="383.5" x2="469" y2="383.5"/><line class="as" x1="472" y1="383.5" x2="499" y2="383.5"/><line class="as" x1="459" y1="386.5" x2="465" y2="386.5"/><line class="as" x1="502" y1="383.5" x2="538" y2="383.5"/><line class="as" x1="509" y1="386.5" x2="523" y2="386.5"/><line class="as" x1="468" y1="386.5" x2="506" y2="386.5"/><line class="as" x1="459" y1="389.5" x2="500" y2="389.5"/><g class="cw"><rect class="bq" x="558.5" y="377" width="31" height="23" rx="1.5" ry="1.5"/><path class="bg" d="m588,377.5c.55,0,1,.45,1,1v20c0,.55-.45,1-1,1h-28c-.55,0-1-.45-1-1v-20c0-.55.45-1,1-1h28m0-1h-28c-1.1,0-2,.9-2,2v20c0,1.1.9,2,2,2h28c1.1,0,2-.9,2-2v-20c0-1.1-.9-2-2-2h0Z"/><path class="as" d="m580.61,399.5l-6.61-6.61-6.61,6.61m18.4,0l-1.43-1.43-1.43,1.43m-17.87,0l-1.43-1.43-1.43,1.43"/><path class="as" d="m558.49,382.37c.6-.82,1.59-1.35,2.69-1.35,1.33,0,2.43.76,3.01,1.87.41-.29.93-.41,1.51-.41,1.51,0,2.78,1.23,2.78,2.8,0,.18,0,.35-.06.53,1.16.23,2.03,1.28,2.03,2.51,0,1.4-1.1,2.57-2.55,2.57-.35,0-.75-.06-1.1-.23-.35.88-1.22,1.46-2.2,1.46-.64,0-1.16-.23-1.57-.58-.29.35-.7.58-1.22.58-.64,0-1.22-.41-1.39-1.05-.52.47-1.16.76-1.91.76"/><path class="as" d="m580.63,379.62v1.67m0,9.16v1.67m6.24-6.24h-1.67m-9.16,0h-1.67m3.12-5.41l.83,1.44m4.58,7.95l.83,1.44m2.29-8.53l-1.44.83m-7.95,4.58l-1.44.83m0-6.24l1.44.83m7.95,4.58l1.44.83m-2.29-8.53l-.83,1.44m-4.58,7.95l-.83,1.44m6.45-5.41c0,1.84-1.49,3.33-3.33,3.33s-3.33-1.49-3.33-3.33,1.49-3.33,3.33-3.33,3.33,1.49,3.33,3.33Z"/></g><rect class="bi" x="492" y="240.5" width="64" height="64"/><path class="ax" d="m500.11,267.36c.18-.01.35-.12.43-.29,4.1-8.89,13.07-15.07,23.44-15.07s19.34,6.17,23.49,15.02c.08.17.24.28.43.29,3.42.18,6.11,3.03,6.11,6.48,0,2.64-1.57,4.89-3.83,5.91-.05.01-.09.04-.13.06-.01,0-.02.02-.03.02-.15.08-.26.23-.28.41-1.16,13.37-12.25,23.81-25.75,23.81s-24.59-10.45-25.7-23.76c-.02-.18-.12-.33-.28-.41-.01,0-.02-.02-.03-.02-.04-.02-.08-.04-.13-.06-2.26-1.02-3.83-3.26-3.83-5.91,0-3.5,2.69-6.3,6.11-6.48Zm49.81,12.49s0,0,0,0h0Z"/><path class="be" d="m533.76,242.84c.31,1.58-.71,3.11-2.28,3.42-.34.07-.64.15-.93.25,2.09-.14,4.48.12,7.01,1.15,1.14.46,1.82,1.56,1.82,2.72.87.28,1.62.55,2.21.79.51.2.91.38,1.2.5.14.06.25.12.34.15.04.02.07.04.1.05h.03s.01.02.01.02h0s0,0,0,0c1.44.72,2.02,2.46,1.31,3.9-.71,1.44-2.45,2.02-3.89,1.31h0s0,0,0,0c0,0-.02-.01-.05-.02-.05-.02-.12-.06-.23-.1-.21-.09-.53-.23-.95-.4-.84-.33-2.07-.77-3.59-1.17-1.78-.47-3.92-.87-6.25-1l.86,1.15c.96,1.28.71,3.11-.58,4.07-1.28.97-3.1.71-4.07-.58l-2.17-2.89-4.56,4.57c-1.13,1.14-2.97,1.14-4.11,0-1.13-1.14-1.14-2.98,0-4.11l2.76-2.76c-3.02-.08-5.46.4-7.29.97-1.43.45-2.5.97-3.19,1.36-.34.2-.59.36-.74.46-.07.05-.12.09-.15.11,0,0-.01,0-.02.01-1.25.99-3.07.78-4.07-.46-1-1.25-.8-3.09.45-4.09,0,0,0,0,0,0h0s0,0,0,0h.01s.04-.04.04-.04c.03-.02.06-.05.1-.08.08-.06.19-.14.33-.24.28-.19.67-.44,1.17-.73,1-.57,2.44-1.26,4.3-1.85,1.1-.35,2.35-.66,3.72-.88-.64-.53-1.05-1.34-1.05-2.24,0-1.61,1.3-2.91,2.9-2.91,3.65,0,6.41,1.25,8.37,2.71,1.3-2.3,3.65-4.61,7.67-5.41,1.57-.31,3.1.71,3.42,2.29Z"/><circle class="bf" cx="516.5" cy="274.5" r="3"/><circle class="bf" cx="531.5" cy="274.5" r="3"/><polygon class="bf" points="300 232.5 304 224.5 296 224.5 300 232.5"/><path class="bv" d="m302.38,225.5l-2.38,4.76-2.38-4.76h4.76m1.62-1h0,0Zm0,0h-8l4,8,4-8h0Z"/><polygon class="bf" points="76 232.5 80 224.5 72 224.5 76 232.5"/><path class="bu" d="m78.38,225.5l-2.38,4.76-2.38-4.76h4.76m1.62-1h0,0Zm0,0h-8l4,8,4-8h0Z"/><polygon class="bf" points="524 232.5 528 224.5 520 224.5 524 232.5"/><path class="bz" d="m526.38,225.5l-2.38,4.76-2.38-4.76h4.76m1.62-1h0,0Zm0,0h-8l4,8,4-8h0Z"/><path class="aq" d="m340,72.5c-.67,0-1.34.02-2,.05"/><path class="ay" d="m334.05,72.94c-19.27,2.88-34.05,19.49-34.05,39.56v108.01"/><line class="aq" x1="300" y1="222.5" x2="300" y2="224.5"/><path class="aq" d="m524,224.5c0-.68-.04-1.34-.12-2"/><path class="at" d="m522.88,218.62c-2.34-5.92-8.12-10.12-14.88-10.12H92c-7.47,0-13.74,5.12-15.51,12.04"/><path class="aq" d="m76.12,222.5c-.08.65-.12,1.32-.12,2"/><path class="aq" d="m330.34,28.07c-.47-.47-.95-.94-1.43-1.4"/><path class="bc" d="m325.89,23.89c-35.97-31.64-90.32-31.18-125.76,1.37"/><path class="aq" d="m198.63,26.67c-.48.46-.96.93-1.43,1.4"/><circle class="bf" cx="197" cy="28.5" r="4"/><path class="ca" d="m197,25.5c.8,0,1.55.31,2.12.88,1.17,1.17,1.17,3.07,0,4.24-.57.57-1.32.88-2.12.88s-1.55-.31-2.12-.88c-1.17-1.17-1.17-3.07,0-4.24.57-.57,1.32-.88,2.12-.88m0-1c-1.02,0-2.05.39-2.83,1.17-1.56,1.56-1.56,4.09,0,5.66.78.78,1.8,1.17,2.83,1.17s2.05-.39,2.83-1.17c1.56-1.56,1.56-4.09,0-5.66-.78-.78-1.8-1.17-2.83-1.17h0Z"/><polygon class="bf" points="336 33.73 333.17 25.25 327.51 30.9 336 33.73"/><path class="bx" d="m332.73,27.1l1.68,5.05-5.05-1.68,3.37-3.37m.44-1.85l-5.66,5.66,8.49,2.83-2.83-8.49h0Z"/></svg>