<?xml version="1.0" encoding="UTF-8"?><svg id="a" xmlns="http://www.w3.org/2000/svg" xmlns:xlink="http://www.w3.org/1999/xlink" viewBox="0 0 600 416.5"><defs><style>.u,.v,.w,.x,.y,.z,.aa,.ab,.ac,.ad,.ae{stroke-linecap:round;stroke-linejoin:round;}.u,.v,.w,.y,.aa,.ab,.af,.ad,.ag,.ae{stroke:#855fa0;}.u,.af{fill:#281d30;}.v,.aa{fill:#423050;}.w,.ah{fill:#1b1320;}.x,.y,.ai,.z,.ab,.ac,.ad,.ag,.ae{fill:none;}.x,.z,.ac{stroke:#f6cd51;}.ai,.aj,.ah,.ak,.al,.am,.an,.ao,.ap,.aq,.ar,.as,.at,.au,.av,.aw,.ax,.ay,.az,.ba,.bb,.bc,.bd{stroke-width:0px;}.z{stroke-dasharray:0 0 4.02 4.02;}.be{stroke:url(#m);}.be,.af,.ag{stroke-miterlimit:10;}.be,.ak{fill:#0d0910;}.aa{stroke-width:2px;}.ab{stroke-dasharray:0 0 4.23 4.23;}.aj{fill:url(#e);fill-rule:evenodd;}.ac,.ad{stroke-dasharray:0 0 3.97 3.97;}.bf{opacity:.5;}.bg{clip-path:url(#c);}.al{fill:#cebfd9;}.am{fill:#855fa0;}.an{fill:#e97a0c;}.ao{fill:url(#b);}.ap{fill:url(#t);}.aq{fill:url(#f);}.ar{fill:url(#d);}.as{fill:url(#s);}.at{fill:url(#j);}.au{fill:url(#q);}.av{fill:url(#r);}.aw{fill:url(#i);}.ax{fill:url(#h);}.ay{fill:url(#g);}.az{fill:url(#o);}.ba{fill:url(#p);}.bb{fill:url(#k);}.bc{fill:url(#n);}.bd{fill:url(#l);}.ae{stroke-dasharray:0 0 3.96 3.96;}</style><linearGradient id="b" x1="128" y1="417.94" x2="128" y2="271.94" gradientTransform="translate(0 418) scale(1 -1)" gradientUnits="userSpaceOnUse"><stop offset="0" stop-color="#0d0a10"/><stop offset="1" stop-color="#281d30"/></linearGradient><clipPath id="c"><path class="ai" d="m256,107.27c0-20.66-16.17-37.53-36.57-38.71v-.07c0-27.72-22.51-50.19-50.29-50.19-8.39,0-16.29,2.06-23.23,5.68C136.03,9.55,119.42.06,100.57.06,70.27.06,45.71,24.57,45.71,54.81,20.47,54.81,0,75.23,0,100.43s20.47,45.62,45.71,45.62h173.71v-.07c20.4-1.19,36.57-18.06,36.57-38.71Z"/></clipPath><linearGradient id="d" x1="128" y1=".06" x2="128" y2="146.06" gradientUnits="userSpaceOnUse"><stop offset="0" stop-color="#f6cd51"/><stop offset="1" stop-color="#f48e2a"/></linearGradient><linearGradient id="e" x1="128" y1="313.94" x2="128" y2="241.94" gradientTransform="translate(0 418) scale(1 -1)" xlink:href="#d"/><linearGradient id="f" x1="119.17" y1="133.31" x2="119.17" y2="146.81" xlink:href="#d"/><linearGradient id="g" x1="131.72" y1="133.31" x2="131.72" y2="146.81" xlink:href="#d"/><linearGradient id="h" x1="139.54" y1="133.31" x2="139.54" y2="146.81" xlink:href="#d"/><radialGradient id="i" cx="472" cy="182" fx="472" fy="182" r="111.25" gradientTransform="translate(0 162.6) scale(1 .05)" gradientUnits="userSpaceOnUse"><stop offset="0" stop-color="#000"/><stop offset="1" stop-color="#000" stop-opacity="0"/></radialGradient><linearGradient id="j" x1="472" y1="276" x2="472" y2="245" gradientTransform="translate(0 418) scale(1 -1)" gradientUnits="userSpaceOnUse"><stop offset="0" stop-color="#9b5108"/><stop offset=".4" stop-color="#e97a0c"/><stop offset=".8" stop-color="#f6cd51"/></linearGradient><linearGradient id="k" x1="472" y1="419.14" x2="472" y2="272.86" xlink:href="#b"/><linearGradient id="l" x1="472" y1="0" x2="472" y2="144" gradientUnits="userSpaceOnUse"><stop offset="0" stop-color="#f6cd51"/><stop offset="1" stop-color="#f48e2a"/></linearGradient><linearGradient id="m" x1="472" y1="31.5" x2="472" y2="112.5" gradientUnits="userSpaceOnUse"><stop offset="0" stop-color="#f6cd51"/><stop offset="1" stop-color="#f48e2a"/></linearGradient><linearGradient id="n" x1="472" y1="370" x2="472" y2="322" gradientTransform="translate(0 418) scale(1 -1)" xlink:href="#d"/><radialGradient id="o" cx="128" cy="470" fx="128" fy="470" gradientTransform="translate(0 389.31) scale(1 .05)" xlink:href="#i"/><linearGradient id="p" y1="178.13" y2="33.87" xlink:href="#b"/><linearGradient id="q" x1="332" y1="68" x2="332" y2="76" xlink:href="#d"/><linearGradient id="r" x1="156" y1="157" x2="156" y2="165" xlink:href="#m"/><linearGradient id="s" x1="108" y1="224" x2="108" y2="232" xlink:href="#m"/><linearGradient id="t" y1="172" y2="180" xlink:href="#m"/></defs><path class="ao" d="m256,107.27c0-20.66-16.17-37.53-36.57-38.71v-.07c0-27.72-22.51-50.19-50.29-50.19-8.39,0-16.29,2.06-23.23,5.68C136.03,9.55,119.42.06,100.57.06,70.27.06,45.71,24.57,45.71,54.81,20.47,54.81,0,75.23,0,100.43s20.47,45.62,45.71,45.62h173.71v-.07c20.4-1.19,36.57-18.06,36.57-38.71Z"/><g class="bg"><path class="u" d="m55.29,91.96c.31,2.02,2.26,3.36,4.26,2.92l35.18-7.76c2-.44,3.2-2.47,2.64-4.44l-6.58-22.74c-.52-1.79-2.34-2.87-4.16-2.47l-32.21,7.1c-1.82.4-3.02,2.15-2.73,3.99l3.6,23.4Z"/><path class="y" d="m61.71,67.02l-1.49-6.77c-1.18-5.34,2.2-10.63,7.54-11.8,5.34-1.18,10.63,2.2,11.8,7.54l1.49,6.77"/><path class="af" d="m202.46,79.4c13.92-5.51,20.74-21.27,15.23-35.19-5.51-13.92-21.27-20.74-35.19-15.23-13.92,5.51-20.74,21.27-15.23,35.19,5.51,13.92,21.27,20.74,35.19,15.23Z"/><path class="ag" d="m202.46,79.4c7.59-3,9.28-16.73,3.76-30.65-5.51-13.92-16.13-22.77-23.72-19.77-7.59,3-9.28,16.73-3.76,30.65,5.51,13.92,16.13,22.77,23.72,19.77Z"/><path class="y" d="m201.69,28.72c-2.93,5.67-7.77,10.32-14.19,12.86-6.42,2.54-13.13,2.47-19.15.34"/><path class="y" d="m183.06,79.09c2.93-5.67,7.77-10.32,14.19-12.86,6.42-2.54,13.13-2.47,19.15-.34"/><path class="y" d="m167.27,64.17l50.42-19.96"/><path class="y" d="m182.5,28.98l19.96,50.42"/><path class="u" d="m32.41,55.77l1.68,5.53c.15.33.4.68.71.73l5.61,1.75c.89.25,1.09,1.52.29,2l-4.79,3.33c-.35.25-.5.54-.47.95l.08,5.78c.05.94-1.07,1.47-1.81.94l-4.69-3.55c-.27-.25-.67-.32-1.01-.17l-5.58,1.86c-.87.27-1.76-.6-1.41-1.47l1.93-5.45c.17-.38.01-.72-.14-1.05l-3.47-4.69c-.61-.72,0-1.85.92-1.8l5.87.15c.42-.03.75-.19.9-.47l3.36-4.7c.54-.74,1.74-.54,2.01.33Z"/><path class="u" d="m125.46,109.42l3.12,1.78c.21.09.47.14.63.03l3.28-1.61c.51-.27,1.14.22.99.78l-.74,3.55c-.05.26,0,.46.2.63l2.5,2.57c.42.4.15,1.12-.42,1.2l-3.63.4c-.23,0-.44.14-.53.36l-1.72,3.22c-.28.49-1.05.48-1.26-.06l-1.45-3.28c-.09-.24-.3-.33-.51-.42l-3.57-.64c-.58-.06-.79-.83-.36-1.21l2.71-2.44c.17-.19.26-.41.21-.6l-.49-3.55c-.07-.56.56-.99,1.05-.71Z"/><path class="u" d="m154.99,21.8c3.65,1.43,5.58,5.5,4.38,9.23l-4.35,13.25-13.01-5.02c-3.65-1.43-5.58-5.5-4.38-9.23,1.2-3.73,5.03-5.54,8.68-4.11,1.2-3.73,5.03-5.54,8.68-4.11Z"/><path class="y" d="m140.92,34.3c-.56-.95-.66-2.12-.34-3.12.42-1.29,1.4-2.12,2.52-2.41"/><path class="u" d="m126.52,137.6c.87-4.21,4.9-7.05,9.16-6.45l15.13,2.23-3,14.99c-.87,4.21-4.9,7.05-9.16,6.45-4.26-.6-6.93-4.4-6.06-8.61-4.26-.6-6.93-4.4-6.06-8.61Z"/><path class="y" d="m142.65,150.48c-.92.79-2.17,1.11-3.31.95-1.47-.21-2.55-1.11-3.07-2.27"/><path class="u" d="m222.08,139.3c1.47,4.04-.53,8.47-4.53,10.04l-14.25,5.52-5.29-14.34c-1.47-4.04.53-8.47,4.53-10.04,4-1.57,8.31.37,9.77,4.41,4-1.57,8.31.37,9.77,4.41Z"/><path class="y" d="m201.36,136.19c.38-1.13,1.29-2.02,2.37-2.44,1.38-.54,2.79-.3,3.85.44"/><path class="u" d="m113.65,44.84l-40.59-16.65c-2.74-1.12-3.95-4.02-2.82-6.75l11.98-29.19c1.12-2.74,4.02-3.95,6.75-2.82l40.82,16.75c2.51,1.03,3.72,3.92,2.6,6.66l-12.07,29.42c-1.03,2.51-3.92,3.72-6.66,2.6Z"/><path class="y" d="m93.35,36.51l-3.74,9.12"/><path class="y" d="m98.73,49.38l-18.24-7.48"/><path class="y" d="m104.69-4.13c.56-1.37,1.85-1.91,3.22-1.34l4.56,1.87c1.37.56,1.91,1.85,1.35,3.22"/><path class="v" d="m86.69,13.79c1.26.52,2.7-.09,3.22-1.34.52-1.26-.09-2.7-1.35-3.22-1.26-.52-2.7.09-3.22,1.34-.52,1.26.08,2.7,1.35,3.22Z"/><path class="v" d="m97.09,27.39c1.26.52,2.7-.09,3.22-1.34.52-1.26-.09-2.7-1.35-3.22-1.26-.52-2.7.09-3.22,1.34-.52,1.26.08,2.7,1.35,3.22Z"/><path class="v" d="m117.33,17.04c1.26.52,2.7-.09,3.22-1.34.52-1.26-.09-2.7-1.35-3.22-1.26-.52-2.7.09-3.22,1.34-.52,1.26.08,2.7,1.35,3.22Z"/><path class="y" d="m87.62,11.51l10.41,13.59"/><path class="y" d="m118.26,14.76l-20.23,10.35"/><path class="u" d="m248.24,75.38c-15.49-5.11-31.81,2.36-36.48,16.52-1.58,4.78-1.54,9.69-.51,14.11l-7.98,11.64,15.15,1.12c3.38,3.56,7.8,6.45,12.84,8.11,15.49,5.11,31.81-2.36,36.48-16.52,4.67-14.16-4.01-29.87-19.5-34.98Z"/><path class="aa" d="m226.16,98.43c1.03.34,2.13-.2,2.47-1.21.33-1.01-.23-2.1-1.26-2.44-1.03-.34-2.13.2-2.47,1.21-.33,1.01.23,2.1,1.26,2.44Z"/><path class="aa" d="m239.22,102.73c1.03.34,2.13-.2,2.47-1.21.33-1.01-.23-2.1-1.26-2.44-1.03-.34-2.13.2-2.47,1.21-.33,1.01.23,2.1,1.26,2.44Z"/><path class="aa" d="m252.28,107.04c1.03.34,2.13-.2,2.47-1.21.33-1.01-.23-2.1-1.26-2.44-1.03-.34-2.13.2-2.47,1.21-.33,1.01.23,2.1,1.26,2.44Z"/><path class="u" d="m99.89,162.65l-40.67-17.71c-2.48-1.08-3.61-3.96-2.53-6.44l11.76-27.03c.66-1.52,1.98-2.57,3.64-2.9l26.39-4.83c1.86-.33,3.78.5,4.88,2.13l14.41,22.68c.93,1.36,1.02,3.12.36,4.64l-11.73,26.95c-1.16,2.45-4.04,3.58-6.52,2.5Z"/><path class="y" d="m103.57,162.72l-10.49-23.17-12.41-5.4-24.02,8.14"/><path class="y" d="m93.09,139.56l25.37-8.61"/><path class="y" d="m69.77,109.76l10.9,24.4"/><path class="u" d="m186.76,140.64l10.83-39.34-11.78-3.25,2.3-4.44-10.87-5.63-3.77,7.27-10.87-5.63-16.89,32.62,10.87,5.63,10.87,5.63,18.26-35.25-10.73,39.15,11.78,3.25Z"/><path class="y" d="m164.34,99.65l-2.37,4.57"/><path class="y" d="m178.94,98.08l-2.33,4.5"/><path class="y" d="m189.57,107.5l-1.4,4.91"/><path class="y" d="m173.48,95.25l-16.43,31.71"/><path class="u" d="m112.8,99.93s-8.28-26.55,3.05-40.54c8.09-9.99,22.56-11.51,32.55-3.42,9.99,8.09,11.51,22.56,3.42,32.55-11.33,13.99-39.02,11.42-39.02,11.42Z"/><path class="w" d="m127.36,81.94c4.41,3.58,10.89,2.89,14.47-1.52,3.58-4.41,2.89-10.89-1.52-14.47-4.41-3.58-10.89-2.89-14.47,1.52-3.58,4.41-2.89,10.89,1.52,14.47Z"/><path class="u" d="m62.99,27.99l-2.07,2.72c-.11.19-.19.43-.11.59l1.1,3.3c.19.51-.35,1.05-.86.83l-3.26-1.15c-.24-.08-.43-.06-.62.11l-2.75,2.04c-.43.35-1.08,0-1.08-.54l.08-3.48c.03-.22-.08-.43-.27-.54l-2.83-2.04c-.43-.33-.32-1.05.22-1.19l3.28-.96c.24-.05.35-.24.46-.43l1.05-3.29c.13-.54.89-.64,1.18-.18l1.96,2.87c.16.19.35.3.54.27h3.42c.54-.01.86.64.54,1.07Z"/><path class="u" d="m15.52,136.52c12.85,5.35,27.6-.73,32.96-13.58,5.35-12.85-.73-27.6-13.58-32.95-12.85-5.35-27.6.73-32.96,13.58-5.35,12.85.73,27.61,13.58,32.96Z"/><path class="y" d="m1.65,122.19c.04-.53.23-.99.36-1.3.9-2.17,3.49-4.01,9.43-2.99,1.13,4.29,3.92,7.64,7.95,9.32s8.44,1.15,12.21-.92c4.85,3.66,5.37,6.78,4.53,8.8-.13.31-.32.78-.67,1.18-6.06,2.75-13.27,3.03-19.94.25-6.67-2.78-11.56-8.09-13.87-14.33Z"/><path class="y" d="m19.39,105.37c-2.52,6.05-1.11,12.28,3.23,14.09,4.34,1.81,9.76-1.58,12.28-7.63,1.81-4.34-.18-9.18-4.53-10.98-4.34-1.81-9.18.18-10.99,4.53Z"/></g><path class="ar" d="m100.57,2.06c17.48,0,33.81,8.62,43.69,23.06l1,1.46,1.57-.82c6.96-3.62,14.46-5.45,22.31-5.45,26.62,0,48.29,21.62,48.29,48.19v1.96l1.88.11c19.45,1.13,34.69,17.26,34.69,36.72s-15.24,35.59-34.69,36.72l-1.12.07H45.71c-24.1,0-43.71-19.57-43.71-43.62s19.61-43.62,43.71-43.62h2v-2c0-29.09,23.71-52.75,52.86-52.75m0-2C70.27.06,45.71,24.57,45.71,54.81,20.47,54.81,0,75.23,0,100.43s20.47,45.62,45.71,45.62h173.71v-.07c20.4-1.19,36.57-18.06,36.57-38.71s-16.17-37.53-36.57-38.71v-.07c0-27.72-22.51-50.19-50.29-50.19-8.39,0-16.29,2.06-23.23,5.68C136.03,9.55,119.42.06,100.57.06h0Z"/><path class="aj" d="m164,136.63v6.52c0,1.96-1.31,3.26-3.27,3.58h-1.64c-1.64,0-2.95.98-3.27,2.28-.65,1.63-1.31,3.26-1.96,4.56-.65,1.3-.33,2.93.65,3.91l.98.98c1.31,1.3,1.31,3.26,0,4.56l-4.58,4.56c-1.31,1.3-3.27,1.3-4.58,0l-.98-.98c-.98-1.3-2.62-1.3-3.93-.65-1.31.65-2.95,1.3-4.58,1.95-1.31.65-2.29,1.63-2.29,3.26v1.63c0,1.96-1.31,3.26-3.27,3.26h-6.55c-1.96,0-3.27-1.3-3.27-3.26v-1.63c0-1.63-.98-2.93-2.29-3.26-1.64-.65-3.27-1.3-4.58-1.95-1.31-.65-2.95-.65-3.93.33l-.98.98c-1.31,1.3-3.27,1.3-4.58,0l-4.58-4.56c-1.31-1.3-1.31-3.26,0-4.56l.98-.98c1.31-.98,1.31-2.61.65-3.91-.65-1.3-1.31-2.93-1.96-4.56-.65-1.3-1.64-2.28-3.27-2.28h-1.64c-1.96,0-3.27-1.3-3.27-3.26v-6.52c0-1.95,1.31-3.26,3.27-3.26h1.64c1.31,0,2.62-.98,2.95-2.28.65-1.63,1.31-3.26,1.96-4.56.65-1.3.65-2.93-.65-4.24l-.98-.98c-1.31-1.3-1.31-3.26,0-4.56l4.58-4.56c1.31-1.3,3.27-1.3,4.58,0l1.31,1.3c.98.98,2.62.98,3.93.33,1.31-.65,2.95-1.3,4.58-1.63,1.31-.65,2.29-1.63,2.29-3.26v-1.63c0-1.96,1.31-3.26,3.27-3.26h6.55c1.96,0,3.27,1.3,3.27,3.26v1.3c0,1.63.98,2.93,2.29,3.26,1.64.65,3.27,1.3,4.58,1.96,1.31.65,2.95.65,3.93-.33l.98-.98c1.31-1.3,3.27-1.3,4.58,0l4.58,4.56c1.31,1.3,1.31,3.26,0,4.56l-.98.98c-1.31.98-1.31,2.61-.65,3.91.65,1.3,1.31,2.93,1.96,4.56.65,1.3,1.64,2.28,3.27,2.28h1.64c1.96,0,3.27,1.3,3.27,3.26Z"/><circle class="ah" cx="128" cy="140.06" r="22"/><path class="aq" d="m117.37,133.31l-4.56,13.5h2.99l.98-3.08h4.77l.98,3.08h2.99l-4.55-13.5h-3.6Zm.12,8.19l1.63-5.11h.1l1.62,5.11h-3.35Z"/><path class="ay" d="m134.52,133.89c-.71-.39-1.56-.59-2.56-.59h-5.21v13.5h2.79v-4.38h2.35c1.01,0,1.88-.19,2.59-.57.72-.38,1.27-.92,1.64-1.6.38-.69.57-1.48.57-2.37s-.19-1.69-.56-2.37c-.37-.69-.91-1.23-1.61-1.62Zm-.97,5.17c-.17.34-.43.6-.79.8-.35.19-.79.28-1.33.28h-1.9v-4.5h1.88c.54,0,.99.09,1.34.28.35.18.62.45.79.78.18.33.26.73.26,1.17s-.09.84-.26,1.18Z"/><rect class="ax" x="138.15" y="133.31" width="2.79" height="13.5"/><g class="bf"><ellipse class="aw" cx="472" cy="171" rx="112" ry="5"/></g><path class="an" d="m536,168.83h-128v3.04c0,2.28,28.65,4.12,64,4.12s64-1.85,64-4.12v-3.04Z"/><path class="at" d="m490.83,150l-2.83-8h-32l-2.83,8c-3.75,10.27-15.19,15.06-28.79,16.05-10.19.74-16.39,1.71-16.39,2.78,0,2.3,28.65,4.17,64,4.17s64-1.86,64-4.17c0-1.07-6.2-2.04-16.39-2.78-13.59-.99-25.03-5.78-28.79-16.05Z"/><path class="bb" d="m352.07,0h239.86c4.46,0,8.07,3.58,8.07,8v128c0,4.42-3.61,8-8.07,8h-239.86c-4.46,0-8.07-3.58-8.07-8V8c0-4.42,3.61-8,8.07-8Z"/><path class="bd" d="m591.93,2c3.35,0,6.07,2.69,6.07,6v128c0,3.31-2.72,6-6.07,6h-239.86c-3.35,0-6.07-2.69-6.07-6V8c0-3.31,2.72-6,6.07-6h239.86m0-2h-239.86c-4.46,0-8.07,3.58-8.07,8v128c0,4.42,3.61,8,8.07,8h239.86c4.46,0,8.07-3.58,8.07-8V8c0-4.42-3.61-8-8.07-8h0Z"/><rect class="be" x="432" y="32" width="80" height="80" rx="16" ry="16"/><path class="bc" d="m459.41,69.01c-.05,0-.07.01-.09.04,0,.08-.04.16.06.23v.07c-.06.09-.01.18-.01.26.08.23-.01.46.07.69,0,.01.02.02.04.03h0c-.04.09.06.15.07.23v.13c.08.04-.01.09,0,.14-.15.14-.04.27,0,.4v.04s0,.04,0,.04c.05.05.01.14.16.15.03,0,.05,0,.08-.01.04-.03.07-.07.04-.1.03,0,.06-.02.07-.04-.02.15-.04.31-.12.46,0,.01.02.04.04.06-.19.15-.12.31-.04.47.18.09.2,0,.24-.07.02.02.04.04.07.06-.05,0-.1,0-.11.04,0,0,0,.01,0,.01-.05.04-.13.07-.08.12l.09.04s.04,0,.04-.01c0,.03-.03.07-.04.09v.02s0,.11.1.08c.09-.02.2-.08.16-.15-.04-.08-.04-.15-.03-.23.04-.04.05-.09,0-.13-.04-.07.02-.18-.15-.22h0c.02-.07.21,0,.22-.09h.04c.04-.19.24-.27.5-.31.1-.07-.07-.11-.06-.17.08-.04.07-.09.07-.13-.04.01-.08.05-.12.05-.07,0-.04-.04-.04-.07,0,0,.02,0,.03,0,.08,0,.1-.04.09-.08-.01-.04-.02-.08.04-.1.07-.04.17-.08,0-.11-.13-.01-.04-.12-.15-.15-.01,0-.01,0-.03.01h0c-.06-.05-.07-.11-.06-.17-.06-.07.18-.09.11-.16.01-.01.02-.03.03-.05,0-.01,0-.03-.01-.05-.14-.09-.3-.18-.31-.31-.07-.03-.01-.12-.15-.13,0,0,0,0-.01,0,.06-.18.03-.34-.07-.51l.03-.2.04-.02s0-.05-.03-.06c0-.02-.02-.04-.04-.03-.08.04-.07-.11-.02-.12.01,0,.03,0,.04,0h0s.01-.02.02-.03c.03-.02.05-.04.07-.07,0-.01.01-.04.01-.05-.01-.04-.01-.08-.04-.12.03-.03.03-.07.03-.1.05-.01.09-.01.05.07-.01.04,0,.08,0,.12.37.05.47.18.3.37.04,0,.09.01.12.03v.04l-.05.03v.14s.04,0,.05,0c0,.02,0,.04,0,.07l.05.23c-.08,0-.15,0-.16.07.07.09.09.09.1.07.1-.1.11-.02.13.02.01.02.04.05.05.07v.13s-.03,0-.04,0c-.05,0-.12-.13-.15,0v.06c-.13.01-.1-.07-.17-.09l-.07.07c.01.07.08.11.18.13h.1s.06-.03.06-.03c.08-.02.18-.08.13.04-.01.04,0,.08,0,.12.37.06.46.19.3.39.1.01.19.04.14.12h-.04c0,.07.02.15-.03.19-.3.2-.24.42-.18.65.01,0,.04,0,.05,0h-.04c-.09.05-.08.11-.06.17v.14s-.05,0-.05,0v.17s0,0,0,0c-.1.04-.2.09-.12.18h.06c-.03.1.09.07.17.07.04-.04.07-.09.04-.14v-.02c.16.14.2,0,.29-.05,0,0,.01-.01,0-.03.24-.09.14-.23.15-.35l.11-.07s0-.07,0-.09c.01.01.03.04.06.03l.04.02s0,.01-.01.02c0,.02,0,.04.03.07.12.11.22.02.33,0v-.27s.02-.03.01-.04c.08-.07.04-.18.15-.24l-.09-.04v-.13s-.01-.14-.01-.14l.05-.04c.05-.05.11-.09.17,0-.04-.15.13-.3.05-.45,0-.07.09-.13,0-.2-.04-.02-.08-.05,0-.08.19-.07.09-.17.05-.26.04-.09.07-.19.04-.28,0,0,0-.02,0-.03h.04v-.38s0-.02.01-.04c0-.04.01-.08-.02-.11,0,0,0,0,0,0,.05-.07.04-.16.15-.21.01-.01.01-.03,0-.04,0,0-.01-.02-.01-.04-.01,0-.03-.01-.04-.02l-.02-.29s.01-.02.01-.03l.04-.08c0-.07,0-.12,0-.19,0-.06.04-.12-.09-.13v-.02s.02.01.04.01c.15-.03.13-.1.14-.18s-.04-.14.01-.21v-.1c-.08,0-.15-.04-.22-.02v-.07c.07,0,.14.01.21-.02v-.04s0-.01,0-.03c.09-.06.03-.12.04-.19-.05-.01-.11-.01-.15-.04.04-.01.06-.03.07-.06l.05-.04c.07-.06.02-.1-.05-.14v-.07c.02-.06.04-.12,0-.18t-.01,0l.03-.08v-.2s.04,0,.05-.01c-.1-.21-.07-.45-.11-.66.04-.04.01-.07-.06-.07v-.06s.02-.07.02-.07c.05-.04.04-.07.03-.11,0,0,.01,0,.02-.01,0-.03,0-.07-.03-.09l-.04-.06s-.01,0-.03,0h.02c0-.09.18-.21-.04-.29,0,0,0,.02,0,.03h0s.01-.02.01-.03l.04-.12.04-.58-.09-.39c.04-.26.02-.5-.04-.74.16-.24-.01-.45-.03-.67.01,0,.03-.01.04-.01.09-.12.07-.23.06-.35,0-.22-.16-.39-.18-.6.12-.19.03-.36.03-.54s-.19-.34-.11-.54c-.01-.05,0-.12-.07-.15,0,0,0,0,0-.01.04-.08-.02-.14-.04-.2.02-.01.04-.03.05-.05.13-.09-.13-.2.12-.28,0,0,0-.06-.02-.06-.15,0-.1-.08-.1-.14s0-.12-.11-.14c-.06-.03-.08-.07,0-.11.07-.01.09-.05.07-.09-.08-.13-.07-.28-.11-.42.03-.04.02-.07,0-.09,0-.17-.11-.32-.07-.5,0-.01-.02-.02-.05-.01,0,0,0,0,0,0-.03-.06-.04-.12.04-.19.05-.04.04-.08-.04-.09l-.02.05-.07-.04c-.02-.07.01-.12.07-.18.03-.07-.06-.09-.09-.13l-.02-.02c.03-.1.03-.2.02-.31l-.04-.09c-.03-.09.08-.2-.08-.26,0-.07,0-.13-.01-.2-.02-.09.04-.21-.1-.27-.01,0-.03,0-.04,0-.01-.04-.05-.07,0-.12.12-.08.13-.15.01-.22-.04-.14-.1-.27-.13-.41-.07-.29-.13-.64-.27-.86-.01,0-.02,0-.03,0,.01,0,.02,0,.04,0,0-.03.07-.05-.02-.07.16-.02,0-.04.07-.06.02,0,.1,0-.03-.03-.01-.03.16,0-.03-.07-.04,0-.04,0-.06,0h.04c.1.04.12.05.1.04l-.03-.02c.07,0,.06,0,.05-.03.17.09.01-.01.1.03l-.07-.05c-.1-.08.05.03.05.03.01,0,0,0,0,0,0,0,.05.03.05.02-.04-.05.06.04.02,0s-.04-.07,0-.02c.05.07-.08-.13.03.03,0-.03,0,0,.03,0,.06-.01.12-.04.13-.12h-.01s.01,0,.01,0c.04.01.1,0,.1.02v.02s.01,0,0-.03c0,0,.02.02.01-.02.03.16,0-.06.01,0v-.02h0s0,0,0,0h0v.06h0s-.02.12,0,0v-.05c.04-.08,0,.07.03,0-.04.1,0,.03.01.01q-.03.05,0,0c-.07.1-.02.04.01,0,.02,0,.03-.01.04-.02,0,.01-.01.02-.02.03,0,0,.02-.01.05,0-.01.06-.13.18.04.1l.04-.04s-.03.01-.04.04c.04.21.21.27.38.33.02.01.04.02.07.02l.13.12c.08,0,.09.09.16.1h.03s0,0-.01.01c0,0-.01.02-.01.04.02.09.07.15.19.12.04.06,0,.2.13.18l.06.03c0,.13.15.09.21.15l.02.08.02.02c.27.2.61.31.83.57.01,0,.03-.02.04-.04.06.03.12.07.18.09.32.15.66.26,1.09.21.1.03.21-.04.32-.04.06.06.18-.04.24-.01l.26-.15h0s.01.04.04.04h.03c.14-.12.31-.18.44-.34.13,0,.24-.14.35-.22l.25-.28c.35-.34.55-.72.72-1.12l.07-.09.02-.04v-.14s0-.07,0-.07v-.15c.01-.06.04-.13,0-.16v-.2c0-.15-.1-.24-.02-.43-.07.04-.07-.03-.11-.04-.1-.07-.11-.23-.2-.32-.19-.18-.35-.39-.52-.59-.02-.07-.11-.04-.16-.09-.16-.18-.36-.33-.63-.4l-.23-.18-.04.02h0s-.01-.01-.01-.01c0,0,0-.01,0-.03-.06-.04-.09-.12-.18-.12l-.05-.04c0-.14-.16-.11-.22-.18-.09-.12-.2-.22-.32-.31l-.09-.07s-.06-.04-.12-.1l-.33-.28c-.06-.03-.11-.07-.15-.13l-.54-.47-.3-.3-.03.02v.04-.04l-.41-.39s-.01,0-.02-.01c.01,0,.02-.02.04-.04-.22-.32-.5-.47-.74-.74h-.02c-.08.03-.16.08-.24.13l-.9.37-.76.46h-.02s-.02.03-.02.03l-.23.12c-.26.07-.49.23-.74.37l-.48.32-.14.06-.08.04c-.05.03-.1.06-.15.09l-.47.3c-.27.16-.54.34-.8.51-.44.28-.85.58-1.28.88-.2.15-.49.27-.58.45h-.02c-.07.01-.11.03-.15.04,0,.09.11.25.13.36v.17s.2.59.2.59c-.04.12,0,.26.11.4h0s.03.11.03.11c0,.39.22.77.32,1.15.05.12.07.24.11.37.01.06.04.13.06.17.02.03.04.06.08.08.01.03.05.06.04.09-.07.26.06.48.14.71.14.39.21.79.29,1.19l.07.39.06.2.04.16c.04.28.02.57.3.79-.04.04-.04.08.02.1l.06.26c.02.07-.08.15.03.2v.07s0,.01,0,.01h0s-.01.05,0,.07c0,.06,0,.11.04.15v.05c-.01.13-.03.26.07.37.03.05.09.09.08.15-.01,0-.03,0-.04.01-.02.18,0,.36.08.53.06.18-.01.39.07.57,0,0,0,.02,0,.03-.04.2.1.39.1.58.01.26.1.51.16.77h.04c.12.36.1.74.15,1.12h.01c0,.13.01.25.07.36v.12c.02.15-.01.31.04.46,0,0,0,.02,0,.03v.04s-.05.02-.07.04c0,.08-.03.16.07.22v.07c-.04.09,0,.18,0,.26.09.22.01.46.11.68,0,.01.02.02.04.02h0c-.04.09.07.15.08.23v.13c.09.04,0,.09.01.14-.15.15-.02.27.02.4v.04s0,.04,0,.04c.04.03.04.08.07.11v.07l.04.04s.04,0,.06,0h-.06l.03.44c.01.07.09.12.07.2-.16.11.04.23-.04.34,0,0,0,.04,0,.04Zm11.27-1.97s-.06.01-.09.03c0,0,0-.01,0-.01.02,0,.05-.01.08-.01Zm-22.38,9.51c.3-.02.46.13.7.19l.54.23h.16s0,0,0,0c0,0-.02,0-.03,0,.13.05.26.1.39.15l.28.09.41.12c.29.09.59.12.86.25.07.04.15,0,.22.04.03.01.06,0,.06-.05h0l.08.05c.12.05.26.05.35.15.23-.01.42.11.63.15.07.01.13.04.19.06.1.12.22.18.39.19.2,0,.38.16.56.25.51.18,1.05.28,1.54.5l.32.11.29.15c.13-.02.21.07.32.12l.56.2.36.18c.07-.04.12,0,.15.06l.49.15s.08.04.13,0h.05s0,.01,0,.01c.03.14.15.15.23.2.06.04.13.07.19.1h.02c.31.15.61.31.92.42.51.18.97.43,1.44.66.05.03.1.07.15.1.44.15.85.37,1.26.59.06.04.13.06.2.08.08.07.17.11.27.13.11.1.23.18.37.24l.05.02v.06s.19.09.19.09c.1.02.17.11.29.09,0,0,0,.01,0,.02.05.02.1.03.13.08.1,0,.13.15.26.04,0,0-.01,0-.02-.01v-.12c.03-.05.06.09.12-.03.07-.01.08.12.18.02l.15.07c.04-.18-.16-.11-.17-.24,0-.01,0-.03-.02-.04h-.01s0,0,0-.01c-.01-.02-.04-.03-.06-.04h0s0,0,0-.01c0-.01,0-.02,0-.02-.01-.06-.06-.08-.1-.11h0v-.07s.05-.09.05-.09c.01-.09.03-.19,0-.27-.04-.02-.04-.06,0-.12-.02-.15-.13-.18-.24-.22h-.1s.01-.04.01-.05c-.05-.08-.06-.23-.2-.2l-.1-.05c0-.09-.01-.11-.1-.04-.09.09-.17.09-.22,0,.04,0,.07,0,.1-.06l.1-.2c-.08-.04-.1.07-.14.12h0s-.02,0-.03,0l-.08-.05v-.09c.13.02.04-.18.14-.19l.06.02.07.09c.06-.01.1.08.17-.03.05-.03.09-.02.1.04-.01.17.11.17.2.18.07.01.14.04.21.07.04,0,.07.04.12,0,0,0,.02,0,.03.01l.13.13.14.03s.04.04.08,0h0c.04.07.11.09.2.09l.07.04s-.01.03-.01.04c.16.11.34.19.55.23.07.01.14,0,.21-.05.07,0,.08.09.11.15h.02s0,.03,0,.03c0,.01.02.01.04,0,.1-.12.24-.15.35-.17.09-.02.1-.08.14-.15v-.06c0-.05-.04-.07-.07-.07,0,0-.01,0-.02.01,0-.1.03-.2.14-.25l.07-.11c.13.07.27.02.41-.04h0s.05.06.09.07c.1-.03.23.09.31-.14-.02-.07-.14.05-.13-.07.04-.06,0-.1.01-.15-.02-.03-.03-.09-.07-.09,0,0,0-.02-.01-.03-.02-.04-.05-.07-.09-.09-.08-.02-.17-.04-.27,0h0s0-.04,0-.04c.1-.05.07-.12.05-.18,0,0-.01-.01-.02-.03l-.06.02s-.05.03-.08.02l-.1-.1c.05-.16-.11-.11-.14-.19,0-.05-.02-.06-.05-.07-.09.01-.16,0-.18-.1-.01-.05-.04-.09-.1-.04-.12-.06-.25-.09-.32-.21,0-.03-.02-.04-.05-.04,0,0-.01.01-.02.02h0s0-.03-.02-.03l-.04-.07s-.01.01-.02.03l-.09-.06h-.04s-.01.04-.01.04c0,0,.01-.02.01-.03l-.04-.08c-.07-.07-.14-.15-.24-.18-.03,0-.05,0-.08,0-.03,0-.05.03-.07.06-.12,0,0-.12-.03-.17h.01s.02-.04.03-.07c0-.01,0-.03.01-.04.01-.01.01-.03.03-.04l.02-.02v-.02s.04-.06.04-.06c0,0,.01,0,.01,0,.03-.01.06-.04.09-.06.03.05.08.07.15.04l.04-.02h0s.1.04.1.04c.01.07.07.07.11.1h.06s.31.07.31.07c.07.08.19-.01.28,0,.07.01.19-.04.18.12l.03.02s.01.03.03.03c0,0,0,.01.02.01h.09c.07,0,.07.09.16.07h0s.01,0,.01,0h.01c.08-.05.15-.03.21,0,.14-.12-.01-.15,0-.22,0-.07-.06-.09-.1-.11l-.1-.05c-.05-.03-.1-.06-.13-.12l-.11-.04s-.01-.02-.02-.04c-.07-.04-.15-.01-.23,0,0,0,0,0,0,.01-.07,0-.01-.22-.16-.09-.01-.05,0-.14-.1-.09-.04.02-.07.01-.07-.04l.03-.04c0-.06-.07-.03-.1-.05-.13-.15-.28-.24-.47-.28l-.02.04-.02.04s-.02,0-.02,0c-.03-.03-.03-.12-.11-.05h-.03c-.06-.11-.18-.09-.27-.15,0,.01,0,.03,0,.04h0s0-.03,0-.04l-.1-.07.04-.02s0,0-.01,0c0,0,.01,0,.02-.01,0-.15-.08-.15-.17-.15-.34-.1-.61-.35-.92-.49-.21-.09-.43-.2-.64-.3-.1-.16-.31-.14-.43-.27-.07.01-.13,0-.16-.08l-1.11-.48c-.11-.04-.21-.1-.35-.04-.11-.04-.23-.07-.31-.17-.27-.09-.51-.28-.76-.42-.16-.09-.35-.15-.51-.25l-.06-.07c-.21-.08-.44-.15-.62-.28-.05-.07-.12-.09-.2-.07h-.03s-.63-.24-.63-.24c.02-.11-.05-.1-.1-.12-.1-.06-.23-.04-.32-.12h-.06c-.16-.06-.33-.12-.51-.1l-.44-.15c-.02-.08-.07-.13-.13-.18-.06-.09-.14-.11-.24-.08-.13.02-.21-.11-.34-.11l-.02-.05c-.14.02-.2-.14-.32-.15l-.1.07-.2-.07-.38-.11h-.03c-.05-.01-.08-.1-.15-.07,0,0-.01,0-.03.01-.06,0-.07-.07-.12-.08-.1.04-.18-.04-.27-.04,0,.01,0,.02,0,.04v-.04s-.41-.17-.41-.17c-.04-.02-.09-.02-.1-.09l-.16-.1s-.07-.01-.11-.02h-.15s-.01,0-.03-.01c-.11-.12-.27-.12-.41-.16-.24,0-.44-.14-.69-.13-.04,0-.07-.01-.1.02h-.07c-.04-.07-.11-.07-.17-.07-.01,0-.02,0-.03,0-.04-.07-.12-.08-.18-.09-.03-.01-.05-.02-.08-.03-.08-.02-.07-.01-.07-.01,0,0,0,0,0,.01,0,0,0-.02.03-.09,0,0,0,0-.02.04-.02.03.04-.08-.03.04l-.02.02-.02.04s.01-.02.02-.04h0s0-.04.01-.07h0s-.07.05,0-.02c.03-.04-.05.04-.06.04,0,0,0,0,.01-.01h0s.01-.01-.04.03c0,0-.01-.01-.02-.02h0s.02-.02-.01-.01v-.04s-.02-.02-.02-.02c0-.01,0,.01,0-.04v-.13s0-.1,0-.1c.1,0,.02-.01.04-.01h.03c.1,0,0,0,.1,0,.01,0,.03,0,.04,0s.04.01-.02,0c-.04-.01-.07-.03-.11-.04s.09.03.06.02c.06.02.05.02.05.02,0,0-.03-.02.03.01l-.04-.02s-.07-.04-.06-.04h.01s.01,0,.01,0h.02s-.04-.03-.04-.03c-.1-.11.02,0,.02,0,0,0,0-.07.04,0h0s0-.01,0-.01c.01,0-.02,0,.07-.02.02,0,.04,0,.06,0,.12,0,.23-.04.33-.09l.21-.06h.04c.1-.04.23,0,.31-.11h.08s.14-.03.14-.03l.03-.05s.02,0,.03-.01c.14-.12.34-.07.47-.2l.1-.03c.05-.01.1-.03.13-.09h.08c.12.01.2-.07.28-.15l.06-.06s.05.04.08.02c.05,0,.1-.01.13-.05l.1-.04.07-.02c.12.03.19-.11.32-.07.04-.09.16.01.21-.07l.13-.06.4-.15.07-.12s.04-.09,0-.13c0,0-.04.03-.07.04-.07.03-.1-.03-.12-.09.05-.12.14-.19.25-.23.02,0,.07,0,.05-.05-.01-.05-.06-.07-.1-.05-.06.04-.13.07-.2.02,0-.04,0-.07.02-.09.01-.01.07,0,.04-.05-.01-.04-.05-.05-.08-.04-.09.03-.17.07-.26.1l-.04.08-.13.04s-.02.03-.01.05c-.02.01-.04,0-.05-.02l-.16.06c-.07.01-.1-.04-.12-.12l-.02.18h0s0-.01,0-.01c-.05-.04-.1-.01-.14,0,0-.01,0-.03,0-.05s-.02-.04-.04-.06c.01-.01.02-.02.04-.04h0c.06.02.11,0,.16-.04.07-.04.17,0,.21-.1,0-.01,0-.02,0-.04.01,0,.02-.01.02-.03.05-.04.16,0,.14-.15.05,0,.09-.02.13-.06v-.14c.07,0,.14-.04.23.01.01,0,.02,0,.03-.01.04,0,.07-.02.08-.08l.07-.12s.03,0,.04-.02c0,0,0-.01,0-.02.04,0,.1,0,.06-.1-.04.01-.06,0-.07-.04.07.02.13.02.16-.05-.01-.1-.07-.17-.15-.18-.06-.04-.11-.04-.16-.04.02,0,.04-.03.05-.07h.02c.05-.02,0-.1.04-.12h-.17s-.07-.15-.07-.15c.02-.01.04-.03.04-.07.04,0,.08.09.13.05l-.07-.18-.02-.07c.1-.04-.01-.1-.01-.15-.03-.12.01-.21.01-.32.02,0,.07.04.07-.01,0-.04-.03-.08-.07-.09l-.06-.07c.1-.02.1-.07,0-.16,0-.07,0-.13-.04-.19,0-.14-.1-.18-.17-.24.03-.18-.09-.22-.18-.28-.05,0-.08-.07-.11-.11l-.07-.07c-.05-.04-.07,0-.1.03,0-.04,0-.09-.04-.13-.03-.03-.05-.04-.08-.01h-.03l-.04-.03c-.02-.07-.06-.09-.11-.09l-.12-.02s-.05-.04-.08-.04c-.04-.04-.09-.17-.13-.03-.04,0-.07-.05-.11-.02-.05-.14-.12-.07-.18-.07-.1,0-.22-.07-.3.04-.03-.04-.05,0-.08,0-.07-.03-.13-.04-.19,0,0,0,0,.02,0,.03t0,0s0-.02,0-.03-.01-.01-.01,0c-.05-.04-.09-.03-.1.04-.14,0-.27.04-.38.13-.08-.01-.16-.01-.23.04-.07,0-.16-.04-.19.07v.03s0-.02,0-.03c-.07,0-.13.09-.22-.03-.02-.02-.07.02-.07.08v.07s-.04.03-.04.03c0,0,0,.01,0,.02h0v-.02s-.05-.01-.07,0c-.36.25-.81.24-1.2.45-.07-.01-.13.01-.19.05l-.09.05s-.03.01-.05.02c-.03,0-.07.01-.1.02h-.01s-.02.02-.02.02c-.02.01-.03.03-.02.04-.31.04-.59.16-.86.26l-.18.04h0s-.01-.01-.02-.03c-.21.01-.42.06-.58.15-.03.03-.07.04-.13.04-.37,0-.6.17-.91.23-.15.03-.35.04-.41.14-.04-.01-.08-.03-.13-.04l-.14.03c-.06.33-.1.68-.04,1.07l-.07.91c.1.23,0,.39-.02.59-.01.11-.07.21.02.32.09.15-.05.29.01.45-.04.23-.05.47-.04.71v.23c.02.07.02.13.02.26v.66s-.01.03-.02.05c-.01,0-.03,0-.04.01v.12c.04.29.02.62.13.88-.07.2.07.33.01.52.02.05.09.07.06.17-.04.18-.01.32.05.43v.07c-.01.09-.01.15.06.1-.03.04,0,.1-.02.15.01.21.02.43.05.64,0,0,1.44.36,1.44.36Zm10.93,17.62s0-.03-.01-.04c0,0,0,0,.01,0v.04l1.37.7,1.26.65s.1.01.07-.07c-.26-.12-.45-.43-.71-.52-.01-.01-.03-.02-.04-.04h.18l.47.25c.14.08.3.2.43.19l.1.05.61.34c.16-.15.32-.31.47-.52,0,0-.01,0-.02-.01,0,0,0,0,0,0h.02c.23-.11.45-.33.64-.58l.11-.16c.43-.25.75-.73,1.13-1.07l.32-.29c.17-.04.23-.19.36-.27,0-.01-.01-.03-.03-.04l.76-.66c.21-.31.49-.55.78-.79,0-.03.01-.07.04-.08l1.13-1.01.02-.09s.16-.03,0-.15h-.07c.04.09-.04.08-.05.12-.17.1-.32.23-.45.37-.04.04-.05.1-.15.02h0c-.32.31-.69.53-1.06.77-.05.03-.1.07-.15.12-.04.04-.08.08-.13.11-.1-.02-.05-.08-.07-.12l.27-.23s.05-.01.05-.05l.12-.13s-.02-.01-.04-.02c0,0,.02.01.04.02l.11-.08c.07,0,.13-.03.13-.12l.08-.07.1-.09-.04-.04h0s0,.02.03.03l.21-.18s.03.04.05.04c.06,0,.1-.03.1-.09.09-.09.17-.19.29-.26.02-.04.07-.04.04-.11l.04-.06.12-.03-.02-.03.04-.04c.16-.03.24-.16.35-.25,0,0,0,0,.01-.01,0,.01.01.03.03.04l.47-.4s-.01-.01-.01-.02c0-.01-.02-.01-.03-.02,0,0,0,0,0,0l.02.03h0s0,.02,0,.02c.21-.05.3-.28.52-.35,0,.14-.14.13-.13.25.01.14-.04.21-.14.25-.04.01-.08.04-.07.12h-.01v.02c-.05.03-.12.06-.14.15.14.03.21-.02.29-.06.16-.07.1-.31.21-.42.02,0,.04,0,.05-.03.18-.09.3-.23.42-.39,0,0-.01,0-.02,0,0,0,.01,0,.02.01l.07-.07s-.01-.01-.01-.02h0s.01.02.01.02c.08-.02.13-.07.18-.14.01-.01.02-.04.04-.05.07-.07.15-.12.24-.17.23-.12.47-.2.66-.37.1-.01.16-.11.24-.15l.37-.26.79-.58s.07-.03.09-.05c.14-.08.26-.19.38-.31.04-.02.07-.04.1-.06.45-.31.79-.76,1.25-1.07.36-.25.72-.51,1.04-.83.18-.17.41-.27.52-.53,0-.07-.03-.07-.07-.08-.07-.06-.09-.04-.13.01-.1.14-.24.23-.38.31-.06-.02-.08.03-.13.04-.04,0-.07.05-.1-.05l-.02-.04c-.04-.07-.1-.14-.04-.21.06-.06.13-.13.14-.24h.05s.03.05.03.05c.06-.06.12-.12.15-.2.13.05.21.01.22-.12l.27-.18s-.01,0-.01-.02t.01,0v.02c.13.03.17-.07.21-.15.05-.09.11-.18.22-.19.16.04.16-.14.23-.23,0-.02,0-.04.01-.07l.1-.09.23-.16c0-.08.07-.11.11-.18-.06.01-.1.02-.13.04l-.27.22s0-.01,0-.02h-.03l-.24.21c-.09.1-.22.14-.3.26l-.05.05c-.07-.01-.13,0-.16.08l-.05.05-.09.06c-.06-.03-.07.02-.11.04-.01-.03-.1,0-.06-.07.03-.05.08-.09.13-.12l.24-.22.1-.09c.05-.04.02-.08-.04-.12l-.18.17s-.02,0-.03.01c-.18.07-.3.2-.42.34l-.02.04c-.24.17-.49.34-.71.53-.04.04-.07.15-.18.05v-.07s.01-.01.01-.03c.37-.28.64-.69,1-.99l.16-.13s.07-.04.1-.07l.11-.07.05-.04c.1-.05.18-.11.24-.2.14.03.18-.12.25-.19.24-.23.52-.42.72-.72.21-.2.42-.38.63-.57-.18-.11-.27-.03-.36.03-.04-.04-.14-.07-.07-.15.04-.04.07-.1.03-.18-.05-.08-.13-.06-.18-.05-.11-.01-.22-.04-.31.02h-.11c-.09,0-.16.04-.22.07-.13.03-.24.08-.34.17-.1,0-.14.1-.21.15l-.46.11c-.15-.04-.24.04-.36.06-.01-.17.13-.14.18-.23l.27-.18v-.03s0,0,0,0v.03c.1,0,.14-.09.22-.12.18-.07.34-.18.53-.33-.29-.03-.46.07-.63.18-.3-.04-.52.09-.72.26,0,.02.02.03.03.04l-.03-.04c-.07,0-.13.03-.16.08l-.08.07c-.1.01-.19.07-.27.12-.38.12-.75.24-1.09.43-.08.03-.17.05-.23.12-.25.06-.46.2-.67.33-.13.04-.24.09-.33.17-.17.03-.29.14-.41.23-.13.06-.3.08-.38.21-.35.18-.7.36-1.03.58-.07-.02-.1.03-.15.06l-.56.42s-.07.03-.1.05c-.36.18-.63.46-.92.73-.01,0-.02,0-.03.02-.24.19-.55.26-.77.47l-.49.31c-.35.15-.59.42-.88.64l-.12.04c-.17.06-.29.19-.43.29-.55.39-1.08.82-1.59,1.26-.07.14-.27.15-.32.32l-.1.15-1.02.97s-.04.02-.07.04c-.18.12-.34.27-.49.42l-.39.39s-.02-.01,0,.01c0,0,0,0,0,.01h0s-.01.06-.02.1v.02s-.07.01-.1.02c-.01-.04-.02-.04-.04-.04-.04-.07-.04-.15-.11-.12v-.02c-.06.01-.08.02-.11.02,0-.01.01-.04-.01-.01-.05.02.02-.06-.08,0h0s0-.03-.04,0h0s0-.04-.05-.01h0s.01-.03-.04-.01h-.06s-.03-.03-.04-.04c-.06-.02-.02-.07-.11-.11,0-.02,0-.04,0-.07,0-.01,0-.02-.01-.04s-.02-.02-.02-.1c.02-.09.04-.18,0-.27.04-.16.06-.32.03-.49h.01s0-.03,0-.03c0-.09.06-.18.01-.27.04-.17.02-.34,0-.53.05-.14.01-.28-.04-.43.04-.08.04-.18,0-.26.04-.1.01-.2-.04-.31.02-.09.02-.19-.04-.28.01-.07.05-.15-.04-.22l-.06-.22c-.07-.31-.18-.62-.43-.91-.04-.03,0-.08-.07-.1l-.03-.07c.04-.12-.05-.23-.12-.34-.01-.03-.06-.05-.1-.05-.01,0-.04.02-.04.04.03.12-.06.26.13.37,0,0,0,.02-.01.03-.04.04-.04.07,0,.11,0,0,0,0,0,0-.01.02,0,.05.01.07h-.04c0-.07-.02-.13-.1-.18-.25-.22-.34-.49-.59-.71-.17-.14-.44-.2-.58-.08-.23.2-.57.31-.78.53-.12.02-.09.15-.23.15-.04-.15-.05-.29-.24-.41-.13-.06-.17.01-.21.07-.05.07-.09.16-.07.25.03.18-.07.32-.13.48,0,.08,0,.16-.04.23,0,.01,0,.04,0,.05,0,.06-.02.11-.04.16,0,.01-.01.03-.01.05-.01.05-.01.1,0,.15,0,.01,0,.03,0,.05-.07.09-.07.2-.09.3.04.13-.1.23-.05.36-.06.27-.09.55-.18.82-.09.28-.15.56-.21.85l-.22.76-.25.83-.63,2.02.91.62s.05,0,.07,0c.3.24.71.41,1,.66-.17.08.05.18.09.26.5.27.97.67,1.52.93h0Zm11.95-37.63s-.06,0-.08.02c-.42.39-.93.66-1.4.99-.26.18-.5.39-.75.58l-.1.08-.78.56.04.05h0s-.01-.04-.04-.06c-.33.22-.68.42-.97.69-.13.03-.16.19-.27.23l-.21.19s0,.05.03.07c.13.06.21.01.3,0l-.13.12s0,0,0,0c-.02,0-.04,0-.04.01l-.55.46-.13.07s0,.04,0,.07c-.03.02-.06.04-.11.07.07.02.1.03.14.04l.13-.07c.14.01.23-.07.34-.13.14,0,.22-.09.33-.14.21-.07.4-.18.58-.29.07.07-.06.09.03.16.13-.02.24-.04.36-.06.09.04.15,0,.19-.05.01-.02.03-.06.02-.09,0-.01,0-.02-.01-.04.02-.01.04-.02.07,0,.01.07-.01.11-.03.16l-.21.13s0,0,0,0c-.02,0-.04,0-.04.02l-.19.16s-.05.09,0,.09c.13,0,.04.13.1.15h0s-.1.06-.1.06c-.02.04-.08.03-.1.08,0,0-.01,0-.01.02,0,.13-.13.12-.18.18,0,0,0,0-.01-.01-.04.04-.13.02-.13.13,0,0,0,.02,0,.03-.14,0-.22.12-.34.17,0,.01,0,.03.01.04h.02s0,.01,0,.01v-.02s-.18.12-.18.12l.05.09s0,0,.01,0c.04.03.07.17.11.07.04-.05.1,0,.16.04h0s-.03,0-.04.03c-.01.03,0,.07.01.09,0,0,0,0,0,0-.12-.01-.19,0-.14.19-.07.02-.13.18-.26-.05-.03-.04-.05,0-.07.04-.01.04-.01.07.04.11l.16.12c.13.1.02.13.03.2l-.07.03-.1.07s-.06.01-.04.07l-.07.03c-.08-.03-.1.09-.18.04-.02.07-.13.03-.12.15-.07,0-.07.14-.17.08-.03.02-.08.02-.07.09.07.14.1,0,.16.04,0-.14.16-.04.16-.15.06-.05.13-.07.21-.06.04-.08.14-.07.18-.15h0s.07-.04.12-.01c.08-.12.24-.12.34-.2,0-.01,0-.03-.01-.04l.12-.07c.2-.04.37-.14.52-.27v-.04s.01,0,.01-.01c.01,0,.02,0,.02,0l.04.03.04-.03s.08-.01.12-.03c.06.02.1,0,.13-.04,0,0,0-.01,0-.02h0s0,.07,0,.07c0,.07.1.12.07.19v.03s-.04,0-.06.02h-.04s-.03,0-.04,0c-.04,0-.03.06-.03.1l.02.04h-.05s-.04,0-.04,0v.15s-.02,0-.03,0c0-.01-.02-.03-.04-.03l-.08.06c.04.1-.09.02-.08.09l-.06.05h-.04c-.08-.02-.06.09-.11.1l-.18.07v.03s-.07.05-.06.12c.01.06.07.08.11.08v-.07s.02.01.02.01c.04,0,.06-.02.07-.05h0c.02.08.05.14.1.19h0c-.02.07-.14-.03-.13.08-.08-.07-.12-.02-.16,0l-.08-.2c-.11-.06-.15.04-.23.05h-.01s-.01.01-.01.01c.1.18.13.05.19.04.04.08.1.13.16.18,0,.16-.11.01-.16.04,0,.12-.1.12-.11.22,0,.06-.07.09-.03.16,0,0,0,0,0,.01-.01.02-.03.05-.03.09-.1-.02-.07.13-.13.16-.02.08,0,.16.09.23t.01,0s-.01.04-.03.04c.07.05.15.1.16,0,.1-.07.3,0,.33-.19l.18-.05c.16-.03.28-.09.3-.29t-.01-.02h.01,0l.52-.3s.07-.04.07-.1c.01,0,.02,0,.03-.02.07-.04.16-.07.21-.15.02.01.04.01.04,0l.33-.22c.03-.07.1-.09.16-.1l.04-.07.44-.27c.11.03.1-.12.19-.12.06.01.1,0,.15-.01.07-.07.31.03.16-.26,0,0,.01-.01.03-.01.07.04.13.09.18.16,0,0-.01.01-.02.02v.02s-.08,0-.11.02c-.03,0-.06.03-.09.04-.03.01-.05.04-.07.05-.04.03-.08.07-.07.15l-.52.37s0,.02-.01.02c-.01,0-.01.02-.01.03-.15.09-.31.17-.39.34v.07s-.07.04-.07.04c-.12-.03-.18.06-.24.12l-.16.12s0,.03.01.05c-.12.04-.2.13-.27.23,0,0-.01,0-.03,0-.02,0-.03,0-.03.03l-.11.09c-.16-.04-.18.13-.27.2.08.05.16.04.22.01l.06-.07.1-.04s.05,0,.06-.04l.06-.05c.19-.05.32-.2.48-.29.1-.04.27,0,.2-.23h0s.06.04.09.04c0,.01.01.03.02.04.02.04.04.07.07.09-.02,0-.04,0-.06,0-.01.01-.03.04-.03.07,0,0-.02,0-.03,0-.04.02-.09.04-.1.1l.02.18.2-.11.1-.05c.1.04.11-.07.16-.11.15-.07.3-.14.41-.26.07-.07.2-.06.26-.15.09-.07.21-.09.26-.23h-.02v-.02h.02c.13-.04.34,0,.32-.26,0-.02-.01-.04-.03-.04l.03.04.1.02c.17-.14.38-.22.52-.39l.05-.04c.22-.15.47-.24.66-.45.07,0,.13-.04.16-.11.08-.06.19-.09.22-.21.01,0,.02,0,.03-.01.19.07.24-.08.3-.19,0,0,.01,0,.01-.03.24-.03.36-.22.52-.36.16-.02.22-.18.33-.28.15-.12.32-.2.46-.35l1.16-.85.32-.31c.24-.14.46-.31.66-.51l.05-.04c.16-.07.32-.15.4-.31.08-.01.14-.06.17-.14.11,0,.16-.09.21-.17l.09-.07c.39-.3.78-.58,1.13-.93.14-.05.25-.15.32-.27.01,0,.02,0,.01-.02.1-.08.22-.13.29-.24.05-.01.1-.04.12-.09.05-.01.09-.05.11-.1.43-.31.81-.67,1.18-1.04.07.01.11-.04.15-.07.34-.31.67-.61,1-.93l.13-.11s.02-.01.03-.02c0,0,0-.02,0-.07h0s.03,0,.02-.02l.04-.03s.01,0,.01-.02v-.02s.04.01.04-.02h0s.01.03.01,0c0,.04.01.03.01,0l.09.04c0,.05.01.07.04,0v.03s.03.04.04.01c.01.06.04.04.08.04,0,.04,0,.06.03.01t0,0h0s.01.01.01.01c-.01.04-.01.07.03.02,0,.04.01.04.05.03,0,.02-.02.04.01.01h.04s0,.02,0,.02c0,.01-.04.07.07,0-.1.09,0,.04,0,.05l.04.03h.01s-.02.03.01.02h.01s0,.03,0,.04c0,.01.01.01.02.02h0c-.06.03-.02.03,0,.04h-.01s0,.06,0,.06c0,.02-.06.03,0,.05v.04s-.05.07-.04.11l-.03.11-.08.33v.04s-.01.04-.01.04l-.12.51v.07c-.09.14-.09.29-.12.44v.04s-.07.33-.07.33l-.02.07c-.03.18-.12.34-.07.53v.06c-.07.19-.1.38-.06.64.1-.11.17-.18.15-.27l.06-.26v-.04c.1-.04.11-.11.04-.18h0v-.03c.07-.03.07-.09.08-.15.04-.08.06-.16.06-.26l.06-.29.03-.15c.05-.08.1-.15.06-.26.04-.07.13-.12.1-.2l.02-.12s.04-.07.01-.12l.09-.24v-.16s.06-.08.05-.13c.03,0,.05,0,.07-.02.04-.08.07-.16.1-.24,0-.04.01-.09,0-.12-.01-.01-.03-.03-.06-.04-.01,0-.04,0-.06-.01l.07-.02h-.02s.03,0,.04-.01c.05,0,.07-.02.08-.04l.03.03-.06.02s.01,0,0,0c.04.03-.02.04.02.08,0,0,.01.01.01.05l-.03.03c-.04.07-.07.14-.04.22.01,0,.04.01.05.01v.04s-.04,0-.06.01c-.02.04-.04.07,0,.11l-.09.13v.04s-.06.28-.06.28c.08.1-.13.16-.01.26-.01,0-.03.02-.03.04,0,.06,0,.12-.02.18-.06.29-.16.58-.09.91.03.08-.15.12-.04.22-.02.04-.13.08-.03.15.07.15-.11.27.03.42-.05.17-.05.34-.04.51l.03.46c0,.06.04.09.15.09.13-.13.22-.27.19-.44,0-.01,0-.03-.01-.04h0s.04,0,.04,0l.07-.28c.09-.17.13-.35.16-.53l.13-.35c.09-.08.03-.2.11-.28,0-.03.04-.03.07-.02v.11s0,.02.01.02c-.04.07-.06.16-.05.25.02.09-.05.18,0,.27v.36c-.07.24,0,.5-.03.74v.32c.05.09.04.18.03.27,0,.15-.09.28.01.47.14-.1.15-.22.18-.36.13.12.28.14.44.15.13.07.25.12.41.08l.27.02c.2-.02.45.05.57-.09.1,0,.11-.06.18-.07.07-.04.15-.08.18-.15,0,0,0,0,0-.01.07-.01.1-.06.12-.1h.05s0-.02.01-.03c.09.03.03.09.08.12.04.11-.04.22.13.35.07-.17.1-.33.37-.37.11-.12.2-.24.13-.4l.03-.21.04-.13s.04-.07.04-.1c.15-.31.28-.64.31-.98.02-.01.01-.04,0-.07l.22-.72h-.02s.02,0,.02,0c.09-.1.07-.23.07-.34-.02,0-.04,0-.06-.01.01,0,.04.01.06.01.04-.09.09-.2.12-.29l.04-.15.06-.23.32-1.26s-.03,0-.04.01h0s.03,0,.04,0l.63-2.29-3.67-2.34-3.9-1.98-1.89,1.87-.1.1-.41.4-.38.36c-.38.36-.78.72-1.18,1.06h-.01v.03l-.89.78-1.04.88c-.16.09-.26.24-.4.35l-.92.74c-.38.31-.76.6-1.15.88,0,0-1.42,1.08-1.42,1.08Zm-.15,20.79l.16.04c.2.06.41.07.61.05.03.01.06.01.08,0,.36.04.72-.03,1.07-.09.2-.05.41-.05.6-.15l.19-.06.08-.02c.31-.11.61-.24.89-.41.58-.33,1.11-.74,1.5-1.28.16-.14.28-.3.35-.5.08-.18.25-.29.28-.5l.04-.07.07-.15c.07-.16.13-.32.19-.49.05-.18.1-.36.14-.54l.05-.24c.04-.18.06-.37.07-.56v-.04c.04-.61-.03-1.23-.21-1.83-.08-.26-.16-.53-.32-.75-.04-.09-.1-.18-.16-.27-.16-.31-.35-.59-.58-.86,0-.07-.06-.1-.1-.15-.16-.18-.33-.34-.51-.5-.32-.18-.59-.46-.94-.58-.21-.07-.34-.28-.58-.25-.15-.04-.3-.07-.44-.12-.28-.11-.58-.16-.89-.18l-.04-.04-.07.02h-.02c0-.14-.12-.1-.19-.11-.21-.02-.42.05-.64.01-.14.03-.3,0-.43.08-.03-.01-.07-.04-.1-.04-.41.06-.82.18-1.2.33l-.28.17s0,.03.02.04l-.02-.04c-.12.04-.22.12-.31.2-.06.03-.14.01-.17.09-.35.19-.69.42-.94.74-.26.26-.49.54-.69.84-.14.2-.25.42-.36.65l-.04.07c-.08.08-.07.2-.11.3-.08.09-.1.21-.13.32l-.05.19c-.02.09-.05.18-.07.26l-.04.23c-.05.35-.1.71-.02,1.06,0,.24-.03.5.08.74h0s0,.03,0,.03c0,.19.1.35.14.53.08.33.22.64.42.91l.12.2c.1.16.22.31.37.45.07.05.1.15.24.16-.05-.06-.09-.11-.13-.15-.04-.08-.13-.13-.12-.23.01-.04,0-.09-.01-.12-.03-.05-.07-.1-.12-.14,0,0-.01,0-.02,0,0-.02,0-.05-.01-.07,0,.01.01.02.02.04.01.02.03.04.06.04.06.09.12.19.2.26.07.1.16.18.22.29,0,.03.03.05.06.07,0,0,0,0,.01,0l.09.11c.07.04.07.15.21.14-.08-.13-.12-.27-.22-.36.01-.08-.04-.12-.08-.16,0-.09-.07-.15-.11-.22l-.09-.2c0-.05-.01-.09-.02-.13.01.01.03.02.06.02h.05c.05.07.07.15.17.18l.08.1s.06-.02.07-.05l-.08-.1c-.05-.11-.1-.22-.14-.33t-.01-.02v-.02c.01-.07-.03-.12-.06-.18,0-.01-.02-.02-.04-.04v-.04s0-.06-.01-.08c.01,0,.03.02.04.03,0,0,.02,0,.03,0,0,.07.04.12.09.17h-.01s-.03.03-.03.04c0,.04.02.06.06.07l.04.04v.06s.02.02.04.01c0,0,0,0,0,0,0,.01,0,.03.02.04.07,0,.13,0,.19-.06-.07-.09.03-.26-.09-.32.12-.12.01-.18.01-.27.03-.04.02-.08,0-.11,0,0-.02-.02-.04-.02,0,0-.01,0-.02,0l-.05-.12c0-.05-.05-.09,0-.15v-.04s-.07-.03-.07-.03c.13-.12-.03-.19,0-.29l-.07-.07v-.03c.05-.03.07-.06.04-.09,0,0-.01,0-.03,0,.01-.02.03-.04.03-.06,0,.04.03.07.09.12.04.02.05.05.06.08,0,.01-.01.04-.01.06s0,.04.03.05h0s0,.02,0,.03c.01,0,.03.01.04.03l.04.05h0s0,.04.01.04h0s-.01,0-.03.01c-.08.08,0,.14-.03.21,0,.05.01.09.06.13.01,0,.04,0,.05.01,0,.04,0,.07.07.05-.04.04-.07.08-.07.12,0,.01.01.02.03.03.03.07.1.1.13.16,0,0-.01,0-.01.01.08.15.16.32.32.41l.07.08.07-.05-.07-.08s-.07-.02-.07-.08c.01-.14-.06-.23-.1-.34-.06-.14-.04-.3-.11-.43.04-.09,0-.14-.04-.2.04-.07.02-.12,0-.18.02-.08.03-.15-.05-.21.13-.06.05-.09.05-.15-.01-.07.06-.14-.02-.19l.03-.09v-.07s.01-.01,0-.01c.08-.14,0-.27.05-.4.03-.03.01-.07.02-.1,0,0-.01,0-.03-.01v-.04s.03-.01.03-.02v-.07l.06-.07c.01-.06.02-.12.04-.18l.04-.02c-.07.07-.04.17,0,.26h0c-.04.05-.01.11-.04.15-.01,0-.02,0-.04,0v.07s0,.13,0,.13c0,.02,0,.04-.01.07.05.05.01.1.03.15l.03.02c-.05.07,0,.13,0,.2v.07s.1-.01.1-.01v-.09c0-.05.02-.1-.02-.15,0-.04,0-.09.02-.14.03-.1.07-.2,0-.31.04,0,.05-.02.04-.04.05-.11.07-.23.07-.35.08-.09.09-.2.13-.29.13-.02.06-.15.21-.16.01,0,.03-.02.04-.03.01-.03.04-.06.01-.12,0,0,.01,0,.02,0l.03-.04c.05,0,.07,0,.09-.03.01-.01.02-.04.02-.06.01,0,.04.01.04.01l-.04.07s-.05.09-.07.14l-.07.11h0s-.01,0-.03,0c-.05.1-.1.21-.14.32l.03.04h.01,0c-.09.07-.09.18-.07.28-.01.05-.06.09-.02.15l-.02.21s.06.01.1,0c.01-.08.07-.15.07-.23l.07-.15s.04-.07.04-.11c-.01,0-.02,0-.03-.01h.01v-.04s.02-.05.02-.05c0,0,.01,0,.01,0,.08,0,0-.08.1-.09,0,.04-.01.07-.02.11h.04s-.01,0-.03,0l-.04.13s0,.08.01.12c0,.05-.05.09-.02.15v.18s-.05.09.03.12c-.03.05-.05.11.05.15v.04c-.03.2.1.36.22.5.05.08.1.16.16.23h.01s-.01,0-.01,0c.04.06.07.12.12.18.01,0,.02-.01.03-.02h0s-.03.03-.03.03c.04.05.05.13.15.13.01.01,0,.06.05.06l.07-.07s-.05.03-.07.06c.01.01.04.03.06.04.03.03.05.05.09.08.06-.1.03-.09.01-.1v-.02c0-.07-.06-.06-.05-.1h-.01s0-.09-.1-.05c-.02,0-.01-.01,0-.04.09-.09.08-.04.11-.04v.03c-.04.07.02.04.05.03l.03.03.05.06h.01s-.01.02-.01.02c.07.02.09.11.18.09.03.02.07.04.1.07.04-.05.05-.09.04-.09-.02-.03-.01-.09-.05-.09h0c.04-.07,0-.04-.03-.06h0c.06-.11,0-.1,0-.13,0-.07-.02-.09-.04-.12.03-.07-.03-.07-.04-.1.04-.1-.06-.12-.03-.2.04-.06-.04-.07.03-.13.04-.01.08-.03.13-.04,0-.01,0-.02,0-.04.03,0,.05,0,.07,0h.01s-.02,0-.03,0c0,0,0,.01.02.01.03.02.02.06.08.06h0s0,0,0,0v.02s0,.04.03.02v.02s.02.03.04.03c0,.02,0,.02.05,0,0,.03-.01.04.02.03.02,0,0,.06.04.04l.04-.02c-.04.1.08.02.1.06.04-.05,0,.06.07-.05.02-.12,0-.13-.01-.19-.01,0-.02-.02-.03-.04.04-.06,0-.04,0-.05,0,0-.01-.02-.02-.03.03-.04.07-.08.01-.07,0,0,0-.01-.01-.02.01-.01.01-.01.01-.02.03-.04-.02-.06,0-.09h-.03s.01,0,.03,0c.06-.05.15-.08.16-.09h-.01.01c.07,0,.04,0,.05-.01.04,0,.07,0,.05,0t0,0s.05,0,.04,0h0s.02,0,0,0c.07.02.04,0,.04,0,.07.03.02,0,.04.01h.01s0,0,0,0l-.07-.11s.04.06.07.11c.01.02,0,.01,0,0,.01.03,0-.03,0-.05,0,0,0,.03.01-.04,0,.04,0,.02,0,0,0-.04,0,.02.02-.04h0s.07-.06.07,0c-.04.07,0,.02,0,.04-.05.07,0,.01-.01.04-.01.01-.04.03.03-.02-.05.04-.06.05-.05.05,0,0,0,0,0,0,0,0,0,0,.01,0-.05.04-.04.03-.03.03s0,0,0,0c0,0,0,0,0,.01s-.01,0,.04.02c0,0,.01,0,.02,0h-.02s.01,0,.04.01c-.03,0-.01,0,0,0,.02.02.05.05.04.06-.03.03-.06.04-.09.06-.03,0-.04.04-.1.15-.02.04-.06.07-.11.15,0-.02-.03,0-.05.04-.03.03-.03-.01-.11.09-.04.13,0,.09,0,.15l-.04.07-.02.04-.02.04c-.08.18-.14.27-.16.22,0-.02,0-.03-.03,0-.05.03-.08.1-.1.18-.01.07.02.04.03.06-.01.06.01.05.03.05.05.02.1.06.16.07,0,0,0-.01.01-.03h0s-.01.03-.01.03c.01.13.07.18.14.2v.03s-.04,0-.04,0c-.08-.01-.16,0-.28.09l-.03.03c-.05-.01-.09-.07-.18.02-.01,0-.03,0-.05.04-.04.03-.05,0-.1.04l-.03.03c-.07.07-.05.14-.1.21-.07.01-.14.08-.2.21-.01.03-.01.04,0,.05v.09c.1.09.21.12.21.4-.07.04-.1-.04-.16-.03-.03,0-.05-.07-.1.05,0,.07.03.08.04.12h.01s0,.01,0,.01v.05c.01.09.07.13.12.19.02.02.04.06.09.04,0,0,0,0,0-.01l.09.04c0,.17-.06.11-.11.12-.03,0-.06,0-.09,0v-.02s-.06-.04-.1-.02h-.13c-.1,0-.14.11-.19.21-.07-.01-.13-.04-.21,0-.07,0-.13.04-.19.12l-.23.12c-.1.09-.12.18-.07.28-.05.1-.05.18.04.23.04.11.13.17.23.2.24.09.49.15.73.25.03.02.06.04.1.06.35.14.74.12,1.11.16.02.03.04.04.07.05-.04,0-.07.01-.12.04h-.43c-.15-.04-.29-.08-.44-.05-.07-.04-.15-.05-.22-.04-.19-.05-.38-.13-.58-.14l-.11-.03c-.09-.04-.18-.08-.27-.1s-.07.03-.02.07c.09.09.21.12.33.14.28.18.61.23.93.3h0Zm25.26-9.77h-.03c-.4-.17-.86-.28-1.31-.4-.1-.07-.21-.12-.36-.1-.15-.06-.3-.11-.46-.16l-.39-.12c-.15-.04-.31-.09-.47-.14-.22-.16-.5-.15-.74-.26-.1-.04-.21-.07-.32-.11l-.27-.08-.31-.1c-.05-.04-.11-.05-.17-.05-.08,0-.13-.12-.23-.04-.08-.07-.15-.15-.27-.14-.08-.04-.16-.11-.26-.08-.21-.07-.41-.18-.63-.23-.02,0-.04-.01-.07-.02h-.01s-.03,0-.04,0c-.37-.1-.71-.29-1.1-.34l-.3-.1-1.3-.51c-.03-.05-.09-.05-.13-.07-.26-.15-.54-.25-.81-.37l-.29-.13c-.18-.15-.4-.22-.61-.31l-.07-.03-.27-.12-.13-.07-.32-.15c-.02-.07-.08-.07-.14-.06l-.1-.04-.1-.05-.05-.03c-.13-.07-.27-.16-.41-.2-.03-.01-.07-.03-.1-.03-.12-.07-.23-.17-.38-.18l-.3-.13c-.16-.05-.29-.17-.46-.19-.01,0-.04-.01-.06,0-.11-.04-.2-.13-.34-.11-.03-.07-.1-.07-.16-.07-.07-.04-.12-.1-.21-.07l-.1-.04c-.05-.04-.12-.04-.18-.04-.09-.04-.15-.13-.28-.09-.1-.08-.22-.11-.35-.12-.21-.08-.41-.15-.64-.18-.04-.01-.07-.07-.12,0l-.06-.02-.05-.04c-.03-.11-.13-.12-.21-.15-.2-.09-.4-.18-.62-.23-.06-.04-.13-.07-.21-.06l-.03-.02-.24-.09c-.05.04-.03.07-.01.1l.35.2.38.22h.01s.13.11.13.11h0c.07,0,.12.04.17.07h0s-.07.03-.08.09l.25.13.03-.03.29.15.35.26s.02.02.03.03c.11.12.26.16.39.24,0,0,0,.02,0,.04-.08-.01-.13-.09-.24-.06-.07-.08-.13-.14-.24-.13h0s-.07-.08-.07-.08c-.04-.02-.08,0-.13.02,0-.01,0-.03,0-.04l-.13-.07-.13-.07-.13-.07-.13-.07-.1-.05-.06-.04-.13-.07c-.07,0-.12-.04-.18-.04h0c-.16-.05-.29-.13-.46-.12-.01.11.07.1.11.14.03.06.07.1.13.13.04-.01.07.02.1.02h.01s.08.06.12.09c.03.01.06.04.1.04.01,0,.03,0,.04,0l.1.06.15.1c.01.07.07.1.12.12.02,0,.04,0,.06,0,0,0,.01-.01.02-.02h0s.31.23.31.23c.01,0,.04.01.06.01.09,0,.15.08.25.03,0,.01,0,.03.01.04.02.02.04.04.07.04,0,0,0,0,.01,0,.06.11.2.11.27.2.22.06.41.2.63.26.02,0,.04-.01.07-.04l.41.22c-.11.07-.16-.04-.24-.07,0,0-.01,0-.02.01-.1-.04-.16-.12-.28-.09l-.16-.09s-.07-.03-.11-.03t-.01,0s-.07-.05-.11-.05l-.15-.07h-.02s-.02,0-.04,0c0,0,0,0,0,0l-.2-.09s-.01-.02-.01-.03c-.03-.03-.07-.04-.1-.08,0,0-.01,0-.02,0-.03,0-.05,0-.08.01,0-.04-.02-.07-.05-.08l-.05.02c-.05-.07-.15.06-.2-.01-.09-.03-.1-.17-.19-.18l-.04.07h0s0,0,0-.01c-.04-.01-.07-.06-.13-.04-.14-.1-.34-.08-.47-.19l-.1-.07s-.09-.07-.15-.04l-.07-.02h-.04s-.01-.04-.02-.04c0-.07-.04-.07-.07-.1-.17-.05-.28-.21-.48-.21l-.07-.02c-.05-.03-.04-.16-.16-.09h-.03c-.07.07-.16-.03-.23.09.04.02.08.04.07.1l-.05.08c-.07.05,0,.04,0,.07l.06.04c.03.12.16.12.23.2h.01s.04.03.04.03c.01.03.04.04.07.03.02-.04.04-.07.08-.07l.07.1.05-.04s0,0,0,0c.02,0,.04,0,.07,0-.03.02-.06.05-.08.08,0,.02-.01.04,0,.06.01.04.04.05.08.06.07,0,.14,0,.21,0,.07,0,.09.05.1.12,0,.01.01.01.02.02.04.09.02.15-.1.15h0s0,.01,0,.01h0s-.07-.04-.07-.04c0-.04-.01-.07-.04-.08h-.13s-.02,0-.02.01h0s-.04.05-.04.08c-.02-.04,0-.07.04-.08h.02c.06-.16-.06-.15-.11-.18-.03-.01-.06-.02-.09,0l-.07.12h-.12s-.04-.04-.08-.05c-.05,0-.1,0-.16.05t0,.01s-.04-.04-.07-.04h0c0-.07,0-.12,0-.18,0-.01-.02-.02-.04-.01-.01,0-.02,0-.04,0-.01,0-.03.02-.04.03,0-.03-.01-.06-.02-.09-.03-.03-.06-.04-.1,0,0,0,0,0,0,.01h-.02c-.05.04-.08,0-.12-.01-.05.15.04.11.1.11,0,0,0,0,0,.01-.02.04-.03.09-.02.13.07.04.13.07.21.07l.05.07.16.09c.04.05.13.04.15.13l.15.04s.07-.06.08-.1c0-.01,0-.02-.01-.04l.03-.04h.01s.01.01.01.01c-.02.06-.1.12-.05.18.06.02.09.11.17.07l.04.07s0,.06.01.08h.01s.2.11.2.11c0,0,.02-.01.03-.03h.01s.01,0,.01,0l.2.16.03-.02.4.19.03.02.1.06.2.1s.02,0,.03,0c0,0,0,0,.01,0,.04.01.07.04.09.07.05.05.12.08.19.11.03,0,.06,0,.1,0t0-.01v.03s.03.01.04.01c0,.04.04.07.08.09,0,0,.01,0,.02,0-.04,0-.07.06-.11.03-.02-.02-.04,0-.05.02,0-.01-.01-.03-.03-.04,0-.09-.12-.05-.13-.13l-.08-.04s0-.01,0-.03c-.02-.03-.04-.04-.08-.02h-.04s0,0,0,0c-.01-.02-.04-.03-.07-.03,0-.01,0-.04,0-.05-.04-.05-.1-.05-.16,0,0,0,0-.01,0-.03,0-.02-.01-.04-.03-.05-.16-.07-.32-.15-.54-.07h-.04c-.04.17.1.12.15.18l.11.06c.04.1.13.12.23.12l.02.04s.04.04.07.04c0,0,.01,0,.01-.01l.14.02h.01s0,0,0,0h-.01v.04s-.09.13-.09.13c.01-.17-.09-.18-.21-.17l-.45-.21s0,.02,0,.03c0-.01.01-.02,0-.03-.21-.15-.45-.26-.68-.38h-.03s-.16-.11-.16-.11c0,0-.01-.01-.02-.02v-.04s-.52-.28-.52-.28l-.3-.17h-.09c-.17-.09-.36-.12-.56-.14,0,.01-.01.02-.02.03h-.03s-.09,0-.14.02c.16.38.51.49.8.69v.06c.18.07.2.29.36.36,0,.08.08.07.13.12.04.07.07.12.15.13,0,0,0,0,0,0,0,.01,0,.03-.01.06.05.07.15.09.2.18.05.05.11.09.2.07t0-.01h0s0,.03,0,.04h-.13s-.01-.02-.02-.02l-.05-.08h-.04s-.02-.02-.03-.03l-.07-.04-.06-.04c-.01-.07-.07-.07-.13-.04,0,.07.04.1.07.12v.07c.02.07.07.09.12.11l-.03.06c-.07-.04-.13-.1-.22-.09l-.14-.07s0-.01.01-.02c-.13-.04-.25-.07-.38-.07-.13.13.04.15.03.23l.03.02c.02.14.2.07.24.19-.01.1.1.08.11.15l.49.28.07.04.1.06h.04s0,.03,0,.03h.01s.03.04.04.04c.12.11.28.15.41.25l.02.04s-.03,0-.04,0h-.13s-.05.04-.04.08l.2.11h0s.01.01.01.01c0,.06.06.07.09.09l.24.12s.02.04.04.06c.32.22.67.36,1,.57l.03.03c0,.07.04.07.07.09.04.02.07.09.12.02.01,0,.03,0,.04-.01h.01s-.01.03,0,.04c.07.15.27.11.34.25.2.18.44.27.68.36.13,0,.21.12.33.11.17.02.32.11.48.17.1.04.18.09.3.07h0s.48.2.48.2c.04.01.04.04.03.09l.17-.02s0,.02,0,.04c.01.09.04.17.15.12h.13l.05.09c.02.09.13.05.17.12,0,0,.01,0,.02.01.13-.07.15.12.25.12h.24c-.01.13.07.12.15.12.1,0,.12.13.2.17l.09-.02.02-.04h.03l.04-.04s.04.02.06.02c.03.03.05.08.1.09.47.18.92.41,1.37.61.09.04.18.09.28.05,0,0,.01-.02.01-.03l.06.07h.02c-.02.11,0,.13.16.17l.69.25c.08.03.15.06.24.04.43.15.86.26,1.28.42.53.2,1.06.4,1.6.56.19.15.44.17.66.25l.87.28s.1.03.08.03v.02h.01,0c-.06.02,0,0,0,0h0s.07,0,.09,0h-.09s0,.01,0,.01v.07c0,.07,0,.23,0,.18,0,0,0,0,.03.01,0,0,0,0,.02,0,0,.01.02.04.02.07v.02s-.04.01-.06.02h0s-.05.02-.05.02l-.21.07-.35.12s-.03,0-.04.01h-.03c-.52.15-1,.38-1.47.63-.17.09-.34.18-.52.23-.37.11-.72.23-1,.54l-.15.15c-.09.03-.15.09-.16.21-.09.09-.14.22-.14.37-.06.12-.03.26,0,.39.01.06.04.12.04.16-.07.53.29.84.55,1.2.41.57.92.63,1.41.69.72.09,1.38-.05,2.05-.15.13.03.22-.04.33-.05.33,0,.65-.12.97-.14.05,0,.07,0,.15,0l.23-.03.47-.07c.32-.05.64-.12.97-.19.59-.09,1.18-.23,1.76-.36.03-.16.04-.34.07-.52.07-.05.07-.15.03-.27l.02-.26c.13-.63.17-1.32.21-2.01.01-.29.02-.63.02-.89v-.72c-.02-.28-.03-.55-.04-.82-.04-.83-.06-1.67-.16-2.49,0-.09,0-.18,0-.27-.3-.11-.64-.19-.98-.27h-.03s0,0,0,0Zm-10.9,6.26c-.01-.18-.02-.35-.07-.53-.02-.08.01-.18-.1-.26v.19c-.02.08.02.17-.04.25-.04.03-.05.07-.05.11,0,.06,0,.12.02.18,0,0,.01,0,.01.01,0,.02-.01.04-.02.07v-.04s-.01-.04-.03-.05c0-.11,0-.22-.02-.33,0-.12-.01-.23,0-.35.01-.03.01-.06,0-.09t-.01,0v-.14c-.02-.07.05-.15-.05-.24-.04.15-.11.27-.09.42-.06.05-.04.12-.04.18-.06.08-.04.17-.04.25l-.04.21s-.04.09-.05.13c0-.02-.01-.04-.04-.05l-.04-.04c0-.08.01-.17-.05-.25v-.14s-.07-.02-.1,0v.14s-.05.39-.05.39c0,0,0,.01,0,.02,0,0-.01.02-.02.03-.05.07-.03.13-.03.2,0,.01,0,.03.01.05v.06s-.04.06-.04.09c0-.01-.02-.03-.03-.04l-.02-.02c.04-.07.01-.15,0-.22t.01,0s.04-.01.05-.03c.01-.04,0-.07-.02-.09v-.07s0-.07,0-.07c0-.01,0-.02,0-.03,0,0,0,0,0,0,0-.01,0-.03,0-.04-.05-.04-.1-.09-.19-.06.01.14-.16.25-.09.39-.16.07-.1.2-.13.3-.04.04-.04.09-.04.13,0,.01.01.04.03.05,0,0,.01,0,.02,0v.17c-.01.06.03.13-.04.19v.07s.08.07.08.07c-.15.11-.02.25-.07.36l.06.11v.04c-.06.03-.07.06-.05.1,0,0,.01,0,.02,0-.02.02-.03.04-.04.07,0-.04-.02-.09-.07-.17-.04-.04-.04-.07-.04-.11,0-.02.02-.05.02-.07,0-.03,0-.05-.02-.07,0,0,0,0,0,0,0-.01.01-.02,0-.04s-.02-.03-.04-.04l-.02-.09s0-.01,0-.02c0-.01,0-.03,0-.04h0s.01,0,.03,0c.1-.07.04-.18.08-.26.01-.07.01-.12,0-.19-.01-.01-.03-.03-.04-.04.01-.04.01-.09-.05-.09.04-.03.1-.07.11-.12,0-.01,0-.04-.01-.05,0-.09-.04-.18-.04-.26,0,0,.01,0,.02,0,0-.23.03-.46-.06-.68v-.15h-.09v.15c-.03.05.05.09.01.15-.08.15-.08.31-.1.47-.01.2-.1.41-.07.61-.07.09-.05.2-.03.29-.07.08-.05.16-.04.25-.04.11-.06.22.01.32-.13.04-.07.13-.07.2,0,.09-.07.2,0,.29l-.03.15v.11s-.01.01,0,.02c-.07.21.02.42,0,.63-.02.06,0,.11,0,.17.01,0,.02.01.03.01v.07s-.02.02-.01.04l.02.1-.04.12.02.29-.04.06c.04-.15-.02-.27-.08-.4,0,0,0-.01,0-.02.02-.07-.01-.15,0-.23,0,0,.02,0,.03-.01v-.11s-.03-.21-.03-.21v-.12c-.05-.08-.01-.17-.03-.25l-.03-.04c.04-.11,0-.22-.01-.33v-.11s-.1,0-.1,0v.15c0,.09-.02.17.02.26,0,.08,0,.15,0,.23-.02.18-.04.36.05.53-.04.02-.04.05-.03.08-.02.2,0,.41.04.61-.04.19,0,.37,0,.56-.1.13.02.28-.1.42,0,.03-.01.06-.01.09,0,.07,0,.14.06.19h0s-.01,0-.01.02v.1s-.05.09-.04.15c0,.04.01.08.03.12-.02,0-.03.02-.04.04v-.14s-.05-.29-.05-.29v-.25s0,0,.01-.01l-.05-.65-.04-.07c.04-.19,0-.37-.05-.55,0-.09.02-.2-.03-.28l-.02-.4s-.07-.01-.1,0c0,.16-.04.32,0,.48l-.02.34c-.03.08-.01.17,0,.25.01,0,.02,0,.04,0,0,0,0,0-.01,0v.07s.01.11.01.11c0,0,0,.01,0,.03-.07.07.03.17-.05.26-.01-.09-.03-.17-.04-.24-.01,0-.02,0-.04.01h0s.02,0,.04-.01l-.02-.29-.06-.26c-.02-.11.01-.22-.03-.33v-.04s-.01-.07-.01-.07l-.02-.29c-.02-.09.03-.19-.05-.27.03-.12.04-.23-.07-.33v-.09c.02-.43-.07-.84-.16-1.26l-.07-.66s-.01,0-.01.01h0s.01-.01.01-.01l-.02-.51s-.03,0-.04,0c.01,0,.02,0,.04,0,0-.16.03-.33-.04-.48,0-.06.03-.12,0-.18v-.18s0-.3,0-.3c-.11.06-.08.11-.09.15v.07c-.07.08-.02.18-.05.27h.01c0,.1-.07.2.03.3.01.03,0,.06-.02.09-.13.05-.09-.05-.12-.09v-.07c.09-.06.02-.1,0-.15v-.11s0-.26,0-.26h.02c-.04-.18.02-.37-.06-.55v-.36c-.07-.01-.11.02-.11.07-.01.1-.07.2-.05.3h.01c-.09.07-.04.15-.04.22,0,0-.01.01,0,.02-.11.07-.07.18-.08.27-.05.13-.05.27-.05.41-.06.12-.01.25-.04.37-.08.23,0,.48-.07.72-.07.15.01.31-.07.45-.05,0-.09-.04-.13-.06,0,.05-.01.09-.02.17-.03-.06-.05-.09-.07-.12h-.01s.02,0,.03-.01c0-.04,0-.07-.01-.1-.02-.17,0-.34-.06-.5h0s-.01-.02-.01-.02v-.15c.05-.05.04-.1,0-.15v-.15c.01-.07,0-.15-.01-.23.01-.07,0-.13-.04-.19.02-.07.04-.15,0-.23-.01-.11.04-.23,0-.34l-.04-.11c.1-.24-.04-.47,0-.72-.07-.07.05-.18-.08-.23-.1.31-.11.63-.15.94v.41c-.07.09-.03.2-.03.31v.34c-.04.18-.1.36-.04.55v.33c0,.05,0,.1,0,.16-.03.35.02.7,0,1.05h.03s-.01,0-.03,0c-.05.4-.12.81-.1,1.22h.01s0,.01,0,.02c0,0,0-.01,0-.02-.06.12-.02.26-.02.38-.04.15-.04.31-.01.47,0,.01,0,.03,0,.04-.04.12-.04.25,0,.37v.1s-.02.06,0,.09c-.07.21,0,.42,0,.64-.04.37.05.74.07,1.11l.11.94c-.01.07,0,.13.02.19-.01.1.01.2.04.3l.02.15c0,.13.01.26.05.38l.04.26c.05.57.2,1.12.3,1.67.05.28.07.58.18.85-.01.11.02.21.06.31.08.23.07.49.18.72,0,.05,0,.1.02.15.13.53.3,1.06.38,1.61,0,.01,0,.02,0,.03-.03.2.08.38.1.58-.03.26.1.5.14.75,0,.07-.01.13.07.15-.03.1-.03.2,0,.29,0,.04.02.07.03.1v.02s0,0,0,0h0s.01,0,.01,0c0,0,.01,0,.01,0-.07.02-.04.01-.04.03h0v.02s0,0-.01.01c-.01,0-.02,0,0,.04,0,0,0,.01.01.02v-.02s-.01,0-.01,0c-.08.02-.18.12-.21.18-.02-.03-.01-.01-.01,0,0,.04-.02.09-.05.09-.01,0-.04.01-.05,0l-.04-.06-.02-.02-.07-.18c-.61-.58-1.25-1.13-1.95-1.61-.3-.2-.6-.42-.93-.59-.08-.1-.2-.16-.32-.21-.16-.08-.28-.25-.5-.24,0,.18.15.23.21.35l-.05.07h-.06s-.06.02-.06.02c-.14.15-.27.17-.38.04-.01-.04-.04-.07-.09-.07-.14-.04-.14.04-.14.14,0,.08.08.1.13.15,0,.07.05.09.1.12l.41.38c.06.2.18.35.32.5h-.04s-.06-.04-.06-.04c-.18-.15-.38-.28-.62-.32h-.05c-.11-.09-.19-.22-.37-.2-.02-.02-.06-.02-.09,0-.07,0-.1-.07-.18-.04h-.05c-.12.04-.06.15-.13.2-.12-.04-.21,0-.29.12-.02.02-.02.04-.01.06v.12c.16.16.33.3.27.58-.1,0-.13-.1-.21-.13-.04-.02-.07-.1-.13,0-.01.07.03.11.04.16h.01s.01.03.01.03v.06c0,.11.06.18.1.26.02.04.04.08.1.09,0,0,0,0,0,0l.09.09c-.04.17-.11.07-.17.04l-.11-.04s0-.01,0-.02c-.04-.03-.06-.07-.12-.08l-.14-.07c-.12-.06-.18.04-.26.13-.07-.04-.13-.09-.23-.07-.07-.01-.15,0-.22.07l-.26.07c-.12.07-.15.16-.13.27-.07.09-.09.18-.01.23.01.11.07.18.16.25.19.15.4.28.55.46.01.03.03.07.05.09.23.26.54.44.78.69,0,.04,0,.06.01.08-.03-.02-.06-.04-.1-.04l-.3-.25c-.1-.09-.18-.19-.32-.23-.04-.07-.09-.11-.16-.12-.14-.12-.25-.26-.44-.32l-.08-.06c-.07-.06-.12-.12-.2-.16-.07-.04-.07.01-.04.06.05.1.14.16.24.2.17.23.41.39.61.59l.1.09c.12.13.25.25.4.34,0,.02.03.04.04.05.21.23.47.41.7.61.13.12.24.26.4.35l.13.12.05.05.86.81c.74.72,1.47,1.48,2.21,2.18l.44-.21c.32-.12.66-.26.98-.46.3-.18.62-.22.92-.43l.13-.06.26-.13c.28-.14.56-.28.84-.44.38-.21.33-.19.66-.38l.38-.23c.29-.18.58-.36.86-.55l.06-.04,2.07-1.44-.21-.74c-.13-.47-.23-.95-.42-1.42l-.16-.54-.22-.88-.1-.45c.03-.06,0-.1,0-.15l-.13-.61c-.15-.3-.14-.64-.27-.93-.07-.18.01-.39-.14-.54-.04-.12-.09-.26-.11-.38-.04-.26-.09-.53-.17-.78l.03-.04-.04-.05v-.02c.12-.04.07-.12.06-.18-.03-.18-.13-.35-.12-.55-.05-.12-.01-.26-.1-.37.01-.03.04-.06.03-.08l-.17-1.07-.08-.27s-.03,0-.04,0h.04c0-.12-.03-.23-.09-.33,0-.06.04-.12-.02-.18-.02-.36-.05-.71-.13-1.06l-.11-.97-.07-.66v-.07c.02-.1-.03-.19-.05-.28.03-.11,0-.21-.01-.31v-.18s-.04-.25-.04-.25v-.21c-.05-.31-.04-.64-.12-.95-.01-.23.04-.45-.04-.67h0s0-.03,0-.03c.04-.17-.04-.33-.04-.5,0-.31-.01-.61-.07-.92v-.2s.01,0,.01,0Z"/><g class="bf"><ellipse class="az" cx="128" cy="411" rx="112" ry="5"/></g><path class="w" d="m192,408.83H64v3.04c0,2.28,28.65,4.12,64,4.12s64-1.85,64-4.12v-3.04Z"/><path class="w" d="m146.83,390l-2.83-8h-32l-2.83,8c-3.75,10.27-15.19,15.06-28.79,16.05-10.19.74-16.39,1.71-16.39,2.78,0,2.3,28.65,4.17,64,4.17s64-1.86,64-4.17c0-1.07-6.2-2.04-16.39-2.78-13.59-.99-25.03-5.78-28.79-16.05Z"/><path class="ba" d="m8.07,383c-3.9,0-7.07-3.14-7.07-7v-128c0-3.86,3.17-7,7.07-7h239.86c3.9,0,7.07,3.14,7.07,7v128c0,3.86-3.17,7-7.07,7H8.07Z"/><path class="am" d="m247.93,242c3.35,0,6.07,2.69,6.07,6v128c0,3.31-2.72,6-6.07,6H8.07c-3.35,0-6.07-2.69-6.07-6v-128c0-3.31,2.72-6,6.07-6h239.86m0-2H8.07c-4.46,0-8.07,3.58-8.07,8v128c0,4.42,3.61,8,8.07,8h239.86c4.46,0,8.07-3.58,8.07-8v-128c0-4.42-3.61-8-8.07-8h0Z"/><path class="al" d="m102.22,308.46c.96-1.91,2-4.82,2.95-7.38l-3.13-.74c-.52,2.21-1.56,5.43-2.43,7.43l2.61.69Z"/><path class="al" d="m91.45,308.33l2.91-.69c-.26-1.91-1.09-4.82-2.04-6.99l-2.74.61c.91,2.21,1.65,5.17,1.87,7.08Z"/><polygon class="al" points="107.65 296.82 98.79 296.82 98.79 292.17 95.62 292.17 95.62 296.82 86.89 296.82 86.89 299.73 107.65 299.73 107.65 296.82"/><path class="al" d="m74.23,292.04h-3.34v16.66c-1.77-2.04-3.3-4.2-4.47-6.37l-1.73.66c.25-1.21.48-2.45.68-3.74l-2.08-.69-.61.13h-8.21c.74-1.94,1.39-3.96,1.95-6.04l-3.26-.65c-2.04,7.86-5.65,15.07-10.47,19.5.78.52,2.17,1.56,2.74,2.13,1-1.01,1.96-2.14,2.87-3.36,3.02,1.84,6.29,4.29,8.3,6.24-3.29,5.88-7.73,10.08-12.91,12.81.78.52,2.04,1.69,2.61,2.43,8.28-4.64,14.86-13.39,18.04-27.18,1.77,3.03,4.02,5.98,6.54,8.63v18.68h3.34v-15.46c2.49,2.18,5.14,4.03,7.77,5.39.56-.87,1.56-2.08,2.35-2.74-3.48-1.57-7-4.01-10.12-6.9v-20.11Zm-24.26,15.79c1.18-1.86,2.26-3.89,3.23-6.06h8.47c-.81,4.43-2.03,8.33-3.58,11.75-2.07-1.84-5.24-4.02-8.12-5.7Z"/><path class="al" d="m179.31,298.79c-2.22-1.26-4.88-1.9-7.97-1.9h-10.55v31.59h10.23c3.21,0,5.94-.63,8.21-1.9,2.26-1.27,3.99-3.09,5.18-5.46,1.2-2.37,1.8-5.19,1.8-8.48s-.6-6.09-1.79-8.44c-1.18-2.35-2.88-4.16-5.1-5.41Zm1.02,20.2c-.79,1.73-1.98,3.05-3.58,3.96-1.59.9-3.59,1.36-6,1.36h-5.2v-23.26h5.49c2.3,0,4.23.45,5.78,1.34,1.55.89,2.72,2.21,3.5,3.93.79,1.73,1.19,3.83,1.19,6.31s-.4,4.62-1.19,6.35Z"/><path class="al" d="m138.21,302.19c1.44-.91,3.07-1.37,4.89-1.37,1.01,0,1.96.14,2.85.42.91.28,1.72.69,2.45,1.24.73.54,1.35,1.21,1.85,1.99.5.78.85,1.69,1.03,2.71h4.81c-.27-1.7-.78-3.2-1.54-4.52-.76-1.33-1.72-2.45-2.88-3.36-1.16-.93-2.47-1.62-3.93-2.1-1.45-.48-3.01-.72-4.69-.72-2.73,0-5.16.65-7.29,1.96-2.14,1.3-3.82,3.16-5.06,5.58-1.23,2.42-1.85,5.31-1.85,8.68s.61,6.26,1.83,8.68c1.23,2.43,2.92,4.29,5.06,5.6,2.14,1.3,4.58,1.94,7.31,1.94,1.74,0,3.34-.26,4.81-.77,1.47-.51,2.78-1.24,3.92-2.17,1.15-.95,2.09-2.07,2.82-3.36.74-1.31,1.24-2.73,1.5-4.29h-4.81c-.2.99-.55,1.89-1.06,2.67-.5.77-1.12,1.43-1.85,1.96-.73.53-1.55.94-2.45,1.22-.89.27-1.84.4-2.84.4-1.8,0-3.42-.45-4.86-1.36-1.44-.91-2.58-2.24-3.41-4.01-.82-1.77-1.24-3.94-1.24-6.51s.41-4.71,1.24-6.48c.83-1.77,1.96-3.11,3.39-4.03Z"/><path class="al" d="m212.1,301.91c-.8-1.55-2.01-2.78-3.63-3.67-1.61-.89-3.65-1.34-6.11-1.34h-11.26v31.59h4.77v-11.1h6.48c2.45,0,4.48-.45,6.09-1.34,1.62-.91,2.84-2.13,3.64-3.67.81-1.55,1.22-3.3,1.22-5.24s-.4-3.67-1.2-5.21Zm-4.27,8.41c-.45.94-1.16,1.67-2.13,2.22-.97.53-2.23.8-3.78.8h-6.05v-12.35h5.98c1.58,0,2.86.26,3.82.79.98.53,1.69,1.25,2.14,2.17.45.93.68,1.99.68,3.18s-.23,2.26-.68,3.19Z"/><rect class="al" x="85.76" y="308.85" width="22.45" height="3"/><path class="al" d="m123.37,294.48l-.52.13h-12.81v37.39h3.17v-34.31h8.21c-1.35,3.47-3.26,8.17-5.08,11.86,4.39,3.82,5.65,7.08,5.69,9.82,0,1.61-.3,2.87-1.26,3.43-.52.3-1.13.48-1.87.52-.87.04-2.13,0-3.39-.09.56.91.87,2.3.91,3.21,1.26.04,2.69.09,3.78-.04,1.13-.17,2.08-.48,2.87-.96,1.52-1.04,2.13-3.08,2.13-5.73-.04-3.13-1.09-6.56-5.47-10.6,2-4,4.26-9.03,6.04-13.12l-2.39-1.52Z"/><path class="al" d="m88.67,332h3.04v-2.52h10.94v2.3h3.13v-16.16h-17.11v16.37Zm13.98-13.46v8.03h-10.94v-8.03h10.94Z"/><rect class="ak" x="345" y="241" width="78" height="38" rx="7" ry="7"/><path class="am" d="m416,242c3.31,0,6,2.69,6,6v24c0,3.31-2.69,6-6,6h-64c-3.31,0-6-2.69-6-6v-24c0-3.31,2.69-6,6-6h64m0-2h-64c-4.42,0-8,3.58-8,8v24c0,4.42,3.58,8,8,8h64c4.42,0,8-3.58,8-8v-24c0-4.42-3.58-8-8-8h0Z"/><path class="al" d="m385.34,261.01c.87-.45,1.51-1.08,1.93-1.88.42-.8.63-1.71.63-2.74s-.21-1.95-.63-2.75c-.42-.81-1.07-1.44-1.94-1.9-.88-.47-1.99-.7-3.36-.7h-5.9v17.46h2.11v-6.82h3.82c.15,0,.29-.01.44-.02l3.69,6.84h2.45l-3.94-7.2c.25-.08.48-.18.7-.29Zm-7.15-8.09h3.72c.94,0,1.7.15,2.28.43.57.28.99.69,1.25,1.21.26.52.39,1.13.39,1.83s-.13,1.3-.39,1.81c-.26.5-.67.89-1.24,1.16-.57.27-1.32.41-2.25.41h-3.75v-6.85Z"/><path class="al" d="m362.76,253.58c.86-.53,1.82-.8,2.87-.8.58,0,1.14.08,1.67.24.53.16,1.02.4,1.46.72.44.31.82.7,1.12,1.16.31.46.53.99.66,1.6h2.11c-.16-.9-.45-1.7-.87-2.4-.42-.7-.94-1.3-1.57-1.79-.62-.49-1.33-.87-2.11-1.12-.77-.26-1.6-.38-2.48-.38-1.49,0-2.81.36-3.97,1.09-1.16.73-2.07,1.76-2.74,3.1s-1,2.93-1,4.77.33,3.43,1,4.77c.66,1.34,1.58,2.38,2.74,3.1,1.16.73,2.48,1.09,3.97,1.09.88,0,1.71-.13,2.48-.38.78-.26,1.48-.63,2.11-1.12.62-.49,1.15-1.09,1.57-1.8.42-.7.71-1.5.87-2.4h-2.11c-.12.6-.34,1.14-.66,1.6-.31.46-.68.85-1.12,1.17-.44.31-.92.55-1.46.71-.53.16-1.09.24-1.67.24-1.06,0-2.01-.27-2.87-.8-.85-.53-1.53-1.32-2.04-2.36-.5-1.04-.75-2.32-.75-3.83s.25-2.79.75-3.83c.51-1.04,1.18-1.83,2.04-2.36Z"/><polygon class="al" points="406.02 251.04 400.09 265.53 399.88 265.53 393.95 251.04 391.43 251.04 391.43 268.5 393.4 268.5 393.4 255.24 393.57 255.24 399.03 268.5 400.94 268.5 406.39 255.24 406.56 255.24 406.56 268.5 408.54 268.5 408.54 251.04 406.02 251.04"/><rect class="ak" x="433" y="241" width="78" height="38" rx="7" ry="7"/><path class="am" d="m504,242c3.31,0,6,2.69,6,6v24c0,3.31-2.69,6-6,6h-64c-3.31,0-6-2.69-6-6v-24c0-3.31,2.69-6,6-6h64m0-2h-64c-4.42,0-8,3.58-8,8v24c0,4.42,3.58,8,8,8h64c4.42,0,8-3.58,8-8v-24c0-4.42-3.58-8-8-8h0Z"/><path class="al" d="m457.09,252.09c-1.2-.7-2.65-1.05-4.35-1.05h-5.62v17.46h5.39c1.77,0,3.28-.35,4.52-1.05,1.24-.71,2.18-1.71,2.83-3.02.65-1.31.97-2.88.97-4.7s-.32-3.36-.96-4.65c-.64-1.3-1.57-2.3-2.77-2.99Zm.99,11.32c-.47,1.03-1.17,1.82-2.12,2.38s-2.14.84-3.59.84h-3.14v-13.71h3.38c1.36,0,2.5.28,3.42.83.91.55,1.6,1.33,2.06,2.35.46,1.02.69,2.23.69,3.64s-.23,2.64-.7,3.67Z"/><polygon class="al" points="473.02 265.53 472.82 265.53 466.89 251.04 464.36 251.04 464.36 268.5 466.34 268.5 466.34 255.24 466.51 255.24 471.97 268.5 473.88 268.5 479.33 255.24 479.5 255.24 479.5 268.5 481.48 268.5 481.48 251.04 478.95 251.04 473.02 265.53"/><path class="al" d="m496.91,253.77c-.42-.84-1.07-1.5-1.94-1.99-.87-.49-1.99-.74-3.36-.74h-5.9v17.46h2.11v-6.38h3.82c1.36,0,2.47-.25,3.34-.74.87-.5,1.51-1.17,1.93-2.01.42-.84.63-1.78.63-2.8s-.21-1.96-.63-2.79Zm-1.84,4.68c-.26.55-.67.99-1.24,1.31-.57.32-1.32.49-2.26.49h-3.75v-7.33h3.72c.95,0,1.71.16,2.28.48.57.31.99.74,1.24,1.29.26.55.39,1.18.39,1.88s-.13,1.33-.39,1.88Z"/><rect class="ak" x="521" y="241" width="78" height="38" rx="7" ry="7"/><path class="am" d="m592,242c3.31,0,6,2.69,6,6v24c0,3.31-2.69,6-6,6h-64c-3.31,0-6-2.69-6-6v-24c0-3.31,2.69-6,6-6h64m0-2h-64c-4.42,0-8,3.58-8,8v24c0,4.42,3.58,8,8,8h64c4.42,0,8-3.58,8-8v-24c0-4.42-3.58-8-8-8h0Z"/><path class="al" d="m549.16,260.31c-.51-.36-1.05-.65-1.61-.86-.56-.21-1.06-.38-1.52-.49l-1.77-.48c-.32-.08-.68-.2-1.07-.33-.39-.14-.76-.32-1.11-.54-.35-.22-.64-.5-.87-.83-.22-.34-.33-.74-.33-1.2,0-.56.16-1.05.48-1.49.32-.44.77-.78,1.35-1.03.58-.25,1.26-.38,2.03-.38,1.06,0,1.95.24,2.68.72.73.48,1.14,1.15,1.24,2.01h2.05c-.03-.88-.3-1.67-.82-2.36-.51-.69-1.2-1.24-2.08-1.64-.88-.4-1.88-.6-3-.6s-2.12.2-3.03.61c-.9.4-1.61.97-2.15,1.71-.53.73-.79,1.58-.79,2.56,0,1.18.4,2.13,1.19,2.85.8.73,1.88,1.29,3.24,1.68l2.15.61c.61.17,1.18.37,1.71.6.53.23.95.52,1.28.89.32.36.49.84.49,1.41,0,.64-.19,1.19-.56,1.67-.38.47-.88.84-1.53,1.11-.64.26-1.37.39-2.17.39-.69,0-1.34-.1-1.94-.31-.6-.21-1.09-.53-1.48-.96-.39-.43-.61-.98-.66-1.64h-2.18c.07.96.36,1.79.88,2.51.52.72,1.24,1.28,2.15,1.69.91.4,2,.6,3.25.6,1.34,0,2.48-.23,3.42-.67.94-.45,1.66-1.05,2.15-1.82.49-.76.74-1.61.74-2.56,0-.82-.17-1.51-.5-2.07-.34-.56-.76-1.02-1.28-1.38Z"/><path class="al" d="m580.05,268.5h2.22l-6.41-17.46h-2.18l-6.41,17.46h2.22l1.75-4.94h7.06l1.75,4.94Zm-8.15-6.82l2.8-7.88h.14l2.8,7.88h-5.73Z"/><polygon class="al" points="556.53 260.69 564.41 260.69 564.41 258.82 556.53 258.82 556.53 252.92 564.95 252.92 564.95 251.04 554.42 251.04 554.42 268.5 565.09 268.5 565.09 266.62 556.53 266.62 556.53 260.69"/><rect class="ak" x="345" y="345" width="78" height="38" rx="7" ry="7"/><path class="am" d="m416,346c3.31,0,6,2.69,6,6v24c0,3.31-2.69,6-6,6h-64c-3.31,0-6-2.69-6-6v-24c0-3.31,2.69-6,6-6h64m0-2h-64c-4.42,0-8,3.58-8,8v24c0,4.42,3.58,8,8,8h64c4.42,0,8-3.58,8-8v-24c0-4.42-3.58-8-8-8h0Z"/><polygon class="al" points="375.77 369.53 375.57 369.53 369.64 355.04 367.11 355.04 367.11 372.5 369.09 372.5 369.09 359.24 369.26 359.24 374.72 372.5 376.63 372.5 382.08 359.24 382.25 359.24 382.25 372.5 384.23 372.5 384.23 355.04 381.7 355.04 375.77 369.53"/><path class="al" d="m399.75,372.5h2.22l-6.41-17.46h-2.18l-6.41,17.46h2.22l1.75-4.94h7.06l1.75,4.94Zm-8.15-6.82l2.8-7.88h.14l2.8,7.88h-5.73Z"/><rect class="ak" x="433" y="345" width="78" height="38" rx="7" ry="7"/><path class="am" d="m504,346c3.31,0,6,2.69,6,6v24c0,3.31-2.69,6-6,6h-64c-3.31,0-6-2.69-6-6v-24c0-3.31,2.69-6,6-6h64m0-2h-64c-4.42,0-8,3.58-8,8v24c0,4.42,3.58,8,8,8h64c4.42,0,8-3.58,8-8v-24c0-4.42-3.58-8-8-8h0Z"/><polygon class="al" points="453.73 364.69 461.6 364.69 461.6 362.82 453.73 362.82 453.73 356.92 462.15 356.92 462.15 355.04 451.61 355.04 451.61 372.5 462.28 372.5 462.28 370.62 453.73 370.62 453.73 364.69"/><path class="al" d="m492.51,357.77c-.42-.84-1.07-1.5-1.94-1.99-.87-.49-1.99-.74-3.36-.74h-5.9v17.46h2.11v-6.38h3.82c1.36,0,2.47-.25,3.34-.74.87-.5,1.51-1.17,1.93-2.01.42-.84.63-1.78.63-2.8s-.21-1.96-.63-2.79Zm-1.84,4.68c-.26.55-.67.99-1.24,1.31-.57.32-1.32.49-2.26.49h-3.75v-7.33h3.72c.95,0,1.71.16,2.28.48.57.31.99.74,1.24,1.29.26.55.39,1.18.39,1.88s-.13,1.33-.39,1.88Z"/><path class="al" d="m475.22,365.01c.87-.45,1.51-1.08,1.93-1.88.42-.8.63-1.71.63-2.74s-.21-1.95-.63-2.75c-.42-.81-1.07-1.44-1.94-1.9-.88-.47-1.99-.7-3.36-.7h-5.9v17.46h2.11v-6.82h3.82c.15,0,.29-.01.44-.02l3.69,6.84h2.45l-3.94-7.2c.25-.08.48-.18.7-.29Zm-7.15-8.09h3.72c.94,0,1.7.15,2.28.43.57.28.99.69,1.25,1.21.26.52.39,1.13.39,1.83s-.13,1.3-.39,1.81c-.26.5-.67.89-1.24,1.16-.57.27-1.32.41-2.25.41h-3.75v-6.85Z"/><rect class="ak" x="521" y="345" width="78" height="38" rx="7" ry="7"/><path class="am" d="m592,346c3.31,0,6,2.69,6,6v24c0,3.31-2.69,6-6,6h-64c-3.31,0-6-2.69-6-6v-24c0-3.31,2.69-6,6-6h64m0-2h-64c-4.42,0-8,3.58-8,8v24c0,4.42,3.58,8,8,8h64c4.42,0,8-3.58,8-8v-24c0-4.42-3.58-8-8-8h0Z"/><polygon class="al" points="548.86 369.69 553.9 369.69 553.9 368.2 548.86 368.2 548.86 366.19 547.02 366.19 547.02 368.2 542.12 368.2 542.12 369.69 547.02 369.69 547.02 372.26 538.98 372.26 538.98 373.77 557.14 373.77 557.14 372.26 548.86 372.26 548.86 369.69"/><path class="al" d="m577.9,361.96h3.53v-1.68h-8.59c1.78-1.81,3.32-4.13,4.19-6.05,1.2,2.3,3.34,5.06,5.35,6.82.26-.53.7-1.2,1.03-1.63-2.04-1.54-4.25-4.37-5.62-6.96h-1.68c-1.01,2.52-3.17,5.64-5.42,7.42.36.38.77,1.03.98,1.49.34-.28.68-.6,1.01-.93v1.53h3.43v3.36h-4.61v1.68h4.61v7.39h1.78v-7.39h4.85v-1.68h-4.85v-3.36Z"/><path class="al" d="m553.78,365.42h5.12v-1.51h-4.68v-7.7h3.65v-1.54h-3.65v-2.3h-1.8v2.3h-8.76v-2.3h-1.8v2.3h-3.65v1.54h3.65v7.7h-4.78v1.51h5.24c-1.4,1.7-3.48,3.24-5.48,4.03.41.34.91.96,1.18,1.37,2.34-1.09,4.77-3.14,6.28-5.4h7.6c1.44,2.14,3.77,4.12,6.12,5.11.26-.43.79-1.06,1.2-1.39-2.04-.72-4.06-2.12-5.43-3.72Zm-10.12-6.26h8.76v1.66h-8.76v-1.66Zm8.76-2.95v1.58h-8.76v-1.58h8.76Zm-8.76,5.98h8.76v1.73h-8.76v-1.73Z"/><path class="al" d="m567.13,366.5h3.5v-7.99h-3.5v-1.99h4.22v-1.63h-4.22v-2.54h-1.73v2.54h-4.15v1.63h4.15v1.99h-3.38v7.99h3.38v2.04h-4.42v1.63h4.42v4.25h1.73v-4.25h4.44v-1.63h-4.44v-2.04Zm-3.48-6.53h5.3v1.82h-5.3v-1.82Zm0,3.22h5.3v1.87h-5.3v-1.87Z"/><polygon class="ak" points="336 72 328 68 328 76 336 72"/><path class="au" d="m329,69.62l4.76,2.38-4.76,2.38v-4.76m-1-1.62v8l8-4-8-4h0Z"/><circle class="ak" cx="255" cy="312" r="3.5"/><path class="am" d="m255,309c1.65,0,3,1.35,3,3s-1.35,3-3,3-3-1.35-3-3,1.35-3,3-3m0-1c-2.21,0-4,1.79-4,4s1.79,4,4,4,4-1.79,4-4-1.79-4-4-4h0Z"/><polygon class="ak" points="556.81 295.5 560 289.12 563.19 295.5 556.81 295.5"/><path class="am" d="m560,290.24l2.38,4.76h-4.76l2.38-4.76m0-2.24l-4,8h8l-4-8h0Z"/><polygon class="ak" points="556.81 328.5 563.19 328.5 560 334.88 556.81 328.5"/><path class="am" d="m562.38,329l-2.38,4.76-2.38-4.76h4.76m1.62-1h0,0Zm0,0h-8l4,8,4-8h0Z"/><path class="y" d="m544,312c.68,0,1.34.04,2,.12"/><path class="ab" d="m550.08,313.19c4.6,1.89,8.13,5.86,9.4,10.75"/><path class="y" d="m559.88,326c.08.65.12,1.32.12,2"/><path class="y" d="m544,312c.68,0,1.34-.04,2-.12"/><path class="ab" d="m550.08,310.81c4.6-1.89,8.13-5.86,9.4-10.75"/><path class="y" d="m559.88,298c.08-.65.12-1.32.12-2"/><polygon class="ak" points="468.81 295.5 472 289.12 475.19 295.5 468.81 295.5"/><path class="am" d="m472,290.24l2.38,4.76h-4.76l2.38-4.76m0-2.24l-4,8h8l-4-8h0Z"/><polygon class="ak" points="468.81 328.5 475.19 328.5 472 334.88 468.81 328.5"/><path class="am" d="m474.38,329l-2.38,4.76-2.38-4.76h4.76m1.62-1h0,0Zm0,0h-8l4,8,4-8h0Z"/><path class="y" d="m456,312c.68,0,1.34.04,2,.12"/><path class="ab" d="m462.08,313.19c4.6,1.89,8.13,5.86,9.4,10.75"/><path class="y" d="m471.88,326c.08.65.12,1.32.12,2"/><path class="y" d="m456,312c.68,0,1.34-.04,2-.12"/><path class="ab" d="m462.08,310.81c4.6-1.89,8.13-5.86,9.4-10.75"/><path class="y" d="m471.88,298c.08-.65.12-1.32.12-2"/><polygon class="ak" points="380.81 295.5 384 289.12 387.19 295.5 380.81 295.5"/><path class="am" d="m384,290.24l2.38,4.76h-4.76l2.38-4.76m0-2.24l-4,8h8l-4-8h0Z"/><polygon class="ak" points="380.81 328.5 387.19 328.5 384 334.88 380.81 328.5"/><path class="am" d="m386.38,329l-2.38,4.76-2.38-4.76h4.76m1.62-1h0,0Zm0,0h-8l4,8,4-8h0Z"/><path class="y" d="m368,312c.68,0,1.34.04,2,.12"/><path class="ab" d="m374.08,313.19c4.6,1.89,8.13,5.86,9.4,10.75"/><path class="y" d="m383.88,326c.08.65.12,1.32.12,2"/><path class="y" d="m368,312c.68,0,1.34-.04,2-.12"/><path class="ab" d="m374.08,310.81c4.6-1.89,8.13-5.86,9.4-10.75"/><path class="y" d="m383.88,298c.08-.65.12-1.32.12-2"/><line class="y" x1="259" y1="312" x2="261" y2="312"/><line class="ae" x1="264.96" y1="312" x2="540.02" y2="312"/><line class="y" x1="542" y1="312" x2="544" y2="312"/><circle class="ak" cx="156" cy="161" r="4"/><path class="av" d="m156,158c.8,0,1.55.31,2.12.88,1.17,1.17,1.17,3.07,0,4.24-.57.57-1.32.88-2.12.88s-1.55-.31-2.12-.88c-1.17-1.17-1.17-3.07,0-4.24.57-.57,1.32-.88,2.12-.88m0-1c-1.02,0-2.05.39-2.83,1.17-1.56,1.56-1.56,4.09,0,5.66.78.78,1.8,1.17,2.83,1.17s2.05-.39,2.83-1.17c1.56-1.56,1.56-4.09,0-5.66-.78-.78-1.8-1.17-2.83-1.17h0Z"/><path class="x" d="m328,72c-.67,0-1.34.02-2,.07"/><path class="z" d="m322.03,72.64c-12.59,2.74-22.03,13.95-22.03,27.36v33c0,15.46-12.54,28-28,28h-107.99"/><line class="x" x1="162" y1="161" x2="160" y2="161"/><circle class="ak" cx="128" cy="240" r="3.5"/><path class="am" d="m128,237c1.65,0,3,1.35,3,3s-1.35,3-3,3-3-1.35-3-3,1.35-3,3-3m0-1c-2.21,0-4,1.79-4,4s1.79,4,4,4,4-1.79,4-4-1.79-4-4-4h0Z"/><path class="y" d="m492,192c0,.67-.03,1.34-.08,2"/><path class="ad" d="m491.27,197.91c-2.63,10.4-12.05,18.09-23.27,18.09H148c-9.69,0-17.77,6.89-19.61,16.04"/><path class="y" d="m128.1,234c-.07.66-.1,1.32-.1,2"/><path class="x" d="m472,180c0,.67-.03,1.34-.08,2"/><path class="ac" d="m471.27,185.91c-2.63,10.4-12.05,18.09-23.27,18.09H128c-9.69,0-17.77,6.89-19.61,16.04"/><path class="x" d="m108.1,222c-.07.66-.1,1.32-.1,2"/><polygon class="ak" points="108 232 112 224 104 224 108 232"/><path class="as" d="m110.38,225l-2.38,4.76-2.38-4.76h4.76m1.62-1h0,0Zm0,0h-8l4,8,4-8h0Z"/><circle class="ak" cx="472" cy="176" r="4"/><path class="ap" d="m472,173c.8,0,1.55.31,2.12.88.57.57.88,1.32.88,2.12s-.31,1.55-.88,2.12c-.57.57-1.32.88-2.12.88s-1.55-.31-2.12-.88c-.57-.57-.88-1.32-.88-2.12s.31-1.55.88-2.12c.57-.57,1.32-.88,2.12-.88m0-1c-1.02,0-2.05.39-2.83,1.17-1.56,1.56-1.56,4.09,0,5.66.78.78,1.8,1.17,2.83,1.17s2.05-.39,2.83-1.17c1.56-1.56,1.56-4.09,0-5.66-.78-.78-1.8-1.17-2.83-1.17h0Z"/><polygon class="ak" points="488.81 191.5 492 185.12 495.19 191.5 488.81 191.5"/><path class="am" d="m492,186.24l2.38,4.76h-4.76l2.38-4.76m0-2.24l-4,8h8l-4-8h0Z"/></svg>