<?xml version="1.0" encoding="utf-8"?>
<!-- Generator: Adobe Illustrator 27.8.1, SVG Export Plug-In . SVG Version: 6.00 Build 0)  -->
<svg version="1.1" id="a" xmlns="http://www.w3.org/2000/svg" xmlns:xlink="http://www.w3.org/1999/xlink" x="0px" y="0px"
	 viewBox="0 0 256 872.01" style="enable-background:new 0 0 256 872.01;" xml:space="preserve">
<style type="text/css">
	.st0{fill:url(#SVGID_1_);}
	.st1{clip-path:url(#SVGID_00000061455707552873294660000012725956365340808086_);}
	.st2{fill:#281D30;stroke:#855FA0;stroke-linecap:round;stroke-linejoin:round;}
	.st3{fill:none;stroke:#855FA0;stroke-linecap:round;stroke-linejoin:round;}
	.st4{fill:#281D30;stroke:#855FA0;stroke-miterlimit:10;}
	.st5{fill:none;stroke:#855FA0;stroke-miterlimit:10;}
	.st6{fill:#423050;stroke:#855FA0;stroke-linecap:round;stroke-linejoin:round;}
	.st7{fill:#423050;stroke:#855FA0;stroke-width:2;stroke-linecap:round;stroke-linejoin:round;}
	.st8{fill:#1B1320;stroke:#855FA0;stroke-linecap:round;stroke-linejoin:round;}
	.st9{fill:#855FA0;}
	.st10{fill-rule:evenodd;clip-rule:evenodd;fill:url(#SVGID_00000121971522051367093330000007248796738887510201_);}
	.st11{fill:#1B1320;}
	.st12{fill:url(#SVGID_00000070831786823858561230000002197136062995423630_);}
	.st13{fill:url(#SVGID_00000122713657887777758850000010479840467356814484_);}
	.st14{fill:url(#SVGID_00000066479152918290848780000001729968398119632051_);}
	.st15{opacity:0.5;}
	.st16{fill:url(#SVGID_00000072278181697216593540000014250580714817772701_);}
	.st17{fill:#E97A0C;}
	.st18{fill:url(#SVGID_00000029003323132523413370000003745958694847819414_);}
	.st19{fill:url(#SVGID_00000009559064274759408680000012663092855202099615_);}
	.st20{fill:url(#SVGID_00000183931362358122783960000011863828033184004740_);}
	.st21{fill:#0D0910;stroke:url(#SVGID_00000068664239776672809400000014349360998513212607_);stroke-miterlimit:10;}
	.st22{fill:url(#SVGID_00000137100762981216890240000001855012885697643151_);}
	.st23{fill:url(#SVGID_00000177459807105637859880000016190205531446129038_);}
	.st24{fill:url(#SVGID_00000138561738340979257460000005521800833932509603_);}
	.st25{fill:#CEBFD9;}
	.st26{fill:#0D0910;}
	.st27{fill:none;stroke:#F6CD51;stroke-linecap:round;stroke-linejoin:round;}
	.st28{fill:none;stroke:#F6CD51;stroke-linecap:round;stroke-linejoin:round;stroke-dasharray:0,0,3.64,3.64;}
	.st29{fill:url(#SVGID_00000088812875239463791930000009555710652786426793_);}
	.st30{fill:url(#SVGID_00000110463846369975625090000016831957895652937880_);}
	.st31{fill:url(#SVGID_00000029028753201685907530000007094397641287408812_);}
	.st32{fill:url(#SVGID_00000114784850139641127440000010180275307086784680_);}
	.st33{fill:none;stroke:#F6CD51;stroke-linecap:round;stroke-linejoin:round;stroke-dasharray:0,0,3.88,3.88;}
	.st34{fill:none;stroke:#855FA0;stroke-linecap:round;stroke-linejoin:round;stroke-dasharray:0,0,3.88,3.88;}
	.st35{fill:none;stroke:#855FA0;stroke-linecap:round;stroke-linejoin:round;stroke-dasharray:0,0,4.13,4.13;}
	.st36{fill:none;stroke:#855FA0;stroke-linecap:round;stroke-linejoin:round;stroke-dasharray:0,0,4,4;}
</style>
<g>
	
		<linearGradient id="SVGID_1_" gradientUnits="userSpaceOnUse" x1="128.5" y1="-33.11" x2="128.5" y2="112.8883" gradientTransform="matrix(1 0 0 1 0 33.11)">
		<stop  offset="0" style="stop-color:#0D0A10"/>
		<stop  offset="1" style="stop-color:#281D30"/>
	</linearGradient>
	<path class="st0" d="M256.5,107.22c0-20.66-16.17-37.53-36.57-38.71v-0.07c0-27.72-22.51-50.19-50.29-50.19
		c-8.39,0-16.29,2.06-23.23,5.68C136.54,9.49,119.92,0,101.07,0c-30.3,0-54.86,24.51-54.86,54.75C20.97,54.76,0.5,75.18,0.5,100.38
		S20.97,146,46.21,146h173.71v-0.07C240.32,144.74,256.49,127.87,256.5,107.22L256.5,107.22z"/>
	<g>
		<defs>
			<path id="SVGID_00000182514931517592201330000010001381382525289094_" d="M256.5,107.22c0-20.66-16.17-37.53-36.57-38.71v-0.07
				c0-27.72-22.51-50.19-50.29-50.19c-8.39,0-16.29,2.06-23.23,5.68C136.54,9.49,119.92,0,101.07,0c-30.3,0-54.86,24.51-54.86,54.75
				C20.97,54.76,0.5,75.18,0.5,100.38S20.97,146,46.21,146h173.71v-0.07C240.32,144.74,256.49,127.87,256.5,107.22L256.5,107.22z"/>
		</defs>
		<clipPath id="SVGID_00000029738599942722798550000001454708614355307447_">
			<use xlink:href="#SVGID_00000182514931517592201330000010001381382525289094_"  style="overflow:visible;"/>
		</clipPath>
		<g style="clip-path:url(#SVGID_00000029738599942722798550000001454708614355307447_);">
			<path class="st2" d="M55.79,91.91c0.31,2.02,2.26,3.36,4.26,2.92l35.18-7.76c2-0.44,3.2-2.47,2.64-4.44l-6.58-22.74
				c-0.52-1.79-2.34-2.87-4.16-2.47l-32.21,7.1c-1.82,0.4-3.02,2.15-2.73,3.99C52.19,68.51,55.79,91.91,55.79,91.91z"/>
			<path class="st3" d="M62.21,66.97l-1.49-6.77c-1.18-5.34,2.2-10.63,7.54-11.8c5.34-1.18,10.63,2.2,11.8,7.54l1.49,6.77"/>
			<path class="st4" d="M202.96,79.35c13.92-5.51,20.74-21.27,15.23-35.19c-5.51-13.92-21.27-20.74-35.19-15.23
				s-20.74,21.27-15.23,35.19C173.28,78.04,189.04,84.86,202.96,79.35z"/>
			<path class="st5" d="M202.96,79.35c7.59-3,9.28-16.73,3.76-30.65c-5.51-13.92-16.13-22.77-23.72-19.77s-9.28,16.73-3.76,30.65
				C184.75,73.5,195.37,82.35,202.96,79.35z"/>
			<path class="st3" d="M202.19,28.67c-2.93,5.67-7.77,10.32-14.19,12.86c-6.42,2.54-13.13,2.47-19.15,0.34"/>
			<path class="st3" d="M183.56,79.04c2.93-5.67,7.77-10.32,14.19-12.86s13.13-2.47,19.15-0.34"/>
			<path class="st3" d="M167.77,64.12l50.42-19.96"/>
			<path class="st3" d="M183,28.93l19.96,50.42"/>
			<path class="st2" d="M32.91,55.72l1.68,5.53c0.15,0.33,0.4,0.68,0.71,0.73l5.61,1.75c0.89,0.25,1.09,1.52,0.29,2l-4.79,3.33
				c-0.35,0.25-0.5,0.54-0.47,0.95l0.08,5.78c0.05,0.94-1.07,1.47-1.81,0.94l-4.69-3.55c-0.27-0.25-0.67-0.32-1.01-0.17l-5.58,1.86
				c-0.87,0.27-1.76-0.6-1.41-1.47l1.93-5.45c0.17-0.38,0.01-0.72-0.14-1.05l-3.47-4.69c-0.61-0.72,0-1.85,0.92-1.8l5.87,0.15
				c0.42-0.03,0.75-0.19,0.9-0.47l3.36-4.7C31.43,54.65,32.63,54.85,32.91,55.72L32.91,55.72z"/>
			<path class="st2" d="M125.96,109.37l3.12,1.78c0.21,0.09,0.47,0.14,0.63,0.03l3.28-1.61c0.51-0.27,1.14,0.22,0.99,0.78
				l-0.74,3.55c-0.05,0.26,0,0.46,0.2,0.63l2.5,2.57c0.42,0.4,0.15,1.12-0.42,1.2l-3.63,0.4c-0.23,0-0.44,0.14-0.53,0.36l-1.72,3.22
				c-0.28,0.49-1.05,0.48-1.26-0.06l-1.45-3.28c-0.09-0.24-0.3-0.33-0.51-0.42l-3.57-0.64c-0.58-0.06-0.79-0.83-0.36-1.21l2.71-2.44
				c0.17-0.19,0.26-0.41,0.21-0.6l-0.49-3.55c-0.07-0.56,0.56-0.99,1.05-0.71L125.96,109.37z"/>
			<path class="st2" d="M155.49,21.75c3.65,1.43,5.58,5.5,4.38,9.23l-4.35,13.25l-13.01-5.02c-3.65-1.43-5.58-5.5-4.38-9.23
				s5.03-5.54,8.68-4.11C148.01,22.14,151.84,20.33,155.49,21.75L155.49,21.75z"/>
			<path class="st3" d="M141.42,34.25c-0.56-0.95-0.66-2.12-0.34-3.12c0.42-1.29,1.4-2.12,2.52-2.41"/>
			<path class="st2" d="M127.02,137.55c0.87-4.21,4.9-7.05,9.16-6.45l15.13,2.23l-3,14.99c-0.87,4.21-4.9,7.05-9.16,6.45
				c-4.26-0.6-6.93-4.4-6.06-8.61c-4.26-0.6-6.93-4.4-6.06-8.61H127.02z"/>
			<path class="st3" d="M143.15,150.43c-0.92,0.79-2.17,1.11-3.31,0.95c-1.47-0.21-2.55-1.11-3.07-2.27"/>
			<path class="st2" d="M222.58,139.25c1.47,4.04-0.53,8.47-4.53,10.04l-14.25,5.52l-5.29-14.34c-1.47-4.04,0.53-8.47,4.53-10.04
				s8.31,0.37,9.77,4.41C216.81,133.27,221.12,135.21,222.58,139.25L222.58,139.25z"/>
			<path class="st3" d="M201.86,136.14c0.38-1.13,1.29-2.02,2.37-2.44c1.38-0.54,2.79-0.3,3.85,0.44"/>
			<path class="st2" d="M73.56,28.14l40.59,16.65l0.01,0.02c2.74,1.12,5.63-0.09,6.66-2.6l12.07-29.42
				c0.32-0.78,0.43-1.57,0.39-2.33C124.24,3.89,113.11,0,101.06,0l0.01,0.04c-8.52,0-16.59,1.94-23.78,5.4l-6.55,15.95
				C69.61,24.12,70.82,27.02,73.56,28.14z"/>
			<path class="st3" d="M93.85,36.46l-3.74,9.12"/>
			<path class="st3" d="M99.23,49.33l-18.24-7.48"/>
			<path class="st6" d="M87.19,13.74c1.26,0.52,2.7-0.09,3.22-1.34c0.52-1.26-0.09-2.7-1.35-3.22c-1.26-0.52-2.7,0.09-3.22,1.34
				C85.32,11.78,85.92,13.22,87.19,13.74z"/>
			<path class="st6" d="M97.59,27.34c1.26,0.52,2.7-0.09,3.22-1.34c0.52-1.26-0.09-2.7-1.35-3.22s-2.7,0.09-3.22,1.34
				C95.72,25.38,96.32,26.82,97.59,27.34z"/>
			<path class="st6" d="M117.83,16.99c1.26,0.52,2.7-0.09,3.22-1.34c0.52-1.26-0.09-2.7-1.35-3.22c-1.26-0.52-2.7,0.09-3.22,1.34
				C115.96,15.03,116.56,16.47,117.83,16.99z"/>
			<path class="st3" d="M88.12,11.46l10.41,13.59"/>
			<path class="st3" d="M118.76,14.71L98.53,25.06"/>
			<path class="st4" d="M256.49,107.22c0-14.26-7.72-26.72-19.21-33.46c-11.39,0.57-21.5,7.43-25.02,18.09
				c-1.58,4.78-1.54,9.69-0.51,14.11l-7.98,11.64l15.15,1.12c3.38,3.56,7.8,6.45,12.84,8.11c6.62,2.18,13.38,2.06,19.33,0.12
				C254.52,121.16,256.49,114.42,256.49,107.22z"/>
			<path class="st7" d="M226.66,98.38c1.03,0.34,2.13-0.2,2.47-1.21c0.33-1.01-0.23-2.1-1.26-2.44c-1.03-0.34-2.13,0.2-2.47,1.21
				C225.07,96.95,225.63,98.04,226.66,98.38z"/>
			<path class="st7" d="M239.72,102.68c1.03,0.34,2.13-0.2,2.47-1.21c0.33-1.01-0.23-2.1-1.26-2.44s-2.13,0.2-2.47,1.21
				C238.13,101.25,238.69,102.34,239.72,102.68z"/>
			<path class="st7" d="M252.78,106.99c1.03,0.34,2.13-0.2,2.47-1.21c0.33-1.01-0.23-2.1-1.26-2.44c-1.03-0.34-2.13,0.2-2.47,1.21
				C251.19,105.56,251.75,106.65,252.78,106.99z"/>
			<path class="st2" d="M100.39,162.6l-40.67-17.71c-2.48-1.08-3.61-3.96-2.53-6.44l11.76-27.03c0.66-1.52,1.98-2.57,3.64-2.9
				l26.39-4.83c1.86-0.33,3.78,0.5,4.88,2.13l14.41,22.68c0.93,1.36,1.02,3.12,0.36,4.64l-11.73,26.95
				c-1.16,2.45-4.04,3.58-6.52,2.5L100.39,162.6z"/>
			<path class="st3" d="M104.07,162.67L93.58,139.5l-12.41-5.4l-24.02,8.14"/>
			<path class="st3" d="M93.59,139.51l25.37-8.61"/>
			<path class="st3" d="M70.27,109.71l10.9,24.4"/>
			<path class="st2" d="M187.26,140.59l10.83-39.34L186.31,98l2.3-4.44l-10.87-5.63l-3.77,7.27l-10.87-5.63l-16.89,32.62l10.87,5.63
				l10.87,5.63l18.26-35.25l-10.73,39.15l11.78,3.25V140.59z"/>
			<path class="st3" d="M164.84,99.6l-2.37,4.57"/>
			<path class="st3" d="M179.44,98.03l-2.33,4.5"/>
			<path class="st3" d="M190.07,107.45l-1.4,4.91"/>
			<path class="st3" d="M173.98,95.2l-16.43,31.71"/>
			<path class="st2" d="M113.3,99.88c0,0-8.28-26.55,3.05-40.54c8.09-9.99,22.56-11.51,32.55-3.42s11.51,22.56,3.42,32.55
				c-11.33,13.99-39.02,11.42-39.02,11.42V99.88z"/>
			<path class="st8" d="M127.86,81.89c4.41,3.58,10.89,2.89,14.47-1.52s2.89-10.89-1.52-14.47c-4.41-3.58-10.89-2.89-14.47,1.52
				C122.76,71.83,123.45,78.31,127.86,81.89z"/>
			<path class="st2" d="M63.49,27.94l-2.07,2.72c-0.11,0.19-0.19,0.43-0.11,0.59l1.1,3.3c0.19,0.51-0.35,1.05-0.86,0.83l-3.26-1.15
				c-0.24-0.08-0.43-0.06-0.62,0.11l-2.75,2.04c-0.43,0.35-1.08,0-1.08-0.54l0.08-3.48c0.03-0.22-0.08-0.43-0.27-0.54l-2.83-2.04
				c-0.43-0.33-0.32-1.05,0.22-1.19l3.28-0.96c0.24-0.05,0.35-0.24,0.46-0.43l1.05-3.29c0.13-0.54,0.89-0.64,1.18-0.18l1.96,2.87
				c0.16,0.19,0.35,0.3,0.54,0.27h3.42c0.54-0.01,0.86,0.64,0.54,1.07H63.49z"/>
			<path class="st2" d="M35.4,89.94c-12.73-5.3-27.32,0.62-32.8,13.23c0.95,15.11,9.64,28.15,22.16,35.22
				c10.21,0.38,20.06-5.51,24.22-15.5C54.33,110.04,48.25,95.29,35.4,89.94z"/>
			<path class="st3" d="M32.1,126.25c-3.77,2.07-8.18,2.6-12.21,0.92c-4.03-1.68-6.82-5.03-7.95-9.32
				c-2.46-0.42-4.34-0.35-5.77,0.03c3.82,8.69,10.4,15.9,18.62,20.53c3.89,0.15,7.71-0.62,11.17-2.18c0.35-0.4,0.54-0.87,0.67-1.18
				C37.47,133.03,36.95,129.91,32.1,126.25z"/>
			<path class="st3" d="M19.89,105.32c-2.52,6.05-1.11,12.28,3.23,14.09c4.34,1.81,9.76-1.58,12.28-7.63
				c1.81-4.34-0.18-9.18-4.53-10.98c-4.34-1.81-9.18,0.18-10.99,4.53L19.89,105.32z"/>
		</g>
	</g>
	<path class="st9" d="M101.07,2.01c17.48,0,33.81,8.62,43.69,23.06l1,1.46l1.57-0.82c6.96-3.62,14.46-5.45,22.31-5.45
		c26.62,0,48.29,21.62,48.29,48.19v1.96l1.88,0.11c19.45,1.13,34.69,17.26,34.69,36.72s-15.24,35.59-34.69,36.72l-1.12,0.07H46.21
		c-24.1,0-43.71-19.57-43.71-43.62s19.61-43.62,43.71-43.62h2v-2c0-29.09,23.71-52.75,52.86-52.75 M101.07,0.04
		c-30.3,0-54.86,24.51-54.86,54.75C20.97,54.76,0.5,75.18,0.5,100.38S20.97,146,46.21,146h173.71v-0.07
		c20.4-1.19,36.57-18.06,36.57-38.71s-16.17-37.53-36.57-38.71v-0.07c0-27.72-22.51-50.19-50.29-50.19
		c-8.39,0-16.29,2.06-23.23,5.68C136.53,9.49,119.91,0,101.06,0l0,0L101.07,0.04z"/>
	
		<linearGradient id="SVGID_00000141418685782888263980000014645430168485924496_" gradientUnits="userSpaceOnUse" x1="128.51" y1="70.8789" x2="128.51" y2="142.888" gradientTransform="matrix(1 0 0 1 0 33.11)">
		<stop  offset="0" style="stop-color:#F6CD51"/>
		<stop  offset="1" style="stop-color:#F48E2A"/>
	</linearGradient>
	<path style="fill-rule:evenodd;clip-rule:evenodd;fill:url(#SVGID_00000141418685782888263980000014645430168485924496_);" d="
		M164.5,136.58v6.52c0,1.96-1.31,3.26-3.27,3.58h-1.64c-1.64,0-2.95,0.98-3.27,2.28c-0.65,1.63-1.31,3.26-1.96,4.56
		c-0.65,1.3-0.33,2.93,0.65,3.91l0.98,0.98c1.31,1.3,1.31,3.26,0,4.56l-4.58,4.56c-1.31,1.3-3.27,1.3-4.58,0l-0.98-0.98
		c-0.98-1.3-2.62-1.3-3.93-0.65c-1.31,0.65-2.95,1.3-4.58,1.95c-1.31,0.65-2.29,1.63-2.29,3.26v1.63c0,1.96-1.31,3.26-3.27,3.26
		h-6.55c-1.96,0-3.27-1.3-3.27-3.26v-1.63c0-1.63-0.98-2.93-2.29-3.26c-1.64-0.65-3.27-1.3-4.58-1.95
		c-1.31-0.65-2.95-0.65-3.93,0.33l-0.98,0.98c-1.31,1.3-3.27,1.3-4.58,0l-4.58-4.56c-1.31-1.3-1.31-3.26,0-4.56l0.98-0.98
		c1.31-0.98,1.31-2.61,0.65-3.91c-0.65-1.3-1.31-2.93-1.96-4.56c-0.65-1.3-1.64-2.28-3.27-2.28h-1.64c-1.96,0-3.27-1.3-3.27-3.26
		v-6.52c0-1.95,1.31-3.26,3.27-3.26h1.64c1.31,0,2.62-0.98,2.95-2.28c0.65-1.63,1.31-3.26,1.96-4.56s0.65-2.93-0.65-4.24l-0.98-0.98
		c-1.31-1.3-1.31-3.26,0-4.56l4.58-4.56c1.31-1.3,3.27-1.3,4.58,0l1.31,1.3c0.98,0.98,2.62,0.98,3.93,0.33s2.95-1.3,4.58-1.63
		c1.31-0.65,2.29-1.63,2.29-3.26v-1.63c0-1.96,1.31-3.26,3.27-3.26h6.55c1.96,0,3.27,1.3,3.27,3.26v1.3c0,1.63,0.98,2.93,2.29,3.26
		c1.64,0.65,3.27,1.3,4.58,1.96c1.31,0.65,2.95,0.65,3.93-0.33l0.98-0.98c1.31-1.3,3.27-1.3,4.58,0l4.58,4.56
		c1.31,1.3,1.31,3.26,0,4.56l-0.98,0.98c-1.31,0.98-1.31,2.61-0.65,3.91c0.65,1.3,1.31,2.93,1.96,4.56c0.65,1.3,1.64,2.28,3.27,2.28
		h1.64C163.2,133.31,164.51,134.61,164.5,136.58L164.5,136.58z"/>
	<circle class="st11" cx="128.5" cy="140.01" r="22"/>
	
		<linearGradient id="SVGID_00000052810230059283653830000008996267540193928609_" gradientUnits="userSpaceOnUse" x1="119.665" y1="727.6415" x2="119.665" y2="714.1417" gradientTransform="matrix(1 0 0 -1 0 860.9)">
		<stop  offset="0" style="stop-color:#F6CD51"/>
		<stop  offset="1" style="stop-color:#F48E2A"/>
	</linearGradient>
	<path style="fill:url(#SVGID_00000052810230059283653830000008996267540193928609_);" d="M117.87,133.26l-4.56,13.5h2.99l0.98-3.08
		h4.77l0.98,3.08h2.99l-4.55-13.5H117.87z M117.99,141.45l1.63-5.11h0.1l1.62,5.11H117.99z"/>
	
		<linearGradient id="SVGID_00000086677270765715942390000013689921083634222466_" gradientUnits="userSpaceOnUse" x1="132.22" y1="727.6516" x2="132.22" y2="714.1517" gradientTransform="matrix(1 0 0 -1 0 860.9)">
		<stop  offset="0" style="stop-color:#F6CD51"/>
		<stop  offset="1" style="stop-color:#F48E2A"/>
	</linearGradient>
	<path style="fill:url(#SVGID_00000086677270765715942390000013689921083634222466_);" d="M135.02,133.84
		c-0.71-0.39-1.56-0.59-2.56-0.59h-5.21v13.5h2.79v-4.38h2.35c1.01,0,1.88-0.19,2.59-0.57c0.72-0.38,1.27-0.92,1.64-1.6
		c0.38-0.69,0.57-1.48,0.57-2.37c0-0.89-0.19-1.69-0.56-2.37C136.26,134.77,135.72,134.23,135.02,133.84L135.02,133.84z
		 M134.05,139.01c-0.17,0.34-0.43,0.6-0.79,0.8c-0.35,0.19-0.79,0.28-1.33,0.28h-1.9v-4.5h1.88c0.54,0,0.99,0.09,1.34,0.28
		c0.35,0.18,0.62,0.45,0.79,0.78c0.18,0.33,0.26,0.73,0.26,1.17c0,0.44-0.09,0.84-0.26,1.18L134.05,139.01z"/>
	
		<linearGradient id="SVGID_00000134933912268891624820000016504674746761688198_" gradientUnits="userSpaceOnUse" x1="140.045" y1="727.6415" x2="140.045" y2="714.1417" gradientTransform="matrix(1 0 0 -1 0 860.9)">
		<stop  offset="0" style="stop-color:#F6CD51"/>
		<stop  offset="1" style="stop-color:#F48E2A"/>
	</linearGradient>
	
		<rect x="138.65" y="133.26" style="fill:url(#SVGID_00000134933912268891624820000016504674746761688198_);" width="2.79" height="13.5"/>
	<g class="st15">
		
			<radialGradient id="SVGID_00000040548686160948438940000012925840972032113289_" cx="128.5" cy="626.49" r="111.25" gradientTransform="matrix(1 0 0 -0.05 0 444.0074)" gradientUnits="userSpaceOnUse">
			<stop  offset="0" style="stop-color:#000000"/>
			<stop  offset="1" style="stop-color:#000000;stop-opacity:0"/>
		</radialGradient>
		
			<ellipse style="fill:url(#SVGID_00000040548686160948438940000012925840972032113289_);" cx="128.5" cy="411.01" rx="112" ry="5"/>
	</g>
	<path class="st17" d="M192.5,408.84h-128v3.04c0,2.28,28.65,4.12,64,4.12s64-1.85,64-4.12V408.84z"/>
	
		<linearGradient id="SVGID_00000003105532458911864180000016106337781655746206_" gradientUnits="userSpaceOnUse" x1="128.49" y1="348.8956" x2="128.49" y2="379.8953" gradientTransform="matrix(1 0 0 1 0 33.11)">
		<stop  offset="0" style="stop-color:#9B5108"/>
		<stop  offset="0.4" style="stop-color:#E97A0C"/>
		<stop  offset="0.8" style="stop-color:#F6CD51"/>
	</linearGradient>
	<path style="fill:url(#SVGID_00000003105532458911864180000016106337781655746206_);" d="M147.33,390.01l-2.83-8h-32l-2.83,8
		c-3.75,10.27-15.19,15.06-28.79,16.05c-10.19,0.74-16.39,1.71-16.39,2.78c0,2.3,28.65,4.17,64,4.17s64-1.86,64-4.17
		c0-1.07-6.2-2.04-16.39-2.78c-13.59-0.99-25.03-5.78-28.79-16.05H147.33z"/>
	
		<linearGradient id="SVGID_00000158000503643939528880000003624760196521742257_" gradientUnits="userSpaceOnUse" x1="128.5" y1="205.7473" x2="128.5" y2="352.0356" gradientTransform="matrix(1 0 0 1 0 33.11)">
		<stop  offset="0" style="stop-color:#0D0A10"/>
		<stop  offset="1" style="stop-color:#281D30"/>
	</linearGradient>
	<path style="fill:url(#SVGID_00000158000503643939528880000003624760196521742257_);" d="M8.57,240.01h239.86
		c4.46,0,8.07,3.58,8.07,8v128c0,4.42-3.61,8-8.07,8H8.57c-4.46,0-8.07-3.58-8.07-8v-128C0.5,243.59,4.11,240.01,8.57,240.01z"/>
	
		<linearGradient id="SVGID_00000068657039535067572450000012022233429948782507_" gradientUnits="userSpaceOnUse" x1="128.5" y1="620.8928" x2="128.5" y2="476.8944" gradientTransform="matrix(1 0 0 -1 0 860.9)">
		<stop  offset="0" style="stop-color:#F6CD51"/>
		<stop  offset="1" style="stop-color:#F48E2A"/>
	</linearGradient>
	<path style="fill:url(#SVGID_00000068657039535067572450000012022233429948782507_);" d="M248.43,242.01c3.35,0,6.07,2.69,6.07,6
		v128c0,3.31-2.72,6-6.07,6H8.57c-3.35,0-6.07-2.69-6.07-6v-128c0-3.31,2.72-6,6.07-6H248.43 M248.43,240.01H8.57
		c-4.46,0-8.07,3.58-8.07,8v128c0,4.42,3.61,8,8.07,8h239.86c4.46,0,8.07-3.58,8.07-8v-128
		C256.5,243.59,252.89,240.01,248.43,240.01L248.43,240.01z"/>
	
		<linearGradient id="SVGID_00000041296860338501504730000008381637116337377437_" gradientUnits="userSpaceOnUse" x1="128.5" y1="589.3931" x2="128.5" y2="508.394" gradientTransform="matrix(1 0 0 -1 0 860.9)">
		<stop  offset="0" style="stop-color:#F6CD51"/>
		<stop  offset="1" style="stop-color:#F48E2A"/>
	</linearGradient>
	<path style="fill:#0D0910;stroke:url(#SVGID_00000041296860338501504730000008381637116337377437_);stroke-miterlimit:10;" d="
		M104.5,272.01h48c8.84,0,16,7.16,16,16v48c0,8.84-7.16,16-16,16h-48c-8.84,0-16-7.16-16-16v-48
		C88.5,279.17,95.66,272.01,104.5,272.01z"/>
	
		<linearGradient id="SVGID_00000150068360941886681040000004918445320437841043_" gradientUnits="userSpaceOnUse" x1="128.5399" y1="254.8466" x2="128.5399" y2="302.846" gradientTransform="matrix(1 0 0 1 0 33.11)">
		<stop  offset="0" style="stop-color:#F6CD51"/>
		<stop  offset="1" style="stop-color:#F48E2A"/>
	</linearGradient>
	<path style="fill:url(#SVGID_00000150068360941886681040000004918445320437841043_);" d="M115.91,309.02
		c-0.05,0-0.07,0.01-0.09,0.04c0,0.08-0.04,0.16,0.06,0.23v0.07c-0.06,0.09-0.01,0.18-0.01,0.26c0.08,0.23-0.01,0.46,0.07,0.69
		c0,0.01,0.02,0.02,0.04,0.03l0,0c-0.04,0.09,0.06,0.15,0.07,0.23v0.13c0.08,0.04-0.01,0.09,0,0.14c-0.15,0.14-0.04,0.27,0,0.4v0.04
		v0.04c0.05,0.05,0.01,0.14,0.16,0.15c0.03,0,0.05,0,0.08-0.01c0.04-0.03,0.07-0.07,0.04-0.1c0.03,0,0.06-0.02,0.07-0.04
		c-0.02,0.15-0.04,0.31-0.12,0.46c0,0.01,0.02,0.04,0.04,0.06c-0.19,0.15-0.12,0.31-0.04,0.47c0.18,0.09,0.2,0,0.24-0.07
		c0.02,0.02,0.04,0.04,0.07,0.06c-0.05,0-0.1,0-0.11,0.04v0.01c-0.05,0.04-0.13,0.07-0.08,0.12l0.09,0.04c0,0,0.04,0,0.04-0.01
		c0,0.03-0.03,0.07-0.04,0.09v0.02c0,0,0,0.11,0.1,0.08c0.09-0.02,0.2-0.08,0.16-0.15c-0.04-0.08-0.04-0.15-0.03-0.23
		c0.04-0.04,0.05-0.09,0-0.13c-0.04-0.07,0.02-0.18-0.15-0.22l0,0c0.02-0.07,0.21,0,0.22-0.09h0.04c0.04-0.19,0.24-0.27,0.5-0.31
		c0.1-0.07-0.07-0.11-0.06-0.17c0.08-0.04,0.07-0.09,0.07-0.13c-0.04,0.01-0.08,0.05-0.12,0.05c-0.07,0-0.04-0.04-0.04-0.07
		c0,0,0.02,0,0.03,0c0.08,0,0.1-0.04,0.09-0.08c-0.01-0.04-0.02-0.08,0.04-0.1c0.07-0.04,0.17-0.08,0-0.11
		c-0.13-0.01-0.04-0.12-0.15-0.15c-0.01,0-0.01,0-0.03,0.01l0,0c-0.06-0.05-0.07-0.11-0.06-0.17c-0.06-0.07,0.18-0.09,0.11-0.16
		c0.01-0.01,0.02-0.03,0.03-0.05c0-0.01,0-0.03-0.01-0.05c-0.14-0.09-0.3-0.18-0.31-0.31c-0.07-0.03-0.01-0.12-0.15-0.13
		c0,0,0,0-0.01,0c0.06-0.18,0.03-0.34-0.07-0.51l0.03-0.2l0.04-0.02c0,0,0-0.05-0.03-0.06c0-0.02-0.02-0.04-0.04-0.03
		c-0.08,0.04-0.07-0.11-0.02-0.12c0.01,0,0.03,0,0.04,0l0,0c0,0,0.01-0.02,0.02-0.03c0.03-0.02,0.05-0.04,0.07-0.07
		c0-0.01,0.01-0.04,0.01-0.05c-0.01-0.04-0.01-0.08-0.04-0.12c0.03-0.03,0.03-0.07,0.03-0.1c0.05-0.01,0.09-0.01,0.05,0.07
		c-0.01,0.04,0,0.08,0,0.12c0.37,0.05,0.47,0.18,0.3,0.37c0.04,0,0.09,0.01,0.12,0.03v0.04l-0.05,0.03v0.14c0,0,0.04,0,0.05,0
		c0,0.02,0,0.04,0,0.07l0.05,0.23c-0.08,0-0.15,0-0.16,0.07c0.07,0.09,0.09,0.09,0.1,0.07c0.1-0.1,0.11-0.02,0.13,0.02
		c0.01,0.02,0.04,0.05,0.05,0.07v0.13c0,0-0.03,0-0.04,0c-0.05,0-0.12-0.13-0.15,0v0.06c-0.13,0.01-0.1-0.07-0.17-0.09l-0.07,0.07
		c0.01,0.07,0.08,0.11,0.18,0.13h0.1l0.06-0.03c0.08-0.02,0.18-0.08,0.13,0.04c-0.01,0.04,0,0.08,0,0.12
		c0.37,0.06,0.46,0.19,0.3,0.39c0.1,0.01,0.19,0.04,0.14,0.12h-0.04c0,0.07,0.02,0.15-0.03,0.19c-0.3,0.2-0.24,0.42-0.18,0.65
		c0.01,0,0.04,0,0.05,0h-0.04c-0.09,0.05-0.08,0.11-0.06,0.17v0.14h-0.05v0.17l0,0c-0.1,0.04-0.2,0.09-0.12,0.18h0.06
		c-0.03,0.1,0.09,0.07,0.17,0.07c0.04-0.04,0.07-0.09,0.04-0.14v-0.02c0.16,0.14,0.2,0,0.29-0.05c0,0,0.01-0.01,0-0.03
		c0.24-0.09,0.14-0.23,0.15-0.35l0.11-0.07c0,0,0-0.07,0-0.09c0.01,0.01,0.03,0.04,0.06,0.03l0.04,0.02c0,0,0,0.01-0.01,0.02
		c0,0.02,0,0.04,0.03,0.07c0.12,0.11,0.22,0.02,0.33,0v-0.27c0,0,0.02-0.03,0.01-0.04c0.08-0.07,0.04-0.18,0.15-0.24l-0.09-0.04
		v-0.13l-0.01-0.14l0.05-0.04c0.05-0.05,0.11-0.09,0.17,0c-0.04-0.15,0.13-0.3,0.05-0.45c0-0.07,0.09-0.13,0-0.2
		c-0.04-0.02-0.08-0.05,0-0.08c0.19-0.07,0.09-0.17,0.05-0.26c0.04-0.09,0.07-0.19,0.04-0.28c0,0,0-0.02,0-0.03h0.04v-0.38
		c0,0,0-0.02,0.01-0.04c0-0.04,0.01-0.08-0.02-0.11l0,0c0.05-0.07,0.04-0.16,0.15-0.21c0.01-0.01,0.01-0.03,0-0.04
		c0,0-0.01-0.02-0.01-0.04c-0.01,0-0.03-0.01-0.04-0.02l-0.02-0.29c0,0,0.01-0.02,0.01-0.03l0.04-0.08c0-0.07,0-0.12,0-0.19
		c0-0.06,0.04-0.12-0.09-0.13v-0.02c0,0,0.02,0.01,0.04,0.01c0.15-0.03,0.13-0.1,0.14-0.18s-0.04-0.14,0.01-0.21v-0.1
		c-0.08,0-0.15-0.04-0.22-0.02v-0.07c0.07,0,0.14,0.01,0.21-0.02v-0.04c0,0,0-0.01,0-0.03c0.09-0.06,0.03-0.12,0.04-0.19
		c-0.05-0.01-0.11-0.01-0.15-0.04c0.04-0.01,0.06-0.03,0.07-0.06l0.05-0.04c0.07-0.06,0.02-0.1-0.05-0.14v-0.07
		c0.02-0.06,0.04-0.12,0-0.18c-0.03-0.04-0.03-0.04-0.01,0l0.03-0.08v-0.2c0,0,0.04,0,0.05-0.01c-0.1-0.21-0.07-0.45-0.11-0.66
		c0.04-0.04,0.01-0.07-0.06-0.07v-0.06l0.02-0.07c0.05-0.04,0.04-0.07,0.03-0.11c0,0,0.01,0,0.02-0.01c0-0.03,0-0.07-0.03-0.09
		l-0.04-0.06c0,0-0.01,0-0.03,0h0.02c0-0.09,0.18-0.21-0.04-0.29c0,0,0,0.02,0,0.03l0,0c0,0,0.01-0.02,0.01-0.03l0.04-0.12
		l0.04-0.58l-0.09-0.39c0.04-0.26,0.02-0.5-0.04-0.74c0.16-0.24-0.01-0.45-0.03-0.67c0.01,0,0.03-0.01,0.04-0.01
		c0.09-0.12,0.07-0.23,0.06-0.35c0-0.22-0.16-0.39-0.18-0.6c0.12-0.19,0.03-0.36,0.03-0.54s-0.19-0.34-0.11-0.54
		c-0.01-0.05,0-0.12-0.07-0.15c0,0,0,0,0-0.01c0.04-0.08-0.02-0.14-0.04-0.2c0.02-0.01,0.04-0.03,0.05-0.05
		c0.13-0.09-0.13-0.2,0.12-0.28c0,0,0-0.06-0.02-0.06c-0.15,0-0.1-0.08-0.1-0.14s0-0.12-0.11-0.14c-0.06-0.03-0.08-0.07,0-0.11
		c0.07-0.01,0.09-0.05,0.07-0.09c-0.08-0.13-0.07-0.28-0.11-0.42c0.03-0.04,0.02-0.07,0-0.09c0-0.17-0.11-0.32-0.07-0.5
		c0-0.01-0.02-0.02-0.05-0.01l0,0c-0.03-0.06-0.04-0.12,0.04-0.19c0.05-0.04,0.04-0.08-0.04-0.09l-0.02,0.05l-0.07-0.04
		c-0.02-0.07,0.01-0.12,0.07-0.18c0.03-0.07-0.06-0.09-0.09-0.13l-0.02-0.02c0.03-0.1,0.03-0.2,0.02-0.31l-0.04-0.09
		c-0.03-0.09,0.08-0.2-0.08-0.26c0-0.07,0-0.13-0.01-0.2c-0.02-0.09,0.04-0.21-0.1-0.27c-0.01,0-0.03,0-0.04,0
		c-0.01-0.04-0.05-0.07,0-0.12c0.12-0.08,0.13-0.15,0.01-0.22c-0.04-0.14-0.1-0.27-0.13-0.41c-0.07-0.29-0.13-0.64-0.27-0.86
		c-0.01,0-0.02,0-0.03,0c0.01,0,0.02,0,0.04,0c0-0.03,0.07-0.05-0.02-0.07c0.16-0.02,0-0.04,0.07-0.06c0.02,0,0.1,0-0.03-0.03
		c-0.01-0.03,0.16,0-0.03-0.07c-0.04,0-0.04,0-0.06,0h0.04c0.1,0.04,0.12,0.05,0.1,0.04l-0.03-0.02c0.07,0,0.06,0,0.05-0.03
		c0.17,0.09,0.01-0.01,0.1,0.03L118,294.6c-0.1-0.08,0.05,0.03,0.05,0.03c0.01,0,0,0,0,0s0.05,0.03,0.05,0.02
		c-0.04-0.05,0.06,0.04,0.02,0s-0.04-0.07,0-0.02c0.05,0.07-0.08-0.13,0.03,0.03c0-0.03,0,0,0.03,0c0.06-0.01,0.12-0.04,0.13-0.12
		h-0.01h0.01c0.04,0.01,0.1,0,0.1,0.02v0.02c0,0,0.01,0,0-0.03c0,0,0.02,0.02,0.01-0.02c0.03,0.16,0-0.06,0.01,0v-0.02l0,0l0,0l0,0
		v0.06l0,0c0,0-0.02,0.12,0,0v-0.05c0.04-0.08,0,0.07,0.03,0c-0.04,0.1,0,0.03,0.01,0.01c-0.02,0.03-0.02,0.03,0,0
		c-0.07,0.1-0.02,0.04,0.01,0c0.02,0,0.03-0.01,0.04-0.02c0,0.01-0.01,0.02-0.02,0.03c0,0,0.02-0.01,0.05,0
		c-0.01,0.06-0.13,0.18,0.04,0.1l0.04-0.04c0,0-0.03,0.01-0.04,0.04c0.04,0.21,0.21,0.27,0.38,0.33c0.02,0.01,0.04,0.02,0.07,0.02
		l0.13,0.12c0.08,0,0.09,0.09,0.16,0.1h0.03c0,0,0,0-0.01,0.01c0,0-0.01,0.02-0.01,0.04c0.02,0.09,0.07,0.15,0.19,0.12
		c0.04,0.06,0,0.2,0.13,0.18l0.06,0.03c0,0.13,0.15,0.09,0.21,0.15l0.02,0.08l0.02,0.02c0.27,0.2,0.61,0.31,0.83,0.57
		c0.01,0,0.03-0.02,0.04-0.04c0.06,0.03,0.12,0.07,0.18,0.09c0.32,0.15,0.66,0.26,1.09,0.21c0.1,0.03,0.21-0.04,0.32-0.04
		c0.06,0.06,0.18-0.04,0.24-0.01l0.26-0.15l0,0c0,0,0.01,0.04,0.04,0.04H123c0.14-0.12,0.31-0.18,0.44-0.34
		c0.13,0,0.24-0.14,0.35-0.22l0.25-0.28c0.35-0.34,0.55-0.72,0.72-1.12l0.07-0.09l0.02-0.04v-0.14v-0.07v-0.15
		c0.01-0.06,0.04-0.13,0-0.16v-0.2c0-0.15-0.1-0.24-0.02-0.43c-0.07,0.04-0.07-0.03-0.11-0.04c-0.1-0.07-0.11-0.23-0.2-0.32
		c-0.19-0.18-0.35-0.39-0.52-0.59c-0.02-0.07-0.11-0.04-0.16-0.09c-0.16-0.18-0.36-0.33-0.63-0.4l-0.23-0.18l-0.04,0.02l0,0
		l-0.01-0.01c0,0,0-0.01,0-0.03c-0.06-0.04-0.09-0.12-0.18-0.12l-0.05-0.04c0-0.14-0.16-0.11-0.22-0.18
		c-0.09-0.12-0.2-0.22-0.32-0.31l-0.09-0.07c0,0-0.06-0.04-0.12-0.1l-0.33-0.28c-0.06-0.03-0.11-0.07-0.15-0.13l-0.54-0.47l-0.3-0.3
		l-0.03,0.02v0.04v-0.04l-0.41-0.39c0,0-0.01,0-0.02-0.01c0.01,0,0.02-0.02,0.04-0.04c-0.22-0.32-0.5-0.47-0.74-0.74h-0.02
		c-0.08,0.03-0.16,0.08-0.24,0.13l-0.9,0.37l-0.76,0.46h-0.02l-0.02,0.03l-0.23,0.12c-0.26,0.07-0.49,0.23-0.74,0.37l-0.48,0.32
		l-0.14,0.06l-0.08,0.04c-0.05,0.03-0.1,0.06-0.15,0.09l-0.47,0.3c-0.27,0.16-0.54,0.34-0.8,0.51c-0.44,0.28-0.85,0.58-1.28,0.88
		c-0.2,0.15-0.49,0.27-0.58,0.45h-0.02c-0.07,0.01-0.11,0.03-0.15,0.04c0,0.09,0.11,0.25,0.13,0.36v0.17l0.2,0.59
		c-0.04,0.12,0,0.26,0.11,0.4l0,0l0.03,0.11c0,0.39,0.22,0.77,0.32,1.15c0.05,0.12,0.07,0.24,0.11,0.37
		c0.01,0.06,0.04,0.13,0.06,0.17c0.02,0.03,0.04,0.06,0.08,0.08c0.01,0.03,0.05,0.06,0.04,0.09c-0.07,0.26,0.06,0.48,0.14,0.71
		c0.14,0.39,0.21,0.79,0.29,1.19l0.07,0.39l0.06,0.2l0.04,0.16c0.04,0.28,0.02,0.57,0.3,0.79c-0.04,0.04-0.04,0.08,0.02,0.1
		l0.06,0.26c0.02,0.07-0.08,0.15,0.03,0.2v0.07v0.01l0,0c0,0-0.01,0.05,0,0.07c0,0.06,0,0.11,0.04,0.15v0.05
		c-0.01,0.13-0.03,0.26,0.07,0.37c0.03,0.05,0.09,0.09,0.08,0.15c-0.01,0-0.03,0-0.04,0.01c-0.02,0.18,0,0.36,0.08,0.53
		c0.06,0.18-0.01,0.39,0.07,0.57c0,0,0,0.02,0,0.03c-0.04,0.2,0.1,0.39,0.1,0.58c0.01,0.26,0.1,0.51,0.16,0.77h0.04
		c0.12,0.36,0.1,0.74,0.15,1.12h0.01c0,0.13,0.01,0.25,0.07,0.36v0.12c0.02,0.15-0.01,0.31,0.04,0.46c0,0,0,0.02,0,0.03v0.04
		c0,0-0.05,0.02-0.07,0.04c0,0.08-0.03,0.16,0.07,0.22v0.07c-0.04,0.09,0,0.18,0,0.26c0.09,0.22,0.01,0.46,0.11,0.68
		c0,0.01,0.02,0.02,0.04,0.02l0,0c-0.04,0.09,0.07,0.15,0.08,0.23v0.13c0.09,0.04,0,0.09,0.01,0.14c-0.15,0.15-0.02,0.27,0.02,0.4
		v0.04v0.04c0.04,0.03,0.04,0.08,0.07,0.11v0.07l0.04,0.04c0,0,0.04,0,0.06,0h-0.06l0.03,0.44c0.01,0.07,0.09,0.12,0.07,0.2
		c-0.16,0.11,0.04,0.23-0.04,0.34v0.04L115.91,309.02z M127.18,307.05c0,0-0.06,0.01-0.09,0.03v-0.01
		C127.11,307.07,127.14,307.06,127.18,307.05L127.18,307.05z M104.8,316.56c0.3-0.02,0.46,0.13,0.7,0.19l0.54,0.23h0.16l0,0
		c0,0-0.02,0-0.03,0c0.13,0.05,0.26,0.1,0.39,0.15l0.28,0.09l0.41,0.12c0.29,0.09,0.59,0.12,0.86,0.25c0.07,0.04,0.15,0,0.22,0.04
		c0.03,0.01,0.06,0,0.06-0.05l0,0l0.08,0.05c0.12,0.05,0.26,0.05,0.35,0.15c0.23-0.01,0.42,0.11,0.63,0.15
		c0.07,0.01,0.13,0.04,0.19,0.06c0.1,0.12,0.22,0.18,0.39,0.19c0.2,0,0.38,0.16,0.56,0.25c0.51,0.18,1.05,0.28,1.54,0.5l0.32,0.11
		l0.29,0.15c0.13-0.02,0.21,0.07,0.32,0.12l0.56,0.2l0.36,0.18c0.07-0.04,0.12,0,0.15,0.06l0.49,0.15c0,0,0.08,0.04,0.13,0h0.05
		v0.01c0.03,0.14,0.15,0.15,0.23,0.2c0.06,0.04,0.13,0.07,0.19,0.1h0.02c0.31,0.15,0.61,0.31,0.92,0.42
		c0.51,0.18,0.97,0.43,1.44,0.66c0.05,0.03,0.1,0.07,0.15,0.1c0.44,0.15,0.85,0.37,1.26,0.59c0.06,0.04,0.13,0.06,0.2,0.08
		c0.08,0.07,0.17,0.11,0.27,0.13c0.11,0.1,0.23,0.18,0.37,0.24l0.05,0.02v0.06l0.19,0.09c0.1,0.02,0.17,0.11,0.29,0.09
		c0,0,0,0.01,0,0.02c0.05,0.02,0.1,0.03,0.13,0.08c0.1,0,0.13,0.15,0.26,0.04c0,0-0.01,0-0.02-0.01v-0.12
		c0.03-0.05,0.06,0.09,0.12-0.03c0.07-0.01,0.08,0.12,0.18,0.02l0.15,0.07c0.04-0.18-0.16-0.11-0.17-0.24c0-0.01,0-0.03-0.02-0.04
		H121c0,0,0,0,0-0.01c-0.01-0.02-0.04-0.03-0.06-0.04l0,0c0,0,0,0,0-0.01s0-0.02,0-0.02c-0.01-0.06-0.06-0.08-0.1-0.11l0,0v-0.07
		l0.05-0.09c0.01-0.09,0.03-0.19,0-0.27c-0.04-0.02-0.04-0.06,0-0.12c-0.02-0.15-0.13-0.18-0.24-0.22h-0.1c0,0,0.01-0.04,0.01-0.05
		c-0.05-0.08-0.06-0.23-0.2-0.2l-0.1-0.05c0-0.09-0.01-0.11-0.1-0.04c-0.09,0.09-0.17,0.09-0.22,0c0.04,0,0.07,0,0.1-0.06l0.1-0.2
		c-0.08-0.04-0.1,0.07-0.14,0.12l0,0c0,0-0.02,0-0.03,0l-0.08-0.05v-0.09c0.13,0.02,0.04-0.18,0.14-0.19l0.06,0.02l0.07,0.09
		c0.06-0.01,0.1,0.08,0.17-0.03c0.05-0.03,0.09-0.02,0.1,0.04c-0.01,0.17,0.11,0.17,0.2,0.18c0.07,0.01,0.14,0.04,0.21,0.07
		c0.04,0,0.07,0.04,0.12,0c0,0,0.02,0,0.03,0.01l0.13,0.13l0.14,0.03c0,0,0.04,0.04,0.08,0l0,0c0.04,0.07,0.11,0.09,0.2,0.09
		l0.07,0.04c0,0-0.01,0.03-0.01,0.04c0.16,0.11,0.34,0.19,0.55,0.23c0.07,0.01,0.14,0,0.21-0.05c0.07,0,0.08,0.09,0.11,0.15h0.02
		v0.03c0,0.01,0.02,0.01,0.04,0c0.1-0.12,0.24-0.15,0.35-0.17c0.09-0.02,0.1-0.08,0.14-0.15v-0.06c0-0.05-0.04-0.07-0.07-0.07
		c0,0-0.01,0-0.02,0.01c0-0.1,0.03-0.2,0.14-0.25l0.07-0.11c0.13,0.07,0.27,0.02,0.41-0.04l0,0c0,0,0.05,0.06,0.09,0.07
		c0.1-0.03,0.23,0.09,0.31-0.14c-0.02-0.07-0.14,0.05-0.13-0.07c0.04-0.06,0-0.1,0.01-0.15c-0.02-0.03-0.03-0.09-0.07-0.09
		c0,0,0-0.02-0.01-0.03c-0.02-0.04-0.05-0.07-0.09-0.09c-0.08-0.02-0.17-0.04-0.27,0l0,0v-0.04c0.1-0.05,0.07-0.12,0.05-0.18
		c0,0-0.01-0.01-0.02-0.03l-0.06,0.02c0,0-0.05,0.03-0.08,0.02l-0.1-0.1c0.05-0.16-0.11-0.11-0.14-0.19c0-0.05-0.02-0.06-0.05-0.07
		c-0.09,0.01-0.16,0-0.18-0.1c-0.01-0.05-0.04-0.09-0.1-0.04c-0.12-0.06-0.25-0.09-0.32-0.21c0-0.03-0.02-0.04-0.05-0.04
		c0,0-0.01,0.01-0.02,0.02l0,0c0,0,0-0.03-0.02-0.03l-0.04-0.07c0,0-0.01,0.01-0.02,0.03l-0.09-0.06h-0.04l-0.01,0.04
		c0,0,0.01-0.02,0.01-0.03l-0.04-0.08c-0.07-0.07-0.14-0.15-0.24-0.18c-0.03,0-0.05,0-0.08,0s-0.05,0.03-0.07,0.06
		c-0.12,0,0-0.12-0.03-0.17h0.01c0,0,0.02-0.04,0.03-0.07c0-0.01,0-0.03,0.01-0.04s0.01-0.03,0.03-0.04l0.02-0.02v-0.02l0.04-0.06
		h0.01c0.03-0.01,0.06-0.04,0.09-0.06c0.03,0.05,0.08,0.07,0.15,0.04l0.04-0.02l0,0l0.1,0.04c0.01,0.07,0.07,0.07,0.11,0.1h0.06
		l0.31,0.07c0.07,0.08,0.19-0.01,0.28,0c0.07,0.01,0.19-0.04,0.18,0.12l0.03,0.02c0,0,0.01,0.03,0.03,0.03c0,0,0,0.01,0.02,0.01
		h0.09c0.07,0,0.07,0.09,0.16,0.07l0,0h0.01h0.01c0.08-0.05,0.15-0.03,0.21,0c0.14-0.12-0.01-0.15,0-0.22c0-0.07-0.06-0.09-0.1-0.11
		l-0.1-0.05c-0.05-0.03-0.1-0.06-0.13-0.12l-0.11-0.04c0,0-0.01-0.02-0.02-0.04c-0.07-0.04-0.15-0.01-0.23,0c0,0,0,0,0,0.01
		c-0.07,0-0.01-0.22-0.16-0.09c-0.01-0.05,0-0.14-0.1-0.09c-0.04,0.02-0.07,0.01-0.07-0.04l0.03-0.04c0-0.06-0.07-0.03-0.1-0.05
		c-0.13-0.15-0.28-0.24-0.47-0.28l-0.02,0.04l-0.02,0.04h-0.02c-0.03-0.03-0.03-0.12-0.11-0.05h-0.03
		c-0.06-0.11-0.18-0.09-0.27-0.15c0,0.01,0,0.03,0,0.04l0,0c0,0,0-0.03,0-0.04l-0.1-0.07l0.04-0.02c0,0,0,0-0.01,0
		c0,0,0.01,0,0.02-0.01c0-0.15-0.08-0.15-0.17-0.15c-0.34-0.1-0.61-0.35-0.92-0.49c-0.21-0.09-0.43-0.2-0.64-0.3
		c-0.1-0.16-0.31-0.14-0.43-0.27c-0.07,0.01-0.13,0-0.16-0.08l-1.11-0.48c-0.11-0.04-0.21-0.1-0.35-0.04
		c-0.11-0.04-0.23-0.07-0.31-0.17c-0.27-0.09-0.51-0.28-0.76-0.42c-0.16-0.09-0.35-0.15-0.51-0.25l-0.06-0.07
		c-0.21-0.08-0.44-0.15-0.62-0.28c-0.05-0.07-0.12-0.09-0.2-0.07h-0.03l-0.63-0.24c0.02-0.11-0.05-0.1-0.1-0.12
		c-0.1-0.06-0.23-0.04-0.32-0.12h-0.06c-0.16-0.06-0.33-0.12-0.51-0.1l-0.44-0.15c-0.02-0.08-0.07-0.13-0.13-0.18
		c-0.06-0.09-0.14-0.11-0.24-0.08c-0.13,0.02-0.21-0.11-0.34-0.11l-0.02-0.05c-0.14,0.02-0.2-0.14-0.32-0.15l-0.1,0.07l-0.2-0.07
		l-0.38-0.11h-0.03c-0.05-0.01-0.08-0.1-0.15-0.07c0,0-0.01,0-0.03,0.01c-0.06,0-0.07-0.07-0.12-0.08c-0.1,0.04-0.18-0.04-0.27-0.04
		c0,0.01,0,0.02,0,0.04v-0.04l-0.41-0.17c-0.04-0.02-0.09-0.02-0.1-0.09l-0.16-0.1c0,0-0.07-0.01-0.11-0.02h-0.15
		c0,0-0.01,0-0.03-0.01c-0.11-0.12-0.27-0.12-0.41-0.16c-0.24,0-0.44-0.14-0.69-0.13c-0.04,0-0.07-0.01-0.1,0.02h-0.07
		c-0.04-0.07-0.11-0.07-0.17-0.07c-0.01,0-0.02,0-0.03,0c-0.04-0.07-0.12-0.08-0.18-0.09c-0.03-0.01-0.05-0.02-0.08-0.03
		c-0.08-0.02-0.07-0.01-0.07-0.01s0,0,0,0.01c0,0,0-0.02,0.03-0.09c0,0,0,0-0.02,0.04c-0.02,0.03,0.04-0.08-0.03,0.04l-0.02,0.02
		l-0.02,0.04c0,0,0.01-0.02,0.02-0.04l0,0c0,0,0-0.04,0.01-0.07l0,0c0,0-0.07,0.05,0-0.02c0.03-0.04-0.05,0.04-0.06,0.04
		c0,0,0,0,0.01-0.01l0,0c0,0,0.01-0.01-0.04,0.03c0,0-0.01-0.01-0.02-0.02l0,0c0,0,0.02-0.02-0.01-0.01v-0.04l-0.02-0.02
		c0-0.01,0,0.01,0-0.04v-0.13v-0.1c0.1,0,0.02-0.01,0.04-0.01h0.03c0.1,0,0,0,0.1,0c0.01,0,0.03,0,0.04,0s0.04,0.01-0.02,0
		c-0.04-0.01-0.07-0.03-0.11-0.04s0.09,0.03,0.06,0.02c0.06,0.02,0.05,0.02,0.05,0.02s-0.03-0.02,0.03,0.01l-0.04-0.02
		c0,0-0.07-0.04-0.06-0.04h0.01h0.01h0.02l-0.04-0.03c-0.1-0.11,0.02,0,0.02,0s0-0.07,0.04,0l0,0v-0.01c0.01,0-0.02,0,0.07-0.02
		c0.02,0,0.04,0,0.06,0c0.12,0,0.23-0.04,0.33-0.09l0.21-0.06h0.04c0.1-0.04,0.23,0,0.31-0.11h0.08l0.14-0.03l0.03-0.05
		c0,0,0.02,0,0.03-0.01c0.14-0.12,0.34-0.07,0.47-0.2l0.1-0.03c0.05-0.01,0.1-0.03,0.13-0.09h0.08c0.12,0.01,0.2-0.07,0.28-0.15
		l0.06-0.06c0,0,0.05,0.04,0.08,0.02c0.05,0,0.1-0.01,0.13-0.05l0.1-0.04l0.07-0.02c0.12,0.03,0.19-0.11,0.32-0.07
		c0.04-0.09,0.16,0.01,0.21-0.07l0.13-0.06l0.4-0.15l0.07-0.12c0,0,0.04-0.09,0-0.13c0,0-0.04,0.03-0.07,0.04
		c-0.07,0.03-0.1-0.03-0.12-0.09c0.05-0.12,0.14-0.19,0.25-0.23c0.02,0,0.07,0,0.05-0.05c-0.01-0.05-0.06-0.07-0.1-0.05
		c-0.06,0.04-0.13,0.07-0.2,0.02c0-0.04,0-0.07,0.02-0.09c0.01-0.01,0.07,0,0.04-0.05c-0.01-0.04-0.05-0.05-0.08-0.04
		c-0.09,0.03-0.17,0.07-0.26,0.1l-0.04,0.08l-0.13,0.04c0,0-0.02,0.03-0.01,0.05c-0.02,0.01-0.04,0-0.05-0.02l-0.16,0.06
		c-0.07,0.01-0.1-0.04-0.12-0.12l-0.02,0.18l0,0v-0.01c-0.05-0.04-0.1-0.01-0.14,0c0-0.01,0-0.03,0-0.05s-0.02-0.04-0.04-0.06
		c0.01-0.01,0.02-0.02,0.04-0.04l0,0c0.06,0.02,0.11,0,0.16-0.04c0.07-0.04,0.17,0,0.21-0.1c0-0.01,0-0.02,0-0.04
		c0.01,0,0.02-0.01,0.02-0.03c0.05-0.04,0.16,0,0.14-0.15c0.05,0,0.09-0.02,0.13-0.06v-0.14c0.07,0,0.14-0.04,0.23,0.01
		c0.01,0,0.02,0,0.03-0.01c0.04,0,0.07-0.02,0.08-0.08l0.07-0.12c0,0,0.03,0,0.04-0.02c0,0,0-0.01,0-0.02c0.04,0,0.1,0,0.06-0.1
		c-0.04,0.01-0.06,0-0.07-0.04c0.07,0.02,0.13,0.02,0.16-0.05c-0.01-0.1-0.07-0.17-0.15-0.18c-0.06-0.04-0.11-0.04-0.16-0.04
		c0.02,0,0.04-0.03,0.05-0.07H112c0.05-0.02,0-0.1,0.04-0.12h-0.17l-0.07-0.15c0.02-0.01,0.04-0.03,0.04-0.07
		c0.04,0,0.08,0.09,0.13,0.05l-0.07-0.18l-0.02-0.07c0.1-0.04-0.01-0.1-0.01-0.15c-0.03-0.12,0.01-0.21,0.01-0.32
		c0.02,0,0.07,0.04,0.07-0.01c0-0.04-0.03-0.08-0.07-0.09l-0.06-0.07c0.1-0.02,0.1-0.07,0-0.16c0-0.07,0-0.13-0.04-0.19
		c0-0.14-0.1-0.18-0.17-0.24c0.03-0.18-0.09-0.22-0.18-0.28c-0.05,0-0.08-0.07-0.11-0.11l-0.07-0.07c-0.05-0.04-0.07,0-0.1,0.03
		c0-0.04,0-0.09-0.04-0.13c-0.03-0.03-0.05-0.04-0.08-0.01H111l-0.04-0.03c-0.02-0.07-0.06-0.09-0.11-0.09l-0.12-0.02
		c0,0-0.05-0.04-0.08-0.04c-0.04-0.04-0.09-0.17-0.13-0.03c-0.04,0-0.07-0.05-0.11-0.02c-0.05-0.14-0.12-0.07-0.18-0.07
		c-0.1,0-0.22-0.07-0.3,0.04c-0.03-0.04-0.05,0-0.08,0c-0.07-0.03-0.13-0.04-0.19,0c0,0,0,0.02,0,0.03c0,0.01,0,0.01,0,0
		c0-0.01,0-0.02,0-0.03s-0.01-0.01-0.01,0c-0.05-0.04-0.09-0.03-0.1,0.04c-0.14,0-0.27,0.04-0.38,0.13
		c-0.08-0.01-0.16-0.01-0.23,0.04c-0.07,0-0.16-0.04-0.19,0.07v0.03c0,0,0-0.02,0-0.03c-0.07,0-0.13,0.09-0.22-0.03
		c-0.02-0.02-0.07,0.02-0.07,0.08v0.07l-0.04,0.03c0,0,0,0.01,0,0.02l0,0v-0.02c0,0-0.05-0.01-0.07,0c-0.36,0.25-0.81,0.24-1.2,0.45
		c-0.07-0.01-0.13,0.01-0.19,0.05l-0.09,0.05c0,0-0.03,0.01-0.05,0.02c-0.03,0-0.07,0.01-0.1,0.02h-0.01l-0.02,0.02
		c-0.02,0.01-0.03,0.03-0.02,0.04c-0.31,0.04-0.59,0.16-0.86,0.26l-0.18,0.04l0,0c0,0-0.01-0.01-0.02-0.03
		c-0.21,0.01-0.42,0.06-0.58,0.15c-0.03,0.03-0.07,0.04-0.13,0.04c-0.37,0-0.6,0.17-0.91,0.23c-0.15,0.03-0.35,0.04-0.41,0.14
		c-0.04-0.01-0.08-0.03-0.13-0.04l-0.14,0.03c-0.06,0.33-0.1,0.68-0.04,1.07l-0.07,0.91c0.1,0.23,0,0.39-0.02,0.59
		c-0.01,0.11-0.07,0.21,0.02,0.32c0.09,0.15-0.05,0.29,0.01,0.45c-0.04,0.23-0.05,0.47-0.04,0.71v0.23
		c0.02,0.07,0.02,0.13,0.02,0.26v0.66c0,0-0.01,0.03-0.02,0.05c-0.01,0-0.03,0-0.04,0.01v0.12c0.04,0.29,0.02,0.62,0.13,0.88
		c-0.07,0.2,0.07,0.33,0.01,0.52c0.02,0.05,0.09,0.07,0.06,0.17c-0.04,0.18-0.01,0.32,0.05,0.43v0.07c-0.01,0.09-0.01,0.15,0.06,0.1
		c-0.03,0.04,0,0.1-0.02,0.15c0.01,0.21,0.02,0.43,0.05,0.64l1.44,0.36L104.8,316.56z M115.73,334.18c0,0,0-0.03-0.01-0.04
		c0,0,0,0,0.01,0V334.18l1.37,0.7l1.26,0.65c0,0,0.1,0.01,0.07-0.07c-0.26-0.12-0.45-0.43-0.71-0.52c-0.01-0.01-0.03-0.02-0.04-0.04
		h0.18l0.47,0.25c0.14,0.08,0.3,0.2,0.43,0.19l0.1,0.05l0.61,0.34c0.16-0.15,0.32-0.31,0.47-0.52c0,0-0.01,0-0.02-0.01l0,0h0.02
		c0.23-0.11,0.45-0.33,0.64-0.58l0.11-0.16c0.43-0.25,0.75-0.73,1.13-1.07l0.32-0.29c0.17-0.04,0.23-0.19,0.36-0.27
		c0-0.01-0.01-0.03-0.03-0.04l0.76-0.66c0.21-0.31,0.49-0.55,0.78-0.79c0-0.03,0.01-0.07,0.04-0.08l1.13-1.01l0.02-0.09
		c0,0,0.16-0.03,0-0.15h-0.07c0.04,0.09-0.04,0.08-0.05,0.12c-0.17,0.1-0.32,0.23-0.45,0.37c-0.04,0.04-0.05,0.1-0.15,0.02l0,0
		c-0.32,0.31-0.69,0.53-1.06,0.77c-0.05,0.03-0.1,0.07-0.15,0.12c-0.04,0.04-0.08,0.08-0.13,0.11c-0.1-0.02-0.05-0.08-0.07-0.12
		l0.27-0.23c0,0,0.05-0.01,0.05-0.05l0.12-0.13c0,0-0.02-0.01-0.04-0.02c0,0,0.02,0.01,0.04,0.02l0.11-0.08
		c0.07,0,0.13-0.03,0.13-0.12l0.08-0.07l0.1-0.09l-0.04-0.04l0,0c0,0,0,0.02,0.03,0.03l0.21-0.18c0,0,0.03,0.04,0.05,0.04
		c0.06,0,0.1-0.03,0.1-0.09c0.09-0.09,0.17-0.19,0.29-0.26c0.02-0.04,0.07-0.04,0.04-0.11l0.04-0.06l0.12-0.03l-0.02-0.03l0.04-0.04
		c0.16-0.03,0.24-0.16,0.35-0.25c0,0,0,0,0.01-0.01c0,0.01,0.01,0.03,0.03,0.04l0.47-0.4c0,0-0.01-0.01-0.01-0.02
		c0-0.01-0.02-0.01-0.03-0.02l0,0l0.02,0.03l0,0v0.02c0.21-0.05,0.3-0.28,0.52-0.35c0,0.14-0.14,0.13-0.13,0.25
		c0.01,0.14-0.04,0.21-0.14,0.25c-0.04,0.01-0.08,0.04-0.07,0.12h-0.01v0.02c-0.05,0.03-0.12,0.06-0.14,0.15
		c0.14,0.03,0.21-0.02,0.29-0.06c0.16-0.07,0.1-0.31,0.21-0.42c0.02,0,0.04,0,0.05-0.03c0.18-0.09,0.3-0.23,0.42-0.39
		c0,0-0.01,0-0.02,0c0,0,0.01,0,0.02,0.01l0.07-0.07c0,0-0.01-0.01-0.01-0.02l0,0l0.01,0.02c0.08-0.02,0.13-0.07,0.18-0.14
		c0.01-0.01,0.02-0.04,0.04-0.05c0.07-0.07,0.15-0.12,0.24-0.17c0.23-0.12,0.47-0.2,0.66-0.37c0.1-0.01,0.16-0.11,0.24-0.15
		l0.37-0.26l0.79-0.58c0,0,0.07-0.03,0.09-0.05c0.14-0.08,0.26-0.19,0.38-0.31c0.04-0.02,0.07-0.04,0.1-0.06
		c0.45-0.31,0.79-0.76,1.25-1.07c0.36-0.25,0.72-0.51,1.04-0.83c0.18-0.17,0.41-0.27,0.52-0.53c0-0.07-0.03-0.07-0.07-0.08
		c-0.07-0.06-0.09-0.04-0.13,0.01c-0.1,0.14-0.24,0.23-0.38,0.31c-0.06-0.02-0.08,0.03-0.13,0.04c-0.04,0-0.07,0.05-0.1-0.05
		l-0.02-0.04c-0.04-0.07-0.1-0.14-0.04-0.21c0.06-0.06,0.13-0.13,0.14-0.24h0.05l0.03,0.05c0.06-0.06,0.12-0.12,0.15-0.2
		c0.13,0.05,0.21,0.01,0.22-0.12l0.27-0.18c0,0-0.01,0-0.01-0.02c0-0.01,0-0.01,0.01,0v0.02c0.13,0.03,0.17-0.07,0.21-0.15
		c0.05-0.09,0.11-0.18,0.22-0.19c0.16,0.04,0.16-0.14,0.23-0.23c0-0.02,0-0.04,0.01-0.07l0.1-0.09l0.23-0.16
		c0-0.08,0.07-0.11,0.11-0.18c-0.06,0.01-0.1,0.02-0.13,0.04l-0.27,0.22c0,0,0-0.01,0-0.02h-0.03l-0.24,0.21
		c-0.09,0.1-0.22,0.14-0.3,0.26l-0.05,0.05c-0.07-0.01-0.13,0-0.16,0.08l-0.05,0.05l-0.09,0.06c-0.06-0.03-0.07,0.02-0.11,0.04
		c-0.01-0.03-0.1,0-0.06-0.07c0.03-0.05,0.08-0.09,0.13-0.12l0.24-0.22l0.1-0.09c0.05-0.04,0.02-0.08-0.04-0.12l-0.18,0.17
		c0,0-0.02,0-0.03,0.01c-0.18,0.07-0.3,0.2-0.42,0.34l-0.02,0.04c-0.24,0.17-0.49,0.34-0.71,0.53c-0.04,0.04-0.07,0.15-0.18,0.05
		v-0.07c0,0,0.01-0.01,0.01-0.03c0.37-0.28,0.64-0.69,1-0.99l0.16-0.13c0,0,0.07-0.04,0.1-0.07l0.11-0.07l0.05-0.04
		c0.1-0.05,0.18-0.11,0.24-0.2c0.14,0.03,0.18-0.12,0.25-0.19c0.24-0.23,0.52-0.42,0.72-0.72c0.21-0.2,0.42-0.38,0.63-0.57
		c-0.18-0.11-0.27-0.03-0.36,0.03c-0.04-0.04-0.14-0.07-0.07-0.15c0.04-0.04,0.07-0.1,0.03-0.18c-0.05-0.08-0.13-0.06-0.18-0.05
		c-0.11-0.01-0.22-0.04-0.31,0.02h-0.11c-0.09,0-0.16,0.04-0.22,0.07c-0.13,0.03-0.24,0.08-0.34,0.17c-0.1,0-0.14,0.1-0.21,0.15
		l-0.46,0.11c-0.15-0.04-0.24,0.04-0.36,0.06c-0.01-0.17,0.13-0.14,0.18-0.23l0.27-0.18v-0.03l0,0v0.03c0.1,0,0.14-0.09,0.22-0.12
		c0.18-0.07,0.34-0.18,0.53-0.33c-0.29-0.03-0.46,0.07-0.63,0.18c-0.3-0.04-0.52,0.09-0.72,0.26c0,0.02,0.02,0.03,0.03,0.04
		l-0.03-0.04c-0.07,0-0.13,0.03-0.16,0.08l-0.08,0.07c-0.1,0.01-0.19,0.07-0.27,0.12c-0.38,0.12-0.75,0.24-1.09,0.43
		c-0.08,0.03-0.17,0.05-0.23,0.12c-0.25,0.06-0.46,0.2-0.67,0.33c-0.13,0.04-0.24,0.09-0.33,0.17c-0.17,0.03-0.29,0.14-0.41,0.23
		c-0.13,0.06-0.3,0.08-0.38,0.21c-0.35,0.18-0.7,0.36-1.03,0.58c-0.07-0.02-0.1,0.03-0.15,0.06l-0.56,0.42c0,0-0.07,0.03-0.1,0.05
		c-0.36,0.18-0.63,0.46-0.92,0.73c-0.01,0-0.02,0-0.03,0.02c-0.24,0.19-0.55,0.26-0.77,0.47l-0.49,0.31
		c-0.35,0.15-0.59,0.42-0.88,0.64l-0.12,0.04c-0.17,0.06-0.29,0.19-0.43,0.29c-0.55,0.39-1.08,0.82-1.59,1.26
		c-0.07,0.14-0.27,0.15-0.32,0.32l-0.1,0.15l-1.02,0.97c0,0-0.04,0.02-0.07,0.04c-0.18,0.12-0.34,0.27-0.49,0.42l-0.39,0.39
		c0,0-0.02-0.01,0,0.01c0,0,0,0,0,0.01l0,0c0,0-0.01,0.06-0.02,0.1v0.02c0,0-0.07,0.01-0.1,0.02c-0.01-0.04-0.02-0.04-0.04-0.04
		c-0.04-0.07-0.04-0.15-0.11-0.12v-0.02c-0.06,0.01-0.08,0.02-0.11,0.02c0-0.01,0.01-0.04-0.01-0.01c-0.05,0.02,0.02-0.06-0.08,0
		l0,0c0,0,0-0.03-0.04,0l0,0c0,0,0-0.04-0.05-0.01l0,0c0,0,0.01-0.03-0.04-0.01h-0.06c0,0-0.03-0.03-0.04-0.04
		c-0.06-0.02-0.02-0.07-0.11-0.11c0-0.02,0-0.04,0-0.07c0-0.01,0-0.02-0.01-0.04s-0.02-0.02-0.02-0.1c0.02-0.09,0.04-0.18,0-0.27
		c0.04-0.16,0.06-0.32,0.03-0.49h0.01v-0.03c0-0.09,0.06-0.18,0.01-0.27c0.04-0.17,0.02-0.34,0-0.53c0.05-0.14,0.01-0.28-0.04-0.43
		c0.04-0.08,0.04-0.18,0-0.26c0.04-0.1,0.01-0.2-0.04-0.31c0.02-0.09,0.02-0.19-0.04-0.28c0.01-0.07,0.05-0.15-0.04-0.22l-0.06-0.22
		c-0.07-0.31-0.18-0.62-0.43-0.91c-0.04-0.03,0-0.08-0.07-0.1l-0.03-0.07c0.04-0.12-0.05-0.23-0.12-0.34
		c-0.01-0.03-0.06-0.05-0.1-0.05c-0.01,0-0.04,0.02-0.04,0.04c0.03,0.12-0.06,0.26,0.13,0.37c0,0,0,0.02-0.01,0.03
		c-0.04,0.04-0.04,0.07,0,0.11l0,0c-0.01,0.02,0,0.05,0.01,0.07h-0.04c0-0.07-0.02-0.13-0.1-0.18c-0.25-0.22-0.34-0.49-0.59-0.71
		c-0.17-0.14-0.44-0.2-0.58-0.08c-0.23,0.2-0.57,0.31-0.78,0.53c-0.12,0.02-0.09,0.15-0.23,0.15c-0.04-0.15-0.05-0.29-0.24-0.41
		c-0.13-0.06-0.17,0.01-0.21,0.07c-0.05,0.07-0.09,0.16-0.07,0.25c0.03,0.18-0.07,0.32-0.13,0.48c0,0.08,0,0.16-0.04,0.23
		c0,0.01,0,0.04,0,0.05c0,0.06-0.02,0.11-0.04,0.16c0,0.01-0.01,0.03-0.01,0.05c-0.01,0.05-0.01,0.1,0,0.15c0,0.01,0,0.03,0,0.05
		c-0.07,0.09-0.07,0.2-0.09,0.3c0.04,0.13-0.1,0.23-0.05,0.36c-0.06,0.27-0.09,0.55-0.18,0.82c-0.09,0.28-0.15,0.56-0.21,0.85
		l-0.22,0.76l-0.25,0.83l-0.63,2.02l0.91,0.62c0,0,0.05,0,0.07,0c0.3,0.24,0.71,0.41,1,0.66c-0.17,0.08,0.05,0.18,0.09,0.26
		c0.5,0.27,0.97,0.67,1.52,0.93l0,0L115.73,334.18z M127.68,296.55c0,0-0.06,0-0.08,0.02c-0.42,0.39-0.93,0.66-1.4,0.99
		c-0.26,0.18-0.5,0.39-0.75,0.58l-0.1,0.08l-0.78,0.56l0.04,0.05l0,0c0,0-0.01-0.04-0.04-0.06c-0.33,0.22-0.68,0.42-0.97,0.69
		c-0.13,0.03-0.16,0.19-0.27,0.23l-0.21,0.19c0,0,0,0.05,0.03,0.07c0.13,0.06,0.21,0.01,0.3,0l-0.13,0.12l0,0
		c-0.02,0-0.04,0-0.04,0.01l-0.55,0.46l-0.13,0.07c0,0,0,0.04,0,0.07c-0.03,0.02-0.06,0.04-0.11,0.07c0.07,0.02,0.1,0.03,0.14,0.04
		l0.13-0.07c0.14,0.01,0.23-0.07,0.34-0.13c0.14,0,0.22-0.09,0.33-0.14c0.21-0.07,0.4-0.18,0.58-0.29c0.07,0.07-0.06,0.09,0.03,0.16
		c0.13-0.02,0.24-0.04,0.36-0.06c0.09,0.04,0.15,0,0.19-0.05c0.01-0.02,0.03-0.06,0.02-0.09c0-0.01,0-0.02-0.01-0.04
		c0.02-0.01,0.04-0.02,0.07,0c0.01,0.07-0.01,0.11-0.03,0.16l-0.21,0.13l0,0c-0.02,0-0.04,0-0.04,0.02l-0.19,0.16
		c0,0-0.05,0.09,0,0.09c0.13,0,0.04,0.13,0.1,0.15l0,0l-0.1,0.06c-0.02,0.04-0.08,0.03-0.1,0.08c0,0-0.01,0-0.01,0.02
		c0,0.13-0.13,0.12-0.18,0.18c0,0,0,0-0.01-0.01c-0.04,0.04-0.13,0.02-0.13,0.13c0,0,0,0.02,0,0.03c-0.14,0-0.22,0.12-0.34,0.17
		c0,0.01,0,0.03,0.01,0.04h0.02v0.01v-0.02l-0.18,0.12l0.05,0.09c0,0,0,0,0.01,0c0.04,0.03,0.07,0.17,0.11,0.07
		c0.04-0.05,0.1,0,0.16,0.04l0,0c0,0-0.03,0-0.04,0.03s0,0.07,0.01,0.09l0,0c-0.12-0.01-0.19,0-0.14,0.19
		c-0.07,0.02-0.13,0.18-0.26-0.05c-0.03-0.04-0.05,0-0.07,0.04c-0.01,0.04-0.01,0.07,0.04,0.11l0.16,0.12
		c0.13,0.1,0.02,0.13,0.03,0.2l-0.07,0.03l-0.1,0.07c0,0-0.06,0.01-0.04,0.07l-0.07,0.03c-0.08-0.03-0.1,0.09-0.18,0.04
		c-0.02,0.07-0.13,0.03-0.12,0.15c-0.07,0-0.07,0.14-0.17,0.08c-0.03,0.02-0.08,0.02-0.07,0.09c0.07,0.14,0.1,0,0.16,0.04
		c0-0.14,0.16-0.04,0.16-0.15c0.06-0.05,0.13-0.07,0.21-0.06c0.04-0.08,0.14-0.07,0.18-0.15l0,0c0,0,0.07-0.04,0.12-0.01
		c0.08-0.12,0.24-0.12,0.34-0.2c0-0.01,0-0.03-0.01-0.04l0.12-0.07c0.2-0.04,0.37-0.14,0.52-0.27v-0.04c0,0,0.01,0,0.01-0.01
		c0.01,0,0.02,0,0.02,0l0.04,0.03l0.04-0.03c0,0,0.08-0.01,0.12-0.03c0.06,0.02,0.1,0,0.13-0.04c0,0,0-0.01,0-0.02l0,0v0.07
		c0,0.07,0.1,0.12,0.07,0.19v0.03c0,0-0.04,0-0.06,0.02h-0.04c0,0-0.03,0-0.04,0c-0.04,0-0.03,0.06-0.03,0.1l0.02,0.04h-0.05h-0.04
		v0.15c0,0-0.02,0-0.03,0c0-0.01-0.02-0.03-0.04-0.03l-0.08,0.06c0.04,0.1-0.09,0.02-0.08,0.09l-0.06,0.05h-0.04
		c-0.08-0.02-0.06,0.09-0.11,0.1l-0.18,0.07v0.03c0,0-0.07,0.05-0.06,0.12c0.01,0.06,0.07,0.08,0.11,0.08v-0.07l0.02,0.01
		c0.04,0,0.06-0.02,0.07-0.05l0,0c0.02,0.08,0.05,0.14,0.1,0.19l0,0c-0.02,0.07-0.14-0.03-0.13,0.08c-0.08-0.07-0.12-0.02-0.16,0
		l-0.08-0.2c-0.11-0.06-0.15,0.04-0.23,0.05h-0.01l-0.01,0.01c0.1,0.18,0.13,0.05,0.19,0.04c0.04,0.08,0.1,0.13,0.16,0.18
		c0,0.16-0.11,0.01-0.16,0.04c0,0.12-0.1,0.12-0.11,0.22c0,0.06-0.07,0.09-0.03,0.16c0,0,0,0,0,0.01c-0.01,0.02-0.03,0.05-0.03,0.09
		c-0.1-0.02-0.07,0.13-0.13,0.16c-0.02,0.08,0,0.16,0.09,0.23c0.06,0.05,0.06,0.05,0.01,0c-0.08-0.07-0.01,0.04-0.03,0.04
		c0.07,0.05,0.15,0.1,0.16,0c0.1-0.07,0.3,0,0.33-0.19l0.18-0.05c0.16-0.03,0.28-0.09,0.3-0.29c0.01-0.13,0.01-0.14-0.01-0.02h0.01
		l0,0l0.52-0.3c0,0,0.07-0.04,0.07-0.1c0.01,0,0.02,0,0.03-0.02c0.07-0.04,0.16-0.07,0.21-0.15c0.02,0.01,0.04,0.01,0.04,0
		l0.33-0.22c0.03-0.07,0.1-0.09,0.16-0.1l0.04-0.07l0.44-0.27c0.11,0.03,0.1-0.12,0.19-0.12c0.06,0.01,0.1,0,0.15-0.01
		c0.07-0.07,0.31,0.03,0.16-0.26c0,0,0.01-0.01,0.03-0.01c0.07,0.04,0.13,0.09,0.18,0.16c0,0-0.01,0.01-0.02,0.02v0.02
		c0,0-0.08,0-0.11,0.02c-0.03,0-0.06,0.03-0.09,0.04s-0.05,0.04-0.07,0.05c-0.04,0.03-0.08,0.07-0.07,0.15l-0.52,0.37
		c0,0,0,0.02-0.01,0.02s-0.01,0.02-0.01,0.03c-0.15,0.09-0.31,0.17-0.39,0.34v0.07l-0.07,0.04c-0.12-0.03-0.18,0.06-0.24,0.12
		l-0.16,0.12c0,0,0,0.03,0.01,0.05c-0.12,0.04-0.2,0.13-0.27,0.23c0,0-0.01,0-0.03,0s-0.03,0-0.03,0.03l-0.11,0.09
		c-0.16-0.04-0.18,0.13-0.27,0.2c0.08,0.05,0.16,0.04,0.22,0.01l0.06-0.07l0.1-0.04c0,0,0.05,0,0.06-0.04l0.06-0.05
		c0.19-0.05,0.32-0.2,0.48-0.29c0.1-0.04,0.27,0,0.2-0.23l0,0c0,0,0.06,0.04,0.09,0.04c0,0.01,0.01,0.03,0.02,0.04
		c0.02,0.04,0.04,0.07,0.07,0.09c-0.02,0-0.04,0-0.06,0c-0.01,0.01-0.03,0.04-0.03,0.07c0,0-0.02,0-0.03,0
		c-0.04,0.02-0.09,0.04-0.1,0.1l0.02,0.18l0.2-0.11l0.1-0.05c0.1,0.04,0.11-0.07,0.16-0.11c0.15-0.07,0.3-0.14,0.41-0.26
		c0.07-0.07,0.2-0.06,0.26-0.15c0.09-0.07,0.21-0.09,0.26-0.23h-0.02v-0.02h0.02c0.13-0.04,0.34,0,0.32-0.26
		c0-0.02-0.01-0.04-0.03-0.04l0.03,0.04l0.1,0.02c0.17-0.14,0.38-0.22,0.52-0.39l0.05-0.04c0.22-0.15,0.47-0.24,0.66-0.45
		c0.07,0,0.13-0.04,0.16-0.11c0.08-0.06,0.19-0.09,0.22-0.21c0.01,0,0.02,0,0.03-0.01c0.19,0.07,0.24-0.08,0.3-0.19
		c0,0,0.01,0,0.01-0.03c0.24-0.03,0.36-0.22,0.52-0.36c0.16-0.02,0.22-0.18,0.33-0.28c0.15-0.12,0.32-0.2,0.46-0.35l1.16-0.85
		l0.32-0.31c0.24-0.14,0.46-0.31,0.66-0.51l0.05-0.04c0.16-0.07,0.32-0.15,0.4-0.31c0.08-0.01,0.14-0.06,0.17-0.14
		c0.11,0,0.16-0.09,0.21-0.17l0.09-0.07c0.39-0.3,0.78-0.58,1.13-0.93c0.14-0.05,0.25-0.15,0.32-0.27c0.01,0,0.02,0,0.01-0.02
		c0.1-0.08,0.22-0.13,0.29-0.24c0.05-0.01,0.1-0.04,0.12-0.09c0.05-0.01,0.09-0.05,0.11-0.1c0.43-0.31,0.81-0.67,1.18-1.04
		c0.07,0.01,0.11-0.04,0.15-0.07c0.34-0.31,0.67-0.61,1-0.93l0.13-0.11c0,0,0.02-0.01,0.03-0.02c0,0,0-0.02,0-0.07l0,0
		c0,0,0.03,0,0.02-0.02l0.04-0.03c0,0,0.01,0,0.01-0.02v-0.02c0,0,0.04,0.01,0.04-0.02l0,0c0,0,0.01,0.03,0.01,0
		c0,0.04,0.01,0.03,0.01,0l0.09,0.04c0,0.05,0.01,0.07,0.04,0v0.03c0,0,0.03,0.04,0.04,0.01c0.01,0.06,0.04,0.04,0.08,0.04
		c0,0.04,0,0.06,0.03,0.01c0.02-0.03,0.02-0.03,0,0l0,0l0.01,0.01c-0.01,0.04-0.01,0.07,0.03,0.02c0,0.04,0.01,0.04,0.05,0.03
		c0,0.02-0.02,0.04,0.01,0.01h0.04v0.02c0,0.01-0.04,0.07,0.07,0c-0.1,0.09,0,0.04,0,0.05l0.04,0.03h0.01c0,0-0.02,0.03,0.01,0.02
		h0.01c0,0,0,0.03,0,0.04s0.01,0.01,0.02,0.02l0,0c-0.06,0.03-0.02,0.03,0,0.04h-0.01v0.06c0,0.02-0.06,0.03,0,0.05v0.04
		c0,0-0.05,0.07-0.04,0.11l-0.03,0.11l-0.08,0.33v0.04l-0.01,0.04l-0.12,0.51v0.07c-0.09,0.14-0.09,0.29-0.12,0.44v0.04l-0.07,0.33
		l-0.02,0.07c-0.03,0.18-0.12,0.34-0.07,0.53v0.06c-0.07,0.19-0.1,0.38-0.06,0.64c0.1-0.11,0.17-0.18,0.15-0.27l0.06-0.26v-0.04
		c0.1-0.04,0.11-0.11,0.04-0.18l0,0v-0.03c0.07-0.03,0.07-0.09,0.08-0.15c0.04-0.08,0.06-0.16,0.06-0.26l0.06-0.29l0.03-0.15
		c0.05-0.08,0.1-0.15,0.06-0.26c0.04-0.07,0.13-0.12,0.1-0.2l0.02-0.12c0,0,0.04-0.07,0.01-0.12l0.09-0.24v-0.16
		c0,0,0.06-0.08,0.05-0.13c0.03,0,0.05,0,0.07-0.02c0.04-0.08,0.07-0.16,0.1-0.24c0-0.04,0.01-0.09,0-0.12
		c-0.01-0.01-0.03-0.03-0.06-0.04c-0.01,0-0.04,0-0.06-0.01l0.07-0.02h-0.02c0,0,0.03,0,0.04-0.01c0.05,0,0.07-0.02,0.08-0.04
		l0.03,0.03l-0.06,0.02c0,0,0.01,0,0,0c0.04,0.03-0.02,0.04,0.02,0.08c0,0,0.01,0.01,0.01,0.05l-0.03,0.03
		c-0.04,0.07-0.07,0.14-0.04,0.22c0.01,0,0.04,0.01,0.05,0.01v0.04c0,0-0.04,0-0.06,0.01c-0.02,0.04-0.04,0.07,0,0.11l-0.09,0.13
		v0.04l-0.06,0.28c0.08,0.1-0.13,0.16-0.01,0.26c-0.01,0-0.03,0.02-0.03,0.04c0,0.06,0,0.12-0.02,0.18
		c-0.06,0.29-0.16,0.58-0.09,0.91c0.03,0.08-0.15,0.12-0.04,0.22c-0.02,0.04-0.13,0.08-0.03,0.15c0.07,0.15-0.11,0.27,0.03,0.42
		c-0.05,0.17-0.05,0.34-0.04,0.51l0.03,0.46c0,0.06,0.04,0.09,0.15,0.09c0.13-0.13,0.22-0.27,0.19-0.44c0-0.01,0-0.03-0.01-0.04l0,0
		h0.04l0.07-0.28c0.09-0.17,0.13-0.35,0.16-0.53l0.13-0.35c0.09-0.08,0.03-0.2,0.11-0.28c0-0.03,0.04-0.03,0.07-0.02v0.11
		c0,0,0,0.02,0.01,0.02c-0.04,0.07-0.06,0.16-0.05,0.25c0.02,0.09-0.05,0.18,0,0.27v0.36c-0.07,0.24,0,0.5-0.03,0.74v0.32
		c0.05,0.09,0.04,0.18,0.03,0.27c0,0.15-0.09,0.28,0.01,0.47c0.14-0.1,0.15-0.22,0.18-0.36c0.13,0.12,0.28,0.14,0.44,0.15
		c0.13,0.07,0.25,0.12,0.41,0.08l0.27,0.02c0.2-0.02,0.45,0.05,0.57-0.09c0.1,0,0.11-0.06,0.18-0.07c0.07-0.04,0.15-0.08,0.18-0.15
		c0,0,0,0,0-0.01c0.07-0.01,0.1-0.06,0.12-0.1h0.05c0,0,0-0.02,0.01-0.03c0.09,0.03,0.03,0.09,0.08,0.12
		c0.04,0.11-0.04,0.22,0.13,0.35c0.07-0.17,0.1-0.33,0.37-0.37c0.11-0.12,0.2-0.24,0.13-0.4l0.03-0.21l0.04-0.13
		c0,0,0.04-0.07,0.04-0.1c0.15-0.31,0.28-0.64,0.31-0.98c0.02-0.01,0.01-0.04,0-0.07l0.22-0.72h-0.02h0.02
		c0.09-0.1,0.07-0.23,0.07-0.34c-0.02,0-0.04,0-0.06-0.01c0.01,0,0.04,0.01,0.06,0.01c0.04-0.09,0.09-0.2,0.12-0.29l0.04-0.15
		l0.06-0.23l0.32-1.26c0,0-0.03,0-0.04,0.01l0,0c0,0,0.03,0,0.04,0l0.63-2.29l-3.67-2.34l-3.9-1.98l-1.89,1.87l-0.1,0.1l-0.41,0.4
		l-0.38,0.36c-0.38,0.36-0.78,0.72-1.18,1.06h-0.01v0.03l-0.89,0.78l-1.04,0.88c-0.16,0.09-0.26,0.24-0.4,0.35l-0.92,0.74
		c-0.38,0.31-0.76,0.6-1.15,0.88l-1.42,1.08L127.68,296.55z M127.53,317.34l0.16,0.04c0.2,0.06,0.41,0.07,0.61,0.05
		c0.03,0.01,0.06,0.01,0.08,0c0.36,0.04,0.72-0.03,1.07-0.09c0.2-0.05,0.41-0.05,0.6-0.15l0.19-0.06l0.08-0.02
		c0.31-0.11,0.61-0.24,0.89-0.41c0.58-0.33,1.11-0.74,1.5-1.28c0.16-0.14,0.28-0.3,0.35-0.5c0.08-0.18,0.25-0.29,0.28-0.5l0.04-0.07
		l0.07-0.15c0.07-0.16,0.13-0.32,0.19-0.49c0.05-0.18,0.1-0.36,0.14-0.54l0.05-0.24c0.04-0.18,0.06-0.37,0.07-0.56v-0.04
		c0.04-0.61-0.03-1.23-0.21-1.83c-0.08-0.26-0.16-0.53-0.32-0.75c-0.04-0.09-0.1-0.18-0.16-0.27c-0.16-0.31-0.35-0.59-0.58-0.86
		c0-0.07-0.06-0.1-0.1-0.15c-0.16-0.18-0.33-0.34-0.51-0.5c-0.32-0.18-0.59-0.46-0.94-0.58c-0.21-0.07-0.34-0.28-0.58-0.25
		c-0.15-0.04-0.3-0.07-0.44-0.12c-0.28-0.11-0.58-0.16-0.89-0.18l-0.04-0.04l-0.07,0.02h-0.02c0-0.14-0.12-0.1-0.19-0.11
		c-0.21-0.02-0.42,0.05-0.64,0.01c-0.14,0.03-0.3,0-0.43,0.08c-0.03-0.01-0.07-0.04-0.1-0.04c-0.41,0.06-0.82,0.18-1.2,0.33
		l-0.28,0.17c0,0,0,0.03,0.02,0.04l-0.02-0.04c-0.12,0.04-0.22,0.12-0.31,0.2c-0.06,0.03-0.14,0.01-0.17,0.09
		c-0.35,0.19-0.69,0.42-0.94,0.74c-0.26,0.26-0.49,0.54-0.69,0.84c-0.14,0.2-0.25,0.42-0.36,0.65l-0.04,0.07
		c-0.08,0.08-0.07,0.2-0.11,0.3c-0.08,0.09-0.1,0.21-0.13,0.32l-0.05,0.19c-0.02,0.09-0.05,0.18-0.07,0.26l-0.04,0.23
		c-0.05,0.35-0.1,0.71-0.02,1.06c0,0.24-0.03,0.5,0.08,0.74l0,0v0.03c0,0.19,0.1,0.35,0.14,0.53c0.08,0.33,0.22,0.64,0.42,0.91
		l0.12,0.2c0.1,0.16,0.22,0.31,0.37,0.45c0.07,0.05,0.1,0.15,0.24,0.16c-0.05-0.06-0.09-0.11-0.13-0.15
		c-0.04-0.08-0.13-0.13-0.12-0.23c0.01-0.04,0-0.09-0.01-0.12c-0.03-0.05-0.07-0.1-0.12-0.14c0,0-0.01,0-0.02,0
		c0-0.02,0-0.05-0.01-0.07c0,0.01,0.01,0.02,0.02,0.04c0.01,0.02,0.03,0.04,0.06,0.04c0.06,0.09,0.12,0.19,0.2,0.26
		c0.07,0.1,0.16,0.18,0.22,0.29c0,0.03,0.03,0.05,0.06,0.07c0,0,0,0,0.01,0l0.09,0.11c0.07,0.04,0.07,0.15,0.21,0.14
		c-0.08-0.13-0.12-0.27-0.22-0.36c0.01-0.08-0.04-0.12-0.08-0.16c0-0.09-0.07-0.15-0.11-0.22l-0.09-0.2c0-0.05-0.01-0.09-0.02-0.13
		c0.01,0.01,0.03,0.02,0.06,0.02h0.05c0.05,0.07,0.07,0.15,0.17,0.18l0.08,0.1c0,0,0.06-0.02,0.07-0.05l-0.08-0.1
		c-0.05-0.11-0.1-0.22-0.14-0.33c-0.03-0.07-0.03-0.08-0.01-0.02v-0.02c0.01-0.07-0.03-0.12-0.06-0.18c0-0.01-0.02-0.02-0.04-0.04
		v-0.04c0,0,0-0.06-0.01-0.08c0.01,0,0.03,0.02,0.04,0.03c0,0,0.02,0,0.03,0c0,0.07,0.04,0.12,0.09,0.17h-0.01
		c0,0-0.03,0.03-0.03,0.04c0,0.04,0.02,0.06,0.06,0.07l0.04,0.04v0.06c0,0,0.02,0.02,0.04,0.01l0,0c0,0.01,0,0.03,0.02,0.04
		c0.07,0,0.13,0,0.19-0.06c-0.07-0.09,0.03-0.26-0.09-0.32c0.12-0.12,0.01-0.18,0.01-0.27c0.03-0.04,0.02-0.08,0-0.11
		c0,0-0.02-0.02-0.04-0.02c0,0-0.01,0-0.02,0l-0.05-0.12c0-0.05-0.05-0.09,0-0.15v-0.04l-0.07-0.03c0.13-0.12-0.03-0.19,0-0.29
		l-0.07-0.07v-0.03c0.05-0.03,0.07-0.06,0.04-0.09c0,0-0.01,0-0.03,0c0.01-0.02,0.03-0.04,0.03-0.06c0,0.04,0.03,0.07,0.09,0.12
		c0.04,0.02,0.05,0.05,0.06,0.08c0,0.01-0.01,0.04-0.01,0.06s0,0.04,0.03,0.05l0,0c0,0,0,0.02,0,0.03c0.01,0,0.03,0.01,0.04,0.03
		l0.04,0.05l0,0c0,0,0,0.04,0.01,0.04l0,0c0,0-0.01,0-0.03,0.01c-0.08,0.08,0,0.14-0.03,0.21c0,0.05,0.01,0.09,0.06,0.13
		c0.01,0,0.04,0,0.05,0.01c0,0.04,0,0.07,0.07,0.05c-0.04,0.04-0.07,0.08-0.07,0.12c0,0.01,0.01,0.02,0.03,0.03
		c0.03,0.07,0.1,0.1,0.13,0.16c0,0-0.01,0-0.01,0.01c0.08,0.15,0.16,0.32,0.32,0.41l0.07,0.08l0.07-0.05l-0.07-0.08
		c0,0-0.07-0.02-0.07-0.08c0.01-0.14-0.06-0.23-0.1-0.34c-0.06-0.14-0.04-0.3-0.11-0.43c0.04-0.09,0-0.14-0.04-0.2
		c0.04-0.07,0.02-0.12,0-0.18c0.02-0.08,0.03-0.15-0.05-0.21c0.13-0.06,0.05-0.09,0.05-0.15c-0.01-0.07,0.06-0.14-0.02-0.19
		l0.03-0.09v-0.07c0,0,0.01-0.01,0-0.01c0.08-0.14,0-0.27,0.05-0.4c0.03-0.03,0.01-0.07,0.02-0.1c0,0-0.01,0-0.03-0.01v-0.04
		c0,0,0.03-0.01,0.03-0.02v-0.07l0.06-0.07c0.01-0.06,0.02-0.12,0.04-0.18l0.04-0.02c-0.07,0.07-0.04,0.17,0,0.26l0,0
		c-0.04,0.05-0.01,0.11-0.04,0.15c-0.01,0-0.02,0-0.04,0v0.07v0.13c0,0.02,0,0.04-0.01,0.07c0.05,0.05,0.01,0.1,0.03,0.15l0.03,0.02
		c-0.05,0.07,0,0.13,0,0.2v0.07l0.1-0.01v-0.09c0-0.05,0.02-0.1-0.02-0.15c0-0.04,0-0.09,0.02-0.14c0.03-0.1,0.07-0.2,0-0.31
		c0.04,0,0.05-0.02,0.04-0.04c0.05-0.11,0.07-0.23,0.07-0.35c0.08-0.09,0.09-0.2,0.13-0.29c0.13-0.02,0.06-0.15,0.21-0.16
		c0.01,0,0.03-0.02,0.04-0.03c0.01-0.03,0.04-0.06,0.01-0.12c0,0,0.01,0,0.02,0l0.03-0.04c0.05,0,0.07,0,0.09-0.03
		c0.01-0.01,0.02-0.04,0.02-0.06c0.01,0,0.04,0.01,0.04,0.01l-0.04,0.07c0,0-0.05,0.09-0.07,0.14l-0.07,0.11l0,0c0,0-0.01,0-0.03,0
		c-0.05,0.1-0.1,0.21-0.14,0.32l0.03,0.04h0.01l0,0c-0.09,0.07-0.09,0.18-0.07,0.28c-0.01,0.05-0.06,0.09-0.02,0.15l-0.02,0.21
		c0,0,0.06,0.01,0.1,0c0.01-0.08,0.07-0.15,0.07-0.23l0.07-0.15c0,0,0.04-0.07,0.04-0.11c-0.01,0-0.02,0-0.03-0.01h0.01v-0.04
		l0.02-0.05h0.01c0.08,0,0-0.08,0.1-0.09c0,0.04-0.01,0.07-0.02,0.11h0.04c0,0-0.01,0-0.03,0l-0.04,0.13c0,0,0,0.08,0.01,0.12
		c0,0.05-0.05,0.09-0.02,0.15v0.18c0,0-0.05,0.09,0.03,0.12c-0.03,0.05-0.05,0.11,0.05,0.15v0.04c-0.03,0.2,0.1,0.36,0.22,0.5
		c0.05,0.08,0.1,0.16,0.16,0.23h0.01h-0.01c0.04,0.06,0.07,0.12,0.12,0.18c0.01,0,0.02-0.01,0.03-0.02l0,0l-0.03,0.03
		c0.04,0.05,0.05,0.13,0.15,0.13c0.01,0.01,0,0.06,0.05,0.06l0.07-0.07c0,0-0.05,0.03-0.07,0.06c0.01,0.01,0.04,0.03,0.06,0.04
		c0.03,0.03,0.05,0.05,0.09,0.08c0.06-0.1,0.03-0.09,0.01-0.1v-0.02c0-0.07-0.06-0.06-0.05-0.1h-0.01c0,0,0-0.09-0.1-0.05
		c-0.02,0-0.01-0.01,0-0.04c0.09-0.09,0.08-0.04,0.11-0.04v0.03c-0.04,0.07,0.02,0.04,0.05,0.03l0.03,0.03l0.05,0.06h0.01
		l-0.01,0.02c0.07,0.02,0.09,0.11,0.18,0.09c0.03,0.02,0.07,0.04,0.1,0.07c0.04-0.05,0.05-0.09,0.04-0.09
		c-0.02-0.03-0.01-0.09-0.05-0.09l0,0c0.04-0.07,0-0.04-0.03-0.06l0,0c0.06-0.11,0-0.1,0-0.13c0-0.07-0.02-0.09-0.04-0.12
		c0.03-0.07-0.03-0.07-0.04-0.1c0.04-0.1-0.06-0.12-0.03-0.2c0.04-0.06-0.04-0.07,0.03-0.13c0.04-0.01,0.08-0.03,0.13-0.04
		c0-0.01,0-0.02,0-0.04c0.03,0,0.05,0,0.07,0h0.01c0,0-0.02,0-0.03,0c0,0,0,0.01,0.02,0.01c0.03,0.02,0.02,0.06,0.08,0.06l0,0l0,0
		v0.02c0,0,0,0.04,0.03,0.02v0.02c0,0,0.02,0.03,0.04,0.03c0,0.02,0,0.02,0.05,0c0,0.03-0.01,0.04,0.02,0.03
		c0.02,0,0,0.06,0.04,0.04l0.04-0.02c-0.04,0.1,0.08,0.02,0.1,0.06c0.04-0.05,0,0.06,0.07-0.05c0.02-0.12,0-0.13-0.01-0.19
		c-0.01,0-0.02-0.02-0.03-0.04c0.04-0.06,0-0.04,0-0.05c0,0-0.01-0.02-0.02-0.03c0.03-0.04,0.07-0.08,0.01-0.07
		c0,0,0-0.01-0.01-0.02c0.01-0.01,0.01-0.01,0.01-0.02c0.03-0.04-0.02-0.06,0-0.09h-0.03c0,0,0.01,0,0.03,0
		c0.06-0.05,0.15-0.08,0.16-0.09h-0.01h0.01c0.07,0,0.04,0,0.05-0.01c0.04,0,0.07,0,0.05,0c-0.01,0-0.01,0,0,0c0.02,0,0.05,0,0.04,0
		l0,0c0,0,0.02,0,0,0c0.07,0.02,0.04,0,0.04,0c0.07,0.03,0.02,0,0.04,0.01h0.01l0,0l-0.07-0.11c0,0,0.04,0.06,0.07,0.11
		c0.01,0.02,0,0.01,0,0c0.01,0.03,0-0.03,0-0.05c0,0,0,0.03,0.01-0.04c0,0.04,0,0.02,0,0c0-0.04,0,0.02,0.02-0.04l0,0
		c0,0,0.07-0.06,0.07,0c-0.04,0.07,0,0.02,0,0.04c-0.05,0.07,0,0.01-0.01,0.04c-0.01,0.01-0.04,0.03,0.03-0.02
		c-0.05,0.04-0.06,0.05-0.05,0.05l0,0c0,0,0,0,0.01,0c-0.05,0.04-0.04,0.03-0.03,0.03s0,0,0,0s0,0,0,0.01s-0.01,0,0.04,0.02
		c0,0,0.01,0,0.02,0h-0.02c0,0,0.01,0,0.04,0.01c-0.03,0-0.01,0,0,0c0.02,0.02,0.05,0.05,0.04,0.06c-0.03,0.03-0.06,0.04-0.09,0.06
		c-0.03,0-0.04,0.04-0.1,0.15c-0.02,0.04-0.06,0.07-0.11,0.15c0-0.02-0.03,0-0.05,0.04c-0.03,0.03-0.03-0.01-0.11,0.09
		c-0.04,0.13,0,0.09,0,0.15l-0.04,0.07l-0.02,0.04L128.1,313c-0.08,0.18-0.14,0.27-0.16,0.22c0-0.02,0-0.03-0.03,0
		c-0.05,0.03-0.08,0.1-0.1,0.18c-0.01,0.07,0.02,0.04,0.03,0.06c-0.01,0.06,0.01,0.05,0.03,0.05c0.05,0.02,0.1,0.06,0.16,0.07
		c0,0,0-0.01,0.01-0.03l0,0l-0.01,0.03c0.01,0.13,0.07,0.18,0.14,0.2v0.03h-0.04c-0.08-0.01-0.16,0-0.28,0.09l-0.03,0.03
		c-0.05-0.01-0.09-0.07-0.18,0.02c-0.01,0-0.03,0-0.05,0.04c-0.04,0.03-0.05,0-0.1,0.04l-0.03,0.03c-0.07,0.07-0.05,0.14-0.1,0.21
		c-0.07,0.01-0.14,0.08-0.2,0.21c-0.01,0.03-0.01,0.04,0,0.05v0.09c0.1,0.09,0.21,0.12,0.21,0.4c-0.07,0.04-0.1-0.04-0.16-0.03
		c-0.03,0-0.05-0.07-0.1,0.05c0,0.07,0.03,0.08,0.04,0.12h0.01v0.01v0.05c0.01,0.09,0.07,0.13,0.12,0.19
		c0.02,0.02,0.04,0.06,0.09,0.04c0,0,0,0,0-0.01l0.09,0.04c0,0.17-0.06,0.11-0.11,0.12c-0.03,0-0.06,0-0.09,0v-0.02
		c0,0-0.06-0.04-0.1-0.02h-0.13c-0.1,0-0.14,0.11-0.19,0.21c-0.07-0.01-0.13-0.04-0.21,0c-0.07,0-0.13,0.04-0.19,0.12l-0.23,0.12
		c-0.1,0.09-0.12,0.18-0.07,0.28c-0.05,0.1-0.05,0.18,0.04,0.23c0.04,0.11,0.13,0.17,0.23,0.2c0.24,0.09,0.49,0.15,0.73,0.25
		c0.03,0.02,0.06,0.04,0.1,0.06c0.35,0.14,0.74,0.12,1.11,0.16c0.02,0.03,0.04,0.04,0.07,0.05c-0.04,0-0.07,0.01-0.12,0.04h-0.43
		c-0.15-0.04-0.29-0.08-0.44-0.05c-0.07-0.04-0.15-0.05-0.22-0.04c-0.19-0.05-0.38-0.13-0.58-0.14l-0.11-0.03
		c-0.09-0.04-0.18-0.08-0.27-0.1s-0.07,0.03-0.02,0.07c0.09,0.09,0.21,0.12,0.33,0.14c0.28,0.18,0.61,0.23,0.93,0.3l0,0
		L127.53,317.34z M152.79,307.57h-0.03c-0.4-0.17-0.86-0.28-1.31-0.4c-0.1-0.07-0.21-0.12-0.36-0.1c-0.15-0.06-0.3-0.11-0.46-0.16
		l-0.39-0.12c-0.15-0.04-0.31-0.09-0.47-0.14c-0.22-0.16-0.5-0.15-0.74-0.26c-0.1-0.04-0.21-0.07-0.32-0.11l-0.27-0.08l-0.31-0.1
		c-0.05-0.04-0.11-0.05-0.17-0.05c-0.08,0-0.13-0.12-0.23-0.04c-0.08-0.07-0.15-0.15-0.27-0.14c-0.08-0.04-0.16-0.11-0.26-0.08
		c-0.21-0.07-0.41-0.18-0.63-0.23c-0.02,0-0.04-0.01-0.07-0.02h-0.01c0,0-0.03,0-0.04,0c-0.37-0.1-0.71-0.29-1.1-0.34l-0.3-0.1
		l-1.3-0.51c-0.03-0.05-0.09-0.05-0.13-0.07c-0.26-0.15-0.54-0.25-0.81-0.37l-0.29-0.13c-0.18-0.15-0.4-0.22-0.61-0.31l-0.07-0.03
		l-0.27-0.12l-0.13-0.07l-0.32-0.15c-0.02-0.07-0.08-0.07-0.14-0.06l-0.1-0.04l-0.1-0.05l-0.05-0.03c-0.13-0.07-0.27-0.16-0.41-0.2
		c-0.03-0.01-0.07-0.03-0.1-0.03c-0.12-0.07-0.23-0.17-0.38-0.18l-0.3-0.13c-0.16-0.05-0.29-0.17-0.46-0.19
		c-0.01,0-0.04-0.01-0.06,0c-0.11-0.04-0.2-0.13-0.34-0.11c-0.03-0.07-0.1-0.07-0.16-0.07c-0.07-0.04-0.12-0.1-0.21-0.07l-0.1-0.04
		c-0.05-0.04-0.12-0.04-0.18-0.04c-0.09-0.04-0.15-0.13-0.28-0.09c-0.1-0.08-0.22-0.11-0.35-0.12c-0.21-0.08-0.41-0.15-0.64-0.18
		c-0.04-0.01-0.07-0.07-0.12,0l-0.06-0.02l-0.05-0.04c-0.03-0.11-0.13-0.12-0.21-0.15c-0.2-0.09-0.4-0.18-0.62-0.23
		c-0.06-0.04-0.13-0.07-0.21-0.06l-0.03-0.02l-0.24-0.09c-0.05,0.04-0.03,0.07-0.01,0.1l0.35,0.2l0.38,0.22h0.01l0.13,0.11l0,0
		c0.07,0,0.12,0.04,0.17,0.07l0,0c0,0-0.07,0.03-0.08,0.09l0.25,0.13l0.03-0.03l0.29,0.15l0.35,0.26c0,0,0.02,0.02,0.03,0.03
		c0.11,0.12,0.26,0.16,0.39,0.24c0,0,0,0.02,0,0.04c-0.08-0.01-0.13-0.09-0.24-0.06c-0.07-0.08-0.13-0.14-0.24-0.13l0,0l-0.07-0.08
		c-0.04-0.02-0.08,0-0.13,0.02c0-0.01,0-0.03,0-0.04l-0.13-0.07l-0.13-0.07l-0.13-0.07l-0.13-0.07l-0.1-0.05l-0.06-0.04l-0.13-0.07
		c-0.07,0-0.12-0.04-0.18-0.04l0,0c-0.16-0.05-0.29-0.13-0.46-0.12c-0.01,0.11,0.07,0.1,0.11,0.14c0.03,0.06,0.07,0.1,0.13,0.13
		c0.04-0.01,0.07,0.02,0.1,0.02h0.01c0,0,0.08,0.06,0.12,0.09c0.03,0.01,0.06,0.04,0.1,0.04c0.01,0,0.03,0,0.04,0l0.1,0.06l0.15,0.1
		c0.01,0.07,0.07,0.1,0.12,0.12c0.02,0,0.04,0,0.06,0c0,0,0.01-0.01,0.02-0.02l0,0l0.31,0.23c0.01,0,0.04,0.01,0.06,0.01
		c0.09,0,0.15,0.08,0.25,0.03c0,0.01,0,0.03,0.01,0.04c0.02,0.02,0.04,0.04,0.07,0.04c0,0,0,0,0.01,0c0.06,0.11,0.2,0.11,0.27,0.2
		c0.22,0.06,0.41,0.2,0.63,0.26c0.02,0,0.04-0.01,0.07-0.04l0.41,0.22c-0.11,0.07-0.16-0.04-0.24-0.07c0,0-0.01,0-0.02,0.01
		c-0.1-0.04-0.16-0.12-0.28-0.09l-0.16-0.09c0,0-0.07-0.03-0.11-0.03c-0.03,0-0.03,0-0.01,0c0.03,0-0.07-0.05-0.11-0.05l-0.15-0.07
		h-0.02c0,0-0.02,0-0.04,0l0,0l-0.2-0.09c0,0-0.01-0.02-0.01-0.03c-0.03-0.03-0.07-0.04-0.1-0.08c0,0-0.01,0-0.02,0
		c-0.03,0-0.05,0-0.08,0.01c0-0.04-0.02-0.07-0.05-0.08l-0.05,0.02c-0.05-0.07-0.15,0.06-0.2-0.01c-0.09-0.03-0.1-0.17-0.19-0.18
		l-0.04,0.07l0,0c0,0,0,0,0-0.01c-0.04-0.01-0.07-0.06-0.13-0.04c-0.14-0.1-0.34-0.08-0.47-0.19l-0.1-0.07c0,0-0.09-0.07-0.15-0.04
		l-0.07-0.02h-0.04c0,0-0.01-0.04-0.02-0.04c0-0.07-0.04-0.07-0.07-0.1c-0.17-0.05-0.28-0.21-0.48-0.21l-0.07-0.02
		c-0.05-0.03-0.04-0.16-0.16-0.09h-0.03c-0.07,0.07-0.16-0.03-0.23,0.09c0.04,0.02,0.08,0.04,0.07,0.1l-0.05,0.08
		c-0.07,0.05,0,0.04,0,0.07l0.06,0.04c0.03,0.12,0.16,0.12,0.23,0.2h0.01l0.04,0.03c0.01,0.03,0.04,0.04,0.07,0.03
		c0.02-0.04,0.04-0.07,0.08-0.07l0.07,0.1l0.05-0.04l0,0c0.02,0,0.04,0,0.07,0c-0.03,0.02-0.06,0.05-0.08,0.08
		c0,0.02-0.01,0.04,0,0.06c0.01,0.04,0.04,0.05,0.08,0.06c0.07,0,0.14,0,0.21,0s0.09,0.05,0.1,0.12c0,0.01,0.01,0.01,0.02,0.02
		c0.04,0.09,0.02,0.15-0.1,0.15l0,0v0.01l0,0l-0.07-0.04c0-0.04-0.01-0.07-0.04-0.08h-0.13c0,0-0.02,0-0.02,0.01l0,0
		c0,0-0.04,0.05-0.04,0.08c-0.02-0.04,0-0.07,0.04-0.08h0.02c0.06-0.16-0.06-0.15-0.11-0.18c-0.03-0.01-0.06-0.02-0.09,0l-0.07,0.12
		h-0.12c0,0-0.04-0.04-0.08-0.05c-0.05,0-0.1,0-0.16,0.05c-0.04,0.03-0.04,0.04,0,0.01c0.06-0.04-0.04-0.04-0.07-0.04l0,0
		c0-0.07,0-0.12,0-0.18c0-0.01-0.02-0.02-0.04-0.01c-0.01,0-0.02,0-0.04,0c-0.01,0-0.03,0.02-0.04,0.03c0-0.03-0.01-0.06-0.02-0.09
		c-0.03-0.03-0.06-0.04-0.1,0c0,0,0,0,0,0.01h-0.02c-0.05,0.04-0.08,0-0.12-0.01c-0.05,0.15,0.04,0.11,0.1,0.11c0,0,0,0,0,0.01
		c-0.02,0.04-0.03,0.09-0.02,0.13c0.07,0.04,0.13,0.07,0.21,0.07l0.05,0.07l0.16,0.09c0.04,0.05,0.13,0.04,0.15,0.13l0.15,0.04
		c0,0,0.07-0.06,0.08-0.1c0-0.01,0-0.02-0.01-0.04l0.03-0.04h0.01l0.01,0.01c-0.02,0.06-0.1,0.12-0.05,0.18
		c0.06,0.02,0.09,0.11,0.17,0.07l0.04,0.07c0,0,0,0.06,0.01,0.08h0.01l0.2,0.11c0,0,0.02-0.01,0.03-0.03h0.01h0.01l0.2,0.16
		l0.03-0.02l0.4,0.19l0.03,0.02l0.1,0.06l0.2,0.1c0,0,0.02,0,0.03,0c0,0,0,0,0.01,0c0.04,0.01,0.07,0.04,0.09,0.07
		c0.05,0.05,0.12,0.08,0.19,0.11c0.03,0,0.06,0,0.1,0c0.03,0,0.03,0,0-0.01v0.03c0,0,0.03,0.01,0.04,0.01
		c0,0.04,0.04,0.07,0.08,0.09c0,0,0.01,0,0.02,0c-0.04,0-0.07,0.06-0.11,0.03c-0.02-0.02-0.04,0-0.05,0.02
		c0-0.01-0.01-0.03-0.03-0.04c0-0.09-0.12-0.05-0.13-0.13l-0.08-0.04c0,0,0-0.01,0-0.03c-0.02-0.03-0.04-0.04-0.08-0.02h-0.04l0,0
		c-0.01-0.02-0.04-0.03-0.07-0.03c0-0.01,0-0.04,0-0.05c-0.04-0.05-0.1-0.05-0.16,0c0,0,0-0.01,0-0.03s-0.01-0.04-0.03-0.05
		c-0.16-0.07-0.32-0.15-0.54-0.07h-0.04c-0.04,0.17,0.1,0.12,0.15,0.18l0.11,0.06c0.04,0.1,0.13,0.12,0.23,0.12l0.02,0.04
		c0,0,0.04,0.04,0.07,0.04c0,0,0.01,0,0.01-0.01l0.14,0.02h0.01l0,0h-0.01v0.04l-0.09,0.13c0.01-0.17-0.09-0.18-0.21-0.17
		l-0.45-0.21c0,0,0,0.02,0,0.03c0-0.01,0.01-0.02,0-0.03c-0.21-0.15-0.45-0.26-0.68-0.38h-0.03l-0.16-0.11c0,0-0.01-0.01-0.02-0.02
		v-0.04l-0.52-0.28l-0.3-0.17h-0.09c-0.17-0.09-0.36-0.12-0.56-0.14c0,0.01-0.01,0.02-0.02,0.03h-0.03c0,0-0.09,0-0.14,0.02
		c0.16,0.38,0.51,0.49,0.8,0.69v0.06c0.18,0.07,0.2,0.29,0.36,0.36c0,0.08,0.08,0.07,0.13,0.12c0.04,0.07,0.07,0.12,0.15,0.13l0,0
		c0,0.01,0,0.03-0.01,0.06c0.05,0.07,0.15,0.09,0.2,0.18c0.05,0.05,0.11,0.09,0.2,0.07c0.06-0.01,0.06-0.02,0-0.01l0,0
		c0,0,0,0.03,0,0.04h-0.13c0,0-0.01-0.02-0.02-0.02l-0.05-0.08h-0.04c0,0-0.02-0.02-0.03-0.03l-0.07-0.04l-0.06-0.04
		c-0.01-0.07-0.07-0.07-0.13-0.04c0,0.07,0.04,0.1,0.07,0.12v0.07c0.02,0.07,0.07,0.09,0.12,0.11l-0.03,0.06
		c-0.07-0.04-0.13-0.1-0.22-0.09l-0.14-0.07c0,0,0-0.01,0.01-0.02c-0.13-0.04-0.25-0.07-0.38-0.07c-0.13,0.13,0.04,0.15,0.03,0.23
		l0.03,0.02c0.02,0.14,0.2,0.07,0.24,0.19c-0.01,0.1,0.1,0.08,0.11,0.15l0.49,0.28l0.07,0.04l0.1,0.06h0.04v0.03h0.01
		c0,0,0.03,0.04,0.04,0.04c0.12,0.11,0.28,0.15,0.41,0.25l0.02,0.04c0,0-0.03,0-0.04,0h-0.13c0,0-0.05,0.04-0.04,0.08l0.2,0.11l0,0
		l0.01,0.01c0,0.06,0.06,0.07,0.09,0.09l0.24,0.12c0,0,0.02,0.04,0.04,0.06c0.32,0.22,0.67,0.36,1,0.57l0.03,0.03
		c0,0.07,0.04,0.07,0.07,0.09c0.04,0.02,0.07,0.09,0.12,0.02c0.01,0,0.03,0,0.04-0.01h0.01c0,0-0.01,0.03,0,0.04
		c0.07,0.15,0.27,0.11,0.34,0.25c0.2,0.18,0.44,0.27,0.68,0.36c0.13,0,0.21,0.12,0.33,0.11c0.17,0.02,0.32,0.11,0.48,0.17
		c0.1,0.04,0.18,0.09,0.3,0.07l0,0l0.48,0.2c0.04,0.01,0.04,0.04,0.03,0.09l0.17-0.02c0,0,0,0.02,0,0.04
		c0.01,0.09,0.04,0.17,0.15,0.12h0.13l0.05,0.09c0.02,0.09,0.13,0.05,0.17,0.12c0,0,0.01,0,0.02,0.01c0.13-0.07,0.15,0.12,0.25,0.12
		h0.24c-0.01,0.13,0.07,0.12,0.15,0.12c0.1,0,0.12,0.13,0.2,0.17l0.09-0.02l0.02-0.04h0.03l0.04-0.04c0,0,0.04,0.02,0.06,0.02
		c0.03,0.03,0.05,0.08,0.1,0.09c0.47,0.18,0.92,0.41,1.37,0.61c0.09,0.04,0.18,0.09,0.28,0.05c0,0,0.01-0.02,0.01-0.03l0.06,0.07
		h0.02c-0.02,0.11,0,0.13,0.16,0.17l0.69,0.25c0.08,0.03,0.15,0.06,0.24,0.04c0.43,0.15,0.86,0.26,1.28,0.42
		c0.53,0.2,1.06,0.4,1.6,0.56c0.19,0.15,0.44,0.17,0.66,0.25l0.87,0.28c0,0,0.1,0.03,0.08,0.03v0.02h0.01l0,0c-0.06,0.02,0,0,0,0
		l0,0c0,0,0.07,0,0.09,0h-0.09v0.01v0.07c0,0.07,0,0.23,0,0.18c0,0,0,0,0.03,0.01c0,0,0,0,0.02,0c0,0.01,0.02,0.04,0.02,0.07v0.02
		c0,0-0.04,0.01-0.06,0.02l0,0l-0.05,0.02l-0.21,0.07l-0.35,0.12c0,0-0.03,0-0.04,0.01h-0.03c-0.52,0.15-1,0.38-1.47,0.63
		c-0.17,0.09-0.34,0.18-0.52,0.23c-0.37,0.11-0.72,0.23-1,0.54l-0.15,0.15c-0.09,0.03-0.15,0.09-0.16,0.21
		c-0.09,0.09-0.14,0.22-0.14,0.37c-0.06,0.12-0.03,0.26,0,0.39c0.01,0.06,0.04,0.12,0.04,0.16c-0.07,0.53,0.29,0.84,0.55,1.2
		c0.41,0.57,0.92,0.63,1.41,0.69c0.72,0.09,1.38-0.05,2.05-0.15c0.13,0.03,0.22-0.04,0.33-0.05c0.33,0,0.65-0.12,0.97-0.14
		c0.05,0,0.07,0,0.15,0l0.23-0.03l0.47-0.07c0.32-0.05,0.64-0.12,0.97-0.19c0.59-0.09,1.18-0.23,1.76-0.36
		c0.03-0.16,0.04-0.34,0.07-0.52c0.07-0.05,0.07-0.15,0.03-0.27l0.02-0.26c0.13-0.63,0.17-1.32,0.21-2.01
		c0.01-0.29,0.02-0.63,0.02-0.89v-0.72c-0.02-0.28-0.03-0.55-0.04-0.82c-0.04-0.83-0.06-1.67-0.16-2.49c0-0.09,0-0.18,0-0.27
		c-0.3-0.11-0.64-0.19-0.98-0.27h-0.03l0,0L152.79,307.57z M141.89,313.83c-0.01-0.18-0.02-0.35-0.07-0.53
		c-0.02-0.08,0.01-0.18-0.1-0.26v0.19c-0.02,0.08,0.02,0.17-0.04,0.25c-0.04,0.03-0.05,0.07-0.05,0.11c0,0.06,0,0.12,0.02,0.18
		c0,0,0.01,0,0.01,0.01c0,0.02-0.01,0.04-0.02,0.07v-0.04c0,0-0.01-0.04-0.03-0.05c0-0.11,0-0.22-0.02-0.33c0-0.12-0.01-0.23,0-0.35
		c0.01-0.03,0.01-0.06,0-0.09c-0.01-0.02-0.01-0.02-0.01,0v-0.14c-0.02-0.07,0.05-0.15-0.05-0.24c-0.04,0.15-0.11,0.27-0.09,0.42
		c-0.06,0.05-0.04,0.12-0.04,0.18c-0.06,0.08-0.04,0.17-0.04,0.25l-0.04,0.21c0,0-0.04,0.09-0.05,0.13c0-0.02-0.01-0.04-0.04-0.05
		l-0.04-0.04c0-0.08,0.01-0.17-0.05-0.25v-0.14c0,0-0.07-0.02-0.1,0v0.14l-0.05,0.39c0,0,0,0.01,0,0.02c0,0-0.01,0.02-0.02,0.03
		c-0.05,0.07-0.03,0.13-0.03,0.2c0,0.01,0,0.03,0.01,0.05v0.06c0,0-0.04,0.06-0.04,0.09c0-0.01-0.02-0.03-0.03-0.04l-0.02-0.02
		c0.04-0.07,0.01-0.15,0-0.22c-0.01-0.05,0-0.05,0.01,0c0.02,0.07,0.04-0.01,0.05-0.03c0.01-0.04,0-0.07-0.02-0.09v-0.07v-0.07
		c0-0.01,0-0.02,0-0.03l0,0c0-0.01,0-0.03,0-0.04c-0.05-0.04-0.1-0.09-0.19-0.06c0.01,0.14-0.16,0.25-0.09,0.39
		c-0.16,0.07-0.1,0.2-0.13,0.3c-0.04,0.04-0.04,0.09-0.04,0.13c0,0.01,0.01,0.04,0.03,0.05c0,0,0.01,0,0.02,0v0.17
		c-0.01,0.06,0.03,0.13-0.04,0.19v0.07l0.08,0.07c-0.15,0.11-0.02,0.25-0.07,0.36l0.06,0.11v0.04c-0.06,0.03-0.07,0.06-0.05,0.1
		c0,0,0.01,0,0.02,0c-0.02,0.02-0.03,0.04-0.04,0.07c0-0.04-0.02-0.09-0.07-0.17c-0.04-0.04-0.04-0.07-0.04-0.11
		c0-0.02,0.02-0.05,0.02-0.07c0-0.03,0-0.05-0.02-0.07l0,0c0-0.01,0.01-0.02,0-0.04s-0.02-0.03-0.04-0.04l-0.02-0.09
		c0,0,0-0.01,0-0.02c0-0.01,0-0.03,0-0.04l0,0c0,0,0.01,0,0.03,0c0.1-0.07,0.04-0.18,0.08-0.26c0.01-0.07,0.01-0.12,0-0.19
		c-0.01-0.01-0.03-0.03-0.04-0.04c0.01-0.04,0.01-0.09-0.05-0.09c0.04-0.03,0.1-0.07,0.11-0.12c0-0.01,0-0.04-0.01-0.05
		c0-0.09-0.04-0.18-0.04-0.26c0,0,0.01,0,0.02,0c0-0.23,0.03-0.46-0.06-0.68v-0.15h-0.09v0.15c-0.03,0.05,0.05,0.09,0.01,0.15
		c-0.08,0.15-0.08,0.31-0.1,0.47c-0.01,0.2-0.1,0.41-0.07,0.61c-0.07,0.09-0.05,0.2-0.03,0.29c-0.07,0.08-0.05,0.16-0.04,0.25
		c-0.04,0.11-0.06,0.22,0.01,0.32c-0.13,0.04-0.07,0.13-0.07,0.2c0,0.09-0.07,0.2,0,0.29l-0.03,0.15v0.11c0,0-0.01,0.01,0,0.02
		c-0.07,0.21,0.02,0.42,0,0.63c-0.02,0.06,0,0.11,0,0.17c0.01,0,0.02,0.01,0.03,0.01v0.07c0,0-0.02,0.02-0.01,0.04l0.02,0.1
		l-0.04,0.12l0.02,0.29l-0.04,0.06c0.04-0.15-0.02-0.27-0.08-0.4c0,0,0-0.01,0-0.02c0.02-0.07-0.01-0.15,0-0.23
		c0,0,0.02,0,0.03-0.01v-0.11l-0.03-0.21v-0.12c-0.05-0.08-0.01-0.17-0.03-0.25l-0.03-0.04c0.04-0.11,0-0.22-0.01-0.33v-0.11h-0.1
		v0.15c0,0.09-0.02,0.17,0.02,0.26c0,0.08,0,0.15,0,0.23c-0.02,0.18-0.04,0.36,0.05,0.53c-0.04,0.02-0.04,0.05-0.03,0.08
		c-0.02,0.2,0,0.41,0.04,0.61c-0.04,0.19,0,0.37,0,0.56c-0.1,0.13,0.02,0.28-0.1,0.42c0,0.03-0.01,0.06-0.01,0.09
		c0,0.07,0,0.14,0.06,0.19l0,0c0,0-0.01,0-0.01,0.02v0.1c0,0-0.05,0.09-0.04,0.15c0,0.04,0.01,0.08,0.03,0.12
		c-0.02,0-0.03,0.02-0.04,0.04v-0.14l-0.05-0.29v-0.25c0,0,0,0,0.01-0.01l-0.05-0.65l-0.04-0.07c0.04-0.19,0-0.37-0.05-0.55
		c0-0.09,0.02-0.2-0.03-0.28l-0.02-0.4c0,0-0.07-0.01-0.1,0c0,0.16-0.04,0.32,0,0.48l-0.02,0.34c-0.03,0.08-0.01,0.17,0,0.25
		c0.01,0,0.02,0,0.04,0c0,0,0,0-0.01,0v0.07l0.01,0.11c0,0,0,0.01,0,0.03c-0.07,0.07,0.03,0.17-0.05,0.26
		c-0.01-0.09-0.03-0.17-0.04-0.24c-0.01,0-0.02,0-0.04,0.01l0,0c0,0,0.02,0,0.04-0.01l-0.02-0.29l-0.06-0.26
		c-0.02-0.11,0.01-0.22-0.03-0.33v-0.04l-0.01-0.07l-0.02-0.29c-0.02-0.09,0.03-0.19-0.05-0.27c0.03-0.12,0.04-0.23-0.07-0.33v-0.09
		c0.02-0.43-0.07-0.84-0.16-1.26l-0.07-0.66c0,0-0.01,0-0.01,0.01l0,0l0.01-0.01l-0.02-0.51c0,0-0.03,0-0.04,0c0.01,0,0.02,0,0.04,0
		c0-0.16,0.03-0.33-0.04-0.48c0-0.06,0.03-0.12,0-0.18v-0.18v-0.3c-0.11,0.06-0.08,0.11-0.09,0.15v0.07
		c-0.07,0.08-0.02,0.18-0.05,0.27h0.01c0,0.1-0.07,0.2,0.03,0.3c0.01,0.03,0,0.06-0.02,0.09c-0.13,0.05-0.09-0.05-0.12-0.09v-0.07
		c0.09-0.06,0.02-0.1,0-0.15v-0.11v-0.26h0.02c-0.04-0.18,0.02-0.37-0.06-0.55v-0.36c-0.07-0.01-0.11,0.02-0.11,0.07
		c-0.01,0.1-0.07,0.2-0.05,0.3h0.01c-0.09,0.07-0.04,0.15-0.04,0.22c0,0-0.01,0.01,0,0.02c-0.11,0.07-0.07,0.18-0.08,0.27
		c-0.05,0.13-0.05,0.27-0.05,0.41c-0.06,0.12-0.01,0.25-0.04,0.37c-0.08,0.23,0,0.48-0.07,0.72c-0.07,0.15,0.01,0.31-0.07,0.45
		c-0.05,0-0.09-0.04-0.13-0.06c0,0.05-0.01,0.09-0.02,0.17c-0.03-0.06-0.05-0.09-0.07-0.12h-0.01c0,0,0.02,0,0.03-0.01
		c0-0.04,0-0.07-0.01-0.1c-0.02-0.17,0-0.34-0.06-0.5l0,0l-0.01-0.02v-0.15c0.05-0.05,0.04-0.1,0-0.15v-0.15
		c0.01-0.07,0-0.15-0.01-0.23c0.01-0.07,0-0.13-0.04-0.19c0.02-0.07,0.04-0.15,0-0.23c-0.01-0.11,0.04-0.23,0-0.34l-0.04-0.11
		c0.1-0.24-0.04-0.47,0-0.72c-0.07-0.07,0.05-0.18-0.08-0.23c-0.1,0.31-0.11,0.63-0.15,0.94v0.41c-0.07,0.09-0.03,0.2-0.03,0.31
		v0.34c-0.04,0.18-0.1,0.36-0.04,0.55v0.33c0,0.05,0,0.1,0,0.16c-0.03,0.35,0.02,0.7,0,1.05h0.03c0,0-0.01,0-0.03,0
		c-0.05,0.4-0.12,0.81-0.1,1.22h0.01c0,0,0,0.01,0,0.02c0,0,0-0.01,0-0.02c-0.06,0.12-0.02,0.26-0.02,0.38
		c-0.04,0.15-0.04,0.31-0.01,0.47c0,0.01,0,0.03,0,0.04c-0.04,0.12-0.04,0.25,0,0.37v0.1c0,0-0.02,0.06,0,0.09
		c-0.07,0.21,0,0.42,0,0.64c-0.04,0.37,0.05,0.74,0.07,1.11l0.11,0.94c-0.01,0.07,0,0.13,0.02,0.19c-0.01,0.1,0.01,0.2,0.04,0.3
		l0.02,0.15c0,0.13,0.01,0.26,0.05,0.38l0.04,0.26c0.05,0.57,0.2,1.12,0.3,1.67c0.05,0.28,0.07,0.58,0.18,0.85
		c-0.01,0.11,0.02,0.21,0.06,0.31c0.08,0.23,0.07,0.49,0.18,0.72c0,0.05,0,0.1,0.02,0.15c0.13,0.53,0.3,1.06,0.38,1.61
		c0,0.01,0,0.02,0,0.03c-0.03,0.2,0.08,0.38,0.1,0.58c-0.03,0.26,0.1,0.5,0.14,0.75c0,0.07-0.01,0.13,0.07,0.15
		c-0.03,0.1-0.03,0.2,0,0.29c0,0.04,0.02,0.07,0.03,0.1v0.02l0,0l0,0h0.01h0.01c-0.07,0.02-0.04,0.01-0.04,0.03l0,0v0.02
		c0,0,0,0-0.01,0.01c-0.01,0-0.02,0,0,0.04c0,0,0,0.01,0.01,0.02v-0.02h-0.01c-0.08,0.02-0.18,0.12-0.21,0.18
		c-0.02-0.03-0.01-0.01-0.01,0c0,0.04-0.02,0.09-0.05,0.09c-0.01,0-0.04,0.01-0.05,0l-0.04-0.06l-0.02-0.02l-0.07-0.18
		c-0.61-0.58-1.25-1.13-1.95-1.61c-0.3-0.2-0.6-0.42-0.93-0.59c-0.08-0.1-0.2-0.16-0.32-0.21c-0.16-0.08-0.28-0.25-0.5-0.24
		c0,0.18,0.15,0.23,0.21,0.35l-0.05,0.07h-0.06l-0.06,0.02c-0.14,0.15-0.27,0.17-0.38,0.04c-0.01-0.04-0.04-0.07-0.09-0.07
		c-0.14-0.04-0.14,0.04-0.14,0.14c0,0.08,0.08,0.1,0.13,0.15c0,0.07,0.05,0.09,0.1,0.12l0.41,0.38c0.06,0.2,0.18,0.35,0.32,0.5
		h-0.04l-0.06-0.04c-0.18-0.15-0.38-0.28-0.62-0.32h-0.05c-0.11-0.09-0.19-0.22-0.37-0.2c-0.02-0.02-0.06-0.02-0.09,0
		c-0.07,0-0.1-0.07-0.18-0.04h-0.05c-0.12,0.04-0.06,0.15-0.13,0.2c-0.12-0.04-0.21,0-0.29,0.12c-0.02,0.02-0.02,0.04-0.01,0.06
		v0.12c0.16,0.16,0.33,0.3,0.27,0.58c-0.1,0-0.13-0.1-0.21-0.13c-0.04-0.02-0.07-0.1-0.13,0c-0.01,0.07,0.03,0.11,0.04,0.16h0.01
		l0.01,0.03v0.06c0,0.11,0.06,0.18,0.1,0.26c0.02,0.04,0.04,0.08,0.1,0.09l0,0l0.09,0.09c-0.04,0.17-0.11,0.07-0.17,0.04l-0.11-0.04
		c0,0,0-0.01,0-0.02c-0.04-0.03-0.06-0.07-0.12-0.08l-0.14-0.07c-0.12-0.06-0.18,0.04-0.26,0.13c-0.07-0.04-0.13-0.09-0.23-0.07
		c-0.07-0.01-0.15,0-0.22,0.07L132,329.7c-0.12,0.07-0.15,0.16-0.13,0.27c-0.07,0.09-0.09,0.18-0.01,0.23
		c0.01,0.11,0.07,0.18,0.16,0.25c0.19,0.15,0.4,0.28,0.55,0.46c0.01,0.03,0.03,0.07,0.05,0.09c0.23,0.26,0.54,0.44,0.78,0.69
		c0,0.04,0,0.06,0.01,0.08c-0.03-0.02-0.06-0.04-0.1-0.04l-0.3-0.25c-0.1-0.09-0.18-0.19-0.32-0.23c-0.04-0.07-0.09-0.11-0.16-0.12
		c-0.14-0.12-0.25-0.26-0.44-0.32l-0.08-0.06c-0.07-0.06-0.12-0.12-0.2-0.16c-0.07-0.04-0.07,0.01-0.04,0.06
		c0.05,0.1,0.14,0.16,0.24,0.2c0.17,0.23,0.41,0.39,0.61,0.59l0.1,0.09c0.12,0.13,0.25,0.25,0.4,0.34c0,0.02,0.03,0.04,0.04,0.05
		c0.21,0.23,0.47,0.41,0.7,0.61c0.13,0.12,0.24,0.26,0.4,0.35l0.13,0.12l0.05,0.05l0.86,0.81c0.74,0.72,1.47,1.48,2.21,2.18
		l0.44-0.21c0.32-0.12,0.66-0.26,0.98-0.46c0.3-0.18,0.62-0.22,0.92-0.43l0.13-0.06l0.26-0.13c0.28-0.14,0.56-0.28,0.84-0.44
		c0.38-0.21,0.33-0.19,0.66-0.38l0.38-0.23c0.29-0.18,0.58-0.36,0.86-0.55l0.06-0.04l2.07-1.44l-0.21-0.74
		c-0.13-0.47-0.23-0.95-0.42-1.42l-0.16-0.54l-0.22-0.88l-0.1-0.45c0.03-0.06,0-0.1,0-0.15l-0.13-0.61
		c-0.15-0.3-0.14-0.64-0.27-0.93c-0.07-0.18,0.01-0.39-0.14-0.54c-0.04-0.12-0.09-0.26-0.11-0.38c-0.04-0.26-0.09-0.53-0.17-0.78
		l0.03-0.04l-0.04-0.05v-0.02c0.12-0.04,0.07-0.12,0.06-0.18c-0.03-0.18-0.13-0.35-0.12-0.55c-0.05-0.12-0.01-0.26-0.1-0.37
		c0.01-0.03,0.04-0.06,0.03-0.08l-0.17-1.07l-0.08-0.27c0,0-0.03,0-0.04,0h0.04c0-0.12-0.03-0.23-0.09-0.33
		c0-0.06,0.04-0.12-0.02-0.18c-0.02-0.36-0.05-0.71-0.13-1.06l-0.11-0.97l-0.07-0.66v-0.07c0.02-0.1-0.03-0.19-0.05-0.28
		c0.03-0.11,0-0.21-0.01-0.31v-0.18l-0.04-0.25v-0.21c-0.05-0.31-0.04-0.64-0.12-0.95c-0.01-0.23,0.04-0.45-0.04-0.67l0,0v-0.03
		c0.04-0.17-0.04-0.33-0.04-0.5c0-0.31-0.01-0.61-0.07-0.92v-0.2h0.01L141.89,313.83z"/>
	<g class="st15">
		
			<radialGradient id="SVGID_00000003107382839698722380000017848841098497744300_" cx="128.5" cy="338.49" r="111.25" gradientTransform="matrix(1 0 0 -0.05 0 670.7048)" gradientUnits="userSpaceOnUse">
			<stop  offset="0" style="stop-color:#000000"/>
			<stop  offset="1" style="stop-color:#000000;stop-opacity:0"/>
		</radialGradient>
		<ellipse style="fill:url(#SVGID_00000003107382839698722380000017848841098497744300_);" cx="128.5" cy="651" rx="112" ry="5"/>
	</g>
	<path class="st8" d="M192.5,648.83h-128v3.04c0,2.28,28.65,4.12,64,4.12s64-1.85,64-4.12V648.83z"/>
	<path class="st8" d="M147.33,630l-2.83-8h-32l-2.83,8c-3.75,10.27-15.19,15.06-28.79,16.05c-10.19,0.74-16.39,1.71-16.39,2.78
		c0,2.3,28.65,4.17,64,4.17s64-1.86,64-4.17c0-1.07-6.2-2.04-16.39-2.78c-13.59-0.99-25.03-5.78-28.79-16.05H147.33z"/>
	
		<linearGradient id="SVGID_00000135684613884505049950000002489158438357885836_" gradientUnits="userSpaceOnUse" x1="128.5" y1="446.7645" x2="128.5" y2="591.0129" gradientTransform="matrix(1 0 0 1 0 33.11)">
		<stop  offset="0" style="stop-color:#0D0A10"/>
		<stop  offset="1" style="stop-color:#281D30"/>
	</linearGradient>
	<path style="fill:url(#SVGID_00000135684613884505049950000002489158438357885836_);" d="M8.57,623c-3.9,0-7.07-3.14-7.07-7V488
		c0-3.86,3.17-7,7.07-7h239.86c3.9,0,7.07,3.14,7.07,7v128c0,3.86-3.17,7-7.07,7H8.57z"/>
	<path class="st9" d="M248.43,482c3.35,0,6.07,2.69,6.07,6v128c0,3.31-2.72,6-6.07,6H8.57c-3.35,0-6.07-2.69-6.07-6V488
		c0-3.31,2.72-6,6.07-6H248.43 M248.43,480H8.57c-4.46,0-8.07,3.58-8.07,8v128c0,4.42,3.61,8,8.07,8h239.86c4.46,0,8.07-3.58,8.07-8
		V488C256.5,483.58,252.89,480,248.43,480L248.43,480z"/>
	<path class="st25" d="M102.72,548.46c0.96-1.91,2-4.82,2.95-7.38l-3.13-0.74c-0.52,2.21-1.56,5.43-2.43,7.43L102.72,548.46z"/>
	<path class="st25" d="M91.95,548.33l2.91-0.69c-0.26-1.91-1.09-4.82-2.04-6.99l-2.74,0.61c0.91,2.21,1.65,5.17,1.87,7.08
		L91.95,548.33z"/>
	<polygon class="st25" points="108.15,536.82 99.29,536.82 99.29,532.17 96.12,532.17 96.12,536.82 87.39,536.82 87.39,539.73 
		108.15,539.73 	"/>
	<path class="st25" d="M74.73,532.04h-3.34v16.66c-1.77-2.04-3.3-4.2-4.47-6.37l-1.73,0.66c0.25-1.21,0.48-2.45,0.68-3.74
		l-2.08-0.69l-0.61,0.13h-8.21c0.74-1.94,1.39-3.96,1.95-6.04L53.66,532c-2.04,7.86-5.65,15.07-10.47,19.5
		c0.78,0.52,2.17,1.56,2.74,2.13c1-1.01,1.96-2.14,2.87-3.36c3.02,1.84,6.29,4.29,8.3,6.24c-3.29,5.88-7.73,10.08-12.91,12.81
		c0.78,0.52,2.04,1.69,2.61,2.43c8.28-4.64,14.86-13.39,18.04-27.18c1.77,3.03,4.02,5.98,6.54,8.63v18.68h3.34v-15.46
		c2.49,2.18,5.14,4.03,7.77,5.39c0.56-0.87,1.56-2.08,2.35-2.74c-3.48-1.57-7-4.01-10.12-6.9v-20.11L74.73,532.04z M50.47,547.83
		c1.18-1.86,2.26-3.89,3.23-6.06h8.47c-0.81,4.43-2.03,8.33-3.58,11.75c-2.07-1.84-5.24-4.02-8.12-5.7L50.47,547.83z"/>
	<path class="st25" d="M179.81,538.79c-2.22-1.26-4.88-1.9-7.97-1.9h-10.55v31.59h10.23c3.21,0,5.94-0.63,8.21-1.9
		c2.26-1.27,3.99-3.09,5.18-5.46c1.2-2.37,1.8-5.19,1.8-8.48s-0.6-6.09-1.79-8.44C183.74,541.85,182.04,540.04,179.81,538.79
		L179.81,538.79z M180.83,558.99c-0.79,1.73-1.98,3.05-3.58,3.96c-1.59,0.9-3.59,1.36-6,1.36h-5.2v-23.26h5.49
		c2.3,0,4.23,0.45,5.78,1.34s2.72,2.21,3.5,3.93c0.79,1.73,1.19,3.83,1.19,6.31s-0.4,4.62-1.19,6.35L180.83,558.99z"/>
	<path class="st25" d="M138.71,542.18c1.44-0.91,3.07-1.37,4.89-1.37c1.01,0,1.96,0.14,2.85,0.42c0.91,0.28,1.72,0.69,2.45,1.24
		c0.73,0.54,1.35,1.21,1.85,1.99s0.85,1.69,1.03,2.71h4.81c-0.27-1.7-0.78-3.2-1.54-4.52c-0.76-1.33-1.72-2.45-2.88-3.36
		c-1.16-0.93-2.47-1.62-3.93-2.1c-1.45-0.48-3.01-0.72-4.69-0.72c-2.73,0-5.16,0.65-7.29,1.96c-2.14,1.3-3.82,3.16-5.06,5.58
		c-1.23,2.42-1.85,5.31-1.85,8.68s0.61,6.26,1.83,8.68c1.23,2.43,2.92,4.29,5.06,5.6c2.14,1.3,4.58,1.94,7.31,1.94
		c1.74,0,3.34-0.26,4.81-0.77s2.78-1.24,3.92-2.17c1.15-0.95,2.09-2.07,2.82-3.36c0.74-1.31,1.24-2.73,1.5-4.29h-4.81
		c-0.2,0.99-0.55,1.89-1.06,2.67c-0.5,0.77-1.12,1.43-1.85,1.96c-0.73,0.53-1.55,0.94-2.45,1.22c-0.89,0.27-1.84,0.4-2.84,0.4
		c-1.8,0-3.42-0.45-4.86-1.36s-2.58-2.24-3.41-4.01c-0.82-1.77-1.24-3.94-1.24-6.51s0.41-4.71,1.24-6.48S137.28,543.1,138.71,542.18
		L138.71,542.18z"/>
	<path class="st25" d="M212.6,541.9c-0.8-1.55-2.01-2.78-3.63-3.67c-1.61-0.89-3.65-1.34-6.11-1.34H191.6v31.59h4.77v-11.1h6.48
		c2.45,0,4.48-0.45,6.09-1.34c1.62-0.91,2.84-2.13,3.64-3.67c0.81-1.55,1.22-3.3,1.22-5.24s-0.4-3.67-1.2-5.21V541.9z
		 M208.33,550.31c-0.45,0.94-1.16,1.67-2.13,2.22c-0.97,0.53-2.23,0.8-3.78,0.8h-6.05v-12.35h5.98c1.58,0,2.86,0.26,3.82,0.79
		c0.98,0.53,1.69,1.25,2.14,2.17c0.45,0.93,0.68,1.99,0.68,3.18s-0.23,2.26-0.68,3.19L208.33,550.31z"/>
	<rect x="86.26" y="548.85" class="st25" width="22.45" height="3"/>
	<path class="st25" d="M123.87,534.47l-0.52,0.13h-12.81v37.39h3.17v-34.31h8.21c-1.35,3.47-3.26,8.17-5.08,11.86
		c4.39,3.82,5.65,7.08,5.69,9.82c0,1.61-0.3,2.87-1.26,3.43c-0.52,0.3-1.13,0.48-1.87,0.52c-0.87,0.04-2.13,0-3.39-0.09
		c0.56,0.91,0.87,2.3,0.91,3.21c1.26,0.04,2.69,0.09,3.78-0.04c1.13-0.17,2.08-0.48,2.87-0.96c1.52-1.04,2.13-3.08,2.13-5.73
		c-0.04-3.13-1.09-6.56-5.47-10.6c2-4,4.26-9.03,6.04-13.12l-2.39-1.52L123.87,534.47z"/>
	<path class="st25" d="M89.17,572h3.04v-2.52h10.94v2.3h3.13v-16.16H89.17v16.37V572z M103.15,558.54v8.03H92.21v-8.03H103.15z"/>
	<path class="st26" d="M8.5,721h64c3.87,0,7,3.13,7,7v24c0,3.87-3.13,7-7,7h-64c-3.87,0-7-3.13-7-7v-24C1.5,724.14,4.63,721,8.5,721
		z"/>
	<path class="st9" d="M72.5,722c3.31,0,6,2.69,6,6v24c0,3.31-2.69,6-6,6h-64c-3.31,0-6-2.69-6-6v-24c0-3.31,2.69-6,6-6H72.5
		 M72.5,720h-64c-4.42,0-8,3.58-8,8v24c0,4.42,3.58,8,8,8h64c4.42,0,8-3.58,8-8v-24C80.5,723.58,76.92,720,72.5,720L72.5,720z"/>
	<path class="st25" d="M41.84,741c0.87-0.45,1.51-1.08,1.93-1.88c0.42-0.8,0.63-1.71,0.63-2.74c0-1.03-0.21-1.95-0.63-2.75
		c-0.42-0.81-1.07-1.44-1.94-1.9c-0.88-0.47-1.99-0.7-3.36-0.7h-5.9v17.46h2.11v-6.82h3.82c0.15,0,0.29-0.01,0.44-0.02l3.69,6.84
		h2.45l-3.94-7.2C41.39,741.21,41.62,741.11,41.84,741z M34.69,732.91h3.72c0.94,0,1.7,0.15,2.28,0.43
		c0.57,0.28,0.99,0.69,1.25,1.21s0.39,1.13,0.39,1.83c0,0.7-0.13,1.3-0.39,1.81c-0.26,0.5-0.67,0.89-1.24,1.16
		c-0.57,0.27-1.32,0.41-2.25,0.41H34.7L34.69,732.91L34.69,732.91z"/>
	<path class="st25" d="M19.26,733.58c0.86-0.53,1.82-0.8,2.87-0.8c0.58,0,1.14,0.08,1.67,0.24s1.02,0.4,1.46,0.72
		c0.44,0.31,0.82,0.7,1.12,1.16c0.31,0.46,0.53,0.99,0.66,1.6h2.11c-0.16-0.9-0.45-1.7-0.87-2.4s-0.94-1.3-1.57-1.79
		c-0.62-0.49-1.33-0.87-2.11-1.12c-0.77-0.26-1.6-0.38-2.48-0.38c-1.49,0-2.81,0.36-3.97,1.09c-1.16,0.73-2.07,1.76-2.74,3.1
		s-1,2.93-1,4.77s0.33,3.43,1,4.77c0.66,1.34,1.58,2.38,2.74,3.1c1.16,0.73,2.48,1.09,3.97,1.09c0.88,0,1.71-0.13,2.48-0.38
		c0.78-0.26,1.48-0.63,2.11-1.12c0.62-0.49,1.15-1.09,1.57-1.8c0.42-0.7,0.71-1.5,0.87-2.4h-2.11c-0.12,0.6-0.34,1.14-0.66,1.6
		c-0.31,0.46-0.68,0.85-1.12,1.17c-0.44,0.31-0.92,0.55-1.46,0.71c-0.53,0.16-1.09,0.24-1.67,0.24c-1.06,0-2.01-0.27-2.87-0.8
		c-0.85-0.53-1.53-1.32-2.04-2.36c-0.5-1.04-0.75-2.32-0.75-3.83s0.25-2.79,0.75-3.83c0.51-1.04,1.18-1.83,2.04-2.36L19.26,733.58z"
		/>
	<polygon class="st25" points="62.52,731.04 56.59,745.53 56.38,745.53 50.45,731.04 47.93,731.04 47.93,748.5 49.9,748.5 
		49.9,735.23 50.07,735.23 55.53,748.5 57.44,748.5 62.89,735.23 63.06,735.23 63.06,748.5 65.04,748.5 65.04,731.04 	"/>
	<path class="st26" d="M8.5,777h64c3.87,0,7,3.13,7,7v24c0,3.87-3.13,7-7,7h-64c-3.87,0-7-3.13-7-7v-24C1.5,780.14,4.63,777,8.5,777
		z"/>
	<path class="st9" d="M72.5,778c3.31,0,6,2.69,6,6v24c0,3.31-2.69,6-6,6h-64c-3.31,0-6-2.69-6-6v-24c0-3.31,2.69-6,6-6H72.5
		 M72.5,776h-64c-4.42,0-8,3.58-8,8v24c0,4.42,3.58,8,8,8h64c4.42,0,8-3.58,8-8v-24C80.5,779.58,76.92,776,72.5,776L72.5,776z"/>
	<path class="st25" d="M25.59,788.09c-1.2-0.7-2.65-1.05-4.35-1.05h-5.62v17.46h5.39c1.77,0,3.28-0.35,4.52-1.05
		c1.24-0.71,2.18-1.71,2.83-3.02c0.65-1.31,0.97-2.88,0.97-4.7c0-1.82-0.32-3.36-0.96-4.65c-0.64-1.3-1.57-2.3-2.77-2.99H25.59z
		 M26.58,799.41c-0.47,1.03-1.17,1.82-2.12,2.38s-2.14,0.84-3.59,0.84h-3.14v-13.71h3.38c1.36,0,2.5,0.28,3.42,0.83
		c0.91,0.55,1.6,1.33,2.06,2.35c0.46,1.02,0.69,2.23,0.69,3.64C27.28,797.15,27.05,798.38,26.58,799.41z"/>
	<polygon class="st25" points="41.52,801.53 41.32,801.53 35.39,787.04 32.86,787.04 32.86,804.5 34.84,804.5 34.84,791.23 
		35.01,791.23 40.47,804.5 42.38,804.5 47.83,791.23 48,791.23 48,804.5 49.98,804.5 49.98,787.04 47.45,787.04 	"/>
	<path class="st25" d="M65.41,789.77c-0.42-0.84-1.07-1.5-1.94-1.99s-1.99-0.74-3.36-0.74h-5.9v17.46h2.11v-6.38h3.82
		c1.36,0,2.47-0.25,3.34-0.74c0.87-0.5,1.51-1.17,1.93-2.01c0.42-0.84,0.63-1.78,0.63-2.8s-0.21-1.96-0.63-2.79V789.77z
		 M63.57,794.45c-0.26,0.55-0.67,0.99-1.24,1.31c-0.57,0.32-1.32,0.49-2.26,0.49h-3.75v-7.33h3.72c0.95,0,1.71,0.16,2.28,0.48
		c0.57,0.31,0.99,0.74,1.24,1.29c0.26,0.55,0.39,1.18,0.39,1.88S63.82,793.9,63.57,794.45L63.57,794.45z"/>
	<path class="st26" d="M8.5,833h64c3.87,0,7,3.13,7,7v24c0,3.87-3.13,7-7,7h-64c-3.87,0-7-3.13-7-7v-24C1.5,836.13,4.63,833,8.5,833
		z"/>
	<path class="st9" d="M72.5,834c3.31,0,6,2.69,6,6v24c0,3.31-2.69,6-6,6h-64c-3.31,0-6-2.69-6-6v-24c0-3.31,2.69-6,6-6H72.5
		 M72.5,832h-64c-4.42,0-8,3.58-8,8v24c0,4.42,3.58,8,8,8h64c4.42,0,8-3.58,8-8v-24C80.5,835.58,76.92,832,72.5,832L72.5,832z"/>
	<path class="st25" d="M29.66,852.31c-0.51-0.36-1.05-0.65-1.61-0.86c-0.56-0.21-1.06-0.38-1.52-0.49l-1.77-0.48
		c-0.32-0.08-0.68-0.2-1.07-0.33c-0.39-0.14-0.76-0.32-1.11-0.54s-0.64-0.5-0.87-0.83c-0.22-0.34-0.33-0.74-0.33-1.2
		c0-0.56,0.16-1.05,0.48-1.49s0.77-0.78,1.35-1.03s1.26-0.38,2.03-0.38c1.06,0,1.95,0.24,2.68,0.72s1.14,1.15,1.24,2.01h2.05
		c-0.03-0.88-0.3-1.67-0.82-2.36c-0.51-0.69-1.2-1.24-2.08-1.64s-1.88-0.6-3-0.6s-2.12,0.2-3.03,0.61c-0.9,0.4-1.61,0.97-2.15,1.71
		c-0.53,0.73-0.79,1.58-0.79,2.56c0,1.18,0.4,2.13,1.19,2.85c0.8,0.73,1.88,1.29,3.24,1.68l2.15,0.61c0.61,0.17,1.18,0.37,1.71,0.6
		c0.53,0.23,0.95,0.52,1.28,0.89c0.32,0.36,0.49,0.84,0.49,1.41c0,0.64-0.19,1.19-0.56,1.67c-0.38,0.47-0.88,0.84-1.53,1.11
		c-0.64,0.26-1.37,0.39-2.17,0.39c-0.69,0-1.34-0.1-1.94-0.31s-1.09-0.53-1.48-0.96s-0.61-0.98-0.66-1.64h-2.18
		c0.07,0.96,0.36,1.79,0.88,2.51c0.52,0.72,1.24,1.28,2.15,1.69c0.91,0.4,2,0.6,3.25,0.6c1.34,0,2.48-0.23,3.42-0.67
		c0.94-0.45,1.66-1.05,2.15-1.82c0.49-0.76,0.74-1.61,0.74-2.56c0-0.82-0.17-1.51-0.5-2.07c-0.34-0.56-0.76-1.02-1.28-1.38
		L29.66,852.31z"/>
	<path class="st25" d="M60.55,860.5h2.22l-6.41-17.46h-2.18l-6.41,17.46h2.22l1.75-4.94h7.06C58.8,855.56,60.55,860.5,60.55,860.5z
		 M52.4,853.68l2.8-7.88h0.14l2.8,7.88H52.4L52.4,853.68z"/>
	<polygon class="st25" points="37.03,852.69 44.91,852.69 44.91,850.81 37.03,850.81 37.03,844.92 45.45,844.92 45.45,843.04 
		34.92,843.04 34.92,860.5 45.59,860.5 45.59,858.62 37.03,858.62 	"/>
	<path class="st26" d="M184.5,721h64c3.87,0,7,3.13,7,7v24c0,3.87-3.13,7-7,7h-64c-3.87,0-7-3.13-7-7v-24
		C177.5,724.14,180.63,721,184.5,721z"/>
	<path class="st9" d="M248.5,722c3.31,0,6,2.69,6,6v24c0,3.31-2.69,6-6,6h-64c-3.31,0-6-2.69-6-6v-24c0-3.31,2.69-6,6-6H248.5
		 M248.5,720h-64c-4.42,0-8,3.58-8,8v24c0,4.42,3.58,8,8,8h64c4.42,0,8-3.58,8-8v-24C256.5,723.58,252.92,720,248.5,720L248.5,720z"
		/>
	<polygon class="st25" points="208.27,745.53 208.07,745.53 202.14,731.04 199.61,731.04 199.61,748.5 201.59,748.5 201.59,735.23 
		201.76,735.23 207.22,748.5 209.13,748.5 214.58,735.23 214.75,735.23 214.75,748.5 216.73,748.5 216.73,731.04 214.2,731.04 	"/>
	<path class="st25" d="M232.25,748.5h2.22l-6.41-17.46h-2.18l-6.41,17.46h2.22l1.75-4.94h7.06L232.25,748.5z M224.1,741.68l2.8-7.88
		h0.14l2.8,7.88h-5.73H224.1z"/>
	<path class="st26" d="M184.5,777h64c3.87,0,7,3.13,7,7v24c0,3.87-3.13,7-7,7h-64c-3.87,0-7-3.13-7-7v-24
		C177.5,780.14,180.63,777,184.5,777z"/>
	<path class="st9" d="M248.5,778c3.31,0,6,2.69,6,6v24c0,3.31-2.69,6-6,6h-64c-3.31,0-6-2.69-6-6v-24c0-3.31,2.69-6,6-6H248.5
		 M248.5,776h-64c-4.42,0-8,3.58-8,8v24c0,4.42,3.58,8,8,8h64c4.42,0,8-3.58,8-8v-24C256.5,779.58,252.92,776,248.5,776L248.5,776z"
		/>
	<polygon class="st25" points="198.23,796.69 206.1,796.69 206.1,794.81 198.23,794.81 198.23,788.92 206.65,788.92 206.65,787.04 
		196.11,787.04 196.11,804.5 206.78,804.5 206.78,802.62 198.23,802.62 	"/>
	<path class="st25" d="M237.01,789.77c-0.42-0.84-1.07-1.5-1.94-1.99s-1.99-0.74-3.36-0.74h-5.9v17.46h2.11v-6.38h3.82
		c1.36,0,2.47-0.25,3.34-0.74c0.87-0.5,1.51-1.17,1.93-2.01c0.42-0.84,0.63-1.78,0.63-2.8s-0.21-1.96-0.63-2.79V789.77z
		 M235.17,794.45c-0.26,0.55-0.67,0.99-1.24,1.31s-1.32,0.49-2.26,0.49h-3.75v-7.33h3.72c0.95,0,1.71,0.16,2.28,0.48
		c0.57,0.31,0.99,0.74,1.24,1.29c0.26,0.55,0.39,1.18,0.39,1.88S235.42,793.9,235.17,794.45L235.17,794.45z"/>
	<path class="st25" d="M219.72,797c0.87-0.45,1.51-1.08,1.93-1.88c0.42-0.8,0.63-1.71,0.63-2.74s-0.21-1.95-0.63-2.75
		c-0.42-0.81-1.07-1.44-1.94-1.9c-0.88-0.47-1.99-0.7-3.36-0.7h-5.9v17.46h2.11v-6.82h3.82c0.15,0,0.29-0.01,0.44-0.02l3.69,6.84
		h2.45l-3.94-7.2C219.27,797.21,219.5,797.11,219.72,797z M212.57,788.91h3.72c0.94,0,1.7,0.15,2.28,0.43
		c0.57,0.28,0.99,0.69,1.25,1.21s0.39,1.13,0.39,1.83s-0.13,1.3-0.39,1.81c-0.26,0.5-0.67,0.89-1.24,1.16
		c-0.57,0.27-1.32,0.41-2.25,0.41h-3.75L212.57,788.91L212.57,788.91z"/>
	<path class="st26" d="M184.5,833h64c3.87,0,7,3.13,7,7v24c0,3.87-3.13,7-7,7h-64c-3.87,0-7-3.13-7-7v-24
		C177.5,836.13,180.63,833,184.5,833z"/>
	<path class="st9" d="M248.5,834c3.31,0,6,2.69,6,6v24c0,3.31-2.69,6-6,6h-64c-3.31,0-6-2.69-6-6v-24c0-3.31,2.69-6,6-6H248.5
		 M248.5,832h-64c-4.42,0-8,3.58-8,8v24c0,4.42,3.58,8,8,8h64c4.42,0,8-3.58,8-8v-24C256.5,835.58,252.92,832,248.5,832L248.5,832z"
		/>
	<polygon class="st25" points="205.36,857.69 210.4,857.69 210.4,856.2 205.36,856.2 205.36,854.18 203.52,854.18 203.52,856.2 
		198.62,856.2 198.62,857.69 203.52,857.69 203.52,860.26 195.48,860.26 195.48,861.77 213.64,861.77 213.64,860.26 205.36,860.26 	
		"/>
	<path class="st25" d="M234.4,849.96h3.53v-1.68h-8.59c1.78-1.81,3.32-4.13,4.19-6.05c1.2,2.3,3.34,5.06,5.35,6.82
		c0.26-0.53,0.7-1.2,1.03-1.63c-2.04-1.54-4.25-4.37-5.62-6.96h-1.68c-1.01,2.52-3.17,5.64-5.42,7.42c0.36,0.38,0.77,1.03,0.98,1.49
		c0.34-0.28,0.68-0.6,1.01-0.93v1.53h3.43v3.36H228v1.68h4.61v7.39h1.78v-7.39h4.85v-1.68h-4.85v-3.36L234.4,849.96z"/>
	<path class="st25" d="M210.28,853.42h5.12v-1.51h-4.68v-7.7h3.65v-1.54h-3.65v-2.3h-1.8v2.3h-8.76v-2.3h-1.8v2.3h-3.65v1.54h3.65
		v7.7h-4.78v1.51h5.24c-1.4,1.7-3.48,3.24-5.48,4.03c0.41,0.34,0.91,0.96,1.18,1.37c2.34-1.09,4.77-3.14,6.28-5.4h7.6
		c1.44,2.14,3.77,4.12,6.12,5.11c0.26-0.43,0.79-1.06,1.2-1.39c-2.04-0.72-4.06-2.12-5.43-3.72H210.28z M200.16,847.16h8.76v1.66
		h-8.76V847.16z M208.92,844.21v1.58h-8.76v-1.58H208.92z M200.16,850.19h8.76v1.73h-8.76V850.19z"/>
	<path class="st25" d="M223.63,854.5h3.5v-7.99h-3.5v-1.99h4.22v-1.63h-4.22v-2.54h-1.73v2.54h-4.15v1.63h4.15v1.99h-3.38v7.99h3.38
		v2.04h-4.42v1.63h4.42v4.25h1.73v-4.25h4.44v-1.63h-4.44V854.5z M220.15,847.97h5.3v1.82h-5.3V847.97z M220.15,851.19h5.3v1.87
		h-5.3V851.19z"/>
	<line class="st27" x1="128.5" y1="180.01" x2="128.5" y2="182.01"/>
	<line class="st28" x1="128.5" y1="185.64" x2="128.5" y2="220.19"/>
	<line class="st27" x1="128.5" y1="222.01" x2="128.5" y2="224.01"/>
	<circle class="st26" cx="128.5" cy="176.01" r="4"/>
	
		<linearGradient id="SVGID_00000137089937357330402170000008164766202336839582_" gradientUnits="userSpaceOnUse" x1="128.5" y1="688.892" x2="128.5" y2="680.8921" gradientTransform="matrix(1 0 0 -1 0 860.9)">
		<stop  offset="0" style="stop-color:#F6CD51"/>
		<stop  offset="1" style="stop-color:#F48E2A"/>
	</linearGradient>
	<path style="fill:url(#SVGID_00000137089937357330402170000008164766202336839582_);" d="M128.5,173.01c1.65,0,3,1.35,3,3
		s-1.35,3-3,3s-3-1.35-3-3S126.85,173.01,128.5,173.01 M128.5,172.01c-2.21,0-4,1.79-4,4s1.79,4,4,4c2.21,0,4-1.79,4-4
		S130.71,172.01,128.5,172.01L128.5,172.01z"/>
	<polygon class="st26" points="128.5,232.01 132.5,224.01 124.5,224.01 	"/>
	
		<linearGradient id="SVGID_00000083774757887248652130000016320358009777785248_" gradientUnits="userSpaceOnUse" x1="128.5" y1="636.8926" x2="128.5" y2="628.8926" gradientTransform="matrix(1 0 0 -1 0 860.9)">
		<stop  offset="0" style="stop-color:#F6CD51"/>
		<stop  offset="1" style="stop-color:#F48E2A"/>
	</linearGradient>
	<path style="fill:url(#SVGID_00000083774757887248652130000016320358009777785248_);" d="M130.88,225.01l-2.38,4.76l-2.38-4.76
		H130.88 M132.5,224.01L132.5,224.01L132.5,224.01z M132.5,224.01h-8l4,8L132.5,224.01L132.5,224.01z"/>
	<circle class="st26" cx="128.5" cy="416.01" r="4"/>
	
		<linearGradient id="SVGID_00000167392453568504668630000015586986753333793199_" gradientUnits="userSpaceOnUse" x1="128.5" y1="448.8947" x2="128.5" y2="440.8948" gradientTransform="matrix(1 0 0 -1 0 860.9)">
		<stop  offset="0" style="stop-color:#F6CD51"/>
		<stop  offset="1" style="stop-color:#F48E2A"/>
	</linearGradient>
	<path style="fill:url(#SVGID_00000167392453568504668630000015586986753333793199_);" d="M128.5,413.01c1.65,0,3,1.35,3,3
		c0,1.65-1.35,3-3,3s-3-1.35-3-3C125.5,414.36,126.85,413.01,128.5,413.01 M128.5,412.01c-2.21,0-4,1.79-4,4c0,2.21,1.79,4,4,4
		c2.21,0,4-1.79,4-4C132.5,413.8,130.71,412.01,128.5,412.01L128.5,412.01z"/>
	<polygon class="st26" points="96.5,472 100.5,464 92.5,464 	"/>
	
		<linearGradient id="SVGID_00000038393766044087154710000008563455695222278036_" gradientUnits="userSpaceOnUse" x1="96.5" y1="396.8953" x2="96.5" y2="388.8954" gradientTransform="matrix(1 0 0 -1 0 860.9)">
		<stop  offset="0" style="stop-color:#F6CD51"/>
		<stop  offset="1" style="stop-color:#F48E2A"/>
	</linearGradient>
	<path style="fill:url(#SVGID_00000038393766044087154710000008563455695222278036_);" d="M98.88,465l-2.38,4.76L94.12,465H98.88
		 M100.5,464L100.5,464L100.5,464z M100.5,464h-8l4,8L100.5,464L100.5,464z"/>
	<path class="st27" d="M128.5,420.01c0,0.68-0.04,1.34-0.12,2"/>
	<path class="st33" d="M127.43,425.76c-2.31,5.99-8.13,10.24-14.93,10.24c-8.84,0-16,7.16-16,16v8.07"/>
	<line class="st27" x1="96.5" y1="462" x2="96.5" y2="464"/>
	<circle class="st26" cx="128.5" cy="480" r="3.5"/>
	<path class="st9" d="M128.5,477c1.65,0,3,1.35,3,3c0,1.65-1.35,3-3,3s-3-1.35-3-3C125.5,478.35,126.85,477,128.5,477 M128.5,476
		c-2.21,0-4,1.79-4,4c0,2.21,1.79,4,4,4c2.21,0,4-1.79,4-4C132.5,477.79,130.71,476,128.5,476L128.5,476z"/>
	<polygon class="st26" points="157.31,431.51 160.5,425.12 163.69,431.51 	"/>
	<path class="st9" d="M160.5,426.24l2.38,4.76h-4.76L160.5,426.24 M160.5,424l-4,8h8L160.5,424L160.5,424z"/>
	<path class="st3" d="M128.5,476c0-0.68,0.04-1.34,0.12-2"/>
	<path class="st34" d="M129.57,470.24c2.31-5.99,8.13-10.24,14.93-10.24c8.84,0,16-7.16,16-16v-8.07"/>
	<line class="st3" x1="160.5" y1="434.01" x2="160.5" y2="432.01"/>
	<circle class="st26" cx="128.5" cy="656" r="3.5"/>
	<path class="st9" d="M128.5,653c1.65,0,3,1.35,3,3c0,1.65-1.35,3-3,3s-3-1.35-3-3C125.5,654.35,126.85,653,128.5,653 M128.5,652
		c-2.21,0-4,1.79-4,4c0,2.21,1.79,4,4,4c2.21,0,4-1.79,4-4C132.5,653.79,130.71,652,128.5,652L128.5,652z"/>
	<polygon class="st26" points="161,736.8 167.38,740 161,743.19 	"/>
	<path class="st9" d="M161.5,737.61l4.76,2.38l-4.76,2.38V737.61 M160.5,735.99v8l8-4L160.5,735.99L160.5,735.99z"/>
	<polygon class="st26" points="89.62,740 96,736.8 96,743.19 	"/>
	<path class="st9" d="M95.5,737.61v4.76l-4.76-2.38L95.5,737.61 M96.5,735.99l-8,4l8,4V735.99L96.5,735.99z"/>
	<path class="st3" d="M128.5,724c0,0.68-0.04,1.34-0.12,2"/>
	<path class="st35" d="M127.34,729.98c-2.37,5.87-8.12,10.02-14.84,10.02h-11.95"/>
	<line class="st3" x1="98.5" y1="740" x2="96.5" y2="740"/>
	<path class="st3" d="M128.5,724c0,0.68,0.04,1.34,0.12,2"/>
	<path class="st35" d="M129.66,729.98c2.37,5.87,8.12,10.02,14.84,10.02h11.95"/>
	<line class="st3" x1="158.5" y1="740" x2="160.5" y2="740"/>
	<polygon class="st26" points="161,792.8 167.38,796 161,799.19 	"/>
	<path class="st9" d="M161.5,793.61l4.76,2.38l-4.76,2.38V793.61 M160.5,791.99v8l8-4L160.5,791.99L160.5,791.99z"/>
	<polygon class="st26" points="89.62,796 96,792.8 96,799.19 	"/>
	<path class="st9" d="M95.5,793.61v4.76l-4.76-2.38L95.5,793.61 M96.5,791.99L96.5,791.99L96.5,791.99z M96.5,791.99l-8,4l8,4
		V791.99L96.5,791.99z"/>
	<path class="st3" d="M128.5,780c0,0.68-0.04,1.34-0.12,2"/>
	<path class="st35" d="M127.34,785.98c-2.37,5.87-8.12,10.02-14.84,10.02h-11.95"/>
	<line class="st3" x1="98.5" y1="796" x2="96.5" y2="796"/>
	<path class="st3" d="M128.5,780c0,0.68,0.04,1.34,0.12,2"/>
	<path class="st35" d="M129.66,785.98c2.37,5.87,8.12,10.02,14.84,10.02h11.95"/>
	<line class="st3" x1="158.5" y1="796" x2="160.5" y2="796"/>
	<polygon class="st26" points="161,848.8 167.38,852 161,855.19 	"/>
	<path class="st9" d="M161.5,849.61l4.76,2.38l-4.76,2.38V849.61 M160.5,847.99v8l8-4L160.5,847.99L160.5,847.99z"/>
	<polygon class="st26" points="89.62,852 96,848.8 96,855.19 	"/>
	<path class="st9" d="M95.5,849.61v4.76l-4.76-2.38L95.5,849.61 M96.5,847.99l-8,4l8,4V847.99L96.5,847.99z"/>
	<path class="st3" d="M128.5,836c0,0.68-0.04,1.34-0.12,2"/>
	<path class="st35" d="M127.34,841.98c-2.37,5.87-8.12,10.02-14.84,10.02h-11.95"/>
	<line class="st3" x1="98.5" y1="852" x2="96.5" y2="852"/>
	<path class="st3" d="M128.5,836c0,0.68,0.04,1.34,0.12,2"/>
	<path class="st35" d="M129.66,841.98c2.37,5.87,8.12,10.02,14.84,10.02h11.95"/>
	<line class="st3" x1="158.5" y1="852" x2="160.5" y2="852"/>
	<line class="st3" x1="128.5" y1="660" x2="128.5" y2="662"/>
	<line class="st36" x1="128.5" y1="666" x2="128.5" y2="832"/>
	<line class="st3" x1="128.5" y1="834" x2="128.5" y2="836"/>
</g>
</svg>
