<?xml version="1.0" encoding="UTF-8"?><svg id="a" xmlns="http://www.w3.org/2000/svg" xmlns:xlink="http://www.w3.org/1999/xlink" viewBox="0 0 257 320"><defs><style>.z,.aa,.ab,.ac,.ad,.ae,.af,.ag,.ah,.ai,.aj,.ak,.al,.am,.an{stroke-linecap:round;stroke-linejoin:round;}.z,.ab{stroke:#0d0910;}.z,.ao,.ap{fill:#0d0910;}.aa,.ab,.ac,.aq,.ad,.ae,.af,.ag,.ah,.ai,.an{fill:none;}.aa,.ac,.ad,.an{stroke:#f6cd51;}.ac{stroke-dasharray:0 0 3.89 3.89;}.aq,.ao,.ar,.ap,.as,.at,.au,.av,.aw,.ax,.ay,.az,.ba,.bb,.bc,.bd,.be,.bf,.bg{stroke-width:0px;}.ao{fill-rule:evenodd;}.ad{stroke-dasharray:0 0 4.01 4.01;}.ae{stroke:url(#d);}.af{stroke:url(#e);}.ag{stroke:url(#f);}.ah{stroke:url(#q);}.ai{stroke:url(#m);}.aj{stroke:url(#t);}.aj,.ak,.al,.am{stroke-width:2px;}.aj,.ak,.al,.am,.ar{fill:#1b1320;}.ak{stroke:url(#p);}.al{stroke:url(#o);}.am{stroke:url(#n);}.an{stroke-dasharray:0 0 4.01 4.01;}.as{fill:url(#b);}.at{fill:url(#v);}.au{fill:url(#c);}.av{fill:url(#y);}.aw{fill:url(#x);}.ax{fill:url(#w);}.ay{fill:url(#u);}.az{fill:url(#s);}.ba{fill:url(#j);}.bb{fill:url(#r);}.bc{fill:url(#i);}.bd{fill:url(#h);}.be{fill:url(#g);}.bf{fill:url(#k);}.bg{fill:url(#l);}</style><linearGradient id="b" x1="129" y1="0" x2="129" y2="96" gradientUnits="userSpaceOnUse"><stop offset="0" stop-color="#f6cd51"/><stop offset="1" stop-color="#f48e2a"/></linearGradient><linearGradient id="c" x1="129" y1="298" x2="129" y2="250" gradientTransform="translate(0 322) scale(1 -1)" gradientUnits="userSpaceOnUse"><stop offset="0" stop-color="#f6cd51"/><stop offset="1" stop-color="#f48e2a"/></linearGradient><linearGradient id="d" x1="239" y1="58" x2="239" y2="34" gradientTransform="translate(0 322) scale(1 -1)" xlink:href="#b"/><linearGradient id="e" x1="225" y1="34.01" x2="225" y2="13.54" gradientTransform="translate(0 322) scale(1 -1)" xlink:href="#b"/><linearGradient id="f" x1="206.19" y1="56" x2="206.19" y2="36" xlink:href="#c"/><linearGradient id="g" x1="225" y1="256" x2="225" y2="320" xlink:href="#b"/><linearGradient id="h" x1="129" y1="92" x2="129" y2="100" gradientTransform="matrix(1,0,0,1,0,0)" xlink:href="#c"/><linearGradient id="i" x1="129" y1="240" x2="129" y2="248" gradientTransform="matrix(1,0,0,1,0,0)" xlink:href="#c"/><linearGradient id="j" x1="225" y1="240" x2="225" y2="248" gradientTransform="matrix(1,0,0,1,0,0)" xlink:href="#c"/><linearGradient id="k" x1="33" y1="240" x2="33" y2="248" gradientTransform="matrix(1,0,0,1,0,0)" xlink:href="#c"/><linearGradient id="l" x1="33" y1="256" x2="33" y2="320" xlink:href="#b"/><linearGradient id="m" x1="33" y1="46" x2="33" y2="22" gradientTransform="translate(0 322) scale(1 -1)" xlink:href="#b"/><linearGradient id="n" x1="105.75" y1="23.57" x2="105.75" y2="2.43" gradientTransform="translate(0 322) scale(1 -1)" xlink:href="#b"/><linearGradient id="o" x1="121.25" y1="19.58" x2="121.25" y2="2.42" gradientTransform="translate(0 322) scale(1 -1)" xlink:href="#b"/><linearGradient id="p" x1="136.75" y1="33.52" x2="136.75" y2="2.48" gradientTransform="translate(0 322) scale(1 -1)" xlink:href="#b"/><linearGradient id="q" x1="129" y1="64.95" x2="129" y2="36.05" gradientTransform="translate(0 322) scale(1 -1)" xlink:href="#b"/><linearGradient id="r" x1="106" y1="278.02" x2="106" y2="286.02" gradientTransform="matrix(1,0,0,1,0,0)" xlink:href="#c"/><linearGradient id="s" x1="121" y1="282.02" x2="121" y2="290.02" gradientTransform="matrix(1,0,0,1,0,0)" xlink:href="#c"/><linearGradient id="t" x1="152.25" y1="43.54" x2="152.25" y2="2.46" gradientTransform="translate(0 322) scale(1 -1)" xlink:href="#b"/><linearGradient id="u" x1="137" y1="268" x2="137" y2="276" gradientTransform="matrix(1,0,0,1,0,0)" xlink:href="#c"/><linearGradient id="v" x1="153" y1="258" x2="153" y2="266" gradientTransform="matrix(1,0,0,1,0,0)" xlink:href="#c"/><linearGradient id="w" x1="129" y1="164" x2="129" y2="212" gradientUnits="userSpaceOnUse"><stop offset="0" stop-color="#f6cd51"/><stop offset="1" stop-color="#f48e2a"/></linearGradient><linearGradient id="x" x1="33" x2="33" xlink:href="#w"/><linearGradient id="y" x1="225" x2="225" xlink:href="#w"/></defs><rect class="ap" x="81" y="0" width="96" height="96" rx="16" ry="16"/><path class="as" d="m161,2c7.72,0,14,6.28,14,14v64c0,7.72-6.28,14-14,14h-64c-7.72,0-14-6.28-14-14V16c0-7.72,6.28-14,14-14h64m0-2h-64c-8.84,0-16,7.16-16,16v64c0,8.84,7.16,16,16,16h64c8.84,0,16-7.16,16-16V16c0-8.84-7.16-16-16-16h0Z"/><path class="au" d="m116.41,45.01c-.05,0-.07.01-.09.04,0,.08-.04.16.06.23v.07c-.06.09-.01.18-.01.26.08.23-.01.46.07.69,0,.01.02.02.04.03h0c-.04.09.06.15.07.23v.13c.08.04-.01.09,0,.14-.15.14-.04.27,0,.4v.04s0,.04,0,.04c.05.05.01.14.16.15.03,0,.05,0,.08-.01.04-.03.07-.07.04-.1.03,0,.06-.02.07-.04-.02.15-.04.31-.12.46,0,.01.02.04.04.06-.19.15-.12.31-.04.47.18.09.2,0,.24-.07.02.02.04.04.07.06-.05,0-.1,0-.11.04,0,0,0,.01,0,.01-.05.04-.13.07-.08.12l.09.04s.04,0,.04-.01c0,.03-.03.07-.04.09v.02s0,.11.1.08c.09-.02.2-.08.16-.15-.04-.08-.04-.15-.03-.23.04-.04.05-.09,0-.13-.04-.07.02-.18-.15-.22h0c.02-.07.21,0,.22-.09h.04c.04-.19.24-.27.5-.31.1-.07-.07-.11-.06-.17.08-.04.07-.09.07-.13-.04.01-.08.05-.12.05-.07,0-.04-.04-.04-.07,0,0,.02,0,.03,0,.08,0,.1-.04.09-.08-.01-.04-.02-.08.04-.1.07-.04.17-.08,0-.11-.13-.01-.04-.12-.15-.15-.01,0-.01,0-.03.01h0c-.06-.05-.07-.11-.06-.17-.06-.07.18-.09.11-.16.01-.01.02-.03.03-.05,0-.01,0-.03-.01-.05-.14-.09-.3-.18-.31-.31-.07-.03-.01-.12-.15-.13,0,0,0,0-.01,0,.06-.18.03-.34-.07-.51l.03-.2.04-.02s0-.05-.03-.06c0-.02-.02-.04-.04-.03-.08.04-.07-.11-.02-.12.01,0,.03,0,.04,0h0s.01-.02.02-.03c.03-.02.05-.04.07-.07,0-.01.01-.04.01-.05-.01-.04-.01-.08-.04-.12.03-.03.03-.07.03-.1.05-.01.09-.01.05.07-.01.04,0,.08,0,.12.37.05.47.18.3.37.04,0,.09.01.12.03v.04l-.05.03v.14s.04,0,.05,0c0,.02,0,.04,0,.07l.05.23c-.08,0-.15,0-.16.07.07.09.09.09.1.07.1-.1.11-.02.13.02.01.02.04.05.05.07v.13s-.03,0-.04,0c-.05,0-.12-.13-.15,0v.06c-.13.01-.1-.07-.17-.09l-.07.07c.01.07.08.11.18.13h.1s.06-.03.06-.03c.08-.02.18-.08.13.04-.01.04,0,.08,0,.12.37.06.46.19.3.39.1.01.19.04.14.12h-.04c0,.07.02.15-.03.19-.3.2-.24.42-.18.65.01,0,.04,0,.05,0h-.04c-.09.05-.08.11-.06.17v.14s-.05,0-.05,0v.17s0,0,0,0c-.1.04-.2.09-.12.18h.06c-.03.1.09.07.17.07.04-.04.07-.09.04-.14v-.02c.16.14.2,0,.29-.05,0,0,.01-.01,0-.03.24-.09.14-.23.15-.35l.11-.07s0-.07,0-.09c.01.01.03.04.06.03l.04.02s0,.01-.01.02c0,.02,0,.04.03.07.12.11.22.02.33,0v-.27s.02-.03.01-.04c.08-.07.04-.18.15-.24l-.09-.04v-.13s-.01-.14-.01-.14l.05-.04c.05-.05.11-.09.17,0-.04-.15.13-.3.05-.45,0-.07.09-.13,0-.2-.04-.02-.08-.05,0-.08.19-.07.09-.17.05-.26.04-.09.07-.19.04-.28,0,0,0-.02,0-.03h.04v-.38s0-.02.01-.04c0-.04.01-.08-.02-.11,0,0,0,0,0,0,.05-.07.04-.16.15-.21.01-.01.01-.03,0-.04,0,0-.01-.02-.01-.04-.01,0-.03-.01-.04-.02l-.02-.29s.01-.02.01-.03l.04-.08c0-.07,0-.12,0-.19,0-.06.04-.12-.09-.13v-.02s.02.01.04.01c.15-.03.13-.1.14-.18s-.04-.14.01-.21v-.1c-.08,0-.15-.04-.22-.02v-.07c.07,0,.14.01.21-.02v-.04s0-.01,0-.03c.09-.06.03-.12.04-.19-.05-.01-.11-.01-.15-.04.04-.01.06-.03.07-.06l.05-.04c.07-.06.02-.1-.05-.14v-.07c.02-.06.04-.12,0-.18t-.01,0l.03-.08v-.2s.04,0,.05-.01c-.1-.21-.07-.45-.11-.66.04-.04.01-.07-.06-.07v-.06s.02-.07.02-.07c.05-.04.04-.07.03-.11,0,0,.01,0,.02-.01,0-.03,0-.07-.03-.09l-.04-.06s-.01,0-.03,0h.02c0-.09.18-.21-.04-.29,0,0,0,.02,0,.03h0s.01-.02.01-.03l.04-.12.04-.58-.09-.39c.04-.26.02-.5-.04-.74.16-.24-.01-.45-.03-.67.01,0,.03-.01.04-.01.09-.12.07-.23.06-.35,0-.22-.16-.39-.18-.6.12-.19.03-.36.03-.54s-.19-.34-.11-.54c-.01-.05,0-.12-.07-.15,0,0,0,0,0-.01.04-.08-.02-.14-.04-.2.02-.01.04-.03.05-.05.13-.09-.13-.2.12-.28,0,0,0-.06-.02-.06-.15,0-.1-.08-.1-.14s0-.12-.11-.14c-.06-.03-.08-.07,0-.11.07-.01.09-.05.07-.09-.08-.13-.07-.28-.11-.42.03-.04.02-.07,0-.09,0-.17-.11-.32-.07-.5,0-.01-.02-.02-.05-.01,0,0,0,0,0,0-.03-.06-.04-.12.04-.19.05-.04.04-.08-.04-.09l-.02.05-.07-.04c-.02-.07.01-.12.07-.18.03-.07-.06-.09-.09-.13l-.02-.02c.03-.1.03-.2.02-.31l-.04-.09c-.03-.09.08-.2-.08-.26,0-.07,0-.13-.01-.2-.02-.09.04-.21-.1-.27-.01,0-.03,0-.04,0-.01-.04-.05-.07,0-.12.12-.08.13-.15.01-.22-.04-.14-.1-.27-.13-.41-.07-.29-.13-.64-.27-.86-.01,0-.02,0-.03,0,.01,0,.02,0,.04,0,0-.03.07-.05-.02-.07.16-.02,0-.04.07-.06.02,0,.1,0-.03-.03-.01-.03.16,0-.03-.07-.04,0-.04,0-.06,0h.04c.1.04.12.05.1.04l-.03-.02c.07,0,.06,0,.05-.03.17.09.01-.01.1.03l-.07-.05c-.1-.08.05.03.05.03.01,0,0,0,0,0,0,0,.05.03.05.02-.04-.05.06.04.02,0s-.04-.07,0-.02c.05.07-.08-.13.03.03,0-.03,0,0,.03,0,.06-.01.12-.04.13-.12h-.01s.01,0,.01,0c.04.01.1,0,.1.02v.02s.01,0,0-.03c0,0,.02.02.01-.02.03.16,0-.06.01,0v-.02h0s0,0,0,0h0v.06h0s-.02.12,0,0v-.05c.04-.08,0,.07.03,0-.04.1,0,.03.01.01q-.03.05,0,0c-.07.1-.02.04.01,0,.02,0,.03-.01.04-.02,0,.01-.01.02-.02.03,0,0,.02-.01.05,0-.01.06-.13.18.04.1l.04-.04s-.03.01-.04.04c.04.21.21.27.38.33.02.01.04.02.07.02l.13.12c.08,0,.09.09.16.1h.03s0,0-.01.01c0,0-.01.02-.01.04.02.09.07.15.19.12.04.06,0,.2.13.18l.06.03c0,.13.15.09.21.15l.02.08.02.02c.27.2.61.31.83.57.01,0,.03-.02.04-.04.06.03.12.07.18.09.32.15.66.26,1.09.21.1.03.21-.04.32-.04.06.06.18-.04.24-.01l.26-.15h0s.01.04.04.04h.03c.14-.12.31-.18.44-.34.13,0,.24-.14.35-.22l.25-.28c.35-.34.55-.72.72-1.12l.07-.09.02-.04v-.14s0-.07,0-.07v-.15c.01-.06.04-.13,0-.16v-.2c0-.15-.1-.24-.02-.43-.07.04-.07-.03-.11-.04-.1-.07-.11-.23-.2-.32-.19-.18-.35-.39-.52-.59-.02-.07-.11-.04-.16-.09-.16-.18-.36-.33-.63-.4l-.23-.18-.04.02h0s-.01-.01-.01-.01c0,0,0-.01,0-.03-.06-.04-.09-.12-.18-.12l-.05-.04c0-.14-.16-.11-.22-.18-.09-.12-.2-.22-.32-.31l-.09-.07s-.06-.04-.12-.1l-.33-.28c-.06-.03-.11-.07-.15-.13l-.54-.47-.3-.3-.03.02v.04-.04l-.41-.39s-.01,0-.02-.01c.01,0,.02-.02.04-.04-.22-.32-.5-.47-.74-.74h-.02c-.08.03-.16.08-.24.13l-.9.37-.76.46h-.02s-.02.03-.02.03l-.23.12c-.26.07-.49.23-.74.37l-.48.32-.14.06-.08.04c-.05.03-.1.06-.15.09l-.47.3c-.27.16-.54.34-.8.51-.44.28-.85.58-1.28.88-.2.15-.49.27-.58.45h-.02c-.07.01-.11.03-.15.04,0,.09.11.25.13.36v.17s.2.59.2.59c-.04.12,0,.26.11.4h0s.03.11.03.11c0,.39.22.77.32,1.15.05.12.07.24.11.37.01.06.04.13.06.17.02.03.04.06.08.08.01.03.05.06.04.09-.07.26.06.48.14.71.14.39.21.79.29,1.19l.07.39.06.2.04.16c.04.28.02.57.3.79-.04.04-.04.08.02.1l.06.26c.02.07-.08.15.03.2v.07s0,.01,0,.01h0s-.01.05,0,.07c0,.06,0,.11.04.15v.05c-.01.13-.03.26.07.37.03.05.09.09.08.15-.01,0-.03,0-.04.01-.02.18,0,.36.08.53.06.18-.01.39.07.57,0,0,0,.02,0,.03-.04.2.1.39.1.58.01.26.1.51.16.77h.04c.12.36.1.74.15,1.12h.01c0,.13.01.25.07.36v.12c.02.15-.01.31.04.46,0,0,0,.02,0,.03v.04s-.05.02-.07.04c0,.08-.03.16.07.22v.07c-.04.09,0,.18,0,.26.09.22.01.46.11.68,0,.01.02.02.04.02h0c-.04.09.07.15.08.23v.13c.09.04,0,.09.01.14-.15.15-.02.27.02.4v.04s0,.04,0,.04c.04.03.04.08.07.11v.07l.04.04s.04,0,.06,0h-.06l.03.44c.01.07.09.12.07.2-.16.11.04.23-.04.34v.04Zm11.27-1.97s-.06.01-.09.03c0,0,0-.01,0-.01.02,0,.05-.01.08-.01Zm-22.38,9.51c.3-.02.46.13.7.19l.54.23h.16s0,0,0,0c0,0-.02,0-.03,0,.13.05.26.1.39.15l.28.09.41.12c.29.09.59.12.86.25.07.04.15,0,.22.04.03.01.06,0,.06-.05h0l.08.05c.12.05.26.05.35.15.23-.01.42.11.63.15.07.01.13.04.19.06.1.12.22.18.39.19.2,0,.38.16.56.25.51.18,1.05.28,1.54.5l.32.11.29.15c.13-.02.21.07.32.12l.56.2.36.18c.07-.04.12,0,.15.06l.49.15s.08.04.13,0h.05s0,.01,0,.01c.03.14.15.15.23.2.06.04.13.07.19.1h.02c.31.15.61.31.92.42.51.18.97.43,1.44.66.05.03.1.07.15.1.44.15.85.37,1.26.59.06.04.13.06.2.08.08.07.17.11.27.13.11.1.23.18.37.24l.05.02v.06s.19.09.19.09c.1.02.17.11.29.09,0,0,0,.01,0,.02.05.02.1.03.13.08.1,0,.13.15.26.04,0,0-.01,0-.02-.01v-.12c.03-.05.06.09.12-.03.07-.01.08.12.18.02l.15.07c.04-.18-.16-.11-.17-.24,0-.01,0-.03-.02-.04h-.01s0,0,0-.01c-.01-.02-.04-.03-.06-.04h0s0,0,0-.01c0-.01,0-.02,0-.02-.01-.06-.06-.08-.1-.11h0v-.07s.05-.09.05-.09c.01-.09.03-.19,0-.27-.04-.02-.04-.06,0-.12-.02-.15-.13-.18-.24-.22h-.1s.01-.04.01-.05c-.05-.08-.06-.23-.2-.2l-.1-.05c0-.09-.01-.11-.1-.04-.09.09-.17.09-.22,0,.04,0,.07,0,.1-.06l.1-.2c-.08-.04-.1.07-.14.12h0s-.02,0-.03,0l-.08-.05v-.09c.13.02.04-.18.14-.19l.06.02.07.09c.06-.01.1.08.17-.03.05-.03.09-.02.1.04-.01.17.11.17.2.18.07.01.14.04.21.07.04,0,.07.04.12,0,0,0,.02,0,.03.01l.13.13.14.03s.04.04.08,0h0c.04.07.11.09.2.09l.07.04s-.01.03-.01.04c.16.11.34.19.55.23.07.01.14,0,.21-.05.07,0,.08.09.11.15h.02s0,.03,0,.03c0,.01.02.01.04,0,.1-.12.24-.15.35-.17.09-.02.1-.08.14-.15v-.06c0-.05-.04-.07-.07-.07,0,0-.01,0-.02.01,0-.1.03-.2.14-.25l.07-.11c.13.07.27.02.41-.04h0s.05.06.09.07c.1-.03.23.09.31-.14-.02-.07-.14.05-.13-.07.04-.06,0-.1.01-.15-.02-.03-.03-.09-.07-.09,0,0,0-.02-.01-.03-.02-.04-.05-.07-.09-.09-.08-.02-.17-.04-.27,0h0s0-.04,0-.04c.1-.05.07-.12.05-.18,0,0-.01-.01-.02-.03l-.06.02s-.05.03-.08.02l-.1-.1c.05-.16-.11-.11-.14-.19,0-.05-.02-.06-.05-.07-.09.01-.16,0-.18-.1-.01-.05-.04-.09-.1-.04-.12-.06-.25-.09-.32-.21,0-.03-.02-.04-.05-.04,0,0-.01.01-.02.02h0s0-.03-.02-.03l-.04-.07s-.01.01-.02.03l-.09-.06h-.04s-.01.04-.01.04c0,0,.01-.02.01-.03l-.04-.08c-.07-.07-.14-.15-.24-.18-.03,0-.05,0-.08,0-.03,0-.05.03-.07.06-.12,0,0-.12-.03-.17h.01s.02-.04.03-.07c0-.01,0-.03.01-.04.01-.01.01-.03.03-.04l.02-.02v-.02s.04-.06.04-.06c0,0,.01,0,.01,0,.03-.01.06-.04.09-.06.03.05.08.07.15.04l.04-.02h0s.1.04.1.04c.01.07.07.07.11.1h.06s.31.07.31.07c.07.08.19-.01.28,0,.07.01.19-.04.18.12l.03.02s.01.03.03.03c0,0,0,.01.02.01h.09c.07,0,.07.09.16.07h0s.01,0,.01,0h.01c.08-.05.15-.03.21,0,.14-.12-.01-.15,0-.22,0-.07-.06-.09-.1-.11l-.1-.05c-.05-.03-.1-.06-.13-.12l-.11-.04s-.01-.02-.02-.04c-.07-.04-.15-.01-.23,0,0,0,0,0,0,.01-.07,0-.01-.22-.16-.09-.01-.05,0-.14-.1-.09-.04.02-.07.01-.07-.04l.03-.04c0-.06-.07-.03-.1-.05-.13-.15-.28-.24-.47-.28l-.02.04-.02.04s-.02,0-.02,0c-.03-.03-.03-.12-.11-.05h-.03c-.06-.11-.18-.09-.27-.15,0,.01,0,.03,0,.04h0s0-.03,0-.04l-.1-.07.04-.02s0,0-.01,0c0,0,.01,0,.02-.01,0-.15-.08-.15-.17-.15-.34-.1-.61-.35-.92-.49-.21-.09-.43-.2-.64-.3-.1-.16-.31-.14-.43-.27-.07.01-.13,0-.16-.08l-1.11-.48c-.11-.04-.21-.1-.35-.04-.11-.04-.23-.07-.31-.17-.27-.09-.51-.28-.76-.42-.16-.09-.35-.15-.51-.25l-.06-.07c-.21-.08-.44-.15-.62-.28-.05-.07-.12-.09-.2-.07h-.03s-.63-.24-.63-.24c.02-.11-.05-.1-.1-.12-.1-.06-.23-.04-.32-.12h-.06c-.16-.06-.33-.12-.51-.1l-.44-.15c-.02-.08-.07-.13-.13-.18-.06-.09-.14-.11-.24-.08-.13.02-.21-.11-.34-.11l-.02-.05c-.14.02-.2-.14-.32-.15l-.1.07-.2-.07-.38-.11h-.03c-.05-.01-.08-.1-.15-.07,0,0-.01,0-.03.01-.06,0-.07-.07-.12-.08-.1.04-.18-.04-.27-.04,0,.01,0,.02,0,.04v-.04s-.41-.17-.41-.17c-.04-.02-.09-.02-.1-.09l-.16-.1s-.07-.01-.11-.02h-.15s-.01,0-.03-.01c-.11-.12-.27-.12-.41-.16-.24,0-.44-.14-.69-.13-.04,0-.07-.01-.1.02h-.07c-.04-.07-.11-.07-.17-.07-.01,0-.02,0-.03,0-.04-.07-.12-.08-.18-.09-.03-.01-.05-.02-.08-.03-.08-.02-.07-.01-.07-.01,0,0,0,0,0,.01,0,0,0-.02.03-.09,0,0,0,0-.02.04-.02.03.04-.08-.03.04l-.02.02-.02.04s.01-.02.02-.04h0s0-.04.01-.07h0s-.07.05,0-.02c.03-.04-.05.04-.06.04,0,0,0,0,.01-.01h0s.01-.01-.04.03c0,0-.01-.01-.02-.02h0s.02-.02-.01-.01v-.04s-.02-.02-.02-.02c0-.01,0,.01,0-.04v-.13s0-.1,0-.1c.1,0,.02-.01.04-.01h.03c.1,0,0,0,.1,0,.01,0,.03,0,.04,0s.04.01-.02,0c-.04-.01-.07-.03-.11-.04s.09.03.06.02c.06.02.05.02.05.02,0,0-.03-.02.03.01l-.04-.02s-.07-.04-.06-.04h.01s.01,0,.01,0h.02s-.04-.03-.04-.03c-.1-.11.02,0,.02,0,0,0,0-.07.04,0h0s0-.01,0-.01c.01,0-.02,0,.07-.02.02,0,.04,0,.06,0,.12,0,.23-.04.33-.09l.21-.06h.04c.1-.04.23,0,.31-.11h.08s.14-.03.14-.03l.03-.05s.02,0,.03-.01c.14-.12.34-.07.47-.2l.1-.03c.05-.01.1-.03.13-.09h.08c.12.01.2-.07.28-.15l.06-.06s.05.04.08.02c.05,0,.1-.01.13-.05l.1-.04.07-.02c.12.03.19-.11.32-.07.04-.09.16.01.21-.07l.13-.06.4-.15.07-.12s.04-.09,0-.13c0,0-.04.03-.07.04-.07.03-.1-.03-.12-.09.05-.12.14-.19.25-.23.02,0,.07,0,.05-.05-.01-.05-.06-.07-.1-.05-.06.04-.13.07-.2.02,0-.04,0-.07.02-.09.01-.01.07,0,.04-.05-.01-.04-.05-.05-.08-.04-.09.03-.17.07-.26.1l-.04.08-.13.04s-.02.03-.01.05c-.02.01-.04,0-.05-.02l-.16.06c-.07.01-.1-.04-.12-.12l-.02.18h0s0-.01,0-.01c-.05-.04-.1-.01-.14,0,0-.01,0-.03,0-.05s-.02-.04-.04-.06c.01-.01.02-.02.04-.04h0c.06.02.11,0,.16-.04.07-.04.17,0,.21-.1,0-.01,0-.02,0-.04.01,0,.02-.01.02-.03.05-.04.16,0,.14-.15.05,0,.09-.02.13-.06v-.14c.07,0,.14-.04.23.01.01,0,.02,0,.03-.01.04,0,.07-.02.08-.08l.07-.12s.03,0,.04-.02c0,0,0-.01,0-.02.04,0,.1,0,.06-.1-.04.01-.06,0-.07-.04.07.02.13.02.16-.05-.01-.1-.07-.17-.15-.18-.06-.04-.11-.04-.16-.04.02,0,.04-.03.05-.07h.02c.05-.02,0-.1.04-.12h-.17s-.07-.15-.07-.15c.02-.01.04-.03.04-.07.04,0,.08.09.13.05l-.07-.18-.02-.07c.1-.04-.01-.1-.01-.15-.03-.12.01-.21.01-.32.02,0,.07.04.07-.01,0-.04-.03-.08-.07-.09l-.06-.07c.1-.02.1-.07,0-.16,0-.07,0-.13-.04-.19,0-.14-.1-.18-.17-.24.03-.18-.09-.22-.18-.28-.05,0-.08-.07-.11-.11l-.07-.07c-.05-.04-.07,0-.1.03,0-.04,0-.09-.04-.13-.03-.03-.05-.04-.08-.01h-.03l-.04-.03c-.02-.07-.06-.09-.11-.09l-.12-.02s-.05-.04-.08-.04c-.04-.04-.09-.17-.13-.03-.04,0-.07-.05-.11-.02-.05-.14-.12-.07-.18-.07-.1,0-.22-.07-.3.04-.03-.04-.05,0-.08,0-.07-.03-.13-.04-.19,0,0,0,0,.02,0,.03t0,0s0-.02,0-.03-.01-.01-.01,0c-.05-.04-.09-.03-.1.04-.14,0-.27.04-.38.13-.08-.01-.16-.01-.23.04-.07,0-.16-.04-.19.07v.03s0-.02,0-.03c-.07,0-.13.09-.22-.03-.02-.02-.07.02-.07.08v.07s-.04.03-.04.03c0,0,0,.01,0,.02h0v-.02s-.05-.01-.07,0c-.36.25-.81.24-1.2.45-.07-.01-.13.01-.19.05l-.09.05s-.03.01-.05.02c-.03,0-.07.01-.1.02h-.01s-.02.02-.02.02c-.02.01-.03.03-.02.04-.31.04-.59.16-.86.26l-.18.04h0s-.01-.01-.02-.03c-.21.01-.42.06-.58.15-.03.03-.07.04-.13.04-.37,0-.6.17-.91.23-.15.03-.35.04-.41.14-.04-.01-.08-.03-.13-.04l-.14.03c-.06.33-.1.68-.04,1.07l-.07.91c.1.23,0,.39-.02.59-.01.11-.07.21.02.32.09.15-.05.29.01.45-.04.23-.05.47-.04.71v.23c.02.07.02.13.02.26v.66s-.01.03-.02.05c-.01,0-.03,0-.04.01v.12c.04.29.02.62.13.88-.07.2.07.33.01.52.02.05.09.07.06.17-.04.18-.01.32.05.43v.07c-.01.09-.01.15.06.1-.03.04,0,.1-.02.15.01.21.02.43.05.64l1.44.36Zm10.93,17.62s0-.03-.01-.04c0,0,0,0,.01,0v.04l1.37.7,1.26.65s.1.01.07-.07c-.26-.12-.45-.43-.71-.52-.01-.01-.03-.02-.04-.04h.18l.47.25c.14.08.3.2.43.19l.1.05.61.34c.16-.15.32-.31.47-.52,0,0-.01,0-.02-.01,0,0,0,0,0,0h.02c.23-.11.45-.33.64-.58l.11-.16c.43-.25.75-.73,1.13-1.07l.32-.29c.17-.04.23-.19.36-.27,0-.01-.01-.03-.03-.04l.76-.66c.21-.31.49-.55.78-.79,0-.03.01-.07.04-.08l1.13-1.01.02-.09s.16-.03,0-.15h-.07c.04.09-.04.08-.05.12-.17.1-.32.23-.45.37-.04.04-.05.1-.15.02h0c-.32.31-.69.53-1.06.77-.05.03-.1.07-.15.12-.04.04-.08.08-.13.11-.1-.02-.05-.08-.07-.12l.27-.23s.05-.01.05-.05l.12-.13s-.02-.01-.04-.02c0,0,.02.01.04.02l.11-.08c.07,0,.13-.03.13-.12l.08-.07.1-.09-.04-.04h0s0,.02.03.03l.21-.18s.03.04.05.04c.06,0,.1-.03.1-.09.09-.09.17-.19.29-.26.02-.04.07-.04.04-.11l.04-.06.12-.03-.02-.03.04-.04c.16-.03.24-.16.35-.25,0,0,0,0,.01-.01,0,.01.01.03.03.04l.47-.4s-.01-.01-.01-.02c0-.01-.02-.01-.03-.02,0,0,0,0,0,0l.02.03h0s0,.02,0,.02c.21-.05.3-.28.52-.35,0,.14-.14.13-.13.25.01.14-.04.21-.14.25-.04.01-.08.04-.07.12h-.01v.02c-.05.03-.12.06-.14.15.14.03.21-.02.29-.06.16-.07.1-.31.21-.42.02,0,.04,0,.05-.03.18-.09.3-.23.42-.39,0,0-.01,0-.02,0,0,0,.01,0,.02.01l.07-.07s-.01-.01-.01-.02h0s.01.02.01.02c.08-.02.13-.07.18-.14.01-.01.02-.04.04-.05.07-.07.15-.12.24-.17.23-.12.47-.2.66-.37.1-.01.16-.11.24-.15l.37-.26.79-.58s.07-.03.09-.05c.14-.08.26-.19.38-.31.04-.02.07-.04.1-.06.45-.31.79-.76,1.25-1.07.36-.25.72-.51,1.04-.83.18-.17.41-.27.52-.53,0-.07-.03-.07-.07-.08-.07-.06-.09-.04-.13.01-.1.14-.24.23-.38.31-.06-.02-.08.03-.13.04-.04,0-.07.05-.1-.05l-.02-.04c-.04-.07-.1-.14-.04-.21.06-.06.13-.13.14-.24h.05s.03.05.03.05c.06-.06.12-.12.15-.2.13.05.21.01.22-.12l.27-.18s-.01,0-.01-.02t.01,0v.02c.13.03.17-.07.21-.15.05-.09.11-.18.22-.19.16.04.16-.14.23-.23,0-.02,0-.04.01-.07l.1-.09.23-.16c0-.08.07-.11.11-.18-.06.01-.1.02-.13.04l-.27.22s0-.01,0-.02h-.03l-.24.21c-.09.1-.22.14-.3.26l-.05.05c-.07-.01-.13,0-.16.08l-.05.05-.09.06c-.06-.03-.07.02-.11.04-.01-.03-.1,0-.06-.07.03-.05.08-.09.13-.12l.24-.22.1-.09c.05-.04.02-.08-.04-.12l-.18.17s-.02,0-.03.01c-.18.07-.3.2-.42.34l-.02.04c-.24.17-.49.34-.71.53-.04.04-.07.15-.18.05v-.07s.01-.01.01-.03c.37-.28.64-.69,1-.99l.16-.13s.07-.04.1-.07l.11-.07.05-.04c.1-.05.18-.11.24-.2.14.03.18-.12.25-.19.24-.23.52-.42.72-.72.21-.2.42-.38.63-.57-.18-.11-.27-.03-.36.03-.04-.04-.14-.07-.07-.15.04-.04.07-.1.03-.18-.05-.08-.13-.06-.18-.05-.11-.01-.22-.04-.31.02h-.11c-.09,0-.16.04-.22.07-.13.03-.24.08-.34.17-.1,0-.14.1-.21.15l-.46.11c-.15-.04-.24.04-.36.06-.01-.17.13-.14.18-.23l.27-.18v-.03s0,0,0,0v.03c.1,0,.14-.09.22-.12.18-.07.34-.18.53-.33-.29-.03-.46.07-.63.18-.3-.04-.52.09-.72.26,0,.02.02.03.03.04l-.03-.04c-.07,0-.13.03-.16.08l-.08.07c-.1.01-.19.07-.27.12-.38.12-.75.24-1.09.43-.08.03-.17.05-.23.12-.25.06-.46.2-.67.33-.13.04-.24.09-.33.17-.17.03-.29.14-.41.23-.13.06-.3.08-.38.21-.35.18-.7.36-1.03.58-.07-.02-.1.03-.15.06l-.56.42s-.07.03-.1.05c-.36.18-.63.46-.92.73-.01,0-.02,0-.03.02-.24.19-.55.26-.77.47l-.49.31c-.35.15-.59.42-.88.64l-.12.04c-.17.06-.29.19-.43.29-.55.39-1.08.82-1.59,1.26-.07.14-.27.15-.32.32l-.1.15-1.02.97s-.04.02-.07.04c-.18.12-.34.27-.49.42l-.39.39s-.02-.01,0,.01c0,0,0,0,0,.01h0s-.01.06-.02.1v.02s-.07.01-.1.02c-.01-.04-.02-.04-.04-.04-.04-.07-.04-.15-.11-.12v-.02c-.06.01-.08.02-.11.02,0-.01.01-.04-.01-.01-.05.02.02-.06-.08,0h0s0-.03-.04,0h0s0-.04-.05-.01h0s.01-.03-.04-.01h-.06s-.03-.03-.04-.04c-.06-.02-.02-.07-.11-.11,0-.02,0-.04,0-.07,0-.01,0-.02-.01-.04s-.02-.02-.02-.1c.02-.09.04-.18,0-.27.04-.16.06-.32.03-.49h.01s0-.03,0-.03c0-.09.06-.18.01-.27.04-.17.02-.34,0-.53.05-.14.01-.28-.04-.43.04-.08.04-.18,0-.26.04-.1.01-.2-.04-.31.02-.09.02-.19-.04-.28.01-.07.05-.15-.04-.22l-.06-.22c-.07-.31-.18-.62-.43-.91-.04-.03,0-.08-.07-.1l-.03-.07c.04-.12-.05-.23-.12-.34-.01-.03-.06-.05-.1-.05-.01,0-.04.02-.04.04.03.12-.06.26.13.37,0,0,0,.02-.01.03-.04.04-.04.07,0,.11,0,0,0,0,0,0-.01.02,0,.05.01.07h-.04c0-.07-.02-.13-.1-.18-.25-.22-.34-.49-.59-.71-.17-.14-.44-.2-.58-.08-.23.2-.57.31-.78.53-.12.02-.09.15-.23.15-.04-.15-.05-.29-.24-.41-.13-.06-.17.01-.21.07-.05.07-.09.16-.07.25.03.18-.07.32-.13.48,0,.08,0,.16-.04.23,0,.01,0,.04,0,.05,0,.06-.02.11-.04.16,0,.01-.01.03-.01.05-.01.05-.01.1,0,.15,0,.01,0,.03,0,.05-.07.09-.07.2-.09.3.04.13-.1.23-.05.36-.06.27-.09.55-.18.82-.09.28-.15.56-.21.85l-.22.76-.25.83-.63,2.02.91.62s.05,0,.07,0c.3.24.71.41,1,.66-.17.08.05.18.09.26.5.27.97.67,1.52.93h0Zm11.95-37.63s-.06,0-.08.02c-.42.39-.93.66-1.4.99-.26.18-.5.39-.75.58l-.1.08-.78.56.04.05h0s-.01-.04-.04-.06c-.33.22-.68.42-.97.69-.13.03-.16.19-.27.23l-.21.19s0,.05.03.07c.13.06.21.01.3,0l-.13.12s0,0,0,0c-.02,0-.04,0-.04.01l-.55.46-.13.07s0,.04,0,.07c-.03.02-.06.04-.11.07.07.02.1.03.14.04l.13-.07c.14.01.23-.07.34-.13.14,0,.22-.09.33-.14.21-.07.4-.18.58-.29.07.07-.06.09.03.16.13-.02.24-.04.36-.06.09.04.15,0,.19-.05.01-.02.03-.06.02-.09,0-.01,0-.02-.01-.04.02-.01.04-.02.07,0,.01.07-.01.11-.03.16l-.21.13s0,0,0,0c-.02,0-.04,0-.04.02l-.19.16s-.05.09,0,.09c.13,0,.04.13.1.15h0s-.1.06-.1.06c-.02.04-.08.03-.1.08,0,0-.01,0-.01.02,0,.13-.13.12-.18.18,0,0,0,0-.01-.01-.04.04-.13.02-.13.13,0,0,0,.02,0,.03-.14,0-.22.12-.34.17,0,.01,0,.03.01.04h.02s0,.01,0,.01v-.02s-.18.12-.18.12l.05.09s0,0,.01,0c.04.03.07.17.11.07.04-.05.1,0,.16.04h0s-.03,0-.04.03c-.01.03,0,.07.01.09,0,0,0,0,0,0-.12-.01-.19,0-.14.19-.07.02-.13.18-.26-.05-.03-.04-.05,0-.07.04-.01.04-.01.07.04.11l.16.12c.13.1.02.13.03.2l-.07.03-.1.07s-.06.01-.04.07l-.07.03c-.08-.03-.1.09-.18.04-.02.07-.13.03-.12.15-.07,0-.07.14-.17.08-.03.02-.08.02-.07.09.07.14.1,0,.16.04,0-.14.16-.04.16-.15.06-.05.13-.07.21-.06.04-.08.14-.07.18-.15h0s.07-.04.12-.01c.08-.12.24-.12.34-.2,0-.01,0-.03-.01-.04l.12-.07c.2-.04.37-.14.52-.27v-.04s.01,0,.01-.01c.01,0,.02,0,.02,0l.04.03.04-.03s.08-.01.12-.03c.06.02.1,0,.13-.04,0,0,0-.01,0-.02h0s0,.07,0,.07c0,.07.1.12.07.19v.03s-.04,0-.06.02h-.04s-.03,0-.04,0c-.04,0-.03.06-.03.1l.02.04h-.05s-.04,0-.04,0v.15s-.02,0-.03,0c0-.01-.02-.03-.04-.03l-.08.06c.04.1-.09.02-.08.09l-.06.05h-.04c-.08-.02-.06.09-.11.1l-.18.07v.03s-.07.05-.06.12c.01.06.07.08.11.08v-.07s.02.01.02.01c.04,0,.06-.02.07-.05h0c.02.08.05.14.1.19h0c-.02.07-.14-.03-.13.08-.08-.07-.12-.02-.16,0l-.08-.2c-.11-.06-.15.04-.23.05h-.01s-.01.01-.01.01c.1.18.13.05.19.04.04.08.1.13.16.18,0,.16-.11.01-.16.04,0,.12-.1.12-.11.22,0,.06-.07.09-.03.16,0,0,0,0,0,.01-.01.02-.03.05-.03.09-.1-.02-.07.13-.13.16-.02.08,0,.16.09.23t.01,0s-.01.04-.03.04c.07.05.15.1.16,0,.1-.07.3,0,.33-.19l.18-.05c.16-.03.28-.09.3-.29t-.01-.02h.01,0l.52-.3s.07-.04.07-.1c.01,0,.02,0,.03-.02.07-.04.16-.07.21-.15.02.01.04.01.04,0l.33-.22c.03-.07.1-.09.16-.1l.04-.07.44-.27c.11.03.1-.12.19-.12.06.01.1,0,.15-.01.07-.07.31.03.16-.26,0,0,.01-.01.03-.01.07.04.13.09.18.16,0,0-.01.01-.02.02v.02s-.08,0-.11.02c-.03,0-.06.03-.09.04-.03.01-.05.04-.07.05-.04.03-.08.07-.07.15l-.52.37s0,.02-.01.02c-.01,0-.01.02-.01.03-.15.09-.31.17-.39.34v.07s-.07.04-.07.04c-.12-.03-.18.06-.24.12l-.16.12s0,.03.01.05c-.12.04-.2.13-.27.23,0,0-.01,0-.03,0-.02,0-.03,0-.03.03l-.11.09c-.16-.04-.18.13-.27.2.08.05.16.04.22.01l.06-.07.1-.04s.05,0,.06-.04l.06-.05c.19-.05.32-.2.48-.29.1-.04.27,0,.2-.23h0s.06.04.09.04c0,.01.01.03.02.04.02.04.04.07.07.09-.02,0-.04,0-.06,0-.01.01-.03.04-.03.07,0,0-.02,0-.03,0-.04.02-.09.04-.1.1l.02.18.2-.11.1-.05c.1.04.11-.07.16-.11.15-.07.3-.14.41-.26.07-.07.2-.06.26-.15.09-.07.21-.09.26-.23h-.02v-.02h.02c.13-.04.34,0,.32-.26,0-.02-.01-.04-.03-.04l.03.04.1.02c.17-.14.38-.22.52-.39l.05-.04c.22-.15.47-.24.66-.45.07,0,.13-.04.16-.11.08-.06.19-.09.22-.21.01,0,.02,0,.03-.01.19.07.24-.08.3-.19,0,0,.01,0,.01-.03.24-.03.36-.22.52-.36.16-.02.22-.18.33-.28.15-.12.32-.2.46-.35l1.16-.85.32-.31c.24-.14.46-.31.66-.51l.05-.04c.16-.07.32-.15.4-.31.08-.01.14-.06.17-.14.11,0,.16-.09.21-.17l.09-.07c.39-.3.78-.58,1.13-.93.14-.05.25-.15.32-.27.01,0,.02,0,.01-.02.1-.08.22-.13.29-.24.05-.01.1-.04.12-.09.05-.01.09-.05.11-.1.43-.31.81-.67,1.18-1.04.07.01.11-.04.15-.07.34-.31.67-.61,1-.93l.13-.11s.02-.01.03-.02c0,0,0-.02,0-.07h0s.03,0,.02-.02l.04-.03s.01,0,.01-.02v-.02s.04.01.04-.02h0s.01.03.01,0c0,.04.01.03.01,0l.09.04c0,.05.01.07.04,0v.03s.03.04.04.01c.01.06.04.04.08.04,0,.04,0,.06.03.01t0,0h0s.01.01.01.01c-.01.04-.01.07.03.02,0,.04.01.04.05.03,0,.02-.02.04.01.01h.04s0,.02,0,.02c0,.01-.04.07.07,0-.1.09,0,.04,0,.05l.04.03h.01s-.02.03.01.02h.01s0,.03,0,.04c0,.01.01.01.02.02h0c-.06.03-.02.03,0,.04h-.01s0,.06,0,.06c0,.02-.06.03,0,.05v.04s-.05.07-.04.11l-.03.11-.08.33v.04s-.01.04-.01.04l-.12.51v.07c-.09.14-.09.29-.12.44v.04s-.07.33-.07.33l-.02.07c-.03.18-.12.34-.07.53v.06c-.07.19-.1.38-.06.64.1-.11.17-.18.15-.27l.06-.26v-.04c.1-.04.11-.11.04-.18h0v-.03c.07-.03.07-.09.08-.15.04-.08.06-.16.06-.26l.06-.29.03-.15c.05-.08.1-.15.06-.26.04-.07.13-.12.1-.2l.02-.12s.04-.07.01-.12l.09-.24v-.16s.06-.08.05-.13c.03,0,.05,0,.07-.02.04-.08.07-.16.1-.24,0-.04.01-.09,0-.12-.01-.01-.03-.03-.06-.04-.01,0-.04,0-.06-.01l.07-.02h-.02s.03,0,.04-.01c.05,0,.07-.02.08-.04l.03.03-.06.02s.01,0,0,0c.04.03-.02.04.02.08,0,0,.01.01.01.05l-.03.03c-.04.07-.07.14-.04.22.01,0,.04.01.05.01v.04s-.04,0-.06.01c-.02.04-.04.07,0,.11l-.09.13v.04s-.06.28-.06.28c.08.1-.13.16-.01.26-.01,0-.03.02-.03.04,0,.06,0,.12-.02.18-.06.29-.16.58-.09.91.03.08-.15.12-.04.22-.02.04-.13.08-.03.15.07.15-.11.27.03.42-.05.17-.05.34-.04.51l.03.46c0,.06.04.09.15.09.13-.13.22-.27.19-.44,0-.01,0-.03-.01-.04h0s.04,0,.04,0l.07-.28c.09-.17.13-.35.16-.53l.13-.35c.09-.08.03-.2.11-.28,0-.03.04-.03.07-.02v.11s0,.02.01.02c-.04.07-.06.16-.05.25.02.09-.05.18,0,.27v.36c-.07.24,0,.5-.03.74v.32c.05.09.04.18.03.27,0,.15-.09.28.01.47.14-.1.15-.22.18-.36.13.12.28.14.44.15.13.07.25.12.41.08l.27.02c.2-.02.45.05.57-.09.1,0,.11-.06.18-.07.07-.04.15-.08.18-.15,0,0,0,0,0-.01.07-.01.1-.06.12-.1h.05s0-.02.01-.03c.09.03.03.09.08.12.04.11-.04.22.13.35.07-.17.1-.33.37-.37.11-.12.2-.24.13-.4l.03-.21.04-.13s.04-.07.04-.1c.15-.31.28-.64.31-.98.02-.01.01-.04,0-.07l.22-.72h-.02s.02,0,.02,0c.09-.1.07-.23.07-.34-.02,0-.04,0-.06-.01.01,0,.04.01.06.01.04-.09.09-.2.12-.29l.04-.15.06-.23.32-1.26s-.03,0-.04.01h0s.03,0,.04,0l.63-2.29-3.67-2.34-3.9-1.98-1.89,1.87-.1.1-.41.4-.38.36c-.38.36-.78.72-1.18,1.06h-.01v.03l-.89.78-1.04.88c-.16.09-.26.24-.4.35l-.92.74c-.38.31-.76.6-1.15.88,0,0-1.42,1.08-1.42,1.08Zm-.15,20.79l.16.04c.2.06.41.07.61.05.03.01.06.01.08,0,.36.04.72-.03,1.07-.09.2-.05.41-.05.6-.15l.19-.06.08-.02c.31-.11.61-.24.89-.41.58-.33,1.11-.74,1.5-1.28.16-.14.28-.3.35-.5.08-.18.25-.29.28-.5l.04-.07.07-.15c.07-.16.13-.32.19-.49.05-.18.1-.36.14-.54l.05-.24c.04-.18.06-.37.07-.56v-.04c.04-.61-.03-1.23-.21-1.83-.08-.26-.16-.53-.32-.75-.04-.09-.1-.18-.16-.27-.16-.31-.35-.59-.58-.86,0-.07-.06-.1-.1-.15-.16-.18-.33-.34-.51-.5-.32-.18-.59-.46-.95-.58-.21-.07-.34-.28-.58-.25-.15-.04-.3-.07-.44-.12-.28-.11-.58-.16-.89-.18l-.04-.04-.07.02h-.02c0-.14-.12-.1-.19-.11-.21-.02-.42.05-.64.01-.14.03-.3,0-.43.08-.03-.01-.07-.04-.1-.04-.41.06-.82.18-1.2.33l-.28.17s0,.03.02.04l-.02-.04c-.12.04-.22.12-.31.2-.06.03-.14.01-.17.09-.35.19-.69.42-.94.74-.26.26-.49.54-.69.84-.14.2-.25.42-.36.65l-.04.07c-.08.08-.07.2-.11.3-.08.09-.1.21-.13.32l-.05.19c-.02.09-.05.18-.07.26l-.04.23c-.05.35-.1.71-.02,1.06,0,.24-.03.5.08.74h0s0,.03,0,.03c0,.19.1.35.14.53.08.33.22.64.42.91l.12.2c.1.16.22.31.37.45.07.05.1.15.24.16-.05-.06-.09-.11-.13-.15-.04-.08-.13-.13-.12-.23.01-.04,0-.09-.01-.12-.03-.05-.07-.1-.12-.14,0,0-.01,0-.02,0,0-.02,0-.05-.01-.07,0,.01.01.02.02.04.01.02.03.04.06.04.06.09.12.19.2.26.07.1.16.18.22.29,0,.03.03.05.06.07,0,0,0,0,.01,0l.09.11c.07.04.07.15.21.14-.08-.13-.12-.27-.22-.36.01-.08-.04-.12-.08-.16,0-.09-.07-.15-.11-.22l-.09-.2c0-.05-.01-.09-.02-.13.01.01.03.02.06.02h.05c.05.07.07.15.17.18l.08.1s.06-.02.07-.05l-.08-.1c-.05-.11-.1-.22-.14-.33t-.01-.02v-.02c.01-.07-.03-.12-.06-.18,0-.01-.02-.02-.04-.04v-.04s0-.06-.01-.08c.01,0,.03.02.04.03,0,0,.02,0,.03,0,0,.07.04.12.09.17h-.01s-.03.03-.03.04c0,.04.02.06.06.07l.04.04v.06s.02.02.04.01c0,0,0,0,0,0,0,.01,0,.03.02.04.07,0,.13,0,.19-.06-.07-.09.03-.26-.09-.32.12-.12.01-.18.01-.27.03-.04.02-.08,0-.11,0,0-.02-.02-.04-.02,0,0-.01,0-.02,0l-.05-.12c0-.05-.05-.09,0-.15v-.04s-.07-.03-.07-.03c.13-.12-.03-.19,0-.29l-.07-.07v-.03c.05-.03.07-.06.04-.09,0,0-.01,0-.03,0,.01-.02.03-.04.03-.06,0,.04.03.07.09.12.04.02.05.05.06.08,0,.01-.01.04-.01.06s0,.04.03.05h0s0,.02,0,.03c.01,0,.03.01.04.03l.04.05h0s0,.04.01.04h0s-.01,0-.03.01c-.08.08,0,.14-.03.21,0,.05.01.09.06.13.01,0,.04,0,.05.01,0,.04,0,.07.07.05-.04.04-.07.08-.07.12,0,.01.01.02.03.03.03.07.1.1.13.16,0,0-.01,0-.01.01.08.15.16.32.32.41l.07.08.07-.05-.07-.08s-.07-.02-.07-.08c.01-.14-.06-.23-.1-.34-.06-.14-.04-.3-.11-.43.04-.09,0-.14-.04-.2.04-.07.02-.12,0-.18.02-.08.03-.15-.05-.21.13-.06.05-.09.05-.15-.01-.07.06-.14-.02-.19l.03-.09v-.07s.01-.01,0-.01c.08-.14,0-.27.05-.4.03-.03.01-.07.02-.1,0,0-.01,0-.03-.01v-.04s.03-.01.03-.02v-.07l.06-.07c.01-.06.02-.12.04-.18l.04-.02c-.07.07-.04.17,0,.26h0c-.04.05-.01.11-.04.15-.01,0-.02,0-.04,0v.07s0,.13,0,.13c0,.02,0,.04-.01.07.05.05.01.1.03.15l.03.02c-.05.07,0,.13,0,.2v.07s.1-.01.1-.01v-.09c0-.05.02-.1-.02-.15,0-.04,0-.09.02-.14.03-.1.07-.2,0-.31.04,0,.05-.02.04-.04.05-.11.07-.23.07-.35.08-.09.09-.2.13-.29.13-.02.06-.15.21-.16.01,0,.03-.02.04-.03.01-.03.04-.06.01-.12,0,0,.01,0,.02,0l.03-.04c.05,0,.07,0,.09-.03.01-.01.02-.04.02-.06.01,0,.04.01.04.01l-.04.07s-.05.09-.07.14l-.07.11h0s-.01,0-.03,0c-.05.1-.1.21-.14.32l.03.04h.01,0c-.09.07-.09.18-.07.28-.01.05-.06.09-.02.15l-.02.21s.06.01.1,0c.01-.08.07-.15.07-.23l.07-.15s.04-.07.04-.11c-.01,0-.02,0-.03-.01h.01v-.04s.02-.05.02-.05c0,0,.01,0,.01,0,.08,0,0-.08.1-.09,0,.04-.01.07-.02.11h.04s-.01,0-.03,0l-.04.13s0,.08.01.12c0,.05-.05.09-.02.15v.18s-.05.09.03.12c-.03.05-.05.11.05.15v.04c-.03.2.1.36.22.5.05.08.1.16.16.23h.01s-.01,0-.01,0c.04.06.07.12.12.18.01,0,.02-.01.03-.02h0s-.03.03-.03.03c.04.05.05.13.15.13.01.01,0,.06.05.06l.07-.07s-.05.03-.07.06c.01.01.04.03.06.04.03.03.05.05.09.08.06-.1.03-.09.01-.1v-.02c0-.07-.06-.06-.05-.1h-.01s0-.09-.1-.05c-.02,0-.01-.01,0-.04.09-.09.08-.04.11-.04v.03c-.04.07.02.04.05.03l.03.03.05.06h.01s-.01.02-.01.02c.07.02.09.11.18.09.03.02.07.04.1.07.04-.05.05-.09.04-.09-.02-.03-.01-.09-.05-.09h0c.04-.07,0-.04-.03-.06h0c.06-.11,0-.1,0-.13,0-.07-.02-.09-.04-.12.03-.07-.03-.07-.04-.1.04-.1-.06-.12-.03-.2.04-.06-.04-.07.03-.13.04-.01.08-.03.13-.04,0-.01,0-.02,0-.04.03,0,.05,0,.07,0h.01s-.02,0-.03,0c0,0,0,.01.02.01.03.02.02.06.08.06h0s0,0,0,0v.02s0,.04.03.02v.02s.02.03.04.03c0,.02,0,.02.05,0,0,.03-.01.04.02.03.02,0,0,.06.04.04l.04-.02c-.04.1.08.02.1.06.04-.05,0,.06.07-.05.02-.12,0-.13-.01-.19-.01,0-.02-.02-.03-.04.04-.06,0-.04,0-.05,0,0-.01-.02-.02-.03.03-.04.07-.08.01-.07,0,0,0-.01-.01-.02.01-.01.01-.01.01-.02.03-.04-.02-.06,0-.09h-.03s.01,0,.03,0c.06-.05.15-.08.16-.09h-.01.01c.07,0,.04,0,.05-.01.04,0,.07,0,.05,0t0,0s.05,0,.04,0h0s.02,0,0,0c.07.02.04,0,.04,0,.07.03.02,0,.04.01h.01s0,0,0,0l-.07-.11s.04.06.07.11c.01.02,0,.01,0,0,.01.03,0-.03,0-.05,0,0,0,.03.01-.04,0,.04,0,.02,0,0,0-.04,0,.02.02-.04h0s.07-.06.07,0c-.04.07,0,.02,0,.04-.05.07,0,.01-.01.04-.01.01-.04.03.03-.02-.05.04-.06.05-.05.05,0,0,0,0,0,0,0,0,0,0,.01,0-.05.04-.04.03-.03.03s0,0,0,0c0,0,0,0,0,.01s-.01,0,.04.02c0,0,.01,0,.02,0h-.02s.01,0,.04.01c-.03,0-.01,0,0,0,.02.02.05.05.04.06-.03.03-.06.04-.09.06-.03,0-.04.04-.1.15-.02.04-.06.07-.11.15,0-.02-.03,0-.05.04-.03.03-.03-.01-.11.09-.04.13,0,.09,0,.15l-.04.07-.02.04-.02.04c-.08.18-.14.27-.16.22,0-.02,0-.03-.03,0-.05.03-.08.1-.1.18-.01.07.02.04.03.06-.01.06.01.05.03.05.05.02.1.06.16.07,0,0,0-.01.01-.03h0s-.01.03-.01.03c.01.13.07.18.14.2v.03s-.04,0-.04,0c-.08-.01-.16,0-.28.09l-.03.03c-.05-.01-.09-.07-.18.02-.01,0-.03,0-.05.04-.04.03-.05,0-.1.04l-.03.03c-.07.07-.05.14-.1.21-.07.01-.14.08-.2.21-.01.03-.01.04,0,.05v.09c.1.09.21.12.21.4-.07.04-.1-.04-.16-.03-.03,0-.05-.07-.1.05,0,.07.03.08.04.12h.01s0,.01,0,.01v.05c.01.09.07.13.12.19.02.02.04.06.09.04,0,0,0,0,0-.01l.09.04c0,.17-.06.11-.11.12-.03,0-.06,0-.09,0v-.02s-.06-.04-.1-.02h-.13c-.1,0-.14.11-.19.21-.07-.01-.13-.04-.21,0-.07,0-.13.04-.19.12l-.23.12c-.1.09-.12.18-.07.28-.05.1-.05.18.04.23.04.11.13.17.23.2.24.09.49.15.73.25.03.02.06.04.1.06.35.14.74.12,1.11.16.02.03.04.04.07.05-.04,0-.07.01-.12.04h-.43c-.15-.04-.29-.08-.44-.05-.07-.04-.15-.05-.22-.04-.19-.05-.38-.13-.58-.14l-.11-.03c-.09-.04-.18-.08-.27-.1s-.07.03-.02.07c.09.09.21.12.33.14.28.18.61.23.93.3h0Zm25.26-9.77h-.03c-.4-.17-.86-.28-1.31-.4-.1-.07-.21-.12-.36-.1-.15-.06-.3-.11-.46-.16l-.39-.12c-.15-.04-.31-.09-.47-.14-.22-.16-.5-.15-.74-.26-.1-.04-.21-.07-.32-.11l-.27-.08-.31-.1c-.05-.04-.11-.05-.17-.05-.08,0-.13-.12-.23-.04-.08-.07-.15-.15-.27-.14-.08-.04-.16-.11-.26-.08-.21-.07-.41-.18-.63-.23-.02,0-.04-.01-.07-.02h-.01s-.03,0-.04,0c-.37-.1-.71-.29-1.1-.34l-.3-.1-1.3-.51c-.03-.05-.09-.05-.13-.07-.26-.15-.54-.25-.81-.37l-.29-.13c-.18-.15-.4-.22-.61-.31l-.07-.03-.27-.12-.13-.07-.32-.15c-.02-.07-.08-.07-.14-.06l-.1-.04-.1-.05-.05-.03c-.13-.07-.27-.16-.41-.2-.03-.01-.07-.03-.1-.03-.12-.07-.23-.17-.38-.18l-.3-.13c-.16-.05-.29-.17-.46-.19-.01,0-.04-.01-.06,0-.11-.04-.2-.13-.34-.11-.03-.07-.1-.07-.16-.07-.07-.04-.12-.1-.21-.07l-.1-.04c-.05-.04-.12-.04-.18-.04-.09-.04-.15-.13-.28-.09-.1-.08-.22-.11-.35-.12-.21-.08-.41-.15-.64-.18-.04-.01-.07-.07-.12,0l-.06-.02-.05-.04c-.03-.11-.13-.12-.21-.15-.2-.09-.4-.18-.62-.23-.06-.04-.13-.07-.21-.06l-.03-.02-.24-.09c-.05.04-.03.07-.01.1l.35.2.38.22h.01s.13.11.13.11h0c.07,0,.12.04.17.07h0s-.07.03-.08.09l.25.13.03-.03.29.15.35.26s.02.02.03.03c.11.12.26.16.39.24,0,0,0,.02,0,.04-.08-.01-.13-.09-.24-.06-.07-.08-.13-.14-.24-.13h0s-.07-.08-.07-.08c-.04-.02-.08,0-.13.02,0-.01,0-.03,0-.04l-.13-.07-.13-.07-.13-.07-.13-.07-.1-.05-.06-.04-.13-.07c-.07,0-.12-.04-.18-.04h0c-.16-.05-.29-.13-.46-.12-.01.11.07.1.11.14.03.06.07.1.13.13.04-.01.07.02.1.02h.01s.08.06.12.09c.03.01.06.04.1.04.01,0,.03,0,.04,0l.1.06.15.1c.01.07.07.1.12.12.02,0,.04,0,.06,0,0,0,.01-.01.02-.02h0s.31.23.31.23c.01,0,.04.01.06.01.09,0,.15.08.25.03,0,.01,0,.03.01.04.02.02.04.04.07.04,0,0,0,0,.01,0,.06.11.2.11.27.2.22.06.41.2.63.26.02,0,.04-.01.07-.04l.41.22c-.11.07-.16-.04-.24-.07,0,0-.01,0-.02.01-.1-.04-.16-.12-.28-.09l-.16-.09s-.07-.03-.11-.03t-.01,0s-.07-.05-.11-.05l-.15-.07h-.02s-.02,0-.04,0c0,0,0,0,0,0l-.2-.09s-.01-.02-.01-.03c-.03-.03-.07-.04-.1-.08,0,0-.01,0-.02,0-.03,0-.05,0-.08.01,0-.04-.02-.07-.05-.08l-.05.02c-.05-.07-.15.06-.2-.01-.09-.03-.1-.17-.19-.18l-.04.07h0s0,0,0-.01c-.04-.01-.07-.06-.13-.04-.14-.1-.34-.08-.47-.19l-.1-.07s-.09-.07-.15-.04l-.07-.02h-.04s-.01-.04-.02-.04c0-.07-.04-.07-.07-.1-.17-.05-.28-.21-.48-.21l-.07-.02c-.05-.03-.04-.16-.16-.09h-.03c-.07.07-.16-.03-.23.09.04.02.08.04.07.1l-.05.08c-.07.05,0,.04,0,.07l.06.04c.03.12.16.12.23.2h.01s.04.03.04.03c.01.03.04.04.07.03.02-.04.04-.07.08-.07l.07.1.05-.04s0,0,0,0c.02,0,.04,0,.07,0-.03.02-.06.05-.08.08,0,.02-.01.04,0,.06.01.04.04.05.08.06.07,0,.14,0,.21,0,.07,0,.09.05.1.12,0,.01.01.01.02.02.04.09.02.15-.1.15h0s0,.01,0,.01h0s-.07-.04-.07-.04c0-.04-.01-.07-.04-.08h-.13s-.02,0-.02.01h0s-.04.05-.04.08c-.02-.04,0-.07.04-.08h.02c.06-.16-.06-.15-.11-.18-.03-.01-.06-.02-.09,0l-.07.12h-.12s-.04-.04-.08-.05c-.05,0-.1,0-.16.05t0,.01s-.04-.04-.07-.04h0c0-.07,0-.12,0-.18,0-.01-.02-.02-.04-.01-.01,0-.02,0-.04,0-.01,0-.03.02-.04.03,0-.03-.01-.06-.02-.09-.03-.03-.06-.04-.1,0,0,0,0,0,0,.01h-.02c-.05.04-.08,0-.12-.01-.05.15.04.11.1.11,0,0,0,0,0,.01-.02.04-.03.09-.02.13.07.04.13.07.21.07l.05.07.16.09c.04.05.13.04.15.13l.15.04s.07-.06.08-.1c0-.01,0-.02-.01-.04l.03-.04h.01s.01.01.01.01c-.02.06-.1.12-.05.18.06.02.09.11.17.07l.04.07s0,.06.01.08h.01s.2.11.2.11c0,0,.02-.01.03-.03h.01s.01,0,.01,0l.2.16.03-.02.4.19.03.02.1.06.2.1s.02,0,.03,0c0,0,0,0,.01,0,.04.01.07.04.09.07.05.05.12.08.19.11.03,0,.06,0,.1,0t0-.01v.03s.03.01.04.01c0,.04.04.07.08.09,0,0,.01,0,.02,0-.04,0-.07.06-.11.03-.02-.02-.04,0-.05.02,0-.01-.01-.03-.03-.04,0-.09-.12-.05-.13-.13l-.08-.04s0-.01,0-.03c-.02-.03-.04-.04-.08-.02h-.04s0,0,0,0c-.01-.02-.04-.03-.07-.03,0-.01,0-.04,0-.05-.04-.05-.1-.05-.16,0,0,0,0-.01,0-.03,0-.02-.01-.04-.03-.05-.16-.07-.32-.15-.54-.07h-.04c-.04.17.1.12.15.18l.11.06c.04.1.13.12.23.12l.02.04s.04.04.07.04c0,0,.01,0,.01-.01l.14.02h.01s0,0,0,0h-.01v.04s-.09.13-.09.13c.01-.17-.09-.18-.21-.17l-.45-.21s0,.02,0,.03c0-.01.01-.02,0-.03-.21-.15-.45-.26-.68-.38h-.03s-.16-.11-.16-.11c0,0-.01-.01-.02-.02v-.04s-.52-.28-.52-.28l-.3-.17h-.09c-.17-.09-.36-.12-.56-.14,0,.01-.01.02-.02.03h-.03s-.09,0-.14.02c.16.38.51.49.8.69v.06c.18.07.2.29.36.36,0,.08.08.07.13.12.04.07.07.12.15.13,0,0,0,0,0,0,0,.01,0,.03-.01.06.05.07.15.09.2.18.05.05.11.09.2.07t0-.01h0s0,.03,0,.04h-.13s-.01-.02-.02-.02l-.05-.08h-.04s-.02-.02-.03-.03l-.07-.04-.06-.04c-.01-.07-.07-.07-.13-.04,0,.07.04.1.07.12v.07c.02.07.07.09.12.11l-.03.06c-.07-.04-.13-.1-.22-.09l-.14-.07s0-.01.01-.02c-.13-.04-.25-.07-.38-.07-.13.13.04.15.03.23l.03.02c.02.14.2.07.24.19-.01.1.1.08.11.15l.49.28.07.04.1.06h.04s0,.03,0,.03h.01s.03.04.04.04c.12.11.28.15.41.25l.02.04s-.03,0-.04,0h-.13s-.05.04-.04.08l.2.11h0s.01.01.01.01c0,.06.06.07.09.09l.24.12s.02.04.04.06c.32.22.67.36,1,.57l.03.03c0,.07.04.07.07.09.04.02.07.09.12.02.01,0,.03,0,.04-.01h.01s-.01.03,0,.04c.07.15.27.11.34.25.2.18.44.27.68.36.13,0,.21.12.33.11.17.02.32.11.48.17.1.04.18.09.3.07h0s.48.2.48.2c.04.01.04.04.03.09l.17-.02s0,.02,0,.04c.01.09.04.17.15.12h.13l.05.09c.02.09.13.05.17.12,0,0,.01,0,.02.01.13-.07.15.12.25.12h.24c-.01.13.07.12.15.12.1,0,.12.13.2.17l.09-.02.02-.04h.03l.04-.04s.04.02.06.02c.03.03.05.08.1.09.47.18.92.41,1.37.61.09.04.18.09.28.05,0,0,.01-.02.01-.03l.06.07h.02c-.02.11,0,.13.16.17l.69.25c.08.03.15.06.24.04.43.15.86.26,1.28.42.53.2,1.06.4,1.6.56.19.15.44.17.66.25l.87.28s.1.03.08.03v.02h.01,0c-.06.02,0,0,0,0h0s.07,0,.09,0h-.09s0,.01,0,.01v.07c0,.07,0,.23,0,.18,0,0,0,0,.03.01,0,0,0,0,.02,0,0,.01.02.04.02.07v.02s-.04.01-.06.02h0s-.05.02-.05.02l-.21.07-.35.12s-.03,0-.04.01h-.03c-.52.15-1,.38-1.47.63-.17.09-.34.18-.52.23-.37.11-.72.23-1,.54l-.15.15c-.09.03-.15.09-.16.21-.09.09-.14.22-.14.37-.06.12-.03.26,0,.39.01.06.04.12.04.16-.07.53.29.84.55,1.2.41.57.92.63,1.41.69.72.09,1.38-.05,2.05-.15.13.03.22-.04.33-.05.33,0,.65-.12.97-.14.05,0,.07,0,.15,0l.23-.03.47-.07c.32-.05.64-.12.97-.19.59-.09,1.18-.23,1.76-.36.03-.16.04-.34.07-.52.07-.05.07-.15.03-.27l.02-.26c.13-.63.17-1.32.21-2.01.01-.29.02-.63.02-.89v-.72c-.02-.28-.03-.55-.04-.82-.04-.83-.06-1.67-.16-2.49,0-.09,0-.18,0-.27-.3-.11-.64-.19-.98-.27h-.03s0,0,0,0Zm-10.9,6.26c-.01-.18-.02-.35-.07-.53-.02-.08.01-.18-.1-.26v.19c-.02.08.02.17-.04.25-.04.03-.05.07-.05.11,0,.06,0,.12.02.18,0,0,.01,0,.01.01,0,.02-.01.04-.02.07v-.04s-.01-.04-.03-.05c0-.11,0-.22-.02-.33,0-.12-.01-.23,0-.35.01-.03.01-.06,0-.09t-.01,0v-.14c-.02-.07.05-.15-.05-.24-.04.15-.11.27-.09.42-.06.05-.04.12-.04.18-.06.08-.04.17-.04.25l-.04.21s-.04.09-.05.13c0-.02-.01-.04-.04-.05l-.04-.04c0-.08.01-.17-.05-.25v-.14s-.07-.02-.1,0v.14s-.05.39-.05.39c0,0,0,.01,0,.02,0,0-.01.02-.02.03-.05.07-.03.13-.03.2,0,.01,0,.03.01.05v.06s-.04.06-.04.09c0-.01-.02-.03-.03-.04l-.02-.02c.04-.07.01-.15,0-.22t.01,0s.04-.01.05-.03c.01-.04,0-.07-.02-.09v-.07s0-.07,0-.07c0-.01,0-.02,0-.03,0,0,0,0,0,0,0-.01,0-.03,0-.04-.05-.04-.1-.09-.19-.06.01.14-.16.25-.09.39-.16.07-.1.2-.13.3-.04.04-.04.09-.04.13,0,.01.01.04.03.05,0,0,.01,0,.02,0v.17c-.01.06.03.13-.04.19v.07s.08.07.08.07c-.15.11-.02.25-.07.36l.06.11v.04c-.06.03-.07.06-.05.1,0,0,.01,0,.02,0-.02.02-.03.04-.04.07,0-.04-.02-.09-.07-.17-.04-.04-.04-.07-.04-.11,0-.02.02-.05.02-.07,0-.03,0-.05-.02-.07,0,0,0,0,0,0,0-.01.01-.02,0-.04s-.02-.03-.04-.04l-.02-.09s0-.01,0-.02c0-.01,0-.03,0-.04h0s.01,0,.03,0c.1-.07.04-.18.08-.26.01-.07.01-.12,0-.19-.01-.01-.03-.03-.04-.04.01-.04.01-.09-.05-.09.04-.03.1-.07.11-.12,0-.01,0-.04-.01-.05,0-.09-.04-.18-.04-.26,0,0,.01,0,.02,0,0-.23.03-.46-.06-.68v-.15h-.09v.15c-.03.05.05.09.01.15-.08.15-.08.31-.1.47-.01.2-.1.41-.07.61-.07.09-.05.2-.03.29-.07.08-.05.16-.04.25-.04.11-.06.22.01.32-.13.04-.07.13-.07.2,0,.09-.07.2,0,.29l-.03.15v.11s-.01.01,0,.02c-.07.21.02.42,0,.63-.02.06,0,.11,0,.17.01,0,.02.01.03.01v.07s-.02.02-.01.04l.02.1-.04.12.02.29-.04.06c.04-.15-.02-.27-.08-.4,0,0,0-.01,0-.02.02-.07-.01-.15,0-.23,0,0,.02,0,.03-.01v-.11s-.03-.21-.03-.21v-.12c-.05-.08-.01-.17-.03-.25l-.03-.04c.04-.11,0-.22-.01-.33v-.11s-.1,0-.1,0v.15c0,.09-.02.17.02.26,0,.08,0,.15,0,.23-.02.18-.04.36.05.53-.04.02-.04.05-.03.08-.02.2,0,.41.04.61-.04.19,0,.37,0,.56-.1.13.02.28-.1.42,0,.03-.01.06-.01.09,0,.07,0,.14.06.19h0s-.01,0-.01.02v.1s-.05.09-.04.15c0,.04.01.08.03.12-.02,0-.03.02-.04.04v-.14s-.05-.29-.05-.29v-.25s0,0,.01-.01l-.05-.65-.04-.07c.04-.19,0-.37-.05-.55,0-.09.02-.2-.03-.28l-.02-.4s-.07-.01-.1,0c0,.16-.04.32,0,.48l-.02.34c-.03.08-.01.17,0,.25.01,0,.02,0,.04,0,0,0,0,0-.01,0v.07s.01.11.01.11c0,0,0,.01,0,.03-.07.07.03.17-.05.26-.01-.09-.03-.17-.04-.24-.01,0-.02,0-.04.01h0s.02,0,.04-.01l-.02-.29-.06-.26c-.02-.11.01-.22-.03-.33v-.04s-.01-.07-.01-.07l-.02-.29c-.02-.09.03-.19-.05-.27.03-.12.04-.23-.07-.33v-.09c.02-.43-.07-.84-.16-1.26l-.07-.66s-.01,0-.01.01h0s.01-.01.01-.01l-.02-.51s-.03,0-.04,0c.01,0,.02,0,.04,0,0-.16.03-.33-.04-.48,0-.06.03-.12,0-.18v-.18s0-.3,0-.3c-.11.06-.08.11-.09.15v.07c-.07.08-.02.18-.05.27h.01c0,.1-.07.2.03.3.01.03,0,.06-.02.09-.13.05-.09-.05-.12-.09v-.07c.09-.06.02-.1,0-.15v-.11s0-.26,0-.26h.02c-.04-.18.02-.37-.06-.55v-.36c-.07-.01-.11.02-.11.07-.01.1-.07.2-.05.3h.01c-.09.07-.04.15-.04.22,0,0-.01.01,0,.02-.11.07-.07.18-.08.27-.05.13-.05.27-.05.41-.06.12-.01.25-.04.37-.08.23,0,.48-.07.72-.07.15.01.31-.07.45-.05,0-.09-.04-.13-.06,0,.05-.01.09-.02.17-.03-.06-.05-.09-.07-.12h-.01s.02,0,.03-.01c0-.04,0-.07-.01-.1-.02-.17,0-.34-.06-.5h0s-.01-.02-.01-.02v-.15c.05-.05.04-.1,0-.15v-.15c.01-.07,0-.15-.01-.23.01-.07,0-.13-.04-.19.02-.07.04-.15,0-.23-.01-.11.04-.23,0-.34l-.04-.11c.1-.24-.04-.47,0-.72-.07-.07.05-.18-.08-.23-.1.31-.11.63-.15.94v.41c-.07.09-.03.2-.03.31v.34c-.04.18-.1.36-.04.55v.33c0,.05,0,.1,0,.16-.03.35.02.7,0,1.05h.03s-.01,0-.03,0c-.05.4-.12.81-.1,1.22h.01s0,.01,0,.02c0,0,0-.01,0-.02-.06.12-.02.26-.02.38-.04.15-.04.31-.01.47,0,.01,0,.03,0,.04-.04.12-.04.25,0,.37v.1s-.02.06,0,.09c-.07.21,0,.42,0,.64-.04.37.05.74.07,1.11l.11.94c-.01.07,0,.13.02.19-.01.1.01.2.04.3l.02.15c0,.13.01.26.05.38l.04.26c.05.57.2,1.12.3,1.67.05.28.07.58.18.85-.01.11.02.21.06.31.08.23.07.49.18.72,0,.05,0,.1.02.15.13.53.3,1.06.38,1.61,0,.01,0,.02,0,.03-.03.2.08.38.1.58-.03.26.1.5.14.75,0,.07-.01.13.07.15-.03.1-.03.2,0,.29,0,.04.02.07.03.1v.02s0,0,0,0h0s.01,0,.01,0c0,0,.01,0,.01,0-.07.02-.04.01-.04.03h0v.02s0,0-.01.01c-.01,0-.02,0,0,.04,0,0,0,.01.01.02v-.02s-.01,0-.01,0c-.08.02-.18.12-.21.18-.02-.03-.01-.01-.01,0,0,.04-.02.09-.05.09-.01,0-.04.01-.05,0l-.04-.06-.02-.02-.07-.18c-.61-.58-1.25-1.13-1.95-1.61-.3-.2-.6-.42-.93-.59-.08-.1-.2-.16-.32-.21-.16-.08-.28-.25-.5-.24,0,.18.15.23.21.35l-.05.07h-.06s-.06.02-.06.02c-.14.15-.27.17-.38.04-.01-.04-.04-.07-.09-.07-.14-.04-.14.04-.14.14,0,.08.08.1.13.15,0,.07.05.09.1.12l.41.38c.06.2.18.35.32.5h-.04s-.06-.04-.06-.04c-.18-.15-.38-.28-.62-.32h-.05c-.11-.09-.19-.22-.37-.2-.02-.02-.06-.02-.09,0-.07,0-.1-.07-.18-.04h-.05c-.12.04-.06.15-.13.2-.12-.04-.21,0-.29.12-.02.02-.02.04-.01.06v.12c.16.16.33.3.27.58-.1,0-.13-.1-.21-.13-.04-.02-.07-.1-.13,0-.01.07.03.11.04.16h.01s.01.03.01.03v.06c0,.11.06.18.1.26.02.04.04.08.1.09,0,0,0,0,0,0l.09.09c-.04.17-.11.07-.17.04l-.11-.04s0-.01,0-.02c-.04-.03-.06-.07-.12-.08l-.14-.07c-.12-.06-.18.04-.26.13-.07-.04-.13-.09-.23-.07-.07-.01-.15,0-.22.07l-.26.07c-.12.07-.15.16-.13.27-.07.09-.09.18-.01.23.01.11.07.18.16.25.19.15.4.28.55.46.01.03.03.07.05.09.23.26.54.44.78.69,0,.04,0,.06.01.08-.03-.02-.06-.04-.1-.04l-.3-.25c-.1-.09-.18-.19-.32-.23-.04-.07-.09-.11-.16-.12-.14-.12-.25-.26-.44-.32l-.08-.06c-.07-.06-.12-.12-.2-.16-.07-.04-.07.01-.04.06.05.1.14.16.24.2.17.23.41.39.61.59l.1.09c.12.13.25.25.4.34,0,.02.03.04.04.05.21.23.47.41.7.61.13.12.24.26.4.35l.13.12.05.05.86.81c.74.72,1.47,1.48,2.21,2.18l.44-.21c.32-.12.66-.26.98-.46.3-.18.62-.22.92-.43l.13-.06.26-.13c.28-.14.56-.28.84-.44.38-.21.33-.19.66-.38l.38-.23c.29-.18.58-.36.86-.55l.06-.04,2.07-1.44-.21-.74c-.13-.47-.23-.95-.42-1.42l-.16-.54-.22-.88-.1-.45c.03-.06,0-.1,0-.15l-.13-.61c-.15-.3-.14-.64-.27-.93-.07-.18.01-.39-.14-.54-.04-.12-.09-.26-.11-.38-.04-.26-.09-.53-.17-.78l.03-.04-.04-.05v-.02c.12-.04.07-.12.06-.18-.03-.18-.13-.35-.12-.55-.05-.12-.01-.26-.1-.37.01-.03.04-.06.03-.08l-.17-1.07-.08-.27s-.03,0-.04,0h.04c0-.12-.03-.23-.09-.33,0-.06.04-.12-.02-.18-.02-.36-.05-.71-.13-1.06l-.11-.97-.07-.66v-.07c.02-.1-.03-.19-.05-.28.03-.11,0-.21-.01-.31v-.18s-.04-.25-.04-.25v-.21c-.05-.31-.04-.64-.12-.95-.01-.23.04-.45-.04-.67h0s0-.03,0-.03c.04-.17-.04-.33-.04-.5,0-.31-.01-.61-.07-.92v-.2s.01,0,.01,0Z"/><rect class="ar" x="193" y="256" width="64" height="64" rx="8" ry="8"/><path class="ae" d="m239,264v3.2m0,17.6v3.2m12-12h-3.2m-17.6,0h-3.2m6-10.4l1.6,2.76m8.8,15.28l1.6,2.76m4.4-16.4l-2.76,1.6m-15.28,8.8l-2.76,1.6m0-12l2.76,1.6m15.28,8.8l2.76,1.6m-4.4-16.4l-1.6,2.76m-8.8,15.28l-1.6,2.76m12.4-10.4c0,3.54-2.87,6.4-6.4,6.4s-6.4-2.86-6.4-6.4,2.87-6.4,6.4-6.4,6.4,2.86,6.4,6.4Z"/><path class="af" d="m256,308.44l-9.88-9.88-5.3,5.26-15.82-15.82-15.82,15.82m0,0l-5.3-5.26-9.88,9.88m15.18-4.62l4.62,4.62"/><path class="ag" d="m194.79,270.11c.21,0,.52,0,.73.11.73-2.42,3.03-4.21,5.75-4.21,2.4,0,4.39,1.37,5.44,3.37.73-.53,1.67-.74,2.72-.74,2.72,0,5.02,2.21,5.02,5.05,0,.32,0,.63-.1.95,2.09.42,3.66,2.32,3.66,4.53,0,2.53-1.99,4.63-4.6,4.63-.63,0-1.36-.11-1.99-.42-.63,1.58-2.2,2.63-3.97,2.63-1.15,0-2.09-.42-2.82-1.05-.52.63-1.25,1.05-2.2,1.05-1.15,0-2.2-.74-2.51-1.89-.94.84-2.09,1.37-3.45,1.37-.75-.03-1.46-.19-2.09-.47"/><path class="be" d="m249,258c3.31,0,6,2.69,6,6v48c0,3.31-2.69,6-6,6h-48c-3.31,0-6-2.69-6-6v-48c0-3.31,2.69-6,6-6h48m0-2h-48c-4.42,0-8,3.58-8,8v48c0,4.42,3.58,8,8,8h48c4.42,0,8-3.58,8-8v-48c0-4.42-3.58-8-8-8h0Z"/><line class="aa" x1="129" y1="100" x2="129" y2="102"/><line class="ac" x1="129" y1="105.89" x2="129" y2="236.06"/><line class="aa" x1="129" y1="238" x2="129" y2="240"/><circle class="ap" cx="129" cy="96" r="4"/><path class="bd" d="m129,93c1.65,0,3,1.35,3,3s-1.35,3-3,3-3-1.35-3-3,1.35-3,3-3m0-1c-2.21,0-4,1.79-4,4s1.79,4,4,4,4-1.79,4-4-1.79-4-4-4h0Z"/><polygon class="ap" points="129 248 133 240 125 240 129 248"/><path class="bc" d="m131.38,241l-2.38,4.76-2.38-4.76h4.76m1.62-1h0,0Zm0,0h-8l4,8,4-8h0Z"/><polygon class="ap" points="225 248 229 240 221 240 225 248"/><path class="ba" d="m227.38,241l-2.38,4.76-2.38-4.76h4.76m1.62-1h0,0Zm0,0h-8l4,8,4-8h0Z"/><polygon class="ap" points="33 248 37 240 29 240 33 248"/><path class="bf" d="m35.38,241l-2.38,4.76-2.38-4.76h4.76m1.62-1h0,0Zm0,0h-8l4,8,4-8h0Z"/><path class="aa" d="m129,100c0,.67-.02,1.34-.06,2"/><path class="ad" d="m128.44,105.98c-2.8,14.82-15.81,26.02-31.44,26.02h-32c-17.67,0-32,14.33-32,32v71.99"/><line class="aa" x1="33" y1="238" x2="33" y2="240"/><path class="aa" d="m129,100c0,.67.02,1.34.06,2"/><path class="an" d="m129.56,105.98c2.8,14.82,15.81,26.02,31.44,26.02h32c17.67,0,32,14.33,32,32v71.99"/><line class="aa" x1="225" y1="238" x2="225" y2="240"/><path class="ar" d="m37.4,258.25c1.45,2.17,4.35,2.9,6.62,1.76,3.41-1.55,7.35.72,7.66,4.45.21,2.59,2.28,4.66,4.86,4.86,3.73.31,6,4.24,4.45,7.66-1.14,2.38-.31,5.17,1.76,6.62,3,2.17,3,6.62,0,8.8-2.17,1.45-2.9,4.35-1.76,6.62,1.55,3.41-.72,7.35-4.45,7.66-2.59.21-4.66,2.28-4.86,4.86-.31,3.73-4.24,6-7.66,4.45-2.38-1.14-5.17-.31-6.62,1.76-2.17,3-6.62,3-8.8,0-1.45-2.17-4.35-2.9-6.62-1.76-3.41,1.55-7.35-.72-7.66-4.45-.21-2.59-2.28-4.66-4.86-4.86-3.73-.31-6-4.24-4.45-7.66,1.14-2.38.31-5.17-1.76-6.62-3-2.17-3-6.62,0-8.8,2.17-1.45,2.9-4.35,1.76-6.62-1.55-3.41.72-7.35,4.45-7.66,2.59-.21,4.66-2.28,4.86-4.86.31-3.73,4.24-6,7.66-4.45,2.38,1.14,5.17.31,6.62-1.76,2.07-3,6.62-3,8.8,0Z"/><path class="bg" d="m32.96,258c1.12,0,2.14.51,2.8,1.4,1.33,1.97,3.56,3.15,5.98,3.15,1.09,0,2.17-.25,3.14-.73.45-.2.92-.3,1.4-.3,1.53,0,3.24,1.09,3.41,3.1.29,3.59,3.1,6.41,6.69,6.7,1.11.09,2.07.7,2.63,1.66.58.98.63,2.14.18,3.14-1.54,3.23-.53,7.06,2.39,9.1.9.66,1.42,1.67,1.42,2.78s-.51,2.1-1.4,2.76c-2.96,2-4,5.91-2.42,9.12.46,1.03.39,2.18-.18,3.15-.57.96-1.52,1.57-2.62,1.66-3.59.29-6.41,3.1-6.7,6.69-.16,1.95-1.86,3.11-3.41,3.11-.49,0-.97-.11-1.4-.3-.98-.47-2.03-.71-3.12-.71-2.39,0-4.63,1.17-5.99,3.1-.66.9-1.67,1.42-2.78,1.42s-2.1-.51-2.76-1.4c-1.33-1.97-3.56-3.15-5.98-3.15-1.09,0-2.17.25-3.14.73-.45.2-.92.3-1.4.3-1.53,0-3.24-1.09-3.41-3.1-.29-3.59-3.1-6.41-6.69-6.7-1.11-.09-2.07-.7-2.63-1.66-.58-.98-.63-2.14-.18-3.14,1.54-3.23.53-7.06-2.39-9.11-.9-.66-1.42-1.67-1.42-2.78s.51-2.1,1.4-2.76c2.96-2,4-5.91,2.42-9.12-.46-1.03-.39-2.18.18-3.15.57-.96,1.52-1.57,2.62-1.66,3.59-.29,6.41-3.1,6.7-6.69.16-1.95,1.86-3.11,3.41-3.11.49,0,.97.11,1.39.3.98.47,2.03.71,3.12.71,2.39,0,4.63-1.17,6.01-3.14.61-.88,1.6-1.39,2.71-1.39m0-2c-1.67,0-3.32.75-4.36,2.25-1,1.44-2.65,2.27-4.37,2.27-.76,0-1.53-.16-2.26-.51-.74-.34-1.51-.49-2.26-.49-2.7,0-5.16,2.03-5.4,4.94-.21,2.59-2.28,4.66-4.86,4.86-3.73.31-6,4.24-4.45,7.66,1.14,2.28.41,5.17-1.76,6.62-3,2.17-3,6.62,0,8.8,2.07,1.45,2.9,4.24,1.76,6.62-1.55,3.41.72,7.35,4.45,7.66,2.59.21,4.66,2.28,4.86,4.86.24,2.92,2.7,4.94,5.4,4.94.75,0,1.52-.16,2.26-.49.72-.36,1.5-.53,2.28-.53,1.68,0,3.35.81,4.34,2.29,1.09,1.5,2.74,2.25,4.4,2.25s3.31-.75,4.4-2.25c1-1.44,2.65-2.27,4.37-2.27.76,0,1.53.16,2.26.51.74.34,1.51.49,2.26.49,2.7,0,5.16-2.03,5.4-4.94.21-2.59,2.28-4.66,4.86-4.86,3.73-.31,6-4.24,4.45-7.66-1.14-2.28-.41-5.17,1.76-6.62,3-2.17,3-6.62,0-8.8-2.07-1.45-2.9-4.24-1.76-6.62,1.55-3.41-.72-7.35-4.45-7.66-2.59-.21-4.66-2.28-4.86-4.86-.24-2.92-2.7-4.94-5.4-4.94-.75,0-1.52.16-2.26.49-.72.36-1.5.53-2.28.53-1.68,0-3.35-.81-4.34-2.29-1.09-1.5-2.77-2.25-4.44-2.25h0Z"/><path class="ai" d="m21,300l24-24m-14.99,4.57c0,2.52-2.01,4.57-4.5,4.57s-4.5-2.04-4.5-4.57,2.01-4.57,4.5-4.57,4.5,2.04,4.5,4.57Zm14.97,14.9c0,2.49-2.01,4.5-4.5,4.5s-4.5-2.01-4.5-4.5,2.01-4.5,4.5-4.5,4.5,2.01,4.5,4.5Z"/><path class="am" d="m98,311v-12h15.5v20h-7.5c-4.42,0-8-3.58-8-8Z"/><path class="al" d="m113.5,319v-16h15.5v16h-15.5Z"/><path class="ak" d="m129,319v-30h15.5v30h-15.5Z"/><path class="ah" d="m98,280l8,2,15,4,16-14,16-10,7-5"/><circle class="ar" cx="106" cy="282.02" r="4"/><path class="bb" d="m106,279.02c1.65,0,3,1.35,3,3s-1.35,3-3,3-3-1.35-3-3,1.35-3,3-3m0-1c-2.21,0-4,1.79-4,4s1.79,4,4,4,4-1.79,4-4-1.79-4-4-4h0Z"/><circle class="ar" cx="121" cy="286.02" r="4"/><path class="az" d="m121,283.02c1.65,0,3,1.35,3,3s-1.35,3-3,3-3-1.35-3-3,1.35-3,3-3m0-1c-2.21,0-4,1.79-4,4s1.79,4,4,4,4-1.79,4-4-1.79-4-4-4h0Z"/><path class="aj" d="m144.5,319v-40h15.5v32c0,4.42-3.58,8-8,8h-7.5Z"/><circle class="ar" cx="137" cy="272" r="4"/><path class="ay" d="m137,269c1.65,0,3,1.35,3,3s-1.35,3-3,3-3-1.35-3-3,1.35-3,3-3m0-1c-2.21,0-4,1.79-4,4s1.79,4,4,4,4-1.79,4-4-1.79-4-4-4h0Z"/><circle class="ar" cx="153" cy="262" r="4"/><path class="at" d="m153,259c1.65,0,3,1.35,3,3s-1.35,3-3,3-3-1.35-3-3,1.35-3,3-3m0-1c-2.21,0-4,1.79-4,4s1.79,4,4,4,4-1.79,4-4-1.79-4-4-4h0Z"/><rect class="aq" x="97" y="256" width="64" height="64"/><rect class="aq" width="256" height="320"/><circle class="ax" cx="129" cy="188" r="24"/><rect class="aq" x="115" y="174" width="28" height="28"/><path class="z" d="m125.78,181.81c4.08,4.25,10.07-.02,13.54,5.05,7.08-8.66-9.39-16.78-16.13-10.3-5.88,0-7.83,6.96-4.51,10.3,1.22-3.75,4.51-5.05,7.1-5.05Z"/><circle class="ap" cx="125.72" cy="189.31" r="1.31"/><circle class="ap" cx="132.28" cy="189.31" r="1.31"/><path class="ab" d="m118.68,186.86c-1.07,0-1.93.87-1.93,1.94s.64,3.98,2.54,3.98c1.41,4.69,3.9,9,9.71,9,5.81,0,8.3-4.31,9.71-9,1.91,0,2.54-2.9,2.54-3.98s-.86-1.94-1.93-1.94c7.08-8.66-9.39-16.78-16.13-10.3-5.88,0-7.83,6.96-4.51,10.3Z"/><circle class="aw" cx="33" cy="188" r="24"/><rect class="aq" x="19" y="174" width="28" height="28"/><path class="ap" d="m44.45,188.01c0-8.93-5.71-14.01-11.45-14.01s-11.45,5.08-11.45,14.01c0,2.55,1.26,7.64-2.55,12.11,4.47,1.9,9.55.27,9.55.27,1.29.99,2.78,1.6,4.45,1.6s3.16-.61,4.45-1.63c0,0,5.1,1.65,9.55-.27-3.82-4.45-2.55-9.54-2.55-12.09Zm-.76,2.88c-.19.56-.44,1.07-.74,1.44-.3.37-.63.57-1.01.57-.1,0-.18.06-.21.16-.84,2.81-2.33,5.47-4.34,7.11-.03,0-.05.02-.08.04-1.25.99-2.7,1.58-4.31,1.58s-3.06-.59-4.29-1.56c-.02-.02-.05-.03-.08-.04-2.04-1.64-3.53-4.32-4.39-7.15-.03-.09-.11-.15-.21-.15-.38,0-.71-.2-1.01-.57-.3-.37-.54-.88-.74-1.44-.35-1.02-.51-2.14-.53-2.71,3.11-1.27,6.32-4.17,8.1-7.02,3.4,3.7,7.78,6.32,14.37,7.06-.03.57-.19,1.68-.53,2.69Z"/><circle class="ap" cx="29.94" cy="189.31" r="1.31"/><circle class="ap" cx="36.5" cy="189.31" r="1.31"/><path class="ab" d="m41.73,193.06c-.84,2.81-2.33,5.47-4.34,7.11-.03,0-.05.02-.08.04-1.26.99-2.7,1.58-4.31,1.58s-3.06-.59-4.29-1.56c-.02-.02-.05-.03-.08-.04-2.04-1.64-3.53-4.32-4.39-7.15-.03-.09-.11-.15-.21-.15-.38,0-.71-.2-1.01-.57-.3-.37-.54-.88-.74-1.44-.35-1.02-.51-2.14-.53-2.71,3.11-1.27,6.32-4.17,8.1-7.02,3.4,3.7,7.78,6.32,14.37,7.06-.03.57-.19,1.68-.53,2.69-.19.56-.44,1.07-.74,1.44-.3.37-.63.57-1.01.57-.1,0-.18.06-.21.16Z"/><circle class="av" cx="225" cy="188" r="24"/><rect class="aq" x="211" y="174" width="28" height="28"/><path class="ab" d="m214.55,185.75c.08,0,.15-.05.19-.13,1.79-3.89,5.72-6.59,10.25-6.59s8.46,2.7,10.27,6.57c.03.07.11.12.19.13,1.5.08,2.67,1.33,2.67,2.84,0,1.16-.69,2.14-1.68,2.59-.02,0-.04.02-.06.03,0,0-.01,0-.02.01-.07.03-.11.1-.12.18-.51,5.85-5.36,10.42-11.27,10.42s-10.76-4.57-11.24-10.4c0-.08-.05-.15-.12-.18,0,0,0,0-.02,0-.02-.01-.04-.02-.06-.03-.99-.45-1.68-1.43-1.68-2.59,0-1.53,1.18-2.76,2.67-2.84Zm21.79,5.47s0,0,0,0h0Z"/><path class="ao" d="m229.27,175.03c.14.69-.31,1.36-1,1.5-.15.03-.28.07-.41.11.92-.06,1.96.05,3.07.5.5.2.8.68.79,1.19.38.12.71.24.97.34.22.09.4.16.52.22.06.03.11.05.15.07.02,0,.03.02.04.02h.01s0,0,0,0h0s0,0,0,0c.63.31.88,1.08.57,1.71-.31.63-1.07.89-1.7.57h0s0,0,0,0c0,0-.01,0-.02,0-.02,0-.05-.02-.1-.05-.09-.04-.23-.1-.42-.17-.37-.15-.91-.34-1.57-.51-.78-.2-1.71-.38-2.73-.44l.38.5c.42.56.31,1.36-.25,1.78-.56.42-1.36.31-1.78-.25l-.95-1.26-2,2c-.5.5-1.3.5-1.8,0-.5-.5-.5-1.3,0-1.8l1.21-1.21c-1.32-.03-2.39.17-3.19.43-.63.2-1.1.43-1.4.6-.15.09-.26.16-.33.2-.03.02-.05.04-.07.05,0,0,0,0,0,0-.55.43-1.34.34-1.78-.2-.44-.55-.35-1.35.2-1.79,0,0,0,0,0,0h0s0,0,0,0h0s.02-.02.02-.02c.01,0,.03-.02.05-.03.04-.03.09-.06.15-.1.12-.08.29-.19.51-.32.44-.25,1.07-.55,1.88-.81.48-.15,1.03-.29,1.63-.39-.28-.23-.46-.59-.46-.98,0-.7.57-1.27,1.27-1.27,1.6,0,2.81.55,3.66,1.18.57-1.01,1.6-2.02,3.36-2.37.69-.14,1.36.31,1.49,1Z"/><circle class="ap" cx="221.72" cy="188.87" r="1.31"/><circle class="ap" cx="228.28" cy="188.87" r="1.31"/></svg>