<?xml version="1.0" encoding="UTF-8"?><svg id="a" xmlns="http://www.w3.org/2000/svg" xmlns:xlink="http://www.w3.org/1999/xlink" viewBox="0 0 256 768"><defs><style>.as,.at,.au,.av,.aw,.ax,.ay,.az,.ba,.bb,.bc,.bd,.be,.bf,.bg,.bh,.bi,.bj,.bk{stroke-linecap:round;}.as,.at,.au,.av,.aw,.ay,.az,.ba,.bb,.bc,.bd,.be,.bf,.bg,.bh,.bi,.bj{stroke-linejoin:round;}.as,.bc,.bd{stroke:#0d0910;}.as,.bl{fill:#0d0910;}.at,.bm,.aw,.ax,.ay,.az,.ba,.bb,.bn,.bi,.bj,.bk{fill:none;}.at,.aw,.ax,.ay,.bn,.bk{stroke:#f6cd51;}.au{fill:url(#ah);stroke:url(#ai);}.au,.av,.ax,.be,.bf,.bg,.bh{stroke-width:2px;}.av{fill:url(#ae);stroke:url(#af);}.bm,.bo,.bp,.bl,.bq,.br,.bs,.bt,.bu,.bv,.bw,.bx,.by,.bz,.ca,.cb,.cc,.cd,.ce,.cf,.cg,.ch,.ci,.cj,.ck,.cl,.cm,.cn,.co,.cp,.cq,.cr,.cs,.ct{stroke-width:0px;}.aw{stroke-dasharray:0 0 3.95 3.95;}.ay{stroke-dasharray:0 0 3.83 3.83;}.cu{opacity:.5;}.az{stroke:url(#y);}.ba{stroke:url(#s);}.bb{stroke:url(#i);}.cv{clip-path:url(#e);}.bc{fill:url(#b);}.bd{fill:url(#c);}.be{stroke:url(#r);}.be,.bf,.bg,.bh,.bo{fill:#281d30;}.bf{stroke:url(#p);}.bg{stroke:url(#q);}.bh{stroke:url(#o);}.bi{stroke:url(#k);}.bi,.bj{stroke-width:.5px;}.bj{stroke:url(#j);}.bp{fill:#1b1320;}.bq{fill:#cebfd9;}.br{fill:#f6cd51;}.bs{fill:#e97a0c;}.bt{fill:url(#ag);}.bu{fill:url(#aa);}.bv{fill:url(#ao);}.bw{fill:url(#ab);}.bx{fill:url(#aj);}.by{fill:url(#ap);}.bz{fill:url(#ad);}.ca{fill:url(#an);}.cb{fill:url(#am);}.cc{fill:url(#ac);}.cd{fill:url(#ar);}.ce{fill:url(#aq);}.cf{fill:url(#ak);}.cg{fill:url(#al);}.ch{fill:url(#v);}.ci{fill:url(#z);}.cj{fill:url(#x);}.ck{fill:url(#w);}.cl{fill:url(#u);}.cm{fill:url(#t);}.cn{fill:url(#f);}.co{fill:url(#d);}.cp{fill:url(#h);}.cq{fill:url(#m);}.cr{fill:url(#g);}.cs{fill:url(#n);}.ct{fill:url(#l);}</style><linearGradient id="b" x1="64" y1="697.85" x2="64" y2="743.5" gradientUnits="userSpaceOnUse"><stop offset="0" stop-color="#f6cd51"/><stop offset="1" stop-color="#f48e2a"/></linearGradient><linearGradient id="c" x1="191.97" y1="74.5" x2="191.97" y2="26" gradientTransform="translate(0 770) scale(1 -1)" xlink:href="#b"/><linearGradient id="d" x1="128" y1="160" x2="128" y2="608" xlink:href="#b"/><clipPath id="e"><rect class="bm" x="39" y="480" width="64" height="64"/></clipPath><linearGradient id="f" x1="71" y1="489" x2="71" y2="541" xlink:href="#b"/><linearGradient id="g" x1="53" y1="532.5" x2="53" y2="536.5" xlink:href="#b"/><linearGradient id="h" x1="88" y1="532.5" x2="88" y2="536.5" xlink:href="#b"/><linearGradient id="i" x1="70.75" y1="235.5" x2="70.75" y2="234.5" gradientTransform="translate(0 770) scale(1 -1)" xlink:href="#b"/><linearGradient id="j" x1="71" y1="268.7" x2="71" y2="262.52" gradientTransform="translate(0 770) scale(1 -1)" gradientUnits="userSpaceOnUse"><stop offset="0" stop-color="#f6cd51"/><stop offset="1" stop-color="#f48e2a"/></linearGradient><linearGradient id="k" x1="65" y1="263.66" x2="65" y2="258.4" xlink:href="#j"/><linearGradient id="l" x1="71" y1="494" x2="71" y2="530" gradientTransform="matrix(1,0,0,1,0,0)" xlink:href="#j"/><linearGradient id="m" x1="77" y1="372" x2="77" y2="416" xlink:href="#b"/><linearGradient id="n" x1="65" y1="352" x2="65" y2="396" xlink:href="#b"/><linearGradient id="o" x1="47.75" y1="507.49" x2="47.75" y2="482.51" xlink:href="#j"/><linearGradient id="p" x1="63.25" y1="503.48" x2="63.25" y2="482.52" xlink:href="#j"/><linearGradient id="q" x1="78.75" y1="515.49" x2="78.75" y2="482.51" xlink:href="#j"/><linearGradient id="r" x1="94.25" y1="527.5" x2="94.25" y2="482.5" xlink:href="#j"/><linearGradient id="s" x1="71" y1="545.46" x2="71" y2="516.55" xlink:href="#j"/><linearGradient id="t" x1="48" y1="245.51" x2="48" y2="253.51" xlink:href="#b"/><linearGradient id="u" x1="63" y1="249.51" x2="63" y2="257.51" xlink:href="#b"/><linearGradient id="v" x1="79" y1="237.51" x2="79" y2="245.51" xlink:href="#b"/><linearGradient id="w" x1="95" y1="225.49" x2="95" y2="233.49" xlink:href="#b"/><linearGradient id="x" x1="184" y1="396.16" x2="184" y2="416" xlink:href="#b"/><linearGradient id="y" x1="184" y1="403.06" x2="184" y2="354.02" gradientTransform="translate(0 770) scale(1 -1)" xlink:href="#b"/><linearGradient id="z" x1="184" y1="352" x2="184" y2="416" gradientTransform="matrix(1,0,0,1,0,0)" xlink:href="#j"/><linearGradient id="aa" x1="192" y1="224" x2="192" y2="287.88" xlink:href="#b"/><linearGradient id="ab" x1="166" y1="236.09" x2="166" y2="288" xlink:href="#b"/><linearGradient id="ac" x1="204" y1="520" x2="204" y2="544" xlink:href="#b"/><linearGradient id="ad" x1="178" y1="480" x2="178" y2="532" xlink:href="#b"/><linearGradient id="ae" x1="64.4" y1="737" x2="64.4" y2="675" gradientTransform="translate(0 770) scale(1 -1)" gradientUnits="userSpaceOnUse"><stop offset="0" stop-color="#0d0a10"/><stop offset="1" stop-color="#281d30"/></linearGradient><linearGradient id="af" x1="64.4" y1="737.33" x2="64.4" y2="674.67" gradientTransform="translate(0 770) scale(1 -1)" xlink:href="#b"/><linearGradient id="ag" x1="64" y1="722" x2="64" y2="690" gradientTransform="translate(0 770) scale(1 -1)" xlink:href="#b"/><linearGradient id="ah" x1="192.4" x2="192.4" xlink:href="#ae"/><linearGradient id="ai" x1="192.4" y1="737.33" x2="192.4" y2="674.67" gradientTransform="translate(0 770) scale(1 -1)" xlink:href="#b"/><linearGradient id="aj" x1="192" y1="722" x2="192" y2="690" gradientTransform="translate(0 770) scale(1 -1)" xlink:href="#b"/><linearGradient id="ak" x1="120" y1="144" x2="120" y2="152" xlink:href="#b"/><linearGradient id="al" x1="136" y1="144" x2="136" y2="152" xlink:href="#b"/><linearGradient id="am" x1="100" y1="80" x2="100" y2="88" xlink:href="#b"/><linearGradient id="an" x1="156" y1="80" x2="156" y2="88" xlink:href="#b"/><linearGradient id="ao" x1="40.49" y1="604" x2="40.49" y2="612" gradientTransform="matrix(1,0,0,1,0,0)" xlink:href="#j"/><linearGradient id="ap" x1="38.76" y1="671.91" x2="38.76" y2="680.4" gradientTransform="matrix(1,0,0,1,0,0)" xlink:href="#j"/><linearGradient id="aq" x1="215.51" y1="604" x2="215.51" y2="612" gradientTransform="matrix(1,0,0,1,0,0)" xlink:href="#j"/><linearGradient id="ar" x1="217.27" y1="671.94" x2="217.27" y2="680.43" gradientTransform="matrix(1,0,0,1,0,0)" xlink:href="#j"/></defs><path class="bq" d="m47.79,650.72h12.44v11.95c0,.38-.13.5-.52.52-.43.02-1.89.04-3.35-.04.22.4.49,1.06.58,1.46,1.78,0,3.04-.02,3.76-.25.7-.22.94-.68.94-1.66v-11.99h2.21v-1.37h-16.06v1.37Z"/><rect class="bq" x="155.85" y="648.94" width="7.94" height="1.15"/><path class="bq" d="m133.38,661.77c-.65,0-.95-.49-.95-1.1,0-1.82.68-4.91.68-6.71,0-1.46-.83-2.41-2.52-2.41-1.81,0-4.14,1.73-5.54,3.03.03-.35.05-.69.08-1.03.27-.44.59-.94.81-1.28l-.52-.61s-.08.02-.11.03c.13-1.26.27-2.27.36-2.71l-1.69-.05c.09.45.07.92.07,1.33,0,.2-.04.85-.09,1.71-.93.14-1.99.26-2.57.29-.45.04-.79.04-1.19.02l.16,1.49c1.13-.18,2.7-.38,3.51-.49-.04.58-.08,1.19-.12,1.79-.91,1.41-2.98,4.2-3.99,5.47l.9,1.22c.87-1.21,2.06-2.92,2.94-4.23-.01.27-.02.5-.03.68-.02,1.98-.04,2.88-.04,4.63,0,.29-.02.72-.05,1.06h1.55c-.02-.34-.07-.79-.09-1.1-.07-1.6-.07-2.7-.07-4.34,0-.64.02-1.35.06-2.1,1.65-1.8,3.83-3.49,5.3-3.49.92,0,1.44.45,1.44,1.49,0,1.75-.67,4.7-.67,6.71,0,1.48.79,2.27,2,2.27s2.34-.54,3.31-1.51l-.23-1.53c-.92.95-1.87,1.48-2.72,1.48Z"/><path class="bq" d="m146.58,660.51c0-.47.11-1.03.25-1.62l-1.33-.13c-.16.76-.27,1.44-.27,2.12,0,1.78,1.55,2.65,4.37,2.65,1.31,0,2.52-.11,3.49-.25l.05-1.44c-1.12.22-2.34.34-3.53.34-2.56,0-3.04-.83-3.04-1.67Z"/><path class="bq" d="m57.03,660.08v-6.71h-7.38v8.15h1.31v-1.44h6.07Zm-1.35-5.44v4.14h-4.72v-4.14h4.72Z"/><path class="bq" d="m146.47,655.87c1.1-.13,2.21-.2,3.33-.2s2.11.11,3.04.22l.04-1.37c-.97-.11-2.07-.14-3.11-.14-1.15,0-2.36.05-3.29.14v1.35Z"/><path class="bq" d="m204.98,659.17c.92-.58,2.07-1.4,2.94-2.17l-.95-.79c-.61.61-1.59,1.41-2.45,2-.35-.8-.64-1.66-.87-2.55h3.75v-4.03h-4.06c.48-.59.96-1.25,1.31-1.89l-.83-.58-.23.09h-3.55c.19-.3.39-.61.56-.9l-1.31-.23c-.74,1.4-2.09,3.17-3.94,4.48.32.16.76.5.99.77.19-.14.35-.31.52-.46v2.74h3.43c-1.31.81-3,1.51-4.53,1.96.25.23.61.7.79.94,1.09-.39,2.3-.93,3.41-1.55.29.25.55.52.78.79-1.23.94-3.25,1.94-4.84,2.38.27.25.56.65.7.94,1.53-.57,3.4-1.58,4.71-2.55.22.36.39.72.53,1.07-1.45,1.41-4.12,2.88-6.26,3.55.27.25.58.68.74,1.01,1.95-.73,4.24-2.06,5.83-3.39.17,1.12-.08,2.06-.58,2.42-.32.27-.65.31-1.1.31-.36,0-.9-.02-1.48-.07.22.34.32.85.32,1.17.52.04,1.03.04,1.4.04.72-.02,1.21-.13,1.73-.56,1.48-1.1,1.45-5.13-1.57-7.65.4-.26.79-.52,1.13-.8h.47c.86,3.61,2.42,6.67,4.83,8.21.2-.34.61-.81.9-1.06-1.33-.76-2.4-2.05-3.23-3.63Zm1.1-4.51h-3.46v-2.03h3.46v2.03Zm-3.24-4.37c-.3.48-.65.96-.99,1.33h-3.67c.4-.44.77-.88,1.11-1.33h3.54Zm-4.75,2.34h3.31v2.03h-3.31v-2.03Z"/><polygon class="bq" points="175.5 650.95 188.03 650.95 188.03 653.11 189.4 653.11 189.4 649.71 182.45 649.71 182.45 648.09 181.06 648.09 181.06 649.71 174.17 649.71 174.17 653.11 175.5 653.11 175.5 650.95"/><path class="bq" d="m147.64,652.57v-1.4c-1.1.27-2.29.49-3.46.64.1-.49.19-.95.27-1.34.07-.34.2-1.03.31-1.42l-1.71-.14c.04.38,0,.99-.07,1.49-.05.36-.15.92-.28,1.57-.68.05-1.33.09-1.92.09-.67,0-1.31-.04-2.16-.14l.04,1.4c.67.05,1.3.07,2.09.07.51,0,1.07-.02,1.67-.06-.15.66-.31,1.34-.46,1.93-.68,2.54-1.94,6.19-3.02,8.06l1.57.52c.95-1.96,2.16-5.69,2.81-8.24.22-.79.41-1.62.59-2.41,1.26-.14,2.57-.35,3.75-.61Z"/><path class="bq" d="m169.89,661.7l-.99.61c.85.7,1.87,1.71,2.36,2.36l1.04-.68c-.54-.67-1.58-1.64-2.41-2.29Z"/><path class="bq" d="m167.18,651.78h-2.19v9.4h6.52v-9.4h-3.12c.12-.52.25-1.1.39-1.67h3.11v-1.17h-7.42v1.17h2.94c-.05.54-.13,1.14-.22,1.67Zm3.14,8.33h-4.19v-1.76h4.19v1.76Zm0-2.77h-4.19v-1.75h4.19v1.75Zm0-2.79h-4.19v-1.71h4.19v1.71Z"/><path class="bq" d="m97.65,663.1h-3.55c-1.01,0-1.19-.22-1.19-1.22v-5.27c2.25-1.19,4.67-2.55,6.37-3.95l-.99-1.15c-1.31,1.2-3.37,2.59-5.38,3.72v-6.71h-1.37v13.34c0,1.98.58,2.52,2.47,2.52h3.71c1.87,0,2.27-1.03,2.48-3.98-.4-.09-.95-.34-1.3-.59-.13,2.63-.27,3.29-1.26,3.29Z"/><path class="bq" d="m105.55,660.08c0-.85.32-1.62.86-2.5l-1.4-.32c-.52,1.06-.88,2-.88,3.01,0,2.45,2.16,3.67,5.58,3.69,2.02.02,3.53-.18,4.66-.38l.05-1.44c-1.24.27-2.81.45-4.63.45-2.68-.04-4.25-.77-4.25-2.5Z"/><path class="bq" d="m116.14,651.02c-1.22.42-2.71.71-4.01.89-.34-1.04-.68-2.22-.81-3.07l-1.55.18c.18.49.34,1.03.45,1.42.14.4.32.95.55,1.61-1.97.14-4.49.09-7.14-.21l.04,1.42c2.85.24,5.42.24,7.58.05.6,1.5,1.48,3.07,2.16,4.11-.65-.07-1.98-.18-2.99-.27l-.11,1.19c1.3.09,3.49.29,4.36.5l.72-1.03c-.27-.29-.54-.59-.77-.95-.68-.92-1.47-2.32-2.03-3.7,1.21-.17,2.62-.42,3.72-.73l-.16-1.42Z"/><path class="bq" d="m88.42,648.36c-1.19,2.84-3.17,5.58-5.26,7.33.27.32.68,1.03.83,1.35.81-.73,1.62-1.6,2.38-2.57v10.15h1.33v-12.03c.78-1.21,1.48-2.49,2.03-3.8l-1.31-.43Z"/><path class="bq" d="m164.23,663.58v-.95h-2.34v-1.13h2.03v-.85h-2.03v-1.12h2.03v-.83h-2.03v-1.1h2.09v-.94h-1.99c.19-.4.39-.83.6-1.24l-1.06-.32c-.12.43-.34,1.04-.55,1.57h-1.38c.19-.45.37-.91.51-1.37l-1.03-.25c-.35,1.21-.91,2.39-1.58,3.31.05-.86.07-1.69.07-2.41v-.92h6.12v-3.73h-7.31v4.64c0,2.27-.09,5.44-1.06,7.74.27.13.77.5.99.72.66-1.51.99-3.44,1.14-5.27.17.16.35.34.45.45.17-.2.33-.43.49-.66v5.5h1.03v-.85h4.82c-.16.09-.32.18-.48.25.27.23.68.59.88.83,1.08-.54,2.38-1.49,3.19-2.38l-1.15-.65c-.51.64-1.48,1.4-2.43,1.94Zm-1.75-11.26v1.73h-4.91v-1.73h4.91Zm-1.55,8.33h-1.53v-1.12h1.53v1.12Zm0-1.94h-1.53v-1.1h1.53v1.1Zm-1.53,2.79h1.53v1.13h-1.53v-1.13Z"/><path class="bq" d="m196.24,648.52l-1.26-.34c-.86,2.77-2.29,5.54-3.87,7.34.23.34.59,1.06.72,1.39.6-.7,1.17-1.54,1.71-2.44v10.16h1.28v-12.55c.54-1.15,1.03-2.36,1.42-3.56Z"/><path class="bq" d="m80.57,663.35h-1.35c-.41,0-.49-.07-.49-.5v-3.76h2.12v-10.08h-7.56v10.08h1.42c-.29,2.11-1.02,3.67-3.55,4.52.27.25.65.74.79,1.04,2.85-1.08,3.73-2.96,4.07-5.56h1.46v3.76c0,1.28.29,1.66,1.55,1.66h1.69c1.03,0,1.37-.56,1.49-2.83-.34-.09-.86-.27-1.12-.49-.05,1.91-.13,2.16-.54,2.16Zm-6.01-13.23h5v1.87h-5v-1.87Zm0,2.95h5v1.91h-5v-1.91Zm0,2.97h5v1.93h-5v-1.93Z"/><path class="bq" d="m186.66,653.11l-.9-.56-.25.05h-5.32c.3-.35.59-.71.84-1.06l-1.46-.29c-.92,1.4-2.66,2.97-5.17,4.09.31.2.72.65.92.97,1.08-.53,2.01-1.14,2.83-1.78.7.78,1.52,1.48,2.45,2.1-2.19,1.12-4.75,1.93-7.17,2.37.25.31.54.85.67,1.19.9-.19,1.82-.43,2.74-.71v5.12h1.33v-.59h7.29v.58h1.39v-5.31c.79.2,1.6.37,2.43.5.2-.4.56-.97.86-1.28-2.56-.33-4.98-.98-7.01-1.92,1.45-.98,2.68-2.13,3.54-3.48Zm-7.56.61s.03-.03.04-.04h5.45c-.73.83-1.66,1.59-2.74,2.25-1.1-.64-2.03-1.38-2.75-2.21Zm-.94,9.14v-2.63h7.29v2.63h-7.29Zm7.91-3.78h-8.02c1.32-.47,2.6-1.03,3.78-1.7,1.29.7,2.71,1.27,4.24,1.7Z"/><path class="bq" d="m71.91,659.34l.83-1.13c-.4-.4-1.89-1.8-2.67-2.49.87-1.18,1.63-2.47,2.15-3.81l-.76-.5-.23.05h-1.49v-3.37h-1.31v3.37h-2.63v1.24h4.74c-1.19,2.4-3.34,4.69-5.39,5.96.22.23.56.86.68,1.21.86-.58,1.75-1.34,2.59-2.2v6.97h1.31v-7.71c.78.79,1.74,1.84,2.18,2.42Z"/><rect class="bm" x="32" y="680" width="64" height="64"/><path class="as" d="m40.41,709.4c-2.44,0-4.41,1.99-4.41,4.44s1.45,9.09,5.81,9.09c3.21,10.72,8.92,20.57,22.19,20.57,13.27,0,18.98-9.85,22.19-20.57,4.36,0,5.81-6.63,5.81-9.09s-1.97-4.44-4.41-4.44c16.18-19.8-21.47-38.36-36.87-23.55-13.43,0-17.89,15.9-10.32,23.55Z"/><path class="bc" d="m87.59,709.4c2.44,0,4.41,1.99,4.41,4.44s-1.45,9.09-5.81,9.09c-3.21,10.72-8.92,20.57-22.19,20.57-13.27,0-18.98-9.85-22.19-20.57-4.36,0-5.81-6.63-5.81-9.09s1.97-4.44,4.41-4.44c2.8-8.57,10.32-11.55,16.23-11.55,9.33,9.7,23.02-.05,30.96,11.55Z"/><circle class="bl" cx="56.5" cy="715" r="3"/><circle class="bl" cx="71.5" cy="715" r="3"/><rect class="bq" x="35.49" y="754.02" width="7.06" height="1.02"/><polygon class="bq" points="52.96 755.81 64.1 755.81 64.1 757.73 65.32 757.73 65.32 754.71 59.14 754.71 59.14 753.27 57.91 753.27 57.91 754.71 51.78 754.71 51.78 757.73 52.96 757.73 52.96 755.81"/><path class="bq" d="m45.57,756.55h-1.95v8.35h5.79v-8.35h-2.77c.11-.46.22-.97.34-1.49h2.76v-1.04h-6.59v1.04h2.61c-.05.48-.12,1.01-.2,1.49Zm2.79,7.4h-3.73v-1.56h3.73v1.56Zm0-2.46h-3.73v-1.55h3.73v1.55Zm0-2.48h-3.73v-1.52h3.73v1.52Z"/><path class="bq" d="m91.5,766.69h1.48l-4.27-11.64h-1.45l-4.27,11.64h1.48l1.17-3.3h4.7l1.17,3.3Zm-5.43-4.55l1.86-5.25h.09l1.86,5.25h-3.82Z"/><path class="bq" d="m79.17,763.11c.82-.51,1.84-1.24,2.61-1.92l-.85-.71c-.54.54-1.42,1.25-2.18,1.78-.31-.71-.57-1.48-.77-2.27h3.33v-3.59h-3.61c.43-.52.85-1.11,1.16-1.68l-.74-.51-.21.08h-3.15c.17-.27.35-.54.5-.8l-1.17-.21c-.66,1.25-1.86,2.82-3.5,3.99.29.14.67.44.88.68.17-.13.31-.27.46-.41v2.45h3.04c-1.16.72-2.66,1.34-4.02,1.74.22.21.54.62.7.83.97-.35,2.04-.82,3.03-1.38.26.22.49.46.69.7-1.1.84-2.89,1.72-4.3,2.12.24.23.5.58.62.83,1.36-.5,3.02-1.4,4.18-2.27.2.32.35.64.47.95-1.29,1.25-3.66,2.55-5.57,3.15.24.23.51.61.66.9,1.73-.65,3.77-1.84,5.18-3.02.15,1-.07,1.84-.51,2.16-.29.24-.58.27-.98.27-.32,0-.8-.02-1.31-.07.19.31.29.76.29,1.04.46.04.91.04,1.25.04.64-.02,1.07-.12,1.54-.5,1.32-.98,1.29-4.55-1.39-6.8.36-.23.7-.46,1-.7h.42c.76,3.21,2.15,5.93,4.3,7.29.18-.3.54-.72.8-.94-1.18-.68-2.13-1.83-2.87-3.23Zm.98-4h-3.07v-1.81h3.07v1.81Zm-2.88-3.89c-.26.42-.57.85-.88,1.18h-3.25c.36-.39.69-.78.98-1.18h3.15Zm-4.22,2.08h2.94v1.81h-2.94v-1.81Z"/><path class="bq" d="m71.4,753.65l-1.12-.3c-.77,2.46-2.03,4.92-3.44,6.52.21.31.53.95.64,1.24.53-.63,1.04-1.37,1.52-2.17v9.03h1.14v-11.16c.48-1.02.91-2.1,1.26-3.16Z"/><path class="bq" d="m62.88,757.73l-.8-.5-.22.05h-4.73c.27-.31.52-.62.75-.94l-1.3-.26c-.82,1.25-2.37,2.64-4.59,3.63.27.18.64.58.82.87.96-.48,1.79-1.01,2.51-1.58.62.7,1.35,1.32,2.18,1.87-1.95,1-4.22,1.72-6.37,2.11.22.27.48.75.59,1.05.8-.17,1.62-.38,2.43-.63v4.55h1.18v-.52h6.48v.51h1.23v-4.72c.71.18,1.42.34,2.16.45.18-.36.5-.87.77-1.14-2.28-.29-4.43-.87-6.23-1.71,1.28-.87,2.38-1.9,3.15-3.09Zm-6.72.54s.03-.02.04-.03h4.84c-.65.74-1.48,1.41-2.43,2-.98-.57-1.81-1.23-2.44-1.97Zm-.83,8.13v-2.33h6.48v2.33h-6.48Zm7.03-3.36h-7.12c1.17-.42,2.31-.92,3.36-1.51,1.14.62,2.41,1.13,3.76,1.51Z"/><path class="bq" d="m42.95,767.03v-.84h-2.08v-1h1.81v-.76h-1.81v-.99h1.81v-.73h-1.81v-.98h1.86v-.83h-1.77c.17-.36.35-.74.53-1.11l-.94-.28c-.11.38-.3.92-.49,1.39h-1.22c.17-.4.33-.81.45-1.22l-.91-.22c-.31,1.08-.81,2.12-1.41,2.94.04-.77.06-1.5.06-2.14v-.82h5.44v-3.31h-6.5v4.13c0,2.01-.08,4.83-.94,6.88.24.11.69.45.88.64.59-1.34.88-3.06,1.01-4.69.16.14.31.3.4.4.15-.17.29-.38.43-.59v4.89h.91v-.75h4.27c-.14.08-.28.16-.41.23.24.2.61.52.78.73.96-.48,2.11-1.33,2.83-2.11l-1.02-.58c-.45.58-1.32,1.24-2.16,1.72Zm-1.55-10v1.53h-4.37v-1.53h4.37Zm-1.38,7.4h-1.36v-.99h1.36v.99Zm0-1.72h-1.36v-.98h1.36v.98Zm-1.36,2.48h1.36v1h-1.36v-1Z"/><path class="bq" d="m47.97,765.36l-.88.55c.75.62,1.66,1.52,2.1,2.09l.93-.61c-.48-.59-1.41-1.45-2.14-2.03Z"/><rect class="bm" x="160" y="680" width="64" height="64"/><path class="bl" d="m181.83,740.33s-11.61,3.72-21.83-.62c8.72-10.23,5.83-21.85,5.83-27.69,0-20.4,13.06-32.03,26.17-32.03s26.17,11.62,26.17,32.03c0,5.84-2.89,17.46,5.83,27.64-10.17,4.39-21.83.62-21.83.62-2.94,2.32-6.35,3.72-10.17,3.72s-7.23-1.4-10.17-3.67Z"/><path class="bd" d="m211.96,723.56c-1.92,6.42-5.32,12.49-9.93,16.24-.06.02-.12.05-.17.09-2.87,2.27-6.17,3.61-9.86,3.61s-6.99-1.35-9.81-3.56c-.05-.04-.11-.07-.18-.09-4.65-3.75-8.06-9.87-10.03-16.35-.06-.21-.26-.35-.48-.35-.87,0-1.63-.46-2.32-1.3-.68-.84-1.24-2.01-1.68-3.28-.8-2.32-1.16-4.89-1.22-6.18,7.1-2.91,14.45-9.52,18.51-16.05,7.78,8.47,17.79,14.44,32.85,16.15-.07,1.31-.43,3.85-1.22,6.14-.44,1.28-1,2.45-1.68,3.28-.68.84-1.45,1.3-2.32,1.3-.22,0-.42.14-.48.36Z"/><circle class="bl" cx="185" cy="715" r="3"/><circle class="bl" cx="200" cy="715" r="3"/><path class="bq" d="m220.15,762.04c-.24-.42-.54-.75-.9-.97-.36-.23-.72-.36-1.07-.38v-.11c.33-.09.64-.23.93-.42.29-.19.52-.45.69-.78.18-.32.27-.74.27-1.24,0-.56-.13-1.08-.39-1.55s-.65-.84-1.18-1.12c-.53-.28-1.2-.42-2.01-.42h-4.07v11.64h4.21c.92,0,1.66-.14,2.23-.41s.99-.64,1.26-1.11c.27-.46.4-.99.4-1.57,0-.61-.12-1.13-.36-1.56Zm-6.32-5.74h2.66c.77,0,1.34.18,1.69.54.36.36.53.79.53,1.3,0,.41-.1.77-.31,1.07-.2.31-.47.54-.82.71-.34.16-.72.25-1.15.25h-2.61v-3.87Zm4.76,8.61c-.39.35-1.04.53-1.96.53h-2.8v-4.05h2.86c.51,0,.95.11,1.32.31.37.2.66.47.86.81.2.33.3.7.3,1.09,0,.51-.2.95-.58,1.31Z"/><path class="bq" d="m174.02,756.55h-1.95v8.35h5.79v-8.35h-2.77c.11-.46.22-.97.34-1.49h2.76v-1.04h-6.59v1.04h2.61c-.05.48-.12,1.01-.2,1.49Zm2.79,7.4h-3.73v-1.56h3.73v1.56Zm0-2.46h-3.73v-1.55h3.73v1.55Zm0-2.48h-3.73v-1.52h3.73v1.52Z"/><path class="bq" d="m199.85,753.65l-1.12-.3c-.77,2.46-2.03,4.92-3.44,6.52.21.31.53.95.64,1.24.53-.63,1.04-1.37,1.52-2.17v9.03h1.14v-11.16c.48-1.02.91-2.1,1.26-3.16Z"/><polygon class="bq" points="181.42 755.81 192.55 755.81 192.55 757.73 193.77 757.73 193.77 754.71 187.59 754.71 187.59 753.27 186.36 753.27 186.36 754.71 180.23 754.71 180.23 757.73 181.42 757.73 181.42 755.81"/><path class="bq" d="m207.62,763.11c.82-.51,1.84-1.24,2.61-1.92l-.85-.71c-.54.54-1.42,1.25-2.18,1.78-.31-.71-.57-1.48-.77-2.27h3.33v-3.59h-3.61c.43-.52.85-1.11,1.16-1.68l-.74-.51-.21.08h-3.15c.17-.27.35-.54.5-.8l-1.17-.21c-.66,1.25-1.86,2.82-3.5,3.99.29.14.67.44.88.68.17-.13.31-.27.46-.41v2.45h3.04c-1.16.72-2.66,1.34-4.02,1.74.22.21.54.62.7.83.97-.35,2.04-.82,3.03-1.38.26.22.49.46.69.7-1.1.84-2.89,1.72-4.3,2.12.24.23.5.58.62.83,1.36-.5,3.02-1.4,4.18-2.27.2.32.35.64.47.95-1.29,1.25-3.66,2.55-5.57,3.15.24.23.51.61.66.9,1.73-.65,3.77-1.84,5.18-3.02.15,1-.07,1.84-.51,2.16-.29.24-.58.27-.98.27-.32,0-.8-.02-1.31-.07.19.31.29.76.29,1.04.46.04.91.04,1.25.04.64-.02,1.07-.12,1.54-.5,1.32-.98,1.29-4.55-1.39-6.8.36-.23.7-.46,1-.7h.42c.76,3.21,2.15,5.93,4.3,7.29.18-.3.54-.72.8-.94-1.18-.68-2.13-1.83-2.87-3.23Zm.98-4h-3.07v-1.81h3.07v1.81Zm-2.88-3.89c-.26.42-.57.85-.88,1.18h-3.25c.36-.39.69-.78.98-1.18h3.15Zm-4.22,2.08h2.94v1.81h-2.94v-1.81Z"/><path class="bq" d="m191.34,757.73l-.8-.5-.22.05h-4.73c.27-.31.52-.62.75-.94l-1.3-.26c-.82,1.25-2.37,2.64-4.59,3.63.27.18.64.58.82.87.96-.48,1.79-1.01,2.52-1.58.62.7,1.35,1.32,2.18,1.87-1.95,1-4.22,1.72-6.37,2.11.22.27.48.75.59,1.05.8-.17,1.62-.38,2.43-.63v4.55h1.18v-.52h6.48v.51h1.23v-4.72c.71.18,1.42.34,2.16.45.18-.36.5-.87.77-1.14-2.28-.29-4.43-.87-6.23-1.71,1.28-.87,2.38-1.9,3.15-3.09Zm-6.72.54s.03-.02.04-.03h4.84c-.65.74-1.48,1.41-2.43,2-.98-.57-1.81-1.23-2.44-1.97Zm-.83,8.13v-2.33h6.48v2.33h-6.48Zm7.03-3.36h-7.12c1.17-.42,2.31-.92,3.36-1.51,1.14.62,2.41,1.13,3.76,1.51Z"/><rect class="bq" x="163.95" y="754.02" width="7.06" height="1.02"/><path class="bq" d="m171.4,767.03v-.84h-2.08v-1h1.81v-.76h-1.81v-.99h1.81v-.73h-1.81v-.98h1.86v-.83h-1.77c.17-.36.35-.74.53-1.11l-.94-.28c-.11.38-.3.92-.49,1.39h-1.22c.17-.4.33-.81.45-1.22l-.91-.22c-.31,1.08-.81,2.12-1.41,2.94.04-.77.06-1.5.06-2.14v-.82h5.44v-3.31h-6.5v4.13c0,2.01-.08,4.83-.94,6.88.24.11.69.45.88.64.59-1.34.88-3.06,1.01-4.69.16.14.31.3.4.4.15-.17.29-.38.43-.59v4.89h.91v-.75h4.27c-.14.08-.28.16-.41.23.24.2.61.52.78.73.96-.48,2.11-1.33,2.83-2.11l-1.02-.58c-.45.58-1.32,1.24-2.16,1.72Zm-1.55-10v1.53h-4.37v-1.53h4.37Zm-1.38,7.4h-1.36v-.99h1.36v.99Zm0-1.72h-1.36v-.98h1.36v.98Zm-1.36,2.48h1.36v1h-1.36v-1Z"/><path class="bq" d="m176.43,765.36l-.88.55c.75.62,1.66,1.52,2.1,2.09l.93-.61c-.48-.59-1.41-1.45-2.14-2.03Z"/><rect class="bp" y="160" width="256" height="448" rx="32" ry="32"/><path class="co" d="m224,161c17.09,0,31,13.91,31,31v384c0,17.09-13.91,31-31,31H32c-17.09,0-31-13.91-31-31V192c0-17.09,13.91-31,31-31h192m0-1H32c-17.67,0-32,14.33-32,32v384c0,17.67,14.33,32,32,32h192c17.67,0,32-14.33,32-32V192c0-17.67-14.33-32-32-32h0Z"/><rect class="bm" x="160" y="352" width="64" height="64"/><path class="bq" d="m67.81,182.16c.5.68,1.12,1.78,1.48,2.5l.97-.43c-.38-.72-1.03-1.84-1.48-2.48l-.97.41Z"/><path class="bq" d="m83.08,189.59c1.71-.06,3.29-.18,4.99-.39v-1.35c-1.63.24-3.29.39-5.02.47,0-.06,0-.13,0-.2,0-.67,0-1.52,0-2.33,1.73-.08,3.44-.24,4.87-.41v-1.31c-1.61.26-3.25.41-4.87.48,0-.47.01-.86.02-1.08.02-.54.05-.9.09-1.21h-1.53c.05.23.07.77.07,1.08v1.25c-.28,0-.56.01-.83.01-1.19,0-3.44-.18-4.59-.4l.02,1.33c1.13.14,3.35.31,4.59.31.27,0,.54-.01.81-.02v2.29c0,.07,0,.16,0,.23-.33,0-.66.02-.99.02-1.19,0-3.24-.13-4.52-.32l.02,1.35c1.28.14,3.26.23,4.5.23.35,0,.68,0,1.02-.01.02.78.06,1.66.09,2.49-.5-.07-1.01-.12-1.54-.12-2.59,0-4.16,1.1-4.16,2.74,0,1.75,1.42,2.66,4.01,2.66,2.34,0,3.17-1.28,3.17-2.54,0-.28-.02-.66-.04-1.11,1.79.65,3.29,1.74,4.34,2.71l.83-1.28c-1.01-.82-2.85-2.12-5.24-2.78-.05-.88-.1-1.86-.13-2.81Zm-1.18,4.96c0,1.26-.88,1.57-1.93,1.57-1.78,0-2.48-.61-2.48-1.46s.92-1.49,2.65-1.49c.6,0,1.18.08,1.74.19.01.47.02.89.02,1.19Z"/><path class="bq" d="m101.14,185.72l-.04-1.33c-.92.3-1.87.51-2.82.65.29-1.04.54-2.13.71-2.77l-1.58-.16c-.04.96-.28,2.11-.57,3.11-.69.06-1.38.1-2.02.1-.77,0-1.55-.04-2.21-.11l.11,1.35c.67.02,1.44.04,2.11.04.52,0,1.05-.02,1.58-.06-.8,2.11-2.35,5-3.84,6.75l1.39.72c1.45-1.95,3.04-5.08,3.92-7.63,1.19-.16,2.32-.39,3.28-.65Z"/><path class="bq" d="m181.87,184.07h12.44v11.95c0,.38-.13.5-.52.52-.43.02-1.89.04-3.35-.04.22.4.49,1.06.58,1.46,1.78,0,3.04-.02,3.76-.25.7-.22.94-.68.94-1.66v-11.99h2.21v-1.37h-16.06v1.37Z"/><path class="bq" d="m222.5,181.71c-1.19,2.84-3.17,5.58-5.26,7.33.27.32.68,1.03.83,1.35.81-.73,1.62-1.6,2.38-2.57v10.15h1.33v-12.03c.78-1.21,1.48-2.49,2.03-3.8l-1.31-.43Z"/><path class="bq" d="m70.04,184.52c-1.22.41-2.71.7-4.02.87-.35-1.04-.68-2.22-.82-3.07l-1.53.2c.16.47.32,1.03.45,1.4.13.42.3.96.53,1.62-1.97.14-4.48.1-7.12-.21l.04,1.44c2.84.23,5.4.22,7.56.03.61,1.5,1.48,3.08,2.18,4.11-.65-.07-1.98-.18-2.99-.27l-.11,1.21c1.3.09,3.47.29,4.34.49l.74-1.01c-.27-.31-.54-.61-.79-.95-.66-.93-1.44-2.33-2-3.71,1.21-.16,2.62-.41,3.71-.73l-.16-1.4Z"/><path class="bq" d="m141.91,186.91h-5.49v-2.29h6.84v-1.28h-6.84v-1.93h-1.37v5.49h-5.2v5.76h12.06v-5.76Zm-1.37,4.5h-9.41v-3.22h9.41v3.22Z"/><path class="bq" d="m175.88,183.83c-1.6-.16-5.44-.9-6.98-1.4l-.36,1.39c1.39.36,5.27,1.15,7,1.39l.34-1.37Z"/><path class="bq" d="m23.64,193.43c0-.85.32-1.62.86-2.5l-1.4-.32c-.52,1.06-.88,2-.88,3.01,0,2.45,2.16,3.67,5.58,3.69,2.02.02,3.53-.18,4.66-.38l.05-1.44c-1.24.27-2.81.45-4.63.45-2.68-.04-4.25-.77-4.25-2.5Z"/><path class="bq" d="m232.99,193.16c-.13,2.63-.27,3.29-1.26,3.29h-3.55c-1.01,0-1.19-.22-1.19-1.22v-5.27c2.25-1.19,4.67-2.55,6.37-3.95l-.99-1.15c-1.31,1.2-3.37,2.59-5.38,3.72v-6.71h-1.37v13.34c0,1.98.58,2.52,2.47,2.52h3.71c1.87,0,2.27-1.03,2.48-3.98-.4-.09-.95-.34-1.3-.59Z"/><path class="bq" d="m34.22,184.37c-1.22.42-2.71.71-4.01.89-.34-1.04-.68-2.22-.81-3.07l-1.55.18c.18.49.34,1.03.45,1.42.14.4.32.95.55,1.61-1.97.14-4.49.09-7.14-.21l.04,1.42c2.85.24,5.42.24,7.58.05.6,1.5,1.48,3.07,2.16,4.11-.65-.07-1.98-.18-2.99-.27l-.11,1.19c1.3.09,3.49.29,4.36.5l.72-1.03c-.27-.29-.54-.59-.77-.95-.68-.92-1.47-2.32-2.03-3.7,1.21-.17,2.62-.42,3.72-.73l-.16-1.42Z"/><path class="bq" d="m47.08,189.59c1.71-.06,3.29-.18,4.99-.39v-1.35c-1.63.24-3.29.39-5.02.47,0-.06,0-.13,0-.2,0-.67,0-1.52,0-2.33,1.73-.08,3.44-.24,4.87-.41v-1.31c-1.61.26-3.25.41-4.87.48,0-.47.01-.86.02-1.08.02-.54.05-.9.09-1.21h-1.53c.05.23.07.77.07,1.08v1.25c-.28,0-.56.01-.83.01-1.19,0-3.44-.18-4.59-.4l.02,1.33c1.13.14,3.35.31,4.59.31.27,0,.54-.01.81-.02v2.29c0,.07,0,.16,0,.23-.33,0-.66.02-.99.02-1.19,0-3.24-.13-4.52-.32l.02,1.35c1.28.14,3.26.23,4.5.23.35,0,.68,0,1.02-.01.02.78.06,1.66.09,2.49-.5-.07-1.01-.12-1.54-.12-2.59,0-4.16,1.1-4.16,2.74,0,1.75,1.42,2.66,4.01,2.66,2.34,0,3.17-1.28,3.17-2.54,0-.28-.02-.66-.04-1.11,1.79.65,3.29,1.74,4.34,2.71l.83-1.28c-1.01-.82-2.85-2.12-5.24-2.78-.05-.88-.1-1.86-.13-2.81Zm-1.18,4.96c0,1.26-.88,1.57-1.93,1.57-1.78,0-2.48-.61-2.48-1.46s.92-1.49,2.65-1.49c.6,0,1.18.08,1.74.19.01.47.02.89.02,1.19Z"/><path class="bq" d="m59.46,193.57c0-.86.31-1.64.85-2.5l-1.4-.32c-.52,1.06-.86,2-.86,2.99,0,2.45,2.16,3.67,5.58,3.71,2,0,3.53-.2,4.64-.4l.07-1.44c-1.26.29-2.81.47-4.64.45-2.68-.02-4.23-.77-4.23-2.48Z"/><path class="bq" d="m69.82,181.46c.5.68,1.1,1.69,1.49,2.48l.97-.43c-.34-.67-1.04-1.8-1.51-2.47l-.95.41Z"/><path class="bq" d="m136.71,194.26c.54,1.13,1.08,2.63,1.26,3.53l1.33-.32c-.22-.92-.81-2.38-1.37-3.46l-1.22.25Z"/><path class="bq" d="m214.65,196.7h-1.35c-.41,0-.49-.07-.49-.5v-3.76h2.12v-10.08h-7.56v10.08h1.42c-.29,2.11-1.02,3.67-3.55,4.52.27.25.65.74.79,1.04,2.85-1.08,3.73-2.96,4.07-5.56h1.46v3.76c0,1.28.29,1.66,1.55,1.66h1.69c1.03,0,1.37-.56,1.49-2.83-.34-.09-.86-.27-1.12-.49-.05,1.91-.13,2.16-.54,2.16Zm-6.01-13.23h5v1.87h-5v-1.87Zm0,2.95h5v1.91h-5v-1.91Zm0,2.97h5v1.93h-5v-1.93Z"/><path class="bq" d="m140.38,194.11c.92,1.15,1.91,2.74,2.32,3.73l1.28-.52c-.43-1.01-1.48-2.54-2.39-3.65l-1.21.45Z"/><path class="bq" d="m154.1,186.01c-.44,0-1.18.05-2.02.12.19-.97.37-2.03.46-2.55.07-.36.14-.74.22-1.08l-1.66-.16c0,1.23-.2,2.63-.47,3.92-1.09.1-2.14.19-2.73.2-.58.02-1.04.02-1.62,0l.16,1.55c.45-.07,1.21-.16,1.62-.22.46-.05,1.34-.14,2.28-.24-.61,2.42-1.95,6.52-3.79,8.97l1.46.59c1.89-3.06,3.13-7.12,3.79-9.71.78-.07,1.5-.12,1.93-.12,1.15,0,1.91.31,1.91,1.94,0,1.94-.27,4.3-.85,5.51-.38.79-.92.94-1.58.94-.5,0-1.44-.14-2.2-.38l.23,1.51c.58.13,1.42.25,2.12.25,1.15,0,2.05-.29,2.63-1.49.74-1.49,1.03-4.36,1.03-6.5,0-2.45-1.31-3.06-2.92-3.06Z"/><path class="bq" d="m191.11,193.43v-6.71h-7.38v8.15h1.31v-1.44h6.07Zm-1.35-5.44v4.14h-4.72v-4.14h4.72Z"/><path class="bq" d="m205.99,192.69l.83-1.13c-.4-.4-1.89-1.8-2.67-2.49.87-1.18,1.63-2.47,2.15-3.81l-.76-.5-.23.05h-1.49v-3.37h-1.31v3.37h-2.63v1.24h4.74c-1.19,2.4-3.34,4.69-5.39,5.96.22.23.56.86.68,1.21.86-.58,1.75-1.34,2.59-2.2v6.97h1.31v-7.71c.78.79,1.74,1.84,2.18,2.42Z"/><path class="bq" d="m173.63,188.57c-2.16,0-4.14.7-5.87,2.21.18-1.17.5-3.83.74-5.06l-1.51-.2c-.11,1.87-.56,5.65-.92,7.29l1.35.32c.11-.29.27-.58.54-.88,1.26-1.53,3.2-2.41,5.56-2.41,1.84,0,3.19,1.03,3.19,2.45,0,2.47-2.77,4.1-8.46,3.42l.43,1.46c6.68.56,9.54-1.62,9.54-4.82,0-2.12-1.84-3.78-4.59-3.78Z"/><path class="bq" d="m157.65,185.02c1.26,1.48,2.66,4.66,3.2,6.52l1.39-.67c-.59-1.67-2.16-4.99-3.28-6.44l-1.31.59Z"/><path class="bq" d="m102.73,185.81c1.19.56,3.15,1.66,4.12,2.48l.81-1.19c-.86-.65-2.9-1.82-4.21-2.38l-.72,1.08Z"/><path class="bq" d="m132.99,194.24c.23,1.17.38,2.68.38,3.6l1.39-.18c-.02-.88-.22-2.36-.47-3.53l-1.3.11Z"/><path class="bq" d="m115.99,192.69l.83-1.13c-.4-.4-1.89-1.8-2.67-2.49.87-1.18,1.63-2.47,2.15-3.81l-.76-.5-.23.05h-1.49v-3.37h-1.31v3.37h-2.63v1.24h4.74c-1.19,2.4-3.34,4.69-5.39,5.96.22.23.56.86.68,1.21.86-.58,1.75-1.34,2.59-2.2v6.97h1.31v-7.71c.78.79,1.74,1.84,2.18,2.42Z"/><path class="bq" d="m103.21,189.76c-.02-.65-.02-1.19.04-1.93h-1.42c.05,1.27.14,3.05.21,4.53-.56-.11-1.15-.19-1.77-.19-2.02,0-3.58,1.04-3.58,2.7,0,1.8,1.6,2.59,3.58,2.59,2.23,0,3.15-1.17,3.15-2.61,0-.2,0-.46-.01-.74,1.17.58,2.16,1.37,2.93,2.07l.76-1.22c-.93-.8-2.18-1.69-3.74-2.25-.05-1.11-.11-2.29-.13-2.95Zm-1.12,4.64c0,.97-.5,1.76-2,1.76-1.4,0-2.11-.58-2.11-1.4s.9-1.44,2.23-1.44c.65,0,1.27.1,1.86.27,0,.31.02.59.02.81Z"/><path class="bq" d="m127.62,197.37l1.24.61c.97-.95,1.89-2.48,2.48-3.89l-1.28-.32c-.56,1.33-1.49,2.79-2.45,3.6Z"/><path class="bq" d="m124.65,196.7h-1.35c-.41,0-.49-.07-.49-.5v-3.76h2.12v-10.08h-7.56v10.08h1.42c-.29,2.11-1.02,3.67-3.55,4.52.27.25.65.74.79,1.04,2.85-1.08,3.73-2.96,4.07-5.56h1.46v3.76c0,1.28.29,1.66,1.55,1.66h1.69c1.03,0,1.37-.56,1.49-2.83-.34-.09-.86-.27-1.12-.49-.05,1.91-.13,2.16-.54,2.16Zm-6.01-13.23h5v1.87h-5v-1.87Zm0,2.95h5v1.91h-5v-1.91Zm0,2.97h5v1.93h-5v-1.93Z"/><g class="cv"><path class="bo" d="m52,543.5c-1.38,0-2.5-1.12-2.5-2.5s1.12-2.5,2.5-2.5h5c1.38,0,2.5,1.12,2.5,2.5s-1.12,2.5-2.5,2.5h-5Z"/><path class="bs" d="m57,539c1.1,0,2,.9,2,2s-.9,2-2,2h-5c-1.1,0-2-.9-2-2s.9-2,2-2h5m0-1h-5c-1.66,0-3,1.34-3,3s1.34,3,3,3h5c1.66,0,3-1.34,3-3s-1.34-3-3-3h0Z"/><path class="bo" d="m85,543.5c-1.38,0-2.5-1.12-2.5-2.5s1.12-2.5,2.5-2.5h5c1.38,0,2.5,1.12,2.5,2.5s-1.12,2.5-2.5,2.5h-5Z"/><path class="bs" d="m90,539c1.1,0,2,.9,2,2s-.9,2-2,2h-5c-1.1,0-2-.9-2-2s.9-2,2-2h5m0-1h-5c-1.66,0-3,1.34-3,3s1.34,3,3,3h5c1.66,0,3-1.34,3-3s-1.34-3-3-3h0Z"/><path class="at" d="m48,480.5l23,8.5,18-8.5"/><rect class="bo" x="39" y="489" width="64" height="52" rx="12" ry="12"/><path class="cn" d="m91,491c5.51,0,10,4.49,10,10v28c0,5.51-4.49,10-10,10h-40c-5.51,0-10-4.49-10-10v-28c0-5.51,4.49-10,10-10h40m0-2h-40c-6.63,0-12,5.37-12,12v28c0,6.63,5.37,12,12,12h40c6.63,0,12-5.37,12-12v-28c0-6.63-5.37-12-12-12h0Z"/><path class="cr" d="m53,533.5c.55,0,1,.45,1,1s-.45,1-1,1-1-.45-1-1,.45-1,1-1m0-1c-1.1,0-2,.9-2,2s.9,2,2,2,2-.9,2-2-.9-2-2-2h0Z"/><path class="cp" d="m88,533.5c.55,0,1,.45,1,1s-.45,1-1,1-1-.45-1-1,.45-1,1-1m0-1c-1.1,0-2,.9-2,2s.9,2,2,2,2-.9,2-2-.9-2-2-2h0Z"/><path class="bb" d="m63,534.5h15.5"/><path class="bj" d="m45,508l2.02-1.51c.65-.48,1.53-.53,2.23-.12l.51.3c.75.44,1.71.35,2.36-.23l.35-.31c.65-.58,1.61-.67,2.36-.23l.51.3c.7.41,1.58.36,2.23-.12l.83-.62c.71-.53,1.68-.53,2.39,0h0c.71.53,1.68.53,2.39,0l.71-.53c.71-.53,1.68-.53,2.39,0h0c.71.53,1.68.53,2.39,0l.76-.57c.68-.5,1.61-.5,2.28,0h0c.72.54,1.73.5,2.41-.1l.29-.25c.65-.58,1.61-.67,2.36-.23l.4.24c.75.44,1.71.35,2.36-.23l.35-.31c.65-.58,1.61-.67,2.36-.23l.4.24c.75.44,1.71.35,2.36-.23l.35-.31c.65-.58,1.61-.67,2.36-.23l.39.23c.75.44,1.7.29,2.28-.35h0c.58-.64,1.54-.78,2.28-.34l.85.5c.51.3,1.13.36,1.69.17l1.79-.62"/><path class="bi" d="m45,512.01l2.02-1.51c.65-.48,1.53-.53,2.23-.12l.51.3c.75.44,1.71.35,2.36-.23l.35-.31c.65-.58,1.61-.67,2.36-.23l.51.3c.7.41,1.58.36,2.23-.12l.83-.62c.71-.53,1.68-.53,2.39,0h0c.71.53,1.68.53,2.39,0l.71-.53c.71-.53,1.68-.53,2.39,0h0c.71.53,1.68.53,2.39,0l.76-.57c.68-.5,1.61-.5,2.28,0h0c.72.54,1.73.5,2.41-.1l.29-.25c.65-.58,1.61-.67,2.36-.23l.4.24c.75.44,1.71.35,2.36-.23l.35-.31c.65-.58,1.61-.67,2.36-.23l.4.24c.75.44,1.71.35,2.36-.23"/><path class="ct" d="m91,495c3.31,0,6,2.69,6,6v22c0,3.31-2.69,6-6,6h-40c-3.31,0-6-2.69-6-6v-22c0-3.31,2.69-6,6-6h40m0-1h-40c-3.87,0-7,3.13-7,7v22c0,3.87,3.13,7,7,7h40c3.87,0,7-3.13,7-7v-22c0-3.87-3.13-7-7-7h0Z"/></g><path class="bq" d="m63.03,574.35l.72-.94c-.36-.48-.91-1.04-1.54-1.61.73-1.82,1.19-4.15,1.36-7.12l-.7-.11-.19.03h-1.9c.23-1.11.44-2.2.62-3.18l-1.15-.11c-.16,1-.36,2.14-.59,3.3h-1.6v1.12h1.38c-.39,1.96-.82,3.88-1.18,5.23l.96.59c.06-.22.12-.47.18-.71.48.37.96.78,1.43,1.2-.69,1.37-1.57,2.39-2.65,3.01.26.24.58.67.74.96,1.14-.74,2.07-1.76,2.8-3.14.54.53,1,1.05,1.31,1.49Zm-3.37-4.62c.29-1.24.6-2.62.89-4.02h1.84c-.18,2.08-.55,3.84-1.1,5.27-.54-.45-1.09-.87-1.62-1.26Z"/><path class="bq" d="m69.32,571.36h3.4v-1.04h-4.1v-1.42h2.48v-4.82h1.62v-1.04h-1.62v-1.76h-1.14v1.76h-3.81v-1.76h-1.12v1.76h-1.68v1.04h1.68v4.82h2.42v1.42h-3.97v1.04h3.26c-.92,1.38-2.41,2.66-3.88,3.31.26.22.64.66.83.94,1.38-.74,2.78-2.05,3.76-3.51v3.89h1.17v-3.97c.94,1.39,2.29,2.74,3.49,3.5.19-.3.58-.74.85-.94-1.29-.66-2.72-1.94-3.64-3.23Zm.65-7.28v1.42h-3.81v-1.42h3.81Zm-3.81,2.37h3.81v1.46h-3.81v-1.46Z"/><path class="bq" d="m84.65,565.66h4.03v-1.15h-4.8v-3.17h-1.17v3.17h-4.51v1.15h3.79c-.99,2.73-2.68,5.45-4.42,6.86.27.19.67.61.85.91,1.71-1.55,3.26-4.2,4.29-7v5.49h-2.64v1.09h2.64v2.9h1.17v-2.9h2.59v-1.09h-2.59v-5.6c.98,2.8,2.53,5.52,4.21,7.05.22-.32.62-.74.91-.94-1.75-1.41-3.39-4.1-4.35-6.78Z"/><path class="bq" d="m78.57,561.68l-1.14-.34c-.78,2.42-2.1,4.82-3.52,6.38.22.29.58.91.7,1.18.47-.55.93-1.18,1.38-1.87v8.94h1.14v-10.93c.55-1.08,1.05-2.23,1.44-3.38Z"/><path class="bq" d="m89.07,436.99l1.01-.67c-.45-.83-1.52-1.95-2.51-2.72l-.91.61c.96.8,2,1.97,2.42,2.78Z"/><path class="bq" d="m77.94,436.8c-.7-.51-2.54-1.74-3.49-2.27l-.72,1.09c.94.53,2.69,1.7,3.44,2.27l.77-1.09Z"/><path class="bq" d="m50.58,439.06c1.07,0,1.95-.88,1.95-1.95s-.88-1.94-1.95-1.94-1.94.86-1.94,1.94.86,1.95,1.94,1.95Zm0-3.12c.66,0,1.17.53,1.17,1.17s-.51,1.18-1.17,1.18-1.17-.53-1.17-1.18.53-1.17,1.17-1.17Z"/><path class="bq" d="m45.98,437.55c-1.09-1.04-1.84-.86-2.69.14-1.01,1.2-2.4,2.98-3.17,3.74-.42.42-.72.7-1.12,1.06l1.18,1.22c.26-.32.59-.82.93-1.23.72-.88,2.06-2.64,2.83-3.57.54-.67.85-.72,1.47-.13.67.67,2.14,2.26,3.07,3.3,1.04,1.17,2.45,2.82,3.58,4.19l1.1-1.17c-1.23-1.33-2.83-3.06-3.92-4.21-.93-.99-2.3-2.43-3.28-3.34Z"/><path class="bq" d="m82.78,437.26c-.37-.77-1.09-1.9-1.49-2.5l-.9.38c.53.72,1.07,1.68,1.47,2.53l.91-.42Z"/><path class="bq" d="m108.78,437.76c.5-.28.96-.57,1.39-.88.71.46,1.5,1.09,2.02,1.61-1.17.79-2.51,1.37-3.89,1.71.21.24.51.69.62.98,3.22-.93,6.21-2.83,7.47-6.19l-.77-.37-.21.06h-2.93c.31-.39.58-.79.82-1.18l-1.2-.21c-.7,1.23-2.1,2.66-4.1,3.66.26.18.61.56.77.82Zm6.03-2.1c-.45.83-1.07,1.56-1.8,2.19-.53-.53-1.33-1.14-2.07-1.58.23-.2.45-.4.65-.6h3.21Z"/><path class="bq" d="m93.81,446.59c-1.95-.06-3.34-.67-4.1-1.94v-5.02h-3.15v1.12h2.02v4.02c-.7.72-1.51,1.45-2.14,1.98l.64,1.12c.75-.75,1.47-1.49,2.14-2.22.99,1.33,2.43,1.97,4.61,2.03,1.79.08,5.23.05,7.02-.03.06-.34.24-.88.38-1.15-1.94.14-5.65.18-7.42.1Z"/><path class="bq" d="m108.58,442.11c-.31-.39-1.73-1.82-2.18-2.23v-.97h2.02v-1.14h-2.02v-2.71c.76-.19,1.46-.4,2.05-.63l-.85-.93c-1.17.54-3.28.99-5.09,1.3.14.27.3.66.37.93.75-.1,1.56-.24,2.35-.4v2.45h-2.62v1.14h2.46c-.64,1.84-1.76,3.92-2.78,5.06.21.27.5.77.61,1.1.83-1,1.67-2.59,2.34-4.22v7.1h1.17v-6.9c.55.68,1.2,1.55,1.47,2.01l.7-.94Z"/><path class="bq" d="m98.28,440.3h2.71v-.9h-6.44c.15-.27.29-.55.41-.85h5.37v-2.91h-2.96v-.88h3.57v-.9h-10.45v.9h3.25v.88h-2.7v2.91h2.77c-.13.29-.28.58-.45.85h-3.05v.9h2.36c-.76.85-1.72,1.53-2.82,2.02.26.18.66.58.8.77.69-.36,1.35-.79,1.95-1.3v.15h4.54v1.01h-4.72v1.57c0,1.07.48,1.3,2.19,1.3h3.7c1.26,0,1.62-.34,1.74-1.78-.29-.06-.7-.19-.94-.35-.06,1.12-.21,1.26-.91,1.26h-3.54c-.98,0-1.15-.06-1.15-.45v-.8h4.67v-2.2c.73.68,1.59,1.27,2.43,1.64.16-.27.48-.64.7-.83-1.09-.4-2.23-1.16-3.03-2Zm-3.58-2.53v-1.34h1.7v1.34h-1.7Zm4.51-1.34v1.34h-1.84v-1.34h1.84Zm-4.51-1.66h1.7v.88h-1.7v-.88Zm-2.61,1.66h1.65v1.34h-1.65v-1.34Zm1.11,4.78c.28-.28.53-.59.77-.91h3.12c.23.31.49.62.78.91h-4.68Z"/><path class="bq" d="m116.45,440.77l-.22.05h-2.95c.34-.43.65-.87.9-1.31l-1.22-.21c-.78,1.41-2.38,3.01-4.74,4.11.26.18.61.56.77.83.57-.29,1.08-.61,1.57-.94.82.5,1.7,1.17,2.29,1.75-1.4.96-3.1,1.58-4.88,1.92.21.26.48.72.61,1.02,3.87-.88,7.28-2.85,8.64-6.9l-.77-.34Zm-2.71,3.58c-.59-.56-1.48-1.22-2.3-1.69.33-.26.62-.54.91-.82h3.29c-.46.98-1.1,1.82-1.89,2.51Z"/><path class="bq" d="m75.55,440.29c-.69-.5-2.56-1.65-3.5-2.16l-.72,1.1c.98.5,2.7,1.62,3.49,2.18l.74-1.12Z"/><path class="bq" d="m58.01,439.87c-.91,0-1.74-.05-2.24-.1v1.57c.51-.03,1.36-.06,2.24-.06h8.78c.7,0,1.38.05,1.71.06v-1.57c-.37.03-.93.1-1.73.1h-8.77Z"/><path class="bq" d="m77.42,444.11c-1.63.93-3.62,1.55-5.38,1.86l.75,1.31c1.47-.3,3.68-1.06,5.3-2,2.56-1.49,4.77-3.57,6.16-5.71l-.78-1.31c-1.3,2.26-3.39,4.34-6.05,5.86Z"/><path class="bq" d="m82.5,434.4c.53.7,1.09,1.63,1.5,2.46l.91-.42c-.38-.74-1.1-1.89-1.54-2.45l-.88.4Z"/><g shape-rendering="crispEdges"><path class="bo" d="m55.08,372h43.84c2.25,0,4.08,1.83,4.08,4.09v35.81c0,2.26-1.83,4.09-4.08,4.09h-43.84c-2.25,0-4.08-1.83-4.08-4.09v-35.81c0-2.26,1.83-4.09,4.08-4.09Z"/><path class="cq" d="m98.92,374c1.15,0,2.08.94,2.08,2.09v35.81c0,1.15-.93,2.09-2.08,2.09h-43.84c-1.15,0-2.08-.94-2.08-2.09v-35.81c0-1.15.93-2.09,2.08-2.09h43.84m0-2h-43.84c-2.25,0-4.08,1.83-4.08,4.09v35.81c0,2.26,1.83,4.09,4.08,4.09h43.84c2.25,0,4.08-1.83,4.08-4.09v-35.81c0-2.26-1.83-4.09-4.08-4.09h0Z"/></g><path class="bn" d="m51,381h52"/><circle class="br" cx="56" cy="377" r="1"/><circle class="br" cx="59" cy="377" r="1"/><circle class="br" cx="62" cy="377" r="1"/><g class="cu"><path class="bl" d="m87,372v16c0,2.21-1.79,4-4,4h-32v8h39.92c2.25,0,4.08-1.83,4.08-4.08v-23.92h-8Z"/></g><g shape-rendering="crispEdges"><path class="bo" d="m43.08,352h43.84c2.25,0,4.08,1.83,4.08,4.09v35.81c0,2.26-1.83,4.09-4.08,4.09h-43.84c-2.25,0-4.08-1.83-4.08-4.09v-35.81c0-2.26,1.83-4.09,4.08-4.09Z"/><path class="cs" d="m86.92,354c1.15,0,2.08.94,2.08,2.09v35.81c0,1.15-.93,2.09-2.08,2.09h-43.84c-1.15,0-2.08-.94-2.08-2.09v-35.81c0-1.15.93-2.09,2.08-2.09h43.84m0-2h-43.84c-2.25,0-4.08,1.83-4.08,4.09v35.81c0,2.26,1.83,4.09,4.08,4.09h43.84c2.25,0,4.08-1.83,4.08-4.09v-35.81c0-2.26-1.83-4.09-4.08-4.09h0Z"/></g><path class="bn" d="m39,361h52"/><circle class="br" cx="44" cy="357" r="1"/><circle class="br" cx="47" cy="357" r="1"/><circle class="br" cx="50" cy="357" r="1"/><path class="bq" d="m98.25,313.87h2.78v-1.04h-2.78v-1.65h-1.15v1.65h-1.41c.13-.42.25-.86.35-1.3l-1.04-.21c-.27,1.36-.77,2.7-1.46,3.6.26.13.74.37.94.51.3-.43.58-.98.82-1.57h1.78v1.95h-3.38v1.07h3.38v3.01h1.15v-3.01h3.06v-1.07h-3.06v-1.95Z"/><path class="bq" d="m35.7,307.23h-9.2c-.59,0-1.25-.06-1.81-.14v1.44c.62-.05,1.22-.08,1.81-.08h9.12c-.51.99-2.02,2.72-3.5,3.57l1.07.85c1.82-1.26,3.34-3.33,3.98-4.42.11-.18.3-.42.43-.56l-.8-.77c-.22.06-.8.11-1.1.11Z"/><path class="bq" d="m66.3,309.04c-.67.16-3.49.74-6.21,1.26v-2.49c0-.46.05-1.01.11-1.47h-1.5c.08.46.1.99.1,1.47v2.74c-1.69.32-3.21.58-3.94.67l.26,1.34c.65-.14,2.07-.43,3.68-.76v4.84c0,1.57.56,2.35,3.54,2.35,2,0,3.6-.13,5.02-.34l.05-1.38c-1.58.32-3.14.48-4.99.48s-2.32-.35-2.32-1.46v-4.77c2.83-.57,5.78-1.16,6.06-1.22-.48.94-1.65,2.7-2.85,3.81l1.1.66c1.3-1.31,2.54-3.33,3.28-4.66.11-.19.27-.46.4-.64l-.94-.74c-.19.11-.51.21-.85.29Z"/><path class="bq" d="m29.83,311.15c0,2.67-.35,4.94-2.82,6.46-.45.3-1.01.58-1.44.72l1.17.96c4.08-2.05,4.46-4.98,4.46-9.31h-1.44c.06.43.06.78.06,1.17Z"/><path class="bq" d="m49.74,308.19h-4.33c.14-.23.26-.46.38-.67.16-.29.45-.83.7-1.25l-1.47-.5c-.1.42-.34.99-.5,1.28-.7,1.42-2.27,3.76-5.04,5.41l1.12.82c1.75-1.15,3.08-2.58,4.04-3.94h5.41c-.32,1.46-1.31,3.54-2.54,4.99-1.47,1.71-3.46,3.15-6.4,4.02l1.17,1.06c2.99-1.12,4.91-2.58,6.37-4.35,1.42-1.74,2.4-3.9,2.83-5.52.08-.26.24-.62.37-.85l-1.06-.64c-.26.1-.62.14-1.06.14Z"/><path class="bq" d="m79.62,313.4c1.13-1.44,2.13-3.32,2.69-4.71.08-.21.29-.56.38-.69l-.8-.62c-.26.08-.69.13-1.2.13h-6.18c-.5,0-1.41-.06-1.62-.1v1.44c.18-.02,1.04-.08,1.62-.08h6.24c-.42,1.33-1.58,3.23-2.67,4.46-1.65,1.82-4,3.74-6.59,4.74l1.02,1.07c2.37-1.08,4.52-2.82,6.25-4.68,1.63,1.48,3.33,3.35,4.4,4.77l1.1-.98c-1.03-1.26-2.99-3.32-4.66-4.76Z"/><path class="bq" d="m117.31,310.74h-6.46v-2.83c1.99-.37,4.19-.89,5.74-1.54l-1.02-.93c-1.15.52-3.07,1.04-4.88,1.43l-1.02-.31v4.51c0,2.42-.19,5.65-1.98,8.05.3.16.74.54.91.8,1.79-2.37,2.18-5.57,2.24-8.05h2.91v8.1h1.18v-8.1h2.38v-1.14Z"/><path class="bq" d="m107.87,314.98l.74-.98c-.33-.43-1.7-2.13-2.22-2.72v-1.44h2.18v-1.15h-2.18v-3.44h-1.15v3.44h-2.5v1.15h2.32c-.54,2.21-1.63,4.72-2.71,6.06.21.27.51.75.64,1.07.84-1.09,1.64-2.88,2.24-4.73v7.7h1.15v-7.27c.56.78,1.21,1.76,1.49,2.29Z"/><path class="bq" d="m94.09,311.44c2-.9,2.76-2.46,3.09-4.35h2.56c-.1,1.87-.22,2.61-.41,2.82-.1.13-.24.16-.46.14-.22,0-.8,0-1.44-.06.14.27.26.69.27,1.01.67.03,1.34.03,1.66,0,.42-.03.66-.13.88-.4.34-.37.5-1.41.61-4.08.02-.14.02-.45.02-.45h-6.96v1.02h2.16c-.29,1.51-.94,2.8-2.64,3.53v-1.3h-2.02c.38-.68.77-1.5,1.01-2.22l-.7-.46-.16.06h-1.91c.14-.39.27-.79.38-1.2l-1.1-.24c-.48,1.97-1.38,3.87-2.51,5.1.26.16.72.53.91.72.11-.14.23-.29.34-.44v2.93c0,1.81-.11,4.19-1.2,5.89.24.11.69.38.86.54.75-1.17,1.08-2.74,1.23-4.24h3.88v2.9c0,.21-.1.27-.3.29-.22.02-.94.02-1.76-.02.14.29.32.75.37,1.02,1.1,0,1.76-.02,2.16-.19.42-.18.54-.51.54-1.1v-8.02c.24.18.52.55.66.8Zm-5.44-1.18h1.46v1.78h-1.46v-1.78Zm2.32,0h1.46v1.78h-1.46v-1.78Zm-1.68-2.62h1.78c-.21.58-.46,1.19-.72,1.68h-1.85c.29-.52.55-1.09.79-1.68Zm-.64,5.94v-.62h1.46v1.87h-1.49c.02-.44.03-.86.03-1.25Zm2.32,1.25v-1.87h1.46v1.87h-1.46Z"/><path class="bh" d="m40,279v-14c0-1.1.9-2,2-2h11.5c1.1,0,2,.9,2,2v22h-7.5c-4.42,0-8-3.58-8-8Z"/><path class="bf" d="m55.5,287v-18c0-1.1.9-2,2-2h11.5c1.1,0,2,.9,2,2v18h-15.5Z"/><path class="bg" d="m71,287v-30c0-1.1.9-2,2-2h11.5c1.1,0,2,.9,2,2v30h-15.5Z"/><path class="be" d="m86.5,287v-42c0-1.1.9-2,2-2h11.5c1.1,0,2,.9,2,2v34c0,4.42-3.58,8-8,8h-7.5Z"/><path class="ba" d="m40,247.49l8,2,15,4,16-12,16-12,7-5"/><circle class="bo" cx="48" cy="249.51" r="4"/><path class="cm" d="m48,246.51c1.65,0,3,1.35,3,3s-1.35,3-3,3-3-1.35-3-3,1.35-3,3-3m0-1c-2.21,0-4,1.79-4,4s1.79,4,4,4,4-1.79,4-4-1.79-4-4-4h0Z"/><circle class="bo" cx="63" cy="253.51" r="4"/><path class="cl" d="m63,250.51c1.65,0,3,1.35,3,3s-1.35,3-3,3-3-1.35-3-3,1.35-3,3-3m0-1c-2.21,0-4,1.79-4,4s1.79,4,4,4,4-1.79,4-4-1.79-4-4-4h0Z"/><circle class="bo" cx="79" cy="241.51" r="4"/><path class="ch" d="m79,238.51c1.65,0,3,1.35,3,3s-1.35,3-3,3-3-1.35-3-3,1.35-3,3-3m0-1c-2.21,0-4,1.79-4,4s1.79,4,4,4,4-1.79,4-4-1.79-4-4-4h0Z"/><circle class="bo" cx="95" cy="229.49" r="4"/><path class="ck" d="m95,226.49c1.65,0,3,1.35,3,3s-1.35,3-3,3-3-1.35-3-3,1.35-3,3-3m0-1c-2.21,0-4,1.79-4,4s1.79,4,4,4,4-1.79,4-4-1.79-4-4-4h0Z"/><rect class="bm" x="39" y="224" width="64" height="64"/><circle class="bo" cx="184" cy="384" r="32"/><path class="cj" d="m169.74,397.28c3.63,4.47,8.67,6.92,14.26,6.92s10.49-2.51,14.23-6.91c7.15,2,8.24,5.21,8.24,6.97,0,.33,0,.77-.11,1.2-5.74,6.06-13.87,9.54-22.36,9.54s-16.62-3.47-22.36-9.54c-.11-.43-.11-.87-.11-1.2,0-3.18,2.91-5.65,8.21-6.98m28.12-1.12c-3.41,4.27-8.32,7.04-13.87,7.04s-10.45-2.56-13.87-7.04c-7.47,1.71-9.6,5.12-9.6,8.11,0,.43,0,1.07.21,1.71,5.76,6.19,14.08,10.03,23.25,10.03s17.49-3.84,23.25-10.03c.21-.64.21-1.28.21-1.71,0-2.77-2.13-6.19-9.6-8.11h0Z"/><path class="az" d="m173.33,377.6c0,8.32,4.69,14.93,10.67,14.93s10.67-6.61,10.67-14.93c0-5.97-4.69-10.67-10.67-10.67s-10.67,4.69-10.67,10.67Z"/><path class="ci" d="m184,354c16.54,0,30,13.46,30,30s-13.46,30-30,30-30-13.46-30-30,13.46-30,30-30m0-2c-17.67,0-32,14.33-32,32s14.33,32,32,32,32-14.33,32-32-14.33-32-32-32h0Z"/><path class="bq" d="m149.44,433.47c-.99,0-1.79.8-1.79,1.79,0,.18.03.34.08.51-.19.02-.37.04-.53.04h-8.02c-.53,0-1.17-.06-1.6-.11v1.42c.4-.03.94-.06,1.58-.06h8.19c-.22,1.54-.96,3.78-2.1,5.22-1.34,1.71-3.14,3.07-6.24,3.86l1.09,1.2c2.93-.93,4.83-2.4,6.29-4.29,1.28-1.63,2.05-4.22,2.4-5.9.01-.07.03-.13.04-.19.19.07.39.11.6.11.99,0,1.79-.8,1.79-1.79s-.8-1.79-1.79-1.79Zm0,2.85c-.59,0-1.06-.46-1.06-1.06s.46-1.06,1.06-1.06,1.06.48,1.06,1.06-.48,1.06-1.06,1.06Z"/><path class="bq" d="m165.26,435.81c-.5.02-1.07.02-1.41.02h-8.59c-.38,0-.8,0-1.42-.03.02.4.02.88.02,1.25v7.89c0,.56-.03,1.73-.03,1.94h1.36c0-.12,0-.51,0-.91h8.72c0,.43-.02.81-.03.91h1.39c-.02-.18-.03-1.42-.03-1.94v-7.89c0-.4,0-.85.03-1.23Zm-1.36,1.28v7.62h-8.74v-7.62h8.74Z"/><path class="bq" d="m190.9,440.21c-1.31.8-3.66,1.92-5.78,2.43l.62,1.18c1.8-.55,3.66-1.39,5.01-2.12v4.91c0,.48-.05,1.15-.08,1.39h1.49c-.06-.24-.08-.91-.08-1.39v-5.7c1.44-.95,2.81-2.12,3.62-2.99l-.99-.96c-.83,1.01-2.3,2.34-3.81,3.25Z"/><path class="bq" d="m219.49,435.97c0,1.79,0,4.98-.48,6.45-.48,1.55-1.42,2.98-2.78,3.94l1.22.8c1.34-1.12,2.37-2.67,2.85-4.38.43-1.6.48-5.04.48-6.82,0-.46.06-.96.08-1.14h-1.47c.08.34.11.69.11,1.15Z"/><path class="bq" d="m229.65,441.23c-1.22,1.81-3.18,3.26-4.67,3.94v-9.22c0-.61.06-1.07.08-1.2h-1.47c0,.13.08.58.08,1.18v9.58c0,.32-.05.66-.11.9l.85.7c.13-.08.29-.22.56-.35,1.86-.93,4.06-2.56,5.46-4.43l-.77-1.1Z"/><path class="bq" d="m203.04,439.92c-.91,0-1.74-.05-2.24-.1v1.57c.51-.03,1.36-.06,2.24-.06h8.78c.7,0,1.38.05,1.71.06v-1.57c-.37.03-.93.1-1.73.1h-8.77Z"/><path class="bq" d="m179.44,435.58h-8.02c-.53,0-1.17-.05-1.6-.11v1.42c.4-.02.94-.05,1.58-.05h8.19c-.22,1.54-.96,3.76-2.1,5.22-1.34,1.71-3.14,3.07-6.24,3.84l1.09,1.2c2.93-.91,4.83-2.4,6.29-4.27,1.28-1.65,2.05-4.22,2.4-5.9.06-.32.13-.58.24-.8l-.98-.62c-.3.06-.62.08-.86.08Z"/><path class="bo" d="m172.36,224h39.27c2.41,0,4.36,1.88,4.36,4.19v55.51c0,2.31-1.95,4.19-4.36,4.19h-39.27c-2.41,0-4.36-1.88-4.36-4.19v-55.51c0-2.31,1.95-4.19,4.36-4.19Z"/><path class="bu" d="m211.64,226c1.3,0,2.36.98,2.36,2.19v55.51c0,1.21-1.06,2.19-2.36,2.19h-39.27c-1.3,0-2.36-.98-2.36-2.19v-55.51c0-1.21,1.06-2.19,2.36-2.19h39.27m0-2h-39.27c-2.41,0-4.36,1.88-4.36,4.19v55.51c0,2.31,1.95,4.19,4.36,4.19h39.27c2.41,0,4.36-1.88,4.36-4.19v-55.51c0-2.31-1.95-4.19-4.36-4.19h0Z"/><path class="bk" d="m186,283.89h12"/><path class="bo" d="m156.15,236.09h19.7c2.29,0,4.15,1.82,4.15,4.07v43.76c0,2.25-1.86,4.07-4.15,4.07h-19.7c-2.29,0-4.15-1.82-4.15-4.07v-43.76c0-2.25,1.86-4.07,4.15-4.07Z"/><path class="bw" d="m175.85,237.09c1.74,0,3.15,1.38,3.15,3.07v43.76c0,1.69-1.41,3.07-3.15,3.07h-19.7c-1.74,0-3.15-1.38-3.15-3.07v-43.76c0-1.69,1.41-3.07,3.15-3.07h19.7m0-1h-19.7c-2.29,0-4.15,1.82-4.15,4.07v43.76c0,2.25,1.86,4.07,4.15,4.07h19.7c2.29,0,4.15-1.82,4.15-4.07v-43.76c0-2.25-1.86-4.07-4.15-4.07h0Z"/><path class="ax" d="m160.5,239.97h7"/><path class="ax" d="m170.5,239.97h1"/><path class="bk" d="m162,285.01h8"/><path class="bq" d="m162.63,308.67c.45,0,1.01.03,1.49.06v-1.33c-.46.05-1.04.08-1.49.08h-5.55c-.51,0-.99-.03-1.44-.08v1.33c.42-.03.93-.06,1.47-.06h5.52Z"/><path class="bq" d="m155.12,311.5c-.5,0-.96-.03-1.39-.08v1.33c.43-.03.91-.05,1.39-.05h4.79c-.04,1.51-.21,2.86-.92,3.97-.64,1.02-1.79,1.94-3.02,2.46l1.18.86c1.36-.69,2.56-1.84,3.15-2.91.63-1.2.88-2.66.94-4.38h4.34c.4,0,.91.02,1.26.05v-1.33c-.4.05-.93.08-1.26.08h-10.46Z"/><path class="bq" d="m165.86,305.82c.45.59.98,1.5,1.33,2.19l.85-.38c-.3-.59-.91-1.58-1.34-2.18l-.83.37Z"/><path class="bq" d="m166.24,308.29c-.32-.64-.9-1.62-1.3-2.19l-.85.37c.43.61.98,1.57,1.28,2.21l.86-.38Z"/><path class="bq" d="m181.94,308.82c-.34-.64-.91-1.62-1.31-2.19l-.85.37c.43.61.98,1.57,1.28,2.21l.88-.38Z"/><path class="bq" d="m198.19,307.57l-1.07-1.01c-1.1,1.34-2.7,2.72-4.38,3.78-1.78,1.1-4.21,2.24-6.98,2.98l.62,1.25c2.22-.69,4.41-1.65,6.1-2.6v5.92c0,.59-.05,1.39-.1,1.7h1.58c-.08-.3-.11-1.1-.11-1.7v-6.78c1.63-1.07,3.11-2.27,4.34-3.54Z"/><path class="bq" d="m209.61,313.8c1.13-1.44,2.13-3.32,2.69-4.71.08-.21.29-.56.38-.69l-.8-.62c-.26.08-.69.13-1.2.13h-6.18c-.5,0-1.41-.06-1.62-.1v1.44c.18-.02,1.04-.08,1.62-.08h6.24c-.42,1.33-1.58,3.23-2.67,4.46-1.65,1.82-4,3.74-6.59,4.74l1.02,1.07c2.37-1.08,4.52-2.82,6.25-4.68,1.63,1.48,3.33,3.35,4.4,4.77l1.1-.98c-1.03-1.26-2.99-3.32-4.66-4.76Z"/><path class="bq" d="m181.54,306.35c.45.59.98,1.5,1.33,2.19l.85-.38c-.29-.59-.91-1.58-1.33-2.18l-.85.37Z"/><path class="bq" d="m171.86,314.29c-.54,1.33-1.46,3.01-2.46,4.35l1.36.58c.9-1.3,1.78-2.94,2.37-4.4.67-1.65,1.23-4.02,1.44-5.01.08-.34.19-.82.3-1.17l-1.42-.29c-.22,1.84-.88,4.27-1.58,5.94Z"/><path class="bq" d="m178.72,308.18l-1.3.43c.69,1.2,1.68,3.42,2.32,5.07.66,1.7,1.41,3.87,1.81,5.49l1.42-.45c-.43-1.46-1.28-3.9-1.92-5.49-.69-1.68-1.71-3.89-2.34-5.06Z"/><path class="bo" d="m192,522.55s7.28,14.44,12.14,19.29c4.85,4.85,9.71,0,9.71,0,0,0,4.85-4.85,0-9.71-3.28-3.28-19.29-12.13-19.29-12.13l-2.55,2.55Z"/><path class="cc" d="m194.89,522.48c5.09,2.86,15.23,8.76,17.53,11.07,3.23,3.23.56,6.31,0,6.88-.02.02-1.66,1.57-3.62,1.57-1.14,0-2.2-.51-3.26-1.57-3.75-3.75-9.22-13.9-11.1-17.5l.45-.45m-.35-2.48l-2.55,2.55s7.28,14.44,12.14,19.29c1.62,1.62,3.24,2.16,4.67,2.16,2.88,0,5.03-2.16,5.03-2.16,0,0,4.85-4.85,0-9.71-3.28-3.28-19.29-12.13-19.29-12.13h0Z"/><path class="bo" d="m178,532c14.36,0,26-11.64,26-26s-11.64-26-26-26-26,11.64-26,26,11.64,26,26,26Z"/><path class="bz" d="m178,482c13.23,0,24,10.77,24,24s-10.77,24-24,24-24-10.77-24-24,10.77-24,24-24m0-2c-14.36,0-26,11.64-26,26s11.64,26,26,26,26-11.64,26-26-11.64-26-26-26h0Z"/><path class="at" d="m161.92,497.62c3.02-5.8,9.08-9.75,16.08-9.75"/><path class="at" d="m159.87,506c0-1.87.28-3.66.8-5.36"/><path class="bq" d="m224.08,566.22c-.88-.88-2.94-2.54-4.06-3.3l-.93.98c1.2.78,3.18,2.51,4,3.34l.99-1.02Z"/><path class="bq" d="m208.48,564.74c-.7-.51-2.54-1.74-3.49-2.27l-.72,1.09c.94.53,2.69,1.7,3.44,2.27l.77-1.09Z"/><path class="bq" d="m150,566.02v-.82c.46.32.94.61,1.39.85.16-.32.42-.77.64-1.04-1.68-.74-3.47-2.18-4.61-3.78h-1.1c-.8,1.36-2.35,2.8-4,3.68v-.27h-1.74v-3.44h-1.1v3.44h-2.27v1.14h2.14c-.49,2.2-1.49,4.73-2.48,6.08.19.27.48.72.62,1.04.74-1.04,1.44-2.72,1.98-4.47v7.48h1.1v-7.55c.48.8,1.05,1.81,1.3,2.34l.67-.94c-.29-.44-1.51-2.21-1.97-2.77v-1.2h1.74v-.14c.1.16.18.32.24.46.46-.25.91-.53,1.34-.84v.76h2.43v1.47h-3.47v4.14h3.24c-.42,1.34-1.53,2.57-4.34,3.47.21.19.56.64.66.9,2.75-.9,4.04-2.24,4.61-3.69.96,2.01,2.3,2.96,4.21,3.69.13-.35.43-.75.7-1.01-1.86-.62-3.14-1.43-4.06-3.36h3.16v-4.14h-3.6v-1.47h2.56Zm-6.08,4.62v-2.19h2.42v1.36c0,.28-.01.56-.04.83h-2.38Zm6.02-2.19v2.19h-2.53c.02-.27.04-.53.04-.8v-1.39h2.5Zm-3.02-6.16c.68.94,1.71,1.91,2.8,2.7h-5.46c1.09-.83,2.05-1.8,2.66-2.7Z"/><path class="bq" d="m213.33,565.2c-.37-.77-1.09-1.9-1.49-2.5l-.9.38c.53.72,1.07,1.68,1.47,2.53l.91-.42Z"/><path class="bq" d="m192.08,566.22c-.88-.88-2.94-2.54-4.06-3.3l-.93.98c1.2.78,3.18,2.51,4,3.34l.99-1.02Z"/><path class="bq" d="m206.1,568.22c-.69-.5-2.56-1.65-3.5-2.16l-.72,1.1c.98.5,2.7,1.62,3.49,2.18l.74-1.12Z"/><path class="bq" d="m207.97,572.05c-1.63.93-3.62,1.55-5.38,1.86l.75,1.31c1.47-.3,3.68-1.06,5.3-2,2.56-1.49,4.77-3.57,6.16-5.71l-.78-1.31c-1.3,2.26-3.39,4.34-6.05,5.86Z"/><path class="bq" d="m193.02,571.31c-1.52.94-3.6,1.92-6.38,2.34l.83,1.31c2.67-.5,4.69-1.49,6.3-2.5,2.42-1.52,4.27-3.7,5.36-5.68l-.77-1.38c-.93,1.98-2.86,4.35-5.34,5.9Z"/><path class="bq" d="m213.04,562.34c.53.7,1.09,1.63,1.5,2.46l.91-.42c-.38-.74-1.1-1.89-1.54-2.45l-.88.4Z"/><path class="bq" d="m230.37,565.41c-.93,1.98-2.86,4.35-5.34,5.9-1.52.94-3.6,1.92-6.38,2.34l.83,1.31c2.67-.5,4.69-1.49,6.3-2.5,2.42-1.52,4.27-3.7,5.36-5.68l-.77-1.38Z"/><path class="bq" d="m165.51,571.83c.37.3.71.59.95.84l.85-.74c-.9-.85-2.67-2.08-4.08-2.91l-.8.64c.59.35,1.24.78,1.85,1.23-1.82.04-3.64.07-5.34.09,1.62-1.01,3.37-2.26,4.75-3.38l-1.09-.59c-.89.81-2.14,1.77-3.42,2.65-.41-.32-.94-.67-1.5-1,.84-.61,1.79-1.4,2.59-2.14l-.53-.26h6.34v1.97h1.18v-3.01h-6.34v-1.54h6.19v-1.06h-6.19v-1.42h-1.18v1.42h-6.14v1.06h6.14v1.54h-6.19v3.01h1.14v-1.97h4.19c-.58.62-1.37,1.32-2.09,1.89-.28-.15-.56-.3-.82-.43l-.8.69c1.03.52,2.25,1.28,3.05,1.91-.38.25-.76.48-1.12.7-1.39.01-2.65.02-3.67.02l.06,1.1c1.68-.02,3.88-.07,6.26-.13v3.96h1.2v-3.99c1.5-.04,3.05-.09,4.57-.13Z"/><path class="bq" d="m177.01,572.66v-7.38h3.82c.46,0,.98.03,1.38.06v-1.39c-.38.05-.88.08-1.38.08h-8.78c-.34,0-.93-.03-1.34-.08v1.39c.4-.03,1.02-.06,1.34-.06h3.6v7.38h-4.51c-.45,0-.94-.03-1.41-.1v1.44c.48-.03.98-.05,1.41-.05h10.58c.3,0,.9,0,1.31.05v-1.44c-.4.03-.83.1-1.31.1h-4.7Z"/><path class="bq" d="m153.09,574.91c.29.21.74.62.94.85,1.39-.69,3.04-1.79,4.11-2.9l-1.14-.42c-.96.94-2.5,1.87-3.92,2.46Z"/><path class="bq" d="m162.48,573.09c1.41.72,3.14,1.84,3.97,2.62l.99-.72c-.91-.78-2.67-1.86-4.05-2.53l-.91.62Z"/><path class="bq" d="m56.79,2.72h12.44v11.95c0,.38-.13.5-.52.52-.43.02-1.89.04-3.35-.04.22.4.49,1.06.58,1.46,1.78,0,3.04-.02,3.76-.25.7-.22.94-.68.94-1.66V2.72h2.21v-1.37h-16.06v1.37Z"/><path class="bq" d="m80.91,11.34l.83-1.13c-.4-.4-1.89-1.8-2.67-2.49.87-1.18,1.63-2.47,2.15-3.81l-.76-.5-.23.05h-1.49V.09h-1.31v3.37h-2.63v1.24h4.74c-1.19,2.4-3.34,4.69-5.39,5.96.22.23.56.86.68,1.21.86-.58,1.75-1.34,2.59-2.2v6.97h1.31v-7.71c.78.79,1.74,1.84,2.18,2.42Z"/><path class="bq" d="m66.03,12.08v-6.71h-7.38v8.15h1.31v-1.44h6.07Zm-1.35-5.44v4.14h-4.72v-4.14h4.72Z"/><polygon class="bq" points="166.5 2.95 179.03 2.95 179.03 5.11 180.4 5.11 180.4 1.71 173.45 1.71 173.45 .09 172.06 .09 172.06 1.71 165.17 1.71 165.17 5.11 166.5 5.11 166.5 2.95"/><path class="bq" d="m195.98,11.17c.92-.58,2.07-1.4,2.94-2.17l-.95-.79c-.61.61-1.59,1.41-2.45,2-.35-.8-.64-1.66-.87-2.55h3.75V3.62h-4.06c.48-.59.96-1.25,1.31-1.89l-.83-.58-.23.09h-3.55c.19-.3.39-.61.56-.9l-1.31-.23c-.74,1.4-2.09,3.17-3.94,4.48.32.16.76.5.99.77.19-.14.35-.31.52-.46v2.74h3.43c-1.31.81-3,1.51-4.53,1.96.25.23.61.7.79.94,1.09-.39,2.3-.93,3.41-1.55.29.25.55.52.78.79-1.23.94-3.25,1.94-4.84,2.38.27.25.56.65.7.94,1.53-.57,3.4-1.58,4.71-2.55.22.36.39.72.53,1.07-1.45,1.41-4.12,2.88-6.26,3.55.27.25.58.68.74,1.01,1.95-.73,4.24-2.06,5.83-3.39.17,1.12-.08,2.06-.58,2.42-.32.27-.65.31-1.1.31-.36,0-.9-.02-1.48-.07.22.34.32.85.32,1.17.52.04,1.03.04,1.4.04.72-.02,1.21-.13,1.73-.56,1.48-1.1,1.45-5.13-1.57-7.65.4-.26.79-.52,1.13-.8h.47c.86,3.61,2.42,6.67,4.83,8.21.2-.34.61-.81.9-1.06-1.33-.76-2.4-2.05-3.23-3.63Zm1.1-4.51h-3.46v-2.03h3.46v2.03Zm-3.24-4.37c-.3.48-.65.96-.99,1.33h-3.67c.4-.44.77-.88,1.11-1.33h3.54Zm-4.75,2.34h3.31v2.03h-3.31v-2.03Z"/><rect class="bq" x="146.85" y=".94" width="7.94" height="1.15"/><path class="bq" d="m158.18,3.78h-2.19v9.4h6.52V3.78h-3.12c.12-.52.25-1.1.39-1.67h3.11V.94h-7.42v1.17h2.94c-.05.54-.13,1.14-.22,1.67Zm3.14,8.33h-4.19v-1.76h4.19v1.76Zm0-2.77h-4.19v-1.75h4.19v1.75Zm0-2.79h-4.19v-1.71h4.19v1.71Z"/><path class="bq" d="m117.16,5.78h-5.27v10.76h1.28v-3.89h4v2.41c0,.23-.07.31-.32.32-.25.02-1.08.02-1.98-.02.18.34.38.85.45,1.19,1.22,0,2.02,0,2.5-.22.5-.22.67-.58.67-1.26V5.78h-1.31Zm0,1.17v1.76h-4v-1.76h4Zm-4,4.64v-1.82h4v1.82h-4Z"/><path class="bq" d="m124.24.47l-1.44-.47c-.4.87-1.09,2.05-1.7,2.92h-5.4l.89-.32c-.34-.7-1.1-1.76-1.8-2.54l-1.24.47c.64.72,1.3,1.71,1.63,2.39h-4.42v1.26h16.09v-1.26h-4.21c.53-.75,1.1-1.63,1.6-2.45Z"/><path class="bq" d="m137.25,2.29c-4.41,0-7.88,3.4-7.88,7.31,0,2.99,1.6,4.82,3.22,4.82s3.1-1.91,4.19-5.6c.49-1.69.82-3.5,1.05-5.18,3.06.27,4.83,2.5,4.83,5.2,0,3.11-2.27,4.84-4.57,5.36-.43.09-.97.16-1.55.22l.83,1.33c4.28-.56,6.77-3.08,6.77-6.84s-2.68-6.62-6.89-6.62Zm-4.63,10.48c-.81,0-1.84-1.01-1.84-3.28,0-2.45,2.11-5.41,5.56-5.84-.2,1.65-.54,3.37-.99,4.85-.92,3.04-1.89,4.27-2.74,4.27Z"/><path class="bq" d="m160.89,13.7l-.99.61c.85.7,1.87,1.71,2.36,2.36l1.04-.68c-.54-.67-1.58-1.64-2.41-2.29Z"/><path class="bq" d="m155.23,15.58v-.95h-2.34v-1.13h2.03v-.85h-2.03v-1.12h2.03v-.83h-2.03v-1.1h2.09v-.94h-1.99c.19-.4.39-.83.6-1.24l-1.06-.32c-.12.43-.34,1.04-.55,1.57h-1.38c.19-.45.37-.91.51-1.37l-1.03-.25c-.35,1.21-.91,2.39-1.58,3.31.05-.86.07-1.69.07-2.41v-.92h6.12v-3.73h-7.31v4.64c0,2.27-.09,5.44-1.06,7.74.27.13.77.5.99.72.66-1.51.99-3.44,1.14-5.27.18.16.35.34.45.45.17-.2.33-.43.49-.66v5.5h1.03v-.85h4.82c-.16.09-.32.18-.48.25.27.23.68.59.88.83,1.08-.54,2.38-1.49,3.19-2.38l-1.15-.65c-.51.64-1.48,1.4-2.43,1.94Zm-1.75-11.26v1.73h-4.91v-1.73h4.91Zm-1.55,8.33h-1.53v-1.12h1.53v1.12Zm0-1.94h-1.53v-1.1h1.53v1.1Zm-1.53,2.79h1.53v1.13h-1.53v-1.13Z"/><rect class="bq" x="120.66" y="5.94" width="1.28" height="7.4"/><path class="bq" d="m97.42.36c-1.19,2.84-3.17,5.58-5.26,7.33.27.32.68,1.03.83,1.35.81-.73,1.62-1.6,2.38-2.57v10.15h1.33V4.59c.78-1.21,1.48-2.49,2.03-3.8l-1.31-.43Z"/><path class="bq" d="m124.31,14.96c0,.25-.09.32-.38.34-.31.02-1.28.02-2.38-.02.2.36.41.94.49,1.3,1.4,0,2.3-.04,2.86-.23.56-.22.74-.59.74-1.39V5.4h-1.33v9.56Z"/><path class="bq" d="m177.66,5.11l-.9-.56-.25.05h-5.32c.3-.35.59-.71.84-1.06l-1.46-.29c-.92,1.4-2.66,2.97-5.17,4.09.31.2.72.65.92.97,1.08-.53,2.01-1.14,2.83-1.78.7.78,1.52,1.48,2.45,2.1-2.19,1.12-4.75,1.93-7.16,2.37.25.31.54.85.67,1.19.9-.19,1.82-.43,2.74-.71v5.12h1.33v-.59h7.29v.58h1.39v-5.31c.79.2,1.6.37,2.43.5.2-.4.56-.97.86-1.28-2.56-.33-4.98-.98-7.01-1.92,1.45-.98,2.68-2.13,3.54-3.48Zm-7.56.61s.03-.03.04-.04h5.45c-.73.83-1.66,1.59-2.74,2.25-1.1-.64-2.03-1.38-2.75-2.21Zm-.94,9.14v-2.63h7.29v2.63h-7.29Zm7.91-3.78h-8.02c1.32-.47,2.6-1.03,3.78-1.7,1.29.7,2.71,1.27,4.24,1.7Z"/><path class="bq" d="m89.57,15.35h-1.35c-.41,0-.49-.07-.49-.5v-3.76h2.12V1.01h-7.56v10.08h1.42c-.29,2.11-1.02,3.67-3.55,4.52.27.25.65.74.79,1.04,2.85-1.08,3.73-2.96,4.07-5.56h1.46v3.76c0,1.28.29,1.66,1.55,1.66h1.69c1.03,0,1.37-.56,1.49-2.83-.34-.09-.86-.27-1.12-.49-.05,1.91-.13,2.16-.54,2.16Zm-6.01-13.23h5v1.87h-5v-1.87Zm0,2.95h5v1.91h-5v-1.91Zm0,2.97h5v1.93h-5v-1.93Z"/><path class="bq" d="m106.65,15.1h-3.55c-1.01,0-1.19-.22-1.19-1.22v-5.27c2.25-1.19,4.67-2.55,6.37-3.95l-.99-1.15c-1.31,1.2-3.37,2.59-5.38,3.72V.52h-1.37v13.34c0,1.98.58,2.52,2.47,2.52h3.71c1.87,0,2.27-1.03,2.48-3.98-.4-.09-.95-.34-1.3-.59-.13,2.63-.27,3.29-1.26,3.29Z"/><path class="bq" d="m187.24.52l-1.26-.34c-.86,2.77-2.29,5.54-3.87,7.34.23.34.59,1.06.72,1.39.6-.7,1.17-1.54,1.71-2.44v10.16h1.28V4.08c.54-1.15,1.03-2.36,1.42-3.56Z"/><path class="bq" d="m91.5,118.69h1.48l-4.27-11.64h-1.45l-4.27,11.64h1.48l1.17-3.3h4.71l1.17,3.3Zm-5.43-4.55l1.86-5.25h.09l1.86,5.25h-3.82Z"/><polygon class="bq" points="52.96 107.81 64.1 107.81 64.1 109.73 65.32 109.73 65.32 106.7 59.14 106.7 59.14 105.26 57.91 105.26 57.91 106.7 51.78 106.7 51.78 109.73 52.96 109.73 52.96 107.81"/><path class="bq" d="m45.57,108.54h-1.95v8.35h5.79v-8.35h-2.77c.11-.46.22-.97.34-1.49h2.76v-1.04h-6.59v1.04h2.61c-.05.48-.12,1.01-.2,1.49Zm2.79,7.41h-3.73v-1.57h3.73v1.57Zm0-2.46h-3.73v-1.55h3.73v1.55Zm0-2.48h-3.73v-1.52h3.73v1.52Z"/><rect class="bq" x="35.49" y="106.02" width="7.06" height="1.02"/><path class="bq" d="m71.4,105.65l-1.12-.3c-.77,2.46-2.03,4.93-3.44,6.53.21.3.53.94.64,1.23.53-.63,1.04-1.36,1.52-2.16v9.03h1.14v-11.16c.48-1.02.91-2.1,1.26-3.16Z"/><path class="bq" d="m47.97,117.36l-.88.54c.75.62,1.66,1.52,2.1,2.1l.93-.61c-.48-.59-1.41-1.46-2.14-2.03Z"/><path class="bq" d="m62.88,109.73l-.8-.5-.22.05h-4.73c.27-.31.52-.63.75-.94l-1.3-.26c-.82,1.25-2.37,2.64-4.59,3.63.27.18.64.58.82.86.96-.47,1.78-1.01,2.51-1.58.62.7,1.35,1.32,2.18,1.87-1.94,1-4.22,1.72-6.37,2.11.22.27.48.75.59,1.06.8-.17,1.62-.38,2.43-.63v4.55h1.18v-.53h6.48v.51h1.23v-4.72c.71.18,1.42.33,2.16.45.18-.35.5-.86.77-1.14-2.28-.29-4.43-.87-6.23-1.7,1.28-.87,2.38-1.9,3.15-3.1Zm-6.72.55s.03-.02.04-.03h4.84c-.65.74-1.48,1.41-2.44,2-.98-.57-1.81-1.22-2.45-1.97Zm-.83,8.13v-2.34h6.48v2.34h-6.48Zm7.04-3.36h-7.13c1.17-.42,2.31-.92,3.36-1.51,1.15.62,2.41,1.13,3.77,1.51Z"/><path class="bq" d="m42.95,119.03v-.83h-2.08v-1.01h1.81v-.75h-1.81v-.99h1.81v-.74h-1.81v-.98h1.86v-.83h-1.77c.17-.35.35-.74.53-1.1l-.94-.29c-.11.38-.3.93-.49,1.39h-1.23c.17-.4.33-.81.45-1.22l-.91-.22c-.31,1.08-.81,2.12-1.41,2.94.04-.77.06-1.5.06-2.14v-.82h5.44v-3.31h-6.5v4.13c0,2.02-.08,4.83-.94,6.88.24.11.69.45.88.64.59-1.34.88-3.06,1.01-4.68.16.14.31.3.4.4.15-.18.29-.38.43-.59v4.89h.91v-.75h4.26c-.14.08-.27.16-.41.22.24.21.61.53.78.74.96-.48,2.11-1.33,2.83-2.11l-1.02-.58c-.45.57-1.32,1.24-2.16,1.71Zm-1.55-10v1.54h-4.37v-1.54h4.37Zm-1.38,7.41h-1.36v-.99h1.36v.99Zm0-1.73h-1.36v-.98h1.36v.98Zm-1.36,2.48h1.36v1.01h-1.36v-1.01Z"/><path class="bq" d="m79.17,115.11c.82-.51,1.84-1.24,2.61-1.93l-.85-.7c-.54.54-1.42,1.25-2.18,1.77-.31-.72-.57-1.48-.77-2.27h3.33v-3.58h-3.61c.43-.52.85-1.11,1.16-1.68l-.74-.51-.21.08h-3.15c.17-.27.35-.54.5-.8l-1.17-.21c-.66,1.25-1.86,2.82-3.5,3.98.29.14.67.45.88.69.17-.13.31-.27.46-.41v2.44h3.05c-1.16.72-2.67,1.34-4.02,1.74.22.21.54.62.7.83.97-.35,2.04-.83,3.03-1.38.26.22.49.46.7.7-1.1.84-2.89,1.72-4.3,2.12.24.22.5.58.62.83,1.36-.51,3.02-1.4,4.18-2.27.2.32.35.64.47.95-1.29,1.25-3.66,2.56-5.57,3.16.24.22.51.61.66.9,1.73-.65,3.77-1.83,5.18-3.01.15,1-.07,1.83-.51,2.15-.29.24-.58.27-.98.27-.32,0-.8-.02-1.31-.06.19.3.29.75.29,1.04.46.03.91.03,1.25.03.64-.02,1.07-.11,1.54-.5,1.32-.98,1.29-4.56-1.4-6.8.36-.23.7-.46,1-.71h.41c.76,3.21,2.15,5.93,4.3,7.3.18-.3.54-.72.8-.94-1.18-.68-2.13-1.82-2.87-3.22Zm.98-4.01h-3.07v-1.81h3.07v1.81Zm-2.88-3.89c-.26.42-.57.85-.88,1.18h-3.26c.36-.39.69-.78.99-1.18h3.15Zm-4.22,2.08h2.94v1.81h-2.94v-1.81Z"/><path class="av" d="m87.99,61.21c16.18-20.04-21.47-37.58-36.87-22.59-13.43,0-17.89,14.84-10.32,22.59-2.44,0-4.41,1.9-4.41,4.25s1.45,9.85,5.81,9.85c3.21,10.25,8.92,19.69,22.19,19.69s18.98-9.45,22.19-19.69c4.3,0,5.81-7.55,5.81-9.85s-1.97-4.25-4.41-4.25Z"/><path class="bt" d="m60.19,70.26v-.52c.01-1.78.17-3.19.48-4.25.32-1.06.79-1.91,1.4-2.56.61-.65,1.35-1.24,2.21-1.77.64-.41,1.22-.83,1.73-1.26.51-.44.91-.92,1.22-1.45.3-.54.45-1.14.45-1.8,0-.7-.17-1.31-.51-1.84-.34-.53-.81-.93-1.39-1.22-.57-.28-1.21-.43-1.9-.43s-1.31.15-1.92.44c-.6.28-1.1.71-1.48,1.28-.38.56-.59,1.25-.62,2.09h-6.36c.05-2.03.55-3.7,1.5-5.02.95-1.33,2.2-2.32,3.76-2.97,1.56-.66,3.28-.99,5.16-.99,2.07,0,3.9.33,5.49,1,1.59.66,2.84,1.62,3.74,2.88.9,1.26,1.36,2.78,1.36,4.55,0,1.19-.2,2.24-.61,3.17-.39.91-.95,1.73-1.67,2.44-.72.7-1.56,1.33-2.54,1.9-.82.48-1.5.97-2.03,1.49-.52.52-.91,1.12-1.17,1.8-.25.68-.38,1.52-.39,2.51v.52h-5.91Zm3.09,9.74c-1.04,0-1.93-.35-2.67-1.07-.73-.72-1.09-1.58-1.08-2.59-.01-.99.35-1.85,1.08-2.56.74-.71,1.63-1.07,2.67-1.07s1.86.35,2.6,1.07c.75.71,1.13,1.56,1.14,2.56-.01.67-.19,1.28-.55,1.84-.34.55-.8.99-1.36,1.32-.56.32-1.17.49-1.84.49Z"/><rect class="bm" x="32" y="32" width="64" height="64"/><path class="bq" d="m174.02,108.54h-1.95v8.35h5.79v-8.35h-2.77c.11-.46.22-.97.35-1.49h2.76v-1.04h-6.59v1.04h2.61c-.05.48-.12,1.01-.2,1.49Zm2.79,7.41h-3.73v-1.57h3.73v1.57Zm0-2.46h-3.73v-1.55h3.73v1.55Zm0-2.48h-3.73v-1.52h3.73v1.52Z"/><polygon class="bq" points="181.42 107.81 192.55 107.81 192.55 109.73 193.77 109.73 193.77 106.7 187.59 106.7 187.59 105.26 186.36 105.26 186.36 106.7 180.23 106.7 180.23 109.73 181.42 109.73 181.42 107.81"/><path class="bq" d="m220.15,114.04c-.24-.42-.54-.75-.9-.98-.36-.23-.72-.35-1.07-.38v-.11c.33-.09.64-.23.93-.42.29-.19.52-.45.69-.77.18-.33.27-.74.27-1.24,0-.57-.13-1.09-.39-1.55-.26-.47-.65-.84-1.18-1.12-.53-.28-1.2-.42-2.01-.42h-4.07v11.64h4.2c.92,0,1.66-.14,2.23-.41.57-.27.99-.64,1.26-1.11.27-.47.4-.99.4-1.57,0-.61-.12-1.13-.36-1.56Zm-6.32-5.74h2.66c.77,0,1.34.18,1.69.54.36.36.53.79.53,1.3,0,.41-.1.77-.31,1.07-.2.3-.47.54-.82.7-.34.17-.72.25-1.15.25h-2.61v-3.86Zm4.76,8.6c-.39.36-1.04.53-1.96.53h-2.8v-4.05h2.86c.51,0,.95.1,1.32.31.37.2.66.47.86.81.2.33.3.7.3,1.09,0,.51-.2.95-.58,1.31Z"/><path class="bq" d="m176.43,117.36l-.88.54c.75.62,1.66,1.52,2.1,2.1l.93-.61c-.48-.59-1.41-1.46-2.14-2.03Z"/><rect class="bq" x="163.95" y="106.02" width="7.06" height="1.02"/><path class="bq" d="m191.34,109.73l-.8-.5-.22.05h-4.73c.27-.31.52-.63.75-.94l-1.3-.26c-.82,1.25-2.37,2.64-4.59,3.63.27.18.64.58.82.86.96-.47,1.78-1.01,2.51-1.58.62.7,1.35,1.32,2.18,1.87-1.94,1-4.22,1.72-6.37,2.11.22.27.48.75.59,1.06.8-.17,1.62-.38,2.43-.63v4.55h1.18v-.53h6.48v.51h1.23v-4.72c.71.18,1.42.33,2.16.45.18-.35.5-.86.77-1.14-2.28-.29-4.43-.87-6.23-1.7,1.28-.87,2.38-1.9,3.15-3.1Zm-6.72.55s.03-.02.04-.03h4.84c-.65.74-1.48,1.41-2.44,2-.98-.57-1.81-1.22-2.45-1.97Zm-.83,8.13v-2.34h6.48v2.34h-6.48Zm7.04-3.36h-7.13c1.17-.42,2.31-.92,3.36-1.51,1.15.62,2.41,1.13,3.77,1.51Z"/><path class="bq" d="m199.85,105.65l-1.12-.3c-.77,2.46-2.03,4.93-3.44,6.53.21.3.53.94.64,1.23.53-.63,1.04-1.36,1.52-2.16v9.03h1.14v-11.16c.48-1.02.91-2.1,1.26-3.16Z"/><path class="bq" d="m171.4,119.03v-.83h-2.08v-1.01h1.81v-.75h-1.81v-.99h1.81v-.74h-1.81v-.98h1.86v-.83h-1.77c.17-.35.35-.74.53-1.1l-.94-.29c-.11.38-.3.93-.49,1.39h-1.23c.17-.4.33-.81.45-1.22l-.91-.22c-.31,1.08-.81,2.12-1.41,2.94.04-.77.06-1.5.06-2.14v-.82h5.44v-3.31h-6.5v4.13c0,2.02-.08,4.83-.94,6.88.24.11.69.45.88.64.59-1.34.88-3.06,1.01-4.68.16.14.31.3.4.4.15-.18.29-.38.43-.59v4.89h.91v-.75h4.26c-.14.08-.27.16-.41.22.24.21.61.53.78.74.96-.48,2.11-1.33,2.83-2.11l-1.02-.58c-.45.57-1.32,1.24-2.16,1.71Zm-1.55-10v1.54h-4.37v-1.54h4.37Zm-1.38,7.41h-1.36v-.99h1.36v.99Zm0-1.73h-1.36v-.98h1.36v.98Zm-1.36,2.48h1.36v1.01h-1.36v-1.01Z"/><path class="bq" d="m207.62,115.11c.82-.51,1.84-1.24,2.61-1.93l-.85-.7c-.54.54-1.42,1.25-2.18,1.77-.31-.72-.57-1.48-.77-2.27h3.33v-3.58h-3.61c.43-.52.85-1.11,1.16-1.68l-.74-.51-.21.08h-3.15c.17-.27.35-.54.5-.8l-1.17-.21c-.66,1.25-1.86,2.82-3.5,3.98.29.14.67.45.88.69.17-.13.31-.27.46-.41v2.44h3.05c-1.16.72-2.67,1.34-4.02,1.74.22.21.54.62.7.83.97-.35,2.04-.83,3.03-1.38.26.22.49.46.7.7-1.1.84-2.89,1.72-4.3,2.12.24.22.5.58.62.83,1.36-.51,3.02-1.4,4.18-2.27.2.32.35.64.47.95-1.29,1.25-3.66,2.56-5.57,3.16.24.22.51.61.66.9,1.73-.65,3.77-1.83,5.18-3.01.15,1-.07,1.83-.51,2.15-.29.24-.58.27-.98.27-.32,0-.8-.02-1.31-.06.19.3.29.75.29,1.04.46.03.91.03,1.25.03.64-.02,1.07-.11,1.54-.5,1.32-.98,1.29-4.56-1.4-6.8.36-.23.7-.46,1-.71h.41c.76,3.21,2.15,5.93,4.3,7.3.18-.3.54-.72.8-.94-1.18-.68-2.13-1.83-2.87-3.22Zm.98-4.01h-3.07v-1.81h3.07v1.81Zm-2.88-3.89c-.26.42-.57.85-.88,1.18h-3.26c.36-.39.69-.78.99-1.18h3.15Zm-4.22,2.08h2.94v1.81h-2.94v-1.81Z"/><path class="au" d="m215.99,61.21c16.18-20.04-21.47-37.58-36.87-22.59-13.43,0-17.89,14.84-10.32,22.59-2.44,0-4.41,1.9-4.41,4.25s1.45,9.85,5.81,9.85c3.21,10.25,8.92,19.69,22.19,19.69s18.98-9.45,22.19-19.69c4.3,0,5.81-7.55,5.81-9.85s-1.97-4.25-4.41-4.25Z"/><path class="bx" d="m188.19,70.26v-.52c.01-1.78.17-3.19.48-4.25.32-1.06.79-1.91,1.4-2.56.61-.65,1.35-1.24,2.21-1.77.64-.41,1.22-.83,1.73-1.26.51-.44.91-.92,1.22-1.45.3-.54.45-1.14.45-1.8,0-.7-.17-1.31-.51-1.84-.34-.53-.81-.93-1.39-1.22-.57-.28-1.21-.43-1.9-.43s-1.31.15-1.92.44c-.6.28-1.1.71-1.48,1.28-.38.56-.59,1.25-.62,2.09h-6.36c.05-2.03.55-3.7,1.5-5.02.95-1.33,2.2-2.32,3.76-2.97,1.56-.66,3.28-.99,5.16-.99,2.07,0,3.9.33,5.49,1,1.59.66,2.84,1.62,3.74,2.88.9,1.26,1.36,2.78,1.36,4.55,0,1.19-.2,2.24-.61,3.17-.39.91-.95,1.73-1.67,2.44-.72.7-1.56,1.33-2.54,1.9-.82.48-1.5.97-2.03,1.49-.52.52-.91,1.12-1.17,1.8-.25.68-.38,1.52-.39,2.51v.52h-5.91Zm3.09,9.74c-1.04,0-1.93-.35-2.67-1.07-.73-.72-1.09-1.58-1.08-2.59-.01-.99.35-1.85,1.08-2.56.74-.71,1.63-1.07,2.67-1.07s1.86.35,2.6,1.07c.75.71,1.13,1.56,1.14,2.56-.01.67-.19,1.28-.55,1.84-.34.55-.8.99-1.36,1.32-.56.32-1.17.49-1.84.49Z"/><rect class="bm" x="160" y="32" width="64" height="64"/><polygon class="bl" points="120 152 124 144 116 144 120 152"/><path class="cf" d="m122.38,145l-2.38,4.76-2.38-4.76h4.76m1.62-1h0,0Zm0,0h-8l4,8,4-8h0Z"/><polygon class="bl" points="136 152 140 144 132 144 136 152"/><path class="cg" d="m138.38,145l-2.38,4.76-2.38-4.76h4.76m1.62-1h0,0Zm0,0h-8l4,8,4-8h0Z"/><path class="at" d="m104,84c.68,0,1.34.04,2,.12"/><path class="ay" d="m109.71,85.05c6.02,2.3,10.29,8.13,10.29,14.95v40.1"/><line class="at" x1="120" y1="142" x2="120" y2="144"/><circle class="bl" cx="100" cy="84" r="4"/><path class="cb" d="m100,81c1.65,0,3,1.35,3,3s-1.35,3-3,3-3-1.35-3-3,1.35-3,3-3m0-1c-2.21,0-4,1.79-4,4s1.79,4,4,4,4-1.79,4-4-1.79-4-4-4h0Z"/><path class="at" d="m152,84c-.68,0-1.34.04-2,.12"/><path class="ay" d="m146.29,85.05c-6.02,2.3-10.29,8.13-10.29,14.95v40.1"/><line class="at" x1="136" y1="142" x2="136" y2="144"/><circle class="bl" cx="156" cy="84" r="4"/><path class="ca" d="m156,81c1.65,0,3,1.35,3,3s-1.35,3-3,3-3-1.35-3-3,1.35-3,3-3m0-1c-2.21,0-4,1.79-4,4s1.79,4,4,4,4-1.79,4-4-1.79-4-4-4h0Z"/><path class="at" d="m37.25,610.83c-.47.47-.94.96-1.38,1.44"/><path class="aw" d="m33.33,615.3c-12.84,16.71-12.43,40.33,1.23,56.6"/><path class="at" d="m35.87,673.38c.45.49.91.97,1.38,1.44"/><circle class="bl" cx="40.49" cy="608" r="4"/><path class="bv" d="m40.49,605c.8,0,1.55.31,2.12.88.57.57.88,1.32.88,2.12s-.31,1.55-.88,2.12c-.57.57-1.32.88-2.12.88s-1.55-.31-2.12-.88c-.57-.57-.88-1.32-.88-2.12s.31-1.55.88-2.12c.57-.57,1.32-.88,2.12-.88m0-1c-1.02,0-2.05.39-2.83,1.17-1.56,1.56-1.56,4.09,0,5.66.78.78,1.8,1.17,2.83,1.17s2.05-.39,2.83-1.17c1.56-1.56,1.56-4.09,0-5.66-.78-.78-1.8-1.17-2.83-1.17h0Z"/><polygon class="bl" points="43 680.4 40.17 671.91 37.25 674.83 34.52 677.57 43 680.4"/><path class="by" d="m39.74,673.76l1.68,5.05-5.05-1.68,1.59-1.59,1.77-1.77m.44-1.85l-2.92,2.92-2.74,2.74,8.49,2.83-2.83-8.49h0Z"/><path class="at" d="m218.75,610.83c.47.47.94.96,1.38,1.44"/><path class="aw" d="m222.67,615.3c12.84,16.71,12.43,40.33-1.23,56.6"/><path class="at" d="m220.13,673.38c-.45.49-.91.97-1.38,1.44"/><circle class="bl" cx="215.51" cy="608" r="4"/><path class="ce" d="m215.51,605c.8,0,1.55.31,2.12.88.57.57.88,1.32.88,2.12s-.31,1.55-.88,2.12c-.57.57-1.32.88-2.12.88s-1.55-.31-2.12-.88c-.57-.57-.88-1.32-.88-2.12s.31-1.55.88-2.12c.57-.57,1.32-.88,2.12-.88m0-1c-1.02,0-2.05.39-2.83,1.17-1.56,1.56-1.56,4.09,0,5.66.78.78,1.8,1.17,2.83,1.17s2.05-.39,2.83-1.17c1.56-1.56,1.56-4.09,0-5.66-.78-.78-1.8-1.17-2.83-1.17h0Z"/><polygon class="bl" points="213.03 680.43 215.86 671.94 218.75 674.83 221.51 677.6 213.03 680.43"/><path class="cd" d="m216.29,673.79l1.74,1.74,1.63,1.63-5.05,1.68,1.68-5.05m-.44-1.85l-2.83,8.49,8.49-2.83-2.77-2.77-2.89-2.89h0Z"/></svg>