<?xml version="1.0" encoding="UTF-8"?><svg id="a" xmlns="http://www.w3.org/2000/svg" xmlns:xlink="http://www.w3.org/1999/xlink" viewBox="0 0 256 244"><defs><style>.e{stroke:#f6cd51;stroke-linecap:round;stroke-linejoin:round;}.e,.f{fill:none;}.f{opacity:.05;}.f,.g,.h,.i,.j,.k{stroke-width:0px;}.g{fill:#1b1320;}.h{fill:#cebfd9;}.i{fill:url(#b);}.j{fill:url(#c);}.k{fill:url(#d);}</style><linearGradient id="b" x1="86.97" y1="243.23" x2="257.56" y2="144.74" gradientUnits="userSpaceOnUse"><stop offset="0" stop-color="#f6cd51"/><stop offset="1" stop-color="#f48e2a"/></linearGradient><linearGradient id="c" x1="39.82" y1="20" x2="39.82" y2="216.95" xlink:href="#b"/><linearGradient id="d" x1="256.76" y1="90.71" x2="86.22" y2="-7.76" xlink:href="#b"/></defs><circle class="g" cx="127.86" cy="118.04" r="113.17"/><path class="e" d="m127.86,118.04L71.28,20.03"/><line class="e" x1="71.28" y1="216.05" x2="127.86" y2="118.04"/><line class="e" x1="127.98" y1="117.98" x2="241.15" y2="117.98"/><path class="i" d="m241.03,117.94h-.04c-.96,0-1.75.75-1.8,1.72-1.97,34.38-20.37,67.09-49.4,85.51-26.14,17.23-59.66,21.59-89.07,12.08l3.14-7.41-32.59,6.18,18.24,27.71,3.09-7.29c75.81,19.75,152.01-37.32,150.27-116.73-.02-.98-.83-1.77-1.83-1.77Z"/><path class="j" d="m71.26,20l-33.12,1.94,4.75,6.29C-12.05,83.63-.68,179.04,68.82,216.74c.86.47,1.94.15,2.42-.69,0-.02.02-.03.03-.05.48-.84.21-1.9-.6-2.42C26.72,185.5,8.49,126.09,30.65,78.88c5.9-13,14.44-24.6,24.81-33.99l4.85,6.43,10.95-31.32Z"/><path class="k" d="m248.04,89.26c-3.45-12.31-8.76-24.01-15.84-34.62C197.6,1.52,125.91-15.64,71.86,17.54c-.83.51-1.1,1.6-.61,2.45l.03.05c.48.84,1.54,1.14,2.4.7,34.58-17.66,77.61-15.3,109.68,6.45,22.25,14.87,38.38,38.53,44.01,64.63l-7.98.99,21.65,25.14,14.88-29.65-7.87.97Z"/><path class="h" d="m47.12,103.25h5.73c.14,0,.25-.11.25-.25v-1.36c0-.14-.11-.25-.25-.25h-5.75l-.04-3.41c.41-.13.48-.42.5-.55,0-.07-.02-.14-.06-.19-.04-.05-.11-.08-.18-.09l-1.92-.08c-.07,0-.13.02-.18.07-.05.05-.08.11-.08.18l.04,4.07h-8.53c-.14,0-.25.11-.25.25v1.36c0,.14.11.25.25.25h7.49c-2.03,2.9-5.28,5.83-8.39,7.55-.07.04-.12.11-.13.2,0,.08.03.16.09.22.34.28.71.69.93,1.03.07.11.22.14.33.08,3.05-1.8,6.15-4.62,8.25-7.48l.07,7.88c.02.26-.17.44-.48.48-.35.04-1.92.04-3.23.02-.1.02-.17.04-.21.11-.05.07-.06.16-.02.24.15.35.29.89.34,1.24.02.12.12.21.24.21.37,0,.72,0,1.05,0,1.92,0,3.09-.1,3.71-.72.35-.35.51-.86.49-1.58l-.08-9.47Z"/><path class="h" d="m68.77,101.8c1.36,0,2.47-1.12,2.47-2.49s-1.11-2.49-2.47-2.49-2.51,1.12-2.51,2.49,1.13,2.49,2.51,2.49Zm0-3.84c.72,0,1.31.61,1.31,1.35,0,.64-.5,1.33-1.31,1.33-.73,0-1.35-.61-1.35-1.33s.61-1.35,1.35-1.35Z"/><path class="h" d="m54.67,108.66c.09.09.24.1.34.02.18-.15.29-.38.29-.61,0-.02,0-.04,0-.06.77-.83,1.99-2.21,3.08-3.44.86-.97,1.63-1.85,2.03-2.28.25-.24.48-.43.65-.43.16,0,.37.13.69.43,2.18,2.02,6.33,6.7,9.23,10.72.04.06.11.09.18.1,0,0,.02,0,.03,0,.06,0,.12-.02.17-.07l1.2-1.1c.1-.09.11-.23.03-.34-2.94-3.82-7.15-8.52-9.79-10.94-1.27-1.13-2.43-1.08-3.53.02-.46.49-1.24,1.35-2.12,2.31-1.31,1.44-2.8,3.07-3.71,4.03-.09.1-.09.25,0,.35l1.24,1.28Z"/><path class="h" d="m76.61,114.64c.05.08.13.12.21.12.03,0,.06,0,.09-.02.21-.08.35-.26.42-.43,6.43-1.71,10.63-4.55,13.21-8.94.06-.11.04-.24-.06-.32-.48-.39-.83-.72-1.02-.96-.05-.07-.13-.11-.22-.1-.08,0-.16.05-.2.13-2.2,3.9-5.74,6.45-11.11,8.01v-13.4c.51-.13.59-.5.6-.63,0-.07-.02-.14-.06-.19-.04-.05-.11-.08-.18-.09l-2.06-.1c-.07,0-.13.02-.18.07-.05.05-.08.11-.08.18v14.67l-.2.32c-.05.08-.05.18,0,.26l.84,1.4Z"/><path class="h" d="m109.73,104.74h-16.7c-.07,0-.14.03-.18.08s-.07.12-.07.19l.12,1.8c0,.07.04.13.09.18.04.04.1.05.16.05.01,0,.03,0,.04,0,.29-.04.56-.18.73-.38h15.82c.14,0,.25-.11.25-.25v-1.42c0-.14-.11-.25-.25-.25Z"/><path class="h" d="m62.97,125.02c-.06-.05-.14-.07-.22-.06-.08.02-.14.07-.17.14-2.52,5.68-6.67,9.23-13.45,11.51-.08.03-.13.08-.16.16-.02.08-.01.16.04.22l1.12,1.56c.05.07.12.1.2.1.03,0,.07,0,.1-.02.21-.09.36-.32.39-.55,6.49-2.35,10.89-6.25,13.44-11.89.05-.11.01-.24-.09-.31-.33-.22-.91-.62-1.2-.86Z"/><path class="h" d="m49.98,121.99l-.6,1.16c-.04.07-.04.15,0,.21.03.07.09.12.16.14,1.75.49,3.82,1.27,5.25,2,.04.02.08.03.11.03.09,0,.17-.05.22-.13l.66-1.22c.03-.06.04-.13.02-.19s-.07-.12-.13-.15c-1.36-.68-3.58-1.49-5.41-1.98-.11-.03-.23.02-.29.13Z"/><path class="h" d="m52.79,130.38s.06,0,.08-.01c.06-.02.11-.07.14-.13l.6-1.26c.06-.12,0-.27-.12-.33-1.39-.66-3.67-1.43-5.43-1.82-.11-.02-.23.03-.28.13l-.6,1.22c-.03.07-.03.15,0,.22s.1.12.17.14c1.69.38,3.98,1.17,5.33,1.82.03.02.07.03.11.03Z"/><path class="h" d="m78.24,126.3h-9.68c-.14,0-.25.11-.25.25v1.1c0,.14.11.25.25.25h8.23v3.38h-7.93c-.14,0-.25.11-.25.25v1.12c0,.14.11.25.25.25h7.93v3.56h-8.73c-.14,0-.25.11-.25.25v1.12c0,.14.11.25.25.25h8.73v.63c0,.14.11.25.25.25h1.2c.14,0,.25-.11.25-.25v-12.16c0-.14-.11-.25-.25-.25Z"/><path class="h" d="m88.85,127.17s.03,0,.05,0c.07-.01.13-.06.16-.12l.76-1.26c.07-.11.04-.26-.07-.33-1.66-1.15-4.2-2.17-6.03-2.75-.11-.03-.24.01-.3.12l-.64,1.2c-.03.06-.04.14-.01.21.03.07.08.12.15.14,1.78.61,4.23,1.65,5.78,2.75.04.03.09.05.14.05Z"/><path class="h" d="m97.95,124.89c-.06-.05-.14-.07-.22-.05-.08.02-.14.07-.17.14-2.4,5.54-7.13,9.43-14.07,11.58-.08.02-.14.08-.16.16-.03.08-.01.16.03.22l1.08,1.56c.05.07.13.11.21.11.04,0,.08-.01.12-.03.17-.09.3-.28.37-.48,6.7-2.27,11.6-6.44,14.18-12.09.05-.12,0-.26-.11-.33-.39-.21-.85-.46-1.26-.79Z"/><path class="h" d="m138.34,57.85h6.05c.14,0,.25-.11.25-.25v-1.34c0-.14-.11-.25-.25-.25h-15.78c-.14,0-.25.11-.25.25v1.34c0,.14.11.25.25.25h7.36c-.57,3.97-2.31,6.49-5.61,8.13-.08.04-.13.11-.14.2,0,.09.03.17.1.22.33.25.83.7,1.04.94.05.06.12.09.19.09.04,0,.08,0,.11-.03,3.5-1.76,5.62-4.87,6.29-9.25.19-.06.33-.16.39-.3Z"/><path class="h" d="m130.35,52.38h11.1c.14,0,.25-.11.25-.25v-1.08c.48.66.93,1.38,1.18,1.94.03.07.09.12.16.14.02,0,.04,0,.07,0,.05,0,.1-.01.14-.04l.8-.54c.1-.07.14-.2.08-.32-.5-1.03-1.45-2.39-2.24-3.22-.09-.09-.22-.1-.32-.03l-.78.54c-.06.04-.1.11-.11.18s.02.15.07.2c.18.18.37.4.56.64h-10.96c-.14,0-.25.11-.25.25v1.34c0,.14.11.25.25.25Z"/><path class="h" d="m145.29,52.26c.03.06.09.11.15.13.02,0,.05.01.07.01.05,0,.09-.01.13-.04l.82-.5c.11-.07.15-.21.09-.33-.51-.99-1.5-2.36-2.3-3.2-.08-.09-.22-.1-.32-.03l-.76.52c-.06.04-.1.11-.11.18,0,.07.02.15.07.2.76.8,1.75,2.2,2.16,3.06Z"/><path class="h" d="m147.41,59.39s.1.06.16.06c.01,0,.03,0,.04,0,.29-.04.56-.19.73-.38h15.82c.14,0,.25-.11.25-.25v-1.42c0-.14-.11-.25-.25-.25h-16.7c-.07,0-.14.03-.18.08-.05.05-.07.12-.07.19l.12,1.8c0,.07.04.13.09.18Z"/><path class="h" d="m182,52.89l-1.08-.54c-.05-.03-.12-.03-.18-.02l-.25.07h-6.2c.3-.61.64-1.32.88-1.88.38-.03.54-.24.61-.42.02-.07.02-.14-.02-.2s-.09-.11-.16-.12l-1.9-.44c-.13-.03-.25.04-.29.16-1.19,3.4-3.69,6.98-6.22,8.91-.07.05-.1.13-.1.21,0,.08.05.16.11.2.33.22.87.65,1.11.87.09.08.23.09.33,0,1.67-1.37,3.3-3.3,4.6-5.44h6.3c-.51,1.64-1.22,3.19-2.17,4.72-1.51-.79-2.96-1.44-4.33-1.93-.11-.04-.23,0-.29.1l-.76,1.12c-.04.06-.05.14-.03.22.02.07.08.13.15.16,1.33.5,2.68,1.13,4.13,1.93-1.88,2.39-4.17,4.23-6.81,5.46-.08.04-.14.12-.14.21,0,.09.04.18.12.23.35.21.83.67,1.02.96.05.07.13.11.21.11.04,0,.07,0,.11-.02,2.91-1.41,5.26-3.36,7.18-5.97,1.01.63,1.81,1.17,2.36,1.6.06.04.12.06.2.05.07-.01.13-.05.17-.11l.84-1.32c.07-.11.04-.26-.06-.34-.64-.47-1.5-1.02-2.38-1.54,1.11-1.77,2.08-3.96,2.8-6.35.15-.08.25-.21.28-.35.02-.11-.03-.22-.13-.27Z"/><path class="h" d="m138.15,73.2l-.76.98c-.05.06-.06.14-.05.21.02.07.07.14.14.17,1.32.61,2.84,1.59,3.55,2.27.05.05.11.07.17.07,0,0,.01,0,.02,0,.07,0,.14-.04.18-.1l.78-1.1c.07-.1.06-.24-.03-.33-.84-.78-2.5-1.72-3.71-2.25-.11-.04-.23-.02-.3.08Z"/><path class="h" d="m140.25,82.25s.02,0,.03,0c.07,0,.13-.05.17-.11l.76-1.12c.07-.11.05-.25-.05-.33-.81-.67-2.45-1.58-3.81-2.1-.11-.04-.23,0-.29.09l-.72,1.02c-.04.06-.06.14-.04.21.02.07.07.13.14.16,1.32.57,2.89,1.48,3.64,2.12.05.04.1.06.16.06Z"/><path class="h" d="m155.17,78.91h-5.73v-3.26c1.79-.33,3.24-.68,4.31-1.04.27,0,.39,0,.54-.15.05-.05.08-.12.07-.19,0-.07-.04-.14-.09-.18l-1.28-1.08c-.07-.06-.17-.07-.25-.04-1.95.73-5.75,1.48-10.16,2.01-.08,0-.15.06-.19.13s-.04.16,0,.23c.16.29.34.76.37,1.05.02.14.13.23.28.22,1.37-.16,2.91-.37,4.56-.63v2.94h-5.65c-.14,0-.25.11-.25.25v1.3c0,.14.11.25.25.25h5.65v2.98h-4.11c-.14,0-.25.11-.25.25v7.82c0,.14.11.25.25.25h1.32c.14,0,.25-.11.25-.25v-.65h7.06v.51c0,.14.11.25.25.25h1.36c.14,0,.25-.11.25-.25v-7.68c0-.14-.11-.25-.25-.25h-4.29v-2.98h5.73c.14,0,.25-.11.25-.25v-1.3c0-.14-.11-.25-.25-.25Zm-10.11,10.46v-3.94h7.06v3.94h-7.06Z"/><path class="h" d="m140.91,83.8c-.06-.05-.14-.07-.21-.05-.08.02-.14.07-.17.14-1.13,2.36-2.61,5.06-3.6,6.57-.07.11-.05.26.06.34l1.38.98s.09.05.14.05c.02,0,.03,0,.05,0,.07-.01.12-.05.16-.11.06-.1.1-.23.1-.36,0-.1-.02-.19-.06-.28.93-1.52,2.22-3.96,3.24-6.14.05-.1.02-.23-.07-.3l-1.02-.84Z"/><path class="h" d="m173.6,74.36h-14.78c-.14,0-.25.11-.25.25v7.36c0,3.03-.29,6.44-2.4,8.82-.05.06-.07.13-.06.2.01.07.05.14.12.18.27.16.77.6.95.84.04.06.11.09.19.1h0c.07,0,.14-.03.19-.08,1.36-1.51,2.21-3.57,2.59-6.3h4.79v5.83c0,.14.11.25.25.25h1.3c.14,0,.25-.11.25-.25v-5.83h5.26v4.09c0,.17-.01.21-.02.23-.08.08-.7.08-1.49.08-.53,0-1.18-.02-1.85-.04h-.18c-.12,0-.17.04-.22.12-.05.08-.05.17,0,.25.19.33.4.91.45,1.22.02.12.12.21.24.21,2.55.03,3.83.04,4.46-.58.32-.31.45-.76.45-1.49v-15.2c0-.14-.11-.25-.25-.25Zm-8.65,6.58v3h-4.62c.04-.62.06-1.27.06-1.97v-1.03h4.56Zm-4.56-1.76v-3.04h4.56v3.04h-4.56Zm6.36,0v-3.04h5.26v3.04h-5.26Zm5.26,1.76v3h-5.26v-3h5.26Z"/><path class="h" d="m137.02,173.32c-.08-.06-.19-.07-.28-.01l-1,.62c-.07.04-.11.12-.12.2,0,.08.03.16.09.21,1.01.82,2.12,1.92,2.64,2.6.05.06.12.1.2.1.05,0,.1-.01.14-.04l1.04-.7c.06-.04.1-.1.11-.17s0-.14-.05-.19c-.57-.73-1.76-1.85-2.77-2.61Z"/><path class="h" d="m130.93,160.58h3.12c-.07.51-.15,1.06-.23,1.56h-2.17c-.14,0-.25.11-.25.25v10.56c0,.14.11.25.25.25h7.16c.14,0,.25-.11.25-.25v-10.56c0-.14-.11-.25-.25-.25h-3.28c.1-.53.21-1.08.29-1.56h3.51c.14,0,.25-.11.25-.25v-1.2c0-.14-.11-.25-.25-.25h-8.4c-.14,0-.25.11-.25.25v1.2c0,.14.11.25.25.25Zm2.13,4.72v-1.58h4.32v1.58h-4.32Zm4.32,1.54v1.6h-4.32v-1.6h4.32Zm0,3.14v1.62h-4.32v-1.62h4.32Z"/><rect class="h" x="120.76" y="158.88" width="9.66" height="1.66" rx=".25" ry=".25"/><path class="h" d="m133.46,173.25c-.11-.05-.23-.03-.31.07-.52.64-1.5,1.41-2.52,1.99v-.77c0-.14-.11-.25-.25-.25h-2.35v-.86h1.97c.14,0,.25-.11.25-.25v-.9c0-.14-.11-.25-.25-.25h-1.97v-.82h1.97c.14,0,.25-.11.25-.25v-.88c0-.14-.11-.25-.25-.25h-1.97v-.82h2.19c.14,0,.25-.11.25-.25v-.96c0-.14-.11-.25-.25-.25h-1.98c.12-.24.22-.47.3-.67.22-.04.38-.14.44-.3.03-.06.02-.13,0-.2-.03-.06-.08-.11-.14-.13l-.49-.17h1.53c.14,0,.25-.11.25-.25v-4.14c0-.14-.11-.25-.25-.25h-8.14c-.14,0-.25.11-.25.25v5.22c0,2.73-.14,6.19-1.2,8.72-.05.13,0,.27.13.33.24.1.71.46.92.67.06.06.14.09.22.07.08-.01.15-.07.18-.15.59-1.37,1-3.15,1.21-5.31l.08.08c.05.05.13.07.19.08.07,0,.14-.03.18-.09.09-.1.17-.21.26-.32v5.5c0,.14.11.25.25.25h1.04c.14,0,.25-.11.25-.25v-.71h4.59s-.04.07-.05.12c-.01.08.02.17.08.22.31.26.7.62.87.83.05.06.12.09.19.09.04,0,.08,0,.11-.03,1.26-.64,2.66-1.68,3.38-2.51.21-.04.34-.11.43-.22.04-.06.06-.13.04-.21-.02-.07-.06-.13-.13-.17l-1.28-.64Zm-10.35-4.12c.03-.69.05-1.43.05-2.23v-.83h1.28c-.34,1.11-.81,2.19-1.32,3.06Zm3.45,4.3v.86h-1.34v-.86h1.34Zm-1.34-3.6v-.82h1.34v.82h-1.34Zm1.34,1.38v.82h-1.34v-.82h1.34Zm.08-3.66h-1.08c.1-.24.2-.5.29-.76.21-.05.37-.17.43-.35.02-.06.02-.13-.02-.19-.03-.06-.08-.1-.15-.12l-.17-.05h1.23c-.15.45-.34.99-.54,1.48Zm-3.49-3.02v-1.58h5.26v1.58h-5.26Z"/><path class="h" d="m159.79,169.73c-2.76-.36-5.36-1.07-7.55-2.07,1.56-1.09,2.78-2.27,3.65-3.53.12-.05.23-.12.3-.22.04-.06.06-.13.05-.2-.01-.07-.06-.13-.12-.17l-1-.6c-.06-.04-.14-.04-.2-.03l-.22.07h-5.77c.14-.18.28-.35.4-.52.4-.07.49-.31.51-.46.02-.13-.07-.26-.21-.28l-.14-.02h7.67v2.09c0,.14.11.25.25.25h1.36c.14,0,.25-.11.25-.25v-3.6c0-.14-.11-.25-.25-.25h-7.49v-1.22c.31-.1.38-.33.4-.43,0-.07,0-.14-.05-.19-.04-.05-.11-.09-.18-.09l-1.78-.12c-.07-.01-.14.02-.19.07s-.08.11-.08.18v1.81h-7.37c-.14,0-.25.11-.25.25v3.6c0,.14.11.25.25.25h1.3c.14,0,.25-.11.25-.25v-2.09h4.02c-1.19,1.73-3.24,3.35-5.64,4.44-.08.04-.14.12-.15.21,0,.09.04.18.12.23.28.18.66.59.84.87.07.1.21.14.32.09,1.14-.56,2.2-1.22,3.16-1.98.69.77,1.52,1.5,2.48,2.17-2.3,1.15-5.04,2.07-7.78,2.58-.09.02-.16.08-.19.16-.03.08-.01.18.05.25.22.25.5.79.61,1.1.04.12.16.19.29.16.83-.17,1.75-.41,2.88-.75v5.49c0,.14.11.25.25.25h1.3c.14,0,.25-.11.25-.25v-.45h8v.43c0,.14.11.25.25.25h1.38c.14,0,.25-.11.25-.25v-5.74c.87.21,1.71.39,2.57.53.1.01.21-.04.26-.13.21-.39.55-.93.82-1.2.07-.07.09-.17.06-.26-.03-.09-.11-.15-.2-.17Zm-12.43.52c1.14-.46,2.18-.95,3.1-1.46,1.06.56,2.19,1.05,3.38,1.46h-6.47Zm5.83-5.66c-.73.76-1.64,1.48-2.72,2.16-1.11-.67-2.02-1.4-2.72-2.16h5.44Zm1.21,7.32v2.7h-8v-2.7h8Z"/><path class="h" d="m180.27,165.33h-3.65c.4-.85.8-1.97,1.09-2.82.17-.04.4-.12.47-.38.02-.07,0-.14-.03-.2-.02-.03-.05-.06-.08-.08h1.34c.14,0,.25-.11.25-.25v-1.18c0-.14-.11-.25-.25-.25h-4.67v-1.44c.27-.1.36-.29.38-.44.01-.07,0-.14-.05-.19-.04-.05-.11-.09-.18-.09l-1.74-.1c-.07,0-.14.02-.19.07-.05.05-.08.11-.08.18v2.01h-4.39c-.14,0-.25.11-.25.25v1.18c0,.14.11.25.25.25h1.81-.03c-.07.02-.13.07-.17.13-.03.06-.04.14-.02.21.34.97.64,2.27.72,3.15h-3.26c-.14,0-.25.11-.25.25v1.18c0,.14.11.25.25.25h.36l-.3.08c-.5.14-1,.28-1.49.41v-3.65h2.19c.14,0,.25-.11.25-.25v-1.26c0-.14-.11-.25-.25-.25h-2.19v-3.35c.17-.05.36-.17.4-.45,0-.07-.01-.14-.06-.19-.04-.05-.11-.08-.18-.09l-1.68-.1c-.06,0-.14.02-.19.07-.05.05-.08.11-.08.18v3.93h-2.59c-.14,0-.25.11-.25.25v1.26c0,.14.11.25.25.25h2.59v4.12c-1.07.28-2.06.52-2.85.71-.07.02-.12.06-.16.12s-.04.13-.02.2l.48,1.56c.02.07.07.12.13.15.06.03.14.03.2,0,.08-.04.29-.13.38-.35.53-.15,1.15-.33,1.83-.53v5.23c0,.05,0,.11.02.12-.1.06-.67.06-1.17.06-.36,0-.75,0-1.19-.02-.08,0-.17.04-.22.12s-.05.17,0,.25c.18.35.36.88.39,1.21.01.13.12.22.25.22,2.64,0,3.71-.07,3.71-1.93v-5.78l1.38-.42v1.17c0,.14.11.25.25.25h2.49c-.53,1.11-1.03,2.11-1.45,2.85-.04.07-.04.14-.01.21s.08.12.15.15l1.18.4c.12.04.24-.01.3-.12l.18-.34c.56.18,1.18.38,1.8.61-1.31.61-3.03,1.03-5.21,1.28-.09,0-.17.07-.2.15-.04.08-.02.18.03.25.19.24.42.69.54,1.04.04.11.14.18.27.17,2.91-.4,5.01-1.07,6.59-2.09,1.64.71,3.06,1.47,4.01,2.16.04.03.1.05.15.05.07,0,.14-.03.19-.09l.88-1.06c.04-.05.06-.12.06-.19,0-.07-.05-.13-.11-.17-.89-.62-2.16-1.29-3.69-1.94.84-.9,1.45-1.99,1.85-3.33h2.29c.14,0,.25-.11.25-.25v-1.18c0-.14-.11-.25-.25-.25h-7.06c.24-.49.45-.98.65-1.41v-.03c.18-.01.31-.08.41-.18h6.21c.14,0,.25-.11.25-.25v-1.18c0-.14-.11-.25-.25-.25Zm-11.77,1.82c0-.05-.03-.1-.07-.14h3.32c-.22.52-.47,1.06-.72,1.62h-2.67l.1-.03c.12-.04.19-.15.17-.27l-.14-1.18Zm7.36,3.16c-.39,1.08-.96,1.94-1.71,2.62-.88-.32-1.84-.64-2.79-.93.28-.54.56-1.12.84-1.7h3.65Zm-4.04-8.46h4.19c-.25.97-.71,2.38-1.13,3.31-.02.05-.03.12-.01.17h-2.36c.06-.05.09-.13.09-.21-.06-.83-.38-2.16-.78-3.27Z"/><path class="h" d="m184.38,171.05h13.5c.14,0,.25-.11.25-.25v-6.6c0-.14-.11-.25-.25-.25h-6.01v-2h7.53c.14,0,.25-.11.25-.25v-1.28c0-.14-.11-.25-.25-.25h-7.53v-1.45c.3-.1.4-.29.42-.45,0-.07-.01-.14-.05-.19-.04-.05-.11-.09-.18-.09l-1.76-.1c-.05,0-.13.02-.19.07-.05.05-.08.11-.08.18v5.81h-5.65c-.14,0-.25.11-.25.25v6.6c0,.14.11.25.25.25Zm1.55-1.76v-3.58h10.34v3.58h-10.34Z"/><path class="h" d="m200.79,175.99c-.64-1.28-2.1-3.08-3.26-4.3-.07-.08-.19-.1-.28-.05l-1.2.54c-.07.03-.13.1-.14.18-.02.08,0,.16.06.22,1.31,1.42,2.59,3.17,3.12,4.26.03.06.08.11.14.13.03,0,.05.01.08.01.04,0,.08,0,.11-.03l1.26-.62c.06-.03.11-.08.13-.14.02-.06.02-.13-.01-.19Z"/><path class="h" d="m193.33,172.05l-1.24.28c-.08.02-.14.07-.17.14-.03.07-.03.15,0,.22.58,1.16,1.19,2.82,1.42,3.86.01.07.05.12.11.16.04.03.09.04.13.04.02,0,.04,0,.06,0l1.3-.32c.13-.03.21-.16.18-.3-.23-1.09-.93-2.76-1.52-3.94-.05-.1-.17-.16-.28-.13Z"/><path class="h" d="m186.05,172.16l-1.26-.36c-.12-.04-.26.03-.3.15-.62,1.65-1.7,3.18-2.81,3.99-.07.05-.11.13-.1.22,0,.09.06.16.13.2l1.22.64s.08.03.12.03c.06,0,.11-.02.16-.05,1.18-.94,2.31-2.62,3.02-4.49.03-.07.02-.14,0-.2s-.09-.11-.16-.13Z"/><path class="h" d="m189.32,172.19l-1.28.1c-.07,0-.14.04-.18.1-.04.06-.06.13-.05.2.25,1.26.44,2.92.44,3.93,0,.07.03.14.08.19.05.04.1.06.17.06.01,0,.02,0,.03,0l1.36-.18c.13-.02.22-.13.22-.25-.02-.91-.21-2.56-.53-3.95-.03-.12-.12-.21-.26-.19Z"/><rect class="f" width="256" height="244"/></svg>