<?xml version="1.0" encoding="UTF-8"?><svg id="a" xmlns="http://www.w3.org/2000/svg" xmlns:xlink="http://www.w3.org/1999/xlink" viewBox="0 0 526 300"><defs><style>.as,.at,.au,.av,.aw,.ax,.ay,.az,.ba,.bb,.bc,.bd,.be,.bf,.bg,.bh,.bi{stroke-linejoin:round;}.as,.at,.au,.av,.aw,.ax,.ay,.az,.ba,.bb,.bc,.bd,.be,.bf,.bg,.bh,.bi,.bj{stroke-linecap:round;}.as,.bc,.bd{stroke:#0d0910;}.as,.bk{fill:#0d0910;}.at,.bl,.au,.av,.aw,.ax,.ba,.bb,.be,.bm,.bj{fill:none;}.at,.ax,.be,.bm,.bj{stroke:#f6cd51;}.bl,.bn,.bo,.bk,.bp,.bq,.br,.bs,.bt,.bu,.bv,.bw,.bx,.by,.bz,.ca,.cb,.cc,.cd,.ce,.cf,.cg,.ch,.ci,.cj,.ck,.cl,.cm,.cn,.co,.cp,.cq,.cr,.cs{stroke-width:0px;}.au{stroke:url(#ae);}.av{stroke:url(#ag);}.av,.aw{stroke-width:.5px;}.aw{stroke:url(#af);}.ax{stroke-dasharray:0 0 3.73 3.73;}.ay{fill:url(#d);stroke:url(#e);}.ay,.az,.bf,.bg,.bh,.bi{stroke-width:2px;}.az{fill:url(#g);stroke:url(#h);}.ct{opacity:.5;}.ba{stroke:url(#y);}.bb{stroke:url(#o);}.bc{fill:url(#b);}.bd{fill:url(#c);}.cu{clip-path:url(#aa);}.be{stroke-dasharray:0 0 4 4;}.bf{stroke:url(#l);}.bf,.bg,.bh,.bi,.bn{fill:#281d30;}.bg{stroke:url(#k);}.bh{stroke:url(#n);}.bi{stroke:url(#m);}.bo{fill:#1b1320;}.bp{fill:#cebfd9;}.bq{fill:#f6cd51;}.br{fill:#e97a0c;}.bs{fill:url(#ah);}.bt{fill:url(#ao);}.bu{fill:url(#ab);}.bv{fill:url(#aj);}.bw{fill:url(#ap);}.bx{fill:url(#ai);}.by{fill:url(#ad);}.bz{fill:url(#an);}.ca{fill:url(#am);}.cb{fill:url(#ac);}.cc{fill:url(#ar);}.cd{fill:url(#aq);}.ce{fill:url(#ak);}.cf{fill:url(#al);}.cg{fill:url(#v);}.ch{fill:url(#z);}.ci{fill:url(#x);}.cj{fill:url(#w);}.ck{fill:url(#u);}.cl{fill:url(#t);}.cm{fill:url(#f);}.cn{fill:url(#s);}.co{fill:url(#j);}.cp{fill:url(#q);}.cq{fill:url(#r);}.cr{fill:url(#i);}.cs{fill:url(#p);}</style><linearGradient id="b" x1="461" y1="81.85" x2="461" y2="127.5" gradientUnits="userSpaceOnUse"><stop offset="0" stop-color="#f6cd51"/><stop offset="1" stop-color="#f48e2a"/></linearGradient><linearGradient id="c" x1="460.97" y1="94.5" x2="460.97" y2="46" gradientTransform="translate(0 302) scale(1 -1)" xlink:href="#b"/><linearGradient id="d" x1="65.4" y1="237" x2="65.4" y2="175" gradientTransform="translate(0 302) scale(1 -1)" gradientUnits="userSpaceOnUse"><stop offset="0" stop-color="#0d0a10"/><stop offset="1" stop-color="#281d30"/></linearGradient><linearGradient id="e" x1="65.4" y1="237.33" x2="65.4" y2="174.67" gradientTransform="translate(0 302) scale(1 -1)" xlink:href="#b"/><linearGradient id="f" x1="65" y1="222" x2="65" y2="190" gradientTransform="translate(0 302) scale(1 -1)" xlink:href="#b"/><linearGradient id="g" y1="109" y2="47" xlink:href="#d"/><linearGradient id="h" x1="65.4" y1="109.33" x2="65.4" y2="46.67" gradientTransform="translate(0 302) scale(1 -1)" xlink:href="#b"/><linearGradient id="i" x1="65" y1="94" x2="65" y2="62" gradientTransform="translate(0 302) scale(1 -1)" xlink:href="#b"/><linearGradient id="j" x1="263" y1="32" x2="263" y2="300" xlink:href="#b"/><linearGradient id="k" x1="205.75" y1="220.61" x2="205.75" y2="201.39" gradientTransform="translate(0 302) scale(1 -1)" gradientUnits="userSpaceOnUse"><stop offset="0" stop-color="#f6cd51"/><stop offset="1" stop-color="#f48e2a"/></linearGradient><linearGradient id="l" x1="217.25" y1="217.6" x2="217.25" y2="201.4" xlink:href="#k"/><linearGradient id="m" x1="228.75" y1="226.61" x2="228.75" y2="201.39" xlink:href="#k"/><linearGradient id="n" x1="240.25" y1="235.62" x2="240.25" y2="201.38" xlink:href="#k"/><linearGradient id="o" x1="223" y1="248.59" x2="223" y2="226.66" xlink:href="#k"/><linearGradient id="p" x1="205.75" y1="69.26" x2="205.75" y2="75.26" xlink:href="#b"/><linearGradient id="q" x1="217" y1="72.26" x2="217" y2="78.26" xlink:href="#b"/><linearGradient id="r" x1="229" y1="63.26" x2="229" y2="69.26" xlink:href="#b"/><linearGradient id="s" x1="241" y1="54.25" x2="241" y2="60.25" xlink:href="#b"/><linearGradient id="t" x1="309" y1="53" x2="309" y2="101" xlink:href="#b"/><linearGradient id="u" x1="289.5" y1="62" x2="289.5" y2="101" xlink:href="#b"/><linearGradient id="v" x1="227.5" y1="148" x2="227.5" y2="181" xlink:href="#b"/><linearGradient id="w" x1="218.5" y1="133" x2="218.5" y2="166" xlink:href="#b"/><linearGradient id="x" x1="303" y1="166.12" x2="303" y2="181" xlink:href="#b"/><linearGradient id="y" x1="303" y1="157.91" x2="303" y2="120.68" gradientTransform="translate(0 302) scale(1 -1)" xlink:href="#b"/><linearGradient id="z" x1="303" y1="133" x2="303" y2="181" gradientTransform="matrix(1,0,0,1,0,0)" xlink:href="#k"/><clipPath id="aa"><rect class="bl" x="199" y="213" width="48" height="48"/></clipPath><linearGradient id="ab" x1="223" y1="219.75" x2="223" y2="258.75" xlink:href="#b"/><linearGradient id="ac" x1="209.5" y1="252.38" x2="209.5" y2="255.38" xlink:href="#b"/><linearGradient id="ad" x1="235.75" y1="252.38" x2="235.75" y2="255.38" xlink:href="#b"/><linearGradient id="ae" x1="222.81" y1="48.12" x2="222.81" y2="47.12" gradientTransform="translate(0 302) scale(1 -1)" xlink:href="#b"/><linearGradient id="af" x1="223" y1="73.09" x2="223" y2="68.34" xlink:href="#k"/><linearGradient id="ag" x1="218.5" y1="69.31" x2="218.5" y2="65.25" xlink:href="#k"/><linearGradient id="ah" x1="223" y1="223.5" x2="223" y2="250.5" gradientTransform="matrix(1,0,0,1,0,0)" xlink:href="#k"/><linearGradient id="ai" x1="318" y1="243" x2="318" y2="261" xlink:href="#b"/><linearGradient id="aj" x1="298.5" y1="213" x2="298.5" y2="252" xlink:href="#b"/><linearGradient id="ak" x1="107" y1="92" x2="107" y2="100" xlink:href="#b"/><linearGradient id="al" x1="163" y1="92" x2="163" y2="100" xlink:href="#b"/><linearGradient id="am" x1="351" y1="92" x2="351" y2="100" xlink:href="#b"/><linearGradient id="an" x1="419" y1="92" x2="419" y2="100" xlink:href="#b"/><linearGradient id="ao" x1="107" y1="219" x2="107" y2="227" xlink:href="#b"/><linearGradient id="ap" x1="163" y1="219" x2="163" y2="227" xlink:href="#b"/><linearGradient id="aq" x1="351" y1="220" x2="351" y2="228" xlink:href="#b"/><linearGradient id="ar" x1="419" y1="220" x2="419" y2="228" xlink:href="#b"/></defs><path class="bp" d="m396.83,2.1h9.95v9.56c0,.3-.1.4-.42.42-.35.01-1.51.03-2.68-.03.17.32.39.85.46,1.17,1.43,0,2.43-.01,3.01-.2.56-.17.75-.55.75-1.32V2.1h1.77v-1.09h-12.84v1.09Z"/><rect class="bp" x="483.28" y=".68" width="6.35" height=".92"/><path class="bp" d="m465.31,10.94c-.52,0-.76-.39-.76-.88,0-1.45.55-3.93.55-5.37,0-1.17-.66-1.93-2.02-1.93-1.45,0-3.31,1.39-4.43,2.43.02-.28.04-.55.07-.83.22-.35.47-.75.65-1.02l-.42-.49s-.06.02-.09.02c.11-1.01.22-1.82.29-2.17l-1.35-.04c.07.36.06.73.06,1.07,0,.16-.03.68-.08,1.37-.74.12-1.59.21-2.06.23-.36.03-.63.03-.95.01l.13,1.2c.91-.15,2.16-.3,2.81-.39-.03.46-.06.95-.09,1.43-.73,1.13-2.38,3.36-3.19,4.38l.72.98c.7-.96,1.65-2.33,2.35-3.38-.01.21-.02.4-.02.55-.01,1.58-.03,2.3-.03,3.7,0,.23-.01.58-.04.85h1.24c-.01-.27-.06-.63-.07-.88-.06-1.28-.06-2.16-.06-3.47,0-.51.02-1.08.05-1.68,1.32-1.44,3.06-2.8,4.24-2.8.73,0,1.15.36,1.15,1.2,0,1.4-.53,3.76-.53,5.37,0,1.18.63,1.81,1.6,1.81s1.87-.43,2.65-1.21l-.19-1.22c-.73.76-1.5,1.18-2.17,1.18Z"/><path class="bp" d="m475.86,9.94c0-.37.09-.82.2-1.3l-1.07-.1c-.13.6-.22,1.15-.22,1.7,0,1.43,1.24,2.12,3.5,2.12,1.05,0,2.02-.09,2.79-.2l.04-1.15c-.89.17-1.87.27-2.82.27-2.04,0-2.43-.66-2.43-1.34Z"/><path class="bp" d="m404.22,9.59v-5.37h-5.9v6.52h1.05v-1.15h4.85Zm-1.08-4.35v3.31h-3.77v-3.31h3.77Z"/><path class="bp" d="m475.77,6.22c.88-.1,1.77-.16,2.66-.16s1.68.09,2.43.17l.03-1.09c-.78-.09-1.66-.12-2.49-.12-.92,0-1.89.04-2.64.12v1.08Z"/><path class="bp" d="m522.58,8.86c.74-.46,1.65-1.12,2.35-1.74l-.76-.63c-.49.49-1.27,1.13-1.96,1.6-.28-.64-.51-1.33-.69-2.04h3v-3.23h-3.25c.38-.47.77-1,1.05-1.51l-.66-.46-.19.07h-2.84c.16-.24.31-.48.45-.72l-1.05-.19c-.59,1.12-1.67,2.53-3.15,3.59.26.13.6.4.79.62.15-.12.28-.25.42-.37v2.2h2.74c-1.05.65-2.4,1.21-3.62,1.57.2.19.49.56.63.75.87-.31,1.84-.74,2.73-1.24.23.2.44.41.63.63-.99.76-2.6,1.55-3.87,1.9.22.2.45.52.56.75,1.22-.46,2.72-1.26,3.76-2.04.18.28.32.57.42.86-1.16,1.13-3.29,2.3-5.01,2.84.22.2.46.55.59.81,1.56-.59,3.39-1.65,4.67-2.71.13.9-.06,1.65-.46,1.94-.26.22-.52.24-.88.24-.29,0-.72-.01-1.18-.06.17.27.26.68.26.94.42.03.82.03,1.12.03.58-.01.96-.1,1.38-.45,1.19-.88,1.16-4.1-1.26-6.12.32-.21.63-.42.9-.64h.37c.68,2.89,1.94,5.34,3.87,6.57.16-.27.49-.65.72-.85-1.06-.61-1.92-1.64-2.58-2.9Zm.88-3.61h-2.76v-1.63h2.76v1.63Zm-2.59-3.5c-.24.38-.52.77-.79,1.07h-2.93c.32-.35.62-.7.89-1.07h2.84Zm-3.8,1.87h2.65v1.63h-2.65v-1.63Z"/><polygon class="bp" points="499 2.29 509.02 2.29 509.02 4.02 510.12 4.02 510.12 1.3 504.56 1.3 504.56 0 503.45 0 503.45 1.3 497.94 1.3 497.94 4.02 499 4.02 499 2.29"/><path class="bp" d="m476.71,3.59v-1.12c-.88.22-1.83.39-2.77.51.08-.4.15-.76.22-1.07.06-.27.16-.82.24-1.14l-1.37-.12c.03.3,0,.79-.06,1.2-.04.29-.12.74-.22,1.26-.54.04-1.06.07-1.53.07-.53,0-1.05-.03-1.73-.12l.03,1.12c.53.04,1.04.06,1.67.06.41,0,.86-.02,1.33-.05-.12.53-.25,1.07-.37,1.55-.55,2.03-1.56,4.95-2.42,6.45l1.25.42c.76-1.57,1.73-4.55,2.25-6.6.18-.63.33-1.29.47-1.93,1.01-.11,2.06-.28,3-.49Z"/><path class="bp" d="m494.51,10.89l-.79.49c.68.56,1.5,1.37,1.89,1.89l.84-.55c-.43-.53-1.27-1.31-1.93-1.83Z"/><path class="bp" d="m492.34,2.95h-1.75v7.52h5.21V2.95h-2.5c.1-.41.2-.88.31-1.34h2.49v-.94h-5.93v.94h2.35c-.04.43-.11.91-.18,1.34Zm2.51,6.67h-3.36v-1.41h3.36v1.41Zm0-2.22h-3.36v-1.4h3.36v1.4Zm0-2.23h-3.36v-1.37h3.36v1.37Z"/><path class="bp" d="m436.72,12.01h-2.84c-.81,0-.95-.17-.95-.98v-4.22c1.8-.95,3.74-2.04,5.1-3.16l-.79-.92c-1.04.96-2.7,2.07-4.31,2.98V.35h-1.09v10.67c0,1.58.46,2.02,1.97,2.02h2.97c1.5,0,1.81-.82,1.99-3.18-.32-.07-.76-.27-1.04-.48-.1,2.1-.22,2.64-1.01,2.64Z"/><path class="bp" d="m443.04,9.59c0-.68.26-1.3.69-2l-1.12-.26c-.42.85-.71,1.6-.71,2.4,0,1.96,1.73,2.94,4.46,2.95,1.61.01,2.82-.14,3.73-.3l.04-1.15c-.99.22-2.25.36-3.7.36-2.15-.03-3.4-.62-3.4-2Z"/><path class="bp" d="m451.51,2.35c-.97.34-2.17.57-3.21.71-.27-.83-.54-1.78-.65-2.46l-1.24.14c.14.39.27.82.36,1.14.11.32.25.76.44,1.29-1.57.11-3.59.07-5.71-.17l.03,1.14c2.28.19,4.34.19,6.06.04.48,1.2,1.18,2.45,1.73,3.29-.52-.06-1.58-.14-2.39-.22l-.09.95c1.04.07,2.79.23,3.48.4l.58-.82c-.22-.23-.43-.48-.62-.76-.54-.73-1.18-1.86-1.62-2.96.97-.14,2.1-.34,2.98-.58l-.13-1.14Z"/><path class="bp" d="m429.33.22c-.95,2.28-2.53,4.46-4.2,5.86.22.26.55.82.66,1.08.65-.58,1.29-1.28,1.9-2.06v8.12h1.07V3.6c.62-.96,1.18-1.99,1.63-3.04l-1.05-.35Z"/><path class="bp" d="m489.99,12.39v-.76h-1.87v-.91h1.63v-.68h-1.63v-.89h1.63v-.66h-1.63v-.88h1.67v-.75h-1.59c.16-.32.32-.66.48-.99l-.85-.26c-.1.34-.27.83-.44,1.25h-1.1c.15-.36.29-.73.41-1.09l-.82-.2c-.28.97-.73,1.91-1.27,2.65.04-.69.06-1.35.06-1.93v-.73h4.9v-2.98h-5.85v3.72c0,1.81-.07,4.35-.85,6.19.22.1.62.4.79.58.53-1.2.79-2.75.91-4.22.14.13.28.27.36.36.13-.16.26-.34.39-.53v4.4h.82v-.68h3.85c-.13.07-.26.14-.38.2.22.19.55.48.71.66.86-.43,1.9-1.2,2.55-1.9l-.92-.52c-.41.52-1.19,1.12-1.94,1.55Zm-1.4-9.01v1.38h-3.93v-1.38h3.93Zm-1.24,6.67h-1.22v-.89h1.22v.89Zm0-1.56h-1.22v-.88h1.22v.88Zm-1.22,2.23h1.22v.91h-1.22v-.91Z"/><path class="bp" d="m515.59.35l-1.01-.27c-.69,2.22-1.83,4.44-3.1,5.88.19.27.48.85.58,1.11.48-.56.94-1.23,1.37-1.95v8.13h1.02V3.19c.44-.92.82-1.89,1.14-2.85Z"/><path class="bp" d="m423.06,12.21h-1.08c-.33,0-.39-.06-.39-.4v-3.01h1.7V.73h-6.05v8.06h1.14c-.23,1.69-.81,2.94-2.84,3.61.22.2.52.59.63.84,2.28-.86,2.98-2.37,3.26-4.45h1.17v3.01c0,1.02.23,1.32,1.24,1.32h1.35c.82,0,1.09-.45,1.2-2.26-.27-.07-.69-.22-.89-.39-.04,1.53-.1,1.73-.43,1.73Zm-4.81-10.58h4v1.5h-4v-1.5Zm0,2.36h4v1.53h-4v-1.53Zm0,2.38h4v1.54h-4v-1.54Z"/><path class="bp" d="m507.93,4.02l-.72-.45-.2.04h-4.26c.24-.28.47-.56.67-.85l-1.17-.23c-.73,1.12-2.13,2.38-4.13,3.27.24.16.58.52.73.78.86-.43,1.61-.91,2.26-1.42.56.63,1.22,1.19,1.96,1.68-1.75.9-3.8,1.55-5.73,1.9.2.24.43.68.53.95.72-.15,1.46-.34,2.19-.57v4.09h1.07v-.48h5.83v.46h1.11v-4.25c.63.16,1.28.3,1.94.4.16-.32.45-.78.69-1.02-2.05-.26-3.98-.78-5.61-1.53,1.16-.78,2.14-1.71,2.83-2.79Zm-6.05.49s.02-.02.03-.03h4.36c-.58.67-1.33,1.27-2.19,1.8-.88-.51-1.63-1.1-2.2-1.77Zm-.75,7.31v-2.1h5.83v2.1h-5.83Zm6.33-3.02h-6.42c1.05-.37,2.08-.83,3.02-1.36,1.03.56,2.17,1.01,3.39,1.36Z"/><path class="bp" d="m416.13,9l.66-.91c-.32-.32-1.51-1.44-2.14-1.99.7-.94,1.3-1.97,1.72-3.05l-.6-.4-.19.04h-1.2V0h-1.05v2.69h-2.1v.99h3.79c-.95,1.92-2.67,3.75-4.31,4.77.17.19.45.69.55.96.69-.46,1.4-1.07,2.07-1.76v5.58h1.05v-6.17c.62.63,1.39,1.47,1.74,1.93Z"/><rect class="bl" x="429" y="64" width="64" height="64"/><path class="as" d="m437.41,93.4c-2.44,0-4.41,1.99-4.41,4.44s1.45,9.09,5.81,9.09c3.21,10.72,8.92,20.57,22.19,20.57,13.27,0,18.98-9.85,22.19-20.57,4.36,0,5.81-6.63,5.81-9.09s-1.97-4.44-4.41-4.44c16.18-19.8-21.47-38.36-36.87-23.55-13.43,0-17.89,15.9-10.32,23.55Z"/><path class="bc" d="m484.59,93.4c2.44,0,4.41,1.99,4.41,4.44s-1.45,9.09-5.81,9.09c-3.21,10.72-8.92,20.57-22.19,20.57-13.27,0-18.98-9.85-22.19-20.57-4.36,0-5.81-6.63-5.81-9.09s1.97-4.44,4.41-4.44c2.8-8.57,10.32-11.55,16.23-11.55,9.33,9.7,23.02-.05,30.96,11.55Z"/><circle class="bk" cx="453.5" cy="99" r="3"/><circle class="bk" cx="468.5" cy="99" r="3"/><rect class="bp" x="438.19" y="136.82" width="5.64" height=".82"/><polygon class="bp" points="452.17 138.25 461.08 138.25 461.08 139.78 462.05 139.78 462.05 137.37 457.11 137.37 457.11 136.22 456.13 136.22 456.13 137.37 451.22 137.37 451.22 139.78 452.17 139.78 452.17 138.25"/><path class="bp" d="m446.25,138.84h-1.56v6.68h4.63v-6.68h-2.22c.09-.37.18-.78.28-1.19h2.21v-.83h-5.27v.83h2.09c-.04.38-.1.81-.16,1.19Zm2.23,5.92h-2.98v-1.25h2.98v1.25Zm0-1.97h-2.98v-1.24h2.98v1.24Zm0-1.98h-2.98v-1.22h2.98v1.22Z"/><path class="bp" d="m483,146.95h1.18l-3.42-9.31h-1.16l-3.42,9.31h1.18l.94-2.64h3.76l.94,2.64Zm-4.35-3.64l1.49-4.2h.07l1.49,4.2h-3.05Z"/><path class="bp" d="m473.13,144.09c.66-.41,1.47-.99,2.09-1.54l-.68-.57c-.43.43-1.13,1-1.74,1.42-.25-.57-.45-1.18-.62-1.81h2.67v-2.87h-2.89c.34-.42.68-.89.93-1.34l-.59-.41-.17.06h-2.52c.14-.21.28-.43.4-.64l-.93-.17c-.52,1-1.48,2.26-2.8,3.19.23.11.54.35.7.54.13-.1.25-.22.37-.32v1.96h2.43c-.93.58-2.13,1.07-3.21,1.39.18.17.44.5.56.66.78-.28,1.63-.66,2.43-1.1.21.18.39.37.55.56-.88.67-2.31,1.38-3.44,1.69.19.18.4.46.5.66,1.09-.4,2.42-1.12,3.35-1.81.16.25.28.51.38.76-1.03,1-2.93,2.04-4.45,2.52.19.18.41.49.52.72,1.38-.52,3.01-1.47,4.15-2.41.12.8-.05,1.47-.41,1.72-.23.19-.46.22-.78.22-.26,0-.64-.02-1.05-.06.15.25.23.61.23.83.37.03.73.03,1,.03.51-.02.86-.1,1.23-.4,1.05-.78,1.03-3.64-1.12-5.44.29-.18.56-.37.8-.56h.33c.61,2.56,1.72,4.74,3.44,5.83.14-.24.44-.58.64-.75-.95-.54-1.71-1.46-2.3-2.58Zm.79-3.2h-2.46v-1.45h2.46v1.45Zm-2.3-3.11c-.21.34-.46.68-.7.94h-2.6c.29-.31.55-.62.79-.94h2.52Zm-3.38,1.66h2.36v1.45h-2.36v-1.45Z"/><path class="bp" d="m466.92,136.52l-.9-.24c-.61,1.97-1.63,3.94-2.75,5.22.17.25.42.76.51.99.42-.5.83-1.09,1.22-1.74v7.22h.91v-8.92c.39-.82.73-1.68,1.01-2.53Z"/><path class="bp" d="m460.11,139.78l-.64-.4-.18.04h-3.78c.22-.25.42-.5.6-.75l-1.04-.21c-.65,1-1.89,2.11-3.67,2.9.22.14.51.46.65.7.77-.38,1.43-.81,2.01-1.27.5.56,1.08,1.06,1.74,1.5-1.56.8-3.38,1.38-5.1,1.69.18.22.38.6.47.84.64-.14,1.3-.3,1.95-.5v3.64h.95v-.42h5.18v.41h.99v-3.78c.56.14,1.14.27,1.73.36.14-.29.4-.7.61-.91-1.82-.23-3.54-.7-4.99-1.36,1.03-.7,1.9-1.52,2.52-2.48Zm-5.37.44s.02-.02.03-.03h3.87c-.52.59-1.18,1.13-1.95,1.6-.78-.45-1.44-.98-1.96-1.58Zm-.67,6.5v-1.86h5.18v1.86h-5.18Zm5.62-2.69h-5.7c.94-.33,1.85-.73,2.69-1.21.91.5,1.93.9,3.01,1.21Z"/><path class="bp" d="m444.16,147.22v-.67h-1.66v-.8h1.45v-.61h-1.45v-.79h1.45v-.58h-1.45v-.78h1.48v-.66h-1.41c.14-.29.28-.59.43-.89l-.76-.22c-.09.3-.24.74-.39,1.11h-.98c.14-.32.26-.65.36-.98l-.73-.18c-.25.86-.65,1.7-1.13,2.35.04-.61.05-1.2.05-1.71v-.66h4.35v-2.65h-5.2v3.3c0,1.61-.06,3.86-.76,5.5.19.09.55.36.7.51.47-1.07.7-2.45.81-3.75.12.11.25.24.32.32.12-.14.23-.31.35-.47v3.91h.73v-.6h3.42c-.11.06-.22.13-.33.18.19.16.49.42.63.58.77-.38,1.69-1.06,2.27-1.69l-.82-.46c-.36.46-1.05.99-1.73,1.38Zm-1.24-8v1.22h-3.49v-1.22h3.49Zm-1.1,5.92h-1.09v-.79h1.09v.79Zm0-1.38h-1.09v-.78h1.09v.78Zm-1.09,1.98h1.09v.8h-1.09v-.8Z"/><path class="bp" d="m448.18,145.89l-.7.44c.6.5,1.33,1.22,1.68,1.67l.74-.49c-.38-.47-1.13-1.16-1.72-1.62Z"/><rect class="bl" x="429" y="64" width="64" height="84"/><rect class="bl" x="429" y="192" width="64" height="64"/><path class="bk" d="m450.83,252.33s-11.61,3.72-21.83-.62c8.72-10.23,5.83-21.85,5.83-27.69,0-20.4,13.06-32.03,26.17-32.03s26.17,11.62,26.17,32.03c0,5.84-2.89,17.46,5.83,27.64-10.17,4.39-21.83.62-21.83.62-2.94,2.32-6.35,3.72-10.17,3.72s-7.23-1.4-10.17-3.67Z"/><path class="bd" d="m480.96,235.56c-1.92,6.42-5.32,12.49-9.93,16.24-.06.02-.12.05-.17.09-2.87,2.27-6.17,3.61-9.86,3.61s-6.99-1.35-9.81-3.56c-.05-.04-.11-.07-.18-.09-4.65-3.75-8.06-9.87-10.03-16.35-.06-.21-.26-.35-.48-.35-.87,0-1.63-.46-2.32-1.3-.68-.84-1.24-2.01-1.68-3.28-.8-2.32-1.16-4.89-1.22-6.18,7.1-2.91,14.45-9.52,18.51-16.05,7.78,8.47,17.79,14.44,32.85,16.15-.07,1.31-.43,3.85-1.22,6.14-.44,1.28-1,2.45-1.68,3.28-.68.84-1.45,1.3-2.32,1.3-.22,0-.42.14-.48.36Z"/><circle class="bk" cx="454" cy="227" r="3"/><circle class="bk" cx="469" cy="227" r="3"/><path class="bp" d="m483.52,271.23c-.19-.34-.43-.6-.72-.78-.29-.18-.57-.29-.86-.3v-.09c.27-.07.51-.18.74-.34.23-.15.42-.36.55-.62.14-.26.21-.59.21-.99,0-.45-.1-.86-.31-1.24s-.52-.67-.94-.9c-.42-.22-.96-.34-1.6-.34h-3.25v9.31h3.36c.73,0,1.33-.11,1.79-.33s.79-.51,1-.89c.21-.37.32-.79.32-1.26,0-.49-.1-.9-.29-1.25Zm-5.05-4.59h2.13c.62,0,1.07.14,1.35.43.28.29.43.63.43,1.04,0,.33-.08.62-.24.86-.16.25-.38.43-.66.57-.27.13-.58.2-.92.2h-2.09v-3.1Zm3.8,6.89c-.31.28-.83.42-1.57.42h-2.24v-3.24h2.29c.41,0,.76.09,1.05.25.3.16.53.38.69.65.16.26.24.56.24.87,0,.41-.16.76-.47,1.05Z"/><path class="bp" d="m446.62,266.84h-1.56v6.68h4.63v-6.68h-2.22c.09-.37.18-.78.28-1.19h2.21v-.83h-5.27v.83h2.09c-.04.38-.1.81-.16,1.19Zm2.23,5.92h-2.98v-1.25h2.98v1.25Zm0-1.97h-2.98v-1.24h2.98v1.24Zm0-1.98h-2.98v-1.22h2.98v1.22Z"/><path class="bp" d="m467.28,264.52l-.9-.24c-.61,1.97-1.63,3.94-2.75,5.22.17.25.42.76.51.99.42-.5.83-1.09,1.22-1.74v7.22h.91v-8.92c.39-.82.73-1.68,1.01-2.53Z"/><polygon class="bp" points="452.53 266.25 461.44 266.25 461.44 267.78 462.42 267.78 462.42 265.37 457.48 265.37 457.48 264.22 456.49 264.22 456.49 265.37 451.59 265.37 451.59 267.78 452.53 267.78 452.53 266.25"/><path class="bp" d="m473.5,272.09c.66-.41,1.47-.99,2.09-1.54l-.68-.57c-.43.43-1.13,1-1.74,1.42-.25-.57-.45-1.18-.62-1.81h2.67v-2.87h-2.89c.34-.42.68-.89.93-1.34l-.59-.41-.17.06h-2.52c.14-.21.28-.43.4-.64l-.93-.17c-.52,1-1.48,2.26-2.8,3.19.23.11.54.35.7.54.13-.1.25-.22.37-.32v1.96h2.43c-.93.58-2.13,1.07-3.21,1.39.18.17.44.5.56.66.78-.28,1.63-.66,2.43-1.1.21.18.39.37.55.56-.88.67-2.31,1.38-3.44,1.69.19.18.4.46.5.66,1.09-.4,2.42-1.12,3.35-1.81.16.25.28.51.38.76-1.03,1-2.93,2.04-4.45,2.52.19.18.41.49.52.72,1.38-.52,3.01-1.47,4.15-2.41.12.8-.05,1.47-.41,1.72-.23.19-.46.22-.78.22-.26,0-.64-.02-1.05-.06.15.25.23.61.23.83.37.03.73.03,1,.03.51-.02.86-.1,1.23-.4,1.05-.78,1.03-3.64-1.12-5.44.29-.18.56-.37.8-.56h.33c.61,2.56,1.72,4.74,3.44,5.83.14-.24.44-.58.64-.75-.95-.54-1.71-1.46-2.3-2.58Zm.79-3.2h-2.46v-1.45h2.46v1.45Zm-2.3-3.11c-.21.34-.46.68-.7.94h-2.6c.29-.31.55-.62.79-.94h2.52Zm-3.38,1.66h2.36v1.45h-2.36v-1.45Z"/><path class="bp" d="m460.47,267.78l-.64-.4-.18.04h-3.78c.22-.25.42-.5.6-.75l-1.04-.21c-.65,1-1.89,2.11-3.67,2.9.22.14.51.46.65.7.77-.38,1.43-.81,2.01-1.27.5.56,1.08,1.06,1.74,1.5-1.56.8-3.38,1.38-5.1,1.69.18.22.38.6.47.84.64-.14,1.3-.3,1.95-.5v3.64h.95v-.42h5.18v.41h.99v-3.78c.56.14,1.14.27,1.73.36.14-.29.4-.7.61-.91-1.82-.23-3.54-.7-4.99-1.36,1.03-.7,1.9-1.52,2.52-2.48Zm-5.37.44s.02-.02.03-.03h3.87c-.52.59-1.18,1.13-1.95,1.6-.78-.45-1.44-.98-1.96-1.57Zm-.67,6.5v-1.86h5.18v1.86h-5.18Zm5.62-2.69h-5.7c.94-.33,1.85-.73,2.69-1.21.91.5,1.93.9,3.01,1.21Z"/><rect class="bp" x="438.56" y="264.82" width="5.64" height=".82"/><path class="bp" d="m444.52,275.22v-.67h-1.66v-.8h1.45v-.61h-1.45v-.79h1.45v-.58h-1.45v-.78h1.48v-.66h-1.41c.14-.29.28-.59.43-.89l-.76-.22c-.09.3-.24.74-.39,1.11h-.98c.14-.32.26-.65.36-.98l-.73-.18c-.25.86-.65,1.7-1.13,2.35.04-.61.05-1.2.05-1.71v-.66h4.35v-2.65h-5.2v3.3c0,1.61-.06,3.86-.76,5.5.19.09.55.36.7.51.47-1.07.7-2.45.81-3.75.12.11.25.24.32.32.12-.14.23-.31.35-.47v3.91h.73v-.6h3.42c-.11.06-.22.13-.33.18.19.16.49.42.63.58.77-.38,1.69-1.06,2.27-1.69l-.82-.46c-.36.46-1.05.99-1.73,1.38Zm-1.24-8v1.22h-3.49v-1.22h3.49Zm-1.1,5.92h-1.09v-.79h1.09v.79Zm0-1.38h-1.09v-.78h1.09v.78Zm-1.09,1.98h1.09v.8h-1.09v-.8Z"/><path class="bp" d="m448.54,273.89l-.7.44c.6.5,1.33,1.22,1.68,1.67l.74-.49c-.38-.47-1.13-1.16-1.72-1.62Z"/><rect class="bl" x="429" y="192" width="64" height="84"/><path class="bp" d="m8.03,2.17h9.95v9.56c0,.3-.1.4-.42.42-.35.01-1.51.03-2.68-.03.17.32.39.85.46,1.17,1.43,0,2.43-.01,3.01-.2.56-.17.75-.55.75-1.32V2.17h1.77v-1.09h-12.84v1.09Z"/><path class="bp" d="m27.33,9.07l.66-.91c-.32-.32-1.51-1.44-2.14-1.99.7-.94,1.3-1.97,1.72-3.05l-.6-.4-.19.04h-1.2V.07h-1.05v2.69h-2.1v.99h3.79c-.95,1.92-2.67,3.75-4.31,4.77.17.19.45.69.55.96.69-.46,1.4-1.07,2.07-1.76v5.58h1.05v-6.17c.62.63,1.39,1.47,1.74,1.93Z"/><path class="bp" d="m15.42,9.66v-5.37h-5.9v6.52h1.05v-1.15h4.85Zm-1.08-4.35v3.31h-3.77v-3.31h3.77Z"/><polygon class="bp" points="95.8 2.36 105.82 2.36 105.82 4.09 106.92 4.09 106.92 1.37 101.36 1.37 101.36 .07 100.25 .07 100.25 1.37 94.74 1.37 94.74 4.09 95.8 4.09 95.8 2.36"/><path class="bp" d="m119.38,8.94c.74-.46,1.65-1.12,2.35-1.74l-.76-.63c-.49.49-1.27,1.13-1.96,1.6-.28-.64-.51-1.33-.69-2.04h3v-3.23h-3.25c.38-.47.77-1,1.05-1.51l-.66-.46-.19.07h-2.84c.16-.24.31-.48.45-.72l-1.05-.19c-.59,1.12-1.67,2.53-3.15,3.59.26.13.6.4.79.62.15-.12.28-.25.42-.37v2.2h2.74c-1.05.65-2.4,1.21-3.62,1.57.2.19.49.56.63.75.87-.31,1.84-.74,2.73-1.24.23.2.44.41.63.63-.99.76-2.6,1.55-3.87,1.9.22.2.45.52.56.75,1.22-.46,2.72-1.26,3.76-2.04.18.28.32.57.42.86-1.16,1.13-3.29,2.3-5.01,2.84.22.2.46.55.59.81,1.56-.59,3.39-1.65,4.67-2.71.13.9-.06,1.65-.46,1.94-.26.22-.52.24-.88.24-.29,0-.72-.01-1.18-.06.17.27.26.68.26.94.42.03.82.03,1.12.03.58-.01.96-.1,1.38-.45,1.19-.88,1.16-4.1-1.26-6.12.32-.21.63-.42.9-.64h.37c.68,2.89,1.94,5.34,3.87,6.57.16-.27.49-.65.72-.85-1.06-.61-1.92-1.64-2.58-2.9Zm.88-3.61h-2.76v-1.63h2.76v1.63Zm-2.59-3.5c-.24.38-.52.77-.79,1.07h-2.93c.32-.35.62-.7.89-1.07h2.83Zm-3.8,1.87h2.65v1.63h-2.65v-1.63Z"/><rect class="bp" x="80.08" y=".75" width="6.35" height=".92"/><path class="bp" d="m89.14,3.02h-1.75v7.52h5.21V3.02h-2.5c.1-.41.2-.88.31-1.34h2.49v-.94h-5.93v.94h2.35c-.04.43-.11.91-.18,1.34Zm2.51,6.67h-3.36v-1.41h3.36v1.41Zm0-2.22h-3.36v-1.4h3.36v1.4Zm0-2.23h-3.36v-1.37h3.36v1.37Z"/><path class="bp" d="m56.33,4.62h-4.22v8.61h1.02v-3.11h3.2v1.93c0,.19-.06.24-.26.26-.2.01-.86.01-1.58-.01.14.27.3.68.36.95.98,0,1.61,0,2-.17.4-.17.53-.46.53-1.01v-7.44h-1.05Zm0,.94v1.41h-3.2v-1.41h3.2Zm-3.2,3.72v-1.45h3.2v1.45h-3.2Z"/><path class="bp" d="m61.99.37l-1.15-.37c-.32.7-.87,1.64-1.36,2.33h-4.32l.71-.26c-.27-.56-.88-1.41-1.44-2.03l-.99.37c.51.58,1.04,1.37,1.3,1.92h-3.53v1.01h12.87v-1.01h-3.37c.42-.6.88-1.3,1.28-1.96Z"/><path class="bp" d="m72.4,1.83c-3.53,0-6.31,2.72-6.31,5.85,0,2.39,1.28,3.86,2.58,3.86s2.48-1.53,3.36-4.48c.39-1.35.65-2.8.84-4.15,2.45.22,3.87,2,3.87,4.16,0,2.49-1.81,3.87-3.66,4.29-.35.07-.78.13-1.24.17l.66,1.07c3.43-.45,5.41-2.46,5.41-5.47s-2.15-5.3-5.52-5.3Zm-3.7,8.38c-.65,0-1.47-.81-1.47-2.62,0-1.96,1.69-4.33,4.45-4.68-.16,1.32-.43,2.7-.79,3.88-.73,2.43-1.51,3.41-2.19,3.41Z"/><path class="bp" d="m91.31,10.96l-.79.49c.68.56,1.5,1.37,1.89,1.89l.84-.55c-.43-.53-1.27-1.31-1.93-1.83Z"/><path class="bp" d="m86.79,12.47v-.76h-1.87v-.91h1.63v-.68h-1.63v-.89h1.63v-.66h-1.63v-.88h1.67v-.75h-1.59c.16-.32.32-.66.48-.99l-.85-.26c-.1.34-.27.83-.44,1.25h-1.1c.15-.36.29-.73.41-1.09l-.82-.2c-.28.97-.73,1.91-1.27,2.65.04-.69.06-1.35.06-1.93v-.73h4.9v-2.98h-5.85v3.72c0,1.81-.07,4.35-.85,6.19.22.1.62.4.79.58.53-1.2.79-2.75.91-4.22.14.13.28.27.36.36.13-.16.26-.34.39-.53v4.4h.82v-.68h3.85c-.13.07-.26.14-.38.2.22.19.55.48.71.66.86-.43,1.9-1.2,2.55-1.9l-.92-.52c-.41.52-1.19,1.12-1.94,1.55Zm-1.4-9.01v1.38h-3.93v-1.38h3.93Zm-1.24,6.67h-1.22v-.89h1.22v.89Zm0-1.56h-1.22v-.88h1.22v.88Zm-1.22,2.23h1.22v.91h-1.22v-.91Z"/><rect class="bp" x="59.12" y="4.75" width="1.02" height="5.92"/><path class="bp" d="m40.53.29c-.95,2.28-2.53,4.46-4.2,5.86.22.26.55.82.66,1.08.65-.58,1.29-1.28,1.9-2.06v8.12h1.07V3.67c.62-.96,1.18-1.99,1.63-3.04l-1.05-.35Z"/><path class="bp" d="m62.05,11.97c0,.2-.07.26-.3.27-.24.01-1.02.01-1.9-.01.16.29.33.75.39,1.04,1.12,0,1.84-.03,2.29-.19.45-.17.59-.48.59-1.11v-7.65h-1.07v7.65Z"/><path class="bp" d="m104.73,4.09l-.72-.45-.2.04h-4.26c.24-.28.47-.56.67-.85l-1.17-.23c-.73,1.12-2.13,2.38-4.13,3.27.24.16.58.52.73.78.86-.43,1.61-.91,2.26-1.42.56.63,1.22,1.19,1.96,1.68-1.75.9-3.8,1.55-5.73,1.9.2.24.43.68.53.95.72-.15,1.46-.34,2.19-.57v4.09h1.07v-.48h5.83v.46h1.11v-4.25c.63.16,1.28.3,1.94.4.16-.32.45-.78.69-1.02-2.05-.26-3.99-.78-5.61-1.53,1.16-.78,2.14-1.71,2.83-2.79Zm-6.05.49s.02-.02.03-.03h4.36c-.58.67-1.33,1.27-2.19,1.8-.88-.51-1.63-1.1-2.2-1.77Zm-.75,7.31v-2.1h5.83v2.1h-5.83Zm6.33-3.02h-6.42c1.05-.37,2.08-.83,3.02-1.36,1.03.56,2.17,1.01,3.39,1.36Z"/><path class="bp" d="m34.26,12.28h-1.08c-.33,0-.39-.06-.39-.4v-3.01h1.7V.81h-6.05v8.06h1.14c-.23,1.69-.81,2.94-2.84,3.61.22.2.52.59.63.84,2.28-.86,2.98-2.37,3.26-4.45h1.17v3.01c0,1.02.23,1.32,1.24,1.32h1.35c.82,0,1.09-.45,1.2-2.26-.27-.07-.69-.22-.89-.39-.04,1.53-.1,1.73-.43,1.73ZM29.45,1.7h4v1.5h-4v-1.5Zm0,2.36h4v1.53h-4v-1.53Zm0,2.38h4v1.54h-4v-1.54Z"/><path class="bp" d="m47.92,12.08h-2.84c-.81,0-.95-.17-.95-.98v-4.22c1.8-.95,3.74-2.04,5.1-3.16l-.79-.92c-1.04.96-2.7,2.07-4.31,2.98V.42h-1.09v10.67c0,1.58.46,2.02,1.97,2.02h2.97c1.5,0,1.81-.82,1.99-3.18-.32-.07-.76-.27-1.04-.48-.1,2.1-.22,2.64-1.01,2.64Z"/><path class="bp" d="m112.39.42l-1.01-.27c-.69,2.22-1.83,4.44-3.1,5.88.19.27.48.85.58,1.11.48-.56.94-1.23,1.37-1.95v8.13h1.02V3.27c.44-.92.82-1.89,1.14-2.85Z"/><path class="bp" d="m87,146.95h1.18l-3.42-9.31h-1.16l-3.42,9.31h1.18l.94-2.64h3.77l.94,2.64Zm-4.35-3.64l1.49-4.2h.07l1.49,4.2h-3.05Z"/><polygon class="bp" points="56.17 138.25 65.08 138.25 65.08 139.78 66.05 139.78 66.05 137.36 61.11 137.36 61.11 136.21 60.13 136.21 60.13 137.36 55.22 137.36 55.22 139.78 56.17 139.78 56.17 138.25"/><path class="bp" d="m50.25,138.84h-1.56v6.68h4.63v-6.68h-2.22c.09-.37.18-.78.28-1.19h2.21v-.83h-5.27v.83h2.09c-.04.38-.1.81-.16,1.19Zm2.23,5.93h-2.98v-1.25h2.98v1.25Zm0-1.97h-2.98v-1.24h2.98v1.24Zm0-1.98h-2.98v-1.22h2.98v1.22Z"/><rect class="bp" x="42.19" y="136.81" width="5.64" height=".82"/><path class="bp" d="m70.92,136.52l-.9-.24c-.61,1.97-1.63,3.94-2.75,5.22.17.24.42.76.51.99.42-.5.83-1.09,1.22-1.73v7.22h.91v-8.92c.39-.82.73-1.68,1.01-2.53Z"/><path class="bp" d="m52.18,145.89l-.7.44c.6.5,1.33,1.22,1.68,1.68l.74-.49c-.38-.47-1.13-1.16-1.72-1.63Z"/><path class="bp" d="m64.11,139.78l-.64-.4-.18.04h-3.79c.22-.25.42-.5.6-.76l-1.04-.2c-.65,1-1.89,2.11-3.67,2.91.22.14.51.46.65.69.76-.38,1.43-.81,2.01-1.26.5.56,1.08,1.06,1.74,1.49-1.56.8-3.37,1.37-5.1,1.69.18.22.38.6.47.84.64-.14,1.3-.3,1.95-.5v3.64h.95v-.42h5.18v.41h.99v-3.78c.56.14,1.14.27,1.73.36.14-.28.4-.69.61-.91-1.82-.23-3.54-.7-4.99-1.36,1.03-.7,1.9-1.52,2.52-2.48Zm-5.38.44s.02-.02.03-.03h3.87c-.52.59-1.18,1.13-1.95,1.6-.78-.45-1.45-.98-1.96-1.57Zm-.67,6.5v-1.87h5.18v1.87h-5.18Zm5.63-2.69h-5.7c.94-.33,1.85-.73,2.69-1.21.92.5,1.93.9,3.02,1.21Z"/><path class="bp" d="m48.16,147.22v-.67h-1.66v-.81h1.45v-.6h-1.45v-.79h1.45v-.59h-1.45v-.78h1.48v-.67h-1.41c.14-.28.28-.59.43-.88l-.76-.23c-.09.3-.24.74-.39,1.11h-.98c.14-.32.26-.65.36-.97l-.73-.18c-.25.86-.65,1.7-1.13,2.36.04-.61.05-1.2.05-1.72v-.65h4.35v-2.65h-5.2v3.3c0,1.61-.06,3.87-.76,5.5.19.09.55.36.7.51.47-1.07.7-2.45.81-3.75.12.11.25.24.32.32.12-.14.23-.31.35-.47v3.91h.73v-.6h3.41c-.11.06-.22.13-.32.18.19.17.49.42.63.59.77-.38,1.69-1.06,2.27-1.69l-.82-.46c-.36.46-1.05.99-1.73,1.37Zm-1.24-8v1.23h-3.49v-1.23h3.49Zm-1.1,5.93h-1.09v-.79h1.09v.79Zm0-1.38h-1.09v-.78h1.09v.78Zm-1.09,1.98h1.09v.81h-1.09v-.81Z"/><path class="bp" d="m77.13,144.09c.66-.41,1.47-.99,2.09-1.54l-.68-.56c-.43.43-1.13,1-1.74,1.42-.25-.57-.45-1.18-.62-1.82h2.67v-2.87h-2.89c.34-.42.68-.89.93-1.34l-.59-.41-.17.06h-2.52c.14-.21.28-.43.4-.64l-.93-.17c-.52,1-1.48,2.25-2.8,3.19.23.12.54.36.7.55.13-.1.25-.22.37-.33v1.95h2.44c-.93.58-2.13,1.07-3.22,1.4.18.17.44.5.56.67.78-.28,1.63-.66,2.42-1.1.21.18.39.37.56.56-.88.67-2.31,1.38-3.44,1.69.19.18.4.46.5.67,1.09-.41,2.42-1.12,3.35-1.82.16.25.28.51.38.76-1.03,1-2.93,2.05-4.45,2.53.19.18.41.49.52.72,1.38-.52,3.02-1.47,4.15-2.41.12.8-.06,1.47-.41,1.72-.23.19-.46.22-.78.22-.26,0-.64-.01-1.05-.05.15.24.23.6.23.83.37.03.73.03,1,.03.51-.01.86-.09,1.23-.4,1.05-.78,1.03-3.64-1.12-5.44.29-.18.56-.37.8-.57h.33c.61,2.57,1.72,4.75,3.44,5.84.14-.24.44-.58.64-.76-.95-.54-1.71-1.46-2.3-2.58Zm.78-3.21h-2.46v-1.45h2.46v1.45Zm-2.3-3.11c-.21.34-.46.68-.7.95h-2.61c.29-.31.55-.63.79-.95h2.52Zm-3.38,1.66h2.36v1.45h-2.36v-1.45Z"/><path class="ay" d="m88.99,93.21c16.18-20.04-21.47-37.58-36.87-22.59-13.43,0-17.89,14.84-10.32,22.59-2.44,0-4.41,1.9-4.41,4.25s1.45,9.85,5.81,9.85c3.21,10.25,8.92,19.69,22.19,19.69s18.98-9.45,22.19-19.69c4.3,0,5.81-7.55,5.81-9.85s-1.97-4.25-4.41-4.25Z"/><path class="cm" d="m61.19,102.26v-.52c.01-1.78.17-3.19.48-4.25.32-1.06.79-1.91,1.4-2.56.61-.65,1.35-1.24,2.21-1.77.64-.41,1.22-.83,1.73-1.26.51-.44.91-.92,1.22-1.45.3-.54.45-1.14.45-1.8,0-.7-.17-1.31-.51-1.84-.34-.53-.81-.93-1.39-1.22-.57-.28-1.21-.43-1.9-.43s-1.31.15-1.92.44c-.6.28-1.1.71-1.48,1.28-.38.56-.59,1.25-.62,2.09h-6.36c.05-2.03.55-3.7,1.5-5.02.95-1.33,2.2-2.32,3.76-2.97,1.56-.66,3.28-.99,5.16-.99,2.07,0,3.9.33,5.49,1,1.59.66,2.84,1.62,3.74,2.88.9,1.26,1.36,2.78,1.36,4.55,0,1.19-.2,2.24-.61,3.17-.39.91-.95,1.73-1.67,2.44-.72.7-1.56,1.33-2.54,1.9-.82.48-1.5.97-2.03,1.49-.52.52-.91,1.12-1.17,1.8-.25.68-.38,1.52-.39,2.51v.52h-5.91Zm3.09,9.74c-1.04,0-1.93-.35-2.67-1.07-.73-.72-1.09-1.58-1.08-2.59-.01-.99.35-1.85,1.08-2.56.74-.71,1.63-1.07,2.67-1.07s1.86.35,2.6,1.07c.75.71,1.13,1.56,1.14,2.56-.01.67-.19,1.28-.55,1.84-.34.55-.8.99-1.36,1.32-.56.32-1.17.49-1.84.49Z"/><rect class="bl" x="33" y="64" width="64" height="64"/><rect class="bl" x="33" y="64" width="64" height="84"/><path class="az" d="m88.99,221.21c16.18-20.04-21.47-37.58-36.87-22.59-13.43,0-17.89,14.84-10.32,22.59-2.44,0-4.41,1.9-4.41,4.25s1.45,9.85,5.81,9.85c3.21,10.25,8.92,19.69,22.19,19.69s18.98-9.45,22.19-19.69c4.3,0,5.81-7.55,5.81-9.85s-1.97-4.25-4.41-4.25Z"/><path class="cr" d="m61.19,230.26v-.52c.01-1.78.17-3.19.48-4.25.32-1.06.79-1.91,1.4-2.56.61-.65,1.35-1.24,2.21-1.77.64-.41,1.22-.83,1.73-1.26.51-.44.91-.92,1.22-1.45.3-.54.45-1.14.45-1.8,0-.7-.17-1.31-.51-1.84-.34-.53-.81-.93-1.39-1.22-.57-.28-1.21-.43-1.9-.43s-1.31.15-1.92.44c-.6.28-1.1.71-1.48,1.28-.38.56-.59,1.25-.62,2.09h-6.36c.05-2.03.55-3.7,1.5-5.02.95-1.33,2.2-2.32,3.76-2.97,1.56-.66,3.28-.99,5.16-.99,2.07,0,3.9.33,5.49,1,1.59.66,2.84,1.62,3.74,2.88.9,1.26,1.36,2.78,1.36,4.55,0,1.19-.2,2.24-.61,3.17-.39.91-.95,1.73-1.67,2.44-.72.7-1.56,1.33-2.54,1.9-.82.48-1.5.97-2.03,1.49-.52.52-.91,1.12-1.17,1.8-.25.68-.38,1.52-.39,2.51v.52h-5.91Zm3.09,9.74c-1.04,0-1.93-.35-2.67-1.07-.73-.72-1.09-1.58-1.08-2.59-.01-.99.35-1.85,1.08-2.56.74-.71,1.63-1.07,2.67-1.07s1.86.35,2.6,1.07c.75.71,1.13,1.56,1.14,2.56-.01.67-.19,1.28-.55,1.84-.34.55-.8.99-1.36,1.32-.56.32-1.17.49-1.84.49Z"/><rect class="bl" x="33" y="192" width="64" height="64"/><rect class="bl" x="33" y="192" width="64" height="84"/><path class="bp" d="m50.62,266.84h-1.56v6.68h4.63v-6.68h-2.22c.09-.37.18-.78.28-1.19h2.21v-.83h-5.27v.83h2.09c-.04.38-.1.81-.16,1.19Zm2.23,5.93h-2.98v-1.25h2.98v1.25Zm0-1.97h-2.98v-1.24h2.98v1.24Zm0-1.98h-2.98v-1.22h2.98v1.22Z"/><polygon class="bp" points="56.53 266.25 65.44 266.25 65.44 267.78 66.42 267.78 66.42 265.36 61.48 265.36 61.48 264.21 60.49 264.21 60.49 265.36 55.59 265.36 55.59 267.78 56.53 267.78 56.53 266.25"/><path class="bp" d="m87.52,271.23c-.19-.34-.43-.6-.72-.78-.29-.18-.57-.28-.86-.3v-.09c.27-.07.51-.18.74-.34.23-.15.42-.36.55-.62.14-.26.21-.59.21-.99,0-.46-.1-.87-.31-1.24-.21-.38-.52-.67-.94-.9-.42-.22-.96-.34-1.6-.34h-3.25v9.31h3.36c.73,0,1.33-.11,1.79-.33.46-.22.79-.51,1-.89.21-.37.32-.79.32-1.26,0-.49-.1-.91-.29-1.25Zm-5.05-4.59h2.13c.62,0,1.07.14,1.35.43.28.28.43.63.43,1.04,0,.33-.08.61-.24.85-.16.24-.38.43-.66.56-.27.13-.58.2-.92.2h-2.09v-3.09Zm3.8,6.88c-.31.28-.83.43-1.57.43h-2.24v-3.24h2.29c.41,0,.76.08,1.05.24.3.16.53.38.69.65.16.27.24.56.24.87,0,.41-.16.76-.47,1.05Z"/><path class="bp" d="m52.54,273.89l-.7.44c.6.5,1.33,1.22,1.68,1.68l.74-.49c-.38-.47-1.13-1.16-1.72-1.63Z"/><rect class="bp" x="42.56" y="264.81" width="5.64" height=".82"/><path class="bp" d="m64.47,267.78l-.64-.4-.18.04h-3.79c.22-.25.42-.5.6-.76l-1.04-.2c-.65,1-1.89,2.11-3.67,2.91.22.14.51.46.65.69.76-.38,1.43-.81,2.01-1.26.5.56,1.08,1.06,1.74,1.49-1.56.8-3.37,1.37-5.1,1.69.18.22.38.6.47.84.64-.14,1.3-.3,1.95-.5v3.64h.95v-.42h5.18v.41h.99v-3.78c.56.14,1.14.27,1.73.36.14-.28.4-.69.61-.91-1.82-.23-3.54-.7-4.99-1.36,1.03-.7,1.9-1.52,2.52-2.48Zm-5.38.44s.02-.02.03-.03h3.87c-.52.59-1.18,1.13-1.95,1.6-.78-.45-1.45-.98-1.96-1.57Zm-.67,6.5v-1.87h5.18v1.87h-5.18Zm5.63-2.69h-5.7c.94-.33,1.85-.73,2.69-1.21.92.5,1.93.9,3.02,1.21Z"/><path class="bp" d="m71.28,264.52l-.9-.24c-.61,1.97-1.63,3.94-2.75,5.22.17.24.42.76.51.99.42-.5.83-1.09,1.22-1.73v7.22h.91v-8.92c.39-.82.73-1.68,1.01-2.53Z"/><path class="bp" d="m48.52,275.22v-.67h-1.66v-.81h1.45v-.6h-1.45v-.79h1.45v-.59h-1.45v-.78h1.48v-.67h-1.41c.14-.28.28-.59.43-.88l-.76-.23c-.09.3-.24.74-.39,1.11h-.98c.14-.32.26-.65.36-.97l-.73-.18c-.25.86-.65,1.7-1.13,2.36.04-.61.05-1.2.05-1.72v-.65h4.35v-2.65h-5.2v3.3c0,1.61-.06,3.87-.76,5.5.19.09.55.36.7.51.47-1.07.7-2.45.81-3.75.12.11.25.24.32.32.12-.14.23-.31.35-.47v3.91h.73v-.6h3.41c-.11.06-.22.13-.32.18.19.17.49.42.63.59.77-.38,1.69-1.06,2.27-1.69l-.82-.46c-.36.46-1.05.99-1.73,1.37Zm-1.24-8v1.23h-3.49v-1.23h3.49Zm-1.1,5.93h-1.09v-.79h1.09v.79Zm0-1.38h-1.09v-.78h1.09v.78Zm-1.09,1.98h1.09v.81h-1.09v-.81Z"/><path class="bp" d="m77.5,272.09c.66-.41,1.47-.99,2.09-1.54l-.68-.56c-.43.43-1.13,1-1.74,1.42-.25-.57-.45-1.18-.62-1.82h2.67v-2.87h-2.89c.34-.42.68-.89.93-1.34l-.59-.41-.17.06h-2.52c.14-.21.28-.43.4-.64l-.93-.17c-.52,1-1.48,2.25-2.8,3.19.23.12.54.36.7.55.13-.1.25-.22.37-.33v1.95h2.44c-.93.58-2.13,1.07-3.22,1.4.18.17.44.5.56.67.78-.28,1.63-.66,2.42-1.1.21.18.39.37.56.56-.88.67-2.31,1.38-3.44,1.69.19.18.4.46.5.67,1.09-.41,2.42-1.12,3.35-1.82.16.25.28.51.38.76-1.03,1-2.93,2.05-4.45,2.53.19.18.41.49.52.72,1.38-.52,3.02-1.47,4.15-2.41.12.8-.06,1.47-.41,1.72-.23.19-.46.22-.78.22-.26,0-.64-.01-1.05-.05.15.24.23.6.23.83.37.03.73.03,1,.03.51-.01.86-.09,1.23-.4,1.05-.78,1.03-3.64-1.12-5.44.29-.18.56-.37.8-.57h.33c.61,2.57,1.72,4.75,3.44,5.84.14-.24.44-.58.64-.76-.95-.54-1.71-1.46-2.3-2.58Zm.78-3.21h-2.46v-1.45h2.46v1.45Zm-2.3-3.11c-.21.34-.46.68-.7.95h-2.61c.29-.31.55-.63.79-.95h2.52Zm-3.38,1.66h2.36v1.45h-2.36v-1.45Z"/><path class="bp" d="m214.85.89c.4.55.89,1.43,1.18,2l.78-.35c-.3-.58-.82-1.47-1.18-1.99l-.78.33Z"/><path class="bp" d="m227.07,6.84c1.37-.05,2.64-.14,3.99-.31v-1.08c-1.3.19-2.63.31-4.02.37,0-.05,0-.11,0-.16,0-.54,0-1.22,0-1.86,1.38-.07,2.75-.2,3.9-.33v-1.05c-1.29.21-2.6.33-3.89.39,0-.37.01-.69.02-.86.01-.43.04-.72.07-.96h-1.22c.04.19.06.62.06.86v1c-.22,0-.44.01-.66.01-.95,0-2.75-.14-3.67-.32v1.07c.92.12,2.69.24,3.69.24.21,0,.43,0,.65-.01v1.83c0,.06,0,.13,0,.19-.26,0-.52.01-.79.01-.95,0-2.59-.1-3.61-.26v1.08c1.04.12,2.62.19,3.61.19.28,0,.54,0,.82-.01.02.63.05,1.33.07,1.99-.4-.06-.81-.1-1.23-.1-2.07,0-3.33.88-3.33,2.19,0,1.4,1.14,2.13,3.21,2.13,1.87,0,2.53-1.02,2.53-2.03,0-.22-.01-.53-.03-.89,1.43.52,2.63,1.39,3.47,2.17l.66-1.02c-.8-.66-2.28-1.7-4.19-2.22-.04-.71-.08-1.49-.11-2.25Zm-.94,3.96c0,1.01-.71,1.25-1.54,1.25-1.43,0-1.99-.49-1.99-1.17s.73-1.2,2.12-1.2c.48,0,.94.06,1.39.15.01.37.02.71.02.95Z"/><path class="bp" d="m241.52,3.74l-.03-1.07c-.73.24-1.5.4-2.26.52.23-.83.43-1.7.57-2.22l-1.27-.13c-.03.77-.23,1.69-.46,2.49-.56.05-1.1.08-1.62.08-.62,0-1.24-.03-1.77-.09l.09,1.08c.53.01,1.15.03,1.68.03.42,0,.84-.01,1.26-.04-.64,1.69-1.88,4-3.08,5.4l1.11.58c1.16-1.56,2.43-4.06,3.14-6.1.95-.13,1.86-.31,2.62-.52Z"/><path class="bp" d="m306.1,2.42h9.95v9.56c0,.3-.1.4-.42.42-.35.01-1.51.03-2.68-.03.17.32.39.85.46,1.17,1.43,0,2.43-.01,3.01-.2.56-.17.75-.55.75-1.32V2.42h1.77v-1.09h-12.84v1.09Z"/><path class="bp" d="m338.6.53c-.95,2.28-2.53,4.46-4.2,5.86.22.26.55.82.66,1.08.65-.58,1.29-1.28,1.9-2.06v8.12h1.07V3.91c.62-.96,1.18-1.99,1.63-3.04l-1.05-.35Z"/><path class="bp" d="m216.63,2.78c-.98.33-2.17.56-3.22.7-.28-.83-.54-1.78-.66-2.46l-1.22.16c.13.37.26.82.36,1.12.1.33.24.77.42,1.29-1.58.11-3.58.08-5.7-.17l.03,1.15c2.27.18,4.32.18,6.05.02.49,1.2,1.18,2.46,1.74,3.29-.52-.06-1.58-.14-2.39-.22l-.09.96c1.04.07,2.78.23,3.47.39l.59-.81c-.22-.24-.43-.49-.63-.76-.53-.75-1.15-1.86-1.6-2.97.97-.13,2.09-.33,2.97-.59l-.13-1.12Z"/><path class="bp" d="m274.13,4.69h-4.39v-1.83h5.47v-1.02h-5.47V.3h-1.09v4.39h-4.16v4.61h9.65v-4.61Zm-1.09,3.6h-7.53v-2.58h7.53v2.58Z"/><path class="bp" d="m301.3,2.23c-1.28-.13-4.35-.72-5.59-1.12l-.29,1.11c1.11.29,4.22.92,5.6,1.11l.27-1.09Z"/><path class="bp" d="m179.51,9.91c0-.68.26-1.3.69-2l-1.12-.26c-.42.85-.71,1.6-.71,2.4,0,1.96,1.73,2.94,4.46,2.95,1.61.01,2.82-.14,3.73-.3l.04-1.15c-.99.22-2.25.36-3.7.36-2.15-.03-3.4-.62-3.4-2Z"/><path class="bp" d="m347,9.69c-.1,2.1-.22,2.64-1.01,2.64h-2.84c-.81,0-.95-.17-.95-.98v-4.22c1.8-.95,3.74-2.04,5.1-3.16l-.79-.92c-1.04.96-2.7,2.07-4.31,2.98V.66h-1.09v10.67c0,1.58.46,2.02,1.97,2.02h2.97c1.5,0,1.81-.82,1.99-3.18-.32-.07-.76-.27-1.04-.48Z"/><path class="bp" d="m187.98,2.66c-.97.34-2.17.57-3.21.71-.27-.83-.54-1.78-.65-2.46l-1.24.14c.14.39.27.82.36,1.14.11.32.25.76.44,1.29-1.57.11-3.59.07-5.71-.17l.03,1.14c2.28.19,4.34.19,6.06.04.48,1.2,1.18,2.45,1.73,3.29-.52-.06-1.58-.14-2.39-.22l-.09.95c1.04.07,2.79.23,3.48.4l.58-.82c-.22-.23-.43-.48-.62-.76-.54-.73-1.18-1.86-1.62-2.96.97-.14,2.1-.34,2.98-.58l-.13-1.14Z"/><path class="bp" d="m198.27,6.84c1.37-.05,2.64-.14,3.99-.31v-1.08c-1.3.19-2.63.31-4.02.37,0-.05,0-.11,0-.16,0-.54,0-1.22,0-1.86,1.38-.07,2.75-.2,3.9-.33v-1.05c-1.29.21-2.6.33-3.89.39,0-.37.01-.69.02-.86.01-.43.04-.72.07-.96h-1.22c.04.19.06.62.06.86v1c-.22,0-.44.01-.66.01-.95,0-2.75-.14-3.67-.32v1.07c.92.12,2.69.24,3.69.24.21,0,.43,0,.65-.01v1.83c0,.06,0,.13,0,.19-.26,0-.52.01-.79.01-.95,0-2.59-.1-3.61-.26v1.08c1.04.12,2.62.19,3.61.19.28,0,.54,0,.82-.01.02.63.05,1.33.07,1.99-.4-.06-.81-.1-1.23-.1-2.07,0-3.33.88-3.33,2.19,0,1.4,1.14,2.13,3.21,2.13,1.87,0,2.53-1.02,2.53-2.03,0-.22-.01-.53-.03-.89,1.43.52,2.63,1.39,3.47,2.17l.66-1.02c-.8-.66-2.28-1.7-4.19-2.22-.04-.71-.08-1.49-.11-2.25Zm-.94,3.96c0,1.01-.71,1.25-1.54,1.25-1.43,0-1.99-.49-1.99-1.17s.73-1.2,2.12-1.2c.48,0,.94.06,1.39.15.01.37.02.71.02.95Z"/><path class="bp" d="m208.16,10.02c0-.69.24-1.31.68-2l-1.12-.26c-.42.85-.69,1.6-.69,2.39,0,1.96,1.73,2.94,4.46,2.97,1.6,0,2.82-.16,3.72-.32l.06-1.15c-1.01.23-2.25.37-3.72.36-2.15-.01-3.38-.62-3.38-1.99Z"/><path class="bp" d="m216.46.33c.4.55.88,1.35,1.2,1.99l.78-.35c-.27-.53-.84-1.44-1.21-1.97l-.76.33Z"/><path class="bp" d="m269.97,10.57c.43.91.86,2.1,1.01,2.82l1.07-.26c-.17-.73-.65-1.9-1.09-2.76l-.98.2Z"/><path class="bp" d="m332.32,12.53h-1.08c-.33,0-.39-.06-.39-.4v-3.01h1.7V1.05h-6.05v8.06h1.14c-.23,1.69-.81,2.94-2.84,3.61.22.2.52.59.63.84,2.28-.86,2.98-2.37,3.26-4.45h1.17v3.01c0,1.02.23,1.32,1.24,1.32h1.35c.82,0,1.09-.45,1.2-2.26-.27-.07-.69-.22-.89-.39-.04,1.53-.1,1.73-.43,1.73Zm-4.81-10.58h4v1.5h-4v-1.5Zm0,2.36h4v1.53h-4v-1.53Zm0,2.38h4v1.54h-4v-1.54Z"/><path class="bp" d="m272.91,10.45c.73.92,1.53,2.19,1.86,2.98l1.02-.42c-.35-.81-1.18-2.03-1.92-2.92l-.96.36Z"/><path class="bp" d="m283.88,3.97c-.35,0-.95.04-1.62.1.15-.78.3-1.62.36-2.04.06-.29.12-.59.17-.86l-1.32-.13c0,.98-.16,2.1-.38,3.14-.87.08-1.71.15-2.19.16-.46.01-.84.01-1.3,0l.13,1.24c.36-.06.96-.13,1.3-.17.37-.04,1.07-.11,1.82-.19-.49,1.94-1.56,5.22-3.03,7.18l1.17.48c1.51-2.45,2.51-5.7,3.03-7.76.63-.06,1.2-.1,1.55-.1.92,0,1.53.24,1.53,1.56,0,1.56-.22,3.44-.68,4.41-.3.63-.73.75-1.27.75-.4,0-1.15-.12-1.76-.3l.19,1.21c.46.1,1.14.2,1.7.2.92,0,1.64-.23,2.1-1.2.59-1.2.82-3.48.82-5.2,0-1.96-1.05-2.45-2.33-2.45Z"/><path class="bp" d="m313.49,9.91v-5.37h-5.9v6.52h1.05v-1.15h4.85Zm-1.08-4.35v3.31h-3.77v-3.31h3.77Z"/><path class="bp" d="m325.4,9.32l.66-.91c-.32-.32-1.51-1.44-2.14-1.99.7-.94,1.3-1.97,1.72-3.05l-.6-.4-.19.04h-1.2V.32h-1.05v2.69h-2.1v.99h3.79c-.95,1.92-2.67,3.75-4.31,4.77.17.19.45.69.55.96.69-.46,1.4-1.07,2.07-1.76v5.58h1.05v-6.17c.62.63,1.39,1.47,1.74,1.93Z"/><path class="bp" d="m299.5,6.02c-1.73,0-3.31.56-4.69,1.77.14-.94.4-3.07.59-4.05l-1.21-.16c-.09,1.5-.45,4.52-.73,5.83l1.08.26c.09-.23.22-.46.43-.71,1.01-1.22,2.56-1.93,4.45-1.93,1.47,0,2.55.82,2.55,1.96,0,1.97-2.22,3.28-6.77,2.74l.35,1.17c5.34.45,7.63-1.3,7.63-3.86,0-1.7-1.47-3.02-3.67-3.02Z"/><path class="bp" d="m286.72,3.18c1.01,1.18,2.13,3.73,2.56,5.21l1.11-.53c-.48-1.34-1.73-3.99-2.62-5.16l-1.05.48Z"/><path class="bp" d="m242.78,3.82c.95.45,2.52,1.32,3.3,1.99l.65-.95c-.69-.52-2.32-1.45-3.37-1.9l-.58.86Z"/><path class="bp" d="m266.99,10.56c.19.94.3,2.15.3,2.88l1.11-.14c-.01-.71-.17-1.89-.37-2.82l-1.04.09Z"/><path class="bp" d="m253.4,9.32l.66-.91c-.32-.32-1.51-1.44-2.14-1.99.7-.94,1.3-1.97,1.72-3.05l-.6-.4-.19.04h-1.2V.32h-1.05v2.69h-2.1v.99h3.79c-.95,1.92-2.67,3.75-4.31,4.77.17.19.45.69.55.96.69-.46,1.4-1.07,2.07-1.76v5.58h1.05v-6.17c.62.63,1.39,1.47,1.74,1.93Z"/><path class="bp" d="m243.17,6.97c-.01-.52-.01-.95.03-1.54h-1.14c.04,1.02.12,2.44.17,3.62-.45-.09-.92-.15-1.42-.15-1.61,0-2.87.84-2.87,2.16,0,1.44,1.28,2.07,2.87,2.07,1.79,0,2.52-.94,2.52-2.09,0-.16,0-.37-.01-.59.94.46,1.73,1.1,2.34,1.66l.6-.98c-.74-.64-1.75-1.36-2.99-1.8-.04-.89-.09-1.83-.1-2.36Zm-.89,3.72c0,.78-.4,1.41-1.6,1.41-1.12,0-1.68-.46-1.68-1.12s.72-1.15,1.79-1.15c.52,0,1.02.08,1.49.21,0,.25.01.47.01.65Z"/><path class="bp" d="m262.7,13.06l.99.49c.78-.76,1.51-1.99,1.99-3.11l-1.02-.26c-.45,1.07-1.2,2.23-1.96,2.88Z"/><path class="bp" d="m260.32,12.53h-1.08c-.33,0-.39-.06-.39-.4v-3.01h1.7V1.05h-6.05v8.06h1.14c-.23,1.69-.81,2.94-2.84,3.61.22.2.52.59.63.84,2.28-.86,2.98-2.37,3.26-4.45h1.17v3.01c0,1.02.23,1.32,1.24,1.32h1.35c.82,0,1.09-.45,1.2-2.26-.27-.07-.69-.22-.89-.39-.04,1.53-.1,1.73-.43,1.73Zm-4.81-10.58h4v1.5h-4v-1.5Zm0,2.36h4v1.53h-4v-1.53Zm0,2.38h4v1.54h-4v-1.54Z"/><rect class="bo" x="175" y="32" width="176" height="268" rx="24" ry="24"/><path class="co" d="m327,33c12.68,0,23,10.32,23,23v220c0,12.68-10.32,23-23,23h-128c-12.68,0-23-10.32-23-23V56c0-12.68,10.32-23,23-23h128m0-1h-128c-13.25,0-24,10.75-24,24v220c0,13.25,10.75,24,24,24h128c13.25,0,24-10.75,24-24V56c0-13.25-10.75-24-24-24h0Z"/><path class="bp" d="m240.55,112.96h1.84v-.69h-1.84v-1.09h-.76v1.09h-.93c.09-.28.17-.56.23-.86l-.69-.14c-.18.9-.51,1.78-.96,2.38.17.08.49.24.62.34.2-.29.38-.64.54-1.03h1.18v1.29h-2.23v.71h2.23v1.99h.76v-1.99h2.02v-.71h-2.02v-1.29Z"/><path class="bp" d="m199.27,108.57h-6.07c-.39,0-.82-.04-1.19-.1v.95c.41-.03.8-.05,1.19-.05h6.02c-.34.65-1.33,1.8-2.31,2.35l.71.56c1.2-.83,2.21-2.2,2.63-2.91.07-.12.2-.27.29-.37l-.53-.51c-.15.04-.53.07-.73.07Z"/><path class="bp" d="m219.46,109.77c-.44.11-2.3.49-4.1.83v-1.65c0-.31.03-.67.07-.97h-.99c.05.31.06.65.06.97v1.81c-1.12.21-2.12.39-2.6.44l.17.89c.43-.09,1.37-.29,2.43-.5v3.19c0,1.03.37,1.55,2.33,1.55,1.32,0,2.38-.08,3.32-.22l.03-.91c-1.05.21-2.07.32-3.29.32s-1.53-.23-1.53-.96v-3.15c1.87-.38,3.81-.77,4-.8-.32.62-1.09,1.78-1.88,2.51l.73.43c.86-.87,1.68-2.2,2.16-3.07.07-.13.18-.31.26-.42l-.62-.49c-.13.07-.34.14-.56.19Z"/><path class="bp" d="m195.39,111.16c0,1.76-.23,3.26-1.86,4.27-.3.2-.67.38-.95.48l.77.63c2.69-1.35,2.95-3.28,2.95-6.15h-.95c.04.29.04.52.04.77Z"/><path class="bp" d="m208.53,109.21h-2.86c.09-.15.17-.3.25-.44.11-.19.3-.55.46-.82l-.97-.33c-.06.27-.22.65-.33.84-.46.94-1.5,2.48-3.33,3.57l.74.54c1.16-.76,2.03-1.7,2.67-2.6h3.57c-.21.96-.87,2.33-1.68,3.29-.97,1.13-2.28,2.08-4.22,2.65l.77.7c1.97-.74,3.24-1.7,4.2-2.87.94-1.15,1.58-2.58,1.87-3.64.05-.17.16-.41.24-.56l-.7-.42c-.17.06-.41.1-.7.1Z"/><path class="bp" d="m228.25,112.64c.75-.95,1.41-2.19,1.78-3.11.05-.14.19-.37.25-.45l-.53-.41c-.17.05-.45.08-.79.08h-4.08c-.33,0-.93-.04-1.07-.06v.95c.12-.01.69-.05,1.07-.05h4.12c-.27.88-1.05,2.13-1.76,2.95-1.09,1.2-2.64,2.47-4.35,3.13l.68.71c1.56-.71,2.98-1.86,4.13-3.09,1.07.98,2.2,2.21,2.91,3.15l.73-.64c-.68-.83-1.97-2.19-3.08-3.14Z"/><path class="bp" d="m253.12,110.89h-4.27v-1.87c1.31-.24,2.76-.59,3.79-1.01l-.68-.61c-.76.34-2.02.68-3.22.94l-.68-.2v2.98c0,1.59-.13,3.73-1.31,5.31.2.11.49.36.6.53,1.18-1.56,1.44-3.68,1.48-5.31h1.92v5.34h.78v-5.34h1.57v-.75Z"/><path class="bp" d="m246.89,113.68l.49-.64c-.22-.29-1.12-1.4-1.47-1.8v-.95h1.44v-.76h-1.44v-2.27h-.76v2.27h-1.65v.76h1.53c-.36,1.46-1.07,3.11-1.79,4,.14.18.34.5.42.71.55-.72,1.08-1.9,1.48-3.12v5.08h.76v-4.8c.37.52.8,1.16.98,1.51Z"/><path class="bp" d="m237.8,111.35c1.32-.59,1.82-1.62,2.04-2.87h1.69c-.07,1.23-.15,1.72-.27,1.86-.06.08-.16.11-.31.1-.15,0-.53,0-.95-.04.1.18.17.45.18.67.44.02.89.02,1.1,0,.27-.02.43-.08.58-.26.22-.24.33-.93.4-2.69.01-.1.01-.3.01-.3h-4.59v.68h1.43c-.19,1-.62,1.85-1.75,2.33v-.86h-1.33c.25-.45.51-.99.67-1.47l-.46-.31-.11.04h-1.26c.09-.26.18-.52.25-.79l-.73-.16c-.32,1.3-.91,2.56-1.66,3.37.17.11.48.35.6.48.08-.09.15-.19.22-.29v1.93c0,1.19-.07,2.77-.79,3.89.16.07.45.25.57.36.49-.77.72-1.81.81-2.8h2.56v1.91c0,.14-.06.18-.2.19-.15.01-.62.01-1.16-.01.1.19.21.5.24.68.73,0,1.16-.01,1.43-.13.27-.12.36-.34.36-.73v-5.29c.16.12.34.36.43.53Zm-3.59-.78h.96v1.17h-.96v-1.17Zm1.53,0h.96v1.17h-.96v-1.17Zm-1.11-1.73h1.17c-.14.38-.31.78-.47,1.11h-1.22c.19-.35.36-.72.52-1.11Zm-.43,3.92v-.41h.96v1.24h-.98c.01-.29.02-.57.02-.82Zm1.53.82v-1.24h.96v1.24h-.96Z"/><path class="bg" d="m200,94v-10.5c0-.83.66-1.5,1.48-1.5h8.53c.82,0,1.48.67,1.48,1.5v16.5h-5.56c-3.28,0-5.94-2.69-5.94-6Z"/><path class="bf" d="m211.5,100v-13.5c0-.83.66-1.5,1.48-1.5h8.53c.82,0,1.48.67,1.48,1.5v13.5h-11.5Z"/><path class="bi" d="m223,100v-22.5c0-.83.66-1.5,1.48-1.5h8.53c.82,0,1.48.67,1.48,1.5v22.5h-11.5Z"/><path class="bh" d="m234.5,100v-31.5c0-.83.66-1.5,1.48-1.5h8.53c.82,0,1.48.67,1.48,1.5v25.5c0,3.31-2.66,6-5.94,6h-5.56Z"/><path class="bb" d="m199.75,70.75l6,1.5,11.25,3,12-9,12-9,5.25-3.75"/><circle class="bn" cx="205.75" cy="72.26" r="3"/><path class="cs" d="m205.75,70.26c1.1,0,2,.9,2,2s-.9,2-2,2-2-.9-2-2,.9-2,2-2m0-1c-1.66,0-3,1.34-3,3s1.34,3,3,3,3-1.34,3-3-1.34-3-3-3h0Z"/><circle class="bn" cx="217" cy="75.26" r="3"/><path class="cp" d="m217,73.26c1.1,0,2,.9,2,2s-.9,2-2,2-2-.9-2-2,.9-2,2-2m0-1c-1.66,0-3,1.34-3,3s1.34,3,3,3,3-1.34,3-3-1.34-3-3-3h0Z"/><circle class="bn" cx="229" cy="66.26" r="3"/><path class="cq" d="m229,64.26c1.1,0,2,.9,2,2s-.9,2-2,2-2-.9-2-2,.9-2,2-2m0-1c-1.66,0-3,1.34-3,3s1.34,3,3,3,3-1.34,3-3-1.34-3-3-3h0Z"/><circle class="bn" cx="241" cy="57.25" r="3"/><path class="cn" d="m241,55.25c1.1,0,2,.9,2,2s-.9,2-2,2-2-.9-2-2,.9-2,2-2m0-1c-1.66,0-3,1.34-3,3s1.34,3,3,3,3-1.34,3-3-1.34-3-3-3h0Z"/><rect class="bl" x="199" y="53" width="48" height="48"/><rect class="bl" x="191" y="53" width="64" height="64"/><path class="bn" d="m294.27,53h29.45c1.81,0,3.27,1.41,3.27,3.15v41.7c0,1.74-1.47,3.15-3.27,3.15h-29.45c-1.81,0-3.27-1.41-3.27-3.15v-41.7c0-1.74,1.47-3.15,3.27-3.15Z"/><path class="cl" d="m323.73,55c.7,0,1.27.51,1.27,1.15v41.7c0,.63-.57,1.15-1.27,1.15h-29.45c-.7,0-1.27-.51-1.27-1.15v-41.7c0-.63.57-1.15,1.27-1.15h29.45m0-2h-29.45c-1.81,0-3.27,1.41-3.27,3.15v41.7c0,1.74,1.47,3.15,3.27,3.15h29.45c1.81,0,3.27-1.41,3.27-3.15v-41.7c0-1.74-1.47-3.15-3.27-3.15h0Z"/><path class="bj" d="m304.5,97h9"/><path class="bn" d="m282.11,62h14.78c1.72,0,3.11,1.37,3.11,3.06v32.88c0,1.69-1.39,3.06-3.11,3.06h-14.78c-1.72,0-3.11-1.37-3.11-3.06v-32.88c0-1.69,1.39-3.06,3.11-3.06Z"/><path class="ck" d="m296.89,63c1.16,0,2.11.92,2.11,2.06v32.88c0,1.14-.95,2.06-2.11,2.06h-14.78c-1.16,0-2.11-.92-2.11-2.06v-32.88c0-1.14.95-2.06,2.11-2.06h14.78m0-1h-14.78c-1.72,0-3.11,1.37-3.11,3.06v32.88c0,1.69,1.39,3.06,3.11,3.06h14.78c1.72,0,3.11-1.37,3.11-3.06v-32.88c0-1.69-1.39-3.06-3.11-3.06h0Z"/><path class="bj" d="m285.38,66h5.25"/><path class="bj" d="m292.88,66h.75"/><path class="bj" d="m286.5,98h6"/><path class="bp" d="m288.89,109.49c.3,0,.67.02.98.04v-.88c-.31.03-.69.05-.98.05h-3.66c-.34,0-.65-.02-.95-.05v.88c.27-.02.61-.04.97-.04h3.64Z"/><path class="bp" d="m283.94,111.36c-.33,0-.63-.02-.92-.05v.88c.29-.02.6-.03.92-.03h3.16c-.03.99-.14,1.88-.61,2.62-.42.68-1.18,1.28-2,1.63l.78.57c.9-.45,1.69-1.21,2.08-1.92.41-.79.58-1.76.62-2.89h2.87c.26,0,.6.01.83.03v-.88c-.26.03-.61.05-.83.05h-6.91Z"/><path class="bp" d="m291.03,107.61c.3.39.64.99.88,1.45l.56-.25c-.2-.39-.6-1.05-.89-1.44l-.55.24Z"/><path class="bp" d="m291.28,109.24c-.21-.42-.59-1.07-.86-1.45l-.56.24c.29.4.64,1.03.84,1.46l.57-.25Z"/><path class="bp" d="m301.64,109.58c-.22-.42-.6-1.07-.87-1.45l-.56.24c.29.4.64,1.03.84,1.46l.58-.25Z"/><path class="bp" d="m312.37,108.76l-.71-.67c-.73.89-1.78,1.8-2.89,2.49-1.17.73-2.78,1.48-4.6,1.96l.41.82c1.46-.45,2.91-1.09,4.02-1.71v3.91c0,.39-.03.92-.06,1.12h1.05c-.05-.2-.07-.73-.07-1.12v-4.47c1.08-.71,2.05-1.5,2.86-2.34Z"/><path class="bp" d="m319.9,112.87c.75-.95,1.41-2.19,1.78-3.11.05-.14.19-.37.25-.45l-.53-.41c-.17.05-.45.08-.79.08h-4.08c-.33,0-.93-.04-1.07-.06v.95c.12-.01.69-.05,1.07-.05h4.12c-.27.88-1.05,2.13-1.76,2.95-1.09,1.2-2.64,2.47-4.35,3.13l.68.71c1.56-.71,2.98-1.86,4.13-3.09,1.07.98,2.2,2.21,2.91,3.15l.73-.64c-.68-.83-1.97-2.19-3.08-3.14Z"/><path class="bp" d="m301.38,107.96c.3.39.64.99.88,1.45l.56-.25c-.19-.39-.6-1.05-.88-1.44l-.56.24Z"/><path class="bp" d="m294.99,113.2c-.36.88-.96,1.99-1.63,2.87l.9.38c.59-.86,1.17-1.94,1.56-2.9.44-1.09.81-2.65.95-3.31.05-.22.13-.54.2-.77l-.94-.19c-.15,1.21-.58,2.82-1.05,3.92Z"/><path class="bp" d="m299.52,109.16l-.86.29c.45.79,1.11,2.26,1.53,3.35.43,1.12.93,2.56,1.19,3.62l.94-.3c-.29-.96-.84-2.58-1.27-3.62-.45-1.11-1.13-2.57-1.54-3.34Z"/><rect class="bl" x="271" y="53" width="64" height="64"/><rect class="bl" x="191" y="133" width="64" height="64"/><path class="bp" d="m230.24,189.73l.67-.44c-.3-.55-1-1.29-1.66-1.8l-.6.4c.63.53,1.32,1.3,1.59,1.84Z"/><path class="bp" d="m222.89,189.61c-.46-.34-1.68-1.15-2.3-1.5l-.48.72c.62.35,1.77,1.12,2.27,1.5l.51-.72Z"/><path class="bp" d="m204.83,191.1c.71,0,1.29-.58,1.29-1.29s-.58-1.28-1.29-1.28-1.28.57-1.28,1.28.57,1.29,1.28,1.29Zm0-2.06c.43,0,.77.35.77.77s-.34.78-.77.78-.77-.35-.77-.78.35-.77.77-.77Z"/><path class="bp" d="m201.79,190.1c-.72-.69-1.21-.57-1.77.1-.67.79-1.58,1.96-2.09,2.47-.27.27-.48.46-.74.7l.78.8c.17-.21.39-.54.61-.81.48-.58,1.36-1.74,1.87-2.35.36-.44.56-.48.97-.08.44.44,1.41,1.49,2.03,2.18.69.77,1.62,1.86,2.37,2.77l.73-.77c-.81-.88-1.87-2.02-2.59-2.78-.61-.65-1.52-1.61-2.16-2.21Z"/><path class="bp" d="m226.09,189.91c-.24-.51-.72-1.26-.98-1.65l-.59.25c.35.48.71,1.11.97,1.67l.6-.27Z"/><path class="bp" d="m243.25,190.24c.33-.18.64-.38.92-.58.47.3.99.72,1.33,1.06-.77.52-1.66.91-2.57,1.13.14.16.34.45.41.64,2.12-.61,4.1-1.87,4.93-4.09l-.51-.24-.14.04h-1.93c.2-.26.38-.52.54-.78l-.79-.14c-.46.81-1.38,1.75-2.7,2.42.17.12.4.37.51.54Zm3.98-1.38c-.3.55-.7,1.03-1.19,1.44-.35-.35-.88-.75-1.36-1.04.15-.13.29-.26.43-.4h2.12Z"/><path class="bp" d="m233.36,196.07c-1.29-.04-2.21-.44-2.7-1.28v-3.32h-2.08v.74h1.33v2.65c-.46.47-.99.96-1.42,1.31l.42.74c.5-.5.97-.98,1.41-1.47.65.88,1.61,1.3,3.04,1.34,1.18.05,3.45.03,4.64-.02.04-.22.16-.58.25-.76-1.28.1-3.73.12-4.9.06Z"/><path class="bp" d="m243.11,193.11c-.2-.26-1.14-1.2-1.44-1.47v-.64h1.33v-.75h-1.33v-1.79c.5-.12.97-.26,1.35-.42l-.56-.61c-.77.36-2.16.65-3.36.86.1.18.2.43.24.61.49-.07,1.03-.16,1.55-.26v1.62h-1.73v.75h1.62c-.42,1.21-1.16,2.59-1.83,3.34.14.18.33.51.4.73.55-.66,1.1-1.71,1.54-2.78v4.68h.77v-4.55c.36.45.8,1.02.97,1.32l.46-.62Z"/><path class="bp" d="m236.31,191.92h1.79v-.59h-4.25c.1-.18.19-.37.27-.56h3.55v-1.92h-1.95v-.58h2.35v-.59h-6.9v.59h2.14v.58h-1.78v1.92h1.83c-.09.19-.19.38-.3.56h-2.01v.59h1.56c-.5.56-1.14,1.01-1.86,1.33.17.12.43.38.53.51.46-.23.89-.52,1.29-.86v.1h3v.67h-3.12v1.03c0,.71.32.86,1.45.86h2.44c.83,0,1.07-.22,1.15-1.17-.19-.04-.46-.13-.62-.23-.04.74-.14.83-.6.83h-2.33c-.64,0-.76-.04-.76-.3v-.53h3.08v-1.45c.48.45,1.05.84,1.61,1.08.11-.18.32-.42.46-.55-.72-.27-1.47-.76-2-1.32Zm-2.36-1.67v-.89h1.12v.89h-1.12Zm2.98-.89v.89h-1.21v-.89h1.21Zm-2.98-1.1h1.12v.58h-1.12v-.58Zm-1.72,1.1h1.09v.89h-1.09v-.89Zm.73,3.16c.18-.19.35-.39.51-.6h2.06c.15.21.32.41.52.6h-3.09Z"/><path class="bp" d="m248.3,192.23l-.15.03h-1.95c.23-.28.43-.57.6-.87l-.8-.14c-.52.93-1.57,1.99-3.13,2.71.17.12.4.37.51.55.37-.19.72-.4,1.03-.62.54.33,1.12.77,1.51,1.15-.92.63-2.04,1.05-3.22,1.27.14.17.32.48.4.68,2.56-.58,4.8-1.88,5.7-4.55l-.51-.22Zm-1.79,2.37c-.39-.37-.98-.8-1.52-1.12.22-.17.41-.36.6-.54h2.17c-.3.65-.73,1.2-1.25,1.66Z"/><path class="bp" d="m221.31,191.91c-.45-.33-1.69-1.09-2.31-1.43l-.48.73c.64.33,1.78,1.07,2.3,1.44l.49-.74Z"/><path class="bp" d="m209.73,191.64c-.6,0-1.15-.03-1.48-.06v1.03c.34-.02.9-.04,1.48-.04h5.8c.46,0,.91.03,1.13.04v-1.03c-.24.02-.61.06-1.14.06h-5.79Z"/><path class="bp" d="m222.55,194.43c-1.08.61-2.39,1.02-3.55,1.22l.5.87c.97-.2,2.43-.7,3.5-1.32,1.69-.98,3.15-2.35,4.07-3.77l-.52-.87c-.86,1.49-2.24,2.86-3.99,3.86Z"/><path class="bp" d="m225.9,188.02c.35.46.72,1.08.99,1.63l.6-.27c-.25-.49-.73-1.25-1.01-1.62l-.58.26Z"/><g shape-rendering="crispEdges"><path class="bn" d="m211.06,148h32.88c1.69,0,3.06,1.37,3.06,3.07v26.86c0,1.7-1.37,3.07-3.06,3.07h-32.88c-1.69,0-3.06-1.37-3.06-3.07v-26.86c0-1.7,1.37-3.07,3.06-3.07Z"/><path class="cg" d="m243.94,150c.58,0,1.06.48,1.06,1.07v26.86c0,.59-.47,1.07-1.06,1.07h-32.88c-.58,0-1.06-.48-1.06-1.07v-26.86c0-.59.47-1.07,1.06-1.07h32.88m0-2h-32.88c-1.69,0-3.06,1.37-3.06,3.07v26.86c0,1.7,1.37,3.07,3.06,3.07h32.88c1.69,0,3.06-1.37,3.06-3.07v-26.86c0-1.7-1.37-3.07-3.06-3.07h0Z"/></g><path class="bm" d="m208,154.75h39"/><circle class="bq" cx="211.75" cy="151.75" r=".75"/><circle class="bq" cx="214" cy="151.75" r=".75"/><circle class="bq" cx="216.25" cy="151.75" r=".75"/><g class="ct"><path class="bk" d="m235,148v12c0,1.66-1.34,3-3,3h-24v6h29.94c1.69,0,3.06-1.37,3.06-3.06v-17.94h-6Z"/></g><g shape-rendering="crispEdges"><path class="bn" d="m202.06,133h32.88c1.69,0,3.06,1.37,3.06,3.07v26.86c0,1.7-1.37,3.07-3.06,3.07h-32.88c-1.69,0-3.06-1.37-3.06-3.07v-26.86c0-1.7,1.37-3.07,3.06-3.07Z"/><path class="cj" d="m234.94,135c.58,0,1.06.48,1.06,1.07v26.86c0,.59-.47,1.07-1.06,1.07h-32.88c-.58,0-1.06-.48-1.06-1.07v-26.86c0-.59.47-1.07,1.06-1.07h32.88m0-2h-32.88c-1.69,0-3.06,1.37-3.06,3.07v26.86c0,1.7,1.37,3.07,3.06,3.07h32.88c1.69,0,3.06-1.37,3.06-3.07v-26.86c0-1.7-1.37-3.07-3.06-3.07h0Z"/></g><path class="bm" d="m199,139.75h39"/><circle class="bq" cx="202.75" cy="136.75" r=".75"/><circle class="bq" cx="205" cy="136.75" r=".75"/><circle class="bq" cx="207.25" cy="136.75" r=".75"/><rect class="bl" x="191" y="133" width="64" height="64"/><circle class="bn" cx="303" cy="157" r="24"/><path class="ci" d="m292.22,167.24c2.76,3.33,6.57,5.16,10.78,5.16s7.91-1.87,10.76-5.15c3.72,1.08,5.84,2.86,5.84,4.95,0,.22,0,.5-.06.77-4.25,4.47-10.27,7.03-16.54,7.03s-12.29-2.56-16.54-7.03c-.06-.27-.06-.56-.06-.77,0-2.23,2.06-3.98,5.82-4.96m21.18-1.12c-2.56,3.2-6.24,5.28-10.4,5.28s-7.84-1.92-10.4-5.28c-5.6,1.28-7.2,3.84-7.2,6.08,0,.32,0,.8.16,1.28,4.32,4.64,10.56,7.52,17.44,7.52s13.12-2.88,17.44-7.52c.16-.48.16-.96.16-1.28,0-2.08-1.6-4.64-7.2-6.08h0Z"/><path class="ba" d="m295,152.2c0,6.24,3.52,11.2,8,11.2s8-4.96,8-11.2c0-4.48-3.52-8-8-8s-8,3.52-8,8Z"/><path class="ch" d="m303,135c12.13,0,22,9.87,22,22s-9.87,22-22,22-22-9.87-22-22,9.87-22,22-22m0-2c-13.25,0-24,10.75-24,24s10.75,24,24,24,24-10.75,24-24-10.75-24-24-24h0Z"/><path class="bp" d="m280.19,187.37c-.65,0-1.18.53-1.18,1.18,0,.12.02.23.05.33-.12.02-.24.03-.35.03h-5.29c-.35,0-.77-.04-1.06-.07v.94c.26-.02.62-.04,1.05-.04h5.41c-.15,1.01-.63,2.49-1.38,3.44-.89,1.13-2.07,2.03-4.12,2.54l.72.79c1.93-.61,3.19-1.58,4.15-2.83.84-1.08,1.35-2.79,1.58-3.9,0-.04.02-.08.03-.12.12.04.25.07.39.07.65,0,1.18-.53,1.18-1.18s-.53-1.18-1.18-1.18Zm0,1.88c-.39,0-.7-.31-.7-.7s.31-.7.7-.7.7.32.7.7-.32.7-.7.7Z"/><path class="bp" d="m290.63,188.91c-.33.01-.71.01-.93.01h-5.67c-.25,0-.53,0-.94-.02.01.26.01.58.01.82v5.21c0,.37-.02,1.14-.02,1.28h.9c0-.08,0-.33,0-.6h5.76c0,.28-.01.53-.02.6h.92c-.01-.12-.02-.94-.02-1.28v-5.21c0-.26,0-.56.02-.81Zm-.9.84v5.03h-5.77v-5.03h5.77Z"/><path class="bp" d="m307.55,191.82c-.87.53-2.42,1.27-3.81,1.61l.41.78c1.19-.37,2.42-.92,3.31-1.4v3.24c0,.32-.03.76-.05.92h.98c-.04-.16-.05-.6-.05-.92v-3.76c.95-.63,1.85-1.4,2.39-1.97l-.65-.63c-.55.67-1.52,1.54-2.51,2.14Z"/><path class="bp" d="m326.42,189.02c0,1.18,0,3.28-.32,4.26-.32,1.02-.94,1.96-1.84,2.6l.8.53c.89-.74,1.56-1.76,1.88-2.89.29-1.06.32-3.33.32-4.5,0-.31.04-.63.05-.75h-.97c.05.22.07.45.07.76Z"/><path class="bp" d="m333.13,192.49c-.8,1.19-2.1,2.15-3.08,2.6v-6.08c0-.4.04-.71.05-.79h-.97c0,.08.05.38.05.78v6.33c0,.21-.03.43-.07.59l.56.46c.08-.05.19-.15.37-.23,1.22-.61,2.68-1.69,3.6-2.93l-.51-.73Z"/><path class="bp" d="m315.57,191.63c-.6,0-1.15-.03-1.48-.06v1.03c.34-.02.9-.04,1.48-.04h5.8c.46,0,.91.03,1.13.04v-1.03c-.24.02-.61.06-1.14.06h-5.79Z"/><path class="bp" d="m299.99,188.77h-5.29c-.35,0-.77-.03-1.06-.07v.94c.26-.01.62-.03,1.05-.03h5.41c-.15,1.01-.63,2.48-1.38,3.44-.89,1.13-2.07,2.03-4.12,2.53l.72.79c1.93-.6,3.19-1.58,4.15-2.82.84-1.09,1.35-2.79,1.58-3.9.04-.21.08-.38.16-.53l-.64-.41c-.2.04-.41.05-.57.05Z"/><rect class="bl" x="271" y="133" width="64" height="64"/><g class="cu"><path class="bn" d="m208.75,260.5c-.96,0-1.75-.79-1.75-1.75s.79-1.75,1.75-1.75h3.75c.96,0,1.75.79,1.75,1.75s-.79,1.75-1.75,1.75h-3.75Z"/><path class="br" d="m212.5,257.5c.69,0,1.25.56,1.25,1.25s-.56,1.25-1.25,1.25h-3.75c-.69,0-1.25-.56-1.25-1.25s.56-1.25,1.25-1.25h3.75m0-1h-3.75c-1.24,0-2.25,1.01-2.25,2.25s1.01,2.25,2.25,2.25h3.75c1.24,0,2.25-1.01,2.25-2.25s-1.01-2.25-2.25-2.25h0Z"/><path class="bn" d="m233.5,260.5c-.96,0-1.75-.79-1.75-1.75s.79-1.75,1.75-1.75h3.75c.96,0,1.75.79,1.75,1.75s-.79,1.75-1.75,1.75h-3.75Z"/><path class="br" d="m237.25,257.5c.69,0,1.25.56,1.25,1.25s-.56,1.25-1.25,1.25h-3.75c-.69,0-1.25-.56-1.25-1.25s.56-1.25,1.25-1.25h3.75m0-1h-3.75c-1.24,0-2.25,1.01-2.25,2.25s1.01,2.25,2.25,2.25h3.75c1.24,0,2.25-1.01,2.25-2.25s-1.01-2.25-2.25-2.25h0Z"/><path class="at" d="m205.75,213.38l17.25,6.38,13.5-6.38"/><rect class="bn" x="199" y="219.75" width="48" height="39" rx="9" ry="9"/><path class="bu" d="m238,221.75c3.86,0,7,3.14,7,7v21c0,3.86-3.14,7-7,7h-30c-3.86,0-7-3.14-7-7v-21c0-3.86,3.14-7,7-7h30m0-2h-30c-4.97,0-9,4.03-9,9v21c0,4.97,4.03,9,9,9h30c4.97,0,9-4.03,9-9v-21c0-4.97-4.03-9-9-9h0Z"/><path class="cb" d="m209.5,253.38c.28,0,.5.22.5.5s-.22.5-.5.5-.5-.22-.5-.5.22-.5.5-.5m0-1c-.83,0-1.5.67-1.5,1.5s.67,1.5,1.5,1.5,1.5-.67,1.5-1.5-.67-1.5-1.5-1.5h0Z"/><path class="by" d="m235.75,253.38c.28,0,.5.22.5.5s-.22.5-.5.5-.5-.22-.5-.5.22-.5.5-.5m0-1c-.83,0-1.5.67-1.5,1.5s.67,1.5,1.5,1.5,1.5-.67,1.5-1.5-.67-1.5-1.5-1.5h0Z"/><path class="au" d="m217,253.88h11.62"/><path class="aw" d="m203.5,234l1.51-1.13c.49-.36,1.15-.4,1.67-.09l.38.23c.57.33,1.28.26,1.77-.17l.26-.23c.49-.43,1.21-.5,1.77-.17l.38.23c.53.31,1.19.27,1.67-.09l.62-.46c.53-.4,1.26-.4,1.79,0h0c.53.4,1.26.4,1.79,0l.53-.4c.53-.4,1.26-.4,1.79,0h0c.53.4,1.26.4,1.79,0l.57-.42c.51-.38,1.2-.38,1.71,0h0c.54.4,1.3.37,1.81-.07l.21-.19c.49-.43,1.21-.5,1.77-.17l.3.18c.57.33,1.28.26,1.77-.17l.26-.23c.49-.43,1.21-.5,1.77-.17l.3.18c.57.33,1.28.26,1.77-.17l.26-.23c.49-.43,1.21-.5,1.77-.17l.29.17c.56.33,1.28.22,1.71-.26h0c.44-.48,1.15-.59,1.71-.26l.63.37c.38.22.85.27,1.27.13l1.34-.47"/><path class="av" d="m203.5,237l1.51-1.13c.49-.36,1.15-.4,1.67-.09l.38.23c.57.33,1.28.26,1.77-.17l.26-.23c.49-.43,1.21-.5,1.77-.17l.38.23c.53.31,1.19.27,1.67-.09l.62-.46c.53-.4,1.26-.4,1.79,0h0c.53.4,1.26.4,1.79,0l.53-.4c.53-.4,1.26-.4,1.79,0h0c.53.4,1.26.4,1.79,0l.57-.42c.51-.38,1.2-.38,1.71,0h0c.54.4,1.3.37,1.81-.07l.21-.19c.49-.43,1.21-.5,1.77-.17l.3.18c.57.33,1.28.26,1.77-.17l.26-.23c.49-.43,1.21-.5,1.77-.17l.3.18c.57.33,1.28.26,1.77-.17"/><path class="bs" d="m238,224.5c2.34,0,4.25,1.91,4.25,4.25v16.5c0,2.34-1.91,4.25-4.25,4.25h-30c-2.34,0-4.25-1.91-4.25-4.25v-16.5c0-2.34,1.91-4.25,4.25-4.25h30m0-1h-30c-2.9,0-5.25,2.35-5.25,5.25v16.5c0,2.9,2.35,5.25,5.25,5.25h30c2.9,0,5.25-2.35,5.25-5.25v-16.5c0-2.9-2.35-5.25-5.25-5.25h0Z"/></g><path class="bp" d="m218.6,275.91l.48-.62c-.24-.31-.6-.69-1.02-1.07.48-1.2.78-2.74.9-4.7l-.46-.07-.13.02h-1.25c.15-.73.29-1.45.41-2.1l-.76-.07c-.11.66-.24,1.41-.39,2.18h-1.06v.74h.91c-.26,1.29-.54,2.56-.78,3.45l.63.39c.04-.15.08-.31.12-.47.32.25.64.52.94.79-.46.91-1.04,1.58-1.75,1.99.17.16.38.44.49.63.75-.49,1.37-1.16,1.85-2.07.35.35.66.69.87.99Zm-2.22-3.05c.19-.82.39-1.73.59-2.65h1.21c-.12,1.37-.37,2.53-.73,3.48-.35-.29-.72-.58-1.07-.83Z"/><path class="bp" d="m222.75,273.94h2.25v-.69h-2.7v-.94h1.64v-3.18h1.07v-.69h-1.07v-1.16h-.75v1.16h-2.51v-1.16h-.74v1.16h-1.11v.69h1.11v3.18h1.59v.94h-2.62v.69h2.15c-.61.91-1.59,1.76-2.56,2.19.17.15.42.43.55.62.91-.49,1.83-1.35,2.48-2.32v2.57h.77v-2.62c.62.92,1.51,1.81,2.3,2.31.13-.2.38-.49.56-.62-.85-.44-1.8-1.28-2.4-2.13Zm.43-4.8v.94h-2.51v-.94h2.51Zm-2.51,1.56h2.51v.96h-2.51v-.96Z"/><path class="bp" d="m232.87,270.18h2.66v-.76h-3.17v-2.09h-.77v2.09h-2.98v.76h2.5c-.65,1.8-1.77,3.6-2.92,4.53.18.13.44.4.56.6,1.13-1.02,2.15-2.77,2.83-4.62v3.63h-1.74v.72h1.74v1.91h.77v-1.91h1.71v-.72h-1.71v-3.69c.65,1.85,1.67,3.64,2.78,4.66.15-.21.41-.49.6-.62-1.16-.93-2.24-2.71-2.87-4.48Z"/><path class="bp" d="m228.85,267.55l-.75-.22c-.52,1.59-1.38,3.18-2.32,4.21.15.19.38.6.46.78.31-.36.62-.78.91-1.23v5.9h.75v-7.21c.36-.71.69-1.47.95-2.23Z"/><rect class="bl" x="191" y="213" width="64" height="64"/><path class="bn" d="m309,244.91s5.46,10.83,9.1,14.47c3.64,3.64,7.28,0,7.28,0,0,0,3.64-3.64,0-7.28-2.46-2.46-14.47-9.1-14.47-9.1l-1.91,1.91Z"/><path class="bx" d="m311.67,245.72c4.58,2.59,10.85,6.35,12.3,7.8,1.97,1.97.65,3.78.01,4.44-.3.29-1.32,1.04-2.37,1.04-.71,0-1.4-.34-2.09-1.03-2.36-2.36-5.91-8.6-7.84-12.25m-.76-2.72l-1.91,1.91s5.46,10.83,9.1,14.47c1.21,1.21,2.43,1.62,3.51,1.62,2.16,0,3.78-1.62,3.78-1.62,0,0,3.64-3.64,0-7.28-2.46-2.46-14.47-9.1-14.47-9.1h0Z"/><path class="bn" d="m298.5,252c10.77,0,19.5-8.73,19.5-19.5s-8.73-19.5-19.5-19.5-19.5,8.73-19.5,19.5,8.73,19.5,19.5,19.5Z"/><path class="bv" d="m298.5,215c9.65,0,17.5,7.85,17.5,17.5s-7.85,17.5-17.5,17.5-17.5-7.85-17.5-17.5,7.85-17.5,17.5-17.5m0-2c-10.77,0-19.5,8.73-19.5,19.5s8.73,19.5,19.5,19.5,19.5-8.73,19.5-19.5-8.73-19.5-19.5-19.5h0Z"/><path class="at" d="m286.44,226.22c2.26-4.35,6.81-7.31,12.06-7.31"/><path class="at" d="m284.91,232.5c0-1.4.21-2.75.6-4.02"/><path class="bp" d="m329.45,270.55c-.58-.58-1.94-1.68-2.68-2.18l-.61.64c.79.52,2.1,1.66,2.64,2.21l.65-.68Z"/><path class="bp" d="m319.16,269.57c-.46-.34-1.68-1.15-2.3-1.5l-.48.72c.62.35,1.77,1.12,2.27,1.5l.51-.72Z"/><path class="bp" d="m280.56,270.41v-.54c.31.21.62.4.92.56.11-.21.27-.51.42-.69-1.11-.49-2.29-1.44-3.04-2.49h-.73c-.53.89-1.55,1.85-2.64,2.43v-.18h-1.15v-2.27h-.73v2.27h-1.5v.75h1.41c-.32,1.45-.98,3.12-1.64,4.01.13.18.32.48.41.69.49-.68.95-1.8,1.31-2.95v4.94h.73v-4.99c.32.53.69,1.2.86,1.54l.44-.62c-.19-.29-1-1.46-1.3-1.83v-.79h1.15v-.09c.06.11.12.21.16.3.3-.16.6-.35.89-.56v.5h1.61v.97h-2.29v2.74h2.14c-.28.88-1.01,1.7-2.87,2.29.14.13.37.42.43.59,1.82-.6,2.67-1.48,3.04-2.43.63,1.33,1.52,1.95,2.78,2.43.08-.23.29-.5.46-.67-1.22-.41-2.07-.94-2.68-2.22h2.09v-2.74h-2.38v-.97h1.69Zm-4.01,3.05v-1.45h1.59v.9c0,.18,0,.37-.03.55h-1.57Zm3.97-1.45v1.45h-1.67c.02-.18.02-.35.02-.53v-.92h1.65Zm-2-4.07c.45.62,1.13,1.26,1.85,1.78h-3.6c.72-.55,1.35-1.19,1.76-1.78Z"/><path class="bp" d="m322.36,269.87c-.24-.51-.72-1.26-.98-1.65l-.59.25c.35.48.71,1.11.97,1.67l.6-.27Z"/><path class="bp" d="m308.33,270.55c-.58-.58-1.94-1.68-2.68-2.18l-.61.64c.79.52,2.1,1.66,2.64,2.21l.65-.68Z"/><path class="bp" d="m317.58,271.87c-.45-.33-1.69-1.09-2.31-1.43l-.48.73c.64.33,1.78,1.07,2.3,1.44l.49-.74Z"/><path class="bp" d="m318.82,274.39c-1.08.61-2.39,1.02-3.55,1.22l.5.87c.97-.2,2.43-.7,3.5-1.32,1.69-.98,3.15-2.35,4.07-3.77l-.52-.87c-.86,1.49-2.24,2.86-3.99,3.86Z"/><path class="bp" d="m308.96,273.91c-1,.62-2.38,1.27-4.21,1.54l.55.87c1.76-.33,3.09-.98,4.16-1.65,1.59-1,2.82-2.44,3.54-3.75l-.51-.91c-.61,1.31-1.89,2.87-3.53,3.9Z"/><path class="bp" d="m322.17,267.98c.35.46.72,1.08.99,1.63l.6-.27c-.25-.49-.73-1.25-1.01-1.62l-.58.26Z"/><path class="bp" d="m333.6,270.01c-.61,1.31-1.89,2.87-3.53,3.9-1,.62-2.38,1.27-4.21,1.54l.55.87c1.76-.33,3.09-.98,4.16-1.65,1.59-1,2.82-2.44,3.54-3.75l-.51-.91Z"/><path class="bp" d="m290.8,274.25c.25.2.47.39.63.56l.56-.49c-.59-.56-1.76-1.37-2.69-1.92l-.53.42c.39.23.82.52,1.22.81-1.2.02-2.4.04-3.52.06,1.07-.67,2.23-1.49,3.13-2.23l-.72-.39c-.59.53-1.42,1.17-2.26,1.75-.27-.21-.62-.44-.99-.66.56-.41,1.18-.92,1.71-1.41l-.35-.17h4.18v1.3h.78v-1.99h-4.18v-1.01h4.09v-.7h-4.09v-.94h-.78v.94h-4.05v.7h4.05v1.01h-4.09v1.99h.75v-1.3h2.77c-.38.41-.9.87-1.38,1.25-.19-.1-.37-.2-.54-.28l-.53.45c.68.34,1.48.84,2.01,1.26-.25.16-.5.32-.74.46-.92,0-1.75.01-2.42.01l.04.73c1.11-.01,2.56-.05,4.13-.09v2.61h.79v-2.63c.99-.03,2.01-.06,3.01-.09Z"/><path class="bp" d="m298.39,274.79v-4.87h2.52c.31,0,.64.02.91.04v-.92c-.25.03-.58.05-.91.05h-5.8c-.22,0-.61-.02-.89-.05v.92c.26-.02.68-.04.89-.04h2.38v4.87h-2.98c-.3,0-.62-.02-.93-.06v.95c.32-.02.64-.03.93-.03h6.98c.2,0,.59,0,.87.03v-.95c-.26.02-.55.06-.87.06h-3.1Z"/><path class="bp" d="m282.6,276.28c.19.14.49.41.62.56.92-.45,2.01-1.18,2.71-1.91l-.75-.27c-.63.62-1.65,1.24-2.59,1.63Z"/><path class="bp" d="m288.8,275.08c.93.48,2.07,1.21,2.62,1.73l.65-.48c-.6-.52-1.76-1.22-2.67-1.67l-.6.41Z"/><rect class="bl" x="271" y="213" width="64" height="64"/><rect class="bl" width="526" height="300"/><line class="at" x1="111" y1="96" x2="113" y2="96"/><line class="be" x1="117" y1="96" x2="155" y2="96"/><line class="at" x1="157" y1="96" x2="159" y2="96"/><circle class="bk" cx="107" cy="96" r="4"/><path class="ce" d="m107,93c1.65,0,3,1.35,3,3s-1.35,3-3,3-3-1.35-3-3,1.35-3,3-3m0-1c-2.21,0-4,1.79-4,4s1.79,4,4,4,4-1.79,4-4-1.79-4-4-4h0Z"/><polygon class="bk" points="167 96 159 92 159 100 167 96"/><path class="cf" d="m160,93.62l4.76,2.38-4.76,2.38v-4.76m-1-1.62v8l8-4-8-4h0Z"/><line class="at" x1="355" y1="96" x2="357" y2="96"/><line class="ax" x1="360.73" y1="96" x2="411.13" y2="96"/><line class="at" x1="413" y1="96" x2="415" y2="96"/><circle class="bk" cx="351" cy="96" r="4"/><path class="ca" d="m351,93c1.65,0,3,1.35,3,3s-1.35,3-3,3-3-1.35-3-3,1.35-3,3-3m0-1c-2.21,0-4,1.79-4,4s1.79,4,4,4,4-1.79,4-4-1.79-4-4-4h0Z"/><polygon class="bk" points="423 96 415 92 415 100 423 96"/><path class="bz" d="m416,93.62l4.76,2.38-4.76,2.38v-4.76m-1-1.62v8l8-4-8-4h0Z"/><line class="at" x1="111" y1="223" x2="113" y2="223"/><line class="be" x1="117" y1="223" x2="155" y2="223"/><line class="at" x1="157" y1="223" x2="159" y2="223"/><circle class="bk" cx="107" cy="223" r="4"/><path class="bt" d="m107,220c1.65,0,3,1.35,3,3s-1.35,3-3,3-3-1.35-3-3,1.35-3,3-3m0-1c-2.21,0-4,1.79-4,4s1.79,4,4,4,4-1.79,4-4-1.79-4-4-4h0Z"/><polygon class="bk" points="167 223 159 219 159 227 167 223"/><path class="bw" d="m160,220.62l4.76,2.38-4.76,2.38v-4.76m-1-1.62v8l8-4-8-4h0Z"/><line class="at" x1="355" y1="224" x2="357" y2="224"/><line class="ax" x1="360.73" y1="224" x2="411.13" y2="224"/><line class="at" x1="413" y1="224" x2="415" y2="224"/><circle class="bk" cx="351" cy="224" r="4"/><path class="cd" d="m351,221c1.65,0,3,1.35,3,3s-1.35,3-3,3-3-1.35-3-3,1.35-3,3-3m0-1c-2.21,0-4,1.79-4,4s1.79,4,4,4,4-1.79,4-4-1.79-4-4-4h0Z"/><polygon class="bk" points="423 224 415 220 415 228 423 224"/><path class="cc" d="m416,221.62l4.76,2.38-4.76,2.38v-4.76m-1-1.62v8l8-4-8-4h0Z"/></svg>