<?xml version="1.0" encoding="UTF-8"?><svg id="a" xmlns="http://www.w3.org/2000/svg" xmlns:xlink="http://www.w3.org/1999/xlink" viewBox="0 0 600 495"><defs><style>.s,.t,.u,.v,.w,.x,.y,.z,.aa,.ab,.ac,.ad,.ae,.af,.ag{stroke-linecap:round;}.s,.t,.u,.v,.w,.y,.z,.aa,.ab,.ac,.ad,.ae,.af{stroke-linejoin:round;}.s,.u{stroke:#1b1320;}.s,.ah{fill:#1b1320;}.t,.ad{stroke:#0d0910;}.t,.ai{fill:#0d0910;}.u,.aj{fill:#855fa0;}.v,.w,.ak,.x,.y,.z,.aa,.ab,.ac,.al,.ae,.af,.ag{fill:none;}.v,.y,.aa,.ae{stroke:#f6cd51;}.w,.x,.z,.ab,.ac,.al,.af,.ag{stroke:#855fa0;}.ak,.am,.ah,.ai,.an,.aj,.ao,.ap,.aq,.ar,.as,.at,.au,.av,.aw,.ax,.ay,.az,.ba,.bb{stroke-width:0px;}.x,.ac{stroke-width:2px;}.y{stroke-dasharray:0 0 3.73 3.73;}.z,.aa{stroke-dasharray:0 0 3.43 3.43;}.ab{stroke-dasharray:0 0 4 4;}.al{stroke-miterlimit:10;}.bc{clip-path:url(#k);}.bd{clip-path:url(#d);}.be{clip-path:url(#b);}.ad{fill:url(#r);}.ae,.af{stroke-dasharray:0 0 3.83 3.83;}.am{fill:#281d30;}.an{fill:#cebfd9;}.ao{fill:#f6cd51;}.ap{fill:url(#c);}.aq{fill:url(#e);}.ar{fill:url(#f);}.as{fill:url(#j);}.at{fill:url(#q);}.au{fill:url(#i);}.av{fill:url(#h);}.aw{fill:url(#m);}.ax{fill:url(#g);}.ay{fill:url(#o);}.az{fill:url(#p);}.ba{fill:url(#n);}.bb{fill:url(#l);}</style><clipPath id="b"><rect class="ak" x="96" y="160.02" width="64" height="64" rx="8" ry="8"/></clipPath><linearGradient id="c" x1="472" y1="14" x2="472" y2="495" gradientUnits="userSpaceOnUse"><stop offset="0" stop-color="#f6cd51"/><stop offset="1" stop-color="#f48e2a"/></linearGradient><clipPath id="d"><rect class="ak" x="376" y="140" width="64" height="64" rx="8" ry="8"/></clipPath><linearGradient id="e" x1="428" y1="380.02" x2="428" y2="388.02" gradientUnits="userSpaceOnUse"><stop offset="0" stop-color="#f6cd51"/><stop offset="1" stop-color="#f48e2a"/></linearGradient><linearGradient id="f" x1="516" x2="516" xlink:href="#e"/><linearGradient id="g" x1="408" y1="316.02" x2="408" y2="324.02" xlink:href="#e"/><linearGradient id="h" x1="536" y1="316.02" x2="536" y2="324.02" xlink:href="#e"/><linearGradient id="i" x1="408" y1="236.02" x2="408" y2="244.02" xlink:href="#e"/><linearGradient id="j" x1="407.98" y1="200" x2="407.98" y2="208" xlink:href="#e"/><clipPath id="k"><rect class="ak" x="510" y="140" width="52" height="64" rx="8" ry="8"/></clipPath><linearGradient id="l" x1="536.01" y1="236.02" x2="536.01" y2="244.02" xlink:href="#e"/><linearGradient id="m" x1="535.99" y1="200" x2="535.99" y2="208" xlink:href="#e"/><linearGradient id="n" x1="536" y1="124" x2="536" y2="132" xlink:href="#e"/><linearGradient id="o" x1="408" y1="124" x2="408" y2="132" xlink:href="#e"/><linearGradient id="p" x1="440" y1="76" x2="440" y2="84" xlink:href="#e"/><linearGradient id="q" x1="504" y1="76" x2="504" y2="84" xlink:href="#e"/><linearGradient id="r" x1="472" y1="369.88" x2="472" y2="415.52" xlink:href="#c"/></defs><rect class="am" x=".5" y="14.5" width="255" height="480" rx="15.5" ry="15.5"/><path class="aj" d="m240,15c8.27,0,15,6.73,15,15v449c0,8.27-6.73,15-15,15H16c-8.27,0-15-6.73-15-15V30c0-8.27,6.73-15,15-15h224m0-1H16C7.16,14,0,21.16,0,30v449c0,8.84,7.16,16,16,16h224c8.84,0,16-7.16,16-16V30c0-8.84-7.16-16-16-16h0Z"/><rect class="aj" x="90" width="76" height="28" rx="4" ry="4"/><path class="ai" d="m125.26,18.06c-.4,0-.62-.29-.62-.7,0-1.66.53-4.02.53-5.66,0-1.34-.78-2.37-2.51-2.37-1.55,0-3.39,1.29-4.65,2.38.01-.12.02-.23.03-.35.27-.42.6-.93.81-1.21l-.59-.77c.13-1,.25-1.82.35-2.27l-2.34-.06c.1.5.08.98.08,1.42,0,.17-.03.64-.06,1.24-.68.1-1.38.18-1.85.2-.58.03-.94.03-1.39.02l.21,2.06c.9-.14,2.12-.29,2.91-.39-.03.37-.05.75-.08,1.11-.91,1.34-2.53,3.47-3.43,4.59l1.25,1.76c.55-.76,1.34-1.92,2.02-2.93-.03,1.34-.04,2.27-.05,3.51,0,.26-.02.82-.05,1.18h2.19c-.03-.35-.1-.94-.11-1.23-.1-1.49-.1-2.85-.1-4.14,0-.41.01-.85.03-1.3,1.31-1.43,3.04-2.9,4.22-2.9.69,0,1.09.38,1.09,1.17,0,1.47-.58,3.81-.58,5.55,0,1.55.8,2.42,2,2.42,1.31,0,2.27-.51,3.02-1.2l-.27-2.24c-.72.72-1.47,1.14-2.06,1.14Z"/><path class="ai" d="m103.84,18.54c-2.3,0-3.3-.75-3.3-1.76,0-.54.13-1.06.27-1.63l-2.1-.19c-.11.61-.32,1.39-.32,2.3,0,2.21,1.86,3.42,5.5,3.42,2.24,0,4.16-.21,5.57-.53l-.02-2.26c-1.42.4-3.47.64-5.62.64Z"/><path class="ai" d="m157.62,10.96l-1.15.53c.51.7.88,1.31,1.31,2.18l1.2-.58c-.34-.62-.94-1.57-1.36-2.13Z"/><path class="ai" d="m108.46,10.48v-2.13c-1.22.13-3.06.22-4.62.22-1.7,0-3.18-.06-4.37-.19v2.11c1.31.1,2.7.18,4.37.18,1.54,0,3.5-.1,4.62-.19Z"/><path class="ai" d="m137.43,14.07c1.53-.05,2.78-.15,4.22-.31l.02-1.89c-1.3.17-2.65.31-4.27.39,0-.5,0-1.08,0-1.65,1.54-.07,2.99-.21,4.06-.35l.02-1.82c-1.41.22-2.74.34-4.05.41,0-.25.01-.48.02-.64.02-.42.06-.82.11-1.14h-2.18c.06.3.1.8.1,1.09,0,.2,0,.46,0,.74-.2,0-.4,0-.61,0-.98,0-2.82-.16-3.95-.35l.03,1.84c1.06.13,2.91.27,3.94.27.19,0,.39,0,.58,0,0,.55,0,1.12,0,1.65-.26,0-.51,0-.78,0-.85,0-2.8-.11-3.86-.3l.03,1.89c1.06.13,2.86.21,3.81.21.29,0,.56,0,.83,0,.02.5.04,1.02.06,1.52-.33-.03-.66-.06-1-.06-2.45,0-3.94,1.14-3.94,2.75,0,1.7,1.34,2.67,3.9,2.67,2.1,0,3.14-1.06,3.14-2.43,0-.16,0-.36-.01-.57,1.28.58,2.38,1.41,3.23,2.21l1.15-1.79c-.92-.77-2.46-1.82-4.48-2.41-.04-.64-.08-1.3-.1-1.93Zm-1.8,3.94c0,.93-.58,1.17-1.42,1.17-1.1,0-1.66-.37-1.66-.98,0-.56.62-.99,1.74-.99.46,0,.9.06,1.33.14,0,.26.02.5.02.66Z"/><path class="ai" d="m154.66,12.19c.5.7.83,1.34,1.25,2.21l1.2-.53c-.3-.64-.88-1.62-1.26-2.18l-1.18.5Z"/><path class="ai" d="m151.65,14.83c0-1.9,1.46-3.98,3.38-4.5.86-.19,2.24-.21,3.1-.21l-.02-2.06c-1.14.05-2.88.16-4.54.29-2.93.26-5.57.48-6.9.61-.3.03-.94.06-1.57.08l.21,2.19c1.84-.4,5.12-.75,6.61-.91-1.07.82-2.37,2.64-2.37,4.93,0,3.47,3.17,5.28,6.51,5.49l.75-2.19c-2.7-.13-5.17-1.09-5.17-3.71Z"/><rect class="ak" x="96" y="352.02" width="64" height="64"/><path class="s" d="m104.41,381.43c-2.44,0-4.41,1.99-4.41,4.44s1.45,9.09,5.81,9.09c3.21,10.72,8.92,20.57,22.19,20.57,13.27,0,18.98-9.85,22.19-20.57,4.36,0,5.81-6.63,5.81-9.09s-1.97-4.44-4.41-4.44c16.18-19.8-21.47-38.36-36.87-23.55-13.43,0-17.89,15.9-10.32,23.55Z"/><path class="u" d="m151.59,381.43c2.44,0,4.41,1.99,4.41,4.44s-1.45,9.09-5.81,9.09c-3.21,10.72-8.92,20.57-22.19,20.57-13.27,0-18.98-9.85-22.19-20.57-4.36,0-5.81-6.63-5.81-9.09s1.97-4.44,4.41-4.44c2.8-8.57,10.32-11.55,16.23-11.55,9.33,9.7,23.02-.05,30.96,11.55Z"/><circle class="ah" cx="120.5" cy="387.02" r="3"/><circle class="ah" cx="135.5" cy="387.02" r="3"/><circle class="ah" cx="127.98" cy="80" r="31"/><path class="aj" d="m127.98,50c16.54,0,30,13.46,30,30s-13.46,30-30,30-30-13.46-30-30,13.46-30,30-30m0-2c-17.67,0-32,14.33-32,32s14.33,32,32,32,32-14.33,32-32-14.33-32-32-32h0Z"/><path class="al" d="m127.98,111c9.33,0,16.9-13.88,16.9-31s-7.57-31-16.9-31-16.9,13.88-16.9,31,7.57,31,16.9,31Z"/><path class="w" d="m148.48,56.8c-5.5,4.8-12.6,7.7-20.5,7.7s-15-2.9-20.5-7.7"/><path class="w" d="m107.48,102.5c5.5-4.8,12.6-7.7,20.5-7.7s15,2.9,20.5,7.7"/><path class="w" d="m96.98,80h62"/><path class="w" d="m127.98,49v62"/><path class="an" d="m47.48,437.59c-3.92,0-7.01,3.02-7.01,6.5,0,2.66,1.42,4.29,2.86,4.29s2.75-1.7,3.73-4.98c.43-1.5.73-3.11.94-4.61,2.72.24,4.3,2.23,4.3,4.62,0,2.77-2.02,4.3-4.06,4.77-.38.08-.86.14-1.38.19l.74,1.18c3.81-.5,6.02-2.74,6.02-6.08s-2.38-5.89-6.13-5.89Zm-4.11,9.31c-.72,0-1.63-.9-1.63-2.91,0-2.18,1.88-4.81,4.94-5.2-.18,1.47-.48,3-.88,4.32-.82,2.7-1.68,3.79-2.43,3.79Z"/><path class="an" d="m36.43,436.39c.46.59.98,1.52,1.33,2.21l.86-.38c-.3-.59-.93-1.6-1.34-2.19l-.85.37Z"/><path class="an" d="m34.65,437.03c.45.61.98,1.58,1.3,2.24l.86-.4c-.32-.66-.9-1.62-1.3-2.21l-.86.37Z"/><path class="an" d="m74.55,444.26c-.54,1.33-1.46,3.01-2.46,4.35l1.36.58c.9-1.3,1.78-2.94,2.37-4.4.67-1.65,1.23-4.02,1.44-5.01.08-.34.19-.82.3-1.17l-1.42-.29c-.22,1.84-.88,4.27-1.58,5.94Z"/><path class="an" d="m68.55,435.8c.45.59.98,1.5,1.33,2.19l.85-.38c-.3-.59-.91-1.58-1.34-2.18l-.83.37Z"/><path class="an" d="m81.42,438.15l-1.3.43c.69,1.2,1.68,3.42,2.32,5.07.66,1.7,1.41,3.87,1.81,5.49l1.42-.45c-.43-1.46-1.28-3.9-1.92-5.49-.69-1.68-1.71-3.89-2.34-5.06Z"/><path class="an" d="m57.82,441.48c-.5,0-.96-.03-1.39-.08v1.33c.43-.03.91-.05,1.39-.05h4.79c-.04,1.51-.21,2.86-.92,3.97-.64,1.02-1.79,1.94-3.02,2.46l1.18.86c1.36-.69,2.56-1.84,3.15-2.91.63-1.2.88-2.66.94-4.38h4.34c.4,0,.91.02,1.26.05v-1.33c-.4.05-.93.08-1.26.08h-10.46Z"/><path class="an" d="m84.63,438.79c-.34-.64-.91-1.62-1.31-2.19l-.85.37c.43.61.98,1.57,1.28,2.21l.88-.38Z"/><path class="an" d="m170.2,439.42l.91-.83c-.53-.78-1.73-1.87-2.75-2.59l-.83.75c1.01.75,2.18,1.89,2.67,2.67Z"/><path class="an" d="m27.19,446.28c0-1.2.9-2.26,2.38-3.23,1.57-1.04,3.34-1.87,4.43-2.43.46-.24.86-.45,1.23-.67l-.64-1.17c-.34.29-.69.5-1.15.77-.87.48-2.33,1.18-3.73,2.03-.69-1.26-1.5-2.99-2.14-4.75l-1.26.54c.75,1.73,1.58,3.6,2.31,4.92-1.7,1.19-2.76,2.5-2.76,4.14,0,2.4,2.18,3.3,5.18,3.3,2,0,3.86-.18,5.06-.38l.02-1.44c-1.25.32-3.39.54-5.14.54-2.53,0-3.79-.83-3.79-2.16Z"/><path class="an" d="m173.54,445.27h2.69v2.61h1.09v-2.61h2.78v1.46c0,.21-.05.27-.26.27s-.88.02-1.63-.02c.14.27.29.69.34.99,1.07,0,1.74,0,2.16-.19.43-.18.54-.45.54-1.04v-7.09h-2.02c-.34-.2-.77-.42-1.25-.65,1.2-.6,2.41-1.39,3.27-2.2l-.74-.58-.26.06h-7.86v.96h6.71c-.64.46-1.43.92-2.2,1.27-.76-.33-1.54-.64-2.23-.88l-.77.67c.98.37,2.12.87,3.09,1.34h-4.61v8.29h1.14v-2.67Zm0-.93v-1.46h2.69v1.46h-2.69Zm3.78,0v-1.46h2.78v1.46h-2.78Zm2.78-2.35h-2.78v-1.41h2.78v1.41Zm-3.87-1.41v1.41h-2.69v-1.41h2.69Z"/><path class="an" d="m65.32,438.65c.45,0,1.01.03,1.49.06v-1.33c-.46.05-1.04.08-1.49.08h-5.55c-.51,0-.99-.03-1.44-.08v1.33c.42-.03.93-.06,1.47-.06h5.52Z"/><path class="an" d="m68.94,438.26c-.32-.64-.9-1.62-1.3-2.19l-.85.37c.43.61.98,1.57,1.28,2.21l.86-.38Z"/><path class="an" d="m219.41,438.31h2.35v-1.04h-2.35v-1.62h-1.12v1.62h-2.46v1.04h2.46v1.6h-3.04v1.04h1.9l-.78.19c.3.67.59,1.52.68,2.1h-1.58v1.04h2.82v1.74h-2.66v1.04h2.66v3.25h1.12v-3.25h2.56v-1.04h-2.56v-1.74h2.77v-1.04h-1.59c.29-.56.58-1.34.89-2.08l-.78-.21h1.68v-1.04h-2.96v-1.6Zm.87,4.93h-2.87l.62-.18c-.08-.55-.39-1.44-.74-2.11h3.13c-.18.62-.52,1.52-.78,2.1l.63.19Z"/><rect class="an" x="201.01" y="435.62" width="1.1" height="14.7"/><path class="an" d="m191,437.59c-3.92,0-7.01,3.02-7.01,6.5,0,2.66,1.42,4.29,2.86,4.29s2.75-1.7,3.73-4.98c.43-1.5.73-3.11.94-4.61,2.72.24,4.3,2.23,4.3,4.62,0,2.77-2.02,4.3-4.06,4.77-.38.08-.86.14-1.38.19l.74,1.18c3.81-.5,6.02-2.74,6.02-6.08s-2.38-5.89-6.13-5.89Zm-4.11,9.31c-.72,0-1.63-.9-1.63-2.91,0-2.18,1.88-4.81,4.94-5.2-.18,1.47-.48,3-.88,4.32-.82,2.7-1.68,3.79-2.43,3.79Z"/><path class="an" d="m199.03,442.84l.93.3c.37-1.2.64-3.06.69-4.3l-.9-.13c-.1,1.26-.35,3.02-.72,4.13Z"/><path class="an" d="m174.77,448.92c-1.89-.06-3.26-.61-4.05-1.79v-5.18h-3.47v1.12h2.34v4.14c-.83.66-1.77,1.35-2.54,1.83l.59,1.18c.91-.69,1.78-1.39,2.59-2.08.99,1.26,2.45,1.82,4.54,1.9,1.79.08,5.22.05,6.99-.03.06-.35.24-.91.38-1.18-1.92.13-5.62.18-7.38.1Z"/><path class="an" d="m211.51,442.68h-6.9v7.65h1.12v-2.5h5.78v1.15c0,.21-.06.27-.29.27-.22.02-.99.02-1.79-.02.14.3.3.75.35,1.04,1.14.02,1.86,0,2.3-.18.45-.18.58-.5.58-1.1v-6.32h-1.15Zm0,.93v1.18h-5.78v-1.18h5.78Zm-5.78,3.33v-1.22h5.78v1.22h-5.78Z"/><polygon class="an" points="209.22 439.7 213.05 439.7 213.05 438.82 209.22 438.82 209.22 437.8 213.45 437.8 213.45 436.89 209.22 436.89 209.22 435.62 208.04 435.62 208.04 436.89 203.94 436.89 203.94 437.8 208.04 437.8 208.04 438.82 204.33 438.82 204.33 439.7 208.04 439.7 208.04 440.82 203.45 440.82 203.45 441.74 213.91 441.74 213.91 440.82 209.22 440.82 209.22 439.7"/><path class="an" d="m227.58,447.31c.94-1.54,1.6-3.36,1.94-5.29l-.74-.27-.21.06h-4.59v-4.37h4.05v2c0,.18-.06.24-.32.26s-1.09.02-2.08-.02c.16.3.32.74.37,1.06,1.23,0,2.03-.02,2.53-.19.5-.18.62-.5.62-1.09v-3.09h-6.27v13.98h1.1v-.77c.27.21.6.53.77.79.82-.56,1.53-1.27,2.16-2.08.7.85,1.5,1.55,2.39,2.05.19-.3.56-.74.83-.98-.95-.46-1.81-1.18-2.55-2.06Zm-.73-.96c-.71-1.06-1.28-2.27-1.68-3.54h3.03c-.28,1.23-.72,2.44-1.34,3.54Zm-2.87,3.19v-6.73h.16c.48,1.67,1.18,3.23,2.06,4.54-.62.86-1.36,1.62-2.22,2.18Z"/><path class="an" d="m162.12,440.17h3.2v-1.15h-3.2v-3.25h-1.25v3.25h-4.56v-3.25h-1.23v3.25h-3.07v1.15h3.07v3.81h-3.71v1.17h14.53v-1.17h-3.78v-3.81Zm-5.81,0h4.56v3.81h-4.56v-3.81Z"/><path class="an" d="m203.06,437.98l-.8.32c.32.75.69,1.74.85,2.35l.83-.4c-.14-.59-.53-1.54-.88-2.27Z"/><path class="an" d="m112.31,443.77c1.13-1.44,2.13-3.32,2.69-4.71.08-.21.29-.56.38-.69l-.8-.62c-.26.08-.69.13-1.2.13h-6.18c-.5,0-1.41-.06-1.62-.1v1.44c.18-.02,1.04-.08,1.62-.08h6.24c-.42,1.33-1.58,3.23-2.67,4.46-1.65,1.82-4,3.74-6.59,4.74l1.02,1.07c2.37-1.08,4.52-2.82,6.25-4.68,1.63,1.48,3.33,3.35,4.4,4.77l1.1-.98c-1.03-1.26-2.99-3.32-4.66-4.76Z"/><path class="an" d="m125.8,444.12c0-1.89,1.39-4.34,3.68-5.07.82-.22,2.21-.26,3.14-.24l-.02-1.28c-1.07.03-2.56.13-4.32.27-2.94.26-5.97.54-6.99.66-.32.03-.83.06-1.44.08l.14,1.41c1.73-.37,5.81-.77,7.52-.94-1.46.86-2.98,2.91-2.98,5.39,0,3.58,3.36,5.15,6.32,5.26l.46-1.31c-2.59-.1-5.52-1.1-5.52-4.22Z"/><path class="an" d="m84.23,436.33c.45.59.98,1.5,1.33,2.19l.85-.38c-.29-.59-.91-1.58-1.33-2.18l-.85.37Z"/><path class="an" d="m100.89,437.54l-1.07-1.01c-1.1,1.34-2.7,2.72-4.38,3.78-1.78,1.1-4.21,2.24-6.98,2.98l.62,1.25c2.22-.69,4.41-1.65,6.1-2.6v5.92c0,.59-.05,1.39-.1,1.7h1.58c-.08-.3-.11-1.1-.11-1.7v-6.78c1.63-1.07,3.11-2.27,4.34-3.54Z"/><path class="an" d="m129.49,441.11c.48.67.93,1.49,1.3,2.26l.83-.37c-.35-.72-.96-1.71-1.33-2.24l-.8.35Z"/><path class="an" d="m151.57,449.51c.29.22.7.59.94.85,1.62-.93,3.44-2.4,4.58-3.81l-1.25-.48c-.9,1.2-2.69,2.59-4.27,3.44Z"/><path class="an" d="m159.99,446.66c1.52,1.14,3.46,2.72,4.42,3.68l1.14-.74c-1.02-.96-3.02-2.5-4.51-3.55l-1.04.61Z"/><path class="an" d="m145.46,442.58c1.18.99,1.76,2.18,1.76,3.25,0,1.66-1.55,2.72-3.98,2.72-1.82,0-2.7-.94-2.7-2.5,0-.4.04-.96.1-1.62.2,0,.4.02.59.02,1.07,0,2.06-.03,3.14-.14l.02-1.22c-1.12.16-2.22.19-3.33.19-.09,0-.2,0-.29,0,.1-.93.23-1.94.35-2.88.03,0,.07,0,.1,0,1.3,0,2.24-.05,3.26-.14l.03-1.22c-.94.14-2.04.21-3.25.21.09-.66.16-1.24.21-1.65.06-.35.11-.69.21-1.12l-1.42-.08c.03.29.03.58-.02,1.14-.04.46-.1,1.04-.17,1.67-1.19-.08-2.51-.28-3.51-.6l-.08,1.17c1.01.28,2.29.47,3.45.57-.12.95-.25,1.95-.36,2.88-1.13-.08-2.35-.26-3.41-.63l-.06,1.22c.97.3,2.15.47,3.35.56-.08.76-.13,1.42-.13,1.87,0,2.61,1.76,3.57,3.92,3.57,3.17,0,5.3-1.46,5.3-3.84,0-1.36-.54-2.48-1.65-3.7l-1.41.3Z"/><path class="an" d="m131.25,440.46c.5.67.98,1.47,1.36,2.24l.82-.4c-.37-.7-.99-1.68-1.39-2.21l-.78.37Z"/><rect class="ah" x="97" y="161.02" width="62" height="62" rx="7" ry="7"/><path class="aj" d="m152,162.02c3.31,0,6,2.69,6,6v48c0,3.31-2.69,6-6,6h-48c-3.31,0-6-2.69-6-6v-48c0-3.31,2.69-6,6-6h48m0-2h-48c-4.42,0-8,3.58-8,8v48c0,4.42,3.58,8,8,8h48c4.42,0,8-3.58,8-8v-48c0-4.42-3.58-8-8-8h0Z"/><g class="be"><path class="aj" d="m114.62,214.02c1.1,0,2,.9,2,2v9c0,1.1-.9,2-2,2h-10.62c-1.1,0-2-.9-2-2v-9c0-1.1.9-2,2-2h10.62m0-1h-10.62c-1.66,0-3,1.34-3,3v9c0,1.66,1.34,3,3,3h10.62c1.66,0,3-1.34,3-3v-9c0-1.66-1.34-3-3-3h0Z"/><path class="aj" d="m152,214.02c1.1,0,2,.9,2,2v9c0,1.1-.9,2-2,2h-10.62c-1.1,0-2-.9-2-2v-9c0-1.1.9-2,2-2h10.62m0-1h-10.62c-1.66,0-3,1.34-3,3v9c0,1.66,1.34,3,3,3h10.62c1.66,0,3-1.34,3-3v-9c0-1.66-1.34-3-3-3h0Z"/><path class="aj" d="m133.31,214.02c1.1,0,2,.9,2,2v9c0,1.1-.9,2-2,2h-10.62c-1.1,0-2-.9-2-2v-9c0-1.1.9-2,2-2h10.62m0-1h-10.62c-1.66,0-3,1.34-3,3v9c0,1.66,1.34,3,3,3h10.62c1.66,0,3-1.34,3-3v-9c0-1.66-1.34-3-3-3h0Z"/></g><path class="aj" d="m152,166.02c1.1,0,2,.9,2,2v18c0,1.1-.9,2-2,2h-48c-1.1,0-2-.9-2-2v-18c0-1.1.9-2,2-2h48m0-1h-48c-1.66,0-3,1.34-3,3v18c0,1.66,1.34,3,3,3h48c1.66,0,3-1.34,3-3v-18c0-1.66-1.34-3-3-3h0Z"/><path class="aj" d="m125,192.02c.55,0,1,.45,1,1v16c0,.55-.45,1-1,1h-22c-.55,0-1-.45-1-1v-16c0-.55.45-1,1-1h22m0-1h-22c-1.1,0-2,.9-2,2v16c0,1.1.9,2,2,2h22c1.1,0,2-.9,2-2v-16c0-1.1-.9-2-2-2h0Z"/><path class="aj" d="m153,192.02c.55,0,1,.45,1,1v16c0,.55-.45,1-1,1h-22c-.55,0-1-.45-1-1v-16c0-.55.45-1,1-1h22m0-1h-22c-1.1,0-2,.9-2,2v16c0,1.1.9,2,2,2h22c1.1,0,2-.9,2-2v-16c0-1.1-.9-2-2-2h0Z"/><rect class="ah" x="173" y="257.02" width="38" height="62" rx="5" ry="5"/><path class="aj" d="m206,258.02c2.21,0,4,1.79,4,4v52c0,2.21-1.79,4-4,4h-28c-2.21,0-4-1.79-4-4v-52c0-2.21,1.79-4,4-4h28m0-2h-28c-3.31,0-6,2.69-6,6v52c0,3.31,2.69,6,6,6h28c3.31,0,6-2.69,6-6v-52c0-3.31-2.69-6-6-6h0Z"/><path class="x" d="m172,270.02v4"/><path class="x" d="m172,279.02v4"/><path class="x" d="m212,273.02v8"/><path class="ag" d="m186,317.02h12"/><path class="x" d="m185,261.02h9"/><path class="x" d="m198,261.02h1"/><rect class="ak" x="160" y="256.02" width="64" height="64"/><line class="ac" x1="64" y1="305.02" x2="64" y2="319.02"/><line class="ac" x1="76" y1="319.02" x2="52" y2="319.02"/><rect class="ah" x="33" y="260.02" width="62" height="46" rx="5" ry="5"/><path class="aj" d="m90,261.02c2.21,0,4,1.79,4,4v36c0,2.21-1.79,4-4,4h-52c-2.21,0-4-1.79-4-4v-36c0-2.21,1.79-4,4-4h52m0-2h-52c-3.31,0-6,2.69-6,6v36c0,3.31,2.69,6,6,6h52c3.31,0,6-2.69,6-6v-36c0-3.31-2.69-6-6-6h0Z"/><path class="ac" d="m62,257.02h4c1.1,0,2,.9,2,2h-8c0-1.1.9-2,2-2Z"/><rect class="ak" x="32" y="256.02" width="64" height="64"/><polygon class="ai" points="124.81 144.52 131.19 144.52 128 150.91 124.81 144.52"/><path class="aj" d="m130.38,145.02l-2.38,4.76-2.38-4.76h4.76m1.62-1h0,0Zm0,0h-8l4,8,4-8h0Z"/><polygon class="ai" points="188.81 240.52 195.19 240.52 192 246.91 188.81 240.52"/><path class="aj" d="m194.38,241.02l-2.38,4.76-2.38-4.76h4.76m1.62-1h0,0Zm0,0h-8l4,8,4-8h0Z"/><polygon class="ai" points="60.81 240.52 67.19 240.52 64 246.91 60.81 240.52"/><path class="aj" d="m66.38,241.02l-2.38,4.76-2.38-4.76h4.76m1.62-1h0,0Zm0,0h-8l4,8,4-8h0Z"/><polygon class="ai" points="80.5 380.83 86.88 384.02 80.5 387.21 80.5 380.83"/><path class="aj" d="m81,381.64l4.76,2.38-4.76,2.38v-4.76m-1-1.62v8l8-4-8-4h0Z"/><polygon class="ai" points="169.12 384.02 175.5 380.83 175.5 387.21 169.12 384.02"/><path class="aj" d="m175,381.64v4.76l-4.76-2.38,4.76-2.38m1-1.62l-8,4,8,4v-8h0Z"/><path class="w" d="m92,192.02c-.67,0-1.34.02-2,.07"/><path class="ab" d="m86.04,192.66c-12.6,2.73-22.04,13.95-22.04,27.37v16"/><line class="w" x1="64" y1="238.02" x2="64" y2="240.02"/><path class="w" d="m164,192.02c.67,0,1.34.02,2,.07"/><path class="ab" d="m169.96,192.66c12.6,2.73,22.04,13.95,22.04,27.37v16"/><line class="w" x1="192" y1="238.02" x2="192" y2="240.02"/><path class="w" d="m176,384.02c.68,0,1.34-.04,2-.12"/><path class="af" d="m181.71,382.98c3.08-1.17,5.7-3.27,7.52-5.95,1.75-2.56,2.77-5.66,2.77-9v-40.09"/><line class="w" x1="192" y1="326.02" x2="192" y2="324.02"/><path class="w" d="m80,384.02c-.68,0-1.34-.04-2-.12"/><path class="af" d="m74.29,382.98c-3.08-1.17-5.7-3.27-7.52-5.95-1.75-2.56-2.77-5.66-2.77-9v-40.09"/><line class="w" x1="64" y1="326.02" x2="64" y2="324.02"/><line class="w" x1="128" y1="116.02" x2="128" y2="118.02"/><line class="z" x1="128" y1="121.45" x2="128" y2="140.31"/><line class="w" x1="128" y1="142.02" x2="128" y2="144.02"/><circle class="ai" cx="64" cy="320.02" r="3.5"/><path class="aj" d="m64,317.02c1.65,0,3,1.35,3,3s-1.35,3-3,3-3-1.35-3-3,1.35-3,3-3m0-1c-2.21,0-4,1.79-4,4s1.79,4,4,4,4-1.79,4-4-1.79-4-4-4h0Z"/><circle class="ai" cx="192" cy="320.02" r="3.5"/><path class="aj" d="m192,317.02c1.65,0,3,1.35,3,3s-1.35,3-3,3-3-1.35-3-3,1.35-3,3-3m0-1c-2.21,0-4,1.79-4,4s1.79,4,4,4,4-1.79,4-4-1.79-4-4-4h0Z"/><circle class="ai" cx="127.98" cy="112" r="3.5"/><path class="aj" d="m127.98,109c1.65,0,3,1.35,3,3s-1.35,3-3,3-3-1.35-3-3,1.35-3,3-3m0-1c-2.21,0-4,1.79-4,4s1.79,4,4,4,4-1.79,4-4-1.79-4-4-4h0Z"/><circle class="ai" cx="96" cy="192.02" r="3.5"/><path class="aj" d="m96,189.02c1.65,0,3,1.35,3,3s-1.35,3-3,3-3-1.35-3-3,1.35-3,3-3m0-1c-2.21,0-4,1.79-4,4s1.79,4,4,4,4-1.79,4-4-1.79-4-4-4h0Z"/><circle class="ai" cx="160" cy="192.02" r="3.5"/><path class="aj" d="m160,189.02c1.65,0,3,1.35,3,3s-1.35,3-3,3-3-1.35-3-3,1.35-3,3-3m0-1c-2.21,0-4,1.79-4,4s1.79,4,4,4,4-1.79,4-4-1.79-4-4-4h0Z"/><rect class="am" x="344" y="14" width="256" height="481" rx="16" ry="16"/><path class="ap" d="m584,15c8.27,0,15,6.73,15,15v449c0,8.27-6.73,15-15,15h-224c-8.27,0-15-6.73-15-15V30c0-8.27,6.73-15,15-15h224m0-1h-224c-8.84,0-16,7.16-16,16v449c0,8.84,7.16,16,16,16h224c8.84,0,16-7.16,16-16V30c0-8.84-7.16-16-16-16h0Z"/><circle class="ah" cx="471.98" cy="80" r="31"/><path class="aj" d="m471.98,50c16.54,0,30,13.46,30,30s-13.46,30-30,30-30-13.46-30-30,13.46-30,30-30m0-2c-17.67,0-32,14.33-32,32s14.33,32,32,32,32-14.33,32-32-14.33-32-32-32h0Z"/><path class="al" d="m471.98,111c9.33,0,16.9-13.88,16.9-31s-7.57-31-16.9-31-16.9,13.88-16.9,31,7.57,31,16.9,31Z"/><path class="w" d="m492.48,56.8c-5.5,4.8-12.6,7.7-20.5,7.7s-15-2.9-20.5-7.7"/><path class="w" d="m451.48,102.5c5.5-4.8,12.6-7.7,20.5-7.7s15,2.9,20.5,7.7"/><path class="w" d="m440.98,80h62"/><path class="w" d="m471.98,49v62"/><rect class="ah" x="377" y="141" width="62" height="62" rx="7" ry="7"/><path class="aj" d="m432,142c3.31,0,6,2.69,6,6v48c0,3.31-2.69,6-6,6h-48c-3.31,0-6-2.69-6-6v-48c0-3.31,2.69-6,6-6h48m0-2h-48c-4.42,0-8,3.58-8,8v48c0,4.42,3.58,8,8,8h48c4.42,0,8-3.58,8-8v-48c0-4.42-3.58-8-8-8h0Z"/><g class="bd"><path class="aj" d="m394.62,194c1.1,0,2,.9,2,2v9c0,1.1-.9,2-2,2h-10.62c-1.1,0-2-.9-2-2v-9c0-1.1.9-2,2-2h10.62m0-1h-10.62c-1.66,0-3,1.34-3,3v9c0,1.66,1.34,3,3,3h10.62c1.66,0,3-1.34,3-3v-9c0-1.66-1.34-3-3-3h0Z"/><path class="aj" d="m432,194c1.1,0,2,.9,2,2v9c0,1.1-.9,2-2,2h-10.62c-1.1,0-2-.9-2-2v-9c0-1.1.9-2,2-2h10.62m0-1h-10.62c-1.66,0-3,1.34-3,3v9c0,1.66,1.34,3,3,3h10.62c1.66,0,3-1.34,3-3v-9c0-1.66-1.34-3-3-3h0Z"/><path class="aj" d="m413.31,194c1.1,0,2,.9,2,2v9c0,1.1-.9,2-2,2h-10.62c-1.1,0-2-.9-2-2v-9c0-1.1.9-2,2-2h10.62m0-1h-10.62c-1.66,0-3,1.34-3,3v9c0,1.66,1.34,3,3,3h10.62c1.66,0,3-1.34,3-3v-9c0-1.66-1.34-3-3-3h0Z"/></g><path class="aj" d="m432,146c1.1,0,2,.9,2,2v18c0,1.1-.9,2-2,2h-48c-1.1,0-2-.9-2-2v-18c0-1.1.9-2,2-2h48m0-1h-48c-1.66,0-3,1.34-3,3v18c0,1.66,1.34,3,3,3h48c1.66,0,3-1.34,3-3v-18c0-1.66-1.34-3-3-3h0Z"/><path class="aj" d="m405,172c.55,0,1,.45,1,1v16c0,.55-.45,1-1,1h-22c-.55,0-1-.45-1-1v-16c0-.55.45-1,1-1h22m0-1h-22c-1.1,0-2,.9-2,2v16c0,1.1.9,2,2,2h22c1.1,0,2-.9,2-2v-16c0-1.1-.9-2-2-2h0Z"/><path class="aj" d="m433,172c.55,0,1,.45,1,1v16c0,.55-.45,1-1,1h-22c-.55,0-1-.45-1-1v-16c0-.55.45-1,1-1h22m0-1h-22c-1.1,0-2,.9-2,2v16c0,1.1.9,2,2,2h22c1.1,0,2-.9,2-2v-16c0-1.1-.9-2-2-2h0Z"/><rect class="ah" x="517" y="257.02" width="38" height="62" rx="5" ry="5"/><path class="aj" d="m550,258.02c2.21,0,4,1.79,4,4v52c0,2.21-1.79,4-4,4h-28c-2.21,0-4-1.79-4-4v-52c0-2.21,1.79-4,4-4h28m0-2h-28c-3.31,0-6,2.69-6,6v52c0,3.31,2.69,6,6,6h28c3.31,0,6-2.69,6-6v-52c0-3.31-2.69-6-6-6h0Z"/><path class="x" d="m516,270.02v4"/><path class="x" d="m516,279.02v4"/><path class="x" d="m556,273.02v8"/><path class="ag" d="m530,317.02h12"/><path class="x" d="m529,261.02h9"/><path class="x" d="m542,261.02h1"/><rect class="ak" x="504" y="256.02" width="64" height="64"/><line class="ac" x1="408" y1="305.02" x2="408" y2="319.02"/><line class="ac" x1="420" y1="319.02" x2="396" y2="319.02"/><rect class="ah" x="377" y="260.02" width="62" height="46" rx="5" ry="5"/><path class="aj" d="m434,261.02c2.21,0,4,1.79,4,4v36c0,2.21-1.79,4-4,4h-52c-2.21,0-4-1.79-4-4v-36c0-2.21,1.79-4,4-4h52m0-2h-52c-3.31,0-6,2.69-6,6v36c0,3.31,2.69,6,6,6h52c3.31,0,6-2.69,6-6v-36c0-3.31-2.69-6-6-6h0Z"/><path class="ac" d="m406,257.02h4c1.1,0,2,.9,2,2h-8c0-1.1.9-2,2-2Z"/><rect class="ak" x="376" y="256.02" width="64" height="64"/><polygon class="ai" points="432 384.02 424 380.02 424 388.02 432 384.02"/><path class="aq" d="m425,381.64l4.76,2.38-4.76,2.38v-4.76m-1-1.62v8l8-4-8-4h0Z"/><polygon class="ai" points="512 384.02 520 388.02 520 380.02 512 384.02"/><path class="ar" d="m519,381.64v4.76l-4.76-2.38,4.76-2.38m1-1.62l-8,4,8,4v-8h0Z"/><path class="v" d="m520,384.02c.68,0,1.34-.04,2-.12"/><path class="ae" d="m525.71,382.98c3.08-1.17,5.7-3.27,7.52-5.95,1.75-2.56,2.77-5.66,2.77-9v-40.09"/><line class="v" x1="536" y1="326.02" x2="536" y2="324.02"/><path class="v" d="m424,384.02c-.68,0-1.34-.04-2-.12"/><path class="ae" d="m418.29,382.98c-3.08-1.17-5.7-3.27-7.52-5.95-1.75-2.56-2.77-5.66-2.77-9v-40.09"/><line class="v" x1="408" y1="326.02" x2="408" y2="324.02"/><circle class="ai" cx="408" cy="320.02" r="4"/><path class="ax" d="m408,317.02c1.65,0,3,1.35,3,3s-1.35,3-3,3-3-1.35-3-3,1.35-3,3-3m0-1c-2.21,0-4,1.79-4,4s1.79,4,4,4,4-1.79,4-4-1.79-4-4-4h0Z"/><circle class="ai" cx="536" cy="320.02" r="4"/><path class="av" d="m536,317.02c1.65,0,3,1.35,3,3s-1.35,3-3,3-3-1.35-3-3,1.35-3,3-3m0-1c-2.21,0-4,1.79-4,4s1.79,4,4,4,4-1.79,4-4-1.79-4-4-4h0Z"/><polygon class="ai" points="408 244.02 412 236.02 404 236.02 408 244.02"/><path class="au" d="m410.38,237.02l-2.38,4.76-2.38-4.76h4.76m1.62-1h0,0Zm0,0h-8l4,8,4-8h0Z"/><line class="v" x1="408" y1="208.02" x2="408" y2="210.02"/><line class="aa" x1="408" y1="213.45" x2="408" y2="232.31"/><line class="v" x1="408" y1="234.02" x2="408" y2="236.02"/><circle class="ai" cx="407.98" cy="204" r="4"/><path class="as" d="m407.98,201c1.65,0,3,1.35,3,3s-1.35,3-3,3-3-1.35-3-3,1.35-3,3-3m0-1c-2.21,0-4,1.79-4,4s1.79,4,4,4,4-1.79,4-4-1.79-4-4-4h0Z"/><rect class="ah" x="511" y="141" width="50" height="62" rx="7" ry="7"/><path class="aj" d="m554,142c3.31,0,6,2.69,6,6v48c0,3.31-2.69,6-6,6h-36c-3.31,0-6-2.69-6-6v-48c0-3.31,2.69-6,6-6h36m0-2h-36c-4.42,0-8,3.58-8,8v48c0,4.42,3.58,8,8,8h36c4.42,0,8-3.58,8-8v-48c0-4.42-3.58-8-8-8h0Z"/><rect class="ak" x="504" y="140" width="64" height="64"/><path class="aj" d="m553,147c1.1,0,2,.9,2,2v18c0,1.1-.9,2-2,2h-34c-1.1,0-2-.9-2-2v-18c0-1.1.9-2,2-2h34m0-1h-34c-1.66,0-3,1.34-3,3v18c0,1.66,1.34,3,3,3h34c1.66,0,3-1.34,3-3v-18c0-1.66-1.34-3-3-3h0Z"/><path class="aj" d="m533,173c.55,0,1,.45,1,1v15c0,.55-.45,1-1,1h-15c-.55,0-1-.45-1-1v-15c0-.55.45-1,1-1h15m0-1h-15c-1.1,0-2,.9-2,2v15c0,1.1.9,2,2,2h15c1.1,0,2-.9,2-2v-15c0-1.1-.9-2-2-2h0Z"/><path class="aj" d="m554,173c.55,0,1,.45,1,1v15c0,.55-.45,1-1,1h-15c-.55,0-1-.45-1-1v-15c0-.55.45-1,1-1h15m0-1h-15c-1.1,0-2,.9-2,2v15c0,1.1.9,2,2,2h15c1.1,0,2-.9,2-2v-15c0-1.1-.9-2-2-2h0Z"/><g class="bc"><path class="aj" d="m533,194c.55,0,1,.45,1,1v15c0,.55-.45,1-1,1h-15c-.55,0-1-.45-1-1v-15c0-.55.45-1,1-1h15m0-1h-15c-1.1,0-2,.9-2,2v15c0,1.1.9,2,2,2h15c1.1,0,2-.9,2-2v-15c0-1.1-.9-2-2-2h0Z"/><path class="aj" d="m554,194c.55,0,1,.45,1,1v15c0,.55-.45,1-1,1h-15c-.55,0-1-.45-1-1v-15c0-.55.45-1,1-1h15m0-1h-15c-1.1,0-2,.9-2,2v15c0,1.1.9,2,2,2h15c1.1,0,2-.9,2-2v-15c0-1.1-.9-2-2-2h0Z"/></g><polygon class="ai" points="536.01 244.02 540.01 236.02 532.01 236.02 536.01 244.02"/><path class="bb" d="m538.39,237.02l-2.38,4.76-2.38-4.76h4.76m1.62-1h0,0Zm0,0h-8l4,8,4-8h0Z"/><line class="v" x1="536.01" y1="208.02" x2="536.01" y2="210.02"/><line class="aa" x1="536.01" y1="213.45" x2="536.01" y2="232.31"/><line class="v" x1="536.01" y1="234.02" x2="536.01" y2="236.02"/><circle class="ai" cx="535.99" cy="204" r="4"/><path class="aw" d="m535.99,201c1.65,0,3,1.35,3,3s-1.35,3-3,3-3-1.35-3-3,1.35-3,3-3m0-1c-2.21,0-4,1.79-4,4s1.79,4,4,4,4-1.79,4-4-1.79-4-4-4h0Z"/><polygon class="ai" points="536 132 540 124 532 124 536 132"/><path class="ba" d="m538.38,125l-2.38,4.76-2.38-4.76h4.76m1.62-1h0,0Zm0,0h-8l4,8,4-8h0Z"/><polygon class="ai" points="408 132 412 124 404 124 408 132"/><path class="ay" d="m410.38,125l-2.38,4.76-2.38-4.76h4.76m1.62-1h0,0Zm0,0h-8l4,8,4-8h0Z"/><path class="v" d="m436,80c-.67,0-1.34.02-2,.07"/><path class="y" d="m430.3,80.58c-12.73,2.63-22.3,13.91-22.3,27.42v12.13"/><line class="v" x1="408" y1="122" x2="408" y2="124"/><path class="v" d="m508,80c.67,0,1.34.02,2,.07"/><path class="y" d="m513.7,80.58c12.73,2.63,22.3,13.91,22.3,27.42v12.13"/><line class="v" x1="536" y1="122" x2="536" y2="124"/><circle class="ai" cx="440" cy="80" r="4"/><path class="az" d="m440,77c1.65,0,3,1.35,3,3s-1.35,3-3,3-3-1.35-3-3,1.35-3,3-3m0-1c-2.21,0-4,1.79-4,4s1.79,4,4,4,4-1.79,4-4-1.79-4-4-4h0Z"/><circle class="ai" cx="504" cy="80" r="4"/><path class="at" d="m504,77c1.65,0,3,1.35,3,3s-1.35,3-3,3-3-1.35-3-3,1.35-3,3-3m0-1c-2.21,0-4,1.79-4,4s1.79,4,4,4,4-1.79,4-4-1.79-4-4-4h0Z"/><rect class="ao" x="434" width="76" height="28" rx="4" ry="4"/><path class="ai" d="m447.84,18.54c-2.3,0-3.3-.75-3.3-1.76,0-.54.13-1.06.27-1.63l-2.1-.19c-.11.61-.32,1.39-.32,2.3,0,2.21,1.86,3.42,5.5,3.42,2.24,0,4.16-.21,5.57-.53l-.02-2.26c-1.42.4-3.47.64-5.62.64Z"/><path class="ai" d="m452.46,10.48v-2.13c-1.22.13-3.06.22-4.62.22-1.7,0-3.18-.06-4.37-.19v2.11c1.31.1,2.7.18,4.37.18,1.54,0,3.5-.1,4.62-.19Z"/><path class="ai" d="m469.26,18.06c-.4,0-.62-.29-.62-.7,0-1.66.53-4.02.53-5.66,0-1.34-.78-2.37-2.51-2.37-1.55,0-3.39,1.29-4.65,2.38.01-.12.02-.23.03-.35.27-.42.6-.93.81-1.21l-.59-.77c.13-1,.25-1.82.35-2.27l-2.34-.06c.1.5.08.98.08,1.42,0,.17-.03.64-.06,1.24-.68.1-1.38.18-1.85.2-.58.03-.94.03-1.39.02l.21,2.06c.9-.14,2.12-.29,2.91-.39-.03.37-.05.75-.08,1.11-.91,1.34-2.53,3.47-3.43,4.59l1.25,1.76c.55-.76,1.34-1.92,2.02-2.93-.03,1.34-.04,2.27-.05,3.51,0,.26-.02.82-.05,1.18h2.19c-.03-.35-.1-.94-.11-1.23-.1-1.49-.1-2.85-.1-4.14,0-.41.01-.85.03-1.3,1.31-1.43,3.04-2.9,4.22-2.9.69,0,1.09.38,1.09,1.17,0,1.47-.58,3.81-.58,5.55,0,1.55.8,2.42,2,2.42,1.31,0,2.27-.51,3.02-1.2l-.27-2.24c-.72.72-1.47,1.14-2.06,1.14Z"/><path class="ai" d="m499.74,8.37c-1.41-.14-4.9-.77-6.42-1.25l-.5,1.94c1.25.32,4.8,1.06,6.43,1.28l.48-1.97Z"/><path class="ai" d="m497.55,12.56c-1.68,0-3.28.48-4.72,1.54.11-.93.38-2.86.61-3.76l-2.16-.29c-.1,1.98-.48,5.12-.8,6.69l1.86.45c.13-.32.3-.58.59-.91,1.01-1.22,2.62-1.89,4.43-1.89,1.41,0,2.38.75,2.38,1.79,0,2.05-2.53,3.22-7.34,2.54l.62,2.1c6.64.58,8.96-1.66,8.96-4.59,0-1.94-1.63-3.66-4.43-3.66Z"/><path class="ai" d="m480.11,10.27c-.33,0-.82.03-1.36.07.12-.58.24-1.17.33-1.64.1-.4.19-.91.29-1.33l-2.37-.26c.01,1.03-.12,2.18-.35,3.39-.81.07-1.56.13-2.05.14-.59.02-1.14.03-1.71,0l.19,2.16c.48-.08,1.31-.19,1.78-.26.29-.04.8-.1,1.36-.17-.59,2.2-1.67,5.42-3.24,7.53l2.1.83c1.46-2.37,2.63-6.17,3.26-8.59.45-.04.85-.07,1.11-.07.99,0,1.55.19,1.55,1.47,0,1.57-.21,3.52-.66,4.42-.26.53-.66.69-1.2.69-.42,0-1.33-.16-1.95-.34l.34,2.11c.56.13,1.31.22,1.94.22,1.2,0,2.08-.35,2.62-1.47.67-1.38.9-3.97.9-5.86,0-2.32-1.2-3.07-2.88-3.07Z"/><path class="ai" d="m482.98,9.68c1.15,1.42,2.29,4.3,2.7,6.1l2.03-.94c-.5-1.54-1.84-4.58-2.82-5.97l-1.92.82Z"/><rect class="ak" x="440" y="352.02" width="64" height="64"/><path class="t" d="m448.41,381.43c-2.44,0-4.41,1.99-4.41,4.44s1.45,9.09,5.81,9.09c3.21,10.72,8.92,20.57,22.19,20.57,13.27,0,18.98-9.85,22.19-20.57,4.36,0,5.81-6.63,5.81-9.09s-1.97-4.44-4.41-4.44c16.18-19.8-21.47-38.36-36.87-23.55-13.43,0-17.89,15.9-10.32,23.55Z"/><path class="ad" d="m495.59,381.43c2.44,0,4.41,1.99,4.41,4.44s-1.45,9.09-5.81,9.09c-3.21,10.72-8.92,20.57-22.19,20.57-13.27,0-18.98-9.85-22.19-20.57-4.36,0-5.81-6.63-5.81-9.09s1.97-4.44,4.41-4.44c2.8-8.57,10.32-11.55,16.23-11.55,9.33,9.7,23.02-.05,30.96,11.55Z"/><circle class="ai" cx="464.5" cy="387.02" r="3"/><circle class="ai" cx="479.5" cy="387.02" r="3"/><path class="an" d="m474.64,442.13c1.65,0,2.72,1.01,2.72,2.37,0,2.61-3.04,3.6-6.51,3.7l.53,1.23c4.3-.26,7.28-1.83,7.28-4.91,0-2.18-1.65-3.54-3.92-3.54-1.87,0-4.51.96-5.65,1.31-.5.16-1.02.31-1.49.39l.54,1.32c1.02-.41,4.53-1.87,6.5-1.87Z"/><path class="an" d="m437.24,449.52c-.02-.17-.03-.4-.05-.56,0-.19.03-.49.08-.72.14-.76.74-2.44,1.14-3.58l-.67-.53c-.27.66-.64,1.62-.91,2.34-.1-.79-.14-1.46-.14-2.23,0-1.8.5-4.65.8-6.14.06-.29.19-.8.29-1.07l-1.42-.11c-.02.35-.06.75-.11,1.12-.19,1.33-.72,4.06-.72,6.41,0,2.18.27,4.02.59,5.15l1.14-.08Z"/><path class="an" d="m447.38,439.56v-1.3c-1.58.24-4.83.3-6.58,0l.02,1.3c1.74.19,4.85.19,6.56,0Z"/><path class="an" d="m455.38,449.8c2.13,0,2.93-1.12,2.93-2.42,0-.29-.01-.66-.03-1.07,1.66.59,3.12,1.61,4.16,2.64l.77-1.2c-1.16-1.06-2.93-2.15-4.99-2.71-.07-1.39-.17-2.96-.17-4.01v-.12c1.31-.03,3.35-.13,4.78-.26l-.05-1.2c-1.43.17-3.45.26-4.74.28v-1.62c.02-.48.06-1.25.13-1.6h-1.52c.06.3.11,1.01.13,1.6,0,.69.02,2,.02,2.93s.07,2.44.12,3.74c-.45-.06-.9-.11-1.37-.11-2.77,0-4.02,1.17-4.02,2.62,0,1.83,1.62,2.52,3.84,2.52Zm.03-4.02c.53,0,1.05.07,1.56.17.01.39.02.74.02,1,0,1.1-.58,1.66-1.74,1.66-1.55,0-2.45-.49-2.45-1.37s.94-1.46,2.61-1.46Z"/><path class="an" d="m401.34,438.14c-.29-.59-.91-1.58-1.33-2.18l-.85.37c.45.59.98,1.5,1.33,2.19l.85-.38Z"/><path class="an" d="m399.56,438.79c-.34-.64-.91-1.62-1.31-2.19l-.85.37c.43.61.98,1.57,1.28,2.21l.88-.38Z"/><path class="an" d="m383.87,438.26c-.32-.64-.9-1.62-1.3-2.19l-.85.37c.43.61.98,1.57,1.28,2.21l.86-.38Z"/><path class="an" d="m419.11,448.34l1.02,1.07c2.37-1.08,4.52-2.81,6.25-4.67,1.63,1.48,3.33,3.35,4.4,4.77l1.1-.98c-1.03-1.26-2.99-3.32-4.66-4.76,1.13-1.44,2.13-3.32,2.69-4.71.08-.21.29-.56.38-.69l-.8-.62c-.26.08-.69.13-1.2.13h-6.18c-.5,0-1.41-.06-1.62-.1v1.44c.18-.02,1.04-.08,1.62-.08h6.24c-.42,1.33-1.58,3.23-2.67,4.46-1.65,1.83-4,3.75-6.59,4.74Z"/><path class="an" d="m433.52,459.92l.91-.72c-.59-.63-1.81-1.64-2.34-2.05l-.91.65c.67.52,1.73,1.49,2.34,2.12Z"/><path class="an" d="m521.53,457.69c.98.79,2.08,1.91,2.53,2.71l.99-.76c-.5-.78-1.62-1.88-2.61-2.6l-.91.65Z"/><path class="an" d="m508.1,439.37c-.22,1.54-.96,3.78-2.1,5.22-1.34,1.71-3.14,3.07-6.24,3.86l1.09,1.2c2.93-.93,4.83-2.4,6.29-4.29,1.28-1.63,2.05-4.23,2.4-5.91.01-.07.03-.13.04-.19.19.07.39.11.6.11.99,0,1.79-.8,1.79-1.79s-.8-1.79-1.79-1.79-1.79.8-1.79,1.79c0,.18.03.34.08.51-.19.02-.37.04-.53.04h-8.02c-.53,0-1.17-.06-1.6-.11v1.42c.4-.03.94-.06,1.58-.06h8.19Zm2.08-2.85c.58,0,1.06.48,1.06,1.06s-.48,1.06-1.06,1.06-1.06-.46-1.06-1.06.46-1.06,1.06-1.06Z"/><path class="an" d="m529.95,456.62v1.36h-4.46v.98h2.48l-.48.12c.28.47.53,1.05.66,1.51h-2.08v8.38h1.1v-7.42h2.94v1.1h-2.38v.8h2.38v1.15h-1.66v3.54h.9v-.62h3.42v-2.92h-1.73v-1.15h2.42v-.8h-2.42v-1.1h3.07v6.13c0,.19-.06.24-.26.25-.21.02-.83.02-1.55-.01.14.3.3.73.37,1.04.94,0,1.6-.02,2.03-.2.42-.19.51-.48.51-1.07v-7.1h-2.33c.26-.44.55-.98.85-1.54l-.34-.09h2.4v-.98h-4.69v-1.36h-1.15Zm1.92,10.14h-2.53v-1.39h2.53v1.39Zm.01-6.17h-2.89l.25-.07c-.09-.44-.37-1.07-.67-1.56h3.94c-.19.5-.5,1.14-.74,1.6l.11.03Z"/><path class="an" d="m475.48,457.15v3.89h10.32v-3.89h-10.32Zm9.12,3.17h-7.97v-.9h7.97v.9Zm0-1.59h-7.97v-.86h7.97v.86Z"/><path class="an" d="m489.27,438.9c-1.47.86-2.99,2.9-2.99,5.39,0,3.59,3.36,5.15,6.34,5.27l.45-1.32c-2.59-.11-5.52-1.1-5.52-4.22,0-1.89,1.39-4.34,3.68-5.07.82-.22,2.21-.26,3.14-.24l-.02-1.28c-1.07.03-2.56.13-4.3.27-2.96.26-5.97.54-7.01.66-.32.03-.83.06-1.44.08l.14,1.41c1.74-.37,5.81-.77,7.54-.94Z"/><path class="an" d="m507.48,461.9h10.38v-4.77h-10.38v4.77Zm1.17-3.9h8.03v1.1h-8.03v-1.1Zm0,1.92h8.03v1.13h-8.03v-1.13Z"/><path class="an" d="m524.55,442.12c-.29,1.16-.93,2.52-1.89,3.53-1.38,1.44-3.38,2.48-5.63,2.95l.99,1.13c2.03-.57,4.05-1.5,5.71-3.34,1.2-1.31,1.92-2.98,2.34-4.55.03-.12.14-.32.22-.48l-.91-.56c-.18.08-.53.13-.9.13h-8.42c-.45,0-.99-.05-1.57-.1v1.34c.58-.05,1.18-.06,1.57-.06h8.48Z"/><rect class="an" x="473.48" y="461.71" width="14.35" height=".93"/><path class="an" d="m523.64,438.44c.54,0,1.1.02,1.47.05v-1.33c-.38.05-.94.08-1.44.08h-6.3c-.51,0-1.01-.03-1.42-.08v1.33c.43-.03.94-.05,1.42-.05h6.27Z"/><path class="an" d="m380.25,438.65c.45,0,1.01.03,1.49.06v-1.33c-.46.05-1.04.08-1.49.08h-5.55c-.51,0-.99-.03-1.44-.08v1.33c.42-.03.93-.06,1.47-.06h5.52Z"/><path class="an" d="m502.75,463l-.51-1.18c-.45.22-.85.4-1.33.62-.82.39-1.8.79-2.91,1.31-.24-.94-1.08-1.47-2.11-1.47-.7,0-1.62.23-2.24.6.55-.73,1.06-1.62,1.45-2.48,1.74-.06,3.72-.2,5.32-.44v-1.18c-1.51.27-3.24.41-4.88.48.24-.75.37-1.37.48-1.84l-1.31-.11c-.04.58-.18,1.29-.41,1.99-.37,0-.72.01-1.06.01-.74,0-1.84-.05-2.7-.16v1.2c.9.06,1.95.09,2.64.09.22,0,.45,0,.68,0-.6,1.3-1.67,2.96-3.69,4.89l1.1.82c.53-.66.98-1.23,1.44-1.68.74-.66,1.74-1.17,2.77-1.17.71,0,1.28.32,1.44,1-1.86.97-3.76,2.16-3.76,4.06s1.84,2.43,4.11,2.43c1.39,0,3.17-.13,4.38-.27l.05-1.3c-1.41.26-3.14.4-4.38.4-1.65,0-2.88-.19-2.88-1.44,0-1.06,1.04-1.9,2.53-2.71,0,.84-.02,1.89-.07,2.52h1.23c-.01-.8-.04-2.15-.04-3.07,1.21-.57,2.36-1.04,3.26-1.39.43-.16,1.01-.39,1.41-.52Z"/><path class="an" d="m481.21,469.08h5.41v-.84h-5.41v-.88h5.06v-4.02h-11.07v4.02h4.83v.88h-5.28v.84h5.28v.93h-6.64v.95h14.53v-.95h-6.7v-.93Zm3.87-2.46h-3.87v-.91h3.87v.91Zm0-1.63h-3.87v-.9h3.87v.9Zm-8.75-.9h3.7v.9h-3.7v-.9Zm0,2.53v-.91h3.7v.91h-3.7Z"/><path class="an" d="m519.18,465.05l-.74-.3-.21.05h-5.55v.97h1.41l-.71.21c.43,1.06,1.03,2,1.77,2.8-.92.68-1.97,1.21-3.03,1.53v-6.52h7.55v-.99h-14.1v.99h1.38v5.43c-.55.06-1.07.1-1.52.14l.11,1.07c1.49-.17,3.46-.42,5.42-.65v1.56h1.15v-1c.22.22.51.64.64.92,1.13-.39,2.22-.96,3.2-1.71.95.8,2.07,1.41,3.36,1.79.16-.29.48-.72.74-.94-1.25-.31-2.35-.86-3.27-1.56,1.04-1,1.89-2.25,2.39-3.79Zm-8.21-1.26v1.1h-2.9v-1.1h2.9Zm-2.9,2h2.9v1.12h-2.9v-1.12Zm0,3.31v-1.3h2.9v.99c-.99.11-1.98.22-2.9.32Zm6.33-3.33h3.29c-.42.89-1.01,1.67-1.72,2.34-.67-.68-1.2-1.47-1.56-2.34Z"/><path class="an" d="m469.64,468.31c.94-1.54,1.6-3.36,1.94-5.29l-.74-.27-.21.06h-4.59v-4.37h4.05v2c0,.18-.06.24-.32.26-.26.02-1.09.02-2.08-.02.16.31.32.74.37,1.06,1.23,0,2.03-.02,2.53-.19.5-.18.62-.5.62-1.09v-3.09h-6.27v13.99h1.1v-.77c.27.2.6.52.77.78.82-.56,1.53-1.27,2.15-2.08.7.85,1.5,1.55,2.39,2.05.19-.3.56-.74.83-.98-.95-.46-1.81-1.18-2.55-2.05Zm-.72-.96c-.72-1.06-1.29-2.27-1.69-3.55h3.03c-.28,1.23-.72,2.45-1.35,3.55Zm-2.87,3.19v-6.74h.16c.48,1.67,1.18,3.24,2.07,4.55-.62.86-1.36,1.62-2.22,2.18Z"/><path class="an" d="m372.75,441.48c-.5,0-.96-.04-1.39-.08v1.32c.43-.03.91-.04,1.39-.04h4.79c-.04,1.51-.21,2.85-.92,3.96-.64,1.03-1.79,1.94-3.02,2.47l1.18.86c1.36-.69,2.56-1.84,3.15-2.91.63-1.19.88-2.66.94-4.38h4.34c.4,0,.91.01,1.26.04v-1.32c-.4.04-.93.08-1.26.08h-10.46Z"/><polygon class="an" points="451.28 460.7 455.1 460.7 455.1 459.82 451.28 459.82 451.28 458.8 455.5 458.8 455.5 457.88 451.28 457.88 451.28 456.62 450.09 456.62 450.09 457.88 446 457.88 446 458.8 450.09 458.8 450.09 459.82 446.38 459.82 446.38 460.7 450.09 460.7 450.09 461.82 445.5 461.82 445.5 462.73 455.96 462.73 455.96 461.82 451.28 461.82 451.28 460.7"/><path class="an" d="m528.64,469.92c-1.9-.07-3.31-.61-4.06-1.8v-5.18h-3.18v1.12h2.03v4.16c-.73.66-1.54,1.33-2.21,1.82l.62,1.17c.8-.7,1.54-1.39,2.24-2.08.99,1.27,2.45,1.83,4.56,1.91,1.79.08,5.22.04,7.02-.04.05-.35.24-.91.38-1.18-1.94.13-5.63.18-7.41.1Z"/><path class="an" d="m541.64,456.88c-1.06,2.52-2.82,4.96-4.67,6.51.24.29.61.91.74,1.2.72-.65,1.44-1.43,2.11-2.29v9.02h1.18v-10.69c.69-1.07,1.31-2.21,1.81-3.37l-1.17-.38Z"/><path class="an" d="m565.22,437.06h-1.46c.05.3.06.86.06,1.14v5.34c0,.46-.03.98-.06,1.23h1.46c-.03-.29-.05-.81-.05-1.23v-5.34c0-.37.02-.83.05-1.14Z"/><path class="an" d="m554.73,439.43c0-.64-.02-1.18-.02-1.55-.02-.43.02-.9.08-1.33h-1.47c.06.34.1.72.13,1.33.02.37.03.91.05,1.55h-5.82c-.48,0-1.01-.03-1.47-.08v1.36c.51-.03.96-.06,1.5-.06h5.28c-1.27,1.94-4.11,4.58-7.36,6.18l.91,1.04c2.89-1.53,5.67-4.13,7-6.01.03,2.14.05,4.52.05,5.8,0,.43-.14.64-.59.64-.61,0-1.5-.06-2.27-.19l.11,1.33c.8.05,1.74.09,2.56.09.96,0,1.47-.44,1.46-1.29-.01-2.01-.06-5.18-.1-7.59h2.54c.4,0,.94.03,1.33.05v-1.36c-.32.05-.94.1-1.36.1h-2.52Z"/><path class="an" d="m571.14,436.94c.05.38.1.85.1,1.39v2.53c0,3.01-.21,4.32-1.34,5.63-.99,1.14-2.35,1.76-3.82,2.15l1.06,1.1c1.17-.4,2.77-1.1,3.79-2.35,1.17-1.36,1.68-2.62,1.68-6.48v-2.58c0-.54.02-1.01.05-1.39h-1.5Z"/><path class="an" d="m549.85,469.98h-3.15c-.9,0-1.06-.19-1.06-1.09v-4.68c2-1.06,4.15-2.27,5.66-3.51l-.88-1.02c-1.16,1.06-3,2.3-4.78,3.3v-5.96h-1.22v11.86c0,1.76.51,2.24,2.19,2.24h3.3c1.66,0,2.02-.92,2.21-3.54-.35-.08-.85-.3-1.15-.53-.11,2.34-.24,2.93-1.12,2.93Z"/><path class="an" d="m536.25,449.56h1.58c-.08-.31-.11-1.11-.11-1.7v-6.77c1.63-1.08,3.11-2.28,4.34-3.55l-1.07-1.01c-1.1,1.34-2.7,2.72-4.38,3.78-1.78,1.1-4.21,2.24-6.98,2.97l.62,1.25c2.22-.69,4.41-1.65,6.1-2.59v5.92c0,.59-.05,1.39-.1,1.7Z"/><path class="an" d="m453.56,463.68h-6.9v7.64h1.12v-2.49h5.78v1.15c0,.21-.06.27-.29.27-.22.02-.99.02-1.79,0,.14.3.3.75.35,1.04,1.14.01,1.86,0,2.3-.18.45-.18.58-.5.58-1.1v-6.32h-1.15Zm0,.92v1.19h-5.78v-1.19h5.78Zm-5.78,3.33v-1.21h5.78v1.21h-5.78Z"/><path class="an" d="m461.47,459.31h2.35v-1.04h-2.35v-1.62h-1.12v1.62h-2.46v1.04h2.46v1.6h-3.04v1.04h1.91l-.79.19c.31.67.59,1.53.69,2.1h-1.58v1.04h2.82v1.74h-2.66v1.04h2.66v3.25h1.12v-3.25h2.56v-1.04h-2.56v-1.74h2.77v-1.04h-1.59c.29-.56.58-1.35.89-2.08l-.77-.21h1.66v-1.04h-2.96v-1.6Zm.88,4.93h-2.9l.64-.18c-.08-.55-.39-1.44-.74-2.11h3.13c-.18.63-.52,1.52-.78,2.09l.64.2Z"/><path class="an" d="m399.18,449.14l1.42-.45c-.43-1.45-1.28-3.9-1.92-5.49-.69-1.68-1.71-3.88-2.34-5.05l-1.3.43c.69,1.2,1.68,3.42,2.32,5.07.66,1.7,1.41,3.87,1.81,5.49Z"/><path class="an" d="m397.03,458.24v1.32c.42-.03.94-.06,1.47-.06h6.46c.45,0,1.01.03,1.49.06v-1.32c-.46.04-1.04.08-1.49.08h-6.48c-.53,0-.99-.04-1.46-.08Z"/><path class="an" d="m410.01,449.56h1.58c-.08-.31-.11-1.11-.11-1.7v-6.77c1.63-1.08,3.11-2.28,4.34-3.55l-1.07-1.01c-1.1,1.34-2.7,2.72-4.38,3.78-1.78,1.1-4.21,2.24-6.98,2.97l.62,1.25c2.22-.69,4.41-1.65,6.1-2.59v5.92c0,.59-.05,1.39-.1,1.7Z"/><path class="an" d="m396.52,462.32c-.5,0-.96-.02-1.39-.07v1.33c.43-.03.91-.05,1.39-.05h4.79c-.04,1.51-.23,2.86-.93,3.97-.62,1.02-1.78,1.94-3.01,2.46l1.18.87c1.34-.71,2.56-1.84,3.14-2.91.64-1.2.9-2.66.95-4.39h4.34c.4,0,.9.02,1.26.03v-1.31c-.4.05-.93.07-1.26.07h-10.46Z"/><path class="an" d="m389.48,444.26c-.54,1.33-1.46,3.01-2.46,4.35l1.36.58c.9-1.3,1.78-2.95,2.37-4.4.67-1.65,1.23-4.02,1.44-5.01.08-.34.19-.82.3-1.17l-1.42-.29c-.22,1.84-.88,4.28-1.58,5.94Z"/><path class="an" d="m445.12,458.97l-.8.32c.32.75.69,1.75.85,2.35l.83-.4c-.14-.59-.53-1.53-.88-2.27Z"/><path class="an" d="m383.48,435.8c.45.59.98,1.5,1.33,2.19l.85-.38c-.3-.59-.91-1.58-1.34-2.18l-.83.37Z"/><rect class="an" x="443.07" y="456.62" width="1.1" height="14.7"/><path class="an" d="m441.08,463.84l.93.3c.37-1.2.64-3.06.69-4.3l-.9-.13c-.1,1.26-.35,3.02-.72,4.13Z"/><path class="an" d="m416.36,463.52c-1.31.8-3.66,1.92-5.78,2.43l.62,1.18c1.8-.55,3.66-1.39,5.01-2.12v4.91c0,.48-.05,1.15-.08,1.39h1.49c-.06-.24-.08-.91-.08-1.39v-5.71c1.44-.95,2.81-2.12,3.62-2.98l-.99-.96c-.83,1.01-2.3,2.33-3.81,3.25Z"/><path class="an" d="m447.89,448.61l-.03-1.34c-1.28.3-2.53.43-3.95.43-2.19,0-2.7-.72-2.7-1.46,0-.43.08-.88.22-1.45l-1.15-.11c-.18.76-.26,1.34-.26,1.87,0,1.5,1.2,2.4,3.87,2.4,1.66,0,3.01-.13,4-.34Z"/><path class="an" d="m435.68,459.74c-1.67,0-3.82.86-5.74,1.71-.33-.67-.65-1.31-.95-1.84-.16-.3-.43-.81-.56-1.09l-1.3.53c.26.32.58.83.77,1.15.27.45.58,1.05.91,1.75-.71.32-1.35.61-1.9.81-.29.13-.85.32-1.31.44l.62,1.31c.74-.32,1.85-.9,3.09-1.5.2.43.4.88.61,1.34.91,2.09,1.68,4.65,2.18,6.56l1.38-.37c-.54-1.78-1.57-4.74-2.43-6.74-.2-.43-.4-.88-.61-1.32,1.85-.85,3.82-1.62,5.22-1.62,1.57,0,2.32.88,2.32,1.82,0,1.14-.72,2.12-2.48,2.12-.85,0-1.65-.24-2.27-.53l-.03,1.26c.59.23,1.5.45,2.4.45,2.5,0,3.66-1.39,3.66-3.25,0-1.74-1.34-2.99-3.57-2.99Z"/></svg>