<?xml version="1.0" encoding="UTF-8"?><svg id="a" xmlns="http://www.w3.org/2000/svg" xmlns:xlink="http://www.w3.org/1999/xlink" viewBox="0 0 256 544"><defs><style>.l,.m,.n,.o,.p,.q,.r,.s,.t,.u,.v,.w,.x{stroke-linecap:round;stroke-linejoin:round;}.l,.n{stroke:#1b1320;}.l,.y{fill:#1b1320;}.m,.v{stroke:#0d0910;}.m,.z{fill:#0d0910;}.n,.aa{fill:#855fa0;}.o,.p,.q,.r,.s,.ab,.t,.u,.w,.x{fill:none;}.o,.s,.u,.x{stroke:#f6cd51;}.p{stroke:#6a4c80;}.q,.r,.t,.w{stroke:#855fa0;}.r,.s{stroke-dasharray:0 0 4.09 4.09;}.ab,.ac,.y,.z,.ad,.aa,.ae,.af,.ag,.ah,.ai,.aj,.ak,.al,.am,.an,.ao{stroke-width:0px;}.t,.u{stroke-dasharray:0 0 4.08 4.08;}.v{fill:url(#j);}.ac{fill:#281d30;}.ad{fill:#cebfd9;}.ae{fill:#f6cd51;}.af{fill:#6a4c80;}.w,.x{stroke-dasharray:0 0 3.98 3.98;}.ag{fill:url(#b);}.ah{fill:url(#c);}.ai{fill:url(#e);}.aj{fill:url(#f);}.ak{fill:url(#d);}.al{fill:url(#i);}.am{fill:url(#h);}.an{fill:url(#g);}.ao{fill:url(#k);}</style><linearGradient id="b" x1="128" y1="302" x2="128" y2="544" gradientUnits="userSpaceOnUse"><stop offset="0" stop-color="#f6cd51"/><stop offset="1" stop-color="#f48e2a"/></linearGradient><linearGradient id="c" x1="159" y1="202" x2="159" y2="182" gradientTransform="translate(0 546) scale(1 -1)" xlink:href="#b"/><linearGradient id="d" x1="117" y1="202" x2="117" y2="182" gradientTransform="translate(0 546) scale(1 -1)" xlink:href="#b"/><linearGradient id="e" x1="75" y1="344" x2="75" y2="364" xlink:href="#b"/><linearGradient id="f" x1="75" y1="392.05" x2="75" y2="400.05" xlink:href="#b"/><linearGradient id="g" x1="117" y1="392.05" x2="117" y2="400.05" xlink:href="#b"/><linearGradient id="h" x1="159" y1="392.05" x2="159" y2="400.05" xlink:href="#b"/><linearGradient id="i" x1="201" y1="392.05" x2="201" y2="400.05" xlink:href="#b"/><linearGradient id="j" x1="36" y1="439.16" x2="36" y2="467.69" gradientUnits="userSpaceOnUse"><stop offset="0" stop-color="#f6cd51"/><stop offset="1" stop-color="#f48e2a"/></linearGradient><linearGradient id="k" x1="201" y1="202" x2="201" y2="182" gradientTransform="translate(0 546) scale(1 -1)" xlink:href="#b"/></defs><rect class="ac" x=".5" y="14.5" width="255" height="241" rx="15.5" ry="15.5"/><path class="aa" d="m240,15c8.27,0,15,6.73,15,15v210c0,8.27-6.73,15-15,15H16c-8.27,0-15-6.73-15-15V30c0-8.27,6.73-15,15-15h224m0-1H16C7.16,14,0,21.16,0,30v210c0,8.84,7.16,16,16,16h224c8.84,0,16-7.16,16-16V30c0-8.84-7.16-16-16-16h0Z"/><rect class="aa" x="90" width="76" height="28" rx="4" ry="4"/><path class="z" d="m125.26,18.06c-.4,0-.62-.29-.62-.7,0-1.66.53-4.02.53-5.66,0-1.34-.78-2.37-2.51-2.37-1.55,0-3.39,1.29-4.65,2.38.01-.12.02-.23.03-.35.27-.42.6-.93.81-1.21l-.59-.77c.13-1,.25-1.82.35-2.27l-2.34-.06c.1.5.08.98.08,1.42,0,.17-.03.64-.06,1.24-.68.1-1.38.18-1.85.2-.58.03-.94.03-1.39.02l.21,2.06c.9-.14,2.12-.29,2.91-.39-.03.37-.05.75-.08,1.11-.91,1.34-2.53,3.47-3.43,4.59l1.25,1.76c.55-.76,1.34-1.92,2.02-2.93-.03,1.34-.04,2.27-.05,3.51,0,.26-.02.82-.05,1.18h2.19c-.03-.35-.1-.94-.11-1.23-.1-1.49-.1-2.85-.1-4.14,0-.41.01-.85.03-1.3,1.31-1.43,3.04-2.9,4.22-2.9.69,0,1.09.38,1.09,1.17,0,1.47-.58,3.81-.58,5.55,0,1.55.8,2.42,2,2.42,1.31,0,2.27-.51,3.02-1.2l-.27-2.24c-.72.72-1.47,1.14-2.06,1.14Z"/><path class="z" d="m103.84,18.54c-2.3,0-3.3-.75-3.3-1.76,0-.54.13-1.06.27-1.63l-2.1-.19c-.11.61-.32,1.39-.32,2.3,0,2.21,1.86,3.42,5.5,3.42,2.24,0,4.16-.21,5.57-.53l-.02-2.26c-1.42.4-3.47.64-5.62.64Z"/><path class="z" d="m157.62,10.96l-1.15.53c.51.7.88,1.31,1.31,2.18l1.2-.58c-.34-.62-.94-1.57-1.36-2.13Z"/><path class="z" d="m108.46,10.48v-2.13c-1.22.13-3.06.22-4.62.22-1.7,0-3.18-.06-4.37-.19v2.11c1.31.1,2.7.18,4.37.18,1.54,0,3.5-.1,4.62-.19Z"/><path class="z" d="m137.43,14.07c1.53-.05,2.78-.15,4.22-.31l.02-1.89c-1.3.17-2.65.31-4.27.39,0-.5,0-1.08,0-1.65,1.54-.07,2.99-.21,4.06-.35l.02-1.82c-1.41.22-2.74.34-4.05.41,0-.25.01-.48.02-.64.02-.42.06-.82.11-1.14h-2.18c.06.3.1.8.1,1.09,0,.2,0,.46,0,.74-.2,0-.4,0-.61,0-.98,0-2.82-.16-3.95-.35l.03,1.84c1.06.13,2.91.27,3.94.27.19,0,.39,0,.58,0,0,.55,0,1.12,0,1.65-.26,0-.51,0-.78,0-.85,0-2.8-.11-3.86-.3l.03,1.89c1.06.13,2.86.21,3.81.21.29,0,.56,0,.83,0,.02.5.04,1.02.06,1.52-.33-.03-.66-.06-1-.06-2.45,0-3.94,1.14-3.94,2.75,0,1.7,1.34,2.67,3.9,2.67,2.1,0,3.14-1.06,3.14-2.43,0-.16,0-.36-.01-.57,1.28.58,2.38,1.41,3.23,2.21l1.15-1.79c-.92-.77-2.46-1.82-4.48-2.41-.04-.64-.08-1.3-.1-1.93Zm-1.8,3.94c0,.93-.58,1.17-1.42,1.17-1.1,0-1.66-.37-1.66-.98,0-.56.62-.99,1.74-.99.46,0,.9.06,1.33.14,0,.26.02.5.02.66Z"/><path class="z" d="m154.66,12.19c.5.7.83,1.34,1.25,2.21l1.2-.53c-.3-.64-.88-1.62-1.26-2.18l-1.18.5Z"/><path class="z" d="m151.65,14.83c0-1.9,1.46-3.98,3.38-4.5.86-.19,2.24-.21,3.1-.21l-.02-2.06c-1.14.05-2.88.16-4.54.29-2.93.26-5.57.48-6.9.61-.3.03-.94.06-1.57.08l.21,2.19c1.84-.4,5.12-.75,6.61-.91-1.07.82-2.37,2.64-2.37,4.93,0,3.47,3.17,5.28,6.51,5.49l.75-2.19c-2.7-.13-5.17-1.09-5.17-3.71Z"/><rect class="ab" x="16" y="140" width="40" height="40"/><path class="l" d="m21.25,158.38c-1.52,0-2.75,1.24-2.75,2.78s.91,5.68,3.63,5.68c2.01,6.7,5.57,12.85,13.87,12.85,8.3,0,11.86-6.16,13.87-12.85,2.72,0,3.63-4.14,3.63-5.68s-1.23-2.78-2.75-2.78c10.11-12.37-13.42-23.98-23.04-14.72-8.39,0-11.18,9.94-6.45,14.72Z"/><path class="n" d="m50.75,158.38c1.52,0,2.75,1.24,2.75,2.78s-.91,5.68-3.63,5.68c-2.01,6.7-5.57,12.85-13.87,12.85-8.3,0-11.86-6.16-13.87-12.85-2.72,0-3.63-4.14-3.63-5.68s1.23-2.78,2.75-2.78c1.75-5.36,6.45-7.22,10.14-7.22,5.83,6.06,14.39-.03,19.35,7.22Z"/><circle class="y" cx="31.31" cy="161.88" r="1.88"/><circle class="y" cx="40.69" cy="161.88" r="1.88"/><path class="ad" d="m92.88,209.67l.05-1.38c-1.58.32-3.14.48-4.99.48s-2.32-.35-2.32-1.46v-4.77c2.83-.57,5.78-1.16,6.06-1.22-.48.94-1.65,2.7-2.85,3.81l1.1.66c1.3-1.31,2.54-3.33,3.28-4.66.11-.19.27-.46.4-.64l-.94-.74c-.19.11-.51.21-.85.29-.67.16-3.49.74-6.21,1.26v-2.49c0-.46.05-1.01.11-1.47h-1.5c.08.46.1.99.1,1.47v2.74c-1.69.32-3.21.58-3.94.67l.26,1.34c.65-.14,2.07-.43,3.68-.76v4.84c0,1.57.56,2.35,3.54,2.35,2,0,3.6-.13,5.02-.34Z"/><path class="ad" d="m75.27,199.21h-4.33c.14-.23.26-.46.38-.67.16-.29.45-.83.7-1.25l-1.47-.5c-.1.42-.34.99-.5,1.28-.7,1.42-2.27,3.76-5.04,5.41l1.12.82c1.75-1.15,3.08-2.58,4.04-3.94h5.41c-.32,1.46-1.31,3.54-2.54,4.99-1.47,1.71-3.46,3.15-6.4,4.02l1.17,1.06c2.99-1.12,4.91-2.58,6.37-4.35,1.42-1.74,2.4-3.9,2.83-5.52.08-.26.24-.62.37-.85l-1.06-.64c-.26.1-.62.14-1.06.14Z"/><path class="ad" d="m108.05,231.2c.27.16.74.54.96.75,1.07-.91,2.29-2.34,3.07-3.73l-1.14-.35c-.69,1.23-1.79,2.5-2.9,3.33Z"/><path class="ad" d="m92.72,225.39l-.18-1.1c-.54.17-1.08.35-1.62.51v-3.18h1.78v-1.12h-1.78v-3.22h-1.12v3.22h-1.98v1.12h1.98v3.53c-.81.25-1.56.47-2.16.63l.3,1.17c.56-.18,1.2-.38,1.86-.6v4.14c0,.24-.06.3-.27.3-.19,0-.8,0-1.5-.02.16.34.3.83.35,1.12,1.01,0,1.63-.03,2-.22.4-.19.54-.51.54-1.17v-4.52c.59-.19,1.2-.39,1.79-.59Z"/><path class="ad" d="m108.62,217.66l-1.14-.35c-.9,2.43-2.4,4.83-3.97,6.38.22.27.56.91.69,1.18.54-.56,1.07-1.22,1.58-1.94v9.03h1.18v-10.87c.63-1.1,1.2-2.26,1.65-3.43Z"/><path class="ad" d="m115.52,227.9l-.94.54c1.07,1.07,2.26,2.56,2.8,3.55l1.01-.64c-.58-.98-1.76-2.4-2.86-3.46Z"/><path class="ad" d="m98.06,230.59v-2.52h3.36v-.99h-3.36v-1.87h4.16v-1.01h-9.22v1.01h3.94v5.07c-.91-.39-1.64-1.13-2.09-2.5.13-.53.23-1.09.3-1.68l-1.09-.13c-.26,2.37-.98,4.18-2.4,5.31.24.18.7.53.9.72.84-.75,1.47-1.75,1.92-2.97,1.04,2.29,2.74,2.73,5.08,2.73h2.82c.03-.3.19-.82.35-1.07-.56.02-2.72.02-3.12.02-.54,0-1.06-.03-1.54-.1Z"/><path class="ad" d="m61.23,198.25h-9.2c-.59,0-1.25-.06-1.81-.14v1.44c.62-.05,1.22-.08,1.81-.08h9.12c-.51.99-2.02,2.72-3.5,3.57l1.07.85c1.82-1.26,3.34-3.33,3.98-4.42.11-.18.3-.42.43-.56l-.8-.77c-.22.06-.8.11-1.1.11Z"/><path class="ad" d="m55.36,202.17c0,2.67-.35,4.94-2.82,6.46-.45.3-1.01.58-1.44.72l1.17.96c4.08-2.05,4.46-4.98,4.46-9.31h-1.44c.06.43.06.78.06,1.17Z"/><path class="ad" d="m187.46,200.36c-.38-.75-1.15-1.95-1.57-2.51l-.9.42c.53.72,1.12,1.7,1.55,2.54l.91-.45Z"/><path class="ad" d="m97.03,208.98l1.02,1.07c2.37-1.08,4.52-2.82,6.25-4.68,1.63,1.48,3.33,3.35,4.4,4.77l1.1-.98c-1.03-1.26-2.99-3.32-4.66-4.76,1.13-1.44,2.13-3.32,2.69-4.71.08-.21.29-.56.38-.69l-.8-.62c-.26.08-.69.13-1.2.13h-6.18c-.5,0-1.41-.06-1.62-.1v1.44c.18-.02,1.04-.08,1.62-.08h6.24c-.42,1.33-1.58,3.23-2.67,4.46-1.65,1.82-4,3.74-6.59,4.74Z"/><path class="ad" d="m42,199.32c-2.34,0-5.49,1.15-6.83,1.58-.61.18-1.18.35-1.78.45l.59,1.42c1.28-.51,5.34-2.27,7.98-2.27,2.16,0,3.39,1.33,3.39,3.01,0,3.26-3.74,4.54-7.92,4.66l.58,1.33c4.93-.29,8.74-2.13,8.74-5.97,0-2.67-2.11-4.21-4.75-4.21Z"/><path class="ad" d="m237.74,198.36c-.32-.59-.93-1.6-1.36-2.19l-.85.37c.46.59.99,1.5,1.33,2.21l.88-.38Z"/><path class="ad" d="m235.94,199.02c-.34-.66-.91-1.63-1.31-2.21l-.86.37c.45.61.99,1.57,1.31,2.22l.86-.38Z"/><path class="ad" d="m26.9,199.42c1.52,1.87,2.5,5.17,2.77,8.05l1.3-.51c-.24-2.7-1.39-6.11-2.83-7.97l-1.23.43Z"/><path class="ad" d="m21.97,208.33c-1.15,0-1.92-1.78-2.19-4.45-.11-1.31-.13-2.78-.11-3.78.02-.42.06-1.18.14-1.55l-1.55-.03c.1.37.1,1.06.1,1.42,0,.93.03,2.88.18,4.26.45,4.14,1.89,5.65,3.41,5.65,1.09,0,2.05-.93,3.02-3.63l-1.01-1.14c-.42,1.6-1.17,3.25-1.98,3.25Z"/><path class="ad" d="m101.34,217.79h-7.6v5.25h7.6v-5.25Zm-1.15,4.32h-5.34v-1.28h5.34v1.28Zm0-2.13h-5.34v-1.28h5.34v1.28Z"/><path class="ad" d="m185.34,201.22c-.37-.77-1.12-1.97-1.52-2.56l-.91.4c.53.74,1.09,1.73,1.49,2.58l.94-.42Z"/><path class="ad" d="m116.08,221.84h2.29v-1.15h-2.29v-3.26h-1.17v3.26h-3.12v-3.25h-1.18v3.25h-2.06v1.15h2.06v3.95h-2.46v1.18h10.42v-1.18h-2.48v-3.95Zm-4.29,0h3.12v3.95h-3.12v-3.95Z"/><path class="ad" d="m194.62,198.62l-.8.32c.32.75.69,1.74.85,2.35l.83-.4c-.14-.59-.53-1.54-.88-2.27Z"/><polygon class="ad" points="200.78 200.34 204.61 200.34 204.61 199.46 200.78 199.46 200.78 198.44 205.01 198.44 205.01 197.53 200.78 197.53 200.78 196.26 199.6 196.26 199.6 197.53 195.5 197.53 195.5 198.44 199.6 198.44 199.6 199.46 195.89 199.46 195.89 200.34 199.6 200.34 199.6 201.46 195.01 201.46 195.01 202.38 205.47 202.38 205.47 201.46 200.78 201.46 200.78 200.34"/><path class="ad" d="m181.66,209.32c-1.52,0-2.62-.61-2.62-2.37,0-2.38.13-6.18.19-7.98.03-.53.08-1.07.16-1.62h-1.63c.11.46.14,1.02.14,1.62,0,1.68-.16,5.73-.16,8.1,0,2.62,1.58,3.57,3.89,3.57,3.52,0,5.58-2.02,6.67-3.52l-.9-1.09c-1.15,1.66-2.82,3.3-5.74,3.3Z"/><rect class="ad" x="192.58" y="196.26" width="1.1" height="14.7"/><path class="ad" d="m190.59,203.48l.93.3c.37-1.2.64-3.06.69-4.3l-.9-.13c-.1,1.26-.35,3.02-.72,4.13Z"/><path class="ad" d="m210.98,198.95h2.35v-1.04h-2.35v-1.62h-1.12v1.62h-2.46v1.04h2.46v1.6h-3.04v1.04h1.9l-.78.19c.3.67.59,1.52.68,2.1h-1.58v1.04h2.82v1.74h-2.66v1.04h2.66v3.25h1.12v-3.25h2.56v-1.04h-2.56v-1.74h2.77v-1.04h-1.59c.29-.56.58-1.34.89-2.08l-.78-.21h1.68v-1.04h-2.96v-1.6Zm.87,4.93h-2.87l.62-.18c-.08-.55-.39-1.44-.74-2.11h3.13c-.18.62-.52,1.52-.78,2.1l.63.19Z"/><path class="ad" d="m230.14,200.41c-.39,0-1.06.05-1.81.11.17-.87.33-1.82.42-2.28.06-.3.13-.66.19-.94l-1.49-.16c0,1.09-.17,2.33-.41,3.49-.97.08-1.9.16-2.43.17-.51.02-.93.03-1.42,0l.13,1.39c.42-.06,1.07-.14,1.44-.19.41-.04,1.19-.13,2.02-.22-.54,2.14-1.73,5.79-3.37,7.98l1.31.51c1.68-2.7,2.77-6.31,3.35-8.62.7-.07,1.35-.11,1.73-.11,1.02,0,1.7.27,1.7,1.74,0,1.73-.26,3.81-.77,4.9-.32.69-.8.82-1.39.82-.45,0-1.3-.11-1.97-.32l.22,1.33c.5.13,1.26.24,1.87.24,1.04,0,1.84-.27,2.34-1.34.67-1.33.93-3.87.93-5.78,0-2.16-1.17-2.7-2.59-2.7Z"/><path class="ad" d="m233.28,199.66c1.12,1.33,2.38,4.11,2.85,5.74l1.25-.59c-.54-1.47-1.94-4.38-2.93-5.68l-1.17.53Z"/><path class="ad" d="m219.15,207.95c.94-1.54,1.6-3.36,1.94-5.29l-.74-.27-.21.06h-4.59v-4.37h4.05v2c0,.18-.06.24-.32.26s-1.09.02-2.08-.02c.16.3.32.74.37,1.06,1.23,0,2.03-.02,2.53-.19.5-.18.62-.5.62-1.09v-3.09h-6.27v13.98h1.1v-.77c.27.21.6.53.77.79.82-.56,1.53-1.27,2.16-2.08.7.85,1.5,1.55,2.39,2.05.19-.3.56-.74.83-.98-.95-.46-1.81-1.18-2.55-2.06Zm-.73-.96c-.71-1.06-1.28-2.27-1.68-3.54h3.03c-.28,1.23-.72,2.44-1.34,3.54Zm-2.87,3.19v-6.73h.16c.48,1.67,1.18,3.23,2.06,4.54-.62.86-1.36,1.62-2.22,2.18Z"/><path class="ad" d="m203.07,203.32h-6.9v7.65h1.12v-2.5h5.78v1.15c0,.21-.06.27-.29.27-.22.02-.99.02-1.79-.02.14.3.3.75.35,1.04,1.14.02,1.86,0,2.3-.18.45-.18.58-.5.58-1.1v-6.32h-1.15Zm0,.93v1.18h-5.78v-1.18h5.78Zm-5.78,3.33v-1.22h5.78v1.22h-5.78Z"/><path class="ad" d="m171.6,197.1h-12.05v13.92h1.17v-12.77h10.88v11.22c0,.27-.1.37-.38.38-.27.02-1.22.02-2.22-.02.19.32.38.85.43,1.17,1.39.02,2.19-.02,2.67-.22.5-.19.69-.56.69-1.31v-12.37h-1.18Z"/><path class="ad" d="m132.83,219.89c-1.08.37-2.41.63-3.57.79-.31-.93-.6-1.97-.72-2.73l-1.38.16c.16.43.3.91.4,1.26.13.36.28.85.49,1.43-1.75.12-3.99.08-6.35-.19l.03,1.26c2.54.22,4.83.21,6.74.04.53,1.34,1.3,2.73,1.91,3.66-.58-.06-1.76-.16-2.66-.24l-.1,1.06c1.15.08,3.1.26,3.87.45l.64-.91c-.24-.26-.48-.53-.69-.85-.6-.82-1.3-2.06-1.79-3.29,1.08-.15,2.32-.37,3.3-.65l-.14-1.26Z"/><path class="ad" d="m139.77,208.89c-2.59-.11-5.52-1.1-5.52-4.22,0-1.89,1.39-4.34,3.68-5.07.82-.22,2.21-.26,3.14-.24l-.02-1.28c-1.07.03-2.56.13-4.3.27-2.96.26-5.97.54-7.01.66-.32.03-.83.06-1.44.08l.14,1.41c1.74-.37,5.81-.77,7.54-.94-1.47.86-2.99,2.9-2.99,5.39,0,3.58,3.36,5.15,6.34,5.26l.45-1.31Z"/><path class="ad" d="m123.42,227.94c0-.75.29-1.44.77-2.22l-1.25-.29c-.46.94-.78,1.78-.78,2.67,0,2.18,1.92,3.26,4.96,3.28,1.79.02,3.14-.16,4.14-.34l.05-1.28c-1.1.24-2.5.4-4.11.4-2.38-.03-3.78-.69-3.78-2.22Z"/><path class="ad" d="m125.79,207l-.9-1.09c-1.15,1.66-2.82,3.3-5.74,3.3-1.52,0-2.62-.61-2.62-2.37,0-2.38.13-6.18.19-7.98.03-.53.08-1.09.16-1.62h-1.63c.1.46.14,1.02.14,1.62,0,1.68-.16,5.73-.16,8.1,0,2.62,1.58,3.57,3.89,3.57,3.5,0,5.58-2,6.67-3.52Z"/><path class="ad" d="m148.16,229.44c-.58,0-.85-.43-.85-.98,0-1.62.61-4.37.61-5.97,0-1.3-.74-2.14-2.24-2.14-1.62,0-3.68,1.55-4.92,2.7.02-.31.05-.62.07-.93.24-.39.52-.84.72-1.14l-.46-.54s-.07.02-.1.03c.12-1.12.24-2.02.32-2.41l-1.5-.05c.08.4.06.82.06,1.18,0,.18-.03.76-.08,1.52-.83.13-1.77.23-2.28.26-.4.03-.7.03-1.06.02l.14,1.33c1.01-.16,2.4-.34,3.12-.44-.03.52-.07,1.06-.1,1.59-.81,1.25-2.65,3.74-3.54,4.86l.8,1.09c.78-1.07,1.83-2.59,2.62-3.76-.01.24-.02.45-.02.61-.02,1.76-.03,2.56-.03,4.11,0,.26-.02.64-.05.94h1.38c-.02-.3-.06-.7-.08-.98-.06-1.42-.06-2.4-.06-3.86,0-.57.02-1.2.05-1.87,1.47-1.6,3.4-3.11,4.72-3.11.82,0,1.28.4,1.28,1.33,0,1.55-.59,4.18-.59,5.97,0,1.31.7,2.02,1.78,2.02s2.08-.48,2.94-1.34l-.21-1.36c-.82.85-1.66,1.31-2.42,1.31Z"/><path class="ad" d="m162.93,202.65v6.26h1.12v-1.17h5.34v-5.09h-6.46Zm5.34,1.01v3.04h-4.22v-3.04h4.22Z"/><path class="ad" d="m156.08,206.62c0-1.36-.54-2.48-1.65-3.7l-1.41.3c1.18.99,1.76,2.18,1.76,3.25,0,1.66-1.55,2.72-3.98,2.72-1.82,0-2.7-.94-2.7-2.5,0-.4.04-.96.1-1.62.2,0,.4.02.59.02,1.07,0,2.06-.03,3.14-.14l.02-1.22c-1.12.16-2.22.19-3.33.19-.09,0-.2,0-.29,0,.1-.93.23-1.94.35-2.88.03,0,.07,0,.1,0,1.3,0,2.24-.05,3.26-.14l.03-1.22c-.94.14-2.04.21-3.25.21.09-.66.16-1.24.21-1.65.06-.35.11-.69.21-1.12l-1.42-.08c.03.29.03.58-.02,1.14-.04.46-.1,1.04-.17,1.67-1.19-.08-2.51-.28-3.51-.6l-.08,1.17c1.01.28,2.29.47,3.45.57-.12.95-.25,1.95-.36,2.88-1.13-.08-2.35-.26-3.41-.63l-.06,1.22c.97.3,2.15.47,3.35.56-.08.76-.13,1.42-.13,1.87,0,2.61,1.76,3.57,3.92,3.57,3.17,0,5.3-1.46,5.3-3.84Z"/><rect class="ad" x="162.11" y="199.91" width="8.14" height="1.06"/><path class="ad" d="m160.34,223.41c-.72,0-1.49.08-2.22.32,1.25-1.02,3.42-2.9,4.21-3.5.3-.24.62-.45.91-.64l-.74-.94c-.18.06-.4.1-.88.14-.85.08-4.64.19-5.49.19-.32,0-.77-.02-1.12-.05l.03,1.31c.35-.05.7-.06,1.07-.1.83-.05,4.03-.18,4.88-.22-.8.72-2.82,2.4-3.71,3.14-.91.78-2.98,2.51-4.3,3.6l.93.93c2.02-2.06,3.46-3.18,6.11-3.18,2.1,0,3.6,1.17,3.6,2.75,0,1.31-.74,2.23-2.01,2.72-.21-1.5-1.27-2.83-3.27-2.83-1.47,0-2.46.99-2.46,2.08,0,1.34,1.33,2.29,3.5,2.29,3.39,0,5.52-1.68,5.52-4.26,0-2.16-1.9-3.74-4.56-3.74Zm-1.15,6.86c-1.26,0-2.14-.46-2.14-1.25,0-.56.56-1.01,1.3-1.01,1.22,0,1.98.89,2.13,2.15-.4.06-.82.11-1.29.11Z"/><path class="ad" d="m41.54,107.16v-4.13h-4.36v10.54h.89v-6.41h3.47Zm-3.47-.7v-1.07h2.62v1.07h-2.62Zm2.62-2.74v1.01h-2.62v-1.01h2.62Z"/><path class="ad" d="m46.62,103.03h-4.01v4.14h3.56v5.2c0,.2-.07.28-.29.28-.22.01-.95.02-1.68-.01.13.25.28.67.31.92,1.01,0,1.66-.01,2.04-.16.38-.16.52-.46.52-1.03v-9.34h-.46Zm-.44.7v1.01h-2.7v-1.01h2.7Zm-2.7,2.76v-1.09h2.7v1.09h-2.7Z"/><path class="ad" d="m24.43,103.31h-.43v8.87h.85v-.98h2.58v-7.88h-3Zm.42,7.07v-2.77h1.74v2.77h-1.74Zm1.74-6.25v2.68h-1.74v-2.68h1.74Z"/><path class="ad" d="m29.15,109.67l-.72.43c.61.62,1.26,1.52,1.52,2.11l.78-.48c-.29-.59-.96-1.44-1.58-2.06Z"/><path class="ad" d="m31.56,104.75h2.59v-.79h-2.59v-1.44h-.89v1.44h-2.52v.79h2.52v1.54h-3.04v.8h4.62v1.37h-4.56v.8h4.56v3.22c0,.18-.06.23-.26.24-.19.01-.86.01-1.61-.01.13.24.28.6.31.84.96,0,1.57-.01,1.94-.14s.49-.4.49-.91v-3.23h1.4v-.8h-1.4v-1.37h1.54v-.8h-3.11v-1.54Z"/><path class="ad" d="m44.32,112.44v-4.38h-4.49v4.99h.83v-.61h3.66Zm-3.66-.7v-1.18h2.81v1.18h-2.81Zm2.81-2.98v1.1h-2.81v-1.1h2.81Z"/><line class="p" x1="55" y1="108.04" x2="223.14" y2="108.04"/><polygon class="af" points="221.16 110.95 232 108.04 221.16 105.14 221.16 110.95"/><path class="ad" d="m190.03,84.76h-1.49l-4.48,7.08v1.01h4.79v2.09h1.17v-2.09h1.39v-1.09h-1.39v-7Zm-4.63,6.92l3.38-5.35h.08v5.43h-3.46v-.08Z"/><path class="ad" d="m193.38,96.05h1.08v-.74h9.51v.74h1.12v-12.29h-11.7v12.29Zm10.58-11.23v9.49h-9.51v-9.49h9.51Z"/><path class="ad" d="m208.43,84.05v11.94h1.05v-.95h7.36v.95h1.09v-11.94h-9.51Zm8.41,1.04v2.28h-7.36v-2.28h7.36Zm0,3.28v2.32h-7.36v-2.32h7.36Zm-7.36,5.66v-2.34h7.36v2.34h-7.36Z"/><path class="ad" d="m201.92,87.01h-5.45v5.08h5.45v-5.08Zm-1.05,4.16h-3.4v-3.22h3.4v3.22Z"/><path class="aa" d="m201,56l10,20h-20l10-20Z"/><rect class="ab" x="181" y="56" width="40" height="40"/><path class="ad" d="m147.77,90.64v-.07c.44-.13.79-.37,1.04-.72.26-.35.39-.77.39-1.26,0-.41-.1-.8-.31-1.15-.21-.35-.5-.64-.89-.86-.39-.22-.85-.33-1.39-.33-.5,0-.96.1-1.39.29-.42.19-.76.46-1.01.81-.26.34-.4.74-.41,1.2h1.02c.02-.29.1-.54.27-.74.17-.21.38-.36.65-.47.27-.11.55-.17.85-.17.32,0,.6.06.83.18.24.12.42.29.55.51.13.22.2.48.2.77s-.07.57-.23.8c-.15.23-.35.4-.62.53-.26.12-.57.19-.91.19h-.7v.94h.7c.44,0,.82.07,1.12.21.31.14.54.33.7.58.16.24.24.53.24.85s-.08.58-.25.81c-.16.23-.39.42-.68.55-.29.13-.62.2-1,.2-.34,0-.64-.06-.92-.17-.28-.11-.5-.27-.67-.47-.17-.2-.27-.45-.29-.73h-1.07c.02.46.16.86.42,1.21.26.34.61.61,1.04.81.44.19.94.29,1.5.29s1.07-.11,1.51-.32c.44-.22.79-.51,1.05-.89.26-.38.39-.8.39-1.28,0-.55-.16-1.02-.47-1.39-.31-.38-.74-.61-1.29-.7Z"/><path class="ad" d="m152.35,96.05h.92v-.64h8.15v.64h.96v-10.54h-10.03v10.54Zm9.07-9.62v8.14h-8.15v-8.14h8.15Z"/><path class="ad" d="m159.66,88.3h-4.67v4.36h4.67v-4.36Zm-.9,3.56h-2.92v-2.76h2.92v2.76Z"/><path class="ad" d="m166.24,85.77v10.24h.9v-.82h6.31v.82h.94v-10.24h-8.15Zm7.21.89v1.96h-6.31v-1.96h6.31Zm0,2.81v1.99h-6.31v-1.99h6.31Zm-6.31,4.85v-2h6.31v2h-6.31Z"/><path class="aa" d="m159,56l10,20h-20l10-20Z"/><rect class="ab" x="139" y="56" width="40" height="40"/><path class="ad" d="m117.47,88.3h-4.67v4.36h4.67v-4.36Zm-.9,3.56h-2.92v-2.76h2.92v2.76Z"/><path class="ad" d="m103.25,94.1l1.96-2.1c.5-.54.89-.99,1.17-1.36.28-.38.48-.71.6-1.02.12-.31.17-.62.17-.94,0-.45-.11-.86-.34-1.22-.22-.37-.53-.66-.93-.87-.4-.22-.85-.32-1.36-.32s-.97.11-1.38.32c-.41.22-.73.52-.96.9-.23.39-.35.83-.35,1.35h1.01c0-.33.07-.62.2-.87.14-.25.33-.44.58-.58.25-.14.54-.21.88-.21.32,0,.6.06.85.18s.45.3.6.52c.15.22.22.49.22.8,0,.27-.05.52-.16.77-.1.24-.27.5-.48.78-.22.27-.5.59-.84.96l-2.88,3.15v.77h5.51v-.94h-4.06v-.07Z"/><path class="ad" d="m124.05,85.77v10.24h.9v-.82h6.31v.82h.94v-10.24h-8.15Zm7.21.89v1.96h-6.31v-1.96h6.31Zm0,2.81v1.99h-6.31v-1.99h6.31Zm-6.31,4.85v-2h6.31v2h-6.31Z"/><path class="ad" d="m110.15,96.05h.92v-.64h8.15v.64h.96v-10.54h-10.03v10.54Zm9.07-9.62v8.14h-8.15v-8.14h8.15Z"/><path class="aa" d="m117,56l10,20h-20l10-20Z"/><rect class="ab" x="97" y="56" width="40" height="40"/><path class="aa" d="m75,56l10,20h-20l10-20Z"/><path class="ad" d="m77.17,87.54c.07-.28.14-.55.19-.81.06-.23.13-.65.22-.95l-1.04-.1c.01.28-.02.67-.07.91-.05.28-.11.58-.19.88-1.05.01-2.07.27-3.08.86-.11-.34-.21-.67-.28-.95-.1-.34-.19-.73-.25-1.06l-1,.31c.16.31.29.71.41,1.09.11.36.23.73.36,1.11-1.09.89-1.86,2.33-1.86,3.7s.77,2.16,1.68,2.16,1.63-.6,2.36-1.5c.19.25.38.48.58.69l.76-.61c-.26-.25-.51-.54-.75-.86.68-.98,1.3-2.55,1.75-4.08,1.54.27,2.52,1.46,2.52,3,0,1.86-1.38,3.17-3.89,3.4l.55.85c2.58-.36,4.3-1.81,4.3-4.21,0-2.06-1.33-3.54-3.25-3.86Zm-4.83,6.22c-.54,0-.89-.48-.89-1.27,0-.94.49-2.04,1.3-2.79.35.91.73,1.76,1.07,2.31.09.16.19.31.28.45-.54.71-1.16,1.3-1.76,1.3Zm2.06-2.51c-.29-.48-.62-1.28-.92-2.09.78-.5,1.64-.8,2.57-.84-.37,1.24-.89,2.48-1.41,3.32-.08-.13-.17-.26-.24-.39Z"/><path class="ad" d="m61.18,92.81l.55-.67c-.15-.16-.53-.57-.92-.97.33-.34.71-.81,1.09-1.24l-.6-.48c-.21.37-.59.9-.9,1.29-.17-.17-.33-.33-.45-.44.63-.87,1.18-1.83,1.56-2.8l-.52-.34-.17.05h-1.01v-2.21h-.88v2.21h-1.75v.82h3.2c-.79,1.65-2.21,3.3-3.53,4.24.14.16.4.56.49.79.53-.4,1.07-.92,1.6-1.51v4.49h.88v-4.9c.49.55,1.09,1.29,1.36,1.68Z"/><path class="ad" d="m66.91,86.1h-5.4v.85h2.05c-.08,3.15-.28,6.64-2.94,8.41.24.16.54.46.71.68,2.76-1.97,3.05-5.67,3.14-9.1h2.42c-.12,5.44-.28,7.46-.63,7.87-.13.17-.25.22-.47.2-.28,0-.91,0-1.62-.06.16.26.26.66.29.92.65.04,1.31.06,1.72.01.4-.06.66-.17.92-.54.46-.6.59-2.64.72-8.76v-.5h-.91Z"/><path class="ad" d="m90.78,87.48c.61-.17,1.66-.19,2.35-.18v-.96c-.82.02-1.93.1-3.24.2-2.22.19-4.48.41-5.26.49-.24.02-.62.05-1.08.06l.11,1.06c1.31-.28,4.36-.58,5.65-.71-1.1.65-2.24,2.17-2.24,4.04,0,2.69,2.52,3.86,4.75,3.95l.34-.98c-1.94-.08-4.14-.83-4.14-3.17,0-1.42,1.04-3.25,2.76-3.8Z"/><rect class="ab" x="55" y="56" width="40" height="40"/><circle class="z" cx="75" cy="108.05" r="3.5"/><path class="aa" d="m75,105.05c1.65,0,3,1.35,3,3s-1.35,3-3,3-3-1.35-3-3,1.35-3,3-3m0-1c-2.21,0-4,1.79-4,4s1.79,4,4,4,4-1.79,4-4-1.79-4-4-4h0Z"/><circle class="z" cx="117" cy="108.05" r="3.5"/><path class="aa" d="m117,105.05c1.65,0,3,1.35,3,3s-1.35,3-3,3-3-1.35-3-3,1.35-3,3-3m0-1c-2.21,0-4,1.79-4,4s1.79,4,4,4,4-1.79,4-4-1.79-4-4-4h0Z"/><circle class="z" cx="159" cy="108.05" r="3.5"/><path class="aa" d="m159,105.05c1.65,0,3,1.35,3,3s-1.35,3-3,3-3-1.35-3-3,1.35-3,3-3m0-1c-2.21,0-4,1.79-4,4s1.79,4,4,4,4-1.79,4-4-1.79-4-4-4h0Z"/><circle class="z" cx="201" cy="108.05" r="3.5"/><path class="aa" d="m201,105.05c1.65,0,3,1.35,3,3s-1.35,3-3,3-3-1.35-3-3,1.35-3,3-3m0-1c-2.21,0-4,1.79-4,4s1.79,4,4,4,4-1.79,4-4-1.79-4-4-4h0Z"/><path class="q" d="m59,160c.68,0,1.34-.04,2-.12"/><path class="r" d="m64.95,158.86c5.89-2.36,10.05-8.12,10.05-14.86v-27.97"/><line class="q" x1="75" y1="114" x2="75" y2="112"/><path class="q" d="m101,160c.68,0,1.34-.04,2-.12"/><path class="r" d="m106.95,158.86c5.89-2.36,10.05-8.12,10.05-14.86v-27.97"/><line class="q" x1="117" y1="114" x2="117" y2="112"/><path class="q" d="m143,160c.68,0,1.34-.04,2-.12"/><path class="t" d="m148.94,158.86c5.89-2.36,10.06-8.12,10.06-14.86v-27.92"/><line class="q" x1="159" y1="114.05" x2="159" y2="112.05"/><line class="q" x1="201" y1="112" x2="201" y2="114"/><path class="w" d="m201,117.98v26.02c0,8.84-7.16,16-16,16H62.99"/><line class="q" x1="61" y1="160" x2="59" y2="160"/><rect class="ac" y="302" width="256" height="242" rx="16" ry="16"/><path class="ag" d="m240,303c8.27,0,15,6.73,15,15v210c0,8.27-6.73,15-15,15H16c-8.27,0-15-6.73-15-15v-210c0-8.27,6.73-15,15-15h224m0-1H16c-8.84,0-16,7.16-16,16v210c0,8.84,7.16,16,16,16h224c8.84,0,16-7.16,16-16v-210c0-8.84-7.16-16-16-16h0Z"/><path class="ad" d="m41.54,395.16v-4.13h-4.36v10.54h.89v-6.41h3.47Zm-3.47-.7v-1.07h2.62v1.07h-2.62Zm2.62-2.74v1.01h-2.62v-1.01h2.62Z"/><path class="ad" d="m46.62,391.03h-4.01v4.14h3.56v5.2c0,.2-.07.28-.29.28-.22.01-.95.02-1.68-.01.13.25.28.67.31.92,1.01,0,1.66-.01,2.04-.16.38-.16.52-.46.52-1.03v-9.34h-.46Zm-.44.7v1.01h-2.7v-1.01h2.7Zm-2.7,2.76v-1.09h2.7v1.09h-2.7Z"/><path class="ad" d="m24.43,391.31h-.43v8.87h.85v-.98h2.58v-7.88h-3Zm.42,7.07v-2.77h1.74v2.77h-1.74Zm1.74-6.25v2.68h-1.74v-2.68h1.74Z"/><path class="ad" d="m29.15,397.67l-.72.43c.61.62,1.26,1.52,1.52,2.11l.78-.48c-.29-.59-.96-1.44-1.58-2.06Z"/><path class="ad" d="m31.56,392.75h2.59v-.79h-2.59v-1.44h-.89v1.44h-2.52v.79h2.52v1.54h-3.04v.8h4.62v1.37h-4.56v.8h4.56v3.22c0,.18-.06.23-.26.24-.19.01-.86.01-1.61-.01.13.24.28.6.31.84.96,0,1.57-.01,1.94-.14s.49-.4.49-.91v-3.23h1.4v-.8h-1.4v-1.37h1.54v-.8h-3.11v-1.54Z"/><path class="ad" d="m44.32,400.44v-4.38h-4.49v4.99h.83v-.61h3.66Zm-3.66-.7v-1.18h2.81v1.18h-2.81Zm2.81-2.98v1.1h-2.81v-1.1h2.81Z"/><line class="p" x1="55" y1="396.04" x2="223.14" y2="396.04"/><polygon class="af" points="221.16 398.95 232 396.04 221.16 393.14 221.16 398.95"/><path class="ad" d="m190.03,372.76h-1.49l-4.48,7.08v1.01h4.79v2.09h1.17v-2.09h1.39v-1.09h-1.39v-7Zm-4.63,6.92l3.38-5.35h.08v5.43h-3.46v-.08Z"/><path class="ad" d="m193.38,384.05h1.08v-.74h9.51v.74h1.12v-12.29h-11.7v12.29Zm10.58-11.23v9.49h-9.51v-9.49h9.51Z"/><path class="ad" d="m208.43,372.05v11.94h1.05v-.95h7.36v.95h1.09v-11.94h-9.51Zm8.41,1.04v2.28h-7.36v-2.28h7.36Zm0,3.28v2.32h-7.36v-2.32h7.36Zm-7.36,5.66v-2.34h7.36v2.34h-7.36Z"/><path class="ad" d="m201.92,375.01h-5.45v5.08h5.45v-5.08Zm-1.05,4.16h-3.4v-3.22h3.4v3.22Z"/><rect class="ab" x="181" y="344" width="40" height="40"/><path class="ad" d="m147.77,378.64v-.07c.44-.13.79-.37,1.04-.72.26-.35.39-.77.39-1.26,0-.41-.1-.8-.31-1.15-.21-.35-.5-.64-.89-.86-.39-.22-.85-.33-1.39-.33-.5,0-.96.1-1.39.29-.42.19-.76.46-1.01.81-.26.34-.4.74-.41,1.2h1.02c.02-.29.1-.54.27-.74.17-.21.38-.36.65-.47.27-.11.55-.17.85-.17.32,0,.6.06.83.18.24.12.42.29.55.51.13.22.2.48.2.77s-.07.57-.23.8c-.15.23-.35.4-.62.53-.26.12-.57.19-.91.19h-.7v.94h.7c.44,0,.82.07,1.12.21.31.14.54.33.7.58.16.24.24.53.24.85s-.08.58-.25.81c-.16.23-.39.42-.68.55-.29.13-.62.2-1,.2-.34,0-.64-.06-.92-.17-.28-.11-.5-.27-.67-.47-.17-.2-.27-.45-.29-.73h-1.07c.02.46.16.86.42,1.21.26.34.61.61,1.04.81.44.19.94.29,1.5.29s1.07-.11,1.51-.32c.44-.22.79-.51,1.05-.89.26-.38.39-.8.39-1.28,0-.55-.16-1.02-.47-1.39-.31-.38-.74-.61-1.29-.7Z"/><path class="ad" d="m152.35,384.05h.92v-.64h8.15v.64h.96v-10.54h-10.03v10.54Zm9.07-9.62v8.14h-8.15v-8.14h8.15Z"/><path class="ad" d="m159.66,376.3h-4.67v4.36h4.67v-4.36Zm-.9,3.56h-2.92v-2.76h2.92v2.76Z"/><path class="ad" d="m166.24,373.77v10.24h.9v-.82h6.31v.82h.94v-10.24h-8.15Zm7.21.89v1.96h-6.31v-1.96h6.31Zm0,2.81v1.99h-6.31v-1.99h6.31Zm-6.31,4.85v-2h6.31v2h-6.31Z"/><rect class="ab" x="139" y="344" width="40" height="40"/><path class="ah" d="m159,344l10.5,7.64-4.01,12.36h-12.98l-4.01-12.36,10.5-7.64Z"/><path class="ad" d="m117.47,376.3h-4.67v4.36h4.67v-4.36Zm-.9,3.56h-2.92v-2.76h2.92v2.76Z"/><path class="ad" d="m103.25,382.1l1.96-2.1c.5-.54.89-.99,1.17-1.36.28-.38.48-.71.6-1.02.12-.31.17-.62.17-.94,0-.45-.11-.86-.34-1.22-.22-.37-.53-.66-.93-.87-.4-.22-.85-.32-1.36-.32s-.97.11-1.38.32c-.41.22-.73.52-.96.9-.23.39-.35.83-.35,1.35h1.01c0-.33.07-.62.2-.87.14-.25.33-.44.58-.58.25-.14.54-.21.88-.21.32,0,.6.06.85.18s.45.3.6.52c.15.22.22.49.22.8,0,.27-.05.52-.16.77-.1.24-.27.5-.48.78-.22.27-.5.59-.84.96l-2.88,3.15v.77h5.51v-.94h-4.06v-.07Z"/><path class="ad" d="m124.05,373.77v10.24h.9v-.82h6.31v.82h.94v-10.24h-8.15Zm7.21.89v1.96h-6.31v-1.96h6.31Zm0,2.81v1.99h-6.31v-1.99h6.31Zm-6.31,4.85v-2h6.31v2h-6.31Z"/><path class="ad" d="m110.15,384.05h.92v-.64h8.15v.64h.96v-10.54h-10.03v10.54Zm9.07-9.62v8.14h-8.15v-8.14h8.15Z"/><rect class="ab" x="97" y="344" width="40" height="40"/><rect class="ak" x="107" y="344" width="20" height="20"/><path class="ai" d="m75,344l10,20h-20l10-20Z"/><path class="ad" d="m77.17,375.54c.07-.28.14-.55.19-.81.06-.23.13-.65.22-.95l-1.04-.1c.01.28-.02.67-.07.91-.05.28-.11.58-.19.88-1.05.01-2.07.27-3.08.86-.11-.34-.21-.67-.28-.95-.1-.34-.19-.73-.25-1.06l-1,.31c.16.31.29.71.41,1.09.11.36.23.73.36,1.11-1.09.89-1.86,2.33-1.86,3.7s.77,2.16,1.68,2.16,1.63-.6,2.36-1.5c.19.25.38.48.58.69l.76-.61c-.26-.25-.51-.54-.75-.86.68-.98,1.3-2.55,1.75-4.08,1.54.27,2.52,1.46,2.52,3,0,1.86-1.38,3.17-3.89,3.4l.55.85c2.58-.36,4.3-1.81,4.3-4.21,0-2.06-1.33-3.54-3.25-3.86Zm-4.83,6.22c-.54,0-.89-.48-.89-1.27,0-.94.49-2.04,1.3-2.79.35.91.73,1.76,1.07,2.31.09.16.19.31.28.45-.54.71-1.16,1.3-1.76,1.3Zm2.06-2.51c-.29-.48-.62-1.28-.92-2.09.78-.5,1.64-.8,2.57-.84-.37,1.24-.89,2.48-1.41,3.32-.08-.13-.17-.26-.24-.39Z"/><path class="ad" d="m61.18,380.81l.55-.67c-.15-.16-.53-.57-.92-.97.33-.34.71-.81,1.09-1.24l-.6-.48c-.21.37-.59.9-.9,1.29-.17-.17-.33-.33-.45-.44.63-.87,1.18-1.83,1.56-2.8l-.52-.34-.17.05h-1.01v-2.21h-.88v2.21h-1.75v.82h3.2c-.79,1.65-2.21,3.3-3.53,4.24.14.16.4.56.49.79.53-.4,1.07-.92,1.6-1.51v4.49h.88v-4.9c.49.55,1.09,1.29,1.36,1.68Z"/><path class="ad" d="m66.91,374.1h-5.4v.85h2.05c-.08,3.15-.28,6.64-2.94,8.41.24.16.54.46.71.68,2.76-1.97,3.05-5.67,3.14-9.1h2.42c-.12,5.44-.28,7.46-.63,7.87-.13.17-.25.22-.47.2-.28,0-.91,0-1.62-.06.16.26.26.66.29.92.65.04,1.31.06,1.72.01.4-.06.66-.17.92-.54.46-.6.59-2.64.72-8.76v-.5h-.91Z"/><path class="ad" d="m90.78,375.48c.61-.17,1.66-.19,2.35-.18v-.96c-.82.02-1.93.1-3.24.2-2.22.19-4.48.41-5.26.49-.24.02-.62.05-1.08.06l.11,1.06c1.31-.28,4.36-.58,5.65-.71-1.1.65-2.24,2.17-2.24,4.04,0,2.69,2.52,3.86,4.75,3.95l.34-.98c-1.94-.08-4.14-.83-4.14-3.17,0-1.42,1.04-3.25,2.76-3.8Z"/><rect class="ab" x="55" y="344" width="40" height="40"/><circle class="z" cx="75" cy="396.05" r="4"/><path class="aj" d="m75,393.05c1.65,0,3,1.35,3,3s-1.35,3-3,3-3-1.35-3-3,1.35-3,3-3m0-1c-2.21,0-4,1.79-4,4s1.79,4,4,4,4-1.79,4-4-1.79-4-4-4h0Z"/><circle class="z" cx="117" cy="396.05" r="4"/><path class="an" d="m117,393.05c1.65,0,3,1.35,3,3s-1.35,3-3,3-3-1.35-3-3,1.35-3,3-3m0-1c-2.21,0-4,1.79-4,4s1.79,4,4,4,4-1.79,4-4-1.79-4-4-4h0Z"/><circle class="z" cx="159" cy="396.05" r="4"/><path class="am" d="m159,393.05c1.65,0,3,1.35,3,3s-1.35,3-3,3-3-1.35-3-3,1.35-3,3-3m0-1c-2.21,0-4,1.79-4,4s1.79,4,4,4,4-1.79,4-4-1.79-4-4-4h0Z"/><circle class="z" cx="201" cy="396.05" r="4"/><path class="al" d="m201,393.05c1.65,0,3,1.35,3,3s-1.35,3-3,3-3-1.35-3-3,1.35-3,3-3m0-1c-2.21,0-4,1.79-4,4s1.79,4,4,4,4-1.79,4-4-1.79-4-4-4h0Z"/><path class="o" d="m59,448c.68,0,1.34-.04,2-.12"/><path class="s" d="m64.95,446.86c5.89-2.36,10.05-8.12,10.05-14.86v-27.97"/><line class="o" x1="75" y1="402" x2="75" y2="400"/><path class="o" d="m101,448c.68,0,1.34-.04,2-.12"/><path class="s" d="m106.95,446.86c5.89-2.36,10.05-8.12,10.05-14.86v-27.97"/><line class="o" x1="117" y1="402" x2="117" y2="400"/><path class="o" d="m143,448c.68,0,1.34-.04,2-.12"/><path class="u" d="m148.94,446.86c5.89-2.36,10.06-8.12,10.06-14.86v-27.92"/><line class="o" x1="159" y1="402.05" x2="159" y2="400.05"/><line class="o" x1="201" y1="400" x2="201" y2="402"/><path class="x" d="m201,405.98v26.02c0,8.84-7.16,16-16,16H62.99"/><line class="o" x1="61" y1="448" x2="59" y2="448"/><path class="ad" d="m203.25,488.25c1.12,1.33,2.38,4.11,2.85,5.74l1.25-.59c-.54-1.47-1.94-4.38-2.93-5.68l-1.17.53Z"/><path class="ad" d="m229.55,485.26l-1.14-.35c-.9,2.43-2.4,4.83-3.97,6.38.22.27.56.91.69,1.18.54-.56,1.07-1.22,1.58-1.94v9.03h1.18v-10.87c.63-1.1,1.2-2.26,1.65-3.43Z"/><path class="ad" d="m228.98,498.79c.27.16.74.54.96.75,1.07-.91,2.29-2.34,3.07-3.73l-1.14-.35c-.69,1.23-1.79,2.5-2.9,3.33Z"/><path class="ad" d="m218.99,498.18v-2.52h3.36v-.99h-3.36v-1.87h4.16v-1.01h-9.22v1.01h3.94v5.07c-.91-.39-1.64-1.13-2.09-2.5.13-.53.23-1.09.3-1.68l-1.09-.13c-.26,2.37-.98,4.18-2.4,5.31.24.18.7.53.9.72.84-.75,1.47-1.75,1.92-2.97,1.04,2.29,2.74,2.73,5.08,2.73h2.82c.03-.3.19-.82.35-1.07-.56.02-2.72.02-3.12.02-.54,0-1.06-.03-1.54-.1Z"/><path class="ad" d="m51.39,488.79h10.99v-3.28h-12.21v4.72c0,2.58-.13,6.16-1.58,8.7.3.11.85.4,1.07.61,1.5-2.66,1.73-6.61,1.73-9.31v-1.44Zm9.79-2.32v1.36h-9.79v-1.36h9.79Z"/><path class="ad" d="m205.5,485.13c.46.59.99,1.5,1.33,2.21l.88-.38c-.32-.59-.93-1.6-1.36-2.19l-.85.37Z"/><path class="ad" d="m45.98,488.6h-2.26c.03-1.14.03-2.32.04-3.54h-1.15c0,1.22,0,2.4-.03,3.54h-1.9v1.12h1.87c-.14,3.01-.57,5.59-1.95,7.5v-.03c-1.08.11-2.17.23-3.22.33v-1.29h3.15v-.91h-3.15v-.98h3.1v-4.8h-3.1v-1.01h3.41v-.93h-3.41v-1.19c1.17-.13,2.27-.28,3.14-.48l-.61-.93c-1.65.38-4.56.67-6.94.8.13.24.24.64.29.9.95-.03,1.99-.09,3.02-.18v1.08h-3.47v.93h3.47v1.01h-3.01v4.8h3.01v.98h-3.04v.91h3.04v1.4c-1.32.13-2.53.24-3.49.33l.18,1.04c1.81-.18,4.29-.47,6.74-.76-.21.2-.44.39-.69.56.29.19.7.58.9.86,2.85-2.13,3.58-5.66,3.78-9.95h2.28c-.17,5.84-.35,7.97-.73,8.45-.14.21-.3.26-.56.26-.32,0-1.02-.02-1.81-.08.19.32.32.82.35,1.15.74.05,1.5.05,1.95,0,.48-.05.8-.19,1.09-.61.53-.69.69-2.93.86-9.68,0-.16.02-.61.02-.61h-1.15Zm-6.53,4.91h-2.08v-1.18h2.08v1.18Zm0-3.14v1.15h-2.08v-1.15h2.08Zm-5.18,0h2v1.15h-2v-1.15Zm0,3.14v-1.18h2v1.18h-2Z"/><path class="ad" d="m51.58,491.08c.22.18.59.58.74.75.9-.61,1.9-1.58,2.54-2.51l-.96-.32c-.54.8-1.44,1.55-2.32,2.08Z"/><path class="ad" d="m213.65,492.98l-.18-1.1c-.54.17-1.08.35-1.62.51v-3.18h1.78v-1.12h-1.78v-3.22h-1.12v3.22h-1.98v1.12h1.98v3.53c-.81.25-1.56.47-2.16.63l.3,1.17c.56-.18,1.2-.38,1.86-.6v4.14c0,.24-.06.3-.27.3-.19,0-.8,0-1.5-.02.16.34.3.83.35,1.12,1.01,0,1.63-.03,2-.22.4-.19.54-.51.54-1.17v-4.52c.59-.19,1.2-.39,1.79-.59Z"/><path class="ad" d="m173.04,491.91h-6.9v7.65h1.12v-2.5h5.78v1.15c0,.21-.06.27-.29.27-.22.02-.99.02-1.79-.02.14.3.3.75.35,1.04,1.14.02,1.86,0,2.3-.18.45-.18.58-.5.58-1.1v-6.32h-1.15Zm0,.93v1.18h-5.78v-1.18h5.78Zm-5.78,3.33v-1.22h5.78v1.22h-5.78Z"/><path class="ad" d="m152.72,491.78c.98-.11,1.97-.18,2.96-.18s1.87.1,2.7.19l.03-1.22c-.86-.1-1.84-.13-2.77-.13-1.02,0-2.1.05-2.93.13v1.2Z"/><path class="ad" d="m200.11,489c-.39,0-1.06.05-1.81.11.17-.87.33-1.82.42-2.28.06-.3.13-.66.19-.94l-1.49-.16c0,1.09-.17,2.33-.41,3.49-.97.08-1.9.16-2.43.17-.51.02-.93.03-1.42,0l.13,1.39c.42-.06,1.07-.14,1.44-.19.41-.04,1.19-.13,2.02-.22-.54,2.14-1.73,5.79-3.37,7.98l1.31.51c1.68-2.7,2.77-6.31,3.35-8.62.7-.07,1.35-.11,1.73-.11,1.02,0,1.7.27,1.7,1.74,0,1.73-.26,3.81-.77,4.9-.32.69-.8.82-1.39.82-.45,0-1.3-.11-1.97-.32l.22,1.33c.5.13,1.26.24,1.87.24,1.04,0,1.84-.27,2.34-1.34.67-1.33.93-3.87.93-5.78,0-2.16-1.17-2.7-2.59-2.7Z"/><path class="ad" d="m22.38,491.38h5.38v6.64c0,.27-.1.34-.42.35-.29.02-1.36.02-2.5-.02.18.35.34.85.38,1.18,1.57,0,2.48-.02,3.02-.19.54-.19.72-.56.72-1.31v-6.66h2.43v-1.14h-9.02v1.14Z"/><path class="ad" d="m222.27,485.38h-7.6v5.25h7.6v-5.25Zm-1.15,4.32h-5.34v-1.28h5.34v1.28Zm0-2.13h-5.34v-1.28h5.34v1.28Z"/><path class="ad" d="m237.01,493.38v-3.95h2.29v-1.15h-2.29v-3.26h-1.17v3.26h-3.12v-3.25h-1.18v3.25h-2.06v1.15h2.06v3.95h-2.46v1.18h10.42v-1.18h-2.48Zm-4.29-3.95h3.12v3.95h-3.12v-3.95Z"/><path class="ad" d="m205.9,487.61c-.34-.66-.91-1.63-1.31-2.21l-.86.37c.45.61.99,1.57,1.31,2.22l.86-.38Z"/><path class="ad" d="m21.04,488.28c-1.1,1.84-2.86,3.7-4.53,4.88.26.22.67.75.85.99.59-.48,1.21-1.04,1.82-1.67v7.14h1.2v-8.46c.66-.79,1.28-1.62,1.79-2.45l-1.14-.43Z"/><path class="ad" d="m21.54,485.32l-1.15-.46c-.82,1.15-2.37,2.59-3.7,3.49.21.24.53.7.7.96,1.42-1.02,3.07-2.58,4.14-3.98Z"/><path class="ad" d="m114.45,496.55h3.1v-10.53h-4.22v11.84h1.12v-1.31Zm0-1.09v-3.71h2v3.71h-2Zm2-8.34v3.55h-2v-3.55h2Z"/><rect class="ad" x="23.09" y="485.83" width="7.86" height="1.15"/><path class="ad" d="m236.45,495.5l-.94.54c1.07,1.07,2.26,2.56,2.8,3.55l1.01-.64c-.58-.98-1.76-2.4-2.86-3.46Z"/><path class="ad" d="m145.26,512c-.72,0-1.49.08-2.22.32,1.25-1.02,3.42-2.9,4.21-3.5.3-.24.62-.45.91-.64l-.74-.94c-.18.06-.4.1-.88.14-.85.08-4.64.19-5.49.19-.32,0-.77-.02-1.12-.05l.03,1.31c.35-.05.7-.06,1.07-.1.83-.05,4.03-.18,4.88-.22-.8.72-2.82,2.4-3.71,3.14-.91.78-2.98,2.51-4.3,3.6l.93.93c2.02-2.06,3.46-3.18,6.11-3.18,2.1,0,3.6,1.17,3.6,2.75,0,1.31-.74,2.23-2.01,2.72-.21-1.5-1.27-2.83-3.27-2.83-1.47,0-2.46.99-2.46,2.08,0,1.34,1.33,2.29,3.5,2.29,3.39,0,5.52-1.68,5.52-4.26,0-2.16-1.9-3.74-4.56-3.74Zm-1.15,6.86c-1.26,0-2.14-.46-2.14-1.25,0-.56.56-1.01,1.3-1.01,1.22,0,1.98.89,2.13,2.15-.4.06-.82.11-1.29.11Z"/><path class="ad" d="m153.76,488.86v-1.25c-.97.24-2.04.44-3.08.57.09-.44.17-.85.24-1.19.06-.3.18-.91.27-1.26l-1.52-.13c.03.34,0,.88-.06,1.33-.04.32-.13.82-.25,1.39-.6.05-1.18.08-1.71.08-.59,0-1.17-.03-1.92-.13l.03,1.25c.59.05,1.15.06,1.86.06.45,0,.96-.02,1.48-.06-.13.59-.27,1.19-.41,1.72-.61,2.26-1.73,5.5-2.69,7.17l1.39.46c.85-1.74,1.92-5.06,2.5-7.33.2-.7.37-1.44.52-2.14,1.12-.12,2.29-.31,3.33-.55Z"/><path class="ad" d="m189.11,496.54c.94-1.54,1.6-3.36,1.94-5.29l-.74-.27-.21.06h-4.59v-4.37h4.05v2c0,.18-.06.24-.32.26s-1.09.02-2.08-.02c.16.3.32.74.37,1.06,1.23,0,2.03-.02,2.53-.19.5-.18.62-.5.62-1.09v-3.09h-6.27v13.98h1.1v-.77c.27.21.6.53.77.79.82-.56,1.53-1.27,2.16-2.09.7.85,1.5,1.55,2.39,2.05.19-.3.56-.74.83-.98-.95-.46-1.81-1.18-2.55-2.06Zm-.73-.96c-.71-1.06-1.28-2.27-1.68-3.54h3.03c-.28,1.23-.72,2.44-1.34,3.54Zm-2.87,3.19v-6.73h.16c.48,1.67,1.18,3.23,2.06,4.54-.62.86-1.36,1.62-2.22,2.18Z"/><path class="ad" d="m122.87,494.76c.78,2.24,2.07,3.93,3.96,4.88.18-.3.53-.75.8-.98-1.97-.83-3.27-2.58-3.96-4.83h3.91v-1.1h-.94v-5.3h-3.33v-2.5h-1.12v2.5h-3.07v5.3h-1.07v1.1h3.89c-.45,1.93-1.63,3.6-4.61,4.83.26.21.61.64.75.9,2.89-1.21,4.21-2.88,4.79-4.8Zm2.65-6.24v4.21h-2.28c.05-.55.07-1.11.07-1.68v-2.53h2.21Zm-5.3,4.21v-4.21h1.97v2.51c0,.58-.02,1.15-.08,1.7h-1.89Z"/><path class="ad" d="m152.82,495.91c0-.42.1-.91.22-1.44l-1.18-.11c-.14.67-.24,1.28-.24,1.89,0,1.58,1.38,2.35,3.89,2.35,1.17,0,2.24-.1,3.1-.22l.05-1.28c-.99.19-2.08.3-3.14.3-2.27,0-2.7-.74-2.7-1.49Z"/><path class="ad" d="m142.48,495.59l-.9-1.09c-1.15,1.66-2.82,3.3-5.74,3.3-1.52,0-2.62-.61-2.62-2.37,0-2.38.13-6.18.19-7.98.03-.53.08-1.09.16-1.62h-1.63c.1.46.14,1.02.14,1.62,0,1.68-.16,5.73-.16,8.1,0,2.62,1.58,3.57,3.89,3.57,3.5,0,5.58-2,6.67-3.52Z"/><path class="ad" d="m164.59,487.21l-.8.32c.32.75.69,1.74.85,2.35l.83-.4c-.14-.59-.53-1.54-.88-2.27Z"/><polygon class="ad" points="170.75 488.94 174.58 488.94 174.58 488.06 170.75 488.06 170.75 487.03 174.98 487.03 174.98 486.12 170.75 486.12 170.75 484.86 169.57 484.86 169.57 486.12 165.47 486.12 165.47 487.03 169.57 487.03 169.57 488.06 165.86 488.06 165.86 488.94 169.57 488.94 169.57 490.06 164.98 490.06 164.98 490.97 175.44 490.97 175.44 490.06 170.75 490.06 170.75 488.94"/><rect class="ad" x="162.54" y="484.86" width="1.1" height="14.7"/><path class="ad" d="m160.56,492.07l.93.3c.37-1.2.64-3.06.69-4.3l-.9-.13c-.1,1.26-.35,3.02-.72,4.13Z"/><path class="ad" d="m133.09,518.03c-.58,0-.85-.43-.85-.98,0-1.62.61-4.37.61-5.97,0-1.3-.74-2.14-2.24-2.14-1.62,0-3.68,1.55-4.92,2.7.02-.31.05-.62.07-.93.24-.39.52-.84.72-1.14l-.46-.54s-.07.02-.1.03c.12-1.12.24-2.02.32-2.41l-1.5-.05c.08.4.06.82.06,1.18,0,.18-.03.76-.08,1.52-.83.13-1.77.23-2.28.26-.4.03-.7.03-1.06.02l.14,1.33c1.01-.16,2.4-.34,3.12-.44-.03.52-.07,1.06-.1,1.59-.81,1.25-2.65,3.74-3.54,4.86l.8,1.09c.78-1.07,1.83-2.59,2.62-3.76-.01.24-.02.45-.02.61-.02,1.76-.03,2.56-.03,4.11,0,.26-.02.64-.05.94h1.38c-.02-.3-.06-.7-.08-.98-.06-1.42-.06-2.4-.06-3.86,0-.57.02-1.2.05-1.87,1.47-1.6,3.4-3.11,4.72-3.11.82,0,1.28.4,1.28,1.33,0,1.55-.59,4.18-.59,5.97,0,1.31.7,2.02,1.78,2.02s2.08-.48,2.94-1.34l-.21-1.36c-.82.85-1.66,1.31-2.42,1.31Z"/><polygon class="ad" points="73.82 496.22 77.78 496.22 77.78 495.16 73.82 495.16 73.82 493.51 72.66 493.51 72.66 498.1 70.22 498.1 70.22 494.7 69.09 494.7 69.09 498.1 67.01 498.1 67.01 499.19 79.3 499.19 79.3 498.1 73.82 498.1 73.82 496.22"/><path class="ad" d="m72.77,489.64v-.94h-1.86v-1.57h-1.02v1.57h-2.11v.94h1.85c-.58,1.2-1.52,2.42-2.39,3.04.22.18.53.51.7.74.69-.57,1.4-1.52,1.95-2.55v2.92h1.02v-2.75c.46.42.97.91,1.2,1.18l.64-.8c-.29-.24-1.4-1.09-1.84-1.37v-.4h1.86Z"/><path class="ad" d="m62.5,495.77l-.64-.3-.21.05h-3.5c.2-.22.4-.44.56-.67l-.05-.02h3.59v-3.47h-5.8c.18-.23.35-.46.52-.7h5.89v-.83h-5.38c.12-.22.24-.44.34-.66l-.96-.3c-.45,1.02-1.19,1.98-2.01,2.66l-.66-.24c-.69,1.17-1.84,2.26-2.98,2.98.19.24.5.77.59.99.32-.22.64-.48.96-.77v5.1h1.07v-6.18c.43-.48.82-.99,1.15-1.5.15.23.31.49.39.61.22-.19.44-.41.66-.64v2.96h1.51c-.77.93-1.93,1.78-3.11,2.35.22.16.61.51.77.67.5-.28,1-.63,1.5-1,.41.42.91.8,1.47,1.13-1.01.37-2.14.62-3.26.77.18.21.4.59.5.85,1.34-.22,2.66-.57,3.83-1.09,1.09.47,2.33.8,3.63.99.13-.26.4-.66.62-.86-1.14-.12-2.23-.35-3.21-.67.94-.57,1.72-1.28,2.23-2.2Zm-5.47-3.76h4.18v.75h-4.18v-.75Zm0,1.38h4.18v.78h-4.18v-.78Zm.31,2.93s.04-.03.05-.05h3.6c-.46.51-1.09.93-1.81,1.28-.75-.34-1.37-.75-1.84-1.23Z"/><path class="ad" d="m67.22,486.73h12.02v-1.1h-13.15v4.74c0,2.54-.13,6.08-1.42,8.61.3.11.8.4,1.01.58,1.36-2.64,1.55-6.51,1.55-9.17v-3.65Z"/><path class="ad" d="m76.81,489.64h2.17v-.94h-2.59v-1.57h-1.02v1.57h-2.14v.94h1.72c-.61,1.14-1.59,2.3-2.51,2.88.21.19.51.53.69.75.8-.6,1.62-1.65,2.24-2.76v3.27h1.02v-3.17c.6,1.11,1.44,2.11,2.34,2.68.18-.26.48-.62.72-.82-1.06-.54-2.04-1.66-2.63-2.83Z"/><path class="ad" d="m117.76,508.48c-1.08.37-2.41.63-3.57.79-.31-.93-.6-1.97-.72-2.73l-1.38.16c.16.43.3.91.4,1.26.13.36.28.85.49,1.43-1.75.12-3.99.08-6.35-.19l.03,1.26c2.54.22,4.83.21,6.74.04.53,1.34,1.3,2.73,1.91,3.66-.58-.06-1.76-.16-2.66-.24l-.1,1.06c1.15.08,3.1.26,3.87.45l.64-.91c-.24-.26-.48-.53-.69-.85-.6-.82-1.3-2.06-1.79-3.29,1.08-.15,2.32-.37,3.3-.65l-.14-1.26Z"/><path class="ad" d="m108.35,516.53c0-.75.29-1.44.77-2.22l-1.25-.29c-.46.94-.78,1.78-.78,2.67,0,2.18,1.92,3.26,4.96,3.28,1.79.02,3.14-.16,4.14-.34l.05-1.28c-1.1.24-2.5.4-4.11.4-2.38-.03-3.78-.69-3.78-2.22Z"/><path class="ad" d="m180.94,487.54h2.35v-1.04h-2.35v-1.62h-1.12v1.62h-2.46v1.04h2.46v1.6h-3.04v1.04h1.9l-.78.19c.3.67.59,1.52.68,2.1h-1.58v1.04h2.82v1.74h-2.66v1.04h2.66v3.25h1.12v-3.25h2.56v-1.04h-2.56v-1.74h2.77v-1.04h-1.59c.29-.56.58-1.34.89-2.08l-.78-.21h1.68v-1.04h-2.96v-1.6Zm.87,4.93h-2.87l.62-.18c-.08-.55-.39-1.44-.74-2.11h3.13c-.18.62-.52,1.52-.78,2.1l.63.19Z"/><path class="ad" d="m94.22,491.24l-.51-1.18c-.45.22-.85.4-1.33.62-.82.39-1.8.78-2.91,1.3-.24-.94-1.08-1.46-2.11-1.46-.7,0-1.62.22-2.24.59.55-.72,1.06-1.61,1.45-2.47,1.74-.06,3.72-.2,5.32-.44v-1.18c-1.51.27-3.24.41-4.88.48.24-.74.37-1.36.48-1.84l-1.31-.11c-.04.58-.18,1.29-.41,1.99-.37,0-.72.01-1.06.01-.74,0-1.84-.05-2.7-.16v1.2c.9.06,1.95.1,2.64.1.21,0,.45,0,.68,0-.6,1.3-1.67,2.96-3.69,4.89l1.1.82c.53-.66.98-1.23,1.44-1.68.74-.66,1.74-1.17,2.77-1.17.71,0,1.28.32,1.44,1-1.86.96-3.76,2.15-3.76,4.06s1.84,2.43,4.11,2.43c1.39,0,3.17-.13,4.38-.27l.05-1.3c-1.41.26-3.14.4-4.38.4-1.65,0-2.88-.19-2.88-1.44,0-1.06,1.04-1.9,2.53-2.71,0,.84-.02,1.89-.07,2.51h1.23c-.01-.8-.04-2.14-.04-3.07,1.21-.57,2.36-1.04,3.26-1.39.43-.16,1.01-.38,1.41-.51Z"/><path class="ad" d="m110.43,499.61c.18-.34.51-.83.82-1.1-2.02-.45-3.69-1.21-5.08-2.24,1.6-1.51,2.85-3.48,3.54-6.05l-.82-.35-.24.05h-8.61v-2.85h10.54v-1.2h-11.74v4.37c0,2.56-.16,6.11-1.92,8.61.3.14.8.5,1.01.7,1.66-2.38,2.04-5.82,2.1-8.46h1.05c.74,2.08,1.77,3.8,3.14,5.18-1.4,1.04-3.01,1.79-4.7,2.23.26.26.56.77.7,1.09,1.8-.54,3.49-1.34,4.96-2.47,1.43,1.14,3.15,1.99,5.25,2.5Zm-2.34-8.53c-.63,1.76-1.63,3.22-2.89,4.38-1.25-1.18-2.18-2.65-2.83-4.38h5.72Z"/><rect class="ab" x="16" y="428" width="40" height="40"/><path class="m" d="m21.25,446.38c-1.52,0-2.75,1.24-2.75,2.78s.91,5.68,3.63,5.68c2.01,6.7,5.57,12.85,13.87,12.85,8.3,0,11.86-6.16,13.87-12.85,2.72,0,3.63-4.14,3.63-5.68s-1.23-2.78-2.75-2.78c10.11-12.37-13.42-23.98-23.04-14.72-8.39,0-11.18,9.94-6.45,14.72Z"/><path class="v" d="m50.75,446.38c1.52,0,2.75,1.24,2.75,2.78s-.91,5.68-3.63,5.68c-2.01,6.7-5.57,12.85-13.87,12.85-8.3,0-11.86-6.16-13.87-12.85-2.72,0-3.63-4.14-3.63-5.68s1.23-2.78,2.75-2.78c1.75-5.36,6.45-7.22,10.14-7.22,5.83,6.06,14.39-.03,19.35,7.22Z"/><circle class="z" cx="31.31" cy="449.88" r="1.88"/><circle class="z" cx="40.69" cy="449.88" r="1.88"/><path class="ao" d="m201,344l9,5v10l-9,5-9-5v-10l9-5Z"/><rect class="ae" x="90" y="288" width="76" height="28" rx="4" ry="4"/><path class="z" d="m103.84,306.54c-2.3,0-3.3-.75-3.3-1.76,0-.54.13-1.06.27-1.63l-2.1-.19c-.11.61-.32,1.39-.32,2.3,0,2.21,1.86,3.42,5.5,3.42,2.24,0,4.16-.21,5.57-.53l-.02-2.26c-1.42.4-3.47.64-5.62.64Z"/><path class="z" d="m108.46,298.48v-2.13c-1.22.13-3.06.22-4.62.22-1.7,0-3.18-.06-4.37-.19v2.11c1.31.1,2.7.18,4.37.18,1.54,0,3.5-.1,4.62-.19Z"/><path class="z" d="m125.26,306.06c-.4,0-.62-.29-.62-.7,0-1.66.53-4.02.53-5.66,0-1.34-.78-2.37-2.51-2.37-1.55,0-3.39,1.29-4.65,2.38.01-.12.02-.23.03-.35.27-.42.6-.93.81-1.21l-.59-.77c.13-1,.25-1.82.35-2.27l-2.34-.06c.1.5.08.98.08,1.42,0,.17-.03.64-.06,1.24-.68.1-1.38.18-1.85.2-.58.03-.94.03-1.39.02l.21,2.06c.9-.14,2.12-.29,2.91-.39-.03.37-.05.75-.08,1.11-.91,1.34-2.53,3.47-3.43,4.59l1.25,1.76c.55-.76,1.34-1.92,2.02-2.93-.03,1.34-.04,2.27-.05,3.51,0,.26-.02.82-.05,1.18h2.19c-.03-.35-.1-.94-.11-1.23-.1-1.49-.1-2.85-.1-4.14,0-.41.01-.85.03-1.3,1.31-1.43,3.04-2.9,4.22-2.9.69,0,1.09.38,1.09,1.17,0,1.47-.58,3.81-.58,5.55,0,1.55.8,2.42,2,2.42,1.31,0,2.27-.51,3.02-1.2l-.27-2.24c-.72.72-1.47,1.14-2.06,1.14Z"/><path class="z" d="m155.74,296.37c-1.41-.14-4.9-.77-6.42-1.25l-.5,1.94c1.25.32,4.8,1.06,6.43,1.28l.48-1.97Z"/><path class="z" d="m153.55,300.56c-1.68,0-3.28.48-4.72,1.54.11-.93.38-2.86.61-3.76l-2.16-.29c-.1,1.98-.48,5.12-.8,6.69l1.86.45c.13-.32.3-.58.59-.91,1.01-1.22,2.62-1.89,4.43-1.89,1.41,0,2.38.75,2.38,1.79,0,2.05-2.53,3.22-7.34,2.54l.62,2.1c6.64.58,8.96-1.66,8.96-4.59,0-1.94-1.63-3.66-4.43-3.66Z"/><path class="z" d="m136.11,298.27c-.33,0-.82.03-1.36.07.12-.58.24-1.17.33-1.64.1-.4.19-.91.29-1.33l-2.37-.26c.01,1.03-.12,2.18-.35,3.39-.81.07-1.56.13-2.05.14-.59.02-1.14.03-1.71,0l.19,2.16c.48-.08,1.31-.19,1.78-.26.29-.04.8-.1,1.36-.17-.59,2.2-1.67,5.42-3.24,7.53l2.1.83c1.46-2.37,2.63-6.17,3.26-8.59.45-.04.85-.07,1.11-.07.99,0,1.55.19,1.55,1.47,0,1.57-.21,3.52-.66,4.42-.26.53-.66.69-1.2.69-.42,0-1.33-.16-1.95-.34l.34,2.11c.56.13,1.31.22,1.94.22,1.2,0,2.08-.35,2.62-1.47.67-1.38.9-3.97.9-5.86,0-2.32-1.2-3.07-2.88-3.07Z"/><path class="z" d="m138.98,297.68c1.15,1.42,2.29,4.3,2.7,6.1l2.03-.94c-.5-1.54-1.84-4.58-2.82-5.97l-1.92.82Z"/></svg>