<?xml version="1.0" encoding="UTF-8"?><svg id="a" xmlns="http://www.w3.org/2000/svg" xmlns:xlink="http://www.w3.org/1999/xlink" viewBox="0 0 256 544"><defs><style>.i,.j,.k,.l,.m,.n,.o,.p,.q,.r{stroke-linecap:round;stroke-linejoin:round;}.i,.k{stroke:#1b1320;}.i,.s{fill:#1b1320;}.j,.p,.q{stroke:#0d0910;}.j,.t{fill:#0d0910;}.k,.u{fill:#855fa0;}.l,.m,.v,.n,.o,.w,.r{fill:none;}.l,.r{stroke:#f6cd51;}.m,.n,.o,.w{stroke:#855fa0;}.v,.x,.s,.t,.y,.u,.z,.aa,.ab,.ac,.ad,.ae{stroke-width:0px;}.n{stroke-dasharray:0 0 3 3;}.o{stroke-dasharray:0 0 4.23 4.23;}.w{stroke-miterlimit:10;}.p{fill:url(#c);}.q{fill:url(#d);}.x{fill:#281d30;}.y{fill:#cebfd9;}.z{fill:#f6cd51;}.aa{fill:url(#b);}.ab{fill:url(#e);}.ac{fill:url(#f);}.ad{fill:url(#h);}.ae{fill:url(#g);}.r{stroke-dasharray:0 0 3.68 3.68;}</style><linearGradient id="b" x1="128" y1="302" x2="128" y2="544" gradientUnits="userSpaceOnUse"><stop offset="0" stop-color="#f6cd51"/><stop offset="1" stop-color="#f48e2a"/></linearGradient><linearGradient id="c" x1="64" y1="418.85" x2="64" y2="464.5" gradientUnits="userSpaceOnUse"><stop offset="0" stop-color="#f6cd51"/><stop offset="1" stop-color="#f48e2a"/></linearGradient><linearGradient id="d" x1="191.97" y1="129.5" x2="191.97" y2="81" gradientTransform="translate(0 546) scale(1 -1)" xlink:href="#c"/><linearGradient id="e" x1="64" y1="384" x2="64" y2="392" xlink:href="#c"/><linearGradient id="f" x1="96" y1="364" x2="96" y2="372" xlink:href="#c"/><linearGradient id="g" x1="192" y1="384" x2="192" y2="392" xlink:href="#c"/><linearGradient id="h" x1="160" y1="364" x2="160" y2="372" xlink:href="#c"/></defs><rect class="x" x=".5" y="14.5" width="255" height="241" rx="15.5" ry="15.5"/><path class="u" d="m240,15c8.27,0,15,6.73,15,15v210c0,8.27-6.73,15-15,15H16c-8.27,0-15-6.73-15-15V30c0-8.27,6.73-15,15-15h224m0-1H16C7.16,14,0,21.16,0,30v210c0,8.84,7.16,16,16,16h224c8.84,0,16-7.16,16-16V30c0-8.84-7.16-16-16-16h0Z"/><path class="y" d="m125.73,199.22c-.24-.64-.66-1.62-.96-2.21l-.78.24c.34.61.69,1.52.94,2.24l.8-.27Z"/><path class="y" d="m56.54,198.34c-2.96.26-5.97.54-7.01.66-.32.03-.83.06-1.44.08l.14,1.41c1.74-.37,5.81-.77,7.54-.94-1.47.86-2.99,2.9-2.99,5.39,0,3.58,3.36,5.15,6.34,5.26l.45-1.31c-2.59-.11-5.52-1.1-5.52-4.22,0-1.89,1.39-4.34,3.68-5.07.82-.22,2.21-.26,3.14-.24l-.02-1.28c-1.07.03-2.56.13-4.3.27Z"/><path class="y" d="m46.09,200.6c-.38-.74-1.15-1.94-1.57-2.5l-.9.42c.53.7,1.1,1.7,1.54,2.53l.93-.45Z"/><path class="y" d="m43.98,201.46c-.38-.77-1.12-1.95-1.52-2.56l-.93.4c.54.74,1.1,1.74,1.49,2.59l.96-.43Z"/><path class="y" d="m42.46,204.23c-1.02-1.09-2.26-2.67-3.22-3.65-1.06-1.09-1.89-.93-2.82.16-.96,1.14-2.29,2.96-3.15,3.82-.42.45-.75.75-1.15,1.06l1.18,1.22c.24-.35.61-.86.93-1.28.83-.99,2.14-2.75,2.9-3.68.56-.67.86-.8,1.54-.05.75.82,1.97,2.35,3.01,3.54,1.1,1.25,2.54,2.91,3.74,4.05l1.04-1.15c-1.44-1.28-3.04-2.96-4-4.03Z"/><path class="y" d="m26.44,199.1c0-.43.01-.81.02-1.06,0-.19.05-.82.08-1.01h-1.47c.03.14.08.59.11,1.02.01.23.02.6.03,1.05-2.39.04-5.4.14-7.18.16l.03,1.23c2.01-.15,4.73-.25,7.17-.28,0,.57.01,1.16.01,1.64-.32-.12-.67-.2-1.07-.2-1.52,0-2.83,1.18-2.83,2.77,0,1.74,1.3,2.69,2.64,2.69.52,0,.98-.14,1.36-.42-.66,1.44-2.11,2.32-4.21,2.82l1.07,1.04c3.71-1.1,4.77-3.5,4.77-5.68,0-.78-.18-1.47-.52-2.01,0-.74-.02-1.73-.02-2.66.07,0,.15,0,.22,0,2.35,0,3.79.03,4.69.08l.02-1.18c-.75-.02-2.74-.02-4.69-.02-.07,0-.16,0-.23,0Zm-2.27,6.91c-.88,0-1.63-.58-1.63-1.58s.78-1.7,1.63-1.7c.62,0,1.15.32,1.4,1.02.14,1.52-.47,2.26-1.4,2.26Z"/><path class="y" d="m133.62,217.79h-7.6v5.25h7.6v-5.25Zm-1.15,4.32h-5.34v-1.28h5.34v1.28Zm0-2.13h-5.34v-1.28h5.34v1.28Z"/><polygon class="y" points="217.06 200.34 220.88 200.34 220.88 199.46 217.06 199.46 217.06 198.44 221.28 198.44 221.28 197.53 217.06 197.53 217.06 196.26 215.87 196.26 215.87 197.53 211.78 197.53 211.78 198.44 215.87 198.44 215.87 199.46 212.16 199.46 212.16 200.34 215.87 200.34 215.87 201.46 211.28 201.46 211.28 202.38 221.74 202.38 221.74 201.46 217.06 201.46 217.06 200.34"/><path class="y" d="m124.11,199.72c-.22-.64-.64-1.63-.94-2.21l-.77.24c.32.61.69,1.57.91,2.24l.8-.27Z"/><path class="y" d="m181.38,205.91h2.69v2.61h1.09v-2.61h2.78v1.46c0,.21-.05.27-.26.27s-.88.02-1.63-.02c.14.27.29.69.34.99,1.07,0,1.74,0,2.16-.19.43-.18.54-.45.54-1.04v-7.09h-2.02c-.34-.2-.77-.42-1.25-.65,1.2-.6,2.41-1.39,3.27-2.2l-.74-.58-.26.06h-7.86v.96h6.71c-.64.46-1.43.92-2.2,1.27-.76-.33-1.54-.64-2.23-.88l-.77.67c.98.37,2.12.87,3.09,1.34h-4.61v8.29h1.14v-2.67Zm3.78-4.69h2.78v1.41h-2.78v-1.41Zm0,2.3h2.78v1.46h-2.78v-1.46Zm-3.78-2.3h2.69v1.41h-2.69v-1.41Zm0,2.3h2.69v1.46h-2.69v-1.46Z"/><path class="y" d="m235.42,207.95c.94-1.54,1.6-3.36,1.94-5.29l-.74-.27-.21.06h-4.59v-4.37h4.05v2c0,.18-.06.24-.32.26-.26.02-1.09.02-2.08-.02.16.3.32.74.37,1.06,1.23,0,2.03-.02,2.53-.19.5-.18.62-.5.62-1.09v-3.09h-6.27v13.98h1.1v-.77c.27.21.6.53.77.79.82-.56,1.53-1.27,2.16-2.09.7.85,1.5,1.55,2.39,2.05.19-.3.56-.74.83-.98-.95-.46-1.81-1.18-2.55-2.06Zm-3.59,2.22v-6.73h.16c.48,1.67,1.18,3.23,2.06,4.54-.62.86-1.36,1.62-2.22,2.18Zm2.87-3.19c-.71-1.06-1.28-2.27-1.68-3.54h3.03c-.28,1.23-.72,2.44-1.34,3.54Z"/><path class="y" d="m178.03,200.06l.91-.83c-.53-.78-1.73-1.87-2.75-2.59l-.83.75c1.01.75,2.18,1.89,2.67,2.67Z"/><rect class="y" x="208.85" y="196.26" width="1.1" height="14.7"/><path class="y" d="m139.07,204.28c.7,0,1.38.05,1.71.06v-1.57c-.37.03-.93.1-1.73.1h-8.77c-.91,0-1.74-.05-2.24-.1v1.57c.51-.03,1.36-.06,2.24-.06h8.78Z"/><path class="y" d="m227.25,198.95h2.35v-1.04h-2.35v-1.62h-1.12v1.62h-2.46v1.04h2.46v1.6h-3.04v1.04h1.9l-.78.19c.3.67.59,1.52.68,2.1h-1.58v1.04h2.82v1.74h-2.66v1.04h2.66v3.25h1.12v-3.25h2.56v-1.04h-2.56v-1.74h2.77v-1.04h-1.59c.29-.56.58-1.34.89-2.08l-.78-.21h1.68v-1.04h-2.96v-1.6Zm1.02,2.64c-.18.62-.52,1.52-.78,2.1l.63.19h-2.87l.62-.18c-.08-.55-.39-1.44-.74-2.11h3.13Z"/><path class="y" d="m156.29,200.2v-1.3c-1.58.24-4.83.3-6.58,0l.02,1.3c1.74.19,4.85.19,6.56,0Z"/><path class="y" d="m146.14,210.17c-.02-.18-.03-.4-.05-.56,0-.19.03-.5.08-.72.14-.77.74-2.45,1.14-3.58l-.67-.53c-.27.66-.64,1.62-.91,2.34-.1-.78-.14-1.46-.14-2.22,0-1.81.5-4.66.8-6.14.06-.29.19-.8.29-1.07l-1.42-.11c-.02.35-.06.75-.11,1.12-.19,1.33-.72,4.06-.72,6.42,0,2.18.27,4.02.59,5.15l1.14-.08Z"/><path class="y" d="m167.82,207.3c1.52,1.14,3.46,2.72,4.42,3.68l1.14-.74c-1.02-.96-3.02-2.5-4.51-3.55l-1.04.61Z"/><path class="y" d="m169.95,200.81h3.2v-1.15h-3.2v-3.25h-1.25v3.25h-4.56v-3.25h-1.23v3.25h-3.07v1.15h3.07v3.81h-3.71v1.17h14.53v-1.17h-3.78v-3.81Zm-1.25,3.81h-4.56v-3.81h4.56v3.81Z"/><path class="y" d="m159.41,210.15c.29.22.7.59.94.85,1.62-.93,3.44-2.4,4.58-3.81l-1.25-.48c-.9,1.2-2.69,2.59-4.27,3.44Z"/><path class="y" d="m148.35,221.84h2.29v-1.15h-2.29v-3.26h-1.17v3.26h-3.12v-3.25h-1.18v3.25h-2.06v1.15h2.06v3.95h-2.46v1.18h10.42v-1.18h-2.48v-3.95Zm-1.17,3.95h-3.12v-3.95h3.12v3.95Z"/><path class="y" d="m219.34,203.32h-6.9v7.65h1.12v-2.5h5.78v1.15c0,.21-.06.27-.29.27-.22.02-.99.02-1.79-.02.14.3.3.75.35,1.04,1.14.02,1.86,0,2.3-.18.45-.18.58-.5.58-1.1v-6.32h-1.15Zm0,4.26h-5.78v-1.22h5.78v1.22Zm0-2.14h-5.78v-1.18h5.78v1.18Z"/><path class="y" d="m147.79,227.9l-.94.54c1.07,1.07,2.26,2.56,2.8,3.55l1.01-.64c-.58-.98-1.76-2.4-2.86-3.46Z"/><path class="y" d="m206.86,203.48l.93.3c.37-1.2.64-3.06.69-4.3l-.9-.13c-.1,1.26-.35,3.02-.72,4.13Z"/><path class="y" d="m198.83,198.23c-3.92,0-7.01,3.02-7.01,6.5,0,2.66,1.42,4.29,2.86,4.29s2.75-1.7,3.73-4.98c.43-1.5.73-3.11.94-4.61,2.72.24,4.3,2.23,4.3,4.62,0,2.77-2.02,4.3-4.06,4.77-.38.08-.86.14-1.38.19l.74,1.18c3.81-.5,6.02-2.74,6.02-6.08s-2.38-5.89-6.13-5.89Zm-1.68,5.52c-.82,2.7-1.68,3.79-2.43,3.79s-1.63-.9-1.63-2.91c0-2.17,1.88-4.81,4.94-5.2-.18,1.47-.48,3-.88,4.32Z"/><path class="y" d="m182.61,209.56c-1.89-.06-3.26-.61-4.05-1.79v-5.18h-3.47v1.12h2.34v4.14c-.83.66-1.77,1.35-2.54,1.83l.59,1.18c.91-.69,1.78-1.39,2.59-2.08.99,1.26,2.45,1.82,4.54,1.9,1.79.08,5.22.05,6.99-.03.06-.35.24-.91.38-1.18-1.92.13-5.62.18-7.38.1Z"/><path class="y" d="m210.9,198.62l-.8.32c.32.75.69,1.74.85,2.35l.83-.4c-.14-.59-.53-1.54-.88-2.27Z"/><path class="y" d="m152.82,208.34c-2.19,0-2.7-.72-2.7-1.46,0-.43.08-.88.22-1.46l-1.15-.11c-.18.77-.26,1.34-.26,1.87,0,1.5,1.2,2.4,3.87,2.4,1.66,0,3.01-.13,4-.34l-.03-1.34c-1.28.3-2.53.43-3.95.43Z"/><path class="y" d="m140.32,231.2c.27.16.74.54.96.75,1.07-.91,2.29-2.34,3.07-3.73l-1.14-.35c-.69,1.23-1.79,2.5-2.9,3.33Z"/><path class="y" d="m90.05,207.43c.27-1.71.93-5.97,1.1-7.47.02-.13.06-.37.13-.53l-1.07-.51c-.18.08-.67.14-.99.14h-5.89c-.53,0-1.04-.05-1.52-.1v1.42c.5-.05.93-.06,1.54-.06h6.29c-.03,1.1-.7,5.4-1.01,7.1h-7.2c-.45,0-.94-.02-1.41-.1v1.47c.48-.05.96-.08,1.41-.08h10.78c.34,0,.91.02,1.34.08v-1.47c-.42.05-.85.1-1.34.1h-2.15Z"/><path class="y" d="m109.1,204.34v-1.57c-.37.03-.93.1-1.73.1h-8.77c-.91,0-1.74-.05-2.24-.1v1.57c.51-.03,1.36-.06,2.24-.06h8.78c.7,0,1.38.05,1.71.06Z"/><path class="y" d="m71.15,198.23c-3.92,0-7.01,3.02-7.01,6.5,0,2.66,1.42,4.29,2.86,4.29s2.75-1.7,3.73-4.98c.43-1.5.73-3.11.94-4.61,2.72.24,4.3,2.23,4.3,4.62,0,2.77-2.02,4.3-4.06,4.77-.38.08-.86.14-1.38.19l.74,1.18c3.81-.5,6.02-2.74,6.02-6.08s-2.38-5.89-6.13-5.89Zm-1.68,5.52c-.82,2.7-1.68,3.79-2.43,3.79s-1.63-.9-1.63-2.91c0-2.17,1.88-4.81,4.94-5.2-.18,1.47-.48,3-.88,4.32Z"/><path class="y" d="m117.57,223.65l-.51-1.18c-.45.22-.85.4-1.33.62-.82.39-1.8.78-2.91,1.3-.24-.94-1.08-1.46-2.11-1.46-.7,0-1.62.22-2.24.59.55-.72,1.06-1.61,1.45-2.47,1.74-.06,3.72-.2,5.32-.44v-1.18c-1.51.27-3.24.41-4.88.48.24-.74.37-1.36.48-1.84l-1.31-.11c-.04.58-.18,1.29-.41,1.99-.37,0-.72.01-1.06.01-.74,0-1.84-.05-2.7-.16v1.2c.9.06,1.95.1,2.64.1.21,0,.45,0,.68,0-.6,1.3-1.67,2.96-3.69,4.89l1.1.82c.53-.66.98-1.23,1.44-1.68.74-.66,1.74-1.17,2.77-1.17.71,0,1.28.32,1.44,1-1.86.96-3.76,2.15-3.76,4.06s1.84,2.43,4.11,2.43c1.39,0,3.17-.13,4.38-.27l.05-1.3c-1.41.26-3.14.4-4.38.4-1.65,0-2.88-.19-2.88-1.44,0-1.06,1.04-1.9,2.53-2.71,0,.84-.02,1.89-.07,2.51h1.23c-.01-.8-.04-2.14-.04-3.07,1.21-.57,2.36-1.04,3.26-1.39.43-.16,1.01-.38,1.41-.51Z"/><path class="y" d="m121.65,202.09h1.76c.7,0,1.3.02,1.47.05v-1.36c-.22.03-.77.08-1.47.08h-1.76v-2c0-.62.06-1.15.08-1.31h-1.44c.03.16.08.69.08,1.31v2h-4.56v-2.05c0-.56.06-1.01.08-1.15h-1.42c.05.35.06.82.06,1.15v2.05h-1.71c-.69,0-1.47-.08-1.62-.1v1.38c.19-.02.91-.05,1.62-.05h1.71v2.59c0,.61-.05,1.28-.06,1.44h1.41c-.02-.16-.06-.86-.06-1.44v-2.59h4.56v.66c0,4.48-1.46,5.86-4.37,6.98l1.09,1.01c3.65-1.63,4.56-3.82,4.56-8.08v-.56Z"/><path class="y" d="m139.76,217.31c-.9,2.43-2.4,4.83-3.97,6.38.22.27.56.91.69,1.18.54-.56,1.07-1.22,1.58-1.94v9.03h1.18v-10.87c.63-1.1,1.2-2.26,1.65-3.43l-1.14-.35Z"/><path class="y" d="m130.34,230.59v-2.52h3.36v-.99h-3.36v-1.87h4.16v-1.01h-9.22v1.01h3.94v5.07c-.91-.39-1.64-1.13-2.09-2.5.13-.53.23-1.09.3-1.68l-1.09-.13c-.26,2.37-.98,4.18-2.4,5.31.24.18.7.53.9.72.84-.75,1.47-1.75,1.92-2.97,1.04,2.29,2.74,2.73,5.08,2.73h2.82c.03-.3.19-.82.35-1.07-.56.02-2.72.02-3.12.02-.54,0-1.06-.03-1.54-.1Z"/><path class="y" d="m124.82,224.29c-.54.17-1.08.35-1.62.51v-3.18h1.78v-1.12h-1.78v-3.22h-1.12v3.22h-1.98v1.12h1.98v3.53c-.81.25-1.56.47-2.16.63l.3,1.17c.56-.18,1.2-.38,1.86-.6v4.14c0,.24-.06.3-.27.3-.19,0-.8,0-1.5-.02.16.34.3.83.35,1.12,1.01,0,1.63-.03,2-.22.4-.19.54-.51.54-1.17v-4.52c.59-.19,1.2-.39,1.79-.59l-.18-1.1Z"/><rect class="u" x="90" width="76" height="28" rx="4" ry="4"/><path class="t" d="m125.26,18.06c-.4,0-.62-.29-.62-.7,0-1.66.53-4.02.53-5.66,0-1.34-.78-2.37-2.51-2.37-1.55,0-3.39,1.29-4.65,2.38.01-.12.02-.23.03-.35.27-.42.6-.93.81-1.21l-.59-.77c.13-1,.25-1.82.35-2.27l-2.34-.06c.1.5.08.98.08,1.42,0,.17-.03.64-.06,1.24-.68.1-1.38.18-1.85.2-.58.03-.94.03-1.39.02l.21,2.06c.9-.14,2.12-.29,2.91-.39-.03.37-.05.75-.08,1.11-.91,1.34-2.53,3.47-3.43,4.59l1.25,1.76c.55-.76,1.34-1.92,2.02-2.93-.03,1.34-.04,2.27-.05,3.51,0,.26-.02.82-.05,1.18h2.19c-.03-.35-.1-.94-.11-1.23-.1-1.49-.1-2.85-.1-4.14,0-.41.01-.85.03-1.3,1.31-1.43,3.04-2.9,4.22-2.9.69,0,1.09.38,1.09,1.17,0,1.47-.58,3.81-.58,5.55,0,1.55.8,2.42,2,2.42,1.31,0,2.27-.51,3.02-1.2l-.27-2.24c-.72.72-1.47,1.14-2.06,1.14Z"/><path class="t" d="m103.84,18.54c-2.3,0-3.3-.75-3.3-1.76,0-.54.13-1.06.27-1.63l-2.1-.19c-.11.61-.32,1.39-.32,2.3,0,2.21,1.86,3.42,5.5,3.42,2.24,0,4.16-.21,5.57-.53l-.02-2.26c-1.42.4-3.47.64-5.62.64Z"/><path class="t" d="m157.62,10.96l-1.15.53c.51.7.88,1.31,1.31,2.18l1.2-.58c-.34-.62-.94-1.57-1.36-2.13Z"/><path class="t" d="m108.46,10.48v-2.13c-1.22.13-3.06.22-4.62.22-1.7,0-3.18-.06-4.37-.19v2.11c1.31.1,2.7.18,4.37.18,1.54,0,3.5-.1,4.62-.19Z"/><path class="t" d="m137.43,14.07c1.53-.05,2.78-.15,4.22-.31l.02-1.89c-1.3.17-2.65.31-4.27.39,0-.5,0-1.08,0-1.65,1.54-.07,2.99-.21,4.06-.35l.02-1.82c-1.41.22-2.74.34-4.05.41,0-.25.01-.48.02-.64.02-.42.06-.82.11-1.14h-2.18c.06.3.1.8.1,1.09,0,.2,0,.46,0,.74-.2,0-.4,0-.61,0-.98,0-2.82-.16-3.95-.35l.03,1.84c1.06.13,2.91.27,3.94.27.19,0,.39,0,.58,0,0,.55,0,1.12,0,1.65-.26,0-.51,0-.78,0-.85,0-2.8-.11-3.86-.3l.03,1.89c1.06.13,2.86.21,3.81.21.29,0,.56,0,.83,0,.02.5.04,1.02.06,1.52-.33-.03-.66-.06-1-.06-2.45,0-3.94,1.14-3.94,2.75,0,1.7,1.34,2.67,3.9,2.67,2.1,0,3.14-1.06,3.14-2.43,0-.16,0-.36-.01-.57,1.28.58,2.38,1.41,3.23,2.21l1.15-1.79c-.92-.77-2.46-1.82-4.48-2.41-.04-.64-.08-1.3-.1-1.93Zm-1.8,3.94c0,.93-.58,1.17-1.42,1.17-1.1,0-1.66-.37-1.66-.98,0-.56.62-.99,1.74-.99.46,0,.9.06,1.33.14,0,.26.02.5.02.66Z"/><path class="t" d="m154.66,12.19c.5.7.83,1.34,1.25,2.21l1.2-.53c-.3-.64-.88-1.62-1.26-2.18l-1.18.5Z"/><path class="t" d="m151.65,14.83c0-1.9,1.46-3.98,3.38-4.5.86-.19,2.24-.21,3.1-.21l-.02-2.06c-1.14.05-2.88.16-4.54.29-2.93.26-5.57.48-6.9.61-.3.03-.94.06-1.57.08l.21,2.19c1.84-.4,5.12-.75,6.61-.91-1.07.82-2.37,2.64-2.37,4.93,0,3.47,3.17,5.28,6.51,5.49l.75-2.19c-2.7-.13-5.17-1.09-5.17-3.71Z"/><rect class="v" x="160" y="113" width="64" height="64"/><path class="s" d="m181.83,173.33s-11.61,3.72-21.83-.62c8.72-10.23,5.83-21.85,5.83-27.69,0-20.4,13.06-32.03,26.17-32.03s26.17,11.62,26.17,32.03c0,5.84-2.89,17.46,5.83,27.64-10.17,4.39-21.83.62-21.83.62-2.94,2.32-6.35,3.72-10.17,3.72s-7.23-1.4-10.17-3.67Z"/><path class="k" d="m211.96,156.56c-1.92,6.42-5.32,12.49-9.93,16.24-.06.02-.12.05-.17.09-2.87,2.27-6.17,3.61-9.86,3.61s-6.99-1.35-9.81-3.56c-.05-.04-.11-.07-.18-.09-4.65-3.75-8.06-9.87-10.03-16.35-.06-.21-.26-.35-.48-.35-.87,0-1.63-.46-2.32-1.3-.68-.84-1.24-2.01-1.68-3.28-.8-2.32-1.16-4.89-1.22-6.18,7.1-2.91,14.45-9.52,18.51-16.05,7.78,8.47,17.79,14.44,32.85,16.15-.07,1.31-.43,3.85-1.22,6.14-.44,1.28-1,2.45-1.68,3.28-.68.84-1.45,1.3-2.32,1.3-.22,0-.42.14-.48.36Z"/><circle class="s" cx="185" cy="148" r="3"/><circle class="s" cx="200" cy="148" r="3"/><rect class="v" x="32" y="113" width="64" height="64"/><path class="i" d="m40.41,142.4c-2.44,0-4.41,1.99-4.41,4.44s1.45,9.09,5.81,9.09c3.21,10.72,8.92,20.57,22.19,20.57,13.27,0,18.98-9.85,22.19-20.57,4.36,0,5.81-6.63,5.81-9.09s-1.97-4.44-4.41-4.44c16.18-19.8-21.47-38.36-36.87-23.55-13.43,0-17.89,15.9-10.32,23.55Z"/><path class="k" d="m87.59,142.4c2.44,0,4.41,1.99,4.41,4.44s-1.45,9.09-5.81,9.09c-3.21,10.72-8.92,20.57-22.19,20.57-13.27,0-18.98-9.85-22.19-20.57-4.36,0-5.81-6.63-5.81-9.09s1.97-4.44,4.41-4.44c2.8-8.57,10.32-11.55,16.23-11.55,9.33,9.7,23.02-.05,30.96,11.55Z"/><circle class="s" cx="56.5" cy="148" r="3"/><circle class="s" cx="71.5" cy="148" r="3"/><circle class="s" cx="128" cy="80" r="31"/><path class="u" d="m128,50c16.54,0,30,13.46,30,30s-13.46,30-30,30-30-13.46-30-30,13.46-30,30-30m0-2c-17.67,0-32,14.33-32,32s14.33,32,32,32,32-14.33,32-32-14.33-32-32-32h0Z"/><path class="w" d="m128,111c9.33,0,16.9-13.88,16.9-31s-7.57-31-16.9-31-16.9,13.88-16.9,31,7.57,31,16.9,31Z"/><path class="m" d="m148.5,56.8c-5.5,4.8-12.6,7.7-20.5,7.7s-15-2.9-20.5-7.7"/><path class="m" d="m107.5,102.5c5.5-4.8,12.6-7.7,20.5-7.7s15,2.9,20.5,7.7"/><path class="m" d="m97,80h62"/><path class="m" d="m128,49v62"/><circle class="t" cx="128" cy="112" r="3.5"/><path class="u" d="m128,109c1.65,0,3,1.35,3,3s-1.35,3-3,3-3-1.35-3-3,1.35-3,3-3m0-1c-2.21,0-4,1.79-4,4s1.79,4,4,4,4-1.79,4-4-1.79-4-4-4h0Z"/><polygon class="t" points="144.5 141.81 150.88 145 144.5 148.19 144.5 141.81"/><path class="u" d="m145,142.62l4.76,2.38-4.76,2.38v-4.76m-1-1.62v8l8-4-8-4h0Z"/><polygon class="t" points="105.12 145 111.5 141.81 111.5 148.19 105.12 145"/><path class="u" d="m111,142.62v4.76l-4.76-2.38,4.76-2.38m1-1.62l-8,4,8,4v-8h0Z"/><path class="m" d="m128,129c0,.68-.04,1.34-.12,2"/><path class="o" d="m126.81,135.08c-1.89,4.6-5.86,8.13-10.75,9.4"/><path class="m" d="m114,144.88c-.65.08-1.32.12-2,.12"/><path class="m" d="m128,129c0,.68.04,1.34.12,2"/><path class="o" d="m129.19,135.08c1.89,4.6,5.86,8.13,10.75,9.4"/><path class="m" d="m142,144.88c.65.08,1.32.12,2,.12"/><line class="m" x1="128" y1="116" x2="128" y2="118"/><line class="n" x1="128" y1="121" x2="128" y2="125.5"/><line class="m" x1="128" y1="127" x2="128" y2="129"/><rect class="x" y="302" width="256" height="242" rx="16" ry="16"/><path class="aa" d="m240,303c8.27,0,15,6.73,15,15v210c0,8.27-6.73,15-15,15H16c-8.27,0-15-6.73-15-15v-210c0-8.27,6.73-15,15-15h224m0-1H16c-8.84,0-16,7.16-16,16v210c0,8.84,7.16,16,16,16h224c8.84,0,16-7.16,16-16v-210c0-8.84-7.16-16-16-16h0Z"/><circle class="s" cx="128" cy="368" r="31"/><path class="u" d="m128,338c16.54,0,30,13.46,30,30s-13.46,30-30,30-30-13.46-30-30,13.46-30,30-30m0-2c-17.67,0-32,14.33-32,32s14.33,32,32,32,32-14.33,32-32-14.33-32-32-32h0Z"/><path class="w" d="m128,399c9.33,0,16.9-13.88,16.9-31s-7.57-31-16.9-31-16.9,13.88-16.9,31,7.57,31,16.9,31Z"/><path class="m" d="m148.5,344.8c-5.5,4.8-12.6,7.7-20.5,7.7s-15-2.9-20.5-7.7"/><path class="m" d="m107.5,390.5c5.5-4.8,12.6-7.7,20.5-7.7s15,2.9,20.5,7.7"/><path class="m" d="m97,368h62"/><path class="m" d="m128,337v62"/><rect class="z" x="90" y="288" width="76" height="28" rx="4" ry="4"/><path class="t" d="m103.84,306.54c-2.3,0-3.3-.75-3.3-1.76,0-.54.13-1.06.27-1.63l-2.1-.19c-.11.61-.32,1.39-.32,2.3,0,2.21,1.86,3.42,5.5,3.42,2.24,0,4.16-.21,5.57-.53l-.02-2.26c-1.42.4-3.47.64-5.62.64Z"/><path class="t" d="m108.46,298.48v-2.13c-1.22.13-3.06.22-4.62.22-1.7,0-3.18-.06-4.37-.19v2.11c1.31.1,2.7.18,4.37.18,1.54,0,3.5-.1,4.62-.19Z"/><path class="t" d="m125.26,306.06c-.4,0-.62-.29-.62-.7,0-1.66.53-4.02.53-5.66,0-1.34-.78-2.37-2.51-2.37-1.55,0-3.39,1.29-4.65,2.38.01-.12.02-.23.03-.35.27-.42.6-.93.81-1.21l-.59-.77c.13-1,.25-1.82.35-2.27l-2.34-.06c.1.5.08.98.08,1.42,0,.17-.03.64-.06,1.24-.68.1-1.38.18-1.85.2-.58.03-.94.03-1.39.02l.21,2.06c.9-.14,2.12-.29,2.91-.39-.03.37-.05.75-.08,1.11-.91,1.34-2.53,3.47-3.43,4.59l1.25,1.76c.55-.76,1.34-1.92,2.02-2.93-.03,1.34-.04,2.27-.05,3.51,0,.26-.02.82-.05,1.18h2.19c-.03-.35-.1-.94-.11-1.23-.1-1.49-.1-2.85-.1-4.14,0-.41.01-.85.03-1.3,1.31-1.43,3.04-2.9,4.22-2.9.69,0,1.09.38,1.09,1.17,0,1.47-.58,3.81-.58,5.55,0,1.55.8,2.42,2,2.42,1.31,0,2.27-.51,3.02-1.2l-.27-2.24c-.72.72-1.47,1.14-2.06,1.14Z"/><path class="t" d="m155.74,296.37c-1.41-.14-4.9-.77-6.42-1.25l-.5,1.94c1.25.32,4.8,1.06,6.43,1.28l.48-1.97Z"/><path class="t" d="m153.55,300.56c-1.68,0-3.28.48-4.72,1.54.11-.93.38-2.86.61-3.76l-2.16-.29c-.1,1.98-.48,5.12-.8,6.69l1.86.45c.13-.32.3-.58.59-.91,1.01-1.22,2.62-1.89,4.43-1.89,1.41,0,2.38.75,2.38,1.79,0,2.05-2.53,3.22-7.34,2.54l.62,2.1c6.64.58,8.96-1.66,8.96-4.59,0-1.94-1.63-3.66-4.43-3.66Z"/><path class="t" d="m136.11,298.27c-.33,0-.82.03-1.36.07.12-.58.24-1.17.33-1.64.1-.4.19-.91.29-1.33l-2.37-.26c.01,1.03-.12,2.18-.35,3.39-.81.07-1.56.13-2.05.14-.59.02-1.14.03-1.71,0l.19,2.16c.48-.08,1.31-.19,1.78-.26.29-.04.8-.1,1.36-.17-.59,2.2-1.67,5.42-3.24,7.53l2.1.83c1.46-2.37,2.63-6.17,3.26-8.59.45-.04.85-.07,1.11-.07.99,0,1.55.19,1.55,1.47,0,1.57-.21,3.52-.66,4.42-.26.53-.66.69-1.2.69-.42,0-1.33-.16-1.95-.34l.34,2.11c.56.13,1.31.22,1.94.22,1.2,0,2.08-.35,2.62-1.47.67-1.38.9-3.97.9-5.86,0-2.32-1.2-3.07-2.88-3.07Z"/><path class="t" d="m138.98,297.68c1.15,1.42,2.29,4.3,2.7,6.1l2.03-.94c-.5-1.54-1.84-4.58-2.82-5.97l-1.92.82Z"/><rect class="v" x="32" y="401" width="64" height="64"/><path class="j" d="m40.41,430.4c-2.44,0-4.41,1.99-4.41,4.44s1.45,9.09,5.81,9.09c3.21,10.72,8.92,20.57,22.19,20.57,13.27,0,18.98-9.85,22.19-20.57,4.36,0,5.81-6.63,5.81-9.09s-1.97-4.44-4.41-4.44c16.18-19.8-21.47-38.36-36.87-23.55-13.43,0-17.89,15.9-10.32,23.55Z"/><path class="p" d="m87.59,430.4c2.44,0,4.41,1.99,4.41,4.44s-1.45,9.09-5.81,9.09c-3.21,10.72-8.92,20.57-22.19,20.57-13.27,0-18.98-9.85-22.19-20.57-4.36,0-5.81-6.63-5.81-9.09s1.97-4.44,4.41-4.44c2.8-8.57,10.32-11.55,16.23-11.55,9.33,9.7,23.02-.05,30.96,11.55Z"/><circle class="t" cx="56.5" cy="436" r="3"/><circle class="t" cx="71.5" cy="436" r="3"/><rect class="v" x="160" y="401" width="64" height="64"/><path class="t" d="m181.83,461.33s-11.61,3.72-21.83-.62c8.72-10.23,5.83-21.85,5.83-27.69,0-20.4,13.06-32.03,26.17-32.03s26.17,11.62,26.17,32.03c0,5.84-2.89,17.46,5.83,27.64-10.17,4.39-21.83.62-21.83.62-2.94,2.32-6.35,3.72-10.17,3.72s-7.23-1.4-10.17-3.67Z"/><path class="q" d="m211.96,444.56c-1.92,6.42-5.32,12.49-9.93,16.24-.06.02-.12.05-.17.09-2.87,2.27-6.17,3.61-9.86,3.61s-6.99-1.35-9.81-3.56c-.05-.04-.11-.07-.18-.09-4.65-3.75-8.06-9.87-10.03-16.35-.06-.21-.26-.35-.48-.35-.87,0-1.63-.46-2.32-1.3-.68-.84-1.24-2.01-1.68-3.28-.8-2.32-1.16-4.89-1.22-6.18,7.1-2.91,14.45-9.52,18.51-16.05,7.78,8.47,17.79,14.44,32.85,16.15-.07,1.31-.43,3.85-1.22,6.14-.44,1.28-1,2.45-1.68,3.28-.68.84-1.45,1.3-2.32,1.3-.22,0-.42.14-.48.36Z"/><circle class="t" cx="185" cy="436" r="3"/><circle class="t" cx="200" cy="436" r="3"/><path class="y" d="m61.11,485.24c.34.61.69,1.52.94,2.24l.8-.27c-.24-.64-.66-1.62-.96-2.21l-.78.24Z"/><path class="y" d="m58.77,488.84v-2c0-.62.06-1.15.08-1.31h-1.44c.03.16.08.69.08,1.31v2h-4.56v-2.05c0-.56.06-1.01.08-1.15h-1.42c.05.35.06.82.06,1.15v2.05h-1.71c-.69,0-1.47-.08-1.62-.1v1.38c.19-.02.91-.05,1.62-.05h1.71v2.59c0,.61-.05,1.28-.06,1.44h1.41c-.02-.16-.06-.86-.06-1.44v-2.59h4.56v.66c0,4.48-1.46,5.86-4.37,6.98l1.09,1.01c3.65-1.63,4.56-3.82,4.56-8.08v-.56h1.76c.7,0,1.3.02,1.47.05v-1.36c-.22.03-.77.08-1.47.08h-1.76Z"/><path class="y" d="m27.17,495.42c.27-1.71.93-5.97,1.1-7.47.02-.13.06-.37.13-.53l-1.07-.51c-.18.08-.67.14-.99.14h-5.89c-.53,0-1.04-.05-1.52-.1v1.42c.5-.05.93-.06,1.54-.06h6.29c-.03,1.1-.7,5.4-1.01,7.1h-7.2c-.45,0-.94-.02-1.41-.1v1.47c.48-.05.96-.08,1.41-.08h10.78c.34,0,.91.02,1.34.08v-1.47c-.42.05-.85.1-1.34.1h-2.15Z"/><path class="y" d="m61.24,487.7c-.22-.64-.64-1.63-.94-2.21l-.77.24c.32.61.69,1.57.91,2.24l.8-.27Z"/><path class="y" d="m91.57,487.93v-1.31c-1.17.11-2.78.22-4.32.22s-3.09-.06-4.24-.21v1.31c1.26.1,2.64.18,4.24.18,1.47,0,3.23-.11,4.32-.19Z"/><path class="y" d="m35.72,490.86c-.91,0-1.74-.05-2.24-.1v1.57c.51-.03,1.36-.06,2.24-.06h8.78c.7,0,1.38.05,1.71.06v-1.57c-.37.03-.93.1-1.73.1h-8.77Z"/><path class="y" d="m144.12,497.67l.62,1.17c.8-.7,1.54-1.39,2.24-2.08.99,1.26,2.45,1.82,4.56,1.9,1.79.08,5.22.05,7.02-.03.05-.35.24-.91.38-1.18-1.94.13-5.63.18-7.41.1-1.9-.06-3.31-.61-4.06-1.79v-5.18h-3.18v1.12h2.03v4.16c-.73.66-1.54,1.33-2.21,1.82Z"/><path class="y" d="m67.41,490.86c-.91,0-1.74-.05-2.24-.1v1.57c.51-.03,1.36-.06,2.24-.06h8.78c.7,0,1.38.05,1.71.06v-1.57c-.37.03-.93.1-1.73.1h-8.77Z"/><path class="y" d="m150.39,486.71c.27.47.53,1.04.66,1.5h-2.08v8.38h1.1v-7.42h2.94v1.1h-2.38v.8h2.38v1.15h-1.66v3.54h.9v-.62h3.42v-2.91h-1.73v-1.15h2.42v-.8h-2.42v-1.1h3.07v6.13c0,.19-.06.24-.26.26-.21.02-.83.02-1.55-.02.14.3.3.74.37,1.04.94,0,1.6-.02,2.03-.19.42-.19.51-.48.51-1.07v-7.1h-2.33c.26-.44.55-.98.84-1.54l-.36-.1h2.42v-.98h-4.69v-1.36h-1.15v1.36h-4.46v.98h2.5l-.5.13Zm4.38,7.68h-2.53v-1.39h2.53v1.39Zm.02-6.18h-2.87l.23-.06c-.09-.44-.37-1.07-.68-1.57h3.94c-.19.5-.5,1.15-.74,1.6l.11.03Z"/><path class="y" d="m146.96,488.02l.99-.75c-.5-.78-1.62-1.89-2.61-2.61l-.91.66c.98.78,2.08,1.9,2.53,2.7Z"/><path class="y" d="m216.15,491.18c.98-.11,1.97-.18,2.96-.18s1.87.1,2.7.19l.03-1.22c-.86-.1-1.84-.13-2.77-.13-1.02,0-2.1.05-2.93.13v1.2Z"/><path class="y" d="m115.27,498.15c-.02-.18-.03-.4-.05-.56,0-.19.03-.5.08-.72.14-.77.74-2.45,1.14-3.58l-.67-.53c-.27.66-.64,1.62-.91,2.34-.1-.78-.14-1.46-.14-2.22,0-1.81.5-4.66.8-6.14.06-.29.19-.8.29-1.07l-1.42-.11c-.02.35-.06.75-.11,1.12-.19,1.33-.72,4.06-.72,6.42,0,2.18.27,4.02.59,5.15l1.14-.08Z"/><path class="y" d="m140.77,484.76h-10.38v4.77h10.38v-4.77Zm-1.18,3.92h-8.03v-1.14h8.03v1.14Zm0-1.95h-8.03v-1.1h8.03v1.1Z"/><path class="y" d="m134.26,511.02h7.6v-5.25h-7.6v5.25Zm1.1-4.34h5.34v1.28h-5.34v-1.28Zm0,2.13h5.34v1.28h-5.34v-1.28Z"/><path class="y" d="m125.41,488.18v-1.3c-1.58.24-4.83.3-6.58,0l.02,1.3c1.74.19,4.85.19,6.56,0Z"/><path class="y" d="m128.34,496.98l.11,1.07c1.49-.17,3.46-.41,5.42-.65v1.56h1.15v-1.01c.22.23.51.64.64.93,1.13-.39,2.22-.96,3.2-1.71.95.8,2.07,1.41,3.36,1.79.16-.29.48-.72.74-.94-1.25-.31-2.35-.85-3.27-1.56,1.04-1,1.89-2.25,2.39-3.78l-.74-.3-.21.05h-5.55v.98h1.41l-.7.21c.43,1.06,1.03,2,1.77,2.8-.92.68-1.97,1.21-3.03,1.53v-6.52h7.55v-.99h-14.1v.99h1.38v5.43c-.55.05-1.07.1-1.52.14Zm8.97-3.58h3.28c-.42.89-1.01,1.67-1.72,2.34-.67-.68-1.2-1.47-1.56-2.34Zm-6.33.02h2.9v1.12h-2.9v-1.12Zm2.9-2v1.1h-2.9v-1.1h2.9Zm-2.9,4.02h2.9v.98c-.99.11-1.98.22-2.9.32v-1.3Z"/><path class="y" d="m138.58,518.57v-2.52h3.36v-.99h-3.36v-1.87h4.16v-1.01h-9.22v1.01h3.94v5.07c-.91-.39-1.64-1.13-2.09-2.5.13-.53.23-1.09.3-1.68l-1.09-.13c-.26,2.37-.98,4.18-2.4,5.31.24.18.7.53.9.72.84-.75,1.47-1.75,1.92-2.97,1.04,2.29,2.74,2.73,5.08,2.73h2.82c.03-.3.19-.82.35-1.07-.56.02-2.72.02-3.12.02-.54,0-1.06-.03-1.54-.1Z"/><path class="y" d="m204.52,496.42c-.58,0-.85-.43-.85-.98,0-1.62.61-4.37.61-5.97,0-1.3-.74-2.14-2.24-2.14-1.62,0-3.68,1.55-4.92,2.7.02-.31.05-.62.07-.93.24-.39.52-.84.72-1.14l-.46-.54s-.07.02-.1.03c.12-1.12.24-2.02.32-2.41l-1.5-.05c.08.4.06.82.06,1.18,0,.18-.03.76-.08,1.52-.83.13-1.77.23-2.28.26-.4.03-.7.03-1.06.02l.14,1.33c1.01-.16,2.4-.34,3.12-.44-.03.52-.07,1.06-.1,1.59-.81,1.25-2.65,3.74-3.54,4.86l.8,1.09c.78-1.07,1.83-2.59,2.62-3.76-.01.24-.02.45-.02.61-.02,1.76-.03,2.56-.03,4.11,0,.26-.02.64-.05.94h1.38c-.02-.3-.06-.7-.08-.98-.06-1.42-.06-2.4-.06-3.86,0-.57.02-1.2.05-1.87,1.47-1.6,3.4-3.11,4.72-3.11.82,0,1.28.4,1.28,1.33,0,1.55-.59,4.18-.59,5.97,0,1.31.7,2.02,1.78,2.02s2.08-.48,2.94-1.34l-.21-1.36c-.82.85-1.66,1.31-2.42,1.31Z"/><path class="y" d="m189.19,486.87c-1.08.37-2.41.63-3.57.79-.31-.93-.6-1.97-.72-2.73l-1.38.16c.16.43.3.91.4,1.26.13.36.28.85.49,1.43-1.75.12-3.99.08-6.35-.19l.03,1.26c2.54.22,4.83.21,6.74.04.53,1.34,1.3,2.73,1.91,3.66-.58-.06-1.76-.16-2.66-.24l-.1,1.06c1.15.08,3.1.26,3.87.45l.64-.91c-.24-.26-.48-.53-.69-.85-.6-.82-1.3-2.06-1.79-3.29,1.08-.15,2.32-.37,3.3-.65l-.14-1.26Z"/><path class="y" d="m217.19,488.25v-1.25c-.97.24-2.04.44-3.08.57.09-.44.17-.85.24-1.19.06-.3.18-.91.27-1.26l-1.52-.13c.03.34,0,.88-.06,1.33-.04.32-.13.82-.25,1.39-.6.05-1.18.08-1.71.08-.59,0-1.17-.03-1.92-.13l.03,1.25c.59.05,1.15.06,1.86.06.45,0,.96-.02,1.48-.06-.13.59-.27,1.19-.41,1.72-.61,2.26-1.73,5.5-2.69,7.17l1.39.46c.85-1.74,1.92-5.06,2.5-7.33.2-.7.37-1.44.52-2.14,1.12-.12,2.29-.31,3.33-.55Z"/><path class="y" d="m179.78,494.92c0-.75.29-1.44.77-2.22l-1.25-.29c-.46.94-.78,1.78-.78,2.67,0,2.18,1.92,3.26,4.96,3.28,1.79.02,3.14-.16,4.14-.34l.05-1.28c-1.1.24-2.5.4-4.11.4-2.38-.03-3.78-.69-3.78-2.22Z"/><path class="y" d="m172.76,497.61h-3.15c-.9,0-1.06-.19-1.06-1.09v-4.68c2-1.05,4.15-2.27,5.66-3.51l-.88-1.02c-1.16,1.07-3,2.3-4.78,3.31v-5.97h-1.22v11.86c0,1.76.51,2.24,2.19,2.24h3.3c1.66,0,2.02-.91,2.21-3.54-.35-.08-.85-.3-1.15-.53-.11,2.34-.24,2.93-1.12,2.93Z"/><path class="y" d="m216.24,495.3c0-.42.1-.91.22-1.44l-1.18-.11c-.14.67-.24,1.28-.24,1.89,0,1.58,1.38,2.35,3.89,2.35,1.17,0,2.24-.1,3.1-.22l.05-1.28c-.99.19-2.08.3-3.14.3-2.27,0-2.7-.74-2.7-1.49Z"/><polygon class="y" points="234.18 489.45 234.18 488.33 238 488.33 238 487.45 234.18 487.45 234.18 486.42 238.4 486.42 238.4 485.51 234.18 485.51 234.18 484.25 233 484.25 233 485.51 228.9 485.51 228.9 486.42 233 486.42 233 487.45 229.28 487.45 229.28 488.33 233 488.33 233 489.45 228.4 489.45 228.4 490.36 238.87 490.36 238.87 489.45 234.18 489.45"/><path class="y" d="m223.99,491.46l.93.3c.37-1.2.64-3.06.69-4.3l-.9-.13c-.1,1.26-.35,3.02-.72,4.13Z"/><path class="y" d="m164.55,484.5c-1.06,2.53-2.82,4.96-4.67,6.51.24.29.61.91.74,1.2.72-.65,1.44-1.43,2.11-2.29v9.02h1.18v-10.69c.69-1.07,1.31-2.21,1.81-3.37l-1.17-.38Z"/><path class="y" d="m236.47,491.3h-6.9v7.65h1.12v-2.5h5.78v1.15c0,.21-.06.27-.29.27-.22.02-.99.02-1.79-.02.14.3.3.75.35,1.04,1.14.02,1.86,0,2.3-.18.45-.18.58-.5.58-1.1v-6.32h-1.15Zm0,.93v1.18h-5.78v-1.18h5.78Zm-5.78,3.33v-1.22h5.78v1.22h-5.78Z"/><rect class="y" x="225.97" y="484.25" width="1.1" height="14.7"/><path class="y" d="m228.02,486.6l-.8.32c.32.75.69,1.74.85,2.35l.83-.4c-.14-.59-.53-1.54-.88-2.27Z"/><path class="y" d="m92.93,484.58c.45.59.98,1.5,1.33,2.21l.86-.4c-.3-.59-.93-1.58-1.34-2.18l-.85.37Z"/><path class="y" d="m125.81,511.63l-.51-1.18c-.45.22-.85.4-1.33.62-.82.39-1.8.78-2.91,1.3-.24-.94-1.08-1.46-2.11-1.46-.7,0-1.62.22-2.24.59.55-.72,1.06-1.61,1.45-2.47,1.74-.06,3.72-.2,5.32-.44v-1.18c-1.51.27-3.24.41-4.88.48.24-.74.37-1.36.48-1.84l-1.31-.11c-.04.58-.18,1.29-.41,1.99-.37,0-.72.01-1.06.01-.74,0-1.84-.05-2.7-.16v1.2c.9.06,1.95.1,2.64.1.21,0,.45,0,.68,0-.6,1.3-1.67,2.96-3.69,4.89l1.1.82c.53-.66.98-1.23,1.44-1.68.74-.66,1.74-1.17,2.77-1.17.71,0,1.28.32,1.44,1-1.86.96-3.76,2.15-3.76,4.06s1.84,2.43,4.11,2.43c1.39,0,3.17-.13,4.38-.27l.05-1.3c-1.41.26-3.14.4-4.38.4-1.65,0-2.88-.19-2.88-1.44,0-1.06,1.04-1.9,2.53-2.71,0,.84-.02,1.89-.07,2.51h1.23c-.01-.8-.04-2.14-.04-3.07,1.21-.57,2.36-1.04,3.26-1.39.43-.16,1.01-.38,1.41-.51Z"/><path class="y" d="m108.7,516.94c.94-1.54,1.6-3.36,1.94-5.29l-.74-.27-.21.06h-4.59v-4.37h4.05v2c0,.18-.06.24-.32.26s-1.09.02-2.08-.02c.16.3.32.74.37,1.06,1.23,0,2.03-.02,2.53-.19.5-.18.62-.5.62-1.09v-3.09h-6.27v13.98h1.1v-.77c.27.21.6.53.77.79.82-.56,1.53-1.27,2.16-2.09.7.85,1.5,1.55,2.39,2.05.19-.3.56-.74.83-.98-.95-.46-1.81-1.18-2.55-2.06Zm-.73-.96c-.71-1.06-1.28-2.27-1.68-3.54h3.03c-.28,1.23-.72,2.44-1.34,3.54Zm-2.87,3.19v-6.73h.16c.48,1.67,1.18,3.23,2.06,4.54-.62.86-1.36,1.62-2.22,2.18Z"/><path class="y" d="m100.53,507.94h2.35v-1.04h-2.35v-1.62h-1.12v1.62h-2.46v1.04h2.46v1.6h-3.04v1.04h1.9l-.78.19c.3.67.59,1.52.68,2.1h-1.58v1.04h2.82v1.74h-2.66v1.04h2.66v3.25h1.12v-3.25h2.56v-1.04h-2.56v-1.74h2.77v-1.04h-1.59c.29-.56.58-1.34.89-2.08l-.78-.21h1.68v-1.04h-2.96v-1.6Zm.87,4.93h-2.87l.62-.18c-.08-.55-.39-1.44-.74-2.11h3.13c-.18.62-.52,1.52-.78,2.1l.63.19Z"/><path class="y" d="m109.01,496.31c-1.25.32-3.39.54-5.12.54-2.53,0-3.81-.83-3.81-2.16,0-1.2.9-2.26,2.38-3.23,1.57-1.02,3.79-2.08,4.86-2.64.48-.24.88-.46,1.23-.67l-.69-1.15c-.34.27-.69.48-1.15.75-.88.5-2.61,1.34-4.11,2.25-.69-1.27-1.51-3-2.14-4.76l-1.26.54c.75,1.73,1.58,3.6,2.32,4.92-1.72,1.19-2.77,2.5-2.77,4.14,0,2.4,2.18,3.3,5.18,3.3,2,0,3.86-.18,5.06-.38l.02-1.44Z"/><path class="y" d="m91.16,485.22c.43.59.98,1.57,1.3,2.22l.88-.38c-.34-.66-.91-1.63-1.31-2.21l-.86.37Z"/><path class="y" d="m87.14,496.97c-2.58,0-3.81-.83-3.81-2.06,0-.59.13-1.18.34-1.82l-1.31-.11c-.14.64-.32,1.39-.32,2.22,0,2,1.87,3.07,5.14,3.07,2.27,0,4.3-.24,5.46-.56l-.02-1.36c-1.22.38-3.26.62-5.47.62Z"/><path class="y" d="m121.94,496.33c-2.19,0-2.7-.72-2.7-1.46,0-.43.08-.88.22-1.46l-1.15-.11c-.18.77-.26,1.34-.26,1.87,0,1.5,1.2,2.4,3.87,2.4,1.66,0,3.01-.13,4-.34l-.03-1.34c-1.28.3-2.53.43-3.95.43Z"/><path class="y" d="m156.59,509.82h2.29v-1.15h-2.29v-3.26h-1.17v3.26h-3.12v-3.25h-1.18v3.25h-2.06v1.15h2.06v3.95h-2.46v1.18h10.42v-1.18h-2.48v-3.95Zm-4.29,0h3.12v3.95h-3.12v-3.95Z"/><path class="y" d="m148.56,519.18c.27.16.74.54.96.75,1.07-.91,2.29-2.34,3.07-3.73l-1.14-.35c-.69,1.23-1.79,2.5-2.9,3.33Z"/><path class="y" d="m156.03,515.89l-.94.54c1.07,1.07,2.26,2.56,2.8,3.55l1.01-.64c-.58-.98-1.76-2.4-2.86-3.46Z"/><path class="y" d="m133.23,513.38l-.18-1.1c-.54.17-1.08.35-1.62.51v-3.18h1.78v-1.12h-1.78v-3.22h-1.12v3.22h-1.98v1.12h1.98v3.53c-.81.25-1.56.47-2.16.63l.3,1.17c.56-.18,1.2-.38,1.86-.6v4.14c0,.24-.06.3-.27.3-.19,0-.8,0-1.5-.02.16.34.3.83.35,1.12,1.01,0,1.63-.03,2-.22.4-.19.54-.51.54-1.17v-4.52c.59-.19,1.2-.39,1.79-.59Z"/><path class="y" d="m149.14,505.65l-1.14-.35c-.9,2.43-2.4,4.83-3.97,6.38.22.27.56.91.69,1.18.54-.56,1.07-1.22,1.58-1.94v9.03h1.18v-10.87c.63-1.1,1.2-2.26,1.65-3.43Z"/><polygon class="t" points="64 392 68 384 60 384 64 392"/><path class="ab" d="m66.38,385l-2.38,4.76-2.38-4.76h4.76m1.62-1h0,0Zm0,0h-8l4,8,4-8h0Z"/><path class="l" d="m64,384c0-.68.04-1.34.12-2"/><path class="r" d="m65,378.43c2.26-6.09,8.13-10.43,15-10.43h8.17"/><line class="l" x1="90" y1="368" x2="92" y2="368"/><circle class="t" cx="96" cy="368" r="4"/><path class="ac" d="m96,365c1.65,0,3,1.35,3,3s-1.35,3-3,3-3-1.35-3-3,1.35-3,3-3m0-1c-2.21,0-4,1.79-4,4s1.79,4,4,4,4-1.79,4-4-1.79-4-4-4h0Z"/><polygon class="t" points="192 392 196 384 188 384 192 392"/><path class="ae" d="m194.38,385l-2.38,4.76-2.38-4.76h4.76m1.62-1h0,0Zm0,0h-8l4,8,4-8h0Z"/><path class="l" d="m192,384c0-.68-.04-1.34-.12-2"/><path class="r" d="m191,378.43c-2.26-6.09-8.13-10.43-15-10.43h-8.17"/><line class="l" x1="166" y1="368" x2="164" y2="368"/><circle class="t" cx="160" cy="368" r="4"/><path class="ad" d="m160,365c1.65,0,3,1.35,3,3s-1.35,3-3,3-3-1.35-3-3,1.35-3,3-3m0-1c-2.21,0-4,1.79-4,4s1.79,4,4,4,4-1.79,4-4-1.79-4-4-4h0Z"/></svg>