<?xml version="1.0" encoding="UTF-8"?><svg id="a" xmlns="http://www.w3.org/2000/svg" xmlns:xlink="http://www.w3.org/1999/xlink" viewBox="0 0 256 176"><defs><style>.l{stroke:url(#k);stroke-width:3px;}.l,.m{fill:none;}.l,.m,.n{stroke-linecap:round;stroke-linejoin:round;}.m{stroke:#6a4c80;}.o{fill:url(#f);stroke:url(#g);stroke-miterlimit:10;}.n{fill:url(#i);fill-rule:evenodd;stroke:#0d0910;stroke-width:.5px;}.p{opacity:.5;}.q{fill:#281d30;}.q,.r,.s,.t,.u,.v,.w,.x,.y,.z,.aa,.ab,.ac,.ad,.ae{stroke-width:0px;}.r{fill:#352640;}.s{fill:#1b1320;}.t{fill:#0d0910;}.u{fill:#423050;}.v{fill:#9d7fb3;}.w{fill:#855fa0;}.x{fill:#e97a0c;}.y{fill:#6a4c80;}.z{fill:url(#b);}.aa{fill:url(#c);}.ab{fill:url(#e);}.ac{fill:url(#d);}.ad{fill:url(#j);}.ae{fill:url(#h);}</style><radialGradient id="b" cx="128" cy="206" fx="128" fy="206" r="111.25" gradientTransform="translate(0 161.49) scale(1 .05)" gradientUnits="userSpaceOnUse"><stop offset="0" stop-color="#000"/><stop offset="1" stop-color="#000" stop-opacity="0"/></radialGradient><linearGradient id="c" x1="128" y1="36" x2="128" y2="5" gradientTransform="translate(0 178) scale(1 -1)" gradientUnits="userSpaceOnUse"><stop offset="0" stop-color="#9b5108"/><stop offset=".4" stop-color="#e97a0c"/><stop offset=".8" stop-color="#f6cd51"/></linearGradient><linearGradient id="d" x1="128" y1="179.14" x2="128" y2="32.86" gradientTransform="translate(0 178) scale(1 -1)" gradientUnits="userSpaceOnUse"><stop offset="0" stop-color="#0d0a10"/><stop offset="1" stop-color="#281d30"/></linearGradient><linearGradient id="e" x1="128" y1="0" x2="128" y2="144" gradientUnits="userSpaceOnUse"><stop offset="0" stop-color="#f6cd51"/><stop offset="1" stop-color="#f48e2a"/></linearGradient><linearGradient id="f" x1="126" y1="130" x2="126" y2="90" gradientTransform="translate(0 178) scale(1 -1)" gradientUnits="userSpaceOnUse"><stop offset="0" stop-color="#352640"/><stop offset="1" stop-color="#1b1320"/></linearGradient><linearGradient id="g" x1="126" y1="47.5" x2="126" y2="88.5" gradientUnits="userSpaceOnUse"><stop offset="0" stop-color="#f6cd51"/><stop offset="1" stop-color="#f48e2a"/></linearGradient><linearGradient id="h" x1="56" y1="33" x2="56" y2="61" xlink:href="#g"/><linearGradient id="i" x1="56" y1="141" x2="56" y2="121" gradientTransform="translate(0 178) scale(1 -1)" xlink:href="#e"/><linearGradient id="j" x1="203.5" y1="105" x2="203.5" y2="20" xlink:href="#f"/><linearGradient id="k" x1="203.5" y1="105.02" x2="203.5" y2="19.98" gradientTransform="translate(0 178) scale(1 -1)" xlink:href="#g"/></defs><g class="p"><ellipse class="z" cx="128" cy="171" rx="112" ry="5"/></g><path class="x" d="m192,168.83H64v3.04c0,2.28,28.65,4.12,64,4.12s64-1.85,64-4.12v-3.04Z"/><path class="aa" d="m146.83,150l-2.83-8h-32l-2.83,8c-3.75,10.27-15.19,15.06-28.79,16.05-10.19.74-16.39,1.71-16.39,2.78,0,2.3,28.65,4.17,64,4.17s64-1.86,64-4.17c0-1.07-6.2-2.04-16.39-2.78-13.59-.99-25.03-5.78-28.79-16.05Z"/><path class="ac" d="m8.07,0h239.86c4.46,0,8.07,3.58,8.07,8v128c0,4.42-3.61,8-8.07,8H8.07c-4.46,0-8.07-3.58-8.07-8V8C0,3.58,3.61,0,8.07,0Z"/><path class="ab" d="m247.93,2c3.35,0,6.07,2.69,6.07,6v128c0,3.31-2.72,6-6.07,6H8.07c-3.35,0-6.07-2.69-6.07-6V8c0-3.31,2.72-6,6.07-6h239.86m0-2H8.07C3.61,0,0,3.58,0,8v128c0,4.42,3.61,8,8.07,8h239.86c4.46,0,8.07-3.58,8.07-8V8c0-4.42-3.61-8-8.07-8h0Z"/><rect class="t" x="15" y="17" width="190" height="110" rx="3" ry="3"/><path class="w" d="m202,18c1.1,0,2,.9,2,2v104c0,1.1-.9,2-2,2H18c-1.1,0-2-.9-2-2V20c0-1.1.9-2,2-2h184m0-2H18c-2.21,0-4,1.79-4,4v104c0,2.21,1.79,4,4,4h184c2.21,0,4-1.79,4-4V20c0-2.21-1.79-4-4-4h0Z"/><path class="w" d="m18,16h184c2.21,0,4,1.79,4,4v8H14v-8c0-2.21,1.79-4,4-4Z"/><path class="t" d="m24,20h0c1.1,0,2,.9,2,2h0c0,1.1-.9,2-2,2h0c-1.1,0-2-.9-2-2h0c0-1.1.9-2,2-2Z"/><path class="t" d="m29,20h0c1.1,0,2,.9,2,2h0c0,1.1-.9,2-2,2h0c-1.1,0-2-.9-2-2h0c0-1.1.9-2,2-2Z"/><path class="t" d="m34,20h0c1.1,0,2,.9,2,2h0c0,1.1-.9,2-2,2h0c-1.1,0-2-.9-2-2h0c0-1.1.9-2,2-2Z"/><rect class="y" x="16" y="28" width="188" height="12"/><path class="q" d="m23,37c-.26,0-.51-.1-.71-.29l-2-2c-.39-.39-.39-1.02,0-1.41l2-2c.39-.39,1.02-.39,1.41,0s.39,1.02,0,1.41l-1.29,1.29,1.29,1.29c.39.39.39,1.02,0,1.41-.2.2-.45.29-.71.29Z"/><path class="q" d="m29,37c-.26,0-.51-.1-.71-.29-.39-.39-.39-1.02,0-1.41l1.29-1.29-1.29-1.29c-.39-.39-.39-1.02,0-1.41s1.02-.39,1.41,0l2,2c.39.39.39,1.02,0,1.41l-2,2c-.2.2-.45.29-.71.29Z"/><path class="q" d="m199,30h0c.55,0,1,.45,1,1h0c0,.55-.45,1-1,1h0c-.55,0-1-.45-1-1h0c0-.55.45-1,1-1Z"/><path class="q" d="m199,33h0c.55,0,1,.45,1,1h0c0,.55-.45,1-1,1h0c-.55,0-1-.45-1-1h0c0-.55.45-1,1-1Z"/><path class="q" d="m199,36h0c.55,0,1,.45,1,1h0c0,.55-.45,1-1,1h0c-.55,0-1-.45-1-1h0c0-.55.45-1,1-1Z"/><rect class="q" x="36" y="30" width="158" height="8" rx="4" ry="4"/><path class="r" d="m16,40h32v86h-30c-1.1,0-2-.9-2-2V40Z"/><path class="v" d="m24,68c1.1,0,2-.89,2-2s-.9-2-2-2-2,.89-2,2,.9,2,2,2Z"/><path class="w" d="m31,65h10c.55,0,1,.45,1,1h0c0,.55-.45,1-1,1h-10c-.55,0-1-.45-1-1h0c0-.55.45-1,1-1Z"/><path class="v" d="m24,77.6c1.1,0,2-.9,2-2s-.9-2-2-2-2,.89-2,2,.9,2,2,2Z"/><path class="w" d="m31,74.6h10c.55,0,1,.45,1,1h0c0,.55-.45,1-1,1h-10c-.55,0-1-.45-1-1h0c0-.55.45-1,1-1Z"/><path class="v" d="m24,87.2c1.1,0,2-.9,2-2s-.9-2-2-2-2,.89-2,2,.9,2,2,2Z"/><path class="w" d="m31,84.2h10c.55,0,1,.45,1,1h0c0,.55-.45,1-1,1h-10c-.55,0-1-.45-1-1h0c0-.55.45-1,1-1Z"/><path class="v" d="m24,96.8c1.1,0,2-.89,2-2s-.9-2-2-2-2,.9-2,2,.9,2,2,2Z"/><path class="w" d="m31,93.8h10c.55,0,1,.45,1,1h0c0,.55-.45,1-1,1h-10c-.55,0-1-.45-1-1h0c0-.55.45-1,1-1Z"/><path class="v" d="m24,106.4c1.1,0,2-.89,2-2s-.9-2-2-2-2,.9-2,2,.9,2,2,2Z"/><path class="w" d="m31,103.4h10c.55,0,1,.45,1,1h0c0,.55-.45,1-1,1h-10c-.55,0-1-.45-1-1h0c0-.55.45-1,1-1Z"/><path class="v" d="m24,116c1.1,0,2-.89,2-2s-.9-2-2-2-2,.89-2,2,.9,2,2,2Z"/><path class="w" d="m31,113h10c.55,0,1,.45,1,1h0c0,.55-.45,1-1,1h-10c-.55,0-1-.45-1-1h0c0-.55.45-1,1-1Z"/><path class="o" d="m58.22,48h135.56c1.23,0,2.22.87,2.22,1.95v36.1c0,1.08-.99,1.95-2.22,1.95H58.22c-1.23,0-2.22-.87-2.22-1.95v-36.1c0-1.08.99-1.95,2.22-1.95Z"/><path class="s" d="m56,33h0c7.73,0,14,6.27,14,14h0c0,7.73-6.27,14-14,14h0c-7.73,0-14-6.27-14-14h0c0-7.73,6.27-14,14-14Z"/><path class="ae" d="m56,34c7.17,0,13,5.83,13,13s-5.83,13-13,13-13-5.83-13-13,5.83-13,13-13m0-1c-7.73,0-14,6.27-14,14s6.27,14,14,14,14-6.27,14-14-6.27-14-14-14h0Z"/><path class="n" d="m66,46.05v1.81c0,.54-.36.9-.91,1h-.45c-.45,0-.82.27-.91.63-.18.45-.36.9-.55,1.27-.18.36-.09.81.18,1.08l.27.27c.36.36.36.9,0,1.27l-1.27,1.27c-.36.36-.91.36-1.27,0l-.27-.27c-.27-.36-.73-.36-1.09-.18-.36.18-.82.36-1.27.54-.36.18-.64.45-.64.9v.45c0,.54-.36.9-.91.9h-1.82c-.55,0-.91-.36-.91-.9v-.45c0-.45-.27-.82-.64-.9-.45-.18-.91-.36-1.27-.54-.36-.18-.82-.18-1.09.09l-.27.27c-.36.36-.91.36-1.27,0l-1.27-1.27c-.36-.36-.36-.9,0-1.27l.27-.27c.36-.27.36-.72.18-1.09-.18-.36-.36-.81-.55-1.27-.18-.36-.45-.63-.91-.63h-.45c-.55,0-.91-.36-.91-.9v-1.81c0-.54.36-.9.91-.9h.45c.36,0,.73-.27.82-.63.18-.45.36-.9.55-1.27.18-.36.18-.81-.18-1.18l-.27-.27c-.36-.36-.36-.9,0-1.27l1.27-1.27c.36-.36.91-.36,1.27,0l.36.36c.27.27.73.27,1.09.09.36-.18.82-.36,1.27-.45.36-.18.64-.45.64-.9v-.45c0-.54.36-.9.91-.9h1.82c.55,0,.91.36.91.9v.36c0,.45.27.81.64.9.45.18.91.36,1.27.54.36.18.82.18,1.09-.09l.27-.27c.36-.36.91-.36,1.27,0l1.27,1.27c.36.36.36.9,0,1.27l-.27.27c-.36.27-.36.72-.18,1.08.18.36.36.82.55,1.27.18.36.45.63.91.63h.45c.55,0,.91.36.91.9Zm-5.87.95c0,2.28-1.85,4.13-4.13,4.13s-4.13-1.85-4.13-4.13,1.85-4.13,4.13-4.13,4.13,1.85,4.13,4.13Z"/><rect class="m" x="170" y="92" width="26" height="26" rx="2" ry="2"/><rect class="m" x="139" y="92" width="26" height="26" rx="2" ry="2"/><rect class="m" x="108" y="92" width="26" height="26" rx="2" ry="2"/><rect class="m" x="56" y="92" width="47" height="26" rx="2" ry="2"/><rect class="u" x="236" y="10" width="10" height="12" rx="2" ry="2"/><line class="m" x1="235" y1="25" x2="247" y2="25"/><line class="m" x1="237" y1="27" x2="245" y2="27"/><rect class="u" x="236" y="35" width="10" height="12" rx="2" ry="2"/><line class="m" x1="235" y1="50" x2="247" y2="50"/><line class="m" x1="237" y1="52" x2="245" y2="52"/><rect class="u" x="236" y="60" width="10" height="12" rx="2" ry="2"/><line class="m" x1="235" y1="75" x2="247" y2="75"/><line class="m" x1="237" y1="77" x2="245" y2="77"/><path class="ad" d="m199.61,91.94l-3.12-5.4c-1.97-3.43-6.23-4.58-9.68-2.62-3.44,1.96-4.59,6.21-2.62,9.65l-9.84-17c-1.97-3.43-6.23-4.58-9.68-2.62-3.44,1.96-4.59,6.21-2.63,9.65l23.95,41.53-17.39-2.13c-3.28-.33-6.56,1.8-7.38,5.23-.98,3.76,1.31,7.69,5.08,8.67l3.61.98c27.39,7.36,37.89,20.11,37.89,20.11l38.05-21.91s1.8-17.33-7.71-33.68l-10.17-17.82c-1.97-3.43-6.23-4.58-9.68-2.62s-4.59,6.21-2.62,9.65l-3.94-6.87c-1.97-3.43-6.23-4.58-9.68-2.62-3.28,2.13-4.43,6.38-2.46,9.81Zm0,0l7.87,13.57-7.87-13.57Zm16.07-.33l7.05,12.26-7.05-12.26Zm-23.62,15.53l-7.87-13.57,7.87,13.57Z"/><path class="l" d="m199.61,91.94l-3.12-5.4c-1.97-3.43-6.23-4.58-9.68-2.62-3.44,1.96-4.59,6.21-2.62,9.65m15.42-1.64c-1.97-3.43-.82-7.68,2.46-9.81,3.44-1.96,7.71-.82,9.68,2.62l3.94,6.87m-16.07.33l7.87,13.57m-23.29-11.94l-9.84-17c-1.97-3.43-6.23-4.58-9.68-2.62-3.44,1.96-4.59,6.21-2.63,9.65l23.95,41.53-17.39-2.13c-3.28-.33-6.56,1.8-7.38,5.23-.98,3.76,1.31,7.69,5.08,8.67l3.61.98c27.39,7.36,37.89,20.11,37.89,20.11l38.05-21.91s1.8-17.33-7.71-33.68l-10.17-17.82c-1.97-3.43-6.23-4.58-9.68-2.62s-4.59,6.21-2.62,9.65m-31.49,1.96l7.87,13.57m23.62-15.53l7.05,12.26"/></svg>