<?xml version="1.0" encoding="UTF-8"?><svg id="a" xmlns="http://www.w3.org/2000/svg" xmlns:xlink="http://www.w3.org/1999/xlink" viewBox="0 0 600.5 167"><defs><style>.u,.v,.w,.x,.y,.z,.aa,.ab,.ac,.ad,.ae{stroke-linecap:round;stroke-linejoin:round;}.u,.af,.ag{fill:#0d0910;}.u,.z,.aa,.ab,.ac,.ad{stroke:#0d0910;}.v,.ah,.x,.y,.ae{fill:none;}.v,.x,.y,.ae{stroke:#f6cd51;}.ah,.af,.ai,.ag,.aj,.ak,.al,.am,.an,.ao,.ap,.aq,.ar,.as,.at,.au,.av,.aw,.ax{stroke-width:0px;}.ay{stroke:url(#m);}.ay,.w,.ai{fill:#1b1320;}.w{stroke:#855fa0;stroke-width:2px;}.x{stroke-dasharray:0 0 3.89 3.89;}.y{stroke-dasharray:0 0 4.6 4.6;}.af{fill-rule:evenodd;}.z{fill:url(#g);}.aa{fill:url(#l);}.ab{fill:url(#h);}.ac{fill:url(#k);}.ad{fill:url(#i);}.ae{stroke-dasharray:0 0 4 4;}.aj{fill:#cebfd9;}.ak{fill:#855fa0;}.al{fill:url(#b);}.am{fill:url(#c);}.an{fill:url(#e);}.ao{fill:url(#t);}.ap{fill:url(#f);}.aq{fill:url(#d);}.ar{fill:url(#s);}.as{fill:url(#j);}.at{fill:url(#q);}.au{fill:url(#r);}.av{fill:url(#o);}.aw{fill:url(#p);}.ax{fill:url(#n);}</style><linearGradient id="b" x1="116" y1="0" x2="116" y2="21" gradientUnits="userSpaceOnUse"><stop offset="0" stop-color="#f6cd51"/><stop offset="1" stop-color="#f48e2a"/></linearGradient><linearGradient id="c" x1="249.5" x2="249.5" xlink:href="#b"/><linearGradient id="d" x1="301" x2="301" xlink:href="#b"/><linearGradient id="e" x1="456.5" x2="456.5" xlink:href="#b"/><linearGradient id="f" x1="350.17" y1="123.08" x2="350.17" y2="155.15" gradientTransform="translate(104.67 -141.04) rotate(15)" xlink:href="#b"/><linearGradient id="g" x1="399.96" y1="26.53" x2="399.96" y2="58.37" gradientTransform="translate(-66.78 146.76) rotate(-15)" gradientUnits="userSpaceOnUse"><stop offset="0" stop-color="#f6cd51"/><stop offset="1" stop-color="#f48e2a"/></linearGradient><linearGradient id="h" x1="368.67" y1="54.85" x2="368.67" y2="100.5" gradientTransform="matrix(1,0,0,1,0,0)" xlink:href="#g"/><linearGradient id="i" x1="200.33" y1="54.85" x2="200.33" y2="100.5" gradientTransform="matrix(1,0,0,1,0,0)" xlink:href="#g"/><linearGradient id="j" x1="512.77" y1="79.52" x2="512.77" y2="111.58" gradientTransform="translate(104.67 -141.04) rotate(15)" xlink:href="#b"/><linearGradient id="k" x1="562.56" y1="70.1" x2="562.56" y2="101.94" xlink:href="#g"/><linearGradient id="l" x1="537" y1="54.85" x2="537" y2="100.5" gradientTransform="matrix(1,0,0,1,0,0)" xlink:href="#g"/><linearGradient id="m" x1="575" y1="154.5" x2="575" y2="113.98" gradientTransform="translate(0 167) scale(1 -1)" xlink:href="#b"/><linearGradient id="n" x1="665.52" y1="23.67" x2="661.93" y2="42.68" gradientTransform="translate(-81.87 123.54) rotate(-10.69)" xlink:href="#b"/><linearGradient id="o" x1="73" y1="65" x2="73" y2="73" gradientTransform="matrix(1,0,0,1,0,0)" xlink:href="#g"/><linearGradient id="p" x1="159" y1="65" x2="159" y2="73" gradientTransform="matrix(1,0,0,1,0,0)" xlink:href="#g"/><linearGradient id="q" x1="241" y1="65" x2="241" y2="73" gradientTransform="matrix(1,0,0,1,0,0)" xlink:href="#g"/><linearGradient id="r" x1="305" y1="65" x2="305" y2="73" gradientTransform="matrix(1,0,0,1,0,0)" xlink:href="#g"/><linearGradient id="s" x1="439" y1="65" x2="439" y2="73" gradientTransform="matrix(1,0,0,1,0,0)" xlink:href="#g"/><linearGradient id="t" x1="474" y1="65" x2="474" y2="73" gradientTransform="matrix(1,0,0,1,0,0)" xlink:href="#g"/></defs><rect class="ai" x="59" width="114" height="21" rx="4" ry="4"/><path class="al" d="m169,1c1.65,0,3,1.35,3,3v13c0,1.65-1.35,3-3,3H63c-1.65,0-3-1.35-3-3V4c0-1.65,1.35-3,3-3h106m0-1H63c-2.21,0-4,1.79-4,4v13c0,2.21,1.79,4,4,4h106c2.21,0,4-1.79,4-4V4c0-2.21-1.79-4-4-4h0Z"/><path class="aj" d="m70.72,11.85h1.87c0,.35-.08.65-.23.91-.16.27-.38.48-.68.64-.3.15-.65.22-1.07.22-.46,0-.86-.11-1.2-.33-.34-.22-.6-.55-.78-.98-.18-.43-.28-.94-.28-1.55s.09-1.12.28-1.54c.19-.42.45-.75.78-.97.34-.22.73-.33,1.18-.33.24,0,.46.03.65.09.2.06.37.15.53.26.16.11.29.25.4.41.11.16.19.34.25.55h1.87c-.06-.43-.19-.83-.4-1.19-.21-.36-.48-.67-.81-.93-.33-.26-.71-.46-1.13-.61-.43-.14-.89-.22-1.38-.22-.58,0-1.11.1-1.61.3-.49.2-.93.5-1.3.88-.37.39-.66.86-.87,1.41-.2.55-.31,1.19-.31,1.89,0,.92.17,1.72.52,2.39.35.67.83,1.18,1.45,1.55.62.36,1.34.54,2.16.54.73,0,1.38-.15,1.95-.44.57-.3,1.01-.72,1.34-1.27.32-.55.49-1.21.49-1.98v-1.1h-3.65v1.39Z"/><path class="aj" d="m106.4,9.33c-.28-.28-.61-.48-.98-.62-.37-.14-.77-.21-1.21-.21-.64,0-1.2.14-1.68.43-.47.28-.84.68-1.1,1.19-.26.51-.39,1.1-.39,1.77s.13,1.29.39,1.79c.26.5.63.89,1.12,1.17.49.27,1.07.41,1.74.41.54,0,1.02-.08,1.43-.25.41-.17.75-.4,1.01-.7.26-.3.44-.65.52-1.06l-1.68-.11c-.06.17-.15.3-.27.42-.12.11-.26.2-.43.26-.17.06-.35.09-.55.09-.3,0-.57-.06-.79-.19-.22-.13-.39-.31-.52-.55-.12-.24-.18-.52-.18-.84h0s4.46,0,4.46,0v-.5c0-.56-.08-1.04-.23-1.46-.16-.42-.37-.76-.66-1.04Zm-3.56,1.87c.01-.23.07-.45.18-.64.12-.21.28-.38.49-.51.21-.13.46-.19.73-.19s.5.06.69.17c.2.11.36.27.47.47.11.2.17.43.17.69h-2.74Z"/><path class="aj" d="m94.79,9.68h-.07c-.08-.18-.2-.36-.35-.54-.15-.18-.35-.34-.6-.46-.25-.13-.55-.19-.92-.19-.48,0-.92.12-1.33.37-.4.25-.72.62-.96,1.12-.24.5-.36,1.12-.36,1.86s.12,1.32.35,1.8c.24.47.56.82.96,1.05.4.23.85.34,1.34.34.35,0,.64-.05.89-.15.25-.1.45-.23.61-.4.16-.16.28-.33.36-.52h.08v1.2c0,.45-.13.77-.39.96-.26.19-.58.29-.98.29-.26,0-.49-.04-.67-.11-.18-.07-.33-.16-.44-.27-.11-.11-.19-.24-.24-.37l-1.68.23c.07.34.23.65.48.93.25.28.58.49,1,.65.42.16.92.24,1.51.24.62,0,1.18-.1,1.66-.29.48-.19.86-.47,1.13-.84.27-.37.41-.84.41-1.4v-6.61h-1.8v1.1Zm-.15,3.14c-.11.27-.26.48-.47.63-.2.14-.45.22-.74.22s-.55-.07-.75-.22c-.2-.15-.36-.36-.46-.63-.11-.28-.16-.6-.16-.98s.05-.7.16-.98c.11-.28.26-.51.46-.66.2-.16.46-.24.75-.24s.54.08.75.23c.2.16.36.38.47.66.11.28.16.61.16,1s-.06.71-.17.99Z"/><rect class="aj" x="98.03" y="6.4" width="1.81" height="8.73"/><path class="aj" d="m80.39,8.92c-.48-.28-1.05-.43-1.71-.43s-1.23.14-1.72.43c-.48.28-.85.68-1.11,1.19-.26.51-.39,1.1-.39,1.77s.13,1.26.39,1.77c.26.51.63.9,1.11,1.18.48.28,1.06.42,1.72.42s1.23-.14,1.71-.42c.48-.28.86-.68,1.12-1.18.26-.51.39-1.1.39-1.77s-.13-1.27-.39-1.77c-.26-.51-.63-.9-1.12-1.19Zm-.49,3.96c-.1.3-.25.53-.46.71-.2.17-.45.25-.75.25s-.56-.08-.77-.25c-.2-.17-.36-.41-.46-.71-.1-.3-.15-.64-.15-1.02s.05-.72.15-1.02c.11-.3.26-.53.46-.71.21-.17.46-.26.77-.26s.55.09.75.26c.2.17.35.41.46.71.11.3.16.64.16,1.02s-.05.72-.16,1.02Z"/><path class="aj" d="m87.75,8.92c-.48-.28-1.05-.43-1.71-.43s-1.23.14-1.72.43c-.48.28-.85.68-1.11,1.19-.26.51-.39,1.1-.39,1.77s.13,1.26.39,1.77c.26.51.63.9,1.11,1.18.48.28,1.06.42,1.72.42s1.23-.14,1.71-.42c.48-.28.85-.68,1.12-1.18.26-.51.39-1.1.39-1.77s-.13-1.27-.39-1.77c-.26-.51-.63-.9-1.12-1.19Zm-.5,3.96c-.1.3-.25.53-.46.71-.2.17-.45.25-.75.25s-.56-.08-.77-.25c-.2-.17-.36-.41-.46-.71-.1-.3-.15-.64-.15-1.02s.05-.72.15-1.02c.11-.3.26-.53.46-.71.21-.17.46-.26.77-.26s.55.09.75.26c.2.17.35.41.46.71.11.3.16.64.16,1.02s-.05.72-.16,1.02Z"/><path class="aj" d="m113.83,6.4l-3.01,8.73h1.98l.65-1.99h3.15l.65,1.99h1.98l-3.01-8.73h-2.38Zm.08,5.3l1.07-3.3h.07l1.07,3.3h-2.21Z"/><path class="aj" d="m150.53,5.9c-.27,0-.5.09-.69.27-.19.18-.29.39-.29.64s.1.47.29.65c.19.18.42.27.69.27s.5-.09.69-.27c.19-.18.29-.4.29-.65s-.1-.46-.29-.64c-.19-.18-.42-.27-.69-.27Z"/><rect class="aj" x="149.62" y="8.58" width="1.82" height="6.55"/><path class="aj" d="m155.13,10.14c.21-.15.46-.23.74-.23.33,0,.6.1.81.3.21.2.34.46.38.79h1.71c-.03-.51-.16-.95-.41-1.32-.25-.37-.59-.67-1.02-.87-.43-.21-.93-.31-1.5-.31-.66,0-1.23.14-1.71.43-.48.28-.85.68-1.11,1.19-.26.51-.39,1.09-.39,1.76s.13,1.25.38,1.76c.26.51.63.91,1.11,1.19.48.28,1.06.43,1.73.43.58,0,1.09-.11,1.51-.32.43-.21.76-.51,1-.89.24-.38.38-.82.41-1.32h-1.71c-.03.23-.11.43-.22.59-.11.16-.25.29-.41.37-.16.09-.35.13-.56.13-.28,0-.53-.08-.74-.23-.21-.15-.37-.38-.49-.67-.11-.29-.17-.65-.17-1.07s.06-.76.17-1.05c.12-.29.28-.51.49-.66Z"/><path class="aj" d="m165.06,11.96c-.31-.29-.79-.5-1.42-.63l-1.19-.24c-.3-.07-.52-.15-.64-.26-.13-.11-.19-.24-.19-.4,0-.2.1-.35.29-.47.19-.12.43-.18.71-.18.21,0,.39.04.54.11.15.07.28.16.37.28.09.11.16.24.18.38l1.66-.1c-.08-.6-.36-1.08-.83-1.43-.47-.35-1.12-.52-1.95-.52-.56,0-1.05.08-1.47.25-.41.16-.74.4-.97.7-.23.3-.34.67-.34,1.09,0,.49.15.89.46,1.21.31.32.79.54,1.43.66l1.13.23c.28.06.49.14.63.25.14.11.21.24.21.4,0,.2-.1.36-.3.48-.19.12-.45.18-.77.18s-.59-.07-.8-.2c-.21-.14-.34-.34-.39-.6l-1.79.09c.09.62.39,1.12.9,1.48.51.36,1.2.54,2.07.54.57,0,1.07-.09,1.5-.27.44-.18.78-.43,1.03-.76.25-.32.38-.7.38-1.13,0-.47-.16-.85-.47-1.14Z"/><path class="aj" d="m140.74,13.39h-.07l-1.35-4.81h-1.91l2.35,6.73-.11.28c-.08.2-.18.35-.31.43-.13.09-.27.13-.45.12-.17,0-.36-.04-.58-.11l-.41,1.36c.13.05.3.1.49.13.2.04.42.06.65.06.45,0,.83-.07,1.15-.22.32-.14.58-.34.79-.61.21-.26.38-.57.5-.92l2.54-7.25h-1.92l-1.37,4.81Z"/><rect class="aj" x="134.65" y="6.4" width="1.82" height="8.73"/><path class="aj" d="m132.4,9.02c-.26-.18-.55-.31-.89-.4-.33-.09-.68-.13-1.04-.13-.52,0-.98.08-1.38.24-.4.16-.72.38-.97.67-.25.29-.42.63-.5,1.03l1.68.14c.06-.22.19-.4.38-.54.19-.14.45-.22.78-.22s.55.07.72.22c.17.15.26.36.26.63v.03c0,.14-.05.24-.16.31-.11.07-.27.13-.51.16-.23.03-.54.07-.92.11-.32.03-.63.09-.93.16-.29.08-.55.19-.78.34-.23.15-.41.35-.55.6-.13.25-.2.55-.2.92,0,.43.09.79.28,1.08.19.29.45.5.78.65.33.14.7.22,1.12.22.32,0,.61-.04.86-.13.25-.09.46-.21.64-.36.18-.16.32-.34.42-.54h.05v.91h1.72v-4.41c0-.39-.07-.72-.23-1-.15-.28-.36-.51-.62-.69Zm-.96,3.77c0,.23-.06.44-.17.62-.12.18-.28.33-.48.43-.2.11-.44.16-.71.16s-.51-.06-.69-.19c-.18-.13-.27-.32-.27-.57,0-.17.04-.31.13-.43.09-.12.21-.21.37-.28.16-.07.34-.12.56-.15.1-.01.21-.03.33-.05.12-.02.24-.04.37-.06.12-.03.23-.05.33-.08.1-.03.18-.07.23-.1v.69Z"/><path class="aj" d="m148.07,13.74c-.08.01-.17.02-.26.02-.12,0-.23-.02-.32-.05-.09-.04-.16-.1-.21-.19-.05-.09-.08-.22-.08-.39v-3.17h1.23v-1.36h-1.23v-1.57h-1.81v1.57h-.89v1.36h.89v3.41c0,.43.09.78.27,1.07.18.28.44.49.76.62.33.13.71.19,1.15.17.24,0,.44-.03.6-.07.16-.04.29-.07.38-.1l-.29-1.35s-.11.02-.2.04Z"/><path class="aj" d="m125.19,8.8c-.34-.2-.73-.3-1.19-.3-.49,0-.9.11-1.24.34-.34.22-.58.52-.73.9h-.08v-1.15h-1.73v6.55h1.81v-3.78c0-.28.06-.52.16-.72.11-.2.25-.35.43-.46.19-.11.4-.16.65-.16.36,0,.65.11.86.34.21.22.31.54.31.94v3.84h1.81v-4.17c0-.51-.09-.95-.28-1.31-.19-.37-.45-.65-.79-.85Z"/><rect class="ai" x="67" y="117.5" width="98" height="20" rx="3.5" ry="3.5"/><path class="ak" d="m161.5,118c1.65,0,3,1.35,3,3v13c0,1.65-1.35,3-3,3h-91c-1.65,0-3-1.35-3-3v-13c0-1.65,1.35-3,3-3h91m0-1h-91c-2.21,0-4,1.79-4,4v13c0,2.21,1.79,4,4,4h91c2.21,0,4-1.79,4-4v-13c0-2.21-1.79-4-4-4h0Z"/><path class="aj" d="m95.3,123.65h-7.15c-.42,0-.9-.04-1.22-.08v1.07c.23-.02.74-.06,1.22-.06h7.06c-.6,1.07-2,2.84-3.76,4.16-.82-.74-1.8-1.53-2.24-1.85l-.77.62c.64.46,2.02,1.64,2.74,2.36.77.78,1.73,1.84,2.17,2.45l.88-.7c-.48-.58-1.33-1.47-2.05-2.21,1.97-1.51,3.5-3.47,4.36-4.87.07-.11.18-.24.3-.37l-.76-.6c-.17.06-.44.08-.77.08Z"/><path class="aj" d="m151.46,125.46c-.66-.66-2.21-1.91-3.05-2.47l-.7.73c.9.59,2.39,1.88,3,2.51l.74-.77Z"/><path class="aj" d="m100.58,126.65c-.68,0-1.31-.04-1.68-.07v1.18c.38-.02,1.02-.05,1.68-.05h6.59c.53,0,1.03.04,1.28.05v-1.18c-.28.02-.7.07-1.3.07h-6.58Z"/><path class="aj" d="m81.34,127.8c.85-1.08,1.6-2.49,2.02-3.53.06-.16.22-.42.29-.52l-.6-.47c-.19.06-.52.1-.9.1h-4.63c-.37,0-1.06-.05-1.21-.07v1.08c.13-.01.78-.06,1.21-.06h4.68c-.31,1-1.19,2.42-2,3.35-1.24,1.37-3,2.81-4.94,3.55l.77.8c1.77-.81,3.39-2.11,4.69-3.51,1.22,1.11,2.5,2.51,3.3,3.58l.83-.73c-.77-.94-2.24-2.49-3.49-3.57Z"/><path class="aj" d="m156.18,124.85c-.7,1.49-2.15,3.26-4.01,4.43-1.14.71-2.7,1.44-4.79,1.75l.62.98c2-.37,3.52-1.12,4.73-1.87,1.81-1.14,3.2-2.77,4.02-4.26l-.58-1.03Z"/><path class="aj" d="m114.73,123.74c0-.37.04-.89.08-1.26h-1.18c.06.38.08.91.08,1.26v6.97c0,.44-.01,1.04-.07,1.43h1.16c-.05-.4-.07-1.04-.07-1.43,0-.34,0-2.16,0-3.95,1.33.43,3.4,1.23,4.7,1.92l.42-1.02c-1.27-.62-3.54-1.49-5.12-1.96,0-.76,0-1.46,0-1.96Z"/><path class="aj" d="m141.48,126.23c0-.41-.01-.75-.02-.97,0-.28,0-.56.05-.82h-1.02c.05.26.07.58.07.82.01.22.02.57.03.97h-3.6c-.29,0-.61-.01-.9-.06v.96c.29-.02.6-.04.91-.04h3.19c-.81,1.23-2.62,2.81-4.42,3.67l.66.73c1.64-.86,3.38-2.39,4.18-3.55.02,1.27.04,2.63.04,3.38,0,.23-.11.36-.34.36-.35,0-.97-.05-1.46-.12l.06.89c.47.02,1.26.06,1.73.06.53,0,.91-.3.91-.82-.02-1.14-.05-3.1-.07-4.61h1.74c.23,0,.56.01.77.02v-.95c-.17.04-.55.06-.8.06h-1.72Z"/><path class="aj" d="m130.64,123.4h-6.01c-.4,0-.88-.04-1.2-.08v1.07c.3-.01.71-.04,1.19-.04h6.14c-.17,1.15-.72,2.82-1.57,3.91-1.01,1.28-2.35,2.3-4.68,2.88l.82.9c2.2-.68,3.62-1.8,4.72-3.2.96-1.24,1.54-3.17,1.8-4.43.05-.24.1-.43.18-.6l-.73-.47c-.23.05-.47.06-.65.06Z"/><rect class="ai" x="42" y="146.5" width="65" height="20" rx="3.5" ry="3.5"/><path class="ak" d="m103.5,147c1.65,0,3,1.35,3,3v13c0,1.65-1.35,3-3,3h-58c-1.65,0-3-1.35-3-3v-13c0-1.65,1.35-3,3-3h58m0-1h-58c-2.21,0-4,1.79-4,4v13c0,2.21,1.79,4,4,4h58c2.21,0,4-1.79,4-4v-13c0-2.21-1.79-4-4-4h0Z"/><path class="aj" d="m74.8,156.39l.7.23c.28-.9.48-2.29.52-3.23l-.67-.1c-.07.95-.26,2.27-.54,3.1Z"/><path class="aj" d="m90.09,153h1.76v-.78h-1.76v-1.21h-.84v1.21h-1.85v.78h1.85v1.2h-2.28v.78h1.43l-.59.14c.23.5.44,1.14.51,1.57h-1.19v.78h2.11v1.31h-1.99v.78h1.99v2.44h.84v-2.44h1.92v-.78h-1.92v-1.31h2.08v-.78h-1.19c.22-.42.44-1.01.67-1.56l-.59-.16h1.26v-.78h-2.22v-1.2Zm.65,3.7h-2.15l.47-.13c-.06-.41-.29-1.08-.55-1.58h2.35c-.14.47-.39,1.14-.59,1.57l.47.14Z"/><path class="aj" d="m73.74,159.15v-.76h-4.85v-.9h3.78v-.7h-3.78v-.88h4.37v-.74h-2.73c.24-.37.5-.83.75-1.28h2.41v-.77h-1.87c.33-.47.73-1.13,1.06-1.75l-.92-.25c-.2.55-.6,1.34-.92,1.85l.48.16h-1.47v-2.15h-.86v2.15h-1.42v-2.15h-.85v2.15h-1.51l.64-.24c-.17-.49-.61-1.25-1.02-1.79l-.77.28c.37.54.78,1.27.96,1.75h-1.93v.77h2.96l-.43.08c.24.36.47.84.58,1.2h-2.64v.74h4.25v.88h-3.64v.7h3.64v.9h-4.78v.76h3.96c-1.09.85-2.77,1.57-4.28,1.91.19.19.46.54.59.77,1.58-.44,3.34-1.31,4.5-2.37v2.57h.89v-2.63c1.16,1.1,2.92,2.01,4.54,2.46.13-.25.41-.61.61-.8-1.55-.33-3.22-1.04-4.32-1.91h4.02Zm-7.03-5.26h3.54c-.16.41-.41.9-.61,1.25l.12.04h-2.78l.33-.07c-.1-.34-.35-.83-.61-1.21Z"/><polygon class="aj" points="57.02 157.86 60.48 157.86 60.48 157.04 57.02 157.04 57.02 154.22 56.07 154.22 56.07 160.86 53.78 160.86 53.78 156.39 52.9 156.39 52.9 160.86 51.38 160.86 51.38 161.68 61.61 161.68 61.61 160.86 57.02 160.86 57.02 157.86"/><path class="aj" d="m56.82,150.96h-.91c-.94,1.66-2.94,3.65-5.04,4.82.2.19.46.52.58.72,2.05-1.22,4.01-3.1,4.97-4.64,1.09,1.62,3.19,3.48,5.08,4.57.17-.26.4-.56.61-.79-1.91-.96-4.02-2.8-5.28-4.68Z"/><path class="aj" d="m84.16,156.27h-5.17v5.74h.84v-1.87h4.33v.86c0,.16-.05.2-.22.2-.17.01-.74.01-1.34-.01.11.23.23.56.26.78.85.01,1.39,0,1.73-.13.34-.13.43-.37.43-.83v-4.74h-.86Zm0,.7v.89h-4.33v-.89h4.33Zm-4.33,2.5v-.91h4.33v.91h-4.33Z"/><path class="aj" d="m96.22,159.75c.71-1.16,1.2-2.52,1.46-3.97l-.55-.2-.16.05h-3.44v-3.28h3.04v1.5c0,.13-.05.18-.24.19-.19.01-.82.01-1.56-.01.12.23.24.55.28.79.92,0,1.52-.01,1.9-.14.37-.13.47-.37.47-.82v-2.32h-4.7v10.49h.83v-.58c.2.16.45.4.58.59.62-.42,1.15-.95,1.62-1.56.53.63,1.12,1.16,1.79,1.54.14-.23.42-.55.62-.73-.71-.35-1.35-.89-1.91-1.54Zm-.54-.72c-.54-.79-.96-1.7-1.26-2.66h2.27c-.21.92-.54,1.83-1.01,2.66Zm-2.15,2.39v-5.05h.12c.36,1.25.88,2.42,1.55,3.41-.47.65-1.02,1.21-1.67,1.64Z"/><rect class="aj" x="76.29" y="150.98" width=".83" height="11.03"/><polygon class="aj" points="82.44 154.04 85.31 154.04 85.31 153.38 82.44 153.38 82.44 152.61 85.61 152.61 85.61 151.93 82.44 151.93 82.44 150.98 81.56 150.98 81.56 151.93 78.48 151.93 78.48 152.61 81.56 152.61 81.56 153.38 78.77 153.38 78.77 154.04 81.56 154.04 81.56 154.88 78.11 154.88 78.11 155.56 85.96 155.56 85.96 154.88 82.44 154.88 82.44 154.04"/><path class="aj" d="m77.82,152.74l-.6.24c.24.56.52,1.31.64,1.76l.62-.3c-.11-.44-.4-1.15-.66-1.7Z"/><rect class="ai" x="116" y="146.5" width="74" height="20" rx="3.5" ry="3.5"/><path class="ak" d="m186.5,147c1.65,0,3,1.35,3,3v13c0,1.65-1.35,3-3,3h-67c-1.65,0-3-1.35-3-3v-13c0-1.65,1.35-3,3-3h67m0-1h-67c-2.21,0-4,1.79-4,4v13c0,2.21,1.79,4,4,4h67c2.21,0,4-1.79,4-4v-13c0-2.21-1.79-4-4-4h0Z"/><path class="aj" d="m145.31,151.19c.32.41.71,1.1.97,1.6l.67-.29c-.25-.47-.7-1.18-.98-1.58l-.66.28Z"/><path class="aj" d="m145.39,152.8c-.24-.46-.67-1.16-.96-1.58l-.66.28c.27.39.62.97.86,1.44-.17.03-.35.05-.49.05h-6.02c-.4,0-.86-.05-1.2-.08v1.07c.31-.02.72-.05,1.2-.05h6.13c-.16,1.15-.72,2.83-1.57,3.91-1,1.28-2.35,2.3-4.67,2.89l.82.9c2.2-.7,3.62-1.8,4.72-3.22.95-1.22,1.54-3.17,1.79-4.43.05-.23.11-.43.18-.6l-.58-.37.46-.21Z"/><path class="aj" d="m132.26,153.13h-3.25c.09-.14.17-.29.24-.42.12-.23.34-.64.54-.95l-1.09-.35c-.07.31-.26.74-.38.95-.55,1.1-1.79,2.9-3.84,4.19l.79.61c1.35-.93,2.41-2.1,3.18-3.17h4.06c-.24.98-.86,2.27-1.63,3.32-.85-.59-1.74-1.17-2.52-1.63l-.66.67c.77.48,1.68,1.1,2.54,1.73-1.07,1.16-2.6,2.27-4.63,2.88l.85.76c2.04-.75,3.5-1.86,4.56-3.04.5.39.96.76,1.32,1.09l.71-.84c-.39-.32-.87-.68-1.38-1.05.91-1.22,1.57-2.63,1.9-3.74.06-.19.18-.47.28-.64l-.79-.48c-.19.07-.46.11-.78.11Z"/><path class="aj" d="m166.1,156.87c-.14-.52-.73-2.1-.94-2.58l-.89.3c.25.53.8,2.05.94,2.6l.89-.32Z"/><path class="aj" d="m181.53,157.08c-1.27-.62-3.54-1.49-5.12-1.96,0-.76,0-1.46,0-1.96,0-.37.04-.89.08-1.26h-1.18c.06.38.08.91.08,1.26v6.97c0,.44-.01,1.04-.07,1.43h1.16c-.05-.4-.07-1.04-.07-1.43,0-.34,0-2.16,0-3.95,1.33.43,3.4,1.23,4.7,1.92l.42-1.02Z"/><path class="aj" d="m151.13,160.17v-6.82c0-.34.05-.79.08-1.08h-1.18c.05.23.1.77.1,1.09v6.86c0,.23-.02.4-.11.59l.68.59c.19-.11.38-.17.5-.2,3-.88,5.47-2.35,7.03-4.28l-.54-.84c-1.5,1.93-4.27,3.5-6.58,4.09Z"/><path class="aj" d="m166.82,158.74c-.98,1.22-2.52,2.14-3.9,2.54l.79.8c1.33-.5,2.8-1.44,3.91-2.84.85-1.08,1.38-2.38,1.69-3.7.05-.16.11-.35.19-.59l-1.03-.34c-.19,1.54-.8,3.07-1.66,4.12Z"/><path class="aj" d="m162.37,154.89l-.89.34c.24.42.89,2.09,1.08,2.71l.9-.34c-.22-.64-.85-2.21-1.09-2.71Z"/><rect class="ai" x="225.5" width="48" height="21" rx="4" ry="4"/><path class="am" d="m269.5,1c1.65,0,3,1.35,3,3v13c0,1.65-1.35,3-3,3h-40c-1.65,0-3-1.35-3-3V4c0-1.65,1.35-3,3-3h40m0-1h-40c-2.21,0-4,1.79-4,4v13c0,2.21,1.79,4,4,4h40c2.21,0,4-1.79,4-4V4c0-2.21-1.79-4-4-4h0Z"/><path class="aj" d="m236.91,9.86c0,1.97-.29,3.23-1.8,4.28-.44.34-.88.54-1.27.67l1.4,1.14c3.26-1.76,3.34-4.21,3.34-7.19h-1.74c.06.4.07.71.07,1.09Z"/><path class="aj" d="m241.29,6.38h-6.47c-.49,0-1-.06-1.46-.13v1.68c.56-.06.97-.08,1.46-.08h6.26c-.31.59-1.25,1.64-2.22,2.23l1.25,1c1.19-.84,2.33-2.36,2.89-3.3.11-.17.34-.46.46-.61l-.95-.89c-.23.06-.89.11-1.22.11Z"/><path class="aj" d="m263.83,5.96c.05.34.08.72.08,1.21v2.27c0,1.87-.17,2.77-.98,3.67-.73.78-1.69,1.24-2.89,1.51l1.26,1.33c.88-.29,2.11-.86,2.9-1.74.9-.98,1.4-2.09,1.4-4.68v-2.36c0-.49.01-.88.04-1.21h-1.81Z"/><path class="aj" d="m254.35,5.04c-.79,0-1.44.65-1.44,1.44,0,.08.01.16.02.24-.25.04-.51.04-.68.04h-5.56c-.4,0-1.07-.06-1.43-.11v1.7c.31-.02.88-.06,1.43-.06h5.59c-.16,1.03-.61,2.4-1.42,3.4-.96,1.21-2.32,2.26-4.7,2.81l1.31,1.44c2.15-.68,3.74-1.87,4.82-3.31,1.01-1.33,1.54-3.2,1.81-4.38.03-.11.06-.23.09-.35.05,0,.1.02.15.02.79,0,1.44-.65,1.44-1.44s-.65-1.44-1.44-1.44Zm0,2.14c-.38,0-.7-.31-.7-.7s.31-.7.7-.7.7.31.7.7-.31.7-.7.7Z"/><path class="aj" d="m258.33,12.08h1.75c-.02-.28-.05-.74-.05-1.04v-4.06c0-.37.02-.64.05-.91h-1.74c.04.28.05.7.05.91v4.04c0,.37-.04.84-.06,1.06Z"/><rect class="ai" x="281.5" width="39" height="21" rx="4" ry="4"/><path class="aq" d="m316.5,1c1.65,0,3,1.35,3,3v13c0,1.65-1.35,3-3,3h-31c-1.65,0-3-1.35-3-3V4c0-1.65,1.35-3,3-3h31m0-1h-31c-2.21,0-4,1.79-4,4v13c0,2.21,1.79,4,4,4h31c2.21,0,4-1.79,4-4V4c0-2.21-1.79-4-4-4h0Z"/><path class="aj" d="m295.37,10.67c-.23-.21-.51-.38-.83-.52-.32-.14-.67-.26-1.05-.34l-.78-.19c-.19-.04-.37-.09-.54-.15-.17-.06-.32-.13-.44-.22-.13-.08-.23-.19-.3-.3-.07-.12-.1-.25-.1-.41,0-.19.05-.35.16-.5.11-.15.27-.26.48-.35.21-.09.46-.13.76-.13.44,0,.79.1,1.05.29.26.19.4.46.44.8h1.77c0-.52-.15-.98-.42-1.37-.27-.4-.65-.7-1.13-.92-.48-.22-1.05-.33-1.7-.33s-1.2.11-1.7.33c-.5.22-.89.53-1.18.92-.28.39-.43.86-.42,1.38,0,.65.21,1.16.64,1.54.43.38,1.01.66,1.74.84l.95.24c.32.08.59.16.81.26.22.09.39.21.5.34.12.13.17.3.17.49,0,.21-.06.4-.19.56-.13.16-.31.29-.54.38-.23.09-.5.14-.81.14s-.6-.05-.86-.14c-.25-.1-.45-.25-.6-.44-.15-.2-.23-.44-.25-.73h-1.79c.01.63.17,1.15.46,1.58.29.42.7.74,1.22.96.52.22,1.14.32,1.84.32s1.32-.11,1.82-.32c.51-.22.89-.52,1.16-.91.27-.39.41-.86.41-1.39,0-.36-.07-.69-.2-.97-.13-.28-.31-.52-.54-.73Z"/><polygon class="aj" points="302.81 11.62 302.74 11.62 298.97 6.13 297.35 6.13 297.35 14.86 299.19 14.86 299.19 9.37 299.26 9.37 303.06 14.86 304.65 14.86 304.65 6.13 302.81 6.13 302.81 11.62"/><path class="aj" d="m312.6,11.4c-.13-.28-.31-.52-.54-.73-.23-.21-.51-.38-.83-.52-.32-.14-.67-.26-1.05-.34l-.78-.19c-.19-.04-.37-.09-.54-.15-.17-.06-.32-.13-.44-.22-.13-.08-.23-.19-.3-.3-.07-.12-.1-.25-.1-.41,0-.19.05-.35.16-.5.11-.15.27-.26.48-.35.21-.09.46-.13.76-.13.44,0,.79.1,1.05.29.26.19.4.46.44.8h1.77c0-.52-.15-.98-.42-1.37-.27-.4-.65-.7-1.13-.92-.48-.22-1.05-.33-1.7-.33s-1.2.11-1.7.33c-.5.22-.89.53-1.18.92-.28.39-.43.86-.42,1.38,0,.65.21,1.16.64,1.54.43.38,1.01.66,1.74.84l.95.24c.32.08.59.16.81.26.22.09.39.21.5.34.12.13.17.3.17.49,0,.21-.06.4-.19.56-.13.16-.31.29-.54.38-.23.09-.5.14-.81.14s-.6-.05-.86-.14c-.25-.1-.45-.25-.6-.44-.15-.2-.23-.44-.25-.73h-1.79c.01.63.17,1.15.46,1.58.29.42.7.74,1.22.96.52.22,1.14.32,1.84.32s1.32-.11,1.82-.32c.51-.22.89-.52,1.16-.91.27-.39.41-.86.41-1.39,0-.36-.07-.69-.2-.97Z"/><rect class="ai" x="242" y="117.5" width="62" height="20" rx="3.5" ry="3.5"/><path class="ak" d="m300.5,118c1.65,0,3,1.35,3,3v13c0,1.65-1.35,3-3,3h-55c-1.65,0-3-1.35-3-3v-13c0-1.65,1.35-3,3-3h55m0-1h-55c-2.21,0-4,1.79-4,4v13c0,2.21,1.79,4,4,4h55c2.21,0,4-1.79,4-4v-13c0-2.21-1.79-4-4-4h0Z"/><path class="aj" d="m270.79,122l-.53.44c.53.38,1.14.94,1.45,1.31l.54-.52c-.3-.36-.95-.89-1.46-1.24Z"/><path class="aj" d="m265.25,125.71v3.49h3v-3.49h-3Zm2.27,2.75h-1.56v-2.02h1.56v2.02Z"/><path class="aj" d="m264.73,128.96c-.38.19-.76.37-1.13.54v-3.75h1.1v-.85h-1.1v-2.8h-.84v2.8h-1.27v.85h1.27v4.14c-.51.23-.98.44-1.36.6l.35.9c.95-.47,2.11-1.07,3.22-1.63l-.24-.8Z"/><path class="aj" d="m251.87,129.2v-3.49h1.42v-.85h-1.42v-2.75h-.85v2.75h-1.55v.85h1.55v3.84c-.62.26-1.2.49-1.66.66l.36.89c1.07-.46,2.42-1.07,3.71-1.68l-.19-.8c-.46.2-.92.39-1.37.58Z"/><path class="aj" d="m258.82,131.93h-2.89c-.8,0-.95-.14-.95-.8v-4.18l1.62-.69v4.08h.85v-4.44l1.68-.71c0,1.93-.02,3.27-.08,3.55-.06.28-.18.32-.36.32-.13,0-.53,0-.8-.01.11.2.18.54.22.78.32,0,.8,0,1.13-.08.35-.08.58-.31.65-.79.08-.47.12-2.27.12-4.52l.04-.17-.64-.24-.16.13-.19.16-1.59.67v-3.01h-.85v3.36l-1.62.68v-2.92h-.86v3.28l-1.3.55.35.79.95-.4v3.8c0,1.31.41,1.63,1.79,1.63h2.95c1.26,0,1.55-.53,1.69-2.18-.25-.05-.6-.19-.82-.34-.08,1.38-.2,1.7-.91,1.7Z"/><path class="aj" d="m268.76,129.73c-1.56.42-3.19.85-4.26,1.09l.24.85c1.15-.32,2.66-.76,4.12-1.18l-.1-.77Z"/><path class="aj" d="m273.31,127.38l.7.23c.28-.9.48-2.29.52-3.23l-.67-.1c-.07.95-.26,2.27-.54,3.1Z"/><path class="aj" d="m288.59,123.98h1.76v-.78h-1.76v-1.21h-.84v1.21h-1.85v.78h1.85v1.2h-2.28v.78h1.43l-.59.14c.23.5.44,1.14.51,1.57h-1.19v.78h2.11v1.31h-1.99v.78h1.99v2.44h.84v-2.44h1.92v-.78h-1.92v-1.31h2.08v-.78h-1.19c.22-.42.44-1.01.67-1.56l-.59-.16h1.26v-.78h-2.22v-1.2Zm.65,3.7h-2.15l.47-.13c-.06-.41-.29-1.08-.55-1.58h2.35c-.14.47-.39,1.14-.59,1.57l.47.14Z"/><polygon class="aj" points="280.95 125.03 283.82 125.03 283.82 124.37 280.95 124.37 280.95 123.6 284.12 123.6 284.12 122.92 280.95 122.92 280.95 121.97 280.06 121.97 280.06 122.92 276.99 122.92 276.99 123.6 280.06 123.6 280.06 124.37 277.28 124.37 277.28 125.03 280.06 125.03 280.06 125.87 276.62 125.87 276.62 126.55 284.47 126.55 284.47 125.87 280.95 125.87 280.95 125.03"/><path class="aj" d="m294.72,130.73c.71-1.16,1.2-2.52,1.46-3.97l-.55-.2-.16.05h-3.44v-3.28h3.04v1.5c0,.13-.05.18-.24.19-.19.01-.82.01-1.56-.01.12.23.24.55.28.79.92,0,1.52-.01,1.9-.14.37-.13.47-.37.47-.82v-2.32h-4.7v10.49h.83v-.58c.2.16.45.4.58.59.62-.42,1.15-.95,1.62-1.56.53.63,1.12,1.16,1.79,1.54.14-.23.42-.55.62-.73-.71-.35-1.35-.89-1.91-1.54Zm-.54-.72c-.54-.79-.96-1.7-1.26-2.66h2.27c-.21.92-.54,1.83-1.01,2.66Zm-2.15,2.39v-5.05h.12c.36,1.25.88,2.42,1.55,3.41-.47.65-1.02,1.21-1.67,1.64Z"/><path class="aj" d="m282.67,127.26h-5.17v5.74h.84v-1.87h4.33v.86c0,.16-.05.2-.22.2-.17.01-.74.01-1.34-.01.11.23.23.56.26.78.85.01,1.39,0,1.73-.13.34-.13.43-.37.43-.83v-4.74h-.86Zm0,.7v.89h-4.33v-.89h4.33Zm-4.33,2.5v-.91h4.33v.91h-4.33Z"/><rect class="aj" x="274.79" y="121.97" width=".83" height="11.03"/><path class="aj" d="m271.47,132.14c-.43,0-.8-.79-1.09-2.11.75-1.19,1.33-2.58,1.76-4.16l-.83-.16c-.28,1.13-.66,2.16-1.15,3.08-.17-1.18-.29-2.62-.34-4.22h2.53v-.82h-2.56c-.01-.58-.02-1.17-.01-1.78h-.88c0,.6.02,1.19.03,1.78h-4.05v.82h4.08c.08,2.04.23,3.89.52,5.33-.67.97-1.48,1.79-2.46,2.41.19.14.53.44.66.6.77-.54,1.45-1.2,2.05-1.96.37,1.28.89,2.06,1.63,2.06s1.01-.52,1.14-2.11c-.19-.1-.47-.28-.65-.48-.04,1.25-.16,1.73-.38,1.73Z"/><path class="aj" d="m276.33,123.73l-.6.24c.24.56.52,1.31.64,1.76l.62-.3c-.11-.44-.4-1.15-.66-1.7Z"/><rect class="ai" x="213.5" y="146.5" width="119" height="20" rx="3.5" ry="3.5"/><path class="ak" d="m329,147c1.65,0,3,1.35,3,3v13c0,1.65-1.35,3-3,3h-112c-1.65,0-3-1.35-3-3v-13c0-1.65,1.35-3,3-3h112m0-1h-112c-2.21,0-4,1.79-4,4v13c0,2.21,1.79,4,4,4h112c2.21,0,4-1.79,4-4v-13c0-2.21-1.79-4-4-4h0Z"/><path class="aj" d="m237.07,158.53c-1.14.71-2.7,1.44-4.79,1.75l.62.98c2-.37,3.52-1.12,4.73-1.87,1.81-1.14,3.2-2.77,4.02-4.26l-.58-1.03c-.7,1.49-2.15,3.26-4.01,4.43Z"/><path class="aj" d="m226.45,153.81c0-.48-.01-.89-.02-1.16-.01-.32.01-.67.06-1h-1.1c.05.25.07.54.1,1,.01.28.02.68.04,1.16h-4.37c-.36,0-.76-.02-1.1-.06v1.02c.38-.02.72-.05,1.13-.05h3.96c-.95,1.45-3.08,3.43-5.52,4.63l.68.78c2.16-1.15,4.25-3.1,5.25-4.51.02,1.61.04,3.39.04,4.36,0,.32-.11.48-.44.48-.46,0-1.13-.05-1.7-.14l.08,1c.6.04,1.31.07,1.92.07.72,0,1.1-.34,1.09-.97,0-1.51-.05-3.88-.08-5.69h1.9c.3,0,.71.02,1,.04v-1.02c-.24.04-.71.07-1.02.07h-1.89Z"/><path class="aj" d="m236.36,154.72c-.66-.66-2.21-1.91-3.05-2.47l-.7.73c.9.59,2.39,1.88,3,2.51l.74-.77Z"/><path class="aj" d="m251.77,154.93h-6.31c-.34,0-.74-.04-1.18-.07v1.01c.43-.04.89-.05,1.18-.05h6.36c-.22.88-.7,1.9-1.42,2.65-1.03,1.08-2.53,1.86-4.22,2.21l.74.85c1.52-.43,3.04-1.13,4.28-2.51.9-.98,1.44-2.23,1.75-3.41.02-.1.11-.24.17-.36l-.68-.42c-.13.06-.4.1-.67.1Z"/><path class="aj" d="m284.8,153.52c-.53-.38-1.91-1.31-2.62-1.7l-.53.82c.7.4,2,1.26,2.58,1.7l.56-.82Z"/><path class="aj" d="m309.32,156.71c-.14-.52-.73-2.1-.94-2.58l-.89.3c.25.53.8,2.05.94,2.6l.89-.32Z"/><path class="aj" d="m251.13,153.06c.41,0,.83.01,1.1.04v-1c-.29.04-.71.06-1.08.06h-4.73c-.38,0-.76-.02-1.07-.06v1c.32-.02.71-.04,1.07-.04h4.7Z"/><path class="aj" d="m272.36,154.72c-.66-.66-2.21-1.91-3.05-2.47l-.7.73c.9.59,2.39,1.88,3,2.51l.74-.77Z"/><path class="aj" d="m283.01,156.13c-.52-.37-1.92-1.24-2.63-1.62l-.54.82c.73.38,2.03,1.21,2.62,1.64l.55-.84Z"/><path class="aj" d="m310.04,158.58c-.98,1.22-2.52,2.14-3.9,2.54l.79.8c1.33-.5,2.8-1.44,3.91-2.84.85-1.08,1.38-2.38,1.69-3.7.05-.16.11-.35.19-.59l-1.03-.34c-.19,1.54-.8,3.07-1.66,4.12Z"/><path class="aj" d="m325.04,151.07c-.74,0-1.34.6-1.34,1.34,0,.13.03.26.06.38-.14.02-.28.03-.4.03h-6.01c-.4,0-.88-.05-1.2-.08v1.07c.3-.02.71-.05,1.19-.05h6.14c-.17,1.15-.72,2.83-1.57,3.91-1.01,1.28-2.35,2.3-4.68,2.89l.82.9c2.2-.7,3.62-1.8,4.72-3.22.96-1.22,1.54-3.17,1.8-4.43.01-.05.02-.09.03-.14.14.05.29.08.45.08.74,0,1.34-.6,1.34-1.34s-.6-1.34-1.34-1.34Zm0,2.14c-.44,0-.79-.35-.79-.79s.35-.79.79-.79.79.36.79.79-.36.79-.79.79Z"/><path class="aj" d="m305.59,154.73l-.89.34c.24.42.89,2.09,1.08,2.71l.9-.34c-.22-.64-.85-2.21-1.09-2.71Z"/><path class="aj" d="m273.07,158.53c-1.14.71-2.7,1.44-4.79,1.75l.62.98c2-.37,3.52-1.12,4.73-1.87,1.81-1.14,3.2-2.77,4.02-4.26l-.58-1.03c-.7,1.49-2.15,3.26-4.01,4.43Z"/><path class="aj" d="m264.94,152.39l-.8-.76c-.83,1.01-2.03,2.04-3.29,2.83-1.33.83-3.16,1.68-5.23,2.23l.47.94c1.66-.52,3.3-1.24,4.57-1.95v4.44c0,.44-.04,1.04-.07,1.27h1.19c-.06-.23-.08-.83-.08-1.27v-5.08c1.22-.81,2.33-1.7,3.25-2.66Z"/><path class="aj" d="m284.42,159c-1.22.68-2.71,1.16-4.03,1.39l.56.97c1.1-.23,2.76-.78,3.97-1.49,1.92-1.13,3.58-2.68,4.62-4.28l-.59-1c-.96,1.69-2.54,3.26-4.54,4.4Z"/><path class="aj" d="m299.86,154.48c-.17,0-.47.01-.74.01h-4.63c-.32,0-1.01-.01-1.24-.04v.92c.23,0,.91-.02,1.24-.02h4.44v1.99h-4.33c-.41,0-.84-.02-1.08-.05v.94c.24-.02.67-.02,1.08-.02h4.33v2.12h-4.82c-.42,0-.79-.02-.98-.05v.96c.19,0,.61-.02.98-.02h4.82c0,.19,0,.38-.01.49h.95c0-.18-.01-.46-.01-.65v-5.98c0-.23,0-.48.01-.61Z"/><rect class="ai" x="413" width="87" height="21" rx="4" ry="4"/><path class="an" d="m496,1c1.65,0,3,1.35,3,3v13c0,1.65-1.35,3-3,3h-79c-1.65,0-3-1.35-3-3V4c0-1.65,1.35-3,3-3h79m0-1h-79c-2.21,0-4,1.79-4,4v13c0,2.21,1.79,4,4,4h79c2.21,0,4-1.79,4-4V4c0-2.21-1.79-4-4-4h0Z"/><path class="aj" d="m485.49,9.69l1.22-1.25c-.71-.73-2.27-1.98-3.1-2.54l-1.14,1.21c.88.6,2.39,1.91,3.01,2.58Z"/><path class="aj" d="m430.89,8.78v-.6c.32.22.65.41.96.56.19-.4.47-.91.74-1.26-1.26-.48-2.5-1.49-3.34-2.64h-1.3c-.57.92-1.64,1.95-2.8,2.54v-.08h-1.1v-2.47h-1.32v2.47h-1.49v1.34h1.39c-.33,1.44-.96,3.08-1.66,4.03.22.35.52.9.66,1.28.41-.58.78-1.42,1.09-2.34v4.47h1.32v-5.14c.25.5.49,1.03.62,1.39l.74-1.12c-.19-.31-1.05-1.6-1.37-2.01v-.57h1.1v-.59c.14.24.27.49.35.7.34-.17.67-.38,1-.6v.62h1.5v.77h-2.44v3.34h2.2c-.34.86-1.13,1.63-2.99,2.21.24.23.65.78.77,1.08,1.78-.58,2.74-1.44,3.24-2.4.74,1.3,1.69,1.91,2.89,2.37.14-.42.5-.89.83-1.19-1.16-.36-2.06-.84-2.76-2.08h2.12v-3.34h-2.56v-.77h1.58Zm-4.07,2.99v-1.13h1.19v.73c0,.13,0,.26-.01.4h-1.18Zm3.74-1.13v1.13h-1.27c0-.12,0-.24,0-.36v-.77h1.26Zm-1.91-4.56c.35.51.87,1.04,1.44,1.51h-2.86c.57-.48,1.07-1.01,1.41-1.51Z"/><path class="aj" d="m478.57,7.66c-.26-.55-.76-1.34-1.09-1.85l-1.01.41c.44.62.71,1.14,1.07,1.9l1.03-.46Z"/><path class="aj" d="m461.49,9.69l1.22-1.25c-.71-.73-2.27-1.98-3.1-2.54l-1.14,1.21c.88.6,2.39,1.91,3.01,2.58Z"/><path class="aj" d="m475,7.29c-.62-.43-1.94-1.28-2.74-1.72l-.88,1.32c.79.44,2.05,1.26,2.71,1.73l.9-1.33Z"/><path class="aj" d="m433.15,15.01c.32.24.85.73,1.1,1.01,1.02-.48,2.24-1.31,3.02-2.12l-1.37-.52c-.64.64-1.73,1.26-2.76,1.63Z"/><path class="aj" d="m442.51,13.14c.23.2.43.38.58.54l1.01-.83c-.64-.62-1.91-1.52-2.86-2.12l-.95.73c.27.18.56.38.86.6-.96.01-1.92.02-2.84.03,1.1-.65,2.25-1.41,3.21-2.13l-1.28-.7c-.63.56-1.47,1.19-2.36,1.78-.22-.16-.47-.33-.74-.49.58-.4,1.22-.92,1.81-1.44l-.36-.17h3.97v1.28h1.42v-2.5h-4.58v-.73h4.44v-1.24h-4.44v-.94h-1.43v.94h-4.37v1.24h4.37v.73h-4.46v2.5h1.36v-1.28h2.39c-.33.35-.74.72-1.12,1.03-.18-.09-.35-.18-.51-.26l-.94.8c.66.35,1.45.84,2.03,1.28-.18.11-.37.22-.55.32-1.02,0-1.94,0-2.7,0l.07,1.3c1.22-.02,2.77-.07,4.44-.12v2.81h1.43v-2.85c1.03-.03,2.08-.07,3.11-.11Z"/><path class="aj" d="m478.11,5.66c.44.6.73,1.07,1.12,1.82l1.03-.46c-.29-.53-.76-1.32-1.13-1.8l-1.02.43Z"/><path class="aj" d="m473.16,10c-.61-.43-1.93-1.26-2.74-1.69l-.88,1.33c.82.42,2.05,1.24,2.74,1.7l.88-1.34Z"/><path class="aj" d="m491.08,7.66c-.77,1.62-2.33,3.44-4.38,4.67-1.16.68-2.71,1.3-4.6,1.56l1.02,1.58c1.68-.29,3.23-.95,4.45-1.68,1.93-1.16,3.53-2.82,4.43-4.45l-.92-1.68Z"/><path class="aj" d="m474.13,12.75c-1.31.72-2.75,1.12-4.08,1.34l.9,1.58c1.06-.19,2.78-.79,4-1.49,1.97-1.13,3.66-2.65,4.78-4.31l-.92-1.63c-.96,1.72-2.63,3.36-4.67,4.5Z"/><path class="aj" d="m440.08,14.06c.98.55,2.27,1.37,2.87,1.92l1.19-.82c-.7-.55-2.02-1.33-2.95-1.82l-1.1.72Z"/><path class="aj" d="m462.7,12.33c-1.16.68-2.71,1.3-4.6,1.56l1.02,1.58c1.68-.29,3.23-.95,4.45-1.68,1.93-1.16,3.53-2.82,4.43-4.45l-.92-1.68c-.77,1.62-2.33,3.44-4.38,4.67Z"/><path class="aj" d="m451.52,13.15v-4.91h2.54c.35,0,.77.02,1.12.06v-1.66c-.34.05-.76.08-1.12.08h-6.54c-.32,0-.83-.04-1.14-.08v1.66c.31-.04.82-.06,1.14-.06h2.33v4.91h-3.06c-.36,0-.79-.04-1.18-.1v1.73c.4-.04.83-.05,1.18-.05h7.92c.28,0,.78.01,1.12.05v-1.73c-.31.04-.7.1-1.12.1h-3.19Z"/><rect class="ai" x="425.5" y="117.5" width="62" height="20" rx="3.5" ry="3.5"/><path class="ak" d="m484,118c1.65,0,3,1.35,3,3v13c0,1.65-1.35,3-3,3h-55c-1.65,0-3-1.35-3-3v-13c0-1.65,1.35-3,3-3h55m0-1h-55c-2.21,0-4,1.79-4,4v13c0,2.21,1.79,4,4,4h55c2.21,0,4-1.79,4-4v-13c0-2.21-1.79-4-4-4h0Z"/><path class="aj" d="m436.48,123.16c-.58-.3-1.69-.71-2.52-.92l-.4.61c.84.26,1.96.7,2.52,1.01l.4-.7Z"/><path class="aj" d="m466.33,127.03h-4.12v5.95h.85v-2.24h3.26v1.3c0,.14-.04.18-.19.19-.16,0-.65.01-1.19-.01.11.22.23.53.26.74.74,0,1.25,0,1.57-.12.3-.13.4-.35.4-.79v-5.02h-.85Zm0,.68v.86h-3.26v-.86h3.26Zm-3.26,2.38v-.86h3.26v.86h-3.26Z"/><path class="aj" d="m436.45,125.17l-.1-.71c-1.25.35-2.52.71-3.38.91l.35.79c.91-.28,2.04-.65,3.13-1Z"/><path class="aj" d="m442.4,131.08v-4.85h-7.82v4.85h7.82Zm-6.95-4.25h6.05v.82h-6.05v-.82Zm0,1.4h6.05v.82h-6.05v-.82Zm0,1.4h6.05v.84h-6.05v-.84Z"/><path class="aj" d="m476.6,128.42c.81-.68,1.81-1.66,2.56-2.52l-.78-.56c-.56.77-1.47,1.74-2.23,2.43-.54-.87-.97-1.82-1.3-2.81v-.11h4.84v-.88h-1.49l.55-.62c-.5-.4-1.49-.96-2.22-1.34l-.55.56c.75.4,1.69.99,2.17,1.4h-3.3v-1.98h-.92v1.98h-4.74v.88h4.74v6.94c0,.23-.08.29-.3.3-.24.01-1.02.01-1.86-.01.14.28.29.7.34.95,1.06,0,1.78-.01,2.18-.18.4-.14.56-.42.56-1.06v-4.78c1.04,2.27,2.54,4.15,4.52,5.12.14-.26.44-.61.66-.79-1.35-.59-2.51-1.63-3.43-2.91Z"/><path class="aj" d="m472.5,127.75c-.37-.64-1.24-1.55-1.97-2.18l-.7.46c.74.66,1.57,1.62,1.93,2.24l.73-.52Z"/><rect class="aj" x="457.47" y="122.39" width="3.43" height=".72"/><path class="aj" d="m446.42,125.38c-.08-.72-.36-1.81-.7-2.65l-.66.17c.31.84.59,1.96.65,2.68l.71-.19Z"/><path class="aj" d="m452.5,124.98l.48-.7c-.4-.44-1.22-1.06-1.92-1.46l-.47.61c.7.43,1.52,1.08,1.91,1.55Z"/><path class="aj" d="m452.44,127.19c-.43-.43-1.32-1-2.04-1.37l-.42.64c.72.4,1.58,1.01,2,1.44l.46-.71Z"/><path class="aj" d="m449.73,122.88l-.79-.2c-.17.82-.53,2.02-.79,2.74l.58.18c.32-.67.7-1.8,1.01-2.71Z"/><rect class="aj" x="456.87" y="123.96" width="4.48" height=".74"/><path class="aj" d="m433.05,132.36c.2.16.52.5.66.68,1.2-.34,2.72-.89,3.7-1.46l-.82-.37c-.86.47-2.3.89-3.54,1.15Z"/><path class="aj" d="m472.9,128.78c-1.46.85-3.04,1.73-4.04,2.24l.55.8c1.07-.6,2.48-1.44,3.78-2.24l-.29-.8Z"/><polygon class="aj" points="465.02 124.85 467.47 124.85 467.47 124.19 465.02 124.19 465.02 123.47 467.65 123.47 467.65 122.77 465.02 122.77 465.02 121.96 464.17 121.96 464.17 122.77 461.61 122.77 461.61 123.47 464.17 123.47 464.17 124.19 461.92 124.19 461.92 124.85 464.17 124.85 464.17 125.63 461.31 125.63 461.31 126.32 467.91 126.32 467.91 125.63 465.02 125.63 465.02 124.85"/><rect class="aj" x="457.44" y="127.2" width="3.52" height=".72"/><rect class="aj" x="457.44" y="125.59" width="3.52" height=".72"/><path class="aj" d="m457.83,128.82h-.41v4.06h.78v-.55h2.75v-3.5h-3.12Zm2.33.74v2h-1.96v-2h1.96Z"/><path class="aj" d="m439.41,131.69c1.31.43,2.62.95,3.37,1.34l1-.46c-.86-.41-2.32-.94-3.64-1.34l-.73.46Z"/><polygon class="aj" points="455.86 128.5 454.45 128.75 454.45 121.97 453.6 121.97 453.6 128.9 449.7 129.6 449.84 130.44 453.6 129.76 453.6 133 454.45 133 454.45 129.61 456.01 129.32 455.86 128.5"/><path class="aj" d="m440.46,123.53h1.93c-.22.34-.47.68-.72.92l.72.25c.43-.42.88-1.09,1.21-1.72l-.6-.18-.16.04h-4.13c.15-.25.3-.5.41-.76l-.82-.13c-.31.72-.92,1.55-1.82,2.16.22.1.53.29.68.46.41-.32.76-.67,1.06-1.04h1.29c-.28,1.09-1.02,1.71-2.98,2.04.16.16.35.46.43.65,1.72-.35,2.6-.92,3.07-1.81.45.88,1.33,1.66,3.39,2.02.1-.23.3-.55.47-.73-2.46-.36-3.15-1.22-3.43-2.16Z"/><path class="aj" d="m447.75,126.84h1.97v-.85h-1.97v-3.98h-.84v3.98h-1.93v.85h1.68c-.42,1.33-1.17,2.91-1.87,3.74.14.24.36.62.46.89.59-.81,1.21-2.15,1.67-3.46v4.97h.84v-4.94c.45.68,1,1.6,1.21,2.06l.6-.72c-.27-.39-1.45-1.96-1.81-2.36v-.18Z"/><rect class="ai" x="421" y="146.5" width="71" height="20" rx="3.5" ry="3.5"/><path class="ak" d="m488.5,147c1.65,0,3,1.35,3,3v13c0,1.65-1.35,3-3,3h-64c-1.65,0-3-1.35-3-3v-13c0-1.65,1.35-3,3-3h64m0-1h-64c-2.21,0-4,1.79-4,4v13c0,2.21,1.79,4,4,4h64c2.21,0,4-1.79,4-4v-13c0-2.21-1.79-4-4-4h0Z"/><path class="aj" d="m447.25,152.46h-6.9c-.44,0-.94-.05-1.36-.11v1.08c.47-.04.91-.06,1.36-.06h6.84c-.38.74-1.51,2.04-2.63,2.68l.8.64c1.37-.95,2.51-2.5,2.99-3.31.08-.13.23-.31.32-.42l-.6-.58c-.17.05-.6.08-.83.08Z"/><path class="aj" d="m484.72,152.04c-.34-.32-1.03-.77-1.61-1.03l-.49.43c.55.3,1.24.76,1.57,1.1l.53-.5Z"/><path class="aj" d="m429.24,152.05h-1.09c.04.23.05.65.05.85v4.01c0,.35-.02.73-.05.92h1.09c-.02-.22-.04-.61-.04-.92v-4.01c0-.28.01-.62.04-.85Z"/><path class="aj" d="m456.74,159.86v-6.91c0-.46.05-.8.06-.9h-1.1c0,.1.06.43.06.89v7.19c0,.24-.04.49-.08.67l.64.53c.1-.06.22-.17.42-.26,1.39-.7,3.05-1.92,4.09-3.32l-.58-.83c-.91,1.36-2.39,2.45-3.5,2.95Z"/><path class="aj" d="m433.75,153v1.9c0,2.26-.16,3.24-1.01,4.22-.74.85-1.76,1.32-2.87,1.61l.79.83c.88-.3,2.08-.83,2.84-1.76.88-1.02,1.26-1.97,1.26-4.86v-1.93c0-.41.01-.76.04-1.04h-1.13c.04.29.07.64.07,1.04Z"/><path class="aj" d="m442.85,155.4c0,2-.26,3.71-2.11,4.85-.34.23-.76.43-1.08.54l.88.72c3.06-1.54,3.35-3.73,3.35-6.98h-1.08c.05.32.05.59.05.88Z"/><path class="aj" d="m452.62,152.96c0,1.34,0,3.73-.36,4.84-.36,1.16-1.07,2.23-2.09,2.95l.91.6c1.01-.84,1.78-2,2.14-3.29.32-1.2.36-3.78.36-5.11,0-.35.05-.72.06-.85h-1.1c.06.25.08.52.08.86Z"/><polygon class="aj" points="476.86 155.22 478.43 155.22 478.43 154.5 476.86 154.5 476.86 153.32 476.02 153.32 476.02 154.5 474.52 154.5 474.52 155.22 476.02 155.22 476.02 156.45 474.06 156.45 474.06 157.21 478.76 157.21 478.76 156.45 476.86 156.45 476.86 155.22"/><path class="aj" d="m476.73,150.98h-.84c-.42.92-1.19,2.12-2.23,3.02.18.12.47.4.6.59,1-.91,1.7-1.96,2.19-2.8.67.63,1.39,1.52,1.77,2.08l.56-.7c-.42-.61-1.32-1.55-2.05-2.2Z"/><path class="aj" d="m484.85,153.44v-.79h-2.6v-1.68h-.82v1.68h-2.62v.79h2.62v1.14h-2.28v7.4h.8v-2.68h1.48v2.62h.82v-2.62h1.57v1.75c0,.13-.05.17-.16.17-.12.01-.49.01-.9,0,.11.22.23.55.25.77.62,0,1.01-.01,1.27-.16.26-.12.34-.36.34-.76v-6.5h-2.38v-1.14h2.6Zm-3.42,1.92v1.2h-1.48v-1.2h1.48Zm-1.48,3.19v-1.24h1.48v1.24h-1.48Zm2.29,0v-1.24h1.57v1.24h-1.57Zm1.57-3.19v1.2h-1.57v-1.2h1.57Z"/><path class="aj" d="m468.6,153.66h-.91v3.96h-2.87v4.42h.88v-.48h5.22v.46h.92v-4.39h-3.24v-1.73h4.04v-.8h-4.04v-1.43Zm2.32,7.09h-5.22v-2.32h5.22v2.32Z"/><path class="aj" d="m474.46,161.92h.8v-.64h2.39v.41h.83v-3.67h-4.02v3.9Zm3.19-3.14v1.75h-2.39v-1.75h2.39Z"/><path class="aj" d="m468.2,150.98h-.92v1.55h-4.44v3.11c0,1.73-.08,4.15-1.07,5.88.22.1.61.35.77.5,1.03-1.82,1.2-4.54,1.2-6.38v-2.24h9.08v-.86h-4.62v-1.55Z"/><rect class="ah" x="388.07" y="61.4" width="39.19" height="39.19" transform="translate(34.86 -102.75) rotate(15)"/><path class="ap" d="m405.32,99.78c-.89,0-1.75-.11-2.56-.33-5.99-1.6-10.7-9.44-10.97-18.23v-.37s-.18-.05-.18-.05v-.02s-.12-.04-.12-.04c-1.1-.95-1.55-2.49-1.17-3.93.46-1.7,1.96-2.89,3.65-2.89.24,0,.49.02.72.07l.3.06.19-.24c3.01-3.72,7.4-5.85,12.03-5.85,1.3,0,2.6.17,3.87.51,5.75,1.54,10.08,6.47,11.04,12.56l.05.3.29.1c1.86.61,2.91,2.64,2.38,4.63-.39,1.46-1.57,2.56-3.01,2.83h-.02l-.24-.06-.2.32c-3.87,6.26-10.47,10.63-16.05,10.63Z"/><path class="ag" d="m407.21,68.47c1.26,0,2.52.17,3.74.5,5.56,1.49,9.75,6.26,10.68,12.16l.1.6.58.19c1.61.53,2.51,2.3,2.05,4.02-.33,1.24-1.31,2.18-2.53,2.44l-.49-.13-.39.63c-3.78,6.12-10.21,10.4-15.63,10.4-.85,0-1.67-.1-2.44-.31-5.69-1.52-10.34-9.33-10.6-17.77l-.02-.74-.34-.09-.02-.04-.18-.05c-.88-.83-1.24-2.12-.92-3.33.4-1.49,1.7-2.52,3.16-2.52.21,0,.42.02.62.06l.6.13.38-.47c2.92-3.6,7.16-5.67,11.64-5.67m0-1c-4.81,0-9.37,2.27-12.42,6.04-.28-.06-.55-.09-.83-.09-1.88,0-3.61,1.31-4.13,3.27-.46,1.73.14,3.46,1.4,4.5.03,0,.02.04.05.04.26,8.51,4.89,16.97,11.34,18.7.87.23,1.77.34,2.69.34,5.91,0,12.6-4.58,16.48-10.87,0,0,0,0,0,0,.02,0,.03-.02.05-.02,0,0,0,0,0,0,1.6-.27,3-1.47,3.46-3.2.61-2.27-.59-4.54-2.7-5.23-.97-6.11-5.27-11.32-11.41-12.97-1.34-.36-2.68-.53-4-.53h0Z"/><path class="ag" d="m429.62,70.95c-2.59-1.44-4.91-1.78-6.78-1.67.98-.46,2.27-.77,3.98-.74.72.01,1.32-.56,1.33-1.29s-.56-1.32-1.29-1.33c-5.48-.09-7.88,2.65-8.84,4.36-1.88-1.57-4.09-2.72-6.51-3.37-.01,0-.02,0-.03,0,0,0-.02,0-.02,0-.04-.01-.08-.02-.13-.03-2.41-.62-4.88-.71-7.26-.29,0-.58-.05-1.3-.26-2.11-.45-1.73-1.72-4.21-5.22-6.15-.63-.35-1.43-.12-1.78.51-.35.63-.12,1.43.51,1.78,1.52.84,2.49,1.78,3.11,2.69-1.57-1.05-3.76-1.92-6.75-1.98-.72-.01-1.32.56-1.33,1.29-.01.72.57,1.32,1.29,1.33,1.74.03,3.12.4,4.21.91-1.36-.03-2.85.25-4.33,1.1-.63.36-.84,1.16-.48,1.79.18.31.47.52.79.61s.68.05.99-.13c1.81-1.05,3.74-.8,5.12-.36-.49.22-.97.47-1.45.74-.63.36-.84,1.16-.48,1.79.18.32.47.53.8.61s.68.05.99-.13c.73-.42,1.48-.76,2.25-1.04-.11.24-.21.48-.28.74-.19.7.23,1.42.92,1.6s1.42-.23,1.6-.93c.2-.75.83-1.32,1.72-1.68-.35.58-.64,1.22-.83,1.92s.23,1.42.92,1.6,1.42-.23,1.6-.93c.28-1.05.9-1.92,1.6-2.39l-.99,3.69c-.19.7.23,1.42.92,1.6s1.42-.23,1.6-.93l.99-3.69c.37.76.47,1.82.19,2.87-.19.7.23,1.42.92,1.6s1.42-.23,1.6-.93.26-1.4.25-2.08c.58.76.84,1.57.64,2.32-.19.7.23,1.42.92,1.6s1.42-.23,1.6-.93c.07-.28.11-.56.13-.84.55.65,1.05,1.35,1.48,2.1.36.63,1.16.84,1.79.47.62-.36.84-1.16.47-1.79-.28-.48-.57-.94-.89-1.38,1.41.32,3.17,1.07,4.2,2.88.18.31.47.52.79.61s.68.05.99-.13c.63-.36.84-1.16.48-1.79-.85-1.48-2-2.46-3.19-3.12,1.2.11,2.58.48,4.1,1.32.63.35,1.43.12,1.78-.51.35-.63.12-1.43-.51-1.78Z"/><circle class="ag" cx="402.91" cy="80.99" r="1.84"/><circle class="ag" cx="411.79" cy="83.37" r="1.84"/><rect class="ah" x="310.07" y="61.4" width="39.19" height="39.19" transform="translate(-9.73 88.08) rotate(-15)"/><path class="z" d="m314.72,81.74c.11-.04.19-.13.21-.24,1.02-5.91,5.34-10.98,11.47-12.63s12.42.59,16.27,5.16c.07.09.19.13.3.1,2.05-.43,4.1.83,4.64,2.87.42,1.56-.16,3.14-1.33,4.1-.03.02-.05.04-.07.05,0,0-.01.01-.02.02-.08.07-.12.17-.1.28,1.43,8.09-3.47,16.03-11.46,18.17s-16.2-2.28-18.97-9.98c-.04-.1-.13-.18-.23-.2,0,0-.02,0-.02,0-.03,0-.05-.01-.09-.01-1.5-.25-2.78-1.32-3.2-2.89-.55-2.07.59-4.15,2.59-4.8Zm31.44-.5s0,0,0,0h0Z"/><path class="af" d="m330.74,61.91c.43.88.07,1.95-.81,2.38-.19.09-.36.19-.51.29,1.22-.41,2.67-.64,4.33-.43.74.09,1.33.63,1.5,1.32.56.03,1.04.07,1.43.12.33.04.6.08.79.11.09.02.17.03.22.04.03,0,.05,0,.07.01h.02s0,0,0,0h0s0,0,0,0c.96.2,1.59,1.14,1.39,2.1-.19.96-1.13,1.59-2.09,1.39h0s0,0,0,0c0,0-.02,0-.03,0-.03,0-.08-.01-.15-.03-.14-.02-.35-.05-.62-.08-.55-.06-1.35-.13-2.31-.12-1.13,0-2.45.11-3.86.4l.69.54c.77.61.91,1.73.3,2.5-.61.77-1.72.91-2.5.3l-1.74-1.36-1.98,3.43c-.49.85-1.58,1.14-2.43.65-.85-.49-1.14-1.58-.65-2.43l1.19-2.07c-1.8.43-3.17,1.1-4.16,1.73-.78.49-1.33.97-1.67,1.31-.17.17-.29.31-.37.39-.04.04-.06.07-.07.09,0,0,0,0,0,0-.58.78-1.69.95-2.48.37-.79-.58-.96-1.7-.38-2.49,0,0,0,0,0,0h0s0,0,0,0h0s.02-.03.02-.03c.01-.02.03-.04.05-.06.04-.05.09-.12.16-.19.13-.16.33-.37.58-.61.5-.49,1.24-1.13,2.25-1.78.6-.38,1.28-.76,2.06-1.11-.46-.21-.83-.63-.97-1.16-.25-.95.31-1.93,1.26-2.18,2.16-.58,3.99-.28,5.38.27.41-1.57,1.43-3.3,3.68-4.42.88-.43,1.95-.07,2.38.81Z"/><circle class="ag" cx="325.55" cy="83.37" r="1.84"/><circle class="ag" cx="334.42" cy="80.99" r="1.84"/><rect class="ah" x="336.67" y="37" width="64" height="64"/><path class="u" d="m345.07,66.4c-2.44,0-4.41,1.99-4.41,4.44s1.45,9.09,5.81,9.09c3.21,10.72,8.92,20.57,22.19,20.57,13.27,0,18.98-9.85,22.19-20.57,4.36,0,5.81-6.63,5.81-9.09s-1.97-4.44-4.41-4.44c16.18-19.8-21.47-38.36-36.87-23.55-13.43,0-17.89,15.9-10.32,23.55Z"/><path class="ab" d="m392.26,66.4c2.44,0,4.41,1.99,4.41,4.44s-1.45,9.09-5.81,9.09c-3.21,10.72-8.92,20.57-22.19,20.57-13.27,0-18.98-9.85-22.19-20.57-4.36,0-5.81-6.63-5.81-9.09s1.97-4.44,4.41-4.44c2.8-8.57,10.32-11.55,16.23-11.55,9.33,9.7,23.02-.05,30.96,11.55Z"/><circle class="ag" cx="361.17" cy="72" r="3"/><circle class="ag" cx="376.17" cy="72" r="3"/><rect class="ah" x="336.67" y="37" width="64" height="64"/><rect class="ah" x="168.33" y="37" width="64" height="64"/><path class="u" d="m176.74,66.4c-2.44,0-4.41,1.99-4.41,4.44s1.45,9.09,5.81,9.09c3.21,10.72,8.92,20.57,22.19,20.57,13.27,0,18.98-9.85,22.19-20.57,4.36,0,5.81-6.63,5.81-9.09s-1.97-4.44-4.41-4.44c16.18-19.8-21.47-38.36-36.87-23.55-13.43,0-17.89,15.9-10.32,23.55Z"/><path class="ad" d="m223.93,66.4c2.44,0,4.41,1.99,4.41,4.44s-1.45,9.09-5.81,9.09c-3.21,10.72-8.92,20.57-22.19,20.57-13.27,0-18.98-9.85-22.19-20.57-4.36,0-5.81-6.63-5.81-9.09s1.97-4.44,4.41-4.44c2.8-8.57,10.32-11.55,16.23-11.55,9.33,9.7,23.02-.05,30.96,11.55Z"/><circle class="ag" cx="192.83" cy="72" r="3"/><circle class="ag" cx="207.83" cy="72" r="3"/><path class="w" d="m55.99,66.21c16.18-20.04-21.47-37.58-36.87-22.59-13.43,0-17.89,14.84-10.32,22.59-2.44,0-4.41,1.9-4.41,4.25s1.45,9.85,5.81,9.85c3.21,10.25,8.92,19.69,22.19,19.69s18.98-9.45,22.19-19.69c4.3,0,5.81-7.55,5.81-9.85s-1.97-4.25-4.41-4.25Z"/><path class="ak" d="m28.19,75.26v-.52c.01-1.78.17-3.19.48-4.25.32-1.06.79-1.91,1.4-2.56.61-.65,1.35-1.24,2.21-1.77.64-.41,1.22-.83,1.73-1.26.51-.44.91-.92,1.22-1.45.3-.54.45-1.14.45-1.8,0-.7-.17-1.31-.51-1.84-.34-.53-.81-.93-1.39-1.22-.57-.28-1.21-.43-1.9-.43s-1.31.15-1.92.44c-.6.28-1.1.71-1.48,1.28-.38.56-.59,1.25-.62,2.09h-6.36c.05-2.03.55-3.7,1.5-5.02.95-1.33,2.2-2.32,3.76-2.97,1.56-.66,3.28-.99,5.16-.99,2.07,0,3.9.33,5.49,1,1.59.66,2.84,1.62,3.74,2.88.9,1.26,1.36,2.78,1.36,4.55,0,1.19-.2,2.24-.61,3.17-.39.91-.95,1.73-1.67,2.44-.72.7-1.56,1.33-2.54,1.9-.82.48-1.5.97-2.03,1.49-.52.52-.91,1.12-1.17,1.8-.25.68-.38,1.52-.39,2.51v.52h-5.91Zm3.09,9.74c-1.04,0-1.93-.35-2.67-1.07-.73-.72-1.09-1.58-1.08-2.59-.01-.99.35-1.85,1.08-2.56.74-.71,1.63-1.07,2.67-1.07s1.86.35,2.6,1.07c.75.71,1.13,1.56,1.14,2.56-.01.67-.19,1.28-.55,1.84-.34.55-.8.99-1.36,1.32-.56.32-1.17.49-1.84.49Z"/><rect class="ah" y="37" width="64" height="64"/><rect class="ah" x="556.4" y="61.4" width="39.19" height="39.19" transform="translate(40.59 -146.32) rotate(15)"/><path class="as" d="m573.65,99.78c-.89,0-1.75-.11-2.56-.33-5.99-1.6-10.7-9.44-10.97-18.23v-.37s-.18-.05-.18-.05v-.02s-.12-.04-.12-.04c-1.1-.95-1.56-2.49-1.17-3.93.46-1.7,1.96-2.89,3.65-2.89.24,0,.49.02.72.07l.3.06.19-.24c3.01-3.72,7.4-5.85,12.03-5.85,1.3,0,2.6.17,3.87.51,5.75,1.54,10.08,6.47,11.05,12.56l.05.3.29.1c1.86.61,2.91,2.64,2.38,4.63-.39,1.46-1.57,2.56-3.01,2.83h-.01l-.24-.07-.2.32c-3.87,6.26-10.47,10.63-16.05,10.63Z"/><path class="ag" d="m575.54,68.47c1.26,0,2.52.17,3.74.5,5.56,1.49,9.75,6.26,10.68,12.16l.1.6.58.19c1.61.53,2.51,2.3,2.05,4.02-.33,1.24-1.31,2.18-2.53,2.44l-.49-.13-.39.63c-3.78,6.12-10.21,10.4-15.63,10.4-.85,0-1.67-.1-2.44-.31-5.69-1.52-10.34-9.33-10.6-17.77l-.02-.74-.34-.09-.02-.04-.18-.05c-.88-.83-1.24-2.12-.92-3.33.4-1.49,1.7-2.52,3.16-2.52.21,0,.42.02.62.06l.6.13.38-.47c2.92-3.6,7.16-5.67,11.64-5.67m0-1c-4.81,0-9.37,2.27-12.42,6.04-.28-.06-.55-.09-.83-.09-1.88,0-3.61,1.31-4.13,3.27-.46,1.73.14,3.46,1.4,4.5.03,0,.02.04.05.04.26,8.51,4.89,16.97,11.34,18.7.87.23,1.77.34,2.69.34,5.91,0,12.6-4.58,16.48-10.87,0,0,0,0,0,0,.02,0,.03-.02.05-.02,0,0,0,0,0,0,1.6-.27,3-1.47,3.46-3.2.61-2.27-.59-4.54-2.7-5.23-.97-6.11-5.27-11.32-11.41-12.97-1.34-.36-2.68-.53-4-.53h0Z"/><path class="ag" d="m597.95,70.95c-2.59-1.44-4.91-1.78-6.78-1.67.98-.46,2.27-.77,3.98-.74.72.01,1.32-.56,1.33-1.29s-.56-1.32-1.29-1.33c-5.48-.09-7.88,2.65-8.84,4.36-1.88-1.57-4.09-2.72-6.51-3.37-.01,0-.02,0-.03,0,0,0-.02,0-.02,0-.04-.01-.08-.02-.13-.03-2.41-.62-4.88-.71-7.26-.29,0-.58-.05-1.3-.26-2.11-.45-1.73-1.72-4.21-5.22-6.15-.63-.35-1.43-.12-1.78.51-.35.63-.12,1.43.51,1.78,1.52.84,2.49,1.78,3.11,2.69-1.57-1.05-3.76-1.92-6.75-1.98-.72-.01-1.32.56-1.33,1.29-.01.72.57,1.32,1.29,1.33,1.74.03,3.12.4,4.21.91-1.36-.03-2.85.25-4.33,1.1-.63.36-.84,1.16-.48,1.79.18.31.47.52.79.61s.68.05.99-.13c1.81-1.05,3.74-.8,5.12-.36-.49.22-.97.47-1.45.74-.63.36-.84,1.16-.48,1.79.18.32.47.53.8.61s.68.05.99-.13c.73-.42,1.48-.76,2.25-1.04-.11.24-.21.48-.28.74-.19.7.23,1.42.92,1.6s1.42-.23,1.6-.93c.2-.75.83-1.32,1.72-1.68-.35.58-.64,1.22-.83,1.92s.23,1.42.92,1.6,1.42-.23,1.6-.93c.28-1.05.9-1.92,1.6-2.39l-.99,3.69c-.19.7.23,1.42.92,1.6s1.42-.23,1.6-.93l.99-3.69c.37.76.47,1.82.19,2.87-.19.7.23,1.42.92,1.6s1.42-.23,1.6-.93.26-1.4.25-2.08c.58.76.84,1.57.64,2.32-.19.7.23,1.42.92,1.6s1.42-.23,1.6-.93c.07-.28.11-.56.13-.84.55.65,1.05,1.35,1.48,2.1.36.63,1.16.84,1.79.47.62-.36.84-1.16.47-1.79-.28-.48-.57-.94-.89-1.38,1.41.32,3.17,1.07,4.2,2.88.18.31.47.52.79.61s.68.05.99-.13c.63-.36.84-1.16.48-1.79-.85-1.48-2-2.46-3.19-3.12,1.2.11,2.58.48,4.1,1.32.63.35,1.43.12,1.78-.51.35-.63.12-1.43-.51-1.78Z"/><circle class="ag" cx="571.25" cy="80.99" r="1.84"/><circle class="ag" cx="580.12" cy="83.37" r="1.84"/><rect class="ah" x="478.4" y="61.4" width="39.19" height="39.19" transform="translate(-4 131.65) rotate(-15)"/><path class="ac" d="m483.06,81.74c.11-.04.19-.13.21-.24,1.02-5.91,5.34-10.98,11.47-12.63s12.42.59,16.27,5.16c.07.09.19.13.3.1,2.05-.43,4.1.83,4.64,2.87.42,1.56-.16,3.14-1.33,4.1-.03.02-.05.04-.07.05,0,0-.01.01-.02.02-.08.07-.12.17-.1.28,1.43,8.09-3.47,16.03-11.46,18.17-7.99,2.14-16.2-2.28-18.97-9.98-.04-.1-.13-.18-.23-.2,0,0-.02,0-.02,0-.03,0-.05-.01-.09-.01-1.5-.25-2.78-1.32-3.2-2.89-.55-2.07.59-4.15,2.59-4.8Zm31.44-.5s0,0,0,0h0Z"/><path class="af" d="m499.07,61.91c.43.88.07,1.95-.81,2.38-.19.09-.36.19-.51.29,1.22-.41,2.67-.64,4.33-.43.74.09,1.33.63,1.5,1.32.56.03,1.04.07,1.43.12.33.04.6.08.79.11.09.02.17.03.22.04.03,0,.05,0,.07.01h.02s0,0,0,0h0s0,0,0,0c.96.2,1.59,1.14,1.39,2.1-.19.96-1.13,1.59-2.09,1.39h0s0,0,0,0c0,0-.02,0-.03,0-.03,0-.08-.01-.15-.03-.14-.02-.35-.05-.62-.08-.55-.06-1.35-.13-2.31-.12-1.13,0-2.45.11-3.86.4l.69.54c.77.61.91,1.73.3,2.5-.61.77-1.72.91-2.5.3l-1.74-1.36-1.98,3.43c-.49.85-1.58,1.14-2.43.65-.85-.49-1.14-1.58-.65-2.43l1.19-2.07c-1.8.43-3.17,1.1-4.16,1.73-.78.49-1.33.97-1.67,1.31-.17.17-.29.31-.37.39-.04.04-.06.07-.07.09,0,0,0,0,0,0-.58.78-1.69.95-2.48.37-.79-.58-.96-1.7-.38-2.49,0,0,0,0,0,0h0s0,0,0,0h0s.02-.03.02-.03c.01-.02.03-.04.05-.06.04-.05.09-.12.16-.19.13-.16.33-.37.58-.61.5-.49,1.24-1.13,2.25-1.78.6-.38,1.28-.76,2.06-1.11-.46-.21-.83-.63-.97-1.16-.25-.95.31-1.93,1.26-2.18,2.16-.58,3.99-.28,5.38.27.41-1.57,1.43-3.3,3.68-4.42.88-.43,1.95-.07,2.38.81Z"/><circle class="ag" cx="493.88" cy="83.37" r="1.84"/><circle class="ag" cx="502.75" cy="80.99" r="1.84"/><rect class="ah" x="505" y="37" width="64" height="64"/><path class="u" d="m513.41,66.4c-2.44,0-4.41,1.99-4.41,4.44s1.45,9.09,5.81,9.09c3.21,10.72,8.92,20.57,22.19,20.57,13.27,0,18.98-9.85,22.19-20.57,4.36,0,5.81-6.63,5.81-9.09s-1.97-4.44-4.41-4.44c16.18-19.8-21.47-38.36-36.87-23.55-13.43,0-17.89,15.9-10.32,23.55Z"/><path class="aa" d="m560.59,66.4c2.44,0,4.41,1.99,4.41,4.44s-1.45,9.09-5.81,9.09c-3.21,10.72-8.92,20.57-22.19,20.57-13.27,0-18.98-9.85-22.19-20.57-4.36,0-5.81-6.63-5.81-9.09s1.97-4.44,4.41-4.44c2.8-8.57,10.32-11.55,16.23-11.55,9.33,9.7,23.02-.05,30.96,11.55Z"/><circle class="ag" cx="529.5" cy="72" r="3"/><circle class="ag" cx="544.5" cy="72" r="3"/><rect class="ah" x="505" y="37" width="64" height="64"/><path class="ay" d="m594.67,26.67v.15s.11.08.11.08c4.06,2.73,6.15,7.83,4.82,12.82-1.68,6.28-8.14,10.01-14.42,8.33-1.19-.32-2.3-.82-3.29-1.45l-.16-.1-.14.13c-2.37,2.14-5.75,3.07-9.06,2.19-4.03-1.08-6.79-4.54-7.18-8.46l-.02-.24-.24.02c-.86.06-1.74,0-2.61-.24-4.15-1.11-6.6-5.37-5.49-9.51.78-2.92,3.11-4.98,5.88-5.58l.19-.04v-.2c.02-.93.14-1.88.39-2.82,1.68-6.29,8.14-10.01,14.42-8.33,2.92.78,5.28,2.6,6.8,4.95l.1.15.18-.05c1.28-.34,2.66-.37,4.02,0,3.71,1,6.07,4.52,5.72,8.22Zm-41.04,24.87c-.54.93-1.73,1.25-2.66.71-.93-.54-1.25-1.73-.71-2.66.54-.93,1.73-1.25,2.66-.71.93.54,1.25,1.73.71,2.66Zm9.97-2.75c-1.15,2-3.7,2.68-5.7,1.53-2-1.15-2.68-3.7-1.53-5.7,1.15-2,3.7-2.68,5.7-1.53,2,1.15,2.68,3.7,1.53,5.7Z"/><path class="ax" d="m570.62,36.79c.15.05.3-.03.35-.17.05-.15-.03-.3-.17-.35l-.18.53Zm-6.12-2.73c-.14-.05-.3.03-.35.17-.05.15.03.3.17.35l.18-.53Zm22.02.24l-.09.26c.1.04.22,0,.3-.07.08-.08.1-.2.05-.3l-.26.11Zm-4.7-10.97l.26-.11c-.03-.07-.09-.13-.16-.15-.07-.03-.15-.02-.22.02l.13.25Zm-10.52,5.64l-.13-.25c-.1.05-.15.16-.15.27,0,.11.08.2.19.24l.09-.26Zm2.08.73l.26.09c.05-.14-.03-.3-.17-.35l-.09.26Zm-2.43,6.92l-.26-.09c-.05.14.03.3.17.35l.09-.26Zm11.07,3.88l-.09.26c.15.05.3-.03.35-.17l-.26-.09Zm-7.37-8.48l.09-.26c-.15-.05-.3.03-.35.17l.26.09Zm2.63.92l.26.09c.05-.14-.03-.3-.17-.35l-.09.26Zm-1.84,5.25l-.09.26c.15.05.3-.03.35-.17l-.26-.09Zm-2.63-.92l-.26-.09c-.05.15.03.3.17.35l.09-.26Zm6.04-3.78l.09-.26-.26-.09-.09.26.26.09Zm3.15,1.1l.26.09.09-.26-.26-.09-.09.26Zm-1.1,3.15l-.09.26.26.09.09-.26-.26-.09Zm-3.15-1.1l-.26-.09-.09.26.26.09.09-.26Zm10.72,6.41c.15.05.3-.03.35-.17.05-.14-.03-.3-.17-.35l-.18.53Zm-6.12-2.73c-.14-.05-.3.03-.35.17-.05.15.03.3.17.35l.18-.53Zm-11.55-4.05l-6.3-2.21-.18.53,6.3,2.21.18-.53Zm13.56-2.43l2.08.73.18-.53-2.08-.73-.18.53Zm2.42.36l-4.7-10.97-.51.22,4.7,10.97.51-.22Zm-5.09-11.11l-10.52,5.64.26.49,10.52-5.64-.26-.49Zm-10.49,6.15l2.08.73.18-.53-2.08-.73-.18.53Zm1.91.37l-2.43,6.92.53.18,2.43-6.92-.53-.18Zm-2.26,7.28l11.07,3.88.18-.53-11.07-3.88-.18.53Zm11.43,3.71l2.43-6.92-.53-.18-2.43,6.92.53.18Zm-8.98-10.62l11.05,3.87.18-.53-11.05-3.87-.18.53Zm1.25,2.31l2.63.92.18-.53-2.63-.92-.18.53Zm2.45.57l-1.84,5.25.53.18,1.84-5.25-.53-.18Zm-1.49,5.08l-2.63-.92-.18.53,2.63.92.18-.53Zm-2.45-.57l1.84-5.25-.53-.18-1.84,5.25.53.18Zm5.69-3.61l3.15,1.1.18-.53-3.15-1.1-.18.53Zm2.98.75l-1.1,3.15.53.18,1.1-3.15-.53-.18Zm-.75,2.98l-3.15-1.1-.18.53,3.15,1.1.18-.53Zm-2.98-.75l1.1-3.15-.53-.18-1.1,3.15.53.18Zm10.65,5.79l-6.3-2.21-.18.53,6.3,2.21.18-.53Z"/><line class="v" x1="77" y1="69" x2="79" y2="69"/><line class="x" x1="82.89" y1="69" x2="151.05" y2="69"/><line class="v" x1="153" y1="69" x2="155" y2="69"/><circle class="ag" cx="73" cy="69" r="4"/><path class="av" d="m73,66c1.65,0,3,1.35,3,3s-1.35,3-3,3-3-1.35-3-3,1.35-3,3-3m0-1c-2.21,0-4,1.79-4,4s1.79,4,4,4,4-1.79,4-4-1.79-4-4-4h0Z"/><polygon class="ag" points="163 69 155 65 155 73 163 69"/><path class="aw" d="m156,66.62l4.76,2.38-4.76,2.38v-4.76m-1-1.62v8l8-4-8-4h0Z"/><line class="v" x1="245" y1="69" x2="247" y2="69"/><line class="ae" x1="251" y1="69" x2="297" y2="69"/><line class="v" x1="299" y1="69" x2="301" y2="69"/><circle class="ag" cx="241" cy="69" r="4"/><path class="at" d="m241,66c1.65,0,3,1.35,3,3s-1.35,3-3,3-3-1.35-3-3,1.35-3,3-3m0-1c-2.21,0-4,1.79-4,4s1.79,4,4,4,4-1.79,4-4-1.79-4-4-4h0Z"/><polygon class="ag" points="309 69 301 65 301 73 309 69"/><path class="au" d="m302,66.62l4.76,2.38-4.76,2.38v-4.76m-1-1.62v8l8-4-8-4h0Z"/><line class="v" x1="443" y1="69" x2="445" y2="69"/><line class="y" x1="449.6" y1="69" x2="465.7" y2="69"/><line class="v" x1="468" y1="69" x2="470" y2="69"/><circle class="ag" cx="439" cy="69" r="4"/><path class="ar" d="m439,66c1.65,0,3,1.35,3,3s-1.35,3-3,3-3-1.35-3-3,1.35-3,3-3m0-1c-2.21,0-4,1.79-4,4s1.79,4,4,4,4-1.79,4-4-1.79-4-4-4h0Z"/><polygon class="ag" points="478 69 470 65 470 73 478 69"/><path class="ao" d="m471,66.62l4.76,2.38-4.76,2.38v-4.76m-1-1.62v8l8-4-8-4h0Z"/></svg>