<?xml version="1.0" encoding="UTF-8"?><svg id="a" xmlns="http://www.w3.org/2000/svg" xmlns:xlink="http://www.w3.org/1999/xlink" viewBox="0 0 256 870.38"><defs><style>.u,.v,.w,.x,.y,.z,.aa,.ab,.ac{stroke-linecap:round;stroke-linejoin:round;}.u,.ad,.ae{fill:#0d0910;}.u,.y,.z,.aa,.ab,.ac{stroke:#0d0910;}.v,.w{stroke:#f6cd51;}.v,.w,.af{fill:none;}.w{stroke-dasharray:0 0 3.89 3.89;}.af,.ad,.ag,.ae,.ah,.ai,.aj,.ak,.al,.am,.an,.ao,.ap,.aq,.ar,.as,.at,.au,.av{stroke-width:0px;}.aw{stroke:url(#i);}.aw,.x,.ag{fill:#1b1320;}.x{stroke:#855fa0;stroke-width:2px;}.ad{fill-rule:evenodd;}.y{fill:url(#g);}.z{fill:url(#h);}.aa{fill:url(#b);}.ab{fill:url(#e);}.ac{fill:url(#d);}.ah{fill:#cebfd9;}.ai{fill:#855fa0;}.aj{fill:url(#c);}.ak{fill:url(#t);}.al{fill:url(#f);}.am{fill:url(#s);}.an{fill:url(#j);}.ao{fill:url(#q);}.ap{fill:url(#r);}.aq{fill:url(#m);}.ar{fill:url(#o);}.as{fill:url(#p);}.at{fill:url(#k);}.au{fill:url(#n);}.av{fill:url(#l);}</style><linearGradient id="b" x1="128" y1="282.78" x2="128" y2="351.25" gradientUnits="userSpaceOnUse"><stop offset="0" stop-color="#f6cd51"/><stop offset="1" stop-color="#f48e2a"/></linearGradient><linearGradient id="c" x1="165.08" y1="617.38" x2="165.08" y2="670.38" gradientTransform="translate(189.14 -84.63) rotate(15)" gradientUnits="userSpaceOnUse"><stop offset="0" stop-color="#f6cd51"/><stop offset="1" stop-color="#f48e2a"/></linearGradient><linearGradient id="d" x1="108.41" y1="485.87" x2="108.41" y2="537.87" gradientTransform="translate(-162.97 114.14) rotate(-15)" xlink:href="#b"/><linearGradient id="e" y1="538.78" y2="607.25" xlink:href="#b"/><linearGradient id="f" x1="231.34" y1="864.66" x2="231.34" y2="917.66" xlink:href="#c"/><linearGradient id="g" x1="42.15" y1="733.14" x2="42.15" y2="785.14" gradientTransform="translate(-162.97 114.14) rotate(-15)" xlink:href="#b"/><linearGradient id="h" y1="794.78" y2="863.25" xlink:href="#b"/><linearGradient id="i" x1="190.33" y1="124.5" x2="190.33" y2="64.5" gradientTransform="translate(0 865) scale(1 -1)" xlink:href="#c"/><linearGradient id="j" x1="214.21" y1="709.84" x2="208.85" y2="738.23" gradientTransform="translate(-149.58 97.7) rotate(-10.69)" xlink:href="#c"/><linearGradient id="k" y1="92" y2="100" xlink:href="#b"/><linearGradient id="l" x1="128" y1="240" x2="128" y2="248" xlink:href="#b"/><linearGradient id="m" y1="348" y2="356" xlink:href="#b"/><linearGradient id="n" x1="128" y1="496" x2="128" y2="504" xlink:href="#b"/><linearGradient id="o" y1="604" y2="612" xlink:href="#b"/><linearGradient id="p" x1="128" y1="752" x2="128" y2="760" xlink:href="#b"/><linearGradient id="q" x1="128" y1="126" x2="128" y2="154" gradientTransform="matrix(1,0,0,1,0,0)" xlink:href="#c"/><linearGradient id="r" x1="98" y1="382" x2="98" y2="410" gradientTransform="matrix(1,0,0,1,0,0)" xlink:href="#c"/><linearGradient id="s" x1="164" y1="382" x2="164" y2="410" gradientTransform="matrix(1,0,0,1,0,0)" xlink:href="#c"/><linearGradient id="t" x1="128" y1="638" x2="128" y2="666" gradientTransform="matrix(1,0,0,1,0,0)" xlink:href="#c"/></defs><rect class="af" x="80" y="256" width="96" height="96"/><path class="u" d="m92.61,300.11c-3.66,0-6.61,2.98-6.61,6.66s2.18,13.63,8.71,13.63c4.82,16.07,13.38,30.85,33.29,30.85,19.91,0,28.47-14.78,33.29-30.85,6.53,0,8.71-9.94,8.71-13.63s-2.96-6.66-6.61-6.66c24.27-29.69-32.2-57.54-55.3-35.33-20.14,0-26.83,23.85-15.48,35.33Z"/><path class="aa" d="m163.39,300.11c3.66,0,6.61,2.98,6.61,6.66s-2.18,13.63-8.71,13.63c-4.82,16.07-13.38,30.85-33.29,30.85-19.91,0-28.47-14.78-33.29-30.85-6.53,0-8.71-9.94-8.71-13.63s2.96-6.66,6.61-6.66c4.2-12.86,15.48-17.33,24.34-17.33,14,14.56,34.53-.08,46.43,17.33Z"/><circle class="ae" cx="116.75" cy="308.5" r="4.5"/><circle class="ae" cx="139.25" cy="308.5" r="4.5"/><rect class="af" x="151.19" y="543.19" width="64" height="64" transform="translate(155.11 -27.81) rotate(15)"/><path class="aj" d="m179.36,606.18c-1.48,0-2.92-.18-4.27-.55-9.9-2.65-17.71-15.58-18.15-30.07v-.38s-.25-.06-.25-.06c-.02-.01-.04-.03-.05-.04-1.93-1.63-2.75-4.29-2.08-6.8.78-2.92,3.36-4.96,6.26-4.96.42,0,.84.04,1.25.13l.3.06.19-.24c4.98-6.15,12.23-9.67,19.89-9.67,2.15,0,4.31.29,6.41.85,9.5,2.55,16.68,10.7,18.27,20.77l.05.3.29.09c3.2,1.05,5,4.54,4.09,7.94-.67,2.5-2.71,4.4-5.2,4.85h-.12l-.19-.05-.19.31c-6.37,10.31-17.26,17.51-26.49,17.51Z"/><path class="ae" d="m182.44,554.1c2.11,0,4.22.28,6.28.83,9.31,2.5,16.34,10.49,17.9,20.36l.1.6.58.19c2.95.97,4.6,4.19,3.76,7.33-.62,2.3-2.48,4.05-4.76,4.48l-.49-.13-.39.63c-6.28,10.17-17,17.28-26.06,17.28-1.44,0-2.83-.18-4.14-.53-9.54-2.56-17.35-15.56-17.78-29.61l-.02-.74-.49-.13c-1.76-1.51-2.5-3.95-1.88-6.25.72-2.7,3.1-4.59,5.78-4.59.38,0,.77.04,1.15.12l.6.12.38-.47c4.88-6.03,11.99-9.49,19.51-9.49m0-1c-7.86,0-15.3,3.7-20.28,9.86-.45-.09-.9-.14-1.35-.14-3.07,0-5.89,2.14-6.74,5.33-.76,2.82.24,5.65,2.28,7.35.05.01.03.06.08.07.43,13.9,7.98,27.72,18.52,30.54,1.42.38,2.9.56,4.4.56,9.66,0,20.57-7.48,26.91-17.75,0,0,.01,0,.02,0,.03,0,.05-.03.08-.03,0,0,0,0,.01,0,2.62-.45,4.89-2.4,5.65-5.22.99-3.7-.97-7.41-4.41-8.54-1.58-9.97-8.6-18.49-18.63-21.17-2.18-.58-4.37-.86-6.53-.86h0Z"/><path class="ae" d="m219.04,558.78c-4.23-2.35-8.01-2.91-11.08-2.72,1.6-.75,3.71-1.26,6.49-1.21,1.18.02,2.15-.92,2.17-2.1s-.92-2.16-2.1-2.17c-8.95-.15-12.87,4.32-14.44,7.11-3.07-2.56-6.67-4.44-10.64-5.5-.02,0-.04,0-.06-.01-.01,0-.02,0-.04-.01-.07-.02-.14-.03-.21-.05-3.94-1.01-7.96-1.16-11.85-.48.01-.95-.08-2.13-.42-3.44-.73-2.83-2.81-6.87-8.52-10.04-1.03-.57-2.33-.2-2.9.83-.57,1.03-.2,2.33.83,2.91,2.48,1.37,4.07,2.91,5.07,4.39-2.56-1.72-6.14-3.14-11.02-3.23-1.18-.02-2.15.92-2.17,2.1-.02,1.18.92,2.15,2.1,2.17,2.83.05,5.09.65,6.88,1.48-2.22-.04-4.66.41-7.06,1.8-1.02.59-1.37,1.9-.78,2.92.29.51.77.85,1.3.99s1.11.08,1.62-.22c2.95-1.71,6.1-1.31,8.37-.6-.8.36-1.59.77-2.36,1.21-1.02.59-1.38,1.89-.79,2.92.29.51.77.86,1.3,1s1.11.08,1.62-.21c1.19-.68,2.42-1.24,3.68-1.71-.18.39-.34.79-.45,1.21-.31,1.14.37,2.31,1.51,2.62s2.31-.37,2.62-1.51c.33-1.22,1.36-2.16,2.8-2.75-.57.94-1.04,1.99-1.35,3.14s.37,2.31,1.51,2.62,2.31-.37,2.62-1.51c.46-1.71,1.47-3.14,2.61-3.91l-1.61,6.02c-.31,1.14.37,2.31,1.51,2.62s2.31-.37,2.62-1.51l1.61-6.03c.6,1.24.76,2.98.3,4.69-.31,1.14.37,2.31,1.51,2.62s2.31-.37,2.62-1.51.43-2.29.4-3.39c.95,1.24,1.38,2.57,1.05,3.78-.31,1.14.37,2.31,1.51,2.62s2.31-.37,2.62-1.51c.12-.45.18-.91.22-1.37.9,1.06,1.71,2.2,2.42,3.43.59,1.02,1.9,1.37,2.92.77,1.02-.59,1.37-1.9.78-2.92-.45-.78-.94-1.53-1.45-2.25,2.3.52,5.17,1.75,6.87,4.7.29.51.77.86,1.3,1s1.11.08,1.62-.21c1.02-.59,1.37-1.9.78-2.92-1.39-2.41-3.27-4.02-5.21-5.09,1.96.17,4.22.78,6.69,2.15,1.03.57,2.33.2,2.9-.83.57-1.03.2-2.33-.83-2.91Z"/><circle class="ae" cx="175.43" cy="575.18" r="3"/><circle class="ae" cx="189.92" cy="579.06" r="3"/><rect class="af" x="40.81" y="543.19" width="64" height="64" transform="translate(-146.39 38.44) rotate(-15)"/><path class="ac" d="m48.4,576.41c.18-.06.31-.21.34-.39,1.66-9.65,8.72-17.93,18.74-20.62s20.28.96,26.57,8.43c.12.14.31.21.49.17,3.35-.71,6.69,1.35,7.58,4.68.68,2.55-.25,5.13-2.17,6.7-.04.03-.08.06-.11.09,0,.01-.02.02-.03.03-.13.11-.19.29-.16.46,2.34,13.21-5.67,26.17-18.71,29.67-13.04,3.49-26.46-3.73-30.98-16.3-.06-.17-.21-.29-.37-.32-.01,0-.02,0-.04-.01-.04-.01-.09-.02-.14-.02-2.45-.4-4.55-2.16-5.23-4.72-.9-3.38.97-6.78,4.23-7.84Zm51.34-.82s0,0,0,0h0Z"/><path class="ad" d="m74.56,544.02c.71,1.44.12,3.18-1.32,3.89-.31.15-.58.31-.83.48,1.99-.67,4.36-1.04,7.06-.7,1.22.15,2.16,1.03,2.46,2.15.91.04,1.7.12,2.34.19.54.06.98.13,1.29.18.15.03.28.05.36.06.04,0,.08.01.11.02h.03s.01,0,.01,0h0s0,0,0,0c1.57.32,2.59,1.85,2.27,3.43-.32,1.57-1.85,2.59-3.42,2.27h0s0,0,0,0c0,0-.03,0-.05,0-.05,0-.13-.02-.24-.04-.23-.04-.57-.09-1.02-.14-.9-.1-2.2-.21-3.77-.2-1.84,0-4.01.17-6.3.65l1.13.88c1.26.99,1.49,2.82.5,4.08-.99,1.27-2.81,1.49-4.08.5l-2.84-2.23-3.23,5.6c-.8,1.39-2.58,1.87-3.97,1.07-1.39-.8-1.87-2.58-1.07-3.97l1.95-3.38c-2.94.71-5.17,1.8-6.79,2.83-1.27.81-2.17,1.59-2.73,2.14-.28.28-.48.5-.6.64-.06.07-.1.12-.12.14,0,0,0,.01-.01.01-.95,1.28-2.76,1.55-4.05.6-1.29-.95-1.57-2.77-.63-4.07,0,0,0,0,0,0h0s0,0,0,0h.01s.03-.05.03-.05c.02-.03.05-.06.08-.1.06-.08.15-.19.26-.32.22-.26.53-.6.94-1,.82-.81,2.03-1.85,3.68-2.9.97-.62,2.09-1.24,3.37-1.82-.76-.35-1.36-1.02-1.59-1.89-.42-1.55.5-3.15,2.05-3.56,3.52-.94,6.52-.45,8.79.45.66-2.56,2.34-5.4,6.01-7.21,1.44-.71,3.18-.12,3.89,1.33Z"/><circle class="ae" cx="66.08" cy="579.06" r="3"/><circle class="ae" cx="80.57" cy="575.18" r="3"/><rect class="af" x="80" y="512" width="96" height="96"/><path class="u" d="m92.61,556.11c-3.66,0-6.61,2.98-6.61,6.66s2.18,13.63,8.71,13.63c4.82,16.07,13.38,30.85,33.29,30.85,19.91,0,28.47-14.78,33.29-30.85,6.53,0,8.71-9.94,8.71-13.63s-2.96-6.66-6.61-6.66c24.27-29.69-32.2-57.54-55.3-35.33-20.14,0-26.83,23.85-15.48,35.33Z"/><path class="ab" d="m163.39,556.11c3.66,0,6.61,2.98,6.61,6.66s-2.18,13.63-8.71,13.63c-4.82,16.07-13.38,30.85-33.29,30.85-19.91,0-28.47-14.78-33.29-30.85-6.53,0-8.71-9.94-8.71-13.63s2.96-6.66,6.61-6.66c4.2-12.86,15.48-17.33,24.34-17.33,14,14.56,34.53-.08,46.43,17.33Z"/><circle class="ae" cx="116.75" cy="564.5" r="4.5"/><circle class="ae" cx="139.25" cy="564.5" r="4.5"/><rect class="af" x="151.19" y="799.19" width="64" height="64" transform="translate(221.37 -19.09) rotate(15)"/><path class="al" d="m179.36,862.18c-1.48,0-2.92-.18-4.27-.55-9.9-2.65-17.71-15.58-18.15-30.07v-.38s-.25-.06-.25-.06c-.02-.01-.04-.03-.05-.04-1.93-1.63-2.75-4.29-2.08-6.8.78-2.92,3.36-4.96,6.26-4.96.42,0,.84.04,1.25.13l.3.06.19-.24c4.98-6.15,12.23-9.67,19.89-9.67,2.15,0,4.31.29,6.41.85,9.5,2.55,16.68,10.7,18.27,20.77l.05.3.29.09c3.2,1.05,5,4.54,4.09,7.94-.67,2.5-2.71,4.4-5.2,4.85h-.12l-.19-.05-.19.31c-6.37,10.31-17.26,17.51-26.49,17.51Z"/><path class="ae" d="m182.44,810.1c2.11,0,4.22.28,6.28.83,9.31,2.5,16.34,10.49,17.9,20.36l.1.6.58.19c2.95.97,4.6,4.19,3.76,7.33-.62,2.3-2.48,4.05-4.76,4.48l-.49-.13-.39.63c-6.28,10.17-17,17.28-26.06,17.28-1.44,0-2.83-.18-4.14-.53-9.54-2.56-17.35-15.56-17.78-29.61l-.02-.74-.49-.13c-1.76-1.51-2.5-3.95-1.88-6.25.72-2.7,3.1-4.59,5.78-4.59.38,0,.77.04,1.15.12l.6.12.38-.47c4.88-6.03,11.99-9.49,19.51-9.49m0-1c-7.86,0-15.3,3.7-20.28,9.86-.45-.09-.9-.14-1.35-.14-3.07,0-5.89,2.14-6.74,5.33-.76,2.82.24,5.65,2.28,7.35.05.01.03.06.08.07.43,13.9,7.98,27.72,18.52,30.54,1.42.38,2.9.56,4.4.56,9.66,0,20.57-7.48,26.91-17.75,0,0,.01,0,.02,0,.03,0,.05-.03.08-.03,0,0,0,0,.01,0,2.62-.45,4.89-2.4,5.65-5.22.99-3.7-.97-7.41-4.41-8.54-1.58-9.97-8.6-18.49-18.63-21.17-2.18-.58-4.37-.86-6.53-.86h0Z"/><path class="ae" d="m219.04,814.78c-4.23-2.35-8.01-2.91-11.08-2.72,1.6-.75,3.71-1.26,6.49-1.21,1.18.02,2.15-.92,2.17-2.1s-.92-2.16-2.1-2.17c-8.95-.15-12.87,4.32-14.44,7.11-3.07-2.56-6.67-4.44-10.64-5.5-.02,0-.04,0-.06-.01-.01,0-.02,0-.04-.01-.07-.02-.14-.03-.21-.05-3.94-1.01-7.96-1.16-11.85-.48.01-.95-.08-2.13-.42-3.44-.73-2.83-2.81-6.87-8.52-10.04-1.03-.57-2.33-.2-2.9.83-.57,1.03-.2,2.33.83,2.91,2.48,1.37,4.07,2.91,5.07,4.39-2.56-1.72-6.14-3.14-11.02-3.23-1.18-.02-2.15.92-2.17,2.1-.02,1.18.92,2.15,2.1,2.17,2.83.05,5.09.65,6.88,1.48-2.22-.04-4.66.41-7.06,1.8-1.02.59-1.37,1.9-.78,2.92.29.51.77.85,1.3.99s1.11.08,1.62-.22c2.95-1.71,6.1-1.31,8.37-.6-.8.36-1.59.77-2.36,1.21-1.02.59-1.38,1.89-.79,2.92.29.51.77.86,1.3,1s1.11.08,1.62-.21c1.19-.68,2.42-1.24,3.68-1.71-.18.39-.34.79-.45,1.21-.31,1.14.37,2.31,1.51,2.62s2.31-.37,2.62-1.51c.33-1.22,1.36-2.16,2.8-2.75-.57.94-1.04,1.99-1.35,3.14s.37,2.31,1.51,2.62,2.31-.37,2.62-1.51c.46-1.71,1.47-3.14,2.61-3.91l-1.61,6.02c-.31,1.14.37,2.31,1.51,2.62s2.31-.37,2.62-1.51l1.61-6.03c.6,1.24.76,2.98.3,4.69-.31,1.14.37,2.31,1.51,2.62s2.31-.37,2.62-1.51.43-2.29.4-3.39c.95,1.24,1.38,2.57,1.05,3.78-.31,1.14.37,2.31,1.51,2.62s2.31-.37,2.62-1.51c.12-.45.18-.91.22-1.37.9,1.06,1.71,2.2,2.42,3.43.59,1.02,1.9,1.37,2.92.77,1.02-.59,1.37-1.9.78-2.92-.45-.78-.94-1.53-1.45-2.25,2.3.52,5.17,1.75,6.87,4.7.29.51.77.86,1.3,1s1.11.08,1.62-.21c1.02-.59,1.37-1.9.78-2.92-1.39-2.41-3.27-4.02-5.21-5.09,1.96.17,4.22.78,6.69,2.15,1.03.57,2.33.2,2.9-.83.57-1.03.2-2.33-.83-2.91Z"/><circle class="ae" cx="175.43" cy="831.18" r="3"/><circle class="ae" cx="189.92" cy="835.06" r="3"/><rect class="af" x="40.81" y="799.19" width="64" height="64" transform="translate(-212.65 47.17) rotate(-15)"/><path class="y" d="m48.4,832.41c.18-.06.31-.21.34-.39,1.66-9.65,8.72-17.93,18.74-20.62s20.28.96,26.57,8.43c.12.14.31.21.49.17,3.35-.71,6.69,1.35,7.58,4.68.68,2.55-.25,5.13-2.17,6.7-.04.03-.08.06-.11.09,0,.01-.02.02-.03.03-.13.11-.19.29-.16.46,2.34,13.21-5.67,26.17-18.71,29.67-13.04,3.49-26.46-3.73-30.98-16.3-.06-.17-.21-.29-.37-.32-.01,0-.02,0-.04-.01-.04-.01-.09-.02-.14-.02-2.45-.4-4.55-2.16-5.23-4.72-.9-3.38.97-6.78,4.23-7.84Zm51.34-.82s0,0,0,0h0Z"/><path class="ad" d="m74.56,800.02c.71,1.44.12,3.18-1.32,3.89-.31.15-.58.31-.83.48,1.99-.67,4.36-1.04,7.06-.7,1.22.15,2.16,1.03,2.46,2.15.91.04,1.7.12,2.34.19.54.06.98.13,1.29.18.15.03.28.05.36.06.04,0,.08.01.11.02h.03s.01,0,.01,0h0s0,0,0,0c1.57.32,2.59,1.85,2.27,3.43-.32,1.57-1.85,2.59-3.42,2.27h0s0,0,0,0c0,0-.03,0-.05,0-.05,0-.13-.02-.24-.04-.23-.04-.57-.09-1.02-.14-.9-.1-2.2-.21-3.77-.2-1.84,0-4.01.17-6.3.65l1.13.88c1.26.99,1.49,2.82.5,4.08-.99,1.27-2.81,1.49-4.08.5l-2.84-2.23-3.23,5.6c-.8,1.39-2.58,1.87-3.97,1.07-1.39-.8-1.87-2.58-1.07-3.97l1.95-3.38c-2.94.71-5.17,1.8-6.79,2.83-1.27.81-2.17,1.59-2.73,2.14-.28.28-.48.5-.6.64-.06.07-.1.12-.12.14,0,0,0,.01-.01.01-.95,1.28-2.76,1.55-4.05.6-1.29-.95-1.57-2.77-.63-4.07,0,0,0,0,0,0h0s0,0,0,0h.01s.03-.05.03-.05c.02-.03.05-.06.08-.1.06-.08.15-.19.26-.32.22-.26.53-.6.94-1,.82-.81,2.03-1.85,3.68-2.9.97-.62,2.09-1.24,3.37-1.82-.76-.35-1.36-1.02-1.59-1.89-.42-1.55.5-3.15,2.05-3.56,3.52-.94,6.52-.45,8.79.45.66-2.56,2.34-5.4,6.01-7.21,1.44-.71,3.18-.12,3.89,1.33Z"/><circle class="ae" cx="66.08" cy="835.06" r="3"/><circle class="ae" cx="80.57" cy="831.18" r="3"/><rect class="af" x="80" y="768" width="96" height="96"/><path class="u" d="m92.61,812.11c-3.66,0-6.61,2.98-6.61,6.66s2.18,13.63,8.71,13.63c4.82,16.07,13.38,30.85,33.29,30.85,19.91,0,28.47-14.78,33.29-30.85,6.53,0,8.71-9.94,8.71-13.63s-2.96-6.66-6.61-6.66c24.27-29.69-32.2-57.54-55.3-35.33-20.14,0-26.83,23.85-15.48,35.33Z"/><path class="z" d="m163.39,812.11c3.66,0,6.61,2.98,6.61,6.66s-2.18,13.63-8.71,13.63c-4.82,16.07-13.38,30.85-33.29,30.85-19.91,0-28.47-14.78-33.29-30.85-6.53,0-8.71-9.94-8.71-13.63s2.96-6.66,6.61-6.66c4.2-12.86,15.48-17.33,24.34-17.33,14,14.56,34.53-.08,46.43,17.33Z"/><circle class="ae" cx="116.75" cy="820.5" r="4.5"/><circle class="ae" cx="139.25" cy="820.5" r="4.5"/><path class="aw" d="m219.7,761.41l-.02.22.18.12c6.07,4.08,9.19,11.69,7.19,19.14-2.51,9.38-12.15,14.95-21.54,12.43-1.78-.48-3.43-1.22-4.91-2.17l-.24-.15-.21.19c-3.54,3.19-8.59,4.59-13.53,3.26-6.02-1.61-10.13-6.78-10.72-12.63l-.04-.36-.36.03c-1.29.09-2.6,0-3.9-.35-6.19-1.66-9.86-8.01-8.2-14.2,1.17-4.35,4.65-7.44,8.78-8.33l.29-.06v-.3c.03-1.39.21-2.81.59-4.21,2.51-9.38,12.15-14.95,21.53-12.43,4.36,1.17,7.88,3.88,10.15,7.39l.15.23.26-.07c1.91-.51,3.96-.56,6.01-.01,5.54,1.49,9.06,6.75,8.54,12.27Zm-61.27,37.14c-.8,1.39-2.58,1.87-3.97,1.06-1.39-.8-1.87-2.58-1.06-3.97.8-1.39,2.58-1.87,3.97-1.06,1.39.8,1.87,2.58,1.06,3.97Zm14.89-4.11c-1.72,2.98-5.53,4-8.51,2.28-2.98-1.72-4-5.53-2.28-8.51,1.72-2.98,5.53-4,8.51-2.28,2.98,1.72,4,5.53,2.28,8.51Z"/><path class="an" d="m183.79,775.52c.22.08.45-.04.53-.25.08-.22-.04-.45-.25-.53l-.27.78Zm-9.13-4.08c-.22-.08-.45.04-.53.25-.08.22.04.45.25.53l.27-.78Zm32.88.36l-.14.39c.16.05.33.01.44-.11.11-.12.14-.3.08-.45l-.38.16Zm-7.02-16.39l.38-.16c-.05-.11-.13-.19-.24-.23-.11-.04-.23-.03-.33.03l.2.37Zm-15.71,8.42l-.2-.37c-.15.08-.23.23-.22.4.01.16.12.31.28.36l.14-.39Zm3.1,1.09l.39.14c.08-.22-.04-.45-.25-.53l-.14.39Zm-3.62,10.33l-.39-.14c-.08.22.04.45.25.53l.14-.39Zm16.53,5.79l-.14.39c.22.08.45-.04.53-.25l-.39-.14Zm-11.01-12.66l.14-.39c-.22-.08-.45.04-.53.25l.39.14Zm3.92,1.37l.39.14c.08-.22-.04-.45-.25-.53l-.14.39Zm-2.75,7.84l-.14.39c.22.08.45-.04.53-.25l-.39-.14Zm-3.92-1.37l-.39-.14c-.08.22.04.45.25.53l.14-.39Zm9.02-5.64l.14-.39-.39-.14-.14.39.39.14Zm4.7,1.65l.39.14.14-.39-.39-.14-.14.39Zm-1.65,4.7l-.14.39.39.14.14-.39-.39-.14Zm-4.7-1.65l-.39-.14-.14.39.39.14.14-.39Zm16.01,9.57c.22.08.45-.04.53-.25.08-.22-.04-.45-.25-.53l-.27.78Zm-9.13-4.08c-.22-.08-.45.04-.53.25-.08.22.04.45.25.53l.27-.78Zm-17.25-6.04l-9.41-3.3-.27.78,9.41,3.3.27-.78Zm20.24-3.63l3.1,1.09.27-.78-3.1-1.09-.27.78Zm3.62.53l-7.02-16.39-.76.33,7.02,16.39.76-.33Zm-7.6-16.59l-15.71,8.42.39.73,15.71-8.42-.39-.73Zm-15.65,9.18l3.1,1.09.27-.78-3.1-1.09-.27.78Zm2.85.56l-3.62,10.33.78.27,3.62-10.33-.78-.27Zm-3.37,10.86l16.53,5.79.27-.78-16.53-5.79-.27.78Zm17.06,5.54l3.62-10.33-.78-.27-3.62,10.33.78.27Zm-13.41-15.86l16.5,5.78.27-.78-16.5-5.78-.27.78Zm1.87,3.46l3.92,1.37.27-.78-3.92-1.37-.27.78Zm3.67.84l-2.75,7.84.78.27,2.75-7.84-.78-.27Zm-2.22,7.59l-3.92-1.37-.27.78,3.92,1.37.27-.78Zm-3.67-.84l2.75-7.84-.78-.27-2.75,7.84.78.27Zm8.49-5.39l4.7,1.65.27-.78-4.7-1.65-.27.78Zm4.45,1.12l-1.65,4.7.78.27,1.65-4.7-.78-.27Zm-1.12,4.45l-4.7-1.65-.27.78,4.7,1.65.27-.78Zm-4.45-1.12l1.65-4.7-.78-.27-1.65,4.7.78.27Zm15.89,8.65l-9.41-3.3-.27.78,9.41,3.3.27-.78Z"/><path class="x" d="m163.99,43.82c24.27-30.06-32.2-56.38-55.3-33.89-20.14,0-26.83,22.27-15.48,33.89-3.66,0-6.61,2.85-6.61,6.37s2.18,14.77,8.71,14.77c4.82,15.37,13.38,29.54,33.29,29.54s28.47-14.17,33.29-29.54c6.46,0,8.71-11.32,8.71-14.77s-2.96-6.37-6.61-6.37Z"/><path class="ai" d="m122.28,57.39v-.78c.02-2.66.26-4.79.72-6.37.48-1.58,1.18-2.86,2.1-3.84.92-.97,2.03-1.86,3.32-2.65.97-.61,1.83-1.24,2.6-1.9.76-.66,1.37-1.38,1.82-2.17.45-.81.68-1.7.68-2.69,0-1.05-.26-1.97-.77-2.76-.51-.79-1.21-1.4-2.08-1.83-.86-.43-1.81-.64-2.85-.64s-1.97.22-2.88.66c-.9.43-1.64,1.07-2.22,1.92-.58.84-.89,1.88-.94,3.13h-9.54c.08-3.04.83-5.56,2.24-7.54,1.42-1.99,3.3-3.48,5.64-4.45,2.34-.99,4.92-1.48,7.74-1.48,3.1,0,5.85.5,8.23,1.51,2.39.99,4.26,2.43,5.61,4.32,1.36,1.89,2.03,4.16,2.03,6.83,0,1.78-.3,3.36-.91,4.75-.59,1.37-1.43,2.59-2.5,3.65-1.08,1.05-2.35,2-3.81,2.85-1.23.72-2.24,1.46-3.04,2.24-.78.78-1.36,1.67-1.75,2.69-.37,1.02-.57,2.28-.58,3.77v.78h-8.86Zm4.63,14.61c-1.56,0-2.89-.53-4-1.6-1.09-1.08-1.63-2.38-1.61-3.88-.02-1.49.52-2.77,1.61-3.84,1.11-1.07,2.44-1.6,4-1.6s2.78.53,3.91,1.6c1.12,1.07,1.69,2.34,1.71,3.84-.02,1-.29,1.93-.82,2.76-.51.82-1.19,1.48-2.03,1.99-.84.49-1.76.73-2.76.73Z"/><rect class="af" x="80" width="96" height="96"/><line class="v" x1="128" y1="100" x2="128" y2="102"/><line class="w" x1="128" y1="105.89" x2="128" y2="236.06"/><line class="v" x1="128" y1="238" x2="128" y2="240"/><circle class="ae" cx="128" cy="96" r="4"/><path class="at" d="m128,93c1.65,0,3,1.35,3,3s-1.35,3-3,3-3-1.35-3-3,1.35-3,3-3m0-1c-2.21,0-4,1.79-4,4s1.79,4,4,4,4-1.79,4-4-1.79-4-4-4h0Z"/><polygon class="ae" points="128 248 132 240 124 240 128 248"/><path class="av" d="m130.38,241l-2.38,4.76-2.38-4.76h4.76m1.62-1h0,0Zm0,0h-8l4,8,4-8h0Z"/><line class="v" x1="128" y1="356" x2="128" y2="358"/><line class="w" x1="128" y1="361.89" x2="128" y2="492.06"/><line class="v" x1="128" y1="494" x2="128" y2="496"/><circle class="ae" cx="128" cy="352" r="4"/><path class="aq" d="m128,349c1.65,0,3,1.35,3,3s-1.35,3-3,3-3-1.35-3-3,1.35-3,3-3m0-1c-2.21,0-4,1.79-4,4s1.79,4,4,4,4-1.79,4-4-1.79-4-4-4h0Z"/><polygon class="ae" points="128 504 132 496 124 496 128 504"/><path class="au" d="m130.38,497l-2.38,4.76-2.38-4.76h4.76m1.62-1h0,0Zm0,0h-8l4,8,4-8h0Z"/><line class="v" x1="128" y1="612" x2="128" y2="614"/><line class="w" x1="128" y1="617.89" x2="128" y2="748.06"/><line class="v" x1="128" y1="750" x2="128" y2="752"/><circle class="ae" cx="128" cy="608" r="4"/><path class="ar" d="m128,605c1.65,0,3,1.35,3,3s-1.35,3-3,3-3-1.35-3-3,1.35-3,3-3m0-1c-2.21,0-4,1.79-4,4s1.79,4,4,4,4-1.79,4-4-1.79-4-4-4h0Z"/><polygon class="ae" points="128 760 132 752 124 752 128 760"/><path class="as" d="m130.38,753l-2.38,4.76-2.38-4.76h4.76m1.62-1h0,0Zm0,0h-8l4,8,4-8h0Z"/><rect class="ag" x="52" y="126" width="152" height="28" rx="4" ry="4"/><path class="ao" d="m200,127c1.65,0,3,1.35,3,3v20c0,1.65-1.35,3-3,3H56c-1.65,0-3-1.35-3-3v-20c0-1.65,1.35-3,3-3h144m0-1H56c-2.21,0-4,1.79-4,4v20c0,2.21,1.79,4,4,4h144c2.21,0,4-1.79,4-4v-20c0-2.21-1.79-4-4-4h0Z"/><path class="ah" d="m67.62,141.8h2.49c-.01.46-.11.87-.31,1.22-.21.36-.51.65-.91.85-.39.2-.87.29-1.43.29-.61,0-1.15-.15-1.6-.44-.45-.3-.8-.73-1.05-1.3-.25-.57-.37-1.26-.37-2.07s.12-1.5.37-2.06c.25-.57.6-.99,1.05-1.29.45-.3.97-.44,1.57-.44.32,0,.61.04.87.12.27.08.5.2.7.35.21.15.38.33.53.54.14.21.26.46.34.73h2.5c-.08-.58-.26-1.1-.54-1.58-.28-.48-.64-.9-1.09-1.24-.44-.35-.94-.62-1.51-.81-.57-.19-1.18-.29-1.84-.29-.77,0-1.48.13-2.14.4-.66.27-1.24.66-1.73,1.18-.5.52-.88,1.14-1.16,1.89-.27.74-.41,1.58-.41,2.52,0,1.23.23,2.29.69,3.18.46.89,1.11,1.58,1.93,2.06.83.48,1.78.72,2.87.72.98,0,1.84-.2,2.6-.59.76-.4,1.35-.96,1.78-1.69.43-.73.65-1.61.65-2.64v-1.47h-4.87v1.85Z"/><path class="ah" d="m115.2,138.43c-.37-.37-.81-.64-1.31-.82-.5-.19-1.03-.28-1.61-.28-.86,0-1.6.19-2.24.57-.63.38-1.12.91-1.47,1.59-.35.68-.52,1.47-.52,2.36s.17,1.72.52,2.39c.35.67.84,1.19,1.49,1.56.65.36,1.42.54,2.32.54.72,0,1.35-.11,1.9-.33.55-.22,1-.53,1.35-.93.35-.4.58-.87.7-1.41l-2.24-.15c-.08.22-.2.41-.36.56-.16.15-.35.27-.57.34-.22.08-.47.11-.74.11-.41,0-.75-.09-1.05-.26-.29-.17-.52-.41-.69-.73-.16-.32-.24-.69-.24-1.12h0s5.94,0,5.94,0v-.66c0-.74-.1-1.39-.31-1.94-.21-.56-.5-1.02-.87-1.39Zm-4.75,2.49c.02-.31.09-.6.23-.86.16-.28.38-.51.66-.68.28-.17.61-.26.98-.26s.66.08.93.23c.27.15.48.36.63.63.15.27.23.58.23.93h-3.65Z"/><path class="ah" d="m99.72,138.91h-.09c-.11-.24-.27-.47-.47-.72-.2-.25-.47-.45-.8-.61-.33-.17-.74-.25-1.23-.25-.64,0-1.23.16-1.77.49-.53.33-.96.83-1.28,1.49-.32.66-.48,1.49-.48,2.48s.16,1.76.47,2.4c.32.63.74,1.1,1.28,1.4.54.3,1.13.46,1.79.46.46,0,.86-.07,1.19-.21.33-.14.61-.31.82-.53.21-.22.37-.44.48-.69h.1v1.6c0,.6-.17,1.03-.52,1.28-.34.26-.78.39-1.3.39-.35,0-.65-.05-.9-.14-.24-.09-.44-.21-.59-.36-.15-.15-.26-.31-.32-.49l-2.24.3c.1.46.31.87.64,1.24.33.37.77.66,1.33.87.56.22,1.23.32,2.02.32.83,0,1.57-.13,2.21-.38.64-.25,1.15-.62,1.51-1.12.36-.5.55-1.12.55-1.86v-8.81h-2.4v1.47Zm-.2,4.19c-.14.36-.35.64-.62.84-.27.19-.6.29-.99.29s-.73-.1-1.01-.3c-.27-.2-.48-.48-.62-.85-.14-.37-.21-.8-.21-1.31s.07-.93.21-1.31c.14-.38.35-.67.62-.89.27-.22.61-.32,1.01-.32s.72.1.99.31c.27.21.48.5.62.88.14.37.22.82.22,1.33s-.07.95-.22,1.32Z"/><rect class="ah" x="104.05" y="134.54" width="2.42" height="11.64"/><path class="ah" d="m80.52,137.9c-.64-.38-1.4-.57-2.28-.57s-1.65.19-2.29.57c-.64.37-1.13.9-1.48,1.58-.35.67-.52,1.46-.52,2.36s.17,1.68.52,2.36c.35.67.84,1.2,1.48,1.58.64.37,1.41.56,2.29.56s1.64-.19,2.28-.56c.64-.38,1.14-.9,1.49-1.58.35-.68.52-1.46.52-2.36s-.17-1.69-.52-2.36c-.35-.68-.84-1.21-1.49-1.58Zm-.66,5.28c-.14.4-.34.71-.61.94-.27.23-.6.34-1.01.34s-.75-.11-1.02-.34c-.27-.23-.48-.55-.62-.94-.14-.4-.2-.85-.2-1.36s.07-.96.2-1.36c.14-.4.35-.71.62-.94.28-.23.62-.35,1.02-.35s.74.11,1.01.35c.27.23.47.55.61.94.14.4.21.85.21,1.36s-.07.96-.21,1.36Z"/><path class="ah" d="m90.34,137.9c-.64-.38-1.4-.57-2.29-.57s-1.65.19-2.29.57c-.64.37-1.13.9-1.48,1.58-.35.67-.52,1.46-.52,2.36s.17,1.68.52,2.36c.35.67.84,1.2,1.48,1.58.64.37,1.41.56,2.29.56s1.64-.19,2.29-.56c.64-.38,1.14-.9,1.49-1.58.35-.68.52-1.46.52-2.36s-.17-1.69-.52-2.36c-.35-.68-.84-1.21-1.49-1.58Zm-.66,5.28c-.14.4-.34.71-.61.94-.27.23-.6.34-1.01.34s-.75-.11-1.02-.34c-.27-.23-.48-.55-.62-.94-.14-.4-.2-.85-.2-1.36s.07-.96.2-1.36c.14-.4.35-.71.62-.94.28-.23.62-.35,1.02-.35s.74.11,1.01.35c.27.23.47.55.61.94.14.4.21.85.21,1.36s-.07.96-.21,1.36Z"/><path class="ah" d="m125.1,134.54l-4.02,11.64h2.64l.86-2.65h4.2l.86,2.65h2.64l-4.01-11.64h-3.17Zm.11,7.06l1.43-4.4h.09l1.43,4.4h-2.95Z"/><path class="ah" d="m174.04,133.87c-.36,0-.67.12-.93.36-.25.24-.38.52-.38.86s.13.63.38.87c.26.24.57.36.93.36s.67-.12.92-.36c.26-.24.39-.53.39-.87s-.13-.62-.39-.86c-.25-.24-.56-.36-.92-.36Z"/><rect class="ah" x="172.83" y="137.45" width="2.42" height="8.73"/><path class="ah" d="m180.17,139.52c.28-.2.61-.31.98-.31.44,0,.8.14,1.07.4.28.27.45.61.51,1.05h2.28c-.03-.67-.22-1.26-.55-1.76-.33-.5-.79-.89-1.36-1.17-.57-.28-1.24-.41-2-.41-.88,0-1.64.19-2.28.57-.64.38-1.13.91-1.48,1.59-.34.67-.52,1.46-.52,2.35s.17,1.66.51,2.34c.34.68.84,1.21,1.48,1.59.64.38,1.41.57,2.31.57.78,0,1.45-.14,2.02-.43.57-.28,1.01-.68,1.33-1.18.33-.51.51-1.09.54-1.76h-2.28c-.05.31-.14.57-.29.79-.14.22-.33.38-.55.49-.22.11-.47.17-.74.17-.37,0-.7-.1-.98-.31-.28-.2-.5-.5-.65-.89-.15-.39-.23-.86-.23-1.42s.08-1.02.23-1.4c.16-.39.37-.68.65-.88Z"/><path class="ah" d="m193.41,141.95c-.42-.39-1.05-.67-1.9-.84l-1.58-.32c-.4-.09-.69-.2-.86-.35-.17-.14-.25-.32-.25-.53,0-.26.13-.47.39-.62.26-.16.57-.24.95-.24.28,0,.52.05.72.14.2.09.37.21.49.37.12.15.21.32.24.51l2.21-.14c-.11-.8-.48-1.44-1.11-1.9-.63-.47-1.5-.7-2.6-.7-.75,0-1.4.11-1.95.33-.55.22-.98.53-1.29.94-.3.41-.45.89-.45,1.45,0,.65.21,1.19.62,1.61.42.42,1.05.72,1.9.89l1.51.3c.38.08.66.19.84.33.18.14.27.32.28.54,0,.26-.14.48-.4.64-.26.16-.6.24-1.02.24s-.79-.09-1.06-.27c-.28-.18-.45-.45-.52-.81l-2.38.12c.12.83.52,1.49,1.2,1.98.69.48,1.61.72,2.76.72.76,0,1.43-.12,2.01-.36.58-.24,1.04-.58,1.37-1.01.34-.43.5-.93.5-1.51,0-.63-.21-1.14-.62-1.52Z"/><path class="ah" d="m160.98,143.86h-.09l-1.81-6.41h-2.55l3.13,8.98-.14.37c-.11.27-.24.47-.42.58-.17.11-.37.17-.6.16-.23,0-.48-.05-.77-.14l-.55,1.81c.17.07.39.13.66.18.27.05.56.07.86.07.6,0,1.11-.1,1.53-.29.42-.19.77-.46,1.05-.81.28-.35.5-.76.66-1.23l3.39-9.67h-2.56l-1.82,6.41Z"/><rect class="ah" x="152.87" y="134.54" width="2.42" height="11.64"/><path class="ah" d="m149.87,138.03c-.34-.24-.74-.41-1.19-.53-.44-.11-.91-.17-1.39-.17-.7,0-1.31.11-1.84.32-.53.21-.96.51-1.29.9-.33.39-.56.84-.67,1.37l2.24.18c.08-.29.25-.53.51-.72.26-.19.6-.29,1.04-.29s.73.1.95.3c.23.2.34.48.34.84v.03c0,.19-.07.33-.21.42-.14.1-.37.17-.68.22-.31.05-.72.1-1.23.15-.43.04-.84.11-1.24.22-.39.1-.74.25-1.04.45-.31.2-.55.47-.73.8-.18.33-.27.74-.27,1.22,0,.58.12,1.06.37,1.44.25.38.6.67,1.03.87.43.19.93.29,1.49.29.43,0,.81-.06,1.14-.17.33-.12.61-.28.85-.48.24-.21.42-.45.56-.72h.07v1.21h2.29v-5.89c0-.52-.1-.96-.3-1.34-.2-.37-.47-.68-.82-.92Zm-1.28,5.02c0,.31-.08.58-.23.82-.16.24-.37.43-.64.58-.27.14-.59.21-.94.21s-.68-.09-.92-.26c-.24-.18-.36-.43-.36-.76,0-.23.06-.42.18-.57.12-.16.28-.28.5-.37.21-.09.46-.16.74-.2.13-.02.28-.04.44-.06.16-.03.33-.05.49-.09.16-.03.31-.07.44-.11.13-.04.24-.09.31-.14v.93Z"/><path class="ah" d="m170.77,144.31c-.11.02-.23.03-.34.03-.16,0-.31-.02-.43-.07-.12-.05-.22-.14-.28-.26-.07-.12-.1-.3-.1-.52v-4.23h1.64v-1.82h-1.64v-2.09h-2.42v2.09h-1.19v1.82h1.19v4.54c0,.57.11,1.05.36,1.42.24.37.58.65,1.02.83.44.18.95.26,1.53.23.31-.01.58-.04.8-.1.22-.05.39-.09.51-.13l-.38-1.8c-.06.01-.15.03-.26.05Z"/><path class="ah" d="m140.26,137.73c-.45-.27-.98-.4-1.59-.4-.65,0-1.2.15-1.65.45-.45.3-.78.7-.97,1.2h-.1v-1.54h-2.31v8.73h2.42v-5.04c0-.37.07-.7.21-.96.14-.27.33-.47.58-.61.25-.14.54-.21.86-.21.48,0,.87.15,1.14.46.28.3.41.72.41,1.25v5.12h2.42v-5.56c0-.68-.12-1.26-.37-1.75-.25-.49-.6-.87-1.05-1.14Z"/><rect class="ag" x="62.5" y="162.5" width="131" height="27" rx="3.5" ry="3.5"/><path class="ai" d="m190,163c1.65,0,3,1.35,3,3v20c0,1.65-1.35,3-3,3h-124c-1.65,0-3-1.35-3-3v-20c0-1.65,1.35-3,3-3h124m0-1h-124c-2.21,0-4,1.79-4,4v20c0,2.21,1.79,4,4,4h124c2.21,0,4-1.79,4-4v-20c0-2.21-1.79-4-4-4h0Z"/><path class="ah" d="m100.41,170.86h-9.54c-.56,0-1.2-.05-1.63-.11v1.42c.3-.03.99-.08,1.63-.08h9.41c-.8,1.43-2.67,3.79-5.01,5.54-1.09-.98-2.4-2.04-2.99-2.47l-1.02.83c.85.61,2.69,2.19,3.65,3.15,1.02,1.04,2.3,2.45,2.9,3.26l1.17-.93c-.64-.78-1.77-1.97-2.74-2.94,2.62-2.01,4.67-4.63,5.81-6.5.1-.14.24-.32.4-.5l-1.01-.8c-.22.08-.59.11-1.02.11Z"/><path class="ah" d="m175.29,173.28c-.88-.88-2.94-2.54-4.06-3.3l-.93.98c1.2.78,3.18,2.51,4,3.34l.99-1.02Z"/><path class="ah" d="m107.45,174.86c-.91,0-1.74-.05-2.24-.1v1.57c.51-.03,1.36-.06,2.24-.06h8.78c.7,0,1.38.05,1.71.06v-1.57c-.37.03-.93.1-1.73.1h-8.77Z"/><path class="ah" d="m81.78,176.41c1.13-1.44,2.13-3.32,2.69-4.71.08-.21.29-.56.38-.69l-.8-.62c-.26.08-.69.13-1.2.13h-6.18c-.5,0-1.41-.06-1.62-.1v1.44c.18-.02,1.04-.08,1.62-.08h6.24c-.42,1.33-1.58,3.23-2.67,4.46-1.65,1.82-4,3.74-6.59,4.74l1.02,1.07c2.37-1.08,4.52-2.82,6.25-4.68,1.63,1.48,3.33,3.35,4.4,4.77l1.1-.98c-1.03-1.26-2.99-3.32-4.66-4.76Z"/><path class="ah" d="m181.57,172.46c-.93,1.98-2.86,4.35-5.34,5.9-1.52.94-3.6,1.92-6.38,2.34l.83,1.31c2.67-.5,4.69-1.49,6.3-2.5,2.42-1.52,4.27-3.7,5.36-5.68l-.77-1.38Z"/><path class="ah" d="m126.31,170.99c0-.5.05-1.18.11-1.68h-1.57c.08.51.11,1.22.11,1.68v9.3c0,.59-.02,1.39-.1,1.9h1.55c-.06-.53-.1-1.39-.1-1.9,0-.46,0-2.88-.01-5.26,1.77.57,4.54,1.64,6.27,2.56l.56-1.36c-1.7-.83-4.72-1.98-6.83-2.62,0-1.02,0-1.95,0-2.62Z"/><path class="ah" d="m161.97,174.3c-.01-.55-.02-1-.03-1.3,0-.37,0-.75.06-1.09h-1.36c.06.35.1.77.1,1.09.01.3.03.75.04,1.3h-4.79c-.38,0-.82-.02-1.2-.08v1.28c.38-.03.8-.05,1.22-.05h4.26c-1.08,1.64-3.49,3.75-5.89,4.9l.88.98c2.19-1.14,4.5-3.19,5.58-4.73.03,1.69.05,3.51.05,4.5,0,.3-.14.48-.45.48-.46,0-1.3-.06-1.95-.16l.08,1.18c.62.03,1.68.08,2.3.08.7,0,1.22-.4,1.22-1.09-.02-1.52-.06-4.13-.1-6.14h2.32c.3,0,.75.02,1.02.03v-1.26c-.22.05-.74.08-1.07.08h-2.29Z"/><path class="ah" d="m147.53,170.53h-8.02c-.53,0-1.17-.05-1.6-.11v1.42c.4-.02.94-.05,1.58-.05h8.19c-.22,1.54-.96,3.76-2.1,5.22-1.34,1.71-3.14,3.07-6.24,3.84l1.09,1.2c2.93-.91,4.83-2.4,6.29-4.27,1.28-1.65,2.05-4.22,2.4-5.9.06-.32.13-.58.24-.8l-.98-.62c-.3.06-.62.08-.86.08Z"/><rect class="ag" x="30.5" y="198.5" width="87" height="27" rx="3.5" ry="3.5"/><path class="ai" d="m114,199c1.65,0,3,1.35,3,3v20c0,1.65-1.35,3-3,3H34c-1.65,0-3-1.35-3-3v-20c0-1.65,1.35-3,3-3h80m0-1H34c-2.21,0-4,1.79-4,4v20c0,2.21,1.79,4,4,4h80c2.21,0,4-1.79,4-4v-20c0-2.21-1.79-4-4-4h0Z"/><path class="ah" d="m74.4,211.86l.93.3c.37-1.2.64-3.06.69-4.3l-.9-.13c-.1,1.26-.35,3.02-.72,4.13Z"/><path class="ah" d="m94.78,207.33h2.35v-1.04h-2.35v-1.62h-1.12v1.62h-2.46v1.04h2.46v1.6h-3.04v1.04h1.9l-.78.19c.3.67.59,1.52.68,2.1h-1.58v1.04h2.82v1.74h-2.66v1.04h2.66v3.25h1.12v-3.25h2.56v-1.04h-2.56v-1.74h2.77v-1.04h-1.59c.29-.56.58-1.34.89-2.08l-.78-.21h1.68v-1.04h-2.96v-1.6Zm.87,4.93h-2.87l.62-.18c-.08-.55-.39-1.44-.74-2.11h3.13c-.18.62-.52,1.52-.78,2.1l.63.19Z"/><path class="ah" d="m72.99,215.54v-1.01h-6.46v-1.2h5.04v-.93h-5.04v-1.17h5.82v-.99h-3.64c.31-.49.66-1.1,1-1.71h3.22v-1.02h-2.5c.44-.62.97-1.5,1.41-2.34l-1.23-.34c-.27.74-.8,1.79-1.23,2.46l.63.21h-1.96v-2.86h-1.15v2.86h-1.89v-2.86h-1.14v2.86h-2.01l.86-.32c-.22-.66-.82-1.66-1.36-2.38l-1.02.37c.49.72,1.04,1.69,1.28,2.34h-2.57v1.02h3.94l-.57.11c.32.48.63,1.12.78,1.6h-3.51v.99h5.66v1.17h-4.85v.93h4.85v1.2h-6.37v1.01h5.29c-1.46,1.13-3.69,2.09-5.7,2.54.26.26.61.72.78,1.02,2.1-.59,4.45-1.75,6-3.15v3.43h1.18v-3.5c1.55,1.47,3.89,2.68,6.05,3.28.18-.34.54-.82.82-1.07-2.06-.43-4.3-1.39-5.76-2.54h5.36Zm-9.37-7.01h4.72c-.21.54-.54,1.19-.81,1.66l.16.05h-3.71l.44-.1c-.13-.45-.47-1.1-.81-1.62Z"/><polygon class="ah" points="50.69 213.81 55.31 213.81 55.31 212.72 50.69 212.72 50.69 208.96 49.42 208.96 49.42 217.81 46.37 217.81 46.37 211.86 45.2 211.86 45.2 217.81 43.17 217.81 43.17 218.91 56.82 218.91 56.82 217.81 50.69 217.81 50.69 213.81"/><path class="ah" d="m50.43,204.61h-1.22c-1.25,2.21-3.92,4.86-6.72,6.43.27.26.61.69.77.96,2.74-1.63,5.34-4.13,6.62-6.19,1.46,2.16,4.26,4.64,6.77,6.1.22-.35.53-.75.82-1.06-2.54-1.28-5.36-3.73-7.04-6.24Z"/><path class="ah" d="m86.88,211.7h-6.9v7.65h1.12v-2.5h5.78v1.15c0,.21-.06.27-.29.27-.22.02-.99.02-1.79-.02.14.3.3.75.35,1.04,1.14.02,1.86,0,2.3-.18.45-.18.58-.5.58-1.1v-6.32h-1.15Zm0,.93v1.18h-5.78v-1.18h5.78Zm-5.78,3.33v-1.22h5.78v1.22h-5.78Z"/><path class="ah" d="m102.95,216.33c.94-1.54,1.6-3.36,1.94-5.29l-.74-.27-.21.06h-4.59v-4.37h4.05v2c0,.18-.06.24-.32.26-.26.02-1.09.02-2.08-.02.16.3.32.74.37,1.06,1.23,0,2.03-.02,2.53-.19.5-.18.62-.5.62-1.09v-3.09h-6.27v13.98h1.1v-.77c.27.21.6.53.77.79.82-.56,1.53-1.27,2.16-2.09.7.85,1.5,1.55,2.39,2.05.19-.3.56-.74.83-.98-.95-.46-1.81-1.18-2.55-2.06Zm-.73-.96c-.71-1.06-1.28-2.27-1.68-3.54h3.03c-.28,1.23-.72,2.44-1.34,3.54Zm-2.87,3.19v-6.73h.16c.48,1.67,1.18,3.23,2.06,4.54-.62.86-1.36,1.62-2.22,2.18Z"/><rect class="ah" x="76.38" y="204.64" width="1.1" height="14.7"/><polygon class="ah" points="84.59 208.72 88.42 208.72 88.42 207.84 84.59 207.84 84.59 206.82 88.82 206.82 88.82 205.9 84.59 205.9 84.59 204.64 83.41 204.64 83.41 205.9 79.31 205.9 79.31 206.82 83.41 206.82 83.41 207.84 79.7 207.84 79.7 208.72 83.41 208.72 83.41 209.84 78.82 209.84 78.82 210.75 89.28 210.75 89.28 209.84 84.59 209.84 84.59 208.72"/><path class="ah" d="m78.43,206.99l-.8.32c.32.75.69,1.74.85,2.35l.83-.4c-.14-.59-.53-1.54-.88-2.27Z"/><rect class="ag" x="126.5" y="198.5" width="99" height="27" rx="3.5" ry="3.5"/><path class="ai" d="m222,199c1.65,0,3,1.35,3,3v20c0,1.65-1.35,3-3,3h-92c-1.65,0-3-1.35-3-3v-20c0-1.65,1.35-3,3-3h92m0-1h-92c-2.21,0-4,1.79-4,4v20c0,2.21,1.79,4,4,4h92c2.21,0,4-1.79,4-4v-20c0-2.21-1.79-4-4-4h0Z"/><path class="ah" d="m165.75,204.92c.43.54.94,1.47,1.3,2.13l.9-.38c-.34-.62-.93-1.57-1.31-2.11l-.88.37Z"/><path class="ah" d="m165.85,207.06c-.32-.61-.9-1.55-1.28-2.11l-.88.37c.36.52.82,1.29,1.15,1.92-.23.04-.47.06-.65.06h-8.03c-.53,0-1.15-.06-1.6-.11v1.42c.42-.03.96-.06,1.6-.06h8.18c-.21,1.54-.96,3.78-2.1,5.22-1.33,1.71-3.14,3.07-6.22,3.86l1.09,1.2c2.93-.93,4.83-2.4,6.29-4.29,1.26-1.63,2.05-4.22,2.38-5.9.06-.3.14-.58.24-.8l-.77-.49.61-.27Z"/><path class="ah" d="m148.34,207.51h-4.34c.11-.19.22-.38.32-.56.16-.3.45-.85.72-1.26l-1.46-.46c-.1.42-.35.99-.51,1.26-.74,1.47-2.38,3.87-5.12,5.58l1.06.82c1.8-1.24,3.22-2.79,4.23-4.22h5.41c-.32,1.31-1.14,3.03-2.17,4.43-1.13-.79-2.32-1.56-3.37-2.18l-.88.9c1.02.64,2.24,1.47,3.39,2.31-1.43,1.55-3.47,3.02-6.17,3.84l1.14,1.01c2.72-1,4.66-2.48,6.09-4.06.67.52,1.28,1.02,1.75,1.45l.94-1.12c-.52-.42-1.16-.9-1.84-1.4,1.21-1.63,2.1-3.5,2.53-4.98.08-.26.24-.62.37-.85l-1.06-.64c-.26.1-.61.14-1.04.14Z"/><path class="ah" d="m193.46,212.49c-.19-.69-.98-2.8-1.25-3.44l-1.18.4c.34.7,1.07,2.74,1.25,3.47l1.18-.43Z"/><path class="ah" d="m214.04,212.78c-1.7-.83-4.72-1.98-6.83-2.62,0-1.02,0-1.95,0-2.62,0-.5.05-1.18.11-1.68h-1.57c.08.51.11,1.22.11,1.68v9.3c0,.59-.02,1.39-.1,1.9h1.55c-.06-.53-.1-1.39-.1-1.9,0-.46,0-2.88-.01-5.26,1.77.57,4.54,1.64,6.27,2.56l.56-1.36Z"/><path class="ah" d="m173.51,216.89v-9.09c0-.45.06-1.06.11-1.44h-1.57c.06.3.13,1.02.13,1.46v9.15c0,.3-.03.53-.14.78l.91.78c.26-.14.51-.22.67-.27,4-1.17,7.3-3.14,9.38-5.71l-.72-1.12c-2,2.58-5.7,4.67-8.77,5.46Z"/><path class="ah" d="m194.42,214.98c-1.31,1.63-3.36,2.85-5.2,3.39l1.06,1.07c1.78-.67,3.73-1.92,5.22-3.79,1.14-1.44,1.84-3.17,2.26-4.93.06-.21.14-.46.26-.78l-1.38-.45c-.26,2.05-1.07,4.1-2.21,5.49Z"/><path class="ah" d="m188.49,209.85l-1.18.45c.32.56,1.18,2.78,1.44,3.62l1.2-.45c-.29-.85-1.14-2.94-1.46-3.62Z"/><rect class="ag" x="66" y="382" width="64" height="28" rx="4" ry="4"/><path class="ap" d="m126,383c1.65,0,3,1.35,3,3v20c0,1.65-1.35,3-3,3h-56c-1.65,0-3-1.35-3-3v-20c0-1.65,1.35-3,3-3h56m0-1h-56c-2.21,0-4,1.79-4,4v20c0,2.21,1.79,4,4,4h56c2.21,0,4-1.79,4-4v-20c0-2.21-1.79-4-4-4h0Z"/><path class="ah" d="m81.22,395.15c0,2.62-.38,4.3-2.4,5.71-.59.45-1.17.72-1.7.9l1.87,1.52c4.35-2.35,4.45-5.62,4.45-9.58h-2.32c.08.53.1.94.1,1.46Z"/><path class="ah" d="m87.06,390.51h-8.62c-.66,0-1.33-.08-1.95-.18v2.24c.75-.08,1.3-.11,1.95-.11h8.35c-.42.78-1.66,2.19-2.96,2.98l1.66,1.33c1.58-1.12,3.1-3.15,3.86-4.4.14-.22.45-.61.61-.82l-1.26-1.18c-.3.08-1.18.14-1.63.14Z"/><path class="ah" d="m117.1,389.95c.06.45.11.96.11,1.62v3.02c0,2.5-.22,3.7-1.31,4.9-.98,1.04-2.26,1.65-3.86,2.02l1.68,1.78c1.17-.38,2.82-1.15,3.87-2.32,1.2-1.31,1.87-2.78,1.87-6.24v-3.15c0-.66.02-1.17.05-1.62h-2.42Z"/><path class="ah" d="m104.46,388.72c-1.06,0-1.92.86-1.92,1.92,0,.11.01.22.03.32-.33.05-.68.06-.91.06h-7.41c-.53,0-1.42-.08-1.9-.14v2.27c.42-.03,1.17-.08,1.9-.08h7.46c-.21,1.38-.82,3.2-1.89,4.53-1.28,1.62-3.09,3.01-6.27,3.74l1.74,1.92c2.86-.91,4.99-2.5,6.43-4.42,1.34-1.78,2.05-4.27,2.42-5.84.03-.14.07-.3.12-.47.07,0,.13.02.2.02,1.06,0,1.92-.86,1.92-1.92s-.86-1.92-1.92-1.92Zm0,2.85c-.51,0-.93-.42-.93-.93s.42-.93.93-.93.93.42.93.93-.42.93-.93.93Z"/><path class="ah" d="m109.78,398.11h2.34c-.03-.37-.06-.99-.06-1.39v-5.41c0-.5.03-.85.06-1.22h-2.32c.05.37.06.93.06,1.22v5.39c0,.5-.05,1.12-.08,1.41Z"/><rect class="ag" x="138" y="382" width="52" height="28" rx="4" ry="4"/><path class="am" d="m186,383c1.65,0,3,1.35,3,3v20c0,1.65-1.35,3-3,3h-44c-1.65,0-3-1.35-3-3v-20c0-1.65,1.35-3,3-3h44m0-1h-44c-2.21,0-4,1.79-4,4v20c0,2.21,1.79,4,4,4h44c2.21,0,4-1.79,4-4v-20c0-2.21-1.79-4-4-4h0Z"/><path class="ah" d="m156.49,396.22c-.31-.28-.68-.51-1.1-.7-.42-.19-.89-.34-1.4-.45l-1.04-.25c-.25-.06-.49-.12-.72-.21-.22-.08-.42-.18-.59-.29-.17-.11-.31-.25-.4-.4-.09-.16-.14-.34-.13-.55,0-.25.07-.47.22-.67.15-.2.36-.35.64-.46.28-.11.62-.17,1.02-.17.59,0,1.06.13,1.4.38.34.25.54.61.59,1.07h2.36c-.01-.69-.2-1.3-.56-1.83-.36-.53-.86-.94-1.51-1.23-.64-.3-1.4-.44-2.26-.44s-1.61.15-2.27.44c-.67.29-1.19.71-1.57,1.23-.38.53-.57,1.14-.56,1.85,0,.86.28,1.54.85,2.05.57.51,1.34.88,2.32,1.12l1.27.32c.42.1.78.22,1.07.34.3.12.52.28.67.45.16.18.23.4.23.66,0,.28-.08.53-.26.74-.17.22-.41.38-.72.51-.31.12-.67.18-1.09.18s-.8-.06-1.14-.19c-.33-.13-.6-.33-.8-.58-.2-.26-.31-.59-.33-.98h-2.38c.02.84.22,1.54.61,2.11.39.56.93.99,1.62,1.28.7.29,1.52.43,2.46.43s1.76-.14,2.43-.43c.67-.29,1.19-.69,1.55-1.21.36-.52.54-1.14.55-1.85,0-.48-.09-.92-.27-1.29-.17-.38-.41-.7-.72-.98Z"/><polygon class="ah" points="166.42 397.5 166.31 397.5 161.29 390.18 159.13 390.18 159.13 401.81 161.59 401.81 161.59 394.49 161.68 394.49 166.74 401.81 168.87 401.81 168.87 390.18 166.42 390.18 166.42 397.5"/><path class="ah" d="m179.46,397.2c-.17-.38-.41-.7-.72-.98-.31-.28-.68-.51-1.1-.7-.42-.19-.89-.34-1.4-.45l-1.04-.25c-.25-.06-.49-.12-.72-.21-.22-.08-.42-.18-.59-.29-.17-.11-.31-.25-.4-.4-.09-.16-.14-.34-.13-.55,0-.25.07-.47.22-.67.15-.2.36-.35.64-.46.28-.11.62-.17,1.02-.17.59,0,1.06.13,1.4.38.34.25.54.61.59,1.07h2.36c-.01-.69-.2-1.3-.56-1.83-.36-.53-.86-.94-1.51-1.23-.64-.3-1.4-.44-2.26-.44s-1.61.15-2.27.44c-.67.29-1.19.71-1.57,1.23-.38.53-.57,1.14-.56,1.85,0,.86.28,1.54.85,2.05.57.51,1.34.88,2.32,1.12l1.27.32c.42.1.78.22,1.07.34.3.12.52.28.67.45.16.18.23.4.23.66,0,.28-.08.53-.26.74-.17.22-.41.38-.72.51-.31.12-.67.18-1.09.18s-.8-.06-1.14-.19c-.33-.13-.6-.33-.8-.58-.2-.26-.31-.59-.33-.98h-2.38c.02.84.22,1.54.61,2.11.39.56.93.99,1.62,1.28.7.29,1.52.43,2.46.43s1.76-.14,2.43-.43c.67-.29,1.19-.69,1.55-1.21.36-.52.54-1.14.55-1.85,0-.48-.09-.92-.27-1.29Z"/><rect class="ag" x="86.5" y="418.5" width="83" height="27" rx="3.5" ry="3.5"/><path class="ai" d="m166,419c1.65,0,3,1.35,3,3v20c0,1.65-1.35,3-3,3h-76c-1.65,0-3-1.35-3-3v-20c0-1.65,1.35-3,3-3h76m0-1h-76c-2.21,0-4,1.79-4,4v20c0,2.21,1.79,4,4,4h76c2.21,0,4-1.79,4-4v-20c0-2.21-1.79-4-4-4h0Z"/><path class="ah" d="m125.05,424.67l-.7.59c.7.51,1.52,1.25,1.94,1.74l.72-.69c-.4-.48-1.26-1.18-1.95-1.65Z"/><path class="ah" d="m117.67,429.62v4.66h4v-4.66h-4Zm3.02,3.66h-2.08v-2.69h2.08v2.69Z"/><path class="ah" d="m116.97,433.95c-.5.25-1.01.49-1.5.72v-5h1.47v-1.14h-1.47v-3.73h-1.12v3.73h-1.7v1.14h1.7v5.52c-.68.31-1.3.59-1.81.8l.46,1.2c1.26-.62,2.82-1.42,4.29-2.18l-.32-1.07Z"/><path class="ah" d="m99.83,434.26v-4.65h1.89v-1.14h-1.89v-3.66h-1.14v3.66h-2.06v1.14h2.06v5.12c-.83.34-1.6.65-2.21.88l.48,1.18c1.42-.61,3.23-1.42,4.94-2.24l-.26-1.07c-.61.26-1.22.52-1.82.78Z"/><path class="ah" d="m109.1,437.9h-3.86c-1.07,0-1.26-.19-1.26-1.07v-5.57l2.16-.92v5.44h1.14v-5.92l2.24-.95c0,2.58-.03,4.36-.11,4.73-.08.37-.24.43-.48.43-.18,0-.7,0-1.07-.02.14.27.24.72.29,1.04.43,0,1.07,0,1.5-.11.46-.11.77-.42.86-1.06.11-.62.16-3.02.16-6.03l.05-.22-.85-.32-.21.18-.26.22-2.12.89v-4.01h-1.14v4.49l-2.16.91v-3.89h-1.15v4.38l-1.73.73.46,1.06,1.26-.54v5.07c0,1.74.54,2.18,2.38,2.18h3.94c1.68,0,2.06-.7,2.26-2.91-.34-.06-.8-.26-1.09-.45-.11,1.84-.27,2.27-1.22,2.27Z"/><path class="ah" d="m122.34,434.98c-2.08.56-4.26,1.14-5.68,1.46l.32,1.14c1.54-.43,3.55-1.01,5.49-1.57l-.13-1.02Z"/><path class="ah" d="m128.41,431.84l.93.3c.37-1.2.64-3.06.69-4.3l-.9-.13c-.1,1.26-.35,3.02-.72,4.13Z"/><path class="ah" d="m148.79,427.31h2.35v-1.04h-2.35v-1.62h-1.12v1.62h-2.46v1.04h2.46v1.6h-3.04v1.04h1.9l-.78.19c.3.67.59,1.52.68,2.1h-1.58v1.04h2.82v1.74h-2.66v1.04h2.66v3.25h1.12v-3.25h2.56v-1.04h-2.56v-1.74h2.77v-1.04h-1.59c.29-.56.58-1.34.89-2.08l-.78-.21h1.68v-1.04h-2.96v-1.6Zm.87,4.93h-2.87l.62-.18c-.08-.55-.39-1.44-.74-2.11h3.13c-.18.62-.52,1.52-.78,2.1l.63.19Z"/><polygon class="ah" points="138.6 428.7 142.42 428.7 142.42 427.82 138.6 427.82 138.6 426.8 142.82 426.8 142.82 425.89 138.6 425.89 138.6 424.62 137.42 424.62 137.42 425.89 133.32 425.89 133.32 426.8 137.42 426.8 137.42 427.82 133.7 427.82 133.7 428.7 137.42 428.7 137.42 429.82 132.82 429.82 132.82 430.74 143.29 430.74 143.29 429.82 138.6 429.82 138.6 428.7"/><path class="ah" d="m156.96,436.31c.94-1.54,1.6-3.36,1.94-5.29l-.74-.27-.21.06h-4.59v-4.37h4.05v2c0,.18-.06.24-.32.26-.26.02-1.09.02-2.08-.02.16.3.32.74.37,1.06,1.23,0,2.03-.02,2.53-.19.5-.18.62-.5.62-1.09v-3.09h-6.27v13.98h1.1v-.77c.27.21.6.53.77.79.82-.56,1.53-1.27,2.16-2.08.7.85,1.5,1.55,2.39,2.05.19-.3.56-.74.83-.98-.95-.46-1.81-1.18-2.55-2.06Zm-.73-.96c-.71-1.06-1.28-2.27-1.68-3.54h3.03c-.28,1.23-.72,2.44-1.34,3.54Zm-2.87,3.19v-6.73h.16c.48,1.67,1.18,3.23,2.06,4.54-.62.86-1.36,1.62-2.22,2.18Z"/><path class="ah" d="m140.89,431.68h-6.9v7.65h1.12v-2.5h5.78v1.15c0,.21-.06.27-.29.27-.22.02-.99.02-1.79-.02.14.3.3.75.35,1.04,1.14.02,1.86,0,2.3-.18.45-.18.58-.5.58-1.1v-6.32h-1.15Zm0,.93v1.18h-5.78v-1.18h5.78Zm-5.78,3.33v-1.22h5.78v1.22h-5.78Z"/><rect class="ah" x="130.39" y="424.62" width="1.1" height="14.7"/><path class="ah" d="m125.96,438.19c-.57,0-1.07-1.05-1.45-2.82,1-1.58,1.78-3.44,2.34-5.55l-1.1-.21c-.38,1.5-.88,2.88-1.53,4.11-.23-1.58-.39-3.49-.46-5.63h3.38v-1.09h-3.41c-.02-.77-.02-1.56-.02-2.37h-1.17c0,.8.02,1.59.04,2.37h-5.4v1.09h5.44c.1,2.72.31,5.18.69,7.11-.9,1.29-1.98,2.38-3.28,3.21.26.19.7.59.88.8,1.03-.73,1.93-1.61,2.73-2.62.49,1.71,1.19,2.75,2.17,2.75s1.34-.69,1.52-2.82c-.26-.13-.62-.37-.86-.64-.05,1.66-.21,2.3-.51,2.3Z"/><path class="ah" d="m132.44,426.98l-.8.32c.32.75.69,1.74.85,2.35l.83-.4c-.14-.59-.53-1.54-.88-2.27Z"/><rect class="ag" x="48.5" y="454.5" width="159" height="27" rx="3.5" ry="3.5"/><path class="ai" d="m204,455c1.65,0,3,1.35,3,3v20c0,1.65-1.35,3-3,3H52c-1.65,0-3-1.35-3-3v-20c0-1.65,1.35-3,3-3h152m0-1H52c-2.21,0-4,1.79-4,4v20c0,2.21,1.79,4,4,4h152c2.21,0,4-1.79,4-4v-20c0-2.21-1.79-4-4-4h0Z"/><path class="ah" d="m80.09,470.71c-1.52.94-3.6,1.92-6.38,2.34l.83,1.31c2.67-.5,4.69-1.49,6.3-2.5,2.42-1.52,4.27-3.7,5.36-5.68l-.77-1.38c-.93,1.98-2.86,4.35-5.34,5.9Z"/><path class="ah" d="m65.93,464.41c0-.64-.02-1.18-.02-1.55-.02-.43.02-.9.08-1.33h-1.47c.06.34.1.72.13,1.33.02.37.03.91.05,1.55h-5.82c-.48,0-1.01-.03-1.47-.08v1.36c.51-.03.96-.06,1.5-.06h5.28c-1.27,1.94-4.11,4.58-7.36,6.18l.91,1.04c2.89-1.53,5.67-4.13,7-6.02.03,2.15.05,4.52.05,5.81,0,.43-.14.64-.59.64-.61,0-1.5-.06-2.27-.19l.11,1.33c.8.05,1.74.1,2.56.1.96,0,1.47-.45,1.46-1.3-.01-2.01-.06-5.18-.1-7.58h2.54c.4,0,.94.03,1.33.05v-1.36c-.32.05-.94.1-1.36.1h-2.52Z"/><path class="ah" d="m79.14,465.62c-.88-.88-2.94-2.54-4.06-3.3l-.93.98c1.2.78,3.18,2.51,4,3.34l.99-1.02Z"/><path class="ah" d="m99.69,465.91h-8.42c-.45,0-.99-.05-1.57-.1v1.34c.58-.05,1.18-.06,1.57-.06h8.48c-.29,1.17-.93,2.53-1.89,3.54-1.38,1.44-3.38,2.48-5.63,2.94l.99,1.14c2.03-.58,4.05-1.5,5.71-3.34,1.2-1.31,1.92-2.98,2.34-4.54.03-.13.14-.32.22-.48l-.91-.56c-.18.08-.53.13-.9.13Z"/><path class="ah" d="m143.74,464.02c-.7-.51-2.54-1.74-3.49-2.27l-.7,1.09c.93.53,2.67,1.68,3.44,2.27l.75-1.09Z"/><path class="ah" d="m176.42,468.28c-.19-.69-.98-2.8-1.25-3.44l-1.18.4c.34.7,1.07,2.74,1.25,3.47l1.18-.43Z"/><path class="ah" d="m98.84,463.42c.54,0,1.1.02,1.47.05v-1.33c-.38.05-.94.08-1.44.08h-6.3c-.51,0-1.01-.03-1.42-.08v1.33c.43-.03.94-.05,1.42-.05h6.27Z"/><path class="ah" d="m127.14,465.62c-.88-.88-2.94-2.54-4.06-3.3l-.93.98c1.2.78,3.18,2.51,4,3.34l.99-1.02Z"/><path class="ah" d="m141.35,467.51c-.69-.5-2.56-1.65-3.5-2.16l-.72,1.09c.98.51,2.7,1.62,3.49,2.19l.74-1.12Z"/><path class="ah" d="m177.38,470.78c-1.31,1.63-3.36,2.85-5.2,3.39l1.06,1.07c1.78-.67,3.73-1.92,5.22-3.79,1.14-1.44,1.84-3.17,2.26-4.93.06-.21.14-.46.26-.78l-1.38-.45c-.26,2.05-1.07,4.1-2.21,5.49Z"/><path class="ah" d="m197.38,460.76c-.99,0-1.79.8-1.79,1.79,0,.18.03.34.08.51-.19.02-.37.04-.53.04h-8.02c-.53,0-1.17-.06-1.6-.11v1.42c.4-.03.94-.06,1.58-.06h8.19c-.22,1.54-.96,3.78-2.1,5.22-1.34,1.71-3.14,3.07-6.24,3.86l1.09,1.2c2.93-.93,4.83-2.4,6.29-4.29,1.28-1.63,2.05-4.22,2.4-5.9.01-.07.03-.13.04-.19.19.07.39.11.6.11.99,0,1.79-.8,1.79-1.79s-.8-1.79-1.79-1.79Zm0,2.85c-.59,0-1.06-.46-1.06-1.06s.46-1.06,1.06-1.06,1.06.48,1.06,1.06-.48,1.06-1.06,1.06Z"/><path class="ah" d="m171.45,465.64l-1.18.45c.32.56,1.18,2.78,1.44,3.62l1.2-.45c-.29-.85-1.14-2.94-1.46-3.62Z"/><path class="ah" d="m128.09,470.71c-1.52.94-3.6,1.92-6.38,2.34l.83,1.31c2.67-.5,4.69-1.49,6.3-2.5,2.42-1.52,4.27-3.7,5.36-5.68l-.77-1.38c-.93,1.98-2.86,4.35-5.34,5.9Z"/><path class="ah" d="m117.26,462.52l-1.07-1.01c-1.1,1.34-2.7,2.72-4.38,3.78-1.78,1.1-4.21,2.24-6.98,2.98l.62,1.25c2.22-.69,4.41-1.65,6.1-2.6v5.92c0,.59-.05,1.39-.1,1.7h1.58c-.08-.3-.11-1.1-.11-1.7v-6.78c1.63-1.07,3.11-2.27,4.34-3.54Z"/><path class="ah" d="m143.22,471.34c-1.63.91-3.62,1.55-5.38,1.86l.75,1.3c1.47-.3,3.68-1.04,5.3-1.98,2.56-1.5,4.77-3.57,6.16-5.71l-.78-1.33c-1.28,2.26-3.39,4.35-6.05,5.87Z"/><path class="ah" d="m163.82,465.3c-.22,0-.62.02-.99.02h-6.18c-.43,0-1.34-.02-1.65-.05v1.23c.3,0,1.22-.03,1.65-.03h5.92v2.66h-5.78c-.54,0-1.12-.03-1.44-.06v1.25c.32-.03.9-.03,1.44-.03h5.78v2.83h-6.43c-.56,0-1.06-.03-1.31-.06v1.28c.26,0,.82-.03,1.31-.03h6.43c0,.26,0,.51-.02.66h1.26c0-.24-.02-.61-.02-.86v-7.97c0-.3,0-.64.02-.82Z"/><rect class="ag" x="70" y="638" width="116" height="28" rx="4" ry="4"/><path class="ak" d="m182,639c1.65,0,3,1.35,3,3v20c0,1.65-1.35,3-3,3h-108c-1.65,0-3-1.35-3-3v-20c0-1.65,1.35-3,3-3h108m0-1h-108c-2.21,0-4,1.79-4,4v20c0,2.21,1.79,4,4,4h108c2.21,0,4-1.79,4-4v-20c0-2.21-1.79-4-4-4h0Z"/><path class="ah" d="m166.66,650.92l1.63-1.66c-.94-.98-3.02-2.64-4.13-3.39l-1.52,1.62c1.17.8,3.18,2.54,4.02,3.44Z"/><path class="ah" d="m93.86,649.7v-.8c.43.29.86.55,1.28.75.26-.53.62-1.22.99-1.68-1.68-.64-3.33-1.98-4.45-3.52h-1.73c-.76,1.23-2.18,2.6-3.73,3.39v-.11h-1.47v-3.3h-1.76v3.3h-1.98v1.79h1.86c-.44,1.92-1.28,4.11-2.21,5.38.29.46.69,1.2.88,1.71.54-.78,1.04-1.89,1.46-3.11v5.96h1.76v-6.86c.33.67.65,1.38.83,1.85l.99-1.49c-.26-.41-1.4-2.13-1.82-2.68v-.76h1.47v-.79c.18.32.36.66.46.94.45-.23.9-.5,1.33-.8v.83h2v1.02h-3.25v4.45h2.94c-.45,1.14-1.51,2.18-3.99,2.94.32.3.86,1.04,1.02,1.44,2.37-.77,3.65-1.92,4.33-3.2.99,1.73,2.25,2.55,3.85,3.16.19-.56.67-1.18,1.1-1.58-1.55-.48-2.74-1.11-3.68-2.77h2.82v-4.45h-3.41v-1.02h2.11Zm-5.42,3.98v-1.5h1.58v.98c0,.18,0,.35-.02.53h-1.57Zm4.99-1.5v1.5h-1.69c0-.16.01-.32.01-.48v-1.02h1.68Zm-2.54-6.08c.47.67,1.16,1.38,1.93,2.02h-3.81c.76-.64,1.43-1.35,1.88-2.02Z"/><path class="ah" d="m157.42,648.22c-.35-.74-1.01-1.79-1.46-2.46l-1.34.54c.59.83.94,1.52,1.42,2.53l1.38-.61Z"/><path class="ah" d="m134.66,650.92l1.63-1.66c-.94-.98-3.02-2.64-4.13-3.39l-1.52,1.62c1.17.8,3.18,2.54,4.02,3.44Z"/><path class="ah" d="m152.67,647.72c-.83-.58-2.59-1.71-3.65-2.29l-1.17,1.76c1.06.59,2.74,1.68,3.62,2.3l1.2-1.78Z"/><path class="ah" d="m96.86,658.01c.43.32,1.14.98,1.47,1.34,1.36-.64,2.99-1.74,4.03-2.83l-1.82-.69c-.85.85-2.3,1.68-3.68,2.18Z"/><path class="ah" d="m109.35,655.52c.3.26.57.51.78.73l1.34-1.1c-.85-.83-2.54-2.03-3.81-2.83l-1.26.98c.36.24.75.51,1.14.8-1.28.02-2.56.03-3.78.04,1.47-.87,3-1.88,4.27-2.84l-1.71-.93c-.84.74-1.96,1.59-3.15,2.38-.29-.21-.63-.44-.99-.66.77-.54,1.63-1.23,2.41-1.92l-.48-.22h5.29v1.71h1.89v-3.33h-6.11v-.98h5.92v-1.65h-5.92v-1.25h-1.9v1.25h-5.82v1.65h5.82v.98h-5.95v3.33h1.81v-1.71h3.19c-.45.47-.98.96-1.49,1.38-.24-.13-.47-.25-.69-.35l-1.25,1.07c.89.47,1.94,1.12,2.71,1.7-.25.15-.49.29-.73.42-1.35,0-2.59,0-3.6,0l.1,1.73c1.63-.03,3.7-.09,5.92-.16v3.74h1.9v-3.8c1.37-.04,2.77-.09,4.15-.14Z"/><path class="ah" d="m156.82,645.54c.59.8.98,1.42,1.49,2.43l1.38-.61c-.38-.7-1.01-1.76-1.5-2.4l-1.36.58Z"/><path class="ah" d="m150.21,651.34c-.82-.58-2.58-1.68-3.65-2.26l-1.17,1.78c1.09.56,2.74,1.65,3.65,2.27l1.17-1.79Z"/><path class="ah" d="m174.11,648.22c-1.02,2.16-3.1,4.59-5.84,6.22-1.55.91-3.62,1.73-6.13,2.08l1.36,2.11c2.24-.38,4.3-1.26,5.94-2.24,2.58-1.55,4.7-3.76,5.9-5.94l-1.23-2.24Z"/><path class="ah" d="m151.5,655c-1.74.96-3.66,1.49-5.44,1.79l1.2,2.11c1.41-.26,3.71-1.06,5.33-1.98,2.62-1.5,4.88-3.54,6.37-5.74l-1.23-2.18c-1.28,2.29-3.5,4.48-6.22,6Z"/><path class="ah" d="m106.11,656.74c1.31.74,3.02,1.82,3.82,2.56l1.58-1.09c-.93-.74-2.69-1.78-3.94-2.43l-1.47.96Z"/><path class="ah" d="m136.27,654.44c-1.55.91-3.62,1.73-6.13,2.08l1.36,2.11c2.24-.38,4.3-1.26,5.94-2.24,2.58-1.55,4.7-3.76,5.9-5.94l-1.23-2.24c-1.02,2.16-3.1,4.59-5.84,6.22Z"/><path class="ah" d="m121.36,655.53v-6.54h3.39c.46,0,1.02.03,1.49.08v-2.21c-.45.06-1.01.11-1.49.11h-8.72c-.43,0-1.1-.05-1.52-.11v2.21c.42-.05,1.09-.08,1.52-.08h3.1v6.54h-4.08c-.48,0-1.06-.05-1.57-.13v2.3c.53-.05,1.1-.06,1.57-.06h10.56c.37,0,1.04.02,1.49.06v-2.3c-.42.05-.93.13-1.49.13h-4.26Z"/><rect class="ag" x="86.5" y="674.5" width="83" height="27" rx="3.5" ry="3.5"/><path class="ai" d="m166,675c1.65,0,3,1.35,3,3v20c0,1.65-1.35,3-3,3h-76c-1.65,0-3-1.35-3-3v-20c0-1.65,1.35-3,3-3h76m0-1h-76c-2.21,0-4,1.79-4,4v20c0,2.21,1.79,4,4,4h76c2.21,0,4-1.79,4-4v-20c0-2.21-1.79-4-4-4h0Z"/><path class="ah" d="m101.31,682.21c-.77-.4-2.26-.94-3.36-1.23l-.53.82c1.12.35,2.61.93,3.36,1.34l.53-.93Z"/><path class="ah" d="m141.1,687.38h-5.49v7.94h1.14v-2.99h4.35v1.73c0,.19-.05.24-.26.26-.21,0-.86.02-1.58-.02.14.29.3.7.35.99.99,0,1.66,0,2.1-.16.4-.18.53-.46.53-1.06v-6.69h-1.14Zm0,.91v1.15h-4.35v-1.15h4.35Zm-4.35,3.17v-1.15h4.35v1.15h-4.35Z"/><path class="ah" d="m101.26,684.9l-.13-.94c-1.66.46-3.36.94-4.51,1.22l.46,1.06c1.22-.37,2.72-.86,4.18-1.33Z"/><path class="ah" d="m109.2,692.77v-6.46h-10.43v6.46h10.43Zm-9.26-5.66h8.06v1.09h-8.06v-1.09Zm0,1.87h8.06v1.09h-8.06v-1.09Zm0,1.87h8.06v1.12h-8.06v-1.12Z"/><path class="ah" d="m154.8,689.23c1.09-.91,2.42-2.22,3.41-3.36l-1.04-.75c-.75,1.02-1.95,2.31-2.97,3.24-.72-1.16-1.3-2.43-1.73-3.75v-.14h6.45v-1.17h-1.99l.74-.83c-.67-.53-1.98-1.28-2.96-1.79l-.74.75c1.01.53,2.25,1.31,2.89,1.87h-4.39v-2.64h-1.23v2.64h-6.32v1.17h6.32v9.25c0,.3-.11.38-.4.4-.32.02-1.36.02-2.48-.02.19.37.38.93.45,1.26,1.41,0,2.37-.02,2.91-.24.53-.19.75-.56.75-1.41v-6.38c1.38,3.03,3.38,5.53,6.03,6.83.19-.35.59-.82.88-1.06-1.81-.79-3.34-2.17-4.58-3.87Z"/><path class="ah" d="m149.33,688.34c-.5-.85-1.65-2.06-2.62-2.91l-.93.61c.99.88,2.1,2.16,2.58,2.99l.98-.69Z"/><rect class="ah" x="129.3" y="681.18" width="4.58" height=".96"/><path class="ah" d="m114.56,685.17c-.11-.96-.48-2.42-.93-3.54l-.88.22c.42,1.12.78,2.61.86,3.57l.94-.26Z"/><path class="ah" d="m122.67,684.64l.64-.93c-.53-.59-1.63-1.41-2.56-1.95l-.62.82c.93.58,2.03,1.44,2.54,2.06Z"/><path class="ah" d="m122.59,687.58c-.58-.58-1.76-1.33-2.72-1.82l-.56.85c.96.53,2.11,1.34,2.67,1.92l.61-.94Z"/><path class="ah" d="m118.98,681.84l-1.06-.27c-.22,1.09-.7,2.69-1.06,3.65l.77.24c.43-.9.93-2.4,1.34-3.62Z"/><rect class="ah" x="128.5" y="683.28" width="5.97" height=".99"/><path class="ah" d="m96.74,694.48c.27.21.69.67.88.91,1.6-.45,3.63-1.18,4.93-1.95l-1.09-.5c-1.15.62-3.07,1.18-4.72,1.54Z"/><path class="ah" d="m149.87,689.71c-1.95,1.14-4.05,2.3-5.39,2.99l.74,1.07c1.42-.8,3.31-1.92,5.04-2.99l-.38-1.07Z"/><polygon class="ah" points="139.36 684.46 142.62 684.46 142.62 683.58 139.36 683.58 139.36 682.62 142.86 682.62 142.86 681.7 139.36 681.7 139.36 680.61 138.22 680.61 138.22 681.7 134.82 681.7 134.82 682.62 138.22 682.62 138.22 683.58 135.23 683.58 135.23 684.46 138.22 684.46 138.22 685.5 134.42 685.5 134.42 686.43 143.22 686.43 143.22 685.5 139.36 685.5 139.36 684.46"/><rect class="ah" x="129.25" y="687.6" width="4.69" height=".96"/><rect class="ah" x="129.25" y="685.46" width="4.69" height=".96"/><path class="ah" d="m129.78,689.76h-.54v5.41h1.04v-.74h3.66v-4.67h-4.16Zm3.1.99v2.67h-2.61v-2.67h2.61Z"/><path class="ah" d="m105.22,693.58c1.74.58,3.49,1.26,4.5,1.79l1.33-.61c-1.15-.54-3.09-1.25-4.85-1.79l-.98.61Z"/><polygon class="ah" points="127.15 689.33 125.26 689.67 125.26 680.62 124.13 680.62 124.13 689.87 118.93 690.8 119.12 691.92 124.13 691.01 124.13 695.33 125.26 695.33 125.26 690.81 127.34 690.43 127.15 689.33"/><path class="ah" d="m106.61,682.7h2.57c-.29.46-.63.91-.96,1.23l.96.34c.58-.56,1.17-1.46,1.62-2.29l-.8-.24-.21.05h-5.51c.21-.33.39-.67.55-1.01l-1.09-.18c-.42.96-1.23,2.06-2.43,2.88.29.13.7.38.91.61.55-.43,1.01-.9,1.41-1.39h1.72c-.38,1.45-1.35,2.28-3.97,2.72.21.21.46.61.58.86,2.29-.46,3.47-1.22,4.09-2.42.6,1.18,1.77,2.22,4.52,2.69.13-.3.4-.74.62-.98-3.29-.47-4.2-1.63-4.57-2.88Z"/><path class="ah" d="m116.34,687.12h2.62v-1.14h-2.62v-5.31h-1.12v5.31h-2.58v1.14h2.24c-.56,1.78-1.56,3.88-2.49,4.99.19.32.48.83.61,1.18.79-1.08,1.62-2.87,2.22-4.62v6.63h1.12v-6.58c.6.91,1.33,2.13,1.62,2.74l.8-.96c-.36-.52-1.93-2.62-2.42-3.15v-.24Z"/><rect class="ag" x="80.5" y="710.5" width="95" height="27" rx="3.5" ry="3.5"/><path class="ai" d="m172,711c1.65,0,3,1.35,3,3v20c0,1.65-1.35,3-3,3h-88c-1.65,0-3-1.35-3-3v-20c0-1.65,1.35-3,3-3h88m0-1h-88c-2.21,0-4,1.79-4,4v20c0,2.21,1.79,4,4,4h88c2.21,0,4-1.79,4-4v-20c0-2.21-1.79-4-4-4h0Z"/><path class="ah" d="m115.67,718.61h-9.2c-.59,0-1.25-.06-1.81-.14v1.44c.62-.05,1.22-.08,1.81-.08h9.12c-.51.99-2.02,2.72-3.5,3.57l1.07.85c1.82-1.26,3.34-3.33,3.98-4.42.11-.18.3-.42.43-.56l-.8-.77c-.22.06-.8.11-1.1.11Z"/><path class="ah" d="m165.63,718.05c-.45-.43-1.38-1.02-2.14-1.38l-.66.58c.74.4,1.65,1.01,2.1,1.47l.7-.67Z"/><path class="ah" d="m91.65,718.06h-1.46c.05.3.06.86.06,1.14v5.34c0,.46-.03.98-.06,1.23h1.46c-.03-.29-.05-.82-.05-1.23v-5.34c0-.37.02-.83.05-1.14Z"/><path class="ah" d="m128.31,728.48v-9.22c0-.61.06-1.07.08-1.2h-1.47c0,.13.08.58.08,1.18v9.58c0,.32-.05.66-.11.9l.85.7c.13-.08.29-.22.56-.35,1.86-.93,4.06-2.56,5.46-4.43l-.77-1.1c-1.22,1.81-3.18,3.26-4.67,3.94Z"/><path class="ah" d="m97.67,719.33v2.53c0,3.01-.21,4.32-1.34,5.63-.99,1.14-2.35,1.76-3.82,2.14l1.06,1.1c1.17-.4,2.77-1.1,3.79-2.35,1.17-1.36,1.68-2.62,1.68-6.48v-2.58c0-.54.02-1.01.05-1.39h-1.5c.05.38.1.85.1,1.39Z"/><path class="ah" d="m109.8,722.53c0,2.67-.35,4.94-2.82,6.46-.45.3-1.01.58-1.44.72l1.17.96c4.08-2.05,4.46-4.98,4.46-9.31h-1.44c.06.43.06.78.06,1.17Z"/><path class="ah" d="m122.83,719.28c0,1.79,0,4.98-.48,6.45-.48,1.55-1.42,2.98-2.78,3.94l1.22.8c1.34-1.12,2.37-2.67,2.85-4.38.43-1.6.48-5.04.48-6.82,0-.46.06-.96.08-1.14h-1.47c.08.34.11.69.11,1.15Z"/><polygon class="ah" points="155.15 722.29 157.24 722.29 157.24 721.33 155.15 721.33 155.15 719.76 154.03 719.76 154.03 721.33 152.03 721.33 152.03 722.29 154.03 722.29 154.03 723.94 151.42 723.94 151.42 724.94 157.67 724.94 157.67 723.94 155.15 723.94 155.15 722.29"/><path class="ah" d="m154.97,716.64h-1.12c-.56,1.23-1.58,2.83-2.98,4.03.24.16.62.53.8.78,1.33-1.22,2.27-2.61,2.92-3.73.89.84,1.86,2.02,2.36,2.77l.75-.93c-.56-.82-1.76-2.06-2.74-2.93Z"/><path class="ah" d="m165.8,719.92v-1.06h-3.47v-2.24h-1.09v2.24h-3.49v1.06h3.49v1.52h-3.04v9.87h1.07v-3.57h1.97v3.49h1.09v-3.49h2.1v2.34c0,.18-.06.22-.21.22-.16.02-.66.02-1.2,0,.14.29.3.74.34,1.02.83,0,1.34-.02,1.7-.21.35-.16.45-.48.45-1.01v-8.67h-3.17v-1.52h3.47Zm-4.56,2.56v1.6h-1.97v-1.6h1.97Zm-1.97,4.26v-1.65h1.97v1.65h-1.97Zm3.06,0v-1.65h2.1v1.65h-2.1Zm2.1-4.26v1.6h-2.1v-1.6h2.1Z"/><path class="ah" d="m144.14,720.21h-1.22v5.28h-3.82v5.89h1.17v-.64h6.96v.61h1.23v-5.86h-4.32v-2.3h5.39v-1.07h-5.39v-1.9Zm3.09,9.46h-6.96v-3.09h6.96v3.09Z"/><path class="ah" d="m151.95,731.23h1.07v-.85h3.18v.54h1.1v-4.9h-5.36v5.2Zm4.26-4.19v2.34h-3.18v-2.34h3.18Z"/><path class="ah" d="m143.59,716.64h-1.23v2.06h-5.92v4.14c0,2.3-.11,5.54-1.42,7.84.29.13.82.46,1.02.67,1.38-2.43,1.6-6.05,1.6-8.51v-2.99h12.11v-1.15h-6.16v-2.06Z"/><rect class="af" y="0" width="256" height="864"/></svg>