<?xml version="1.0" encoding="UTF-8"?><svg id="a" xmlns="http://www.w3.org/2000/svg" width="160" height="112" viewBox="0 0 160 112"><path id="b" d="m128.363,38.223h-44.127L106.32.054l-5.186-.054-20.753,35.974L59.611,0l-5.192.054,22.09,38.17h-41.541l-2.606,4.534h44.093l-22.037,38.187h5.104l20.854-36.045,20.682,35.742.161.303h5.1l-22.03-38.187h41.45l2.623-4.534Z" stroke-width="0"/><path id="c" d="m148.095,43.446c-.313-.011-.608.148-.772.415-.148.221-.229.481-.232.747-.062.443.246.853.689.915.049.007.099.009.149.007.295.004.573-.136.747-.374.175-.229.266-.512.257-.8.006-.216-.058-.429-.183-.606-.153-.211-.403-.33-.664-.316l.009.012Z" stroke-width="0"/><path id="d" d="m4.408,95.52h-2.254L.041,107.684l-.041.239h.787l1.016-5.88h1.794c.481.004.957-.091,1.399-.28.424-.181.806-.45,1.12-.788.322-.351.572-.762.736-1.209.184-.503.275-1.035.27-1.571.055-.756-.233-1.496-.782-2.017-.542-.448-1.228-.682-1.93-.658Zm-.798,5.777h-1.672l.86-5.027h1.57c.529-.031,1.049.143,1.451.488.367.397.553.928.513,1.467.008.45-.066.898-.218,1.323-.128.354-.323.679-.575.959-.241.255-.535.455-.86.586-.341.138-.705.208-1.073.207l.003-.002Z" stroke-width="0"/><path id="e" d="m9.692,97.2c.184.002.358-.085.466-.234.109-.143.166-.32.16-.5.004-.135-.037-.268-.114-.378-.096-.132-.252-.206-.415-.197-.196-.007-.38.092-.482.259-.093.138-.143.3-.145.466-.039.277.154.532.43.571.031.004.062.006.093.004l.006.007Z" stroke-width="0"/><path id="f" d="m7.452,107.929h.788l1.492-8.592h-.788l-1.492,8.592Z" stroke-width="0"/><path id="g" d="m15.765,99.337l-2.166,3.309-1.068-3.309h-.819l1.343,4.019-3.105,4.573h.937l2.483-3.775,1.239,3.775h.84l-1.534-4.465,2.783-4.127h-.932Z" stroke-width="0"/><path id="h" d="m17.222,107.929h.788l1.492-8.592h-.788l-1.492,8.592Z" stroke-width="0"/><path id="i" d="m19.564,95.893c-.196-.007-.38.092-.482.259-.093.138-.143.3-.145.466-.039.277.154.532.43.571.031.004.062.006.093.004.184.002.358-.085.466-.234.109-.143.166-.32.16-.5.004-.135-.036-.268-.114-.378-.096-.132-.252-.206-.415-.197l.006.007Z" stroke-width="0"/><path id="j" d="m26.141,99.948c-.163-.266-.389-.489-.658-.648-.315-.169-.669-.251-1.026-.239-.602-.007-1.182.222-1.617.638-.457.436-.83.953-1.099,1.524-.296.623-.516,1.279-.653,1.955-.138.634-.211,1.28-.218,1.929-.047.793.16,1.58.591,2.248.421.563,1.097.876,1.798.835.539.009,1.064-.177,1.477-.524.393-.329.721-.728.969-1.177l.088-.16-.606-.42-.109.197c-.199.367-.463.694-.779.967-.283.245-.647.377-1.021.368-.472.026-.923-.199-1.186-.591-.32-.525-.472-1.135-.437-1.748,0-.253.015-.505.041-.757.021-.202.052-.41.088-.612h4.558l.031-.166c.057-.295.104-.601.145-.918.037-.258.058-.518.062-.778.002-.343-.031-.685-.099-1.022-.06-.32-.176-.627-.342-.907l.002.006Zm-1.715-.171c.218-.007.434.045.624.15.174.101.318.246.42.42.118.208.201.434.244.669.056.291.083.586.083.882,0,.186-.01.384-.031.591-.016.166-.041.342-.072.534h-3.757c.057-.239.135-.508.239-.812.136-.407.315-.798.534-1.166.203-.348.462-.66.767-.923.263-.232.603-.358.953-.353l-.003.007Z" stroke-width="0"/><path id="k" d="m38.185,96.868c-.302-.422-.702-.764-1.166-.995-.514-.244-1.079-.365-1.648-.353h-1.985l-2.114,12.164-.041.239h2.493c.813.012,1.612-.211,2.301-.643.675-.437,1.248-1.016,1.679-1.695.47-.745.817-1.561,1.026-2.417.233-.927.35-1.88.347-2.836.006-.653-.067-1.304-.218-1.939-.124-.548-.355-1.066-.679-1.524h.005Zm-4.442,10.314h-1.586l1.873-10.91h1.285c.457-.013.91.085,1.321.285.366.187.681.461.917.799.26.39.448.824.554,1.281.132.564.196,1.142.192,1.722.005.886-.101,1.769-.316,2.629-.185.769-.491,1.505-.907,2.178-.365.591-.856,1.096-1.436,1.478-.565.365-1.225.555-1.897.544v-.006Z" stroke-width="0"/><path id="l" d="m44.835,104.252c-.063.382-.162.757-.295,1.12-.133.37-.312.722-.532,1.047-.199.291-.449.545-.736.749-.255.183-.561.279-.874.275-.184.006-.366-.035-.529-.119-.136-.077-.251-.186-.337-.317-.091-.141-.156-.297-.192-.461-.042-.178-.063-.361-.062-.544,0-.341.034-.682.099-1.017l.99-5.662h-.794l-.98,5.59c-.067.359-.102.724-.104,1.089,0,.255.03.509.088.757.055.25.157.488.3.7.148.219.347.399.581.524.282.144.596.213.912.202.314.003.625-.068.907-.207.268-.135.514-.31.731-.518.139-.137.267-.285.383-.441-.036.265-.062.493-.083.674l-.021.223h.782l.016-.187c.011-.109.026-.259.052-.446s.047-.375.077-.562l.083-.565c.026-.187.052-.347.077-.477l1.109-6.357h-.788l-.86,4.915v.016Z" stroke-width="0"/><path id="m" d="m52.044,99.398c-.359-.235-.784-.351-1.213-.332-.33,0-.656.074-.953.218-.293.137-.554.333-.767.576-.219.248-.389.535-.503.845-.121.329-.183.676-.182,1.027-.026.467.118.927.404,1.296.251.296.549.549.881.749.13.078.275.166.43.27.144.1.276.217.394.347.117.138.215.292.29.456.076.184.113.382.109.581,0,.276-.043.55-.13.812-.084.236-.208.455-.368.648-.153.177-.34.322-.549.425-.215.101-.45.152-.687.15-.303.013-.602-.075-.85-.25-.243-.189-.434-.437-.554-.721l-.099-.218-.643.43.067.155c.16.394.432.733.782.975.385.255.839.383,1.301.368.36.005.716-.071,1.042-.223.307-.142.581-.347.804-.601.225-.261.396-.564.503-.892.116-.35.174-.716.171-1.084.003-.269-.044-.536-.14-.788-.088-.226-.21-.436-.363-.624-.146-.183-.315-.347-.503-.488-.171-.129-.35-.248-.534-.358-.276-.153-.522-.355-.726-.596-.172-.232-.258-.516-.244-.804-.001-.255.041-.508.125-.749.076-.223.19-.432.337-.617.14-.171.312-.312.508-.415.196-.105.415-.159.638-.155.269-.014.535.057.762.202.215.157.39.361.513.596l.114.202.611-.466-.077-.15c-.166-.317-.406-.589-.699-.794l-.003-.006Z" stroke-width="0"/><path id="n" d="m56.19,96.925h-.789l-.425,2.406h-1.109l-.082.71h1.088l-1.026,5.807c-.026.14-.047.275-.062.405-.019.136-.028.273-.026.41-.017.349.094.692.312.965.247.263.599.401.958.378.309-.006.612-.082.886-.223l.14-.072-.166-.749-.25.16c-.089.058-.187.102-.29.13-.327.078-.539.041-.674-.104-.104-.138-.154-.31-.14-.482.003-.111.011-.222.026-.332.016-.145.036-.275.057-.399l1.037-5.89h1.503l.077-.711h-1.477l.425-2.406.006-.003Z" stroke-width="0"/><path id="o" d="m67.172,95.52h-5.535l-.145.749h2.373l-2.047,11.662h.788l2.047-11.662h2.368l.15-.749Z" stroke-width="0"/><path id="p" d="m71.717,99.948c-.163-.266-.389-.489-.658-.648-.317-.17-.673-.252-1.032-.239-.602-.007-1.182.222-1.617.638-.457.436-.83.953-1.099,1.524-.299.622-.518,1.279-.653,1.955-.138.634-.211,1.28-.218,1.929-.047.793.16,1.58.591,2.248.421.563,1.097.876,1.798.835.539.009,1.064-.177,1.477-.524.393-.329.721-.728.969-1.177l.088-.16-.606-.42-.109.197c-.2.368-.465.697-.782.97-.283.245-.647.377-1.021.368-.472.026-.923-.199-1.186-.591-.32-.525-.472-1.135-.437-1.748,0-.253.015-.505.041-.757.021-.202.052-.41.093-.612h4.558l.031-.166c.057-.295.104-.601.145-.918.037-.258.058-.518.062-.778.002-.343-.031-.685-.099-1.022-.06-.32-.176-.627-.342-.907l.006.004Zm-1.715-.171c.218-.007.434.045.624.15.174.101.318.246.42.42.118.208.201.434.244.669.056.291.083.586.083.882,0,.186-.01.384-.031.591-.016.166-.041.342-.072.534h-3.76c.057-.239.135-.508.239-.812.136-.407.315-.798.534-1.166.203-.348.462-.66.767-.923.263-.232.603-.358.953-.353v.007Z" stroke-width="0"/><path id="q" d="m78.045,99.342c-.34-.204-.734-.302-1.13-.28-.574-.003-1.128.207-1.555.591-.459.409-.835.902-1.109,1.452-.306.613-.531,1.264-.669,1.936-.147.682-.222,1.377-.223,2.074-.031.765.15,1.525.523,2.194.374.596,1.046.939,1.748.892.393.001.779-.101,1.12-.295.361-.213.675-.497.922-.835l.093-.125-.461-.617-.16.228c-.183.264-.416.49-.687.664-.447.283-1.011.309-1.482.067-.19-.117-.349-.277-.466-.466-.138-.226-.233-.476-.28-.736-.06-.32-.089-.644-.088-.97.005-.606.065-1.21.181-1.805.112-.604.296-1.193.549-1.753.215-.484.517-.923.892-1.296.304-.31.722-.482,1.156-.477.242-.012.482.044.694.16.188.134.343.309.451.513l.109.197.624-.441-.099-.16c-.163-.277-.385-.516-.649-.699l-.004-.014Z" stroke-width="0"/><path id="r" d="m84.601,99.787c-.151-.221-.354-.401-.591-.524-.571-.271-1.234-.269-1.803.005-.268.135-.514.31-.731.518-.133.13-.256.271-.368.42l.974-5.507h-.788l-2.291,13.218h.788l.84-4.91c.073-.383.177-.759.312-1.124.134-.37.313-.722.534-1.047.198-.292.447-.546.736-.749.255-.183.561-.279.874-.275.184-.006.366.035.529.119.137.076.253.185.337.317.091.141.156.297.192.461.042.179.062.361.062.544,0,.341-.032.682-.099,1.017l-.99,5.655h.788l.98-5.59c.068-.359.102-.724.104-1.089-.002-.253-.032-.505-.089-.752-.056-.25-.158-.487-.3-.7v-.008Z" stroke-width="0"/><path id="s" d="m92.276,99.787c-.152-.22-.355-.399-.591-.524-.57-.273-1.234-.272-1.803.005-.267.136-.514.311-.731.518-.15.144-.285.302-.404.472.016-.114.031-.218.052-.322.026-.15.041-.275.057-.378l.026-.228h-.788l-.016.187c-.011.109-.026.254-.052.437s-.047.368-.077.565l-.083.576c-.026.187-.052.347-.077.477l-1.11,6.355h.788l.86-4.915c.058-.383.157-.759.295-1.12.134-.37.313-.722.534-1.047.196-.294.446-.548.736-.749.253-.182.558-.279.87-.275.184-.006.366.035.529.119.137.076.252.185.337.317.09.142.155.298.192.461.042.178.063.361.062.544,0,.341-.033.682-.099,1.017l-.99,5.662h.788l.974-5.59c.071-.359.105-.723.104-1.089-.001-.255-.031-.509-.088-.757-.059-.249-.161-.486-.3-.7l.004-.019Z" stroke-width="0"/><path id="t" d="m97.916,99.061c-.566-.001-1.112.21-1.529.591-.454.408-.824.902-1.088,1.452-.302.617-.526,1.268-.669,1.939-.152.684-.231,1.383-.233,2.084-.034.771.157,1.535.549,2.199.367.571,1.008.903,1.686.874.559,0,1.099-.205,1.519-.576.458-.395.835-.876,1.109-1.416.308-.601.539-1.239.687-1.898.159-.675.241-1.367.244-2.061.03-.784-.149-1.563-.518-2.255-.361-.616-1.038-.977-1.751-.934h-.004Zm-1.244,8.39c-.459.034-.897-.2-1.124-.601-.273-.533-.403-1.128-.378-1.727.003-.612.067-1.221.192-1.82.117-.605.301-1.194.549-1.758.209-.482.504-.921.871-1.296.286-.306.686-.478,1.104-.477.237-.006.471.051.679.166.196.117.359.283.471.482.14.242.234.507.28.783.06.341.09.686.088,1.032-.003.598-.067,1.194-.192,1.778-.118.591-.307,1.165-.562,1.711-.212.471-.508.9-.874,1.265-.291.298-.692.465-1.109.461h.005Z" stroke-width="0"/><path id="u" d="m101.533,107.928h.788l2.322-13.222h-.782l-2.327,13.222Z" stroke-width="0"/><path id="v" d="m108.721,99.061c-.566-.001-1.112.21-1.529.591-.454.408-.824.902-1.088,1.452-.302.617-.526,1.268-.669,1.939-.153.684-.231,1.383-.234,2.084-.034.771.157,1.535.549,2.199.367.571,1.008.903,1.686.874.559,0,1.099-.205,1.519-.576.458-.395.835-.876,1.109-1.416.308-.601.539-1.239.687-1.898.159-.675.241-1.367.244-2.061.03-.784-.149-1.563-.518-2.255-.361-.616-1.038-.977-1.751-.934h-.004Zm-1.244,8.39c-.459.034-.897-.2-1.124-.601-.273-.533-.403-1.128-.378-1.727.003-.612.067-1.221.192-1.82.117-.605.301-1.194.549-1.758.207-.483.502-.922.87-1.296.286-.306.686-.478,1.104-.477.237-.006.471.051.679.166.196.116.357.282.466.482.14.242.234.507.28.783.06.341.09.686.088,1.032-.003.598-.067,1.194-.192,1.778-.116.591-.305,1.166-.562,1.711-.212.471-.508.9-.874,1.265-.291.298-.692.465-1.109.461h.011Z" stroke-width="0"/><path id="w" d="m117.754,100.347c-.075-.213-.181-.415-.316-.596-.359-.469-.929-.727-1.519-.687-.578-.006-1.136.205-1.565.591-.451.406-.819.896-1.083,1.442-.297.613-.516,1.261-.653,1.929-.147.68-.221,1.373-.223,2.069-.032.765.138,1.525.493,2.204.337.59.98.938,1.658.897.352.004.699-.079,1.01-.244.285-.153.542-.355.757-.596.102-.113.197-.233.285-.358l-.052.275c-.114.601-.233,1.161-.368,1.654-.113.438-.276.86-.487,1.26-.166.311-.401.581-.687.788-.63.376-1.42.358-2.032-.047-.282-.21-.506-.49-.648-.812l-.099-.223-.643.43.057.155c.174.443.478.824.87,1.094.434.292.949.441,1.472.425.497.016.988-.109,1.415-.363.39-.251.711-.594.937-.999.258-.463.455-.958.586-1.472.15-.555.28-1.172.394-1.825l1.399-8.001h-.788l-.182,1.011.011-.002Zm-4.224,6.494c-.128-.231-.218-.481-.264-.741-.06-.325-.09-.655-.088-.985.004-.605.068-1.207.192-1.799.118-.604.307-1.192.562-1.753.214-.482.514-.922.886-1.296.296-.306.704-.479,1.13-.477.428-.019.827.214,1.021.596.263.542.388,1.14.363,1.742-.005.605-.071,1.207-.197,1.799-.121.604-.309,1.192-.562,1.753-.216.483-.518.922-.892,1.296-.291.301-.69.473-1.109.477-.211.005-.419-.048-.601-.155-.18-.109-.327-.265-.425-.451l-.015-.006Z" stroke-width="0"/><path id="x" d="m122.372,95.893c-.196-.007-.38.092-.482.259-.093.138-.143.3-.145.466-.039.277.154.532.43.571.031.004.062.006.093.004.184.002.358-.085.466-.234.109-.143.166-.32.16-.5.004-.135-.036-.268-.114-.378-.096-.132-.252-.206-.415-.197l.006.007Z" stroke-width="0"/><path id="y" d="m120.03,107.929h.787l1.492-8.592h-.787l-1.492,8.592Z" stroke-width="0"/><path id="z" d="m128.949,99.948c-.163-.266-.389-.489-.658-.648-.315-.169-.669-.251-1.026-.239-.602-.007-1.182.222-1.617.638-.457.436-.83.953-1.099,1.524-.296.623-.516,1.279-.653,1.955-.138.634-.211,1.28-.218,1.929-.047.793.16,1.58.591,2.248.421.563,1.097.876,1.798.835.539.009,1.064-.177,1.477-.524.393-.329.721-.728.969-1.177l.088-.16-.606-.42-.109.197c-.2.368-.465.697-.782.97-.283.245-.647.377-1.021.368-.472.026-.923-.198-1.186-.591-.32-.525-.472-1.135-.437-1.748,0-.253.015-.505.041-.757.021-.202.052-.41.088-.612h4.558l.031-.166c.057-.295.104-.601.145-.918.037-.258.058-.518.062-.778.002-.343-.031-.685-.099-1.022-.06-.32-.176-.627-.342-.907l.005.004Zm-1.715-.171c.218-.007.434.045.624.15.174.101.318.246.42.42.118.208.201.434.244.669.056.291.083.586.083.882,0,.186-.01.384-.031.591-.016.166-.041.342-.072.534h-3.757c.057-.239.135-.508.239-.812.136-.407.315-.798.534-1.166.203-.348.462-.66.767-.923.263-.232.603-.358.953-.353l-.003.007Z" stroke-width="0"/><path id="aa" d="m135.52,100.342l-.077-.15c-.166-.317-.406-.589-.699-.794-.359-.235-.784-.351-1.213-.332-.33,0-.656.074-.953.218-.293.137-.554.333-.767.576-.219.248-.389.535-.503.845-.121.329-.183.676-.181,1.027-.026.467.118.927.404,1.296.251.296.549.549.881.749.129.078.275.166.43.27.144.1.277.217.394.347.117.138.215.292.29.456.076.184.113.382.109.581,0,.276-.043.55-.13.812-.084.236-.208.455-.368.648-.153.177-.34.322-.549.425-.215.101-.45.152-.687.15-.303.013-.602-.075-.85-.25-.243-.189-.434-.437-.554-.721l-.099-.218-.643.43.067.155c.16.394.432.733.782.975.385.255.839.383,1.301.368.36.005.716-.071,1.042-.223.306-.143.578-.347.8-.601.225-.261.396-.564.503-.892.116-.35.174-.716.171-1.084.003-.269-.044-.536-.14-.788-.088-.226-.21-.436-.363-.624-.146-.183-.315-.347-.503-.488-.171-.129-.35-.248-.534-.358-.276-.153-.522-.355-.726-.596-.172-.232-.258-.516-.244-.804,0-.255.041-.508.125-.749.076-.223.19-.432.337-.617.14-.171.312-.312.508-.415.196-.105.415-.159.638-.155.269-.014.535.057.762.202.215.157.39.361.513.596l.114.202.611-.466v-.006Z" stroke-width="0"/><path id="ab" d="m134.867,110.266h.726l1.936-4.272h-.863l-1.798,4.272Z" stroke-width="0"/><path id="ac" d="m143.221,107.684l-.041.244h.788l2.109-12.169.047-.239h-.788l-2.115,12.164Z" stroke-width="0"/><path id="ad" d="m152.436,99.787c-.152-.22-.355-.399-.591-.524-.57-.273-1.234-.272-1.803.005-.268.136-.514.311-.731.518-.15.144-.285.302-.404.472.016-.114.031-.218.052-.322.026-.15.041-.275.057-.378l.026-.228h-.788l-.016.187c-.011.109-.026.254-.052.437s-.047.368-.077.565l-.083.576c-.026.187-.052.347-.077.477l-1.11,6.355h.788l.86-4.915c.058-.383.157-.759.295-1.12.133-.371.315-.723.539-1.047.196-.294.446-.548.736-.749.254-.183.561-.279.874-.275.184-.006.366.035.529.119.137.076.252.185.337.317.09.142.155.298.192.461.042.178.063.361.062.544,0,.341-.033.682-.099,1.017l-.99,5.662h.788l.976-5.593c.071-.359.105-.723.104-1.089-.001-.255-.031-.509-.088-.757-.057-.25-.159-.487-.3-.7l-.006-.016Z" stroke-width="0"/><path id="ae" d="m159.241,99.342c-.34-.204-.734-.302-1.13-.28-.574-.003-1.128.207-1.555.591-.458.407-.833.9-1.103,1.451-.306.613-.531,1.264-.669,1.936-.147.682-.222,1.377-.223,2.074-.031.765.15,1.525.523,2.194.374.596,1.046.939,1.748.892.393.001.779-.101,1.12-.295.361-.213.675-.497.922-.835l.093-.125-.461-.617-.16.228c-.183.264-.416.49-.687.664-.447.284-1.011.309-1.482.067-.19-.117-.349-.277-.466-.466-.138-.226-.233-.476-.28-.736-.06-.32-.089-.644-.088-.97.004-.606.065-1.21.181-1.805.112-.604.296-1.193.549-1.753.215-.484.517-.923.892-1.296.304-.31.722-.482,1.156-.477.242-.012.482.044.694.16.188.134.343.309.451.513l.109.197.624-.441-.099-.16c-.164-.278-.387-.517-.653-.7l-.007-.011Z" stroke-width="0"/></svg>