<?xml version="1.0" encoding="UTF-8"?><svg id="Layer_1" xmlns="http://www.w3.org/2000/svg" width="64" height="64" xmlns:xlink="http://www.w3.org/1999/xlink" viewBox="0 0 64 64"><defs><style>.cls-1,.cls-2,.cls-3,.cls-4{stroke:#4a2d86;stroke-linecap:round;stroke-linejoin:round;}.cls-1,.cls-2,.cls-5,.cls-4{fill:none;}.cls-2{stroke-width:.75px;}.cls-6{fill:url(#radial-gradient);}.cls-6,.cls-7,.cls-8,.cls-9,.cls-10,.cls-11,.cls-12,.cls-5{stroke-width:0px;}.cls-7{fill:url(#linear-gradient);opacity:.35;}.cls-8{fill:rgba(74,45,134,.75);isolation:isolate;opacity:.85;}.cls-3{stroke-width:.5px;}.cls-3,.cls-12{fill:#fff;}.cls-9{fill:url(#linear-gradient-2);}.cls-10{fill:url(#linear-gradient-3);}.cls-11{fill:#4a2d86;}.cls-5{opacity:.25;}.cls-4{stroke-width:.85px;}</style><linearGradient id="linear-gradient" x1="32.3" y1="64.033" x2="32.694" y2="59.048" gradientUnits="userSpaceOnUse"><stop offset="0" stop-color="#000"/><stop offset="1" stop-color="#000" stop-opacity="0"/></linearGradient><linearGradient id="linear-gradient-2" x1=".56" y1="51.588" x2="56.191" y2="13.933" gradientTransform="translate(0 66) scale(1 -1)" gradientUnits="userSpaceOnUse"><stop offset="0" stop-color="#4a2d86" stop-opacity="0"/><stop offset="1" stop-color="#4a2d86" stop-opacity=".35"/></linearGradient><radialGradient id="radial-gradient" cx="-470.518" cy="534.666" fx="-470.518" fy="534.666" r=".399" gradientTransform="translate(-34387.651 -96781.068) rotate(-158.235) scale(144.285 -144.285)" gradientUnits="userSpaceOnUse"><stop offset="0" stop-color="#fff" stop-opacity=".2"/><stop offset=".754" stop-color="#fff" stop-opacity=".1"/></radialGradient><linearGradient id="linear-gradient-3" x1="17.615" y1="62.06" x2="19.968" y2="56.217" gradientTransform="translate(0 66) scale(1 -1)" gradientUnits="userSpaceOnUse"><stop offset=".8" stop-color="#fff"/><stop offset="1" stop-color="#4a2d86" stop-opacity=".5"/></linearGradient></defs><polygon class="cls-7" points="64 62 17 64 1 61 33 60 64 62"/><path class="cls-12" d="m63.091,39.494L36.829,1.137c-.401-.599-1.303-.799-2.105-.499l-10.169,3.935c-.019-.011-.036-.031-.055-.041-.501-.2-1.103-.2-1.604,0l-1.504.599c-.401.2-.902,0-1.002-.3-.501-.899-1.804-1.199-3.007-.799-1.203.499-1.904,1.598-1.403,2.497.1.3-.1.699-.501.899l-1.504.599c-.583.194-.972.578-1.087,1.056l-.016-.057L1.747,13.323c-.902.4-1.403,1.199-1.203,1.898l15.136,46.747c.401,1.299,1.704,1.898,2.907,1.299l43.903-20.976c1.102-.5,1.303-1.798.602-2.797Z"/><path class="cls-9" d="m13.474,11.226L2.95,15.521l16.739,44.15,20.147-10.089c13.231-6.692,16.338-12.985,16.338-12.985,0,0-.601-4.295-5.012-10.688L34.724,2.436l-9.121,3.796-1.203-1.598,10.324-3.995c.802-.3,1.704-.1,2.105.499l26.262,38.357c.701.999.501,2.297-.602,2.797l-43.903,20.976c-1.203.599-2.506,0-2.907-1.299L.544,15.221c-.2-.699.301-1.498,1.203-1.898l11.126-4.295.601,2.198Z"/><path class="cls-6" d="m25.603,6.231l.301.499c.2.3,0,.699-.401.899l-10.725,4.195c-.401.2-.902,0-1.002-.3l-.1-.3L2.95,15.521l16.739,44.15,20.147-10.089c13.231-6.692,16.338-12.985,16.338-12.985,0,0-.601-4.295-5.012-10.688L34.724,2.435l-9.121,3.796Z"/><path class="cls-8" d="m51.062,25.909c4.41,6.393,5.012,10.688,5.012,10.688,0,0-3.007,6.393-16.339,12.985l20.548-10.288-9.222-13.385Z"/><path class="cls-10" d="m22.896,4.533l-1.504.599c-.401.2-.902,0-1.002-.3-.501-.899-1.804-1.199-3.007-.799-1.203.499-1.904,1.598-1.403,2.497.1.3-.1.699-.501.899l-1.504.599c-.601.2-1.002.599-1.103,1.099-.1.2,0,.4.1.699l.601,1.498.1.3c.1.3.601.499,1.002.3l10.725-4.195c.401-.2.601-.599.401-.899l-.301-.499-.501-1.299c-.1-.2-.301-.4-.501-.499-.501-.2-1.103-.2-1.604,0Zm-4.511,1.698c-.401.2-.902,0-1.002-.3-.1-.3.1-.699.501-.799.401-.2.902,0,1.002.3.1.3-.1.699-.501.799Z"/><path class="cls-1" d="m13.474,11.226L2.95,15.521l16.739,44.15,20.147-10.089c13.231-6.692,16.338-12.985,16.338-12.985,0,0-.601-4.295-5.012-10.688L34.724,2.436l-9.121,3.796-1.203-1.598,10.324-3.995c.802-.3,1.704-.1,2.105.499l26.262,38.357c.701.999.501,2.297-.602,2.797l-43.903,20.976c-1.203.599-2.506,0-2.907-1.299L.544,15.221c-.2-.699.301-1.498,1.203-1.898l11.126-4.295.601,2.198Z"/><path class="cls-1" d="m22.896,4.533l-1.504.599c-.401.2-.902,0-1.002-.3-.501-.899-1.804-1.199-3.007-.799-1.203.499-1.904,1.598-1.403,2.497.1.3-.1.699-.501.899l-1.504.599c-.601.2-1.002.599-1.103,1.099-.1.2,0,.4.1.699l.601,1.498.1.3c.1.3.601.499,1.002.3l10.725-4.195c.401-.2.601-.599.401-.899l-.301-.499-.501-1.299c-.1-.2-.301-.4-.501-.499-.501-.2-1.103-.2-1.604,0Z"/><path class="cls-3" d="m18.386,6.231c-.401.2-.902,0-1.002-.3-.1-.3.1-.699.501-.799.401-.2.902,0,1.002.3.1.3-.1.699-.501.799Z"/><path class="cls-11" d="m12.827,17.674c1.159,0,2.23.711,2.73,1.81.345.76.375,1.626.082,2.378-.273.699-.796,1.242-1.475,1.528-.338.143-.695.216-1.06.216-1.201,0-2.32-.789-2.783-1.962-.593-1.504.075-3.195,1.489-3.771.323-.132.666-.199,1.017-.199m0-.75c-.437,0-.878.082-1.3.254-1.791.729-2.657,2.832-1.903,4.741.593,1.504,2.008,2.437,3.48,2.437.453,0,.911-.088,1.352-.275,1.865-.789,2.647-3.006,1.784-4.907-.64-1.407-2.01-2.25-3.413-2.25h0Z"/><path class="cls-2" d="m11.67,20.959l1.451.716.765-2.349"/><path class="cls-2" d="m27.675,13.452c2.342-.967,4.662-1.925,6.961-2.874"/><path class="cls-2" d="m18.281,17.331c2.337-.965,4.653-1.921,6.948-2.869"/><path class="cls-2" d="m29.998,10.587l3.679-1.505"/><path class="cls-2" d="m24.106,12.997l3.231-1.322"/><path class="cls-2" d="m17.503,15.699l4.052-1.658"/><path class="cls-2" d="m33.003,13.202l2.615-1.09"/><path class="cls-2" d="m24.676,16.673l6.016-2.508"/><path class="cls-2" d="m19.08,19.005l2.813-1.173"/><line class="cls-2" x1="19.901" y1="20.725" x2="28.8" y2="16.98"/><path class="cls-11" d="m17.41,28.392c1.267,0,2.475.857,3.077,2.182.443.974.495,2.067.144,2.998-.282.747-.806,1.324-1.477,1.626-.341.154-.704.231-1.078.231-1.321,0-2.586-.957-3.148-2.382-.71-1.799-.058-3.793,1.453-4.445.324-.14.671-.211,1.029-.211m0-.85c-.463,0-.925.09-1.365.281-1.925.831-2.796,3.284-1.907,5.538.709,1.796,2.312,2.92,3.939,2.92.481,0,.964-.098,1.426-.306,2.011-.905,2.778-3.507,1.758-5.751-.76-1.673-2.308-2.68-3.851-2.68h0Z"/><path class="cls-4" d="m16.339,32.259l1.612.862.746-2.75"/><path class="cls-4" d="m33.489,23.675l7.445-3.262"/><path class="cls-4" d="m23.415,28.089l7.455-3.266"/><path class="cls-4" d="m35.883,20.367l3.93-1.704"/><path class="cls-4" d="m29.579,23.101l3.458-1.5"/><path class="cls-4" d="m22.499,26.171l4.346-1.884"/><path class="cls-4" d="m30.366,27.401c2.168-.96,9.634-4.266,11.72-5.19"/><path class="cls-4" d="m24.356,30.062l3.023-1.339"/><line class="cls-4" x1="25.325" y1="32.093" x2="39.95" y2="25.546"/><path class="cls-11" d="m22.832,41.11c1.362,0,2.762,1.066,3.484,2.654.998,2.197.443,4.73-1.213,5.53-.339.164-.701.247-1.078.247-1.452,0-2.891-1.174-3.58-2.921-.858-2.174-.245-4.546,1.366-5.288.32-.147.664-.222,1.023-.222m0-1c-.492,0-.98.101-1.441.314-2.081.958-2.943,3.863-1.878,6.563.859,2.178,2.7,3.554,4.511,3.554.515,0,1.027-.111,1.514-.346,2.181-1.054,2.911-4.154,1.689-6.844-.917-2.018-2.684-3.24-4.394-3.24h0Z"/><path class="cls-1" d="m21.894,45.705l1.811,1.052.707-3.268"/><path class="cls-1" d="m40.359,35.754c2.695-1.263,5.361-2.513,7.999-3.749"/><path class="cls-1" d="m29.501,40.844c2.708-1.269,5.388-2.525,8.039-3.768"/><path class="cls-1" d="m42.813,31.884l4.217-1.953"/><path class="cls-1" d="m36.037,35.023l3.719-1.723"/><path class="cls-1" d="m28.409,38.556l4.684-2.17"/><path class="cls-1" d="m46.721,35.567l3.005-1.426"/><path class="cls-1" d="m42.112,40.679l3.118-1.498"/><path class="cls-1" d="m30.627,43.203c2.399-1.138,11.141-5.286,13.434-6.374"/><line class="cls-1" x1="31.789" y1="45.638" x2="39.339" y2="42.011"/><rect class="cls-5" width="64" height="64"/></svg>