<?xml version="1.0" encoding="UTF-8"?><svg id="a" xmlns="http://www.w3.org/2000/svg" width="64" height="62" viewBox="0 0 64 62"><defs><style>.b{fill:#4a2d86;stroke-width:0px;}</style></defs><path class="b" d="m5.912,52.545c-1.363-1.411-2.202-3.341-2.204-5.483v-7.98H0v7.98c.002,6.398,5.029,11.588,11.221,11.592h5.066v-3.831h-5.066c-2.075-.001-3.941-.867-5.309-2.278Z"/><path class="b" d="m10.741,28.406c2.704,0,4.893-2.261,4.893-5.056s-2.188-5.056-4.893-5.056-4.894,2.265-4.894,5.056,2.192,5.056,4.894,5.056Z"/><path class="b" d="m22.396,45.631h-6.866v-10.557c0-2.733-2.142-4.948-4.788-4.948s-4.787,2.215-4.787,4.948v12.028c0,2.732,2.143,4.947,4.787,4.947.359,0,8.753-.025,8.753-.025l.459,7.32c.032,1.499,1.235,2.688,2.687,2.656,1.453-.033,2.603-1.276,2.57-2.776l.279-10.396c0-1.767-1.384-3.196-3.094-3.196Z"/><path class="b" d="m60.292,39.082v7.98c-.002,2.143-.841,4.072-2.204,5.483-1.368,1.411-3.234,2.277-5.308,2.278h-5.068v3.831h5.068c6.191-.005,11.216-5.195,11.219-11.592v-7.98h-3.708Z"/><path class="b" d="m53.258,28.406c2.702,0,4.894-2.261,4.894-5.056s-2.192-5.056-4.894-5.056-4.893,2.265-4.893,5.056c0,2.795,2.189,5.056,4.893,5.056Z"/><path class="b" d="m58.047,47.102v-12.028c0-2.733-2.146-4.948-4.788-4.948s-4.788,2.215-4.788,4.948v10.557h-6.866c-1.709,0-3.094,1.429-3.094,3.196l.279,10.396c-.033,1.499,1.116,2.742,2.57,2.776,1.451.032,2.654-1.157,2.687-2.656l.459-7.32s8.394.025,8.753.025c2.644,0,4.788-2.215,4.788-4.947Z"/><rect class="b" x="19.206" y="39.13" width="26.548" height="4.668"/><rect class="b" x="30.506" y="46.303" width="3.089" height="11.298"/><path class="b" d="m44.949,18.526c0,.941-.294,1.826-.835,2.621-.54.796-1.334,1.492-2.308,2.009l-.711.377.922,2.129c-2.796-.5-5.391-1.44-6.702-1.966l-.026-.011-.028-.008c-1.758-.571-3.131-1.69-3.828-3.013l-1.481.838c.947,1.776,2.665,3.125,4.753,3.816v.002c1.622.649,5.031,1.883,8.613,2.299l1.464.167-1.513-3.497c.889-.578,1.651-1.295,2.224-2.138.718-1.052,1.143-2.297,1.142-3.623.002-1.65-.658-3.171-1.721-4.361-1.064-1.195-2.531-2.084-4.214-2.56l-.444,1.681c1.407.394,2.598,1.134,3.416,2.058.823.928,1.277,2.011,1.277,3.182Z"/><path class="b" d="m20.215,18.134l-2.028,4.685,1.465-.168c5.058-.584,9.901-2.334,12.2-3.255,2.185-.723,4.07-1.955,5.427-3.558,1.369-1.613,2.197-3.618,2.196-5.785,0-1.418-.354-2.771-.983-3.985-.943-1.823-2.496-3.337-4.417-4.396-1.919-1.06-4.214-1.671-6.678-1.671-3.282.002-6.269,1.083-8.468,2.878-1.098.897-1.998,1.975-2.629,3.19-.628,1.214-.981,2.568-.981,3.985-.002,1.808.578,3.507,1.562,4.956.845,1.238,1.988,2.297,3.334,3.125Zm-2.426-11.244c.76-1.473,2.058-2.763,3.725-3.683,1.665-.919,3.692-1.466,5.883-1.464,2.921-.002,5.551.97,7.423,2.5.935.765,1.679,1.665,2.186,2.647.508.983.783,2.046.783,3.164-.002,1.704-.639,3.292-1.778,4.639-1.137,1.344-2.776,2.431-4.718,3.062l-.024.008-.026.011c-1.991.797-6.017,2.252-10.296,2.939l1.451-3.349-.712-.377c-1.437-.761-2.614-1.791-3.422-2.981-.809-1.191-1.257-2.527-1.258-3.952.001-1.118.275-2.18.785-3.164Z"/></svg>