<?xml version="1.0" encoding="UTF-8"?><svg id="a" xmlns="http://www.w3.org/2000/svg" width="58" height="64" viewBox="0 0 58 64"><defs><style>.b{fill:#4a2d86;stroke-width:0px;}</style></defs><polygon class="b" points="21.602 58.713 36.614 58.713 37.353 54.919 20.853 54.919 21.602 58.713"/><path class="b" d="m28.917,64c2.708,0,4.904-1.603,4.904-3.581h-9.808c0,1.978,2.196,3.581,4.904,3.581Z"/><path class="b" d="m7.724,46.959c.435.461.888.911,1.354,1.345l3.183-3.427c-.349-.326-.69-.665-1.019-1.011l-3.518,3.093Z"/><path class="b" d="m.02,26.51c-.013.351-.02.704-.02,1.058,0,.282.004.565.013.849l3.367-.172h1.349c-.006-.226-.01-.452-.01-.677,0-.267.004-.533.013-.798L.02,26.51Z"/><path class="b" d="m12.423,10.15l-3.153-3.453c-.472.432-.929.878-1.365,1.332l3.49,3.125c.334-.345.678-.68,1.029-1.004Z"/><path class="b" d="m29.02,4.639c.265,0,.53.004.793.012L30.062.018c-.348-.012-.701-.018-1.049-.018-.298,0-.593.004-.88.013l.293,4.633c.198-.004.396-.007.593-.007Z"/><path class="b" d="m57.985,26.706l-4.714.238c.006.222.009.444.009.665,0,.283-.005.566-.015.847l4.713.268c.015-.37.022-.742.022-1.115,0-.298-.005-.597-.015-.903Z"/><path class="b" d="m45.703,10.268c.352.328.692.664,1.019,1.007l3.514-3.098c-.437-.461-.892-.911-1.359-1.344l-3.174,3.435Z"/><path class="b" d="m45.543,45.06l3.142,3.462c.47-.426.928-.872,1.371-1.332l-3.485-3.13c-.332.343-.677.678-1.028,1Z"/><path class="b" d="m42.086,15.622c-3.35-3.293-7.979-5.328-13.087-5.328s-9.737,2.035-13.077,5.328c-3.35,3.293-5.42,7.843-5.42,12.864,0,5.277,2.684,11.473,6.044,14.684,2.778,2.659,4.224,4.561,4.973,5.89h-1.987l.832,4.223h17.488l.822-4.223h-2.195c.749-1.329,2.195-3.231,4.973-5.89,3.36-3.211,6.044-9.408,6.044-14.684,0-5.021-2.07-9.571-5.41-12.864Zm-14.803,30.961c-.059.023-.12.039-.182.046-.247.03-.492-.066-.598-.252l-4.868-8.514c-.133-.232.002-.515.3-.633.298-.118.648-.026.78.206l4.868,8.514c.133.232-.002.515-.301.633Zm-.084-27.157c-1.477.603-2.799,1.483-3.953,2.608-1.144,1.135-2.039,2.444-2.653,3.886-.51,1.207-1.685,1.933-2.934,1.933-.406,0-.822-.072-1.217-.235-1.623-.665-2.393-2.485-1.716-4.08.926-2.219,2.289-4.203,4.026-5.921,1.748-1.708,3.766-3.037,6.023-3.958,1.613-.654,3.475.092,4.151,1.687.666,1.595-.104,3.426-1.727,4.08Zm9.154,18.093l-5.384,8.754c-.117.191-.369.299-.614.28-.061-.005-.121-.017-.179-.037-.291-.104-.409-.382-.263-.62l5.383-8.754c.147-.238.502-.347.794-.243.292.104.41.382.263.62Z"/></svg>