<?xml version="1.0" encoding="UTF-8"?><svg id="a" xmlns="http://www.w3.org/2000/svg" width="384" height="256" viewBox="0 0 384 256"><defs><style>.b{fill:none;stroke:#4a2d86;stroke-linecap:round;stroke-linejoin:round;stroke-width:2px;}.c{opacity:.5;}.d{fill:#4a2d86;}.d,.e,.f,.g{stroke-width:0px;}.e{fill:#201339;}.f{fill:#ecedf9;}.g{fill:#fff;}</style></defs><rect class="d" x="128" y="144" width="128" height="48" rx="4" ry="4"/><path class="d" d="m268,128h-2c-.276,0-.5.224-.5.5s.224.5.5.5h2c.276,0,.5-.224.5-.5s-.224-.5-.5-.5h0Zm-6,0h-2c-.276,0-.5.224-.5.5s.224.5.5.5h2c.276,0,.5-.224.5-.5s-.224-.5-.5-.5h0Zm-6,0h-2c-.276,0-.5.224-.5.5s.224.5.5.5h2c.276,0,.5-.224.5-.5s-.224-.5-.5-.5h0Zm-6,0h-2c-.276,0-.5.224-.5.5s.224.5.5.5h2c.276,0,.5-.224.5-.5s-.224-.5-.5-.5h0Zm-6,0h-2c-.276,0-.5.224-.5.5s.224.5.5.5h2c.276,0,.5-.224.5-.5s-.224-.5-.5-.5h0Zm-6,0h-2c-.276,0-.5.224-.5.5s.224.5.5.5h2c.276,0,.5-.224.5-.5s-.224-.5-.5-.5h0Zm-6,0h-2c-.276,0-.5.224-.5.5s.224.5.5.5h2c.276,0,.5-.224.5-.5s-.224-.5-.5-.5h0Zm-6,0h-2c-.276,0-.5.224-.5.5s.224.5.5.5h2c.276,0,.5-.224.5-.5s-.224-.5-.5-.5h0Zm-6,0h-2c-.276,0-.5.224-.5.5s.224.5.5.5h2c.276,0,.5-.224.5-.5s-.224-.5-.5-.5h0Zm-6,0h-2c-.276,0-.5.224-.5.5s.224.5.5.5h2c.276,0,.5-.224.5-.5s-.224-.5-.5-.5h0Zm-6,0h-2c-.276,0-.5.224-.5.5s.224.5.5.5h2c.276,0,.5-.224.5-.5s-.224-.5-.5-.5h0Zm-6,0h-2c-.276,0-.5.224-.5.5s.224.5.5.5h2c.276,0,.5-.224.5-.5s-.224-.5-.5-.5h0Zm-6,0h-2c-.276,0-.5.224-.5.5s.224.5.5.5h2c.276,0,.5-.224.5-.5s-.224-.5-.5-.5h0Zm-6,0h-2c-.276,0-.5.224-.5.5s.224.5.5.5h2c.276,0,.5-.224.5-.5s-.224-.5-.5-.5h0Zm-6,0h-2c-.276,0-.5.224-.5.5s.224.5.5.5h2c.276,0,.5-.224.5-.5s-.224-.5-.5-.5h0Zm-6,0h-2c-.276,0-.5.224-.5.5s.224.5.5.5h2c.276,0,.5-.224.5-.5s-.224-.5-.5-.5h0Zm-6,0h-2c-.276,0-.5.224-.5.5s.224.5.5.5h2c.276,0,.5-.224.5-.5s-.224-.5-.5-.5h0Zm-6,0h-2c-.276,0-.5.224-.5.5s.224.5.5.5h2c.276,0,.5-.224.5-.5s-.224-.5-.5-.5h0Zm-6,0h-2c-.276,0-.5.224-.5.5s.224.5.5.5h2c.276,0,.5-.224.5-.5s-.224-.5-.5-.5h0Zm-6,0h-2c-.276,0-.5.224-.5.5s.224.5.5.5h2c.276,0,.5-.224.5-.5s-.224-.5-.5-.5h0Zm-6,0h-2c-.276,0-.5.224-.5.5s.224.5.5.5h2c.276,0,.5-.224.5-.5s-.224-.5-.5-.5h0Zm-6,0h-2c-.276,0-.5.224-.5.5s.224.5.5.5h2c.276,0,.5-.224.5-.5s-.224-.5-.5-.5h0Zm-6,0h-2c-.276,0-.5.224-.5.5s.224.5.5.5h2c.276,0,.5-.224.5-.5s-.224-.5-.5-.5h0Zm-6,0h-2c-.276,0-.5.224-.5.5s.224.5.5.5h2c.276,0,.5-.224.5-.5s-.224-.5-.5-.5h0Zm-6,0h-2c-.276,0-.5.224-.5.5s.224.5.5.5h2c.276,0,.5-.224.5-.5s-.224-.5-.5-.5h0Zm-6,0h-2c-.276,0-.5.224-.5.5s.224.5.5.5h2c.276,0,.5-.224.5-.5s-.224-.5-.5-.5h0Zm-4.945,1.609c-.163,0-.323.08-.419.227-.054.084-.105.17-.153.258t0,0s-.002.003-.003.005c0,0,0,0,0,0,0,.002-.002.003-.003.005,0,0,0,0,0,0-.003.005-.005.01-.008.015,0,0,0,.001,0,.002,0,.001-.001.003-.002.004,0,0,0,.001-.001.002,0,.001-.001.003-.002.004,0,0,0,.001,0,.002-.001.002-.003.005-.004.007,0,0,0,.002-.001.002,0,.001-.001.002-.002.004,0,0,0,.002-.001.003,0,.001-.001.002-.002.003,0,0,0,.002-.001.003,0,.001-.001.002-.002.003,0,.001-.001.003-.002.004l-.002.004s-.001.003-.002.004c0,0,0,.002-.001.003,0,.001-.001.003-.002.004,0,0,0,.001-.001.002,0,.002-.002.003-.002.005,0,0,0,.001,0,.002-.001.002-.002.004-.003.006,0,0,0,0,0,0,0,.002-.002.004-.003.005,0,0,0,.001,0,.002,0,.002-.002.003-.002.005,0,0,0,.001,0,.002-.001.002-.002.004-.003.006,0,0,0,0,0,0-.001.002-.002.004-.003.007,0,0,0,0,0,0,0,.002-.002.004-.003.006,0,0,0,0,0,.001-.001.002-.002.004-.003.006h0s-.005.009-.007.014h0s-.002.004-.003.007c0,0,0,0,0,0-.218.448-.354.942-.391,1.464-.019.275.188.514.464.534.012,0,.024.001.035.001.26,0,.48-.202.498-.465.035-.5.197-.986.467-1.407.149-.232.082-.542-.15-.691-.084-.054-.177-.08-.27-.08h0Zm-.555,5.607c-.276,0-.5.224-.5.5v2c0,.276.224.5.5.5s.5-.224.5-.5v-2c0-.276-.224-.5-.5-.5h0Zm0,6c-.276,0-.5.224-.5.5v2c0,.276.224.5.5.5s.5-.224.5-.5v-2c0-.276-.224-.5-.5-.5h0Zm0,6c-.276,0-.5.224-.5.5v2c0,.276.224.5.5.5s.5-.224.5-.5v-2c0-.276-.224-.5-.5-.5h0Zm0,6c-.276,0-.5.224-.5.5v2c0,.276.224.5.5.5s.5-.224.5-.5v-2c0-.276-.224-.5-.5-.5h0Zm0,6c-.276,0-.5.224-.5.5v2c0,.276.224.5.5.5s.5-.224.5-.5v-2c0-.276-.224-.5-.5-.5h0Zm0,6c-.276,0-.5.224-.5.5v2c0,.276.224.5.5.5s.5-.224.5-.5v-2c0-.276-.224-.5-.5-.5h0Zm0,6c-.276,0-.5.224-.5.5v2c0,.276.224.5.5.5s.5-.224.5-.5v-2c0-.276-.224-.5-.5-.5h0Zm0,6c-.276,0-.5.224-.5.5v2c0,.276.224.5.5.5s.5-.224.5-.5v-2c0-.276-.224-.5-.5-.5h0Zm0,6c-.276,0-.5.224-.5.5v2c0,.276.224.5.5.5s.5-.224.5-.5v-2c0-.276-.224-.5-.5-.5h0Zm0,6c-.276,0-.5.224-.5.5v2c0,.276.224.5.5.5s.5-.224.5-.5v-2c0-.276-.224-.5-.5-.5h0Zm0,6c-.276,0-.5.224-.5.5v2c0,.276.224.5.5.5s.5-.224.5-.5v-2c0-.276-.224-.5-.5-.5h0Zm0,6c-.276,0-.5.224-.5.5v2c0,.276.224.5.5.5s.5-.224.5-.5v-2c0-.276-.224-.5-.5-.5h0Zm0,6c-.276,0-.5.224-.5.5v2c0,.276.224.5.5.5s.5-.224.5-.5v-2c0-.276-.224-.5-.5-.5h0Zm0,6c-.276,0-.5.224-.5.5v2c0,.276.224.5.5.5s.5-.224.5-.5v-2c0-.276-.224-.5-.5-.5h0Zm0,6c-.276,0-.5.224-.5.5v2c0,.276.224.5.5.5s.5-.224.5-.5v-2c0-.276-.224-.5-.5-.5h0Zm0,6c-.276,0-.5.224-.5.5v2c0,.276.224.5.5.5s.5-.224.5-.5v-2c0-.276-.224-.5-.5-.5h0Zm0,6c-.276,0-.5.224-.5.5v2c0,.276.224.5.5.5s.5-.224.5-.5v-2c0-.276-.224-.5-.5-.5h0Zm0,6c-.276,0-.5.224-.5.5v2c0,.276.224.5.5.5s.5-.224.5-.5v-2c0-.276-.224-.5-.5-.5h0Zm0,6c-.276,0-.5.224-.5.5v2c0,.276.224.5.5.5s.5-.224.5-.5v-2c0-.276-.224-.5-.5-.5h0Zm0,6c-.276,0-.5.224-.5.5v2c0,.276.224.5.5.5s.5-.224.5-.5v-2c0-.276-.224-.5-.5-.5h0Zm1.405,5.088c-.152,0-.302.069-.401.2-.165.22-.121.533.099.699.051.038.102.075.155.111,0,0,0,0,0,0,.002.001.003.002.005.003,0,0,0,0,0,0,.005.003.009.006.014.009,0,0,0,0,0,0l.004.003s0,0,.001,0c.005.003.009.006.014.009,0,0,0,0,0,0,.001,0,.003.002.004.003,0,0,.001,0,.002.001.001,0,.003.002.004.003,0,0,.001,0,.001,0,.004.003.008.005.012.008,0,0,.002.001.002.002.001,0,.002.001.003.002,0,0,.002.001.003.002,0,0,.002.001.003.002.001,0,.002.001.003.002.001,0,.002.001.003.002.002.001.003.002.005.003,0,0,.002,0,.002.001.001,0,.002.002.004.002,0,0,.002.001.003.002.001,0,.002.001.003.002,0,0,.002.001.003.002.002.001.004.002.006.003,0,0,.001,0,.002.001.001,0,.003.002.004.003,0,0,.002,0,.002.001.001,0,.003.002.004.002,0,0,.001,0,.002.001.002.001.003.002.005.003,0,0,0,0,0,0,.002.001.004.003.006.004,0,0,0,0,.001,0,.002,0,.003.002.005.003,0,0,.001,0,.002.001.002,0,.003.002.005.003,0,0,.001,0,.001,0,.002.001.004.003.006.004,0,0,0,0,0,0,.002.001.004.002.006.004,0,0,0,0,.001,0,.002.001.003.002.005.003,0,0,0,0,.001,0,.006.004.013.008.019.011,0,0,0,0,0,0,.002.001.004.002.006.003,0,0,0,0,0,0,.004.003.009.005.013.008,0,0,0,0,0,0,.002.001.004.002.006.004,0,0,0,0,0,0,.007.004.013.008.02.011,0,0,0,0,0,0,.002.001.004.002.006.004,0,0,0,0,0,0,.007.004.013.008.02.011,0,0,0,0,0,0,.009.005.018.01.027.015,0,0,0,0,0,0,.112.063.228.121.346.173h0c.009.004.019.008.028.012h0c.007.003.014.006.021.009,0,0,0,0,0,0,.007.003.014.006.021.009,0,0,0,0,0,0,.002,0,.004.002.006.003,0,0,0,0,0,0,.007.003.014.006.021.009,0,0,0,0,0,0,.002,0,.004.002.006.003,0,0,0,0,0,0,.005.002.009.004.014.006,0,0,0,0,0,0,.002,0,.004.002.006.002,0,0,0,0,.001,0,.002,0,.004.002.006.002,0,0,0,0,0,0,.005.002.009.004.014.005,0,0,0,0,.001,0,.002,0,.004.001.006.002,0,0,0,0,.001,0,.005.002.009.004.014.005,0,0,0,0,.001,0,.002,0,.004.001.006.002,0,0,.001,0,.002,0,.002,0,.004.001.005.002,0,0,0,0,.001,0,.005.002.009.003.014.005,0,0,.001,0,.002,0,.002,0,.003.001.005.002,0,0,.001,0,.002,0,.002,0,.004.001.006.002,0,0,0,0,.001,0,.002,0,.005.002.007.003,0,0,0,0,0,0,.002,0,.004.002.006.002,0,0,.001,0,.002,0,.002,0,.004.001.005.002,0,0,.001,0,.002,0,.002,0,.004.002.006.002,0,0,0,0,0,0,.002,0,.004.002.007.002,0,0,.001,0,.002,0,.002,0,.003.001.005.002,0,0,.001,0,.002,0,.002,0,.003.001.005.002,0,0,.001,0,.002,0,.002,0,.004.002.007.002,0,0,.001,0,.002,0,.002,0,.003.001.005.002,0,0,.002,0,.002,0,.001,0,.003.001.004.002,0,0,.002,0,.003,0,.002,0,.003.001.005.002,0,0,0,0,.002,0,.002,0,.004.001.006.002,0,0,.002,0,.003,0,.001,0,.003,0,.004.001,0,0,.002,0,.003,0,.001,0,.003,0,.004.001,0,0,.002,0,.003,0,.002,0,.004.001.006.002,0,0,0,0,.001,0,.002,0,.003.001.005.002,0,0,.002,0,.003,0,.001,0,.003,0,.004.001,0,0,.002,0,.003,0,.001,0,.003,0,.004.001,0,0,.002,0,.002,0,.002,0,.004.001.006.002,0,0,.002,0,.003,0,.001,0,.003,0,.004.001.001,0,.002,0,.003.001.001,0,.003,0,.004.001,0,0,.002,0,.003,0,.002,0,.003.001.005.002.001,0,.003,0,.004.001.001,0,.003,0,.004.001,0,0,.002,0,.003.001.001,0,.002,0,.003.001.001,0,.002,0,.003.001.001,0,.002,0,.004.001,0,0,.002,0,.003,0,.002,0,.004.001.006.002.001,0,.002,0,.003,0,.001,0,.002,0,.004.001.001,0,.002,0,.003.001.001,0,.002,0,.004.001.001,0,.002,0,.003.001.001,0,.002,0,.003.001.002,0,.004.001.005.002.001,0,.003,0,.004.001.001,0,.002,0,.004.001.001,0,.002,0,.003,0,.001,0,.002,0,.004.001,0,0,.002,0,.003,0,.001,0,.003,0,.004.001,0,0,.002,0,.003,0,.002,0,.005.001.007.002.001,0,.002,0,.003,0,.001,0,.003,0,.004.001,0,0,.002,0,.003,0,.001,0,.003,0,.004.001,0,0,.002,0,.003,0,.003,0,.006.002.009.003,0,0,0,0,.001,0,.001,0,.003,0,.004.001,0,0,.002,0,.002,0,.001,0,.003,0,.004.001,0,0,.002,0,.003,0,.001,0,.003,0,.004.001,0,0,.001,0,.002,0,.003,0,.006.002.009.002,0,0,.001,0,.002,0,.001,0,.003,0,.004.001,0,0,.001,0,.002,0,.002,0,.003,0,.004.001,0,0,.001,0,.002,0,.005.001.01.003.016.004,0,0,0,0,.001,0,.002,0,.003,0,.005.001,0,0,.001,0,.002,0,.001,0,.003,0,.005.001,0,0,0,0,.001,0,.005.001.01.003.016.004,0,0,.001,0,.002,0,.001,0,.003,0,.005.001,0,0,.001,0,.002,0,.005.001.01.003.015.004,0,0,.001,0,.002,0,.002,0,.003,0,.004.001,0,0,.002,0,.002,0,.001,0,.003,0,.004.001,0,0,.001,0,.002,0,.005.001.01.003.015.004,0,0,.001,0,.002,0,.002,0,.003,0,.005.001,0,0,.001,0,.002,0,.002,0,.003,0,.005.001,0,0,0,0,0,0,.003,0,.007.002.01.002,0,0,.001,0,.002,0,.002,0,.003,0,.005.001,0,0,.001,0,.002,0,.002,0,.003,0,.005.001,0,0,.001,0,.002,0,.005.001.01.002.016.004,0,0,.001,0,.002,0,.002,0,.003,0,.005.001,0,0,.001,0,.002,0,.002,0,.003,0,.005.001,0,0,.001,0,.002,0,.003,0,.007.002.01.002,0,0,0,0,0,0,.002,0,.003,0,.005.001,0,0,.001,0,.002,0,.002,0,.003,0,.005.001,0,0,.001,0,.002,0,.005.001.011.002.016.004,0,0,.001,0,.002,0,.002,0,.003,0,.005.001,0,0,.001,0,.002,0,.002,0,.003,0,.005.001,0,0,.001,0,.002,0,.005.001.01.002.016.003,0,0,.001,0,.002,0,.002,0,.003,0,.005,0,0,0,.001,0,.002,0,.002,0,.003,0,.005,0,0,0,0,0,0,0,.004,0,.007.001.01.002,0,0,0,0,.002,0,.001,0,.003,0,.004,0,0,0,.002,0,.003,0,.001,0,.003,0,.004,0,0,0,.002,0,.002,0,.005,0,.01.002.015.003,0,0,.002,0,.003,0,.001,0,.003,0,.004,0,0,0,.002,0,.003,0,.001,0,.003,0,.004,0,0,0,.002,0,.003,0,.002,0,.005,0,.007.001,0,0,.002,0,.003,0,.001,0,.003,0,.004,0,0,0,.002,0,.003,0,.001,0,.003,0,.004,0,.001,0,.002,0,.003,0,.001,0,.003,0,.004,0,0,0,.002,0,.003,0,.002,0,.005,0,.007.001,0,0,.002,0,.003,0,.001,0,.003,0,.004,0,.001,0,.002,0,.003,0,.001,0,.002,0,.004,0,.001,0,.003,0,.004,0,.001,0,.003,0,.004,0,.002,0,.004,0,.006,0,.001,0,.002,0,.003,0,.001,0,.002,0,.004,0,.001,0,.002,0,.004,0,.001,0,.002,0,.003,0,.001,0,.002,0,.003,0,.001,0,.003,0,.004,0,.002,0,.003,0,.005,0,.001,0,.003,0,.004,0,.001,0,.002,0,.003,0,.001,0,.003,0,.004,0,.001,0,.002,0,.003,0h.004s.002.001.003.001c.002,0,.004,0,.007.001,0,0,.002,0,.003,0,.001,0,.003,0,.004,0,.001,0,.002,0,.003,0,.001,0,.003,0,.004,0,.001,0,.002,0,.003,0,.002,0,.004,0,.006,0,0,0,.001,0,.002,0,.002,0,.004,0,.006,0,0,0,.002,0,.003,0,.002,0,.003,0,.005,0,0,0,.002,0,.002,0,.002,0,.003,0,.005,0,0,0,.001,0,.002,0,.002,0,.005,0,.007.001,0,0,0,0,.001,0,.002,0,.004,0,.006,0,0,0,.002,0,.002,0,.002,0,.003,0,.005,0,0,0,.002,0,.002,0,.002,0,.004,0,.006,0,0,0,0,0,0,0,.024.003.047.005.071.005.245,0,.459-.18.494-.43.039-.273-.152-.526-.425-.565-.495-.07-.968-.266-1.37-.567-.09-.067-.195-.1-.299-.1h0Zm7.527.696h-2c-.276,0-.5.224-.5.5s.224.5.5.5h2c.276,0,.5-.224.5-.5s-.224-.5-.5-.5h0Zm6,0h-2c-.276,0-.5.224-.5.5s.224.5.5.5h2c.276,0,.5-.224.5-.5s-.224-.5-.5-.5h0Zm6,0h-2c-.276,0-.5.224-.5.5s.224.5.5.5h2c.276,0,.5-.224.5-.5s-.224-.5-.5-.5h0Zm6,0h-2c-.276,0-.5.224-.5.5s.224.5.5.5h2c.276,0,.5-.224.5-.5s-.224-.5-.5-.5h0Zm6,0h-2c-.276,0-.5.224-.5.5s.224.5.5.5h2c.276,0,.5-.224.5-.5s-.224-.5-.5-.5h0Zm6,0h-2c-.276,0-.5.224-.5.5s.224.5.5.5h2c.276,0,.5-.224.5-.5s-.224-.5-.5-.5h0Zm6,0h-2c-.276,0-.5.224-.5.5s.224.5.5.5h2c.276,0,.5-.224.5-.5s-.224-.5-.5-.5h0Zm6,0h-2c-.276,0-.5.224-.5.5s.224.5.5.5h2c.276,0,.5-.224.5-.5s-.224-.5-.5-.5h0Zm6,0h-2c-.276,0-.5.224-.5.5s.224.5.5.5h2c.276,0,.5-.224.5-.5s-.224-.5-.5-.5h0Zm6,0h-2c-.276,0-.5.224-.5.5s.224.5.5.5h2c.276,0,.5-.224.5-.5s-.224-.5-.5-.5h0Zm6,0h-2c-.276,0-.5.224-.5.5s.224.5.5.5h2c.276,0,.5-.224.5-.5s-.224-.5-.5-.5h0Zm6,0h-2c-.276,0-.5.224-.5.5s.224.5.5.5h2c.276,0,.5-.224.5-.5s-.224-.5-.5-.5h0Zm6,0h-2c-.276,0-.5.224-.5.5s.224.5.5.5h2c.276,0,.5-.224.5-.5s-.224-.5-.5-.5h0Zm6,0h-2c-.276,0-.5.224-.5.5s.224.5.5.5h2c.276,0,.5-.224.5-.5s-.224-.5-.5-.5h0Zm6,0h-2c-.276,0-.5.224-.5.5s.224.5.5.5h2c.276,0,.5-.224.5-.5s-.224-.5-.5-.5h0Zm6,0h-2c-.276,0-.5.224-.5.5s.224.5.5.5h2c.276,0,.5-.224.5-.5s-.224-.5-.5-.5h0Zm6,0h-2c-.276,0-.5.224-.5.5s.224.5.5.5h2c.276,0,.5-.224.5-.5s-.224-.5-.5-.5h0Zm6,0h-2c-.276,0-.5.224-.5.5s.224.5.5.5h2c.276,0,.5-.224.5-.5s-.224-.5-.5-.5h0Zm6,0h-2c-.276,0-.5.224-.5.5s.224.5.5.5h2c.276,0,.5-.224.5-.5s-.224-.5-.5-.5h0Zm6,0h-2c-.276,0-.5.224-.5.5s.224.5.5.5h2c.276,0,.5-.224.5-.5s-.224-.5-.5-.5h0Zm6,0h-2c-.276,0-.5.224-.5.5s.224.5.5.5h2c.276,0,.5-.224.5-.5s-.224-.5-.5-.5h0Zm6,0h-2c-.276,0-.5.224-.5.5s.224.5.5.5h2c.276,0,.5-.224.5-.5s-.224-.5-.5-.5h0Zm6,0h-2c-.276,0-.5.224-.5.5s.224.5.5.5h2c.276,0,.5-.224.5-.5s-.224-.5-.5-.5h0Zm6,0h-2c-.276,0-.5.224-.5.5s.224.5.5.5h2c.276,0,.5-.224.5-.5s-.224-.5-.5-.5h0Zm6,0h-2c-.276,0-.5.224-.5.5s.224.5.5.5h2c.276,0,.5-.224.5-.5s-.224-.5-.5-.5h0Zm5.216-1.211c-.14,0-.279.059-.378.173-.329.38-.75.674-1.218.849-.259.097-.39.385-.293.644.075.201.266.325.468.325.057,0,.116-.01.173-.031.635-.237,1.193-.631,1.628-1.134.179-.209.156-.523-.053-.703-.095-.082-.211-.122-.327-.122h0Zm.852-5.437c-.276,0-.5.224-.5.5v2c0,.276.224.5.5.5s.5-.224.5-.5v-2c0-.276-.224-.5-.5-.5h0Zm0-6c-.276,0-.5.224-.5.5v2c0,.276.224.5.5.5s.5-.224.5-.5v-2c0-.276-.224-.5-.5-.5h0Zm0-6c-.276,0-.5.224-.5.5v2c0,.276.224.5.5.5s.5-.224.5-.5v-2c0-.276-.224-.5-.5-.5h0Zm0-6c-.276,0-.5.224-.5.5v2c0,.276.224.5.5.5s.5-.224.5-.5v-2c0-.276-.224-.5-.5-.5h0Zm0-6c-.276,0-.5.224-.5.5v2c0,.276.224.5.5.5s.5-.224.5-.5v-2c0-.276-.224-.5-.5-.5h0Zm0-6c-.276,0-.5.224-.5.5v2c0,.276.224.5.5.5s.5-.224.5-.5v-2c0-.276-.224-.5-.5-.5h0Zm0-6c-.276,0-.5.224-.5.5v2c0,.276.224.5.5.5s.5-.224.5-.5v-2c0-.276-.224-.5-.5-.5h0Zm0-6c-.276,0-.5.224-.5.5v2c0,.276.224.5.5.5s.5-.224.5-.5v-2c0-.276-.224-.5-.5-.5h0Zm0-6c-.276,0-.5.224-.5.5v2c0,.276.224.5.5.5s.5-.224.5-.5v-2c0-.276-.224-.5-.5-.5h0Zm0-6c-.276,0-.5.224-.5.5v2c0,.276.224.5.5.5s.5-.224.5-.5v-2c0-.276-.224-.5-.5-.5h0Zm0-6c-.276,0-.5.224-.5.5v2c0,.276.224.5.5.5s.5-.224.5-.5v-2c0-.276-.224-.5-.5-.5h0Zm0-6c-.276,0-.5.224-.5.5v2c0,.276.224.5.5.5s.5-.224.5-.5v-2c0-.276-.224-.5-.5-.5h0Zm0-6c-.276,0-.5.224-.5.5v2c0,.276.224.5.5.5s.5-.224.5-.5v-2c0-.276-.224-.5-.5-.5h0Zm0-6c-.276,0-.5.224-.5.5v2c0,.276.224.5.5.5s.5-.224.5-.5v-2c0-.276-.224-.5-.5-.5h0Zm0-6c-.276,0-.5.224-.5.5v2c0,.276.224.5.5.5s.5-.224.5-.5v-2c0-.276-.224-.5-.5-.5h0Zm0-6c-.276,0-.5.224-.5.5v2c0,.276.224.5.5.5s.5-.224.5-.5v-2c0-.276-.224-.5-.5-.5h0Zm0-6c-.276,0-.5.224-.5.5v2c0,.276.224.5.5.5s.5-.224.5-.5v-2c0-.276-.224-.5-.5-.5h0Zm0-6c-.276,0-.5.224-.5.5v2c0,.276.224.5.5.5s.5-.224.5-.5v-2c0-.276-.224-.5-.5-.5h0Zm0-6c-.276,0-.5.224-.5.5v2c0,.276.224.5.5.5s.5-.224.5-.5v-2c0-.276-.224-.5-.5-.5h0Zm0-6c-.276,0-.5.224-.5.5v2c0,.276.224.5.5.5s.5-.224.5-.5v-2c0-.276-.224-.5-.5-.5h0Zm-1.029-5.331c-.128,0-.256.049-.354.147-.195.196-.194.512.001.707.356.355.619.796.76,1.275.064.218.263.359.479.359.047,0,.094-.007.142-.021.264-.078.416-.355.339-.619-.078-.264-.182-.516-.309-.754h0c-.004-.007-.007-.014-.011-.021,0,0,0,0,0,0-.004-.007-.008-.014-.011-.021,0,0,0,0,0,0,0-.002-.002-.003-.003-.005,0,0,0,0,0,0-.004-.007-.008-.014-.012-.021,0,0,0,0,0,0-.004-.007-.008-.014-.012-.02,0,0,0,0,0,0,0-.002-.002-.003-.003-.005,0,0,0,0,0,0-.003-.005-.006-.01-.009-.015,0,0,0,0,0,0,0-.002-.002-.003-.003-.005,0,0,0,0,0-.001l-.003-.005s0,0,0,0c-.002-.003-.004-.007-.006-.01,0,0,0,0,0,0,0-.001-.002-.003-.002-.004,0,0,0-.001,0-.002,0-.001-.002-.003-.002-.004,0,0,0-.001,0-.002-.003-.005-.005-.009-.008-.013,0,0,0-.001,0-.002,0-.001-.002-.003-.002-.004,0,0,0-.001-.001-.002,0-.001-.002-.003-.002-.004,0,0,0-.001,0-.002-.001-.002-.003-.005-.004-.007,0,0,0-.001-.001-.002,0-.001-.001-.002-.002-.003,0,0-.001-.002-.002-.003,0,0-.001-.002-.002-.003l-.002-.003s-.002-.003-.003-.005c0-.001-.001-.002-.002-.003,0-.001-.001-.002-.002-.003,0,0-.001-.002-.002-.003,0-.001-.001-.002-.002-.003,0,0-.001-.002-.002-.003,0-.001-.001-.002-.002-.003,0-.001-.001-.002-.002-.003-.001-.002-.002-.003-.003-.005,0-.001-.001-.002-.002-.003,0,0-.001-.002-.002-.003,0-.001-.001-.002-.002-.003,0,0-.001-.002-.002-.003,0-.001-.001-.002-.002-.004,0,0,0-.002-.001-.002-.001-.002-.002-.004-.003-.006,0,0,0-.002-.001-.002,0-.001-.002-.002-.002-.004,0,0,0-.001-.001-.002,0-.001-.002-.003-.002-.004,0,0,0-.001-.001-.002-.001-.002-.002-.004-.004-.006,0,0,0,0,0-.001-.001-.002-.002-.003-.003-.005,0,0,0-.001-.001-.002,0-.001-.002-.003-.003-.004,0,0,0-.001-.001-.002-.001-.002-.002-.004-.003-.005,0,0,0,0,0,0-.001-.002-.003-.004-.004-.006,0,0,0,0,0-.001-.001-.002-.002-.003-.003-.005,0,0,0-.001-.001-.002-.001-.002-.002-.003-.003-.005,0,0,0,0,0,0-.001-.002-.003-.004-.004-.006h0s-.003-.004-.004-.006c0,0,0,0,0,0-.001-.002-.002-.004-.003-.005,0,0,0,0,0-.001-.003-.004-.005-.008-.008-.012,0,0,0,0,0,0-.001-.002-.003-.004-.004-.006,0,0,0,0,0,0-.004-.006-.009-.013-.013-.019,0,0,0,0,0,0-.143-.21-.305-.405-.485-.584-.098-.097-.225-.146-.353-.146h0Z"/><circle class="g" cx="192" cy="32" r="14"/><path class="d" d="m192,20c6.617,0,12,5.383,12,12s-5.383,12-12,12-12-5.383-12-12,5.383-12,12-12m0-4c-8.837,0-16,7.163-16,16s7.163,16,16,16,16-7.163,16-16-7.163-16-16-16h0Z"/><path class="d" d="m238.653,211.572c-3.68,0-6.666,3.093-6.666,6.907s2.986,6.907,6.666,6.907c2.586,0,4.853-1.24,6.173-3.12.16-.24.08-.56-.173-.693l-2.426-1.253c-.213-.107-.48-.04-.613.16-.64.947-1.72,1.573-2.946,1.573-.92,0-1.733-.547-2.253-1.387l8.546-1.867c.227-.053.387-.253.373-.48-.093-3.734-3.04-6.747-6.679-6.747Zm-2.813,6.307c.227-1.68,1.4-2.96,2.813-2.96,1.067,0,1.986.733,2.48,1.8l-5.293,1.16Z"/><path class="d" d="m233.094,212.199c-.72-.4-1.546-.613-2.413-.613-1.053,0-2.04.32-2.853.893v-.173c0-.267-.213-.48-.48-.48h-2.853c-.267,0-.48.213-.48.48v12.387c0,.267.213.48.48.48h2.853c.267,0,.48-.213.48-.48v-7.56c0-1.16.88-2.173,2.04-2.227.4-.013.787.08,1.107.253.2.107.453.053.587-.12l1.68-2.12c.187-.24.12-.587-.147-.72Z"/><circle class="d" cx="215.803" cy="218.479" r="1.786"/><path class="d" d="m215.803,211.572c-4.079,0-7.386,3.093-7.386,6.907s3.306,6.907,7.386,6.907,7.386-3.093,7.386-6.907c-.013-3.814-3.306-6.907-7.386-6.907Zm0,10.494c-1.973,0-3.573-1.6-3.573-3.574s1.6-3.574,3.573-3.574,3.573,1.6,3.573,3.574c0,1.96-1.6,3.574-3.573,3.574Z"/><path class="d" d="m207.351,221.639c-.147-.2-.427-.227-.627-.107-.653.4-1.44.6-2.28.507-1.626-.187-2.946-1.52-3.133-3.147-.24-2.16,1.44-3.974,3.546-3.974.68,0,1.32.2,1.866.533.213.133.48.093.627-.107l1.573-2c.173-.227.12-.56-.12-.707-1.147-.68-2.493-1.067-3.946-1.067-4.079,0-7.386,3.093-7.386,6.907s3.306,6.907,7.386,6.907c1.453,0,2.8-.4,3.946-1.067.253-.147.307-.48.12-.707l-1.573-1.973Z"/><path class="d" d="m196.886,222.159c-.12-.16-.333-.227-.52-.16-.107.04-.213.053-.32.053-.533,0-.947-.467-.947-1v-6.147h2.04c.267,0,.48-.213.48-.48v-2.373c0-.267-.213-.48-.48-.48h-2.04v-3.093c0-.307-.28-.533-.573-.467l-2.853.627c-.213.053-.373.24-.373.467v2.467h-.947c-.267,0-.48.213-.48.48v2.387c0,.267.213.48.48.48h.947v6.2c0,2.373,2.133,4.294,4.759,4.294.813,0,1.573-.187,2.24-.507.28-.133.373-.48.173-.733l-1.586-2.013Z"/><path class="d" d="m188.38,211.572c-.947.093-1.826.44-2.573.973v-.28c0-.267-.213-.48-.48-.48h-2.853c-.267,0-.48.213-.48.48v12.387c0,.267.213.48.48.48h2.853c.267,0,.48-.213.48-.48v-7.387c0-1.32,1.067-2.387,2.386-2.387h.24c.267,0,.48-.213.48-.48v-2.347c-.013-.28-.253-.507-.533-.48Z"/><path class="d" d="m179.848,211.812h-2.853c-.267,0-.48.213-.48.48v.533c-1.08-.787-2.386-1.24-3.813-1.24-3.68,0-6.666,3.093-6.666,6.907s2.986,6.907,6.666,6.907c1.413,0,2.733-.467,3.813-1.24v.533c0,.267.213.48.48.48h2.853c.267,0,.48-.213.48-.48v-12.401c0-.267-.213-.48-.48-.48Zm-6.666,10.254c-1.84,0-3.333-1.6-3.333-3.574s1.493-3.574,3.333-3.574,3.333,1.6,3.333,3.574c0,1.96-1.493,3.574-3.333,3.574Z"/><path class="d" d="m158.904,211.572c-3.68,0-6.666,3.093-6.666,6.907s2.986,6.907,6.666,6.907c2.586,0,4.853-1.24,6.173-3.12.16-.24.08-.56-.173-.693l-2.426-1.253c-.213-.107-.48-.04-.613.16-.64.947-1.72,1.573-2.946,1.573-.92,0-1.733-.547-2.253-1.387l8.546-1.867c.227-.053.387-.253.373-.48-.093-3.734-3.053-6.747-6.679-6.747Zm-2.813,6.307c.227-1.68,1.4-2.96,2.813-2.96,1.067,0,1.986.733,2.48,1.8l-5.293,1.16Z"/><path class="d" d="m145.599,211.812c-1.147,0-2.213.307-3.12.867v-4.2c0-.307-.28-.533-.573-.467l-2.866.627c-.213.04-.373.24-.373.467v15.574c0,.267.213.48.48.48h2.853c.267,0,.48-.213.48-.48v-6.827c0-1.44,1.133-2.68,2.573-2.707,1.466-.027,2.666,1.16,2.666,2.627v6.907c0,.267.213.48.48.48h2.853c.267,0,.48-.213.48-.48v-6.774c-.013-3.307-2.64-6.08-5.933-6.094Z"/><path class="d" d="m201.845,235.52c.187-.187.413-.32.653-.427.253-.107.533-.147.84-.147s.587.053.853.173c.267.107.493.28.707.507l.693-.653c-.267-.32-.6-.56-1-.72s-.827-.253-1.306-.253c-.453,0-.867.08-1.24.227-.373.147-.707.36-.987.627s-.507.587-.653.947c-.16.373-.227.773-.227,1.2,0,.44.08.84.227,1.2.16.373.373.693.653.96s.613.48.987.627c.387.147.8.213,1.24.213.48,0,.92-.08,1.32-.253.4-.16.733-.413,1-.72l-.693-.667c-.213.24-.453.413-.707.52-.267.107-.547.16-.853.16s-.587-.053-.84-.147c-.253-.107-.467-.24-.653-.427s-.333-.4-.427-.653c-.107-.253-.147-.52-.147-.827,0-.293.053-.573.147-.827.08-.24.227-.453.413-.64Z"/><polygon class="d" points="159.157 239.92 160.237 239.92 160.237 237.68 163.05 237.68 163.05 236.76 160.237 236.76 160.237 234.986 163.41 234.986 163.41 234.08 159.157 234.08 159.157 239.92"/><rect class="d" x="167.21" y="234.08" width="1.08" height="5.84"/><polygon class="d" points="176.715 238.027 173.502 234.08 172.609 234.08 172.609 239.92 173.689 239.92 173.689 235.96 176.902 239.92 177.795 239.92 177.795 234.08 176.715 234.08 176.715 238.027"/><path class="d" d="m183.901,234.08l-2.626,5.84h1.12l.573-1.347h2.92l.573,1.347h1.133l-2.626-5.84h-1.067Zm-.56,3.64l1.093-2.56,1.093,2.56h-2.186Z"/><polygon class="d" points="195.193 238.027 191.98 234.08 191.086 234.08 191.086 239.92 192.166 239.92 192.166 235.96 195.379 239.92 196.272 239.92 196.272 234.08 195.193 234.08 195.193 238.027"/><rect class="d" x="209.377" y="234.08" width="1.08" height="5.84"/><path class="d" d="m216.59,234.08l-2.626,5.84h1.12l.573-1.347h2.92l.573,1.347h1.133l-2.626-5.84h-1.067Zm-.573,3.64l1.093-2.56,1.093,2.56h-2.186Z"/><polygon class="d" points="224.855 234.08 223.775 234.08 223.775 239.92 227.908 239.92 227.908 239 224.855 239 224.855 234.08"/><path class="g" d="m175.308,167.587c-.854-.362-1.823-.543-2.908-.543-.84,0-1.773.095-2.801.282-.578.106-1.147.246-1.71.407-.003-.261-.004-.516-.004-.754,0-.55.003-1.125.011-1.726.003-.263.013-.526.019-.79.113-.014.213-.02.328-.035.717-.094,1.426-.199,2.128-.315.702-.116,1.343-.239,1.921-.369l-.043-2.127c-.551.16-1.162.308-1.834.445-.674.138-1.361.25-2.062.337-.127.016-.248.024-.374.039.009-.225.018-.447.026-.658.021-.514.039-.959.055-1.335.014-.174.032-.365.054-.575.022-.209.04-.413.054-.608.015-.195.037-.358.066-.488h-2.389c.029.13.051.3.064.51.016.21.029.423.044.641s.022.405.022.564c0,.217-.004.564-.012,1.042-.005.33-.01.708-.015,1.108-.543.04-1.049.065-1.494.065-.405,0-.832-.011-1.28-.033-.449-.021-.984-.068-1.607-.141l.065,2.084c.362.029.767.054,1.216.076.449.022.998.033,1.65.033.417,0,.901-.022,1.427-.059-.002.157-.003.301-.005.461-.008.673-.012,1.321-.012,1.943,0,.44.008.914.012,1.373-.696.301-1.371.641-2.008,1.059-.84.55-1.517,1.154-2.03,1.812-.515.659-.771,1.321-.771,1.986,0,.521.158,1.013.478,1.477.317.463.724.868,1.216,1.215.492.348,1.013.623,1.562.825.551.203,1.057.304,1.52.304.435,0,.807-.086,1.119-.26.311-.174.557-.478.737-.912.181-.435.271-1.035.271-1.802,0-.333-.007-.785-.021-1.357-.015-.571-.029-1.194-.044-1.867-.008-.41-.017-.831-.026-1.249.547-.173,1.097-.327,1.655-.444.926-.195,1.859-.293,2.801-.293.665,0,1.259.101,1.779.304.521.203.934.496,1.238.879.303.383.455.857.455,1.422,0,.608-.155,1.125-.467,1.552-.311.427-.727.767-1.248,1.021s-1.086.438-1.693.553c-.405.087-.832.138-1.281.152-.448.014-.89.014-1.324,0l.781,2.214c.406-.029.844-.065,1.314-.109.47-.043.951-.116,1.443-.217,1.057-.261,1.932-.63,2.627-1.107s1.212-1.056,1.553-1.737c.34-.68.51-1.447.51-2.301,0-.926-.246-1.729-.738-2.41-.492-.68-1.165-1.201-2.02-1.563Zm-9.498,6.979c-.137.152-.314.228-.531.228-.188,0-.398-.043-.629-.13-.232-.087-.453-.202-.663-.347-.21-.145-.388-.315-.532-.51s-.217-.401-.217-.619c0-.347.159-.713.479-1.096.317-.383.752-.756,1.302-1.118.292-.192.603-.368.927-.531.011.577.024,1.133.038,1.638.021.738.033,1.31.033,1.715,0,.362-.068.619-.207.771Z"/><path class="g" d="m176.513,162.127c-.658-.383-1.256-.706-1.791-.966l-.955,1.65c.348.174.749.395,1.205.662.456.268.926.554,1.411.858.485.304.94.601,1.368.89.426.29.77.557,1.031.803l1.063-1.737c-.362-.29-.844-.626-1.444-1.01-.6-.383-1.23-.767-1.889-1.15Z"/><polygon class="g" points="183.604 161.682 198.019 161.682 198.019 164.222 200.103 164.222 200.103 159.815 191.853 159.815 191.853 157.927 189.747 157.927 189.747 159.815 181.585 159.815 181.585 164.222 183.604 164.222 183.604 161.682"/><path class="g" d="m192.822,168.3c.457-.32.913-.642,1.332-.995,1.102-.926,2.012-1.976,2.736-3.148l-1.389-.825-.348.087h-5.711c.316-.37.618-.745.89-1.129l-2.192-.434c-.536.825-1.321,1.661-2.355,2.507-1.035.847-2.319,1.582-3.854,2.204.159.102.325.243.499.423.174.181.34.369.5.564.158.195.289.373.391.532,1.147-.553,2.166-1.161,3.07-1.82.741.788,1.587,1.495,2.526,2.132-1.253.594-2.575,1.103-3.968,1.522-1.419.427-2.837.763-4.255,1.009.188.231.376.525.564.879.188.354.332.669.434.944,1.039-.22,2.074-.496,3.105-.799v6.118h2.019v-.716h8.142v.673h2.105v-6.249c.849.196,1.716.365,2.605.496.102-.203.227-.423.379-.663.152-.239.309-.478.467-.716.16-.239.318-.438.479-.597-1.939-.217-3.781-.576-5.525-1.075-.937-.268-1.816-.579-2.646-.927Zm-4.964-3.242c.02-.018.039-.036.059-.054h5.864c-.411.453-.874.885-1.395,1.292-.476.372-.989.722-1.53,1.055-.022-.012-.045-.023-.067-.035-1.178-.663-2.147-1.419-2.932-2.258Zm-1.041,10.584v-2.583h8.142v2.583h-8.142Zm-.107-4.298c1.298-.455,2.556-.978,3.754-1.596.127-.065.237-.144.362-.212,1.022.535,2.109,1.008,3.275,1.406.419.143.844.276,1.274.402h-8.665Z"/><path class="g" d="m220.339,173.84c-.464-.415-.875-.884-1.261-1.38l.251.186c.434-.376.923-.817,1.465-1.324.543-.506,1.046-1.02,1.509-1.541l-1.562-1.107c-.231.304-.507.641-.825,1.009-.318.369-.647.724-.987,1.064-.219.219-.424.415-.621.601-.466-.778-.845-1.607-1.148-2.482v-.821h5.318v-1.715h-5.318v-1.324h4.516v-1.585h-4.516v-1.237h4.993v-1.65h-2.561c.132-.208.272-.433.422-.684.282-.47.568-.944.857-1.422l-2.041-.542c-.13.391-.308.839-.531,1.346-.221.498-.431.931-.63,1.303h-3.195l.232-.087c-.116-.333-.293-.73-.532-1.194s-.488-.89-.749-1.281l-1.628.564c.246.391.48.829.705,1.313.114.246.209.474.288.684h-2.512v1.65h4.906v1.237h-4.299v1.585h4.299v1.324h-5.362v1.715h5.362v7.88c0,.116-.025.203-.076.261s-.148.086-.293.086c-.131.015-.395.018-.793.011-.397-.008-.807-.019-1.227-.033.131.246.25.554.358.923.108.369.177.684.206.944.666,0,1.249-.019,1.748-.054.499-.037.915-.134,1.248-.293.304-.159.514-.38.63-.662.115-.282.174-.677.174-1.183v-3.407c.533.973,1.146,1.851,1.855,2.615.761.818,1.618,1.48,2.573,1.986.101-.173.228-.365.38-.575.151-.21.311-.413.478-.608.166-.195.314-.351.445-.467-.941-.405-1.791-.948-2.551-1.628Z"/><path class="g" d="m209.538,168.684c-.246-.369-.518-.771-.814-1.205-.297-.435-.568-.836-.814-1.205-.19-.285-.334-.482-.455-.633v-1.18h2.366v-1.91h-2.366v-4.624h-1.867v4.624h-2.866v1.91h2.67c-.117.523-.246,1.056-.402,1.607-.225.796-.48,1.574-.771,2.333-.289.76-.604,1.473-.944,2.139s-.684,1.237-1.031,1.715c.159.232.337.521.532.869.195.347.344.659.445.933.376-.55.741-1.208,1.096-1.976.354-.767.685-1.599.988-2.497.104-.307.185-.625.282-.936v9.402h1.867v-9.964c.092.165.175.316.271.488.254.456.489.897.706,1.324.217.427.391.785.521,1.075l1.085-1.498c-.087-.159-.253-.423-.499-.792Z"/><path class="g" d="m212.556,172.537l1.476-1.021c-.217-.405-.535-.864-.955-1.378-.42-.514-.839-.973-1.259-1.378l-1.411.912c.42.434.832.923,1.237,1.465.405.543.709,1.01.912,1.4Z"/><path class="g" d="m214.271,172.363c-.97.521-1.925,1.028-2.865,1.52-.941.492-1.752.897-2.432,1.216l.934,1.715c.738-.391,1.53-.832,2.377-1.324.847-.492,1.683-.977,2.508-1.455l-.521-1.672Z"/><line class="b" x1="192" y1="65.719" x2="192" y2="144"/><polygon class="d" points="186.189 69.682 192 48 197.811 69.682 186.189 69.682"/><line class="b" x1="48" y1="81.719" x2="48" y2="128"/><polygon class="d" points="42.189 85.682 48 64 53.811 85.682 42.189 85.682"/><line class="b" x1="336" y1="81.719" x2="336" y2="128"/><polygon class="d" points="330.189 85.682 336 64 341.811 85.682 330.189 85.682"/><line class="b" x1="158.281" y1="32" x2="128" y2="32"/><polygon class="d" points="154.318 26.189 176 32 154.318 37.811 154.318 26.189"/><line class="b" x1="225.719" y1="32" x2="256" y2="32"/><polygon class="d" points="229.682 37.811 208 32 229.682 26.189 229.682 37.811"/><polyline class="b" points="48 176 48 208 112 208"/><polyline class="b" points="336 176 336 208 272 208"/><rect class="g" x=".5" y=".5" width="127" height="63" rx="3.5" ry="3.5"/><path class="d" d="m124,1c1.654,0,3,1.346,3,3v56c0,1.654-1.346,3-3,3H4c-1.654,0-3-1.346-3-3V4c0-1.654,1.346-3,3-3h120m0-1H4C1.791,0,0,1.791,0,4v56c0,2.209,1.791,4,4,4h120c2.209,0,4-1.791,4-4V4c0-2.209-1.791-4-4-4h0Z"/><path class="e" d="m26.4,40.247l5.297-16h2.909l5.298,16h-2.671l-2.583-8.684c-.261-.868-.514-1.748-.76-2.638s-.492-1.783-.738-2.681h-.087c-.231.912-.475,1.81-.728,2.692-.254.883-.51,1.758-.771,2.626l-2.583,8.684h-2.584Zm2.996-4.537v-1.998h7.468v1.998h-7.468Z"/><path class="e" d="m51.488,25.398c-.145,1.115-.33,2.291-.554,3.528-.225,1.238-.524,2.464-.901,3.68-.434,1.476-.922,2.725-1.465,3.745-.543,1.021-1.133,1.799-1.77,2.334-.637.536-1.311.803-2.02.803-.723,0-1.396-.25-2.019-.749s-1.129-1.201-1.52-2.106c-.391-.904-.586-1.957-.586-3.159,0-1.216.249-2.366.749-3.452.499-1.085,1.189-2.048,2.073-2.888.882-.839,1.91-1.498,3.083-1.976,1.172-.478,2.438-.716,3.799-.716,1.303,0,2.479.21,3.527.63s1.947,1.002,2.692,1.748,1.313,1.617,1.704,2.616.586,2.062.586,3.191c0,1.52-.314,2.87-.943,4.049-.631,1.18-1.553,2.142-2.769,2.887-1.216.746-2.706,1.249-4.472,1.509l-1.281-2.041c.376-.043.723-.09,1.042-.141.317-.05.614-.105.89-.163.695-.159,1.357-.405,1.986-.738.63-.333,1.19-.756,1.683-1.27.492-.514.88-1.118,1.161-1.812.283-.695.424-1.477.424-2.345s-.138-1.675-.412-2.421c-.275-.745-.681-1.393-1.216-1.943-.536-.55-1.194-.98-1.976-1.292-.781-.311-1.664-.466-2.648-.466-1.188,0-2.244.21-3.17.629-.926.42-1.712.974-2.355,1.661-.645.688-1.133,1.43-1.465,2.226-.334.796-.5,1.563-.5,2.301,0,.825.102,1.509.305,2.052.201.543.455.944.76,1.205.303.26.614.391.934.391.317,0,.643-.163.977-.488.332-.326.669-.843,1.01-1.552.34-.709.676-1.614,1.009-2.714.333-1.042.611-2.153.836-3.333.224-1.179.388-2.334.488-3.462l2.323.043Z"/><path class="e" d="m65.22,29.305l1.411.63c-.275.811-.601,1.65-.977,2.518-.377.869-.793,1.715-1.249,2.54-.456.825-.93,1.6-1.422,2.323s-.998,1.346-1.52,1.867c-.072-.202-.174-.423-.304-.662-.131-.239-.261-.474-.391-.706-.131-.231-.261-.434-.391-.608.478-.463.955-.999,1.433-1.606s.93-1.27,1.356-1.986.817-1.44,1.173-2.171c.354-.73.647-1.444.879-2.139Zm4.386-7.272l1.476,1.563c-.868.348-1.853.662-2.952.944-1.101.282-2.236.525-3.408.728-1.173.203-2.316.383-3.431.542-.029-.246-.108-.524-.238-.836-.131-.311-.254-.568-.369-.771.796-.13,1.606-.271,2.432-.423.824-.152,1.635-.318,2.431-.5.796-.181,1.542-.376,2.236-.586.695-.209,1.303-.431,1.824-.662Zm-8.728,6.383h10.377v1.91h-10.377v-1.91Zm4.385-4.538h1.998v18.171h-1.998v-18.171Zm1.716,7.664c.217.145.524.376.922.695.398.318.821.669,1.271,1.053.448.384.864.735,1.248,1.053s.655.55.814.694l-1.173,1.759c-.231-.261-.528-.583-.89-.966-.362-.383-.746-.778-1.15-1.183-.405-.405-.797-.789-1.173-1.15s-.694-.651-.955-.869l1.086-1.085Zm5.558-7.012h1.976v12.07h-1.976v-12.07Zm5.231-2.193h2.041v17.129c0,.651-.08,1.144-.239,1.477-.159.333-.434.579-.824.738-.405.174-.944.286-1.617.337-.674.05-1.51.068-2.508.054-.029-.188-.084-.409-.163-.662-.079-.253-.166-.51-.261-.771-.094-.26-.199-.484-.314-.673.752.029,1.44.047,2.062.054.622.007,1.042.004,1.259-.011.203,0,.348-.04.435-.12.087-.079.13-.22.13-.423v-17.129Z"/><path class="e" d="m82.278,33.018h19.321v1.693h-19.321v-1.693Zm.564-9.074h18.192v4.125h-2.105v-2.301h-14.09v2.301h-1.997v-4.125Zm1.563,6.166h15.175v1.563h-15.175v-1.563Zm.847-2.801h13.373v1.606h-13.373v-1.606Zm.064,8.51h13.417v6.209h-2.084v-4.559h-9.357v4.603h-1.976v-6.252Zm.761,3.951h11.701v1.65h-11.701v-1.65Zm4.711-17.845h2.105v3.018h-2.105v-3.018Zm0,3.995h2.084v7.837h-2.084v-7.837Z"/><rect class="g" x="256.5" y=".5" width="127" height="63" rx="3.5" ry="3.5"/><path class="d" d="m380,1c1.654,0,3,1.346,3,3v56c0,1.654-1.346,3-3,3h-120c-1.654,0-3-1.346-3-3V4c0-1.654,1.346-3,3-3h120m0-1h-120c-2.209,0-4,1.791-4,4v56c0,2.209,1.791,4,4,4h120c2.209,0,4-1.791,4-4V4c0-2.209-1.791-4-4-4h0Z"/><path class="e" d="m282.772,40.247v-16h4.972c1.085,0,2.052.13,2.898.391.847.261,1.513.677,1.997,1.249s.728,1.335.728,2.29c0,.521-.091,1.014-.271,1.477-.181.463-.438.872-.771,1.227-.333.355-.746.611-1.238.771v.109c.912.188,1.665.597,2.258,1.227.594.629.891,1.487.891,2.572,0,1.057-.264,1.932-.792,2.627s-1.253,1.212-2.171,1.552c-.92.34-1.973.51-3.159.51h-5.341Zm2.519-9.313h2.149c1.216,0,2.095-.217,2.638-.651s.813-1.02.813-1.758c0-.825-.281-1.415-.846-1.77-.564-.354-1.412-.532-2.541-.532h-2.214v4.711Zm0,7.338h2.54c1.244,0,2.211-.231,2.898-.695.688-.463,1.031-1.179,1.031-2.149,0-.897-.336-1.552-1.01-1.965-.673-.413-1.646-.619-2.92-.619h-2.54v5.427Z"/><path class="e" d="m307.116,25.398c-.146,1.115-.33,2.291-.555,3.528-.225,1.238-.524,2.464-.9,3.68-.434,1.476-.923,2.725-1.465,3.745-.543,1.021-1.133,1.799-1.77,2.334-.638.536-1.311.803-2.02.803-.724,0-1.396-.25-2.02-.749-.622-.5-1.129-1.201-1.52-2.106-.391-.904-.586-1.957-.586-3.159,0-1.216.25-2.366.749-3.452s1.19-2.048,2.073-2.888c.883-.839,1.91-1.498,3.083-1.976,1.173-.478,2.438-.716,3.8-.716,1.302,0,2.478.21,3.527.63,1.049.42,1.946,1.002,2.691,1.748.746.746,1.314,1.617,1.705,2.616s.586,2.062.586,3.191c0,1.52-.314,2.87-.944,4.049-.63,1.18-1.552,2.142-2.769,2.887-1.215.746-2.706,1.249-4.472,1.509l-1.281-2.041c.376-.043.724-.09,1.042-.141.318-.05.615-.105.891-.163.694-.159,1.356-.405,1.986-.738.629-.333,1.189-.756,1.682-1.27.492-.514.88-1.118,1.162-1.812.282-.695.424-1.477.424-2.345s-.139-1.675-.413-2.421c-.274-.745-.681-1.393-1.216-1.943-.535-.55-1.193-.98-1.975-1.292-.782-.311-1.665-.466-2.649-.466-1.187,0-2.243.21-3.169.629-.927.42-1.713.974-2.355,1.661-.645.688-1.133,1.43-1.466,2.226s-.499,1.563-.499,2.301c0,.825.101,1.509.304,2.052.202.543.456.944.76,1.205.304.26.614.391.934.391.317,0,.644-.163.977-.488.333-.326.669-.843,1.01-1.552.34-.709.677-1.614,1.009-2.714.334-1.042.611-2.153.836-3.333.225-1.179.388-2.334.488-3.462l2.324.043Z"/><path class="e" d="m320.847,29.305l1.411.63c-.275.811-.601,1.65-.977,2.518-.377.869-.793,1.715-1.249,2.54-.456.825-.93,1.6-1.422,2.323s-.998,1.346-1.52,1.867c-.072-.202-.174-.423-.304-.662-.131-.239-.261-.474-.391-.706-.131-.231-.261-.434-.391-.608.478-.463.955-.999,1.433-1.606s.93-1.27,1.356-1.986.817-1.44,1.173-2.171c.354-.73.647-1.444.879-2.139Zm4.386-7.272l1.476,1.563c-.868.348-1.853.662-2.952.944-1.101.282-2.236.525-3.408.728-1.173.203-2.316.383-3.431.542-.029-.246-.108-.524-.238-.836-.131-.311-.254-.568-.369-.771.796-.13,1.606-.271,2.432-.423.824-.152,1.635-.318,2.431-.5.796-.181,1.542-.376,2.236-.586.695-.209,1.303-.431,1.824-.662Zm-8.728,6.383h10.377v1.91h-10.377v-1.91Zm4.385-4.538h1.998v18.171h-1.998v-18.171Zm1.716,7.664c.217.145.524.376.922.695.398.318.821.669,1.271,1.053.448.384.864.735,1.248,1.053s.655.55.814.694l-1.173,1.759c-.231-.261-.528-.583-.89-.966-.362-.383-.746-.778-1.15-1.183-.405-.405-.797-.789-1.173-1.15s-.694-.651-.955-.869l1.086-1.085Zm5.558-7.012h1.976v12.07h-1.976v-12.07Zm5.231-2.193h2.041v17.129c0,.651-.08,1.144-.239,1.477-.159.333-.434.579-.824.738-.405.174-.944.286-1.617.337-.674.05-1.51.068-2.508.054-.029-.188-.084-.409-.163-.662-.079-.253-.166-.51-.261-.771-.094-.26-.199-.484-.314-.673.752.029,1.44.047,2.062.054.622.007,1.042.004,1.259-.011.203,0,.348-.04.435-.12.087-.079.13-.22.13-.423v-17.129Z"/><path class="e" d="m337.906,33.018h19.321v1.693h-19.321v-1.693Zm.564-9.074h18.192v4.125h-2.105v-2.301h-14.09v2.301h-1.997v-4.125Zm1.563,6.166h15.175v1.563h-15.175v-1.563Zm.847-2.801h13.373v1.606h-13.373v-1.606Zm.064,8.51h13.417v6.209h-2.084v-4.559h-9.357v4.603h-1.976v-6.252Zm.761,3.951h11.701v1.65h-11.701v-1.65Zm4.711-17.845h2.105v3.018h-2.105v-3.018Zm0,3.995h2.084v7.837h-2.084v-7.837Z"/><rect class="f" x="288" y="128" width="96" height="48" rx="4" ry="4"/><g class="c"><path class="e" d="m380,128.5c1.93,0,3.5,1.57,3.5,3.5v40c0,1.93-1.57,3.5-3.5,3.5h-88c-1.93,0-3.5-1.57-3.5-3.5v-40c0-1.93,1.57-3.5,3.5-3.5h88m0-.5h-88c-2.209,0-4,1.791-4,4v40c0,2.209,1.791,4,4,4h88c2.209,0,4-1.791,4-4v-40c0-2.209-1.791-4-4-4h0Z"/></g><path class="e" d="m304.074,143.196l1.614.437c-.329,1.089-.719,2.175-1.168,3.258-.449,1.083-.939,2.112-1.473,3.086-.531.976-1.102,1.831-1.709,2.564-.038-.139-.104-.329-.199-.57-.096-.24-.199-.481-.313-.722-.114-.24-.222-.437-.323-.589.494-.62.963-1.333,1.406-2.137.443-.804.848-1.662,1.215-2.574.367-.912.685-1.83.95-2.754Zm-1.311,4.882l1.596-1.596v14.285h-1.596v-12.689Zm2.317,10.6c.633-.038,1.355-.095,2.166-.171.811-.076,1.672-.155,2.583-.237.911-.082,1.829-.162,2.755-.237l.019,1.311c-1.292.165-2.574.32-3.847.465-1.273.146-2.416.269-3.429.371l-.247-1.501Zm6.629-15.007l.932,1.292c-.646.14-1.365.269-2.156.389-.791.121-1.602.219-2.432.294-.83.076-1.624.133-2.384.171-.025-.177-.083-.386-.171-.627-.089-.241-.171-.443-.247-.608.747-.076,1.513-.158,2.299-.247.784-.088,1.542-.19,2.271-.304.728-.114,1.357-.234,1.889-.361Zm-6.363,2.926h7.333v1.33h-7.333v-1.33Zm.19,9.08h7.028v1.33h-7.028v-1.33Zm.038-6.706h6.934v5.623h-6.934v-5.623Zm1.215,1.14v1.121h4.465v-1.121h-4.465Zm0,2.185v1.14h4.465v-1.14h-4.465Zm1.559-2.907h1.254v4.749h.151v4.692h-1.538v-4.692h.133v-4.749Zm-.114-4.692h1.52v4.939h-1.52v-4.939Zm5.585-1.52h1.539v6.345c0,.912-.035,1.865-.105,2.859-.069.994-.202,1.992-.398,2.992-.196,1-.494,1.963-.893,2.887-.398.924-.934,1.779-1.605,2.564-.102-.101-.229-.212-.38-.332-.151-.121-.308-.238-.466-.352-.158-.114-.307-.203-.445-.266.619-.734,1.113-1.532,1.48-2.394.367-.861.643-1.75.827-2.669.183-.918.304-1.826.36-2.726s.086-1.754.086-2.564v-6.345Zm-1.216,4.293h4.749v1.577h-4.749v-1.577Zm4.179,0h1.539c0,.203-.004.368-.01.494s-.01.222-.01.285c-.037,2.026-.078,3.733-.123,5.12s-.095,2.52-.152,3.4c-.057.88-.127,1.558-.209,2.033-.082.475-.193.813-.332,1.017-.164.253-.336.43-.513.532-.178.101-.399.177-.665.228-.229.025-.51.041-.846.047s-.687.003-1.054-.01c-.013-.24-.054-.51-.124-.807-.069-.298-.168-.554-.294-.77.342.013.649.026.921.038.272.013.484.019.637.019.127,0,.234-.019.322-.057.089-.038.172-.12.248-.247.088-.152.168-.443.236-.874.07-.43.131-1.063.182-1.899.05-.836.094-1.922.133-3.258.037-1.336.076-2.973.113-4.911v-.38Z"/><path class="e" d="m320.973,149.787c1.113.102,2.193.171,3.238.209,1.045.038,2.035.038,2.973,0,.938-.038,1.779-.101,2.527-.19.949-.088,1.795-.215,2.535-.38.741-.165,1.378-.329,1.909-.494l.304,1.786c-.544.139-1.165.275-1.861.408s-1.438.244-2.223.333c-.785.089-1.69.155-2.717.199-1.025.045-2.102.057-3.229.038s-2.248-.066-3.362-.143l-.095-1.767Zm.36-3.932c1.354.152,2.628.241,3.818.266s2.279,0,3.267-.076c.811-.076,1.605-.19,2.385-.342s1.535-.348,2.27-.589l.247,1.729c-.646.19-1.361.358-2.146.503-.785.146-1.57.256-2.355.333-.976.076-2.099.111-3.372.104-1.272-.006-2.605-.073-3.998-.199l-.114-1.729Zm2.792,8.149c-.228.33-.42.662-.578.997-.159.336-.238.712-.238,1.13,0,.748.342,1.301,1.025,1.662.685.361,1.723.542,3.115.542.887,0,1.711-.035,2.471-.104.76-.069,1.48-.174,2.165-.313l-.095,1.918c-.659.102-1.377.184-2.156.247s-1.567.095-2.365.095c-1.254,0-2.324-.13-3.21-.39-.887-.26-1.571-.658-2.052-1.197-.481-.538-.729-1.238-.74-2.099,0-.57.075-1.079.228-1.529.151-.45.342-.89.569-1.32l1.861.361Zm3.268-8.073c-.076-.316-.164-.63-.266-.94-.102-.31-.209-.624-.322-.94l2.031-.228c.064.557.162,1.124.295,1.7s.281,1.133.447,1.671c.164.539.322,1.042.475,1.51.164.469.367.981.607,1.539.24.558.506,1.108.798,1.653.291.544.589,1.051.893,1.52.114.165.234.32.361.465.126.146.266.288.418.427l-.95,1.406c-.354-.088-.781-.167-1.282-.237-.501-.069-1.013-.136-1.538-.199s-1.017-.114-1.473-.152l.152-1.443c.455.038.937.083,1.443.133.506.051.905.095,1.197.133-.52-.823-.969-1.659-1.35-2.507-.379-.848-.703-1.64-.969-2.375-.152-.443-.285-.842-.398-1.197-.114-.354-.216-.687-.305-.997-.088-.311-.177-.624-.266-.94Z"/><path class="e" d="m337.025,148.286c.316.013.623.019.921.019s.604-.006.922-.019c.304-.013.677-.035,1.12-.066s.922-.069,1.435-.114c.513-.044,1.025-.088,1.538-.133.514-.044.985-.079,1.416-.104.43-.025.778-.038,1.044-.038.621,0,1.172.099,1.653.294.48.197.864.542,1.149,1.036.284.494.427,1.184.427,2.07,0,.748-.031,1.555-.095,2.422-.063.868-.174,1.697-.332,2.489-.159.792-.377,1.453-.656,1.985-.304.659-.699,1.099-1.187,1.32-.488.221-1.067.333-1.738.333-.354,0-.741-.026-1.159-.076-.418-.051-.785-.114-1.102-.19l-.304-1.976c.253.063.528.127.826.19.298.063.579.111.846.143.266.032.48.047.646.047.342,0,.643-.06.902-.18.26-.121.478-.364.655-.731.19-.393.349-.899.475-1.52.127-.62.222-1.285.285-1.994.063-.709.095-1.393.095-2.052,0-.557-.079-.969-.237-1.235-.158-.266-.383-.446-.674-.541-.292-.095-.634-.143-1.026-.143-.304,0-.719.022-1.244.066s-1.086.098-1.681.162c-.596.063-1.146.123-1.653.18-.506.057-.905.104-1.196.143-.241.025-.548.063-.921.114-.374.051-.693.102-.96.152l-.189-2.052Zm7.218-4.046c-.037.19-.082.405-.133.646-.051.241-.095.462-.133.665-.051.253-.111.567-.181.94s-.143.76-.218,1.159c-.076.399-.159.782-.247,1.149-.127.532-.285,1.146-.476,1.843-.189.697-.408,1.441-.655,2.232-.247.792-.525,1.596-.836,2.413-.31.817-.646,1.615-1.006,2.394-.361.779-.751,1.503-1.169,2.175l-1.956-.779c.442-.595.854-1.256,1.234-1.985.38-.728.729-1.482,1.045-2.261s.602-1.548.854-2.308c.254-.76.472-1.466.655-2.118s.326-1.212.428-1.681c.177-.811.319-1.621.428-2.432.107-.81.154-1.57.143-2.279l2.222.228Zm6.554,1.918c.291.393.602.886.931,1.481.33.596.656,1.229.979,1.9.323.671.614,1.317.874,1.938s.466,1.152.617,1.596l-1.881.874c-.126-.506-.307-1.08-.541-1.719-.234-.64-.5-1.289-.798-1.947-.298-.658-.614-1.282-.949-1.871-.336-.589-.669-1.086-.998-1.491l1.767-.76Z"/><path class="e" d="m359.017,144.487c-.051.203-.114.434-.189.693-.076.26-.14.484-.19.674-.14.621-.275,1.324-.408,2.109s-.241,1.602-.323,2.45c-.082.849-.113,1.685-.095,2.507.019.824.104,1.583.257,2.28.126-.354.278-.772.455-1.254.178-.481.349-.931.514-1.349l.987.627c-.165.469-.329.981-.494,1.539-.164.558-.316,1.086-.455,1.586-.14.5-.247.915-.323,1.244-.025.152-.048.313-.066.484-.02.171-.028.307-.028.408s.006.216.019.342.025.247.038.361l-1.652.19c-.127-.393-.275-.915-.446-1.567-.172-.652-.313-1.371-.428-2.156s-.171-1.57-.171-2.355c0-1.039.041-2.039.123-3.001s.178-1.839.285-2.631.199-1.447.275-1.966c.038-.24.063-.487.076-.741s.019-.481.019-.684l2.223.209Zm2.375,3.533c.291.038.601.076.931.114.329.038.668.063,1.016.076.349.013.693.019,1.036.019.798,0,1.624-.019,2.479-.057.854-.038,1.685-.098,2.488-.181.805-.082,1.522-.187,2.156-.313l-.019,1.938c-.596.089-1.286.165-2.071.228-.785.063-1.608.111-2.469.143-.861.032-1.71.047-2.546.047-.278,0-.599-.006-.959-.019-.361-.012-.719-.025-1.073-.038-.354-.012-.678-.025-.969-.038v-1.919Zm7.18-3.818c-.025.177-.044.367-.057.57s-.025.412-.038.627v.731c0,.336.003.712.01,1.13.006.418.013.845.019,1.282.007.437.01.839.01,1.207v.893c0,1.102-.031,2.115-.095,3.04s-.222,1.786-.475,2.583c-.254.797-.656,1.536-1.207,2.213s-1.313,1.313-2.289,1.909l-1.747-1.368c.329-.14.684-.333,1.063-.58s.696-.497.95-.75c.443-.418.794-.857,1.054-1.32s.456-.975.589-1.539c.133-.563.222-1.19.267-1.88.044-.69.066-1.466.066-2.327,0-.329-.004-.741-.01-1.235-.007-.494-.019-1.003-.038-1.529-.019-.525-.035-1.01-.048-1.453s-.025-.779-.037-1.007c-.013-.228-.042-.45-.086-.665-.045-.215-.079-.393-.104-.532h2.203Z"/><rect class="f" y="128" width="96" height="48" rx="4" ry="4"/><g class="c"><path class="e" d="m92,128.5c1.93,0,3.5,1.57,3.5,3.5v40c0,1.93-1.57,3.5-3.5,3.5H4c-1.93,0-3.5-1.57-3.5-3.5v-40c0-1.93,1.57-3.5,3.5-3.5h88m0-.5H4c-2.209,0-4,1.791-4,4v40c0,2.209,1.791,4,4,4h88c2.209,0,4-1.791,4-4v-40c0-2.209-1.791-4-4-4h0Z"/></g><path class="e" d="m16.074,143.196l1.614.437c-.329,1.089-.719,2.175-1.168,3.258-.449,1.083-.939,2.112-1.473,3.086-.531.976-1.102,1.831-1.709,2.564-.038-.139-.104-.329-.199-.57-.096-.24-.199-.481-.313-.722-.114-.24-.222-.437-.323-.589.494-.62.963-1.333,1.406-2.137.443-.804.848-1.662,1.215-2.574.367-.912.685-1.83.95-2.754Zm-1.311,4.882l1.596-1.596v14.285h-1.596v-12.689Zm2.317,10.6c.633-.038,1.355-.095,2.166-.171.811-.076,1.672-.155,2.583-.237.911-.082,1.829-.162,2.755-.237l.019,1.311c-1.292.165-2.574.32-3.847.465-1.273.146-2.416.269-3.429.371l-.247-1.501Zm6.629-15.007l.932,1.292c-.646.14-1.365.269-2.156.389-.791.121-1.602.219-2.432.294-.83.076-1.624.133-2.384.171-.025-.177-.083-.386-.171-.627-.089-.241-.171-.443-.247-.608.747-.076,1.513-.158,2.299-.247.784-.088,1.542-.19,2.271-.304.728-.114,1.357-.234,1.889-.361Zm-6.363,2.926h7.333v1.33h-7.333v-1.33Zm.19,9.08h7.028v1.33h-7.028v-1.33Zm.038-6.706h6.934v5.623h-6.934v-5.623Zm1.215,1.14v1.121h4.465v-1.121h-4.465Zm0,2.185v1.14h4.465v-1.14h-4.465Zm1.559-2.907h1.254v4.749h.151v4.692h-1.538v-4.692h.133v-4.749Zm-.114-4.692h1.52v4.939h-1.52v-4.939Zm5.585-1.52h1.539v6.345c0,.912-.035,1.865-.105,2.859-.069.994-.202,1.992-.398,2.992-.196,1-.494,1.963-.893,2.887-.398.924-.934,1.779-1.605,2.564-.102-.101-.229-.212-.38-.332-.151-.121-.308-.238-.466-.352-.158-.114-.307-.203-.445-.266.619-.734,1.113-1.532,1.48-2.394.367-.861.643-1.75.827-2.669.183-.918.304-1.826.36-2.726s.086-1.754.086-2.564v-6.345Zm-1.216,4.293h4.749v1.577h-4.749v-1.577Zm4.179,0h1.539c0,.203-.004.368-.01.494s-.01.222-.01.285c-.037,2.026-.078,3.733-.123,5.12s-.095,2.52-.152,3.4c-.057.88-.127,1.558-.209,2.033-.082.475-.193.813-.332,1.017-.164.253-.336.43-.513.532-.178.101-.399.177-.665.228-.229.025-.51.041-.846.047s-.687.003-1.054-.01c-.013-.24-.054-.51-.124-.807-.069-.298-.168-.554-.294-.77.342.013.649.026.921.038.272.013.484.019.637.019.127,0,.234-.019.322-.057.089-.038.172-.12.248-.247.088-.152.168-.443.236-.874.07-.43.131-1.063.182-1.899.05-.836.094-1.922.133-3.258.037-1.336.076-2.973.113-4.911v-.38Z"/><path class="e" d="m32.973,149.787c1.113.102,2.193.171,3.238.209,1.045.038,2.035.038,2.973,0,.938-.038,1.779-.101,2.527-.19.949-.088,1.795-.215,2.535-.38.741-.165,1.378-.329,1.909-.494l.304,1.786c-.544.139-1.165.275-1.861.408s-1.438.244-2.223.333c-.785.089-1.69.155-2.717.199-1.025.045-2.102.057-3.229.038s-2.248-.066-3.362-.143l-.095-1.767Zm.36-3.932c1.354.152,2.628.241,3.818.266s2.279,0,3.267-.076c.811-.076,1.605-.19,2.385-.342s1.535-.348,2.27-.589l.247,1.729c-.646.19-1.361.358-2.146.503-.785.146-1.57.256-2.355.333-.976.076-2.099.111-3.372.104-1.272-.006-2.605-.073-3.998-.199l-.114-1.729Zm2.792,8.149c-.228.33-.42.662-.578.997-.159.336-.238.712-.238,1.13,0,.748.342,1.301,1.025,1.662.685.361,1.723.542,3.115.542.887,0,1.711-.035,2.471-.104.76-.069,1.48-.174,2.165-.313l-.095,1.918c-.659.102-1.377.184-2.156.247s-1.567.095-2.365.095c-1.254,0-2.324-.13-3.21-.39-.887-.26-1.571-.658-2.052-1.197-.481-.538-.729-1.238-.74-2.099,0-.57.075-1.079.228-1.529.151-.45.342-.89.569-1.32l1.861.361Zm3.268-8.073c-.076-.316-.164-.63-.266-.94-.102-.31-.209-.624-.322-.94l2.031-.228c.064.557.162,1.124.295,1.7s.281,1.133.447,1.671c.164.539.322,1.042.475,1.51.164.469.367.981.607,1.539.24.558.506,1.108.798,1.653.291.544.589,1.051.893,1.52.114.165.234.32.361.465.126.146.266.288.418.427l-.95,1.406c-.354-.088-.781-.167-1.282-.237-.501-.069-1.013-.136-1.538-.199s-1.017-.114-1.473-.152l.152-1.443c.455.038.937.083,1.443.133.506.051.905.095,1.197.133-.52-.823-.969-1.659-1.35-2.507-.379-.848-.703-1.64-.969-2.375-.152-.443-.285-.842-.398-1.197-.114-.354-.216-.687-.305-.997-.088-.311-.177-.624-.266-.94Z"/><path class="e" d="m49.025,148.286c.316.013.623.019.921.019s.604-.006.922-.019c.304-.013.677-.035,1.12-.066s.922-.069,1.435-.114c.513-.044,1.025-.088,1.538-.133.514-.044.985-.079,1.416-.104.43-.025.778-.038,1.044-.038.621,0,1.172.099,1.653.294.48.197.864.542,1.149,1.036.284.494.427,1.184.427,2.07,0,.748-.031,1.555-.095,2.422-.063.868-.174,1.697-.332,2.489-.159.792-.377,1.453-.656,1.985-.304.659-.699,1.099-1.187,1.32-.488.221-1.067.333-1.738.333-.354,0-.741-.026-1.159-.076-.418-.051-.785-.114-1.102-.19l-.304-1.976c.253.063.528.127.826.19.298.063.579.111.846.143.266.032.48.047.646.047.342,0,.643-.06.902-.18.26-.121.478-.364.655-.731.19-.393.349-.899.475-1.52.127-.62.222-1.285.285-1.994.063-.709.095-1.393.095-2.052,0-.557-.079-.969-.237-1.235-.158-.266-.383-.446-.674-.541-.292-.095-.634-.143-1.026-.143-.304,0-.719.022-1.244.066s-1.086.098-1.681.162c-.596.063-1.146.123-1.653.18-.506.057-.905.104-1.196.143-.241.025-.548.063-.921.114-.374.051-.693.102-.96.152l-.189-2.052Zm7.218-4.046c-.037.19-.082.405-.133.646-.051.241-.095.462-.133.665-.051.253-.111.567-.181.94s-.143.76-.218,1.159c-.076.399-.159.782-.247,1.149-.127.532-.285,1.146-.476,1.843-.189.697-.408,1.441-.655,2.232-.247.792-.525,1.596-.836,2.413-.31.817-.646,1.615-1.006,2.394-.361.779-.751,1.503-1.169,2.175l-1.956-.779c.442-.595.854-1.256,1.234-1.985.38-.728.729-1.482,1.045-2.261s.602-1.548.854-2.308c.254-.76.472-1.466.655-2.118s.326-1.212.428-1.681c.177-.811.319-1.621.428-2.432.107-.81.154-1.57.143-2.279l2.222.228Zm6.554,1.918c.291.393.602.886.931,1.481.33.596.656,1.229.979,1.9.323.671.614,1.317.874,1.938s.466,1.152.617,1.596l-1.881.874c-.126-.506-.307-1.08-.541-1.719-.234-.64-.5-1.289-.798-1.947-.298-.658-.614-1.282-.949-1.871-.336-.589-.669-1.086-.998-1.491l1.767-.76Z"/><path class="e" d="m71.017,144.487c-.051.203-.114.434-.189.693-.076.26-.14.484-.19.674-.14.621-.275,1.324-.408,2.109s-.241,1.602-.323,2.45c-.082.849-.113,1.685-.095,2.507.019.824.104,1.583.257,2.28.126-.354.278-.772.455-1.254.178-.481.349-.931.514-1.349l.987.627c-.165.469-.329.981-.494,1.539-.164.558-.316,1.086-.455,1.586-.14.5-.247.915-.323,1.244-.025.152-.048.313-.066.484-.02.171-.028.307-.028.408s.006.216.019.342.025.247.038.361l-1.652.19c-.127-.393-.275-.915-.446-1.567-.172-.652-.313-1.371-.428-2.156s-.171-1.57-.171-2.355c0-1.039.041-2.039.123-3.001s.178-1.839.285-2.631.199-1.447.275-1.966c.038-.24.063-.487.076-.741s.019-.481.019-.684l2.223.209Zm2.375,3.533c.291.038.601.076.931.114.329.038.668.063,1.016.076.349.013.693.019,1.036.019.798,0,1.624-.019,2.479-.057.854-.038,1.685-.098,2.488-.181.805-.082,1.522-.187,2.156-.313l-.019,1.938c-.596.089-1.286.165-2.071.228-.785.063-1.608.111-2.469.143-.861.032-1.71.047-2.546.047-.278,0-.599-.006-.959-.019-.361-.012-.719-.025-1.073-.038-.354-.012-.678-.025-.969-.038v-1.919Zm7.18-3.818c-.025.177-.044.367-.057.57s-.025.412-.038.627v.731c0,.336.003.712.01,1.13.006.418.013.845.019,1.282.007.437.01.839.01,1.207v.893c0,1.102-.031,2.115-.095,3.04s-.222,1.786-.475,2.583c-.254.797-.656,1.536-1.207,2.213s-1.313,1.313-2.289,1.909l-1.747-1.368c.329-.14.684-.333,1.063-.58s.696-.497.95-.75c.443-.418.794-.857,1.054-1.32s.456-.975.589-1.539c.133-.563.222-1.19.267-1.88.044-.69.066-1.466.066-2.327,0-.329-.004-.741-.01-1.235-.007-.494-.019-1.003-.038-1.529-.019-.525-.035-1.01-.048-1.453s-.025-.779-.037-1.007c-.013-.228-.042-.45-.086-.665-.045-.215-.079-.393-.104-.532h2.203Z"/></svg>