<?xml version="1.0" encoding="UTF-8"?><svg id="a" xmlns="http://www.w3.org/2000/svg" width="64" height="62" viewBox="0 0 64 62"><defs><style>.b{fill:#4a2d86;stroke-width:0px;}</style></defs><path class="b" d="m11.608,31.337s.002-.002.003-.004l.012-.02-.014.023Z"/><path class="b" d="m14.522,29.261h-.007s.002.001.002.001c.002-.001.003-.001.005-.001Z"/><path class="b" d="m63.58,32.454l-6.31-.529-11.082-14.142c-.871-1.42-2.339-2.823-4.261-4.066-.181-.116-.365-.23-.551-.339l1.323-1.844c.437-.61.767-1.084.976-1.386,3.131-4.609,1.148-7.401-1.067-8.93-1.174-.808-2.335-1.217-3.451-1.217-1.894,0-3.642,1.16-5.196,3.447-.397.589-2.213,3.496-3.817,6.061l-1.013,1.62-7.749.002c-1.766.073-3.241.38-4.51.937-1.303.57-2.452,1.454-3.376,2.587l-6.683,6.396c-1.238,1.153-2.119,2.558-2.615,4.175-.387,1.258-.505,2.467-.599,3.438l-.025.255-1.707,12.635c-.183.794-.276,1.546-.276,2.237-.006,2.133.862,3.458,1.378,4.058.413.484.828.796,1.114.979-.628.558-1.005,1.342-1.05,2.197l-1.297,6.138-.371.547c-.4.166-.735.439-.974.794C.134,58.878,0,59.314,0,59.762c0,.739.359,1.429.966,1.848l.157.107c.045.032.092.053.142.067.296.142.619.216.952.216.732,0,1.416-.364,1.832-.973.243-.36.377-.777.386-1.209l.309-.455s6.334-2.647,6.341-2.65c.89-.361,1.573-1.133,1.842-2.08.084-.166.391-.771.75-1.519.33-.687.609-1.294.832-1.814.054.021.112.032.17.032.028,0,.057-.002.085-.007.12-.023.225-.092.294-.194l.598-.882c.089-.132.105-.299.042-.445-.002-.005-.223-.551.123-1.059l.035-.051c.489.242,1.013.403,1.564.481.212.374.473.726.777,1.047.629.669,2.057,1.792,4.591,1.792,1.143,0,2.441-.238,3.86-.705.885.676,1.821,1.237,2.855,1.714,2.392,1.102,5.063,1.649,7.594,2.076,1.868.313,4.203.471,6.94.471,4.165,0,7.951-.362,8.787-.448l10.67,1.096c.016.002.032.002.047.002.113,0,.222-.042.307-.119.096-.088.151-.211.151-.343v-22.846c0-.241-.182-.44-.421-.46ZM3.573,43.792c0-.528.068-1.14.236-1.849l.009-.037,1.724-12.75.002-.012c.103-1.052.198-2.194.548-3.323.351-1.13.938-2.247,2.073-3.306l.01-.009,6.739-6.451.029-.037c.798-.981,1.671-1.654,2.72-2.117,1.047-.459,2.284-.706,3.788-.771h6.965c-1.928,3.079-4.264,6.834-6.576,10.558l-5.127,3.96-.355.736c-.106-.047-.216-.098-.334-.155-.582-.275-1.284-.62-1.839-.894-.555-.275-.962-.48-.963-.48l-.683,1.376s.732.369,1.572.781c.159.077.323.158.487.237-.027.007-.054.007-.08.014-1.227.252-2.268,1.016-2.906,2.072l-.784,1.317h0c-.424.714-.633,1.512-.633,2.304,0,1.129.424,2.249,1.24,3.11l.016.015.211.219-.949,3.189c-.48.707-1.37,2.016-1.726,2.542-.5.736-1.333.701-1.333.701l-.599.883.587.404c-.436.404-.945.896-1.423,1.364-.132.034-.248.055-.337.055-.149-.003-.269-.025-.496-.165l-.052-.034-.043-.018-.071-.039c-.167-.095-.581-.369-.945-.894-.364-.527-.696-1.298-.699-2.494Zm15.954-16.379c-.54.87-1.069,1.724-1.584,2.551l-.027-.014v.002c-.154-.104-.314-.199-.48-.284l.493-1.02,1.597-1.235Zm-14.666,21.321c-.009.009-.013.014-.022.023-.001-.016-.011-.028-.013-.043.012.006.024.014.035.02Zm7.373,3.676c-.206.429-.396.814-.535,1.091-.138.277-.224.443-.224.443l-.035.069-.016.077c-.109.521-.472.948-.965,1.137l-.008.003-6.761,2.824-.917,1.352.048.24.012.121c0,.12-.033.237-.107.347-.119.174-.31.268-.508.268-.121,0-.239-.034-.346-.107-.175-.121-.266-.313-.267-.512,0-.119.034-.237.105-.344l.002-.004c.099-.145.24-.231.4-.26l.239-.041.885-1.303,1.384-6.547v-.062s0-.01,0-.01c0-.529.264-1.02.703-1.308l.051-.035.043-.044s.364-.369.87-.875c.234-.038,2.192-1.899,2.329-2.02l1.988,1.508h-.001l.405.279,2.211,1.526c-.268.662-.646,1.482-.985,2.185Zm4.343-5.594c.482-.709.914-1.346.914-1.346l-5.285-3.646.427-1.436,5.718,3.935c.073-.11.184-.269.329-.472l.619.482,2.27,1.773c-1.414.845-2.523,1.127-3.362,1.126-.674-.002-1.203-.175-1.629-.418Zm6.211,3.199c-1.699-.009-2.601-.605-3.155-1.176-.068-.07-.113-.14-.17-.209,1.007-.215,2.134-.696,3.392-1.52l1.179.92c.444.577.902,1.099,1.377,1.576-1.034.291-1.902.409-2.623.409Zm39.228,4.042l-9.195-.945-.08.009s-.254.026-.713.068c-1.378.127-4.576.381-7.989.381-2.274.001-4.646-.113-6.614-.443h0c-2.813-.473-5.125-1.013-7.094-1.923-1.968-.912-3.612-2.179-5.154-4.197l-.061-.08-4.681-3.652-6.678-5.2-.727-.564-.495-.514.005.005c-.54-.57-.817-1.304-.817-2.047,0-.521.136-1.041.416-1.512l.791-1.331-.016.027c.429-.709,1.111-1.205,1.912-1.369l.007-.002c.197-.041.391-.062.583-.062.259,0,.512.037.763.11l.022.006h.002c.318.083.623.231.918.439l.039.028.837.448,7.827,4.171,1.598.853,4.35-.234-.081-1.537-3.928.212-1.225-.654-.732-.39c4.238-5.732,10.267-14.16,13.999-19.374.357.196.71.402,1.051.621l.003.002c1.595,1.02,2.97,2.29,3.672,3.478l.026.044,11.688,14.92,5.77.485v19.726h0Z"/><path class="b" d="m5.475,52.602c-.308.452-.193,1.071.257,1.383.45.309,1.064.194,1.373-.26.307-.454.193-1.072-.257-1.384-.45-.312-1.065-.194-1.373.261Z"/></svg>