<?xml version="1.0" encoding="utf-8"?>
<!-- Generator: Adobe Illustrator 27.9.0, SVG Export Plug-In . SVG Version: 6.00 Build 0)  -->
<svg version="1.1" id="Layer_1" xmlns="http://www.w3.org/2000/svg" xmlns:xlink="http://www.w3.org/1999/xlink" x="0px" y="0px"
	 viewBox="0 0 160 160" style="enable-background:new 0 0 160 160;" xml:space="preserve">
<style type="text/css">
	.st0{display:none;}
	.st1{display:inline;fill:none;}
	.st2{display:inline;}
	.st3{fill:url(#SVGID_1_);}
	.st4{fill:url(#SVGID_00000000936957525028882220000003872869622144241593_);}
	.st5{fill:url(#SVGID_00000130626266665194858800000005501672002859160511_);}
	.st6{fill:url(#SVGID_00000063610177097324196860000003582627057951599492_);}
	.st7{opacity:0.5;fill:#D9C3A6;enable-background:new    ;}
	.st8{fill:none;stroke:#7153AC;stroke-width:3;stroke-linecap:round;stroke-linejoin:round;stroke-miterlimit:10;}
	.st9{fill:#D9C3A6;fill-opacity:0.5;stroke:#7153AC;stroke-width:3;stroke-miterlimit:10;}
	.st10{fill:#7153AC;}
	.st11{fill:#FFFFFF;}
	.st12{opacity:0.75;fill:url(#SVGID_00000074419329326393699760000002518282364840277940_);enable-background:new    ;}
	.st13{fill:url(#SVGID_00000054976362276275676890000005659683524628168844_);}
</style>
<g class="st0">
	<rect class="st1" width="160" height="160"/>
	<g class="st2">
		<g>
			
				<linearGradient id="SVGID_1_" gradientUnits="userSpaceOnUse" x1="60.6119" y1="9.2574" x2="92.4003" y2="77.0288" gradientTransform="matrix(1 0 0 -1 0 160)">
				<stop  offset="0.1908" style="stop-color:#D9C3A6;stop-opacity:0.5"/>
				<stop  offset="0.6554" style="stop-color:#D9C3A6;stop-opacity:0.1"/>
			</linearGradient>
			<path class="st3" d="M128.2,123.1c-0.3-0.2-0.5-0.7-1-1c-1.2-1-2.5-2.2-4.2-3.5c-6.7-5-16.7-11-26.9-18.9
				C89.2,94.5,82.2,84.8,76.3,85c-5.2,0.2-8,7.5-17,9.5c-10.5,2.5-11.7-3.5-9-7c2.5-3.7,5.5-5.2,7.7-8c1-1.2,2.5-2.7,4.2-4.2
				c-5.5,0.5-16,0.5-23.2-3.7l-13,37.9l12.5,14.9c1.7-2,4.7-2.2,6.7-0.5c2,1.7,2.2,4.7,0.7,6.7l1.2-1.5c2.2-2.5,6-3,8.5-0.7
				c2.5,2.2,2.7,6,0.7,8.7l-1,1.2l1.2-1.5c2.2-2.5,6-3,8.5-0.7s2.7,6,0.7,8.7l-0.7,1l1.2-1.5c1.7-2,4.7-2.5,7-0.5c2,1.7,2.2,5,0.5,7
				l-1.5,1.7l8.7,5.2c1,0.5,2.2,0.7,3.2,0.7c4.2,0,7.7-3.5,7.7-8c0-0.5,0-1.2-0.2-1.7l4.5,2.7c1.2,0.7,2.5,1.2,4,1.2
				c4.5,0,8-3.7,8-8.2c0-0.2,0-0.5,0-1c1.2,0.7,2.5,1.2,4,1.2c4.5,0,8-3.7,8-8.2c0-0.7,0-1.2-0.2-2c0.7,0.2,1.2,0.2,2,0.2
				c4,0,7.2-3.2,7.2-7.5C129.9,126.1,129.2,124.4,128.2,123.1z"/>
			
				<linearGradient id="SVGID_00000079479623744162597480000004650247927608747407_" gradientUnits="userSpaceOnUse" x1="101.3201" y1="33.3025" x2="79.2234" y2="94.132" gradientTransform="matrix(1 0 0 -1 0 160)">
				<stop  offset="0.1407" style="stop-color:#D9C3A6;stop-opacity:0.5"/>
				<stop  offset="0.6692" style="stop-color:#D9C3A6;stop-opacity:0.1"/>
			</linearGradient>
			<path style="fill:url(#SVGID_00000079479623744162597480000004650247927608747407_);" d="M133.9,109.7c0,0-6.5,3.2-10.7,9
				c-6.7-5-16.7-11-26.9-18.9C89.5,94.5,82.5,84.8,76.5,85c-5.2,0.2-8,7.5-17,9.5c-10.5,2.5-11.7-3.5-9-7c2.5-3.7,5.5-5.2,7.7-8
				c1-1.2,2.5-2.7,4.2-4.2c3.7-3.5,8.5-7,12.2-7.7c6.2-1,25,5.7,32.9,5.7c9.2,0.2,13-1.5,13-1.5L133.9,109.7z"/>
			
				<linearGradient id="SVGID_00000104691819361154321630000000584462914144074161_" gradientUnits="userSpaceOnUse" x1="12.9442" y1="52.0254" x2="28.7151" y2="95.4407" gradientTransform="matrix(1 0 0 -1 0 160)">
				<stop  offset="0" style="stop-color:#FFFFFF;stop-opacity:0"/>
				<stop  offset="1" style="stop-color:#FFFFFF;stop-opacity:0.35"/>
			</linearGradient>
			<path style="fill:url(#SVGID_00000104691819361154321630000000584462914144074161_);" d="M22.4,113.2l-19.2-7
				c-1.2-0.5-2-2-1.5-3.2l14.5-42.3c0.5-1.2,2-2,3.2-1.5l19.2,7c1.2,0.5,2,2,1.5,3.2l-14.5,42.3C25.1,112.9,23.6,113.7,22.4,113.2z"
				/>
			
				<linearGradient id="SVGID_00000088091648537746051890000017966802344386119601_" gradientUnits="userSpaceOnUse" x1="130.6101" y1="97.2991" x2="147.6396" y2="50.4187" gradientTransform="matrix(1 0 0 -1 0 160)">
				<stop  offset="0" style="stop-color:#FFFFFF;stop-opacity:0.35"/>
				<stop  offset="1" style="stop-color:#FFFFFF;stop-opacity:0"/>
			</linearGradient>
			<path style="fill:url(#SVGID_00000088091648537746051890000017966802344386119601_);" d="M137.6,113.2l19.2-7
				c1.2-0.5,2-2,1.5-3.2l-14.5-42.3c-0.5-1.2-2-2-3.2-1.5l-19.2,7c-1.2,0.5-2,2-1.5,3.2l14.5,42.3
				C134.9,112.9,136.4,113.7,137.6,113.2z"/>
			<path class="st7" d="M73.5,143.6c-2-1.7-5.2-1.5-7,0.5l-1.2,1.5l0.7-1c2.2-2.5,1.7-6.5-0.7-8.7c-2.5-2.2-6.2-2-8.5,0.7l-1.7,2
				l1.2-1.7c2.2-2.5,1.7-6.5-0.7-8.7c-2.5-2.2-6.2-2-8.5,0.7l-1.5,1.7c1.7-2,1.5-5.2-0.5-7c-2-1.7-5-1.5-6.7,0.5l-2,2.2
				c-1.7,2-1.5,5.2,0.5,7c2,1.7,5,1.5,6.7-0.5l0.7-1c-2.2,2.5-1.7,6.5,0.7,8.7c2.5,2.2,6.2,2,8.5-0.7l0.7-0.7
				c-2,2.5-1.7,6.2,0.7,8.5c2.5,2.2,6.2,2,8.5-0.7l0.7-0.7l-0.2,0.2c-1.7,2-1.5,5.2,0.5,7c2,1.7,5.2,1.5,7-0.5l1.7-2.2
				C75.8,148.5,75.5,145.3,73.5,143.6z"/>
		</g>
		<g>
			<path class="st8" d="M92.2,148.8l4.7,3"/>
			<path class="st8" d="M128.2,123.1c-0.3-0.2-0.5-0.7-1-1c-1.2-1-2.5-2.2-4.2-3.5c-6.7-5-16.7-11-26.9-18.9
				C89.2,94.5,82.2,84.8,76.3,85c-5.2,0.2-8,7.5-17,9.5c-10.5,2.5-11.7-3.5-9-7c2.5-3.7,5.5-5.2,7.7-8c1-1.2,2.5-2.7,4.2-4.2
				c-5.5,0.5-16,0.5-23.2-3.7l-13,37.9l12.5,14.9c1.7-2,4.7-2.2,6.7-0.5c2,1.7,2.2,4.7,0.7,6.7l1.2-1.5c2.2-2.5,6-3,8.5-0.7
				c2.5,2.2,2.7,6,0.7,8.7l-1,1.2l1.2-1.5c2.2-2.5,6-3,8.5-0.7s2.7,6,0.7,8.7l-0.7,1l1.2-1.5c1.7-2,4.7-2.5,7-0.5c2,1.7,2.2,5,0.5,7
				l-1.5,1.7l8.7,5.2c1,0.5,2.2,0.7,3.2,0.7c4.2,0,7.7-3.5,7.7-8c0-0.5,0-1.2-0.2-1.7l4.5,2.7c1.2,0.7,2.5,1.2,4,1.2
				c4.5,0,8-3.7,8-8.2c0-0.2,0-0.5,0-1c1.2,0.7,2.5,1.2,4,1.2c4.5,0,8-3.7,8-8.2c0-0.7,0-1.2-0.2-2c0.7,0.2,1.2,0.2,2,0.2
				c4,0,7.2-3.2,7.2-7.5C129.9,126.1,129.2,124.4,128.2,123.1z"/>
			<path class="st8" d="M90.2,132.4l18.7,11.5"/>
			<path class="st8" d="M80.5,141.6l11.7,7.2"/>
			<path class="st8" d="M46.3,130.6l-2,2.2c-1.7,2-4.7,2.2-6.7,0.5c-2-1.7-2.2-5-0.5-7l2-2.2c1.7-2,4.7-2.2,6.7-0.5
				C47.8,125.4,48.1,128.6,46.3,130.6z"/>
			<path class="st8" d="M56.8,137.1l-2.5,3c-2.2,2.5-6,3-8.5,0.7c-2.5-2.2-2.7-6-0.7-8.7l2.5-3c2.2-2.5,6-3,8.5-0.7
				C58.5,130.6,58.8,134.3,56.8,137.1z"/>
			<path class="st8" d="M66,144.6l-2,2.2c-2.2,2.5-6,3-8.5,0.7c-2.5-2.2-2.7-6-0.7-8.7l2-2.2c2.2-2.5,6-3,8.5-0.7
				C68,138.1,68.3,142.1,66,144.6z"/>
			<path class="st8" d="M74,150.5l-1.7,2.2c-1.7,2-4.7,2.5-7,0.5c-2-1.7-2.2-5-0.5-7l1.7-2.2c1.7-2,4.7-2.5,7-0.5
				C75.5,145.3,75.8,148.5,74,150.5z"/>
			<path class="st8" d="M22.4,113.2l-19.2-7c-1.2-0.5-2-2-1.5-3.2l14.5-42.3c0.5-1.2,2-2,3.2-1.5l19.2,7c1.2,0.5,2,2,1.5,3.2
				l-14.5,42.3C25.1,112.9,23.6,113.7,22.4,113.2z"/>
			<path class="st8" d="M137.6,113.2l19.2-7c1.2-0.5,2-2,1.5-3.2l-14.5-42.3c-0.5-1.2-2-2-3.2-1.5l-19.2,7c-1.2,0.5-2,2-1.5,3.2
				l14.5,42.3C134.9,112.9,136.4,113.7,137.6,113.2z"/>
			<path class="st8" d="M133.9,109.7c0,0-6.5,3.2-10.7,9c-6.7-5-16.7-11-26.9-18.9C89.5,94.5,82.5,84.8,76.5,85
				c-5.2,0.2-8,7.5-17,9.5c-10.5,2.5-11.7-3.5-9-7c2.5-3.7,5.5-5.2,7.7-8c1-1.2,2.5-2.7,4.2-4.2c3.7-3.5,8.5-7,12.2-7.7
				c6.2-1,25,5.7,32.9,5.7c9.2,0.2,13-1.5,13-1.5L133.9,109.7z"/>
			<path class="st8" d="M101,123.1l17.7,10.7c0.5,0.5,1.2,0.7,2,1"/>
			<path class="st8" d="M116.2,19.6c-21.7,8.2-1.5,21.9,4.2,16.4c6.5-6-21.2-18.2-36.9,8.7"/>
			<path class="st8" d="M49.3,41c14,6,2.5,24.2-3.7,16.4c-6-7.2,18.2-17.7,36.2,1.5"/>
			<path class="st9" d="M44.6,19.1l-0.2,6.5c0,0.5,0.2,0.7,0.5,1l5.2,3.7c0.7,0.5,0.7,2-0.2,2.2l-6.2,2c-0.5,0.2-0.7,0.5-0.7,0.7
				l-2,6.2c-0.2,1-1.7,1.2-2.2,0.2l-3.5-5c-0.2-0.2-0.7-0.5-1-0.5h-6.5c-1,0-1.7-1.2-1-2l4-5.2c0.2-0.2,0.2-0.7,0.2-1.2l-2-6.2
				c-0.2-1,0.5-2,1.5-1.5l6,2.2c0.5,0.2,0.7,0,1.2-0.2l5-4C43.6,17.3,44.8,18.1,44.6,19.1z"/>
			<path class="st9" d="M105.2,43.2l2.5,3.7c0.2,0.2,0.5,0.5,0.7,0.5h4.5c0.7,0,1.2,0.7,0.7,1.5l-2.7,3.7c-0.2,0.2-0.2,0.5-0.2,0.7
				l1.7,4.2c0.2,0.7-0.5,1.2-1,1.2l-4.2-1.5c-0.2,0-0.5,0-0.7,0.2l-3.7,2.5c-0.5,0.5-1.5,0-1.5-0.7v-4.5c0-0.2-0.3-0.5-0.3-0.7
				l-3.7-2.7c-0.5-0.5-0.5-1.2,0.2-1.5l4.2-1.5c0.2,0,0.5-0.2,0.5-0.5l1.2-4.5C104,43,105,42.7,105.2,43.2z"/>
			<path class="st9" d="M77.5,7.6l0.5,3.2c0,0.2,0.2,0.5,0.2,0.5l3,1.5c0.5,0.2,0.5,1,0,1.2l-3,1.2c-0.2,0-0.2,0.2-0.2,0.5l-0.5,3.2
				c0,0.5-0.7,0.7-1,0.2l-2.2-2.2c-0.2-0.2-0.2-0.2-0.5-0.2l-3.2,0.5c-0.5,0-1-0.5-0.7-1l1.5-3c0-0.2,0-0.5,0-0.5l-1.5-3
				c-0.2-0.5,0.2-1,0.7-1l3.2,0.5c0.2,0,0.5,0,0.5-0.2l2.2-2.2C77,6.8,77.5,7.1,77.5,7.6z"/>
			<path class="st9" d="M126.9,1.9l4,3.5c0.2,0,0.5,0,0.7,0l5-1.2c0.7-0.2,1.5,0.5,1.2,1.2l-2,5c-0.2,0.2,0,0.7,0,1l2.7,4.5
				c0.5,0.7,0,1.7-1,1.5l-5.2-0.5c-0.2,0-0.7,0-0.7,0.2l-3.2,4c-0.5,0.7-1.5,0.5-1.7-0.5l-1.2-5c0-0.2-0.2-0.5-0.5-0.7l-5-2
				c-0.5,0-0.7-1.2,0-1.5l4.5-2.7c0.2-0.2,0.5-0.5,0.5-1l0.3-5.2C125.2,1.6,126.2,1.1,126.9,1.9z"/>
		</g>
		<path class="st10" d="M15.9,104c2.1,0,3.7-1.8,3.7-4c0-2.2-1.7-4-3.7-4s-3.7,1.8-3.7,4C12.1,102.2,13.8,104,15.9,104z"/>
		<path class="st10" d="M144.1,104c2.1,0,3.7-1.8,3.7-4c0-2.2-1.7-4-3.7-4c-2.1,0-3.7,1.8-3.7,4C140.4,102.2,142.1,104,144.1,104z"
			/>
		<path class="st10" d="M69.8,37.7c2.1,0,3.7-1.7,3.7-3.7c0-2.1-1.7-3.7-3.7-3.7S66,31.9,66,34C66,36.1,67.7,37.7,69.8,37.7z"/>
		<path class="st10" d="M22.6,10.8c2.1,0,3.7-1.7,3.7-3.7s-1.7-3.7-3.7-3.7S18.9,5,18.9,7.1S20.5,10.8,22.6,10.8z"/>
		<path class="st10" d="M53.8,12.8c1.4,0,2.5-1.1,2.5-2.5c0-1.4-1.1-2.5-2.5-2.5c-1.4,0-2.5,1.1-2.5,2.5
			C51.3,11.7,52.4,12.8,53.8,12.8z"/>
		<path class="st10" d="M99.5,17.8c2.1,0,3.7-1.7,3.7-3.7c0-2.1-1.7-3.7-3.7-3.7c-2.1,0-3.7,1.7-3.7,3.7
			C95.7,16.1,97.4,17.8,99.5,17.8z"/>
	</g>
</g>
<g>
	<path class="st11" d="M147.4,100.2L135.3,67L116.7,51l-0.3-0.2L81.6,29l-0.3-0.2l-22.6-9.7c0,0,0,0-0.3-0.2l-35.6,3.3
		c-1-0.2-1.8,0.4-1.7,1.5c-0.2,0.3-0.1,0.7,0.2,0.9l13.2,113.2c0.1,1,0.7,1.9,1.6,2.5h0c0.9,0.5,1.9,0.7,2.9,0.3l107.2-37.9
		c0.4-0.1,0.7,0.1,0.9-0.2C147.8,101.9,148.1,100.9,147.4,100.2z"/>
	
		<radialGradient id="SVGID_00000096743543138488361180000001582463148407473319_" cx="15.9652" cy="148.2494" r="1.014" fx="14.954" fy="148.1751" gradientTransform="matrix(56.1973 0 0 -6.4689 -805.4525 1099.2983)" gradientUnits="userSpaceOnUse">
		<stop  offset="0" style="stop-color:#553E80"/>
		<stop  offset="1" style="stop-color:#7153AC;stop-opacity:0"/>
	</radialGradient>
	<path style="opacity:0.75;fill:url(#SVGID_00000096743543138488361180000001582463148407473319_);enable-background:new    ;" d="
		M91.8,147c31.6,0,57.2-3,57.2-6.7c0-3.7-25.6-6.7-57.2-6.7c-31.6,0-57.2,3-57.2,6.7C34.5,144,60.1,147,91.8,147z"/>
	
		<linearGradient id="SVGID_00000061471654559505424880000015724770180451205545_" gradientUnits="userSpaceOnUse" x1="130.1346" y1="35.7905" x2="56.7637" y2="136.7769" gradientTransform="matrix(0.848 0.5299 0.5299 -0.848 -39.4157 102.9133)">
		<stop  offset="0.1741" style="stop-color:#7153AC"/>
		<stop  offset="0.2847" style="stop-color:#7153AC;stop-opacity:0.9685"/>
		<stop  offset="1" style="stop-color:#7153AC;stop-opacity:0.15"/>
	</linearGradient>
	<path style="fill:url(#SVGID_00000061471654559505424880000015724770180451205545_);" d="M147.4,100.2L135.3,67L116.7,51l-0.3-0.2
		L81.6,29l-0.3-0.2l-22.6-9.7c0,0,0,0-0.3-0.2l-35.6,3.3c-1-0.2-1.8,0.4-1.7,1.5c-0.2,0.3-0.1,0.7,0.2,0.9l13.2,113.2
		c0.1,1,0.7,1.9,1.6,2.5h0c0.9,0.5,1.9,0.7,2.9,0.3l107.2-37.9c0.4-0.1,0.7,0.1,0.9-0.2C147.8,101.9,148.1,100.9,147.4,100.2z
		 M140.1,91.1l-23.2-28.2l14.9,6L140.1,91.1z M33.9,24.8l24-2.4l12.5,11.1L42.2,47.4l-0.3-0.2L27.1,26.5l35.8,5.7L33.9,24.8z
		 M47.7,127.2l21.4-40.4l-26.9,36.9l-1.3-67.5l-4.9,61L25.7,30.4l14.5,18.3l0.3,0.2l33,23.6l-31-24.9l29.6-10.8L76.6,70l-0.8-35.4
		c0.3-0.5,0.2-1-0.2-1.6c-0.1-0.4-0.4-0.6-0.9-1l-6.6-6l12.3,5.4l33.8,21.1l10.3,8.6l-8.2-3.3c-0.3-0.2-0.5-0.3-0.5-0.3l-0.3-0.2
		L83.8,40.8l26.9,18.7L89.3,69.8l23.3-7.3l3.3,31.4l-36-16.9l34.8,18.8L47.7,127.2z M116.4,94.2l-0.1-31.6l25.5,35.6L116.4,94.2z"/>
</g>
</svg>
