<?xml version="1.0" encoding="UTF-8"?><svg id="a" xmlns="http://www.w3.org/2000/svg" width="56.631" height="64" viewBox="0 0 56.631 64"><defs><style>.b{fill:#4a2d86;stroke-width:0px;}</style></defs><path class="b" d="m16.817,15.313h15.629c2.391,0,4.337-1.946,4.337-4.337v-3.356c0-2.391-1.946-4.337-4.337-4.337h-3.424c-.564-1.923-2.318-3.284-4.39-3.284s-3.827,1.361-4.391,3.284h-3.423c-2.391,0-4.337,1.946-4.337,4.337v3.356c0,2.391,1.946,4.337,4.337,4.337Zm7.816-12.368c.91,0,1.651.741,1.651,1.651s-.741,1.654-1.651,1.654-1.654-.741-1.654-1.654c0-.91.742-1.651,1.654-1.651Z"/><polygon class="b" points="16.18 25.609 20.137 21.651 18.699 20.212 14.74 24.17 12.222 21.651 10.783 23.09 14.74 27.048 16.18 25.609"/><polygon class="b" points="16.18 35.954 20.137 31.996 18.699 30.557 14.74 34.515 12.222 31.996 10.783 33.435 14.74 37.393 16.18 35.954"/><polygon class="b" points="20.137 42.341 18.699 40.903 14.74 44.86 12.222 42.341 10.783 43.78 14.74 47.739 20.137 42.341"/><path class="b" d="m39.43,13.063h3.789c.073,0,.132.059.132.132v13.937l5.912-5.912v-7.794c0-3.624-2.948-6.571-6.571-6.571h-2.995c.027.252.041.506.041.765v3.356c0,.726-.11,1.425-.308,2.087Z"/><path class="b" d="m43.351,46.832v9.549c0,.073-.059.132-.132.132H6.043c-.073,0-.132-.059-.132-.132V13.195c0-.073.059-.132.132-.132h3.789c-.198-.662-.308-1.361-.308-2.087v-3.356c0-.259.014-.513.041-.765h-2.995c-3.623,0-6.571,2.947-6.571,6.571v44.003c0,3.624,2.948,6.571,6.571,6.571h36.121c3.623,0,6.571-2.947,6.571-6.571v-15.763l-5.165,5.166h-.746Z"/><path class="b" d="m55.771,25.813l-1.891-1.889c-1.147-1.149-3.007-1.147-4.153,0l-1.769,1.769,6.043,6.043,1.769-1.769c1.146-1.148,1.146-3.007,0-4.155Z"/><polygon class="b" points="31.385 42.267 31.385 48.31 37.428 48.31 52.353 33.385 46.31 27.342 31.385 42.267"/></svg>