<?xml version="1.0" encoding="UTF-8"?><svg id="a" xmlns="http://www.w3.org/2000/svg" width="384" height="256" viewBox="0 0 384 256"><defs><style>.b{stroke-dasharray:0 0 4.286 8.571;}.b,.c{fill:none;stroke:#4a2d86;stroke-linecap:round;stroke-linejoin:round;stroke-width:2px;}.d{opacity:.5;}.e{fill:#4a2d86;}.e,.f,.g,.h{stroke-width:0px;}.f{fill:#201339;}.g{fill:#ecedf9;}.h{fill:#fff;}</style></defs><line class="c" x1="224" y1="128" x2="226" y2="128"/><line class="b" x1="234.571" y1="128" x2="281.714" y2="128"/><line class="c" x1="286" y1="128" x2="288" y2="128"/><path class="g" d="m232,128l-10.357-7.768c-8.588-6.441-13.643-16.55-13.643-27.286V4c0-2.209-1.791-4-4-4H4C1.791,0,0,1.791,0,4v248c0,2.209,1.791,4,4,4h200c2.209,0,4-1.791,4-4v-88.946c0-10.735,5.054-20.844,13.643-27.286l10.357-7.768Z"/><g class="d"><path class="f" d="m204,.5c1.93,0,3.5,1.57,3.5,3.5v88.946c0,10.835,5.175,21.185,13.843,27.686l9.824,7.368-9.824,7.368c-8.668,6.501-13.843,16.851-13.843,27.686v88.947c0,1.93-1.57,3.5-3.5,3.5H4c-1.93,0-3.5-1.57-3.5-3.5V4C.5,2.07,2.07.5,4,.5h200m0-.5H4C1.791,0,0,1.791,0,4v248c0,2.209,1.791,4,4,4h200c2.209,0,4-1.791,4-4v-88.947c0-10.735,5.054-20.844,13.643-27.286l10.357-7.768-10.357-7.768c-8.588-6.441-13.643-16.55-13.643-27.286V4c0-2.209-1.791-4-4-4h0Z"/></g><rect class="e" x="224" y="216" width="160" height="40" rx="4" ry="4"/><rect class="g" x="16" y="56" width="64" height="40" rx="4" ry="4"/><g class="d"><path class="f" d="m76,56.5c1.93,0,3.5,1.57,3.5,3.5v32c0,1.93-1.57,3.5-3.5,3.5H20c-1.93,0-3.5-1.57-3.5-3.5v-32c0-1.93,1.57-3.5,3.5-3.5h56m0-.5H20c-2.209,0-4,1.791-4,4v32c0,2.209,1.791,4,4,4h56c2.209,0,4-1.791,4-4v-32c0-2.209-1.791-4-4-4h0Z"/></g><polygon class="e" points="304 144 320 112 288 112 304 144"/><path class="h" d="m252.928,240.526h7.587v-1.78h-8.984c.036-.145.088-.288.115-.434.081-.444.131-.885.164-1.324h6.252v-1.693h-6.209v-1.672h6.556v-1.259h1.716v-4.407h-8.186v-2.019h-2.127v2.019h-8.141v4.407h1.866v1.259h6.231v1.672h-5.884v1.693h5.841c-.025.295-.061.592-.109.89-.047.291-.124.58-.219.868h-7.988v1.78h7.049c-.252.322-.547.638-.894.944-.63.558-1.47,1.085-2.519,1.585-1.049.499-2.363.952-3.939,1.357.145.145.299.318.467.521.166.203.321.405.466.608.145.202.253.376.325.521,1.637-.478,3.015-1.006,4.137-1.585,1.121-.579,2.037-1.201,2.746-1.867.667-.626,1.182-1.279,1.554-1.957.432.768.931,1.461,1.506,2.066.84.883,1.859,1.603,3.062,2.16,1.201.557,2.591.973,4.168,1.248.145-.275.337-.594.575-.955.239-.362.459-.644.662-.847-2.214-.275-4.049-.839-5.503-1.693-.958-.562-1.728-1.274-2.344-2.106Zm-9.238-8.575v-2.193h14.307v2.193h-6.144v-1.563h-2.084v1.563h-6.079Z"/><path class="h" d="m279.474,238.073h-2.946c.112-.667.21-1.348.275-2.062h-2.062c-.056.716-.152,1.398-.268,2.062h-3.487v1.737h3.065c-.144.413-.313.813-.515,1.194-.383.724-.919,1.382-1.606,1.976-.688.594-1.596,1.093-2.725,1.498.217.188.441.441.674.76.23.318.404.601.521.847,1.259-.492,2.283-1.085,3.072-1.78.788-.694,1.407-1.472,1.855-2.333.352-.674.61-1.402.82-2.16h3.192c-.059.558-.118,1.055-.179,1.476-.108.753-.228,1.328-.358,1.726-.13.398-.268.669-.412.814-.102.102-.206.167-.314.195-.108.029-.25.043-.424.043s-.445-.007-.813-.021c-.369-.014-.771-.043-1.205-.087.145.261.268.572.369.934.101.361.159.687.173.977.507.014.974.021,1.4.021s.771-.015,1.031-.043c.305-.043.572-.108.804-.195s.456-.239.673-.456c.217-.231.405-.586.564-1.063s.308-1.14.445-1.987c.137-.847.271-1.921.401-3.224.015-.145.036-.427.065-.847h-2.084Z"/><path class="h" d="m278.002,233.349c.211-.198.417-.402.613-.616.735-.802,1.327-1.756,1.793-2.844h1.518v-1.737h-6.914c.341-.56.656-1.129.922-1.715l-1.933-.543c-.434,1.028-1.023,2.008-1.769,2.942-.746.934-1.545,1.719-2.399,2.355.174.087.365.199.575.336.21.138.416.282.619.434.202.152.369.286.499.402.44-.383.877-.827,1.313-1.307.466.694.975,1.358,1.575,1.957.125.125.272.229.402.349-.231.133-.469.26-.717.379-.805.383-1.709.694-2.663.969.068-.284.14-.569.199-.85l-1.259-.412-.282.087h-1.358l.946-1.021c-.391-.318-.887-.655-1.488-1.01-.079-.047-.168-.088-.248-.134.246-.193.492-.396.738-.615.521-.463,1.013-.962,1.476-1.498s.854-1.057,1.173-1.563l-1.303-.825-.325.087h-7.229v1.737h5.76c-.346.401-.71.794-1.114,1.172-.25.234-.503.448-.757.65-.02-.01-.038-.021-.058-.031-.658-.326-1.291-.604-1.898-.836l-1.281,1.324c.607.246,1.24.546,1.899.901.658.355,1.28.716,1.867,1.085.317.2.595.391.846.576h-5.547v1.823h3.06c-.154.396-.327.794-.52,1.194-.391.811-.825,1.567-1.303,2.269-.478.702-.984,1.292-1.52,1.769.174.275.361.597.564.966.202.369.347.698.435.988.607-.564,1.168-1.277,1.682-2.138.48-.806.916-1.68,1.314-2.613v5.945c0,.13-.025.214-.076.25s-.142.062-.271.076c-.145.015-.406.019-.781.011-.377-.007-.789-.018-1.238-.033.131.275.254.597.369.966.115.369.195.691.238.966.666,0,1.234-.019,1.705-.054.47-.037.857-.127,1.161-.271.333-.174.554-.409.662-.706.108-.297.163-.684.163-1.162v-8.423h1.678c-.076.338-.154.678-.246,1.031-.231.89-.47,1.639-.716,2.247l1.41.695c.318-.709.627-1.56.924-2.551.098-.328.183-.651.271-.976.083.112.17.221.25.335.151.217.264.398.337.542,1.403-.419,2.684-.948,3.842-1.584.279-.153.549-.317.81-.488.339.23.67.469,1.035.672,1.129.629,2.358,1.118,3.69,1.465.102-.188.225-.391.369-.608s.3-.427.467-.629c.166-.203.322-.369.467-.5-1.273-.275-2.464-.673-3.571-1.194-.302-.142-.57-.312-.852-.47Zm-2.068-1.408c-.715-.622-1.302-1.309-1.775-2.052h3.979c-.33.703-.758,1.339-1.292,1.899-.155.163-.322.316-.491.467-.136-.108-.291-.202-.421-.315Z"/><path class="h" d="m296.896,238.746c.361.579.644,1.093.847,1.542l1.736-1.085c-.231-.434-.532-.934-.9-1.498-.369-.564-.768-1.147-1.194-1.748s-.836-1.147-1.227-1.639l-1.606.912c.391.521.788,1.093,1.193,1.715.405.623.789,1.223,1.151,1.802Z"/><path class="h" d="m301.106,229.303h-4.46c.354-.979.664-1.97.922-2.975l-1.976-.456c-.231.97-.518,1.936-.857,2.898-.341.963-.725,1.864-1.151,2.703-.394.776-.82,1.448-1.27,2.038v-4.101h-3.535c.13-.324.266-.674.409-1.064.261-.709.506-1.411.738-2.105l-2.236-.369c-.044.376-.112.8-.206,1.27-.095.47-.199.934-.315,1.389-.081.319-.157.607-.231.879h-2.46v16.065h1.889v-1.671h5.948v-10.073c.146.079.296.165.467.282.21.145.42.293.63.445.209.152.372.286.488.402.506-.695.983-1.501,1.433-2.421.196-.403.384-.822.568-1.248h5.167c-.049,1.706-.105,3.216-.166,4.516-.079,1.665-.17,3.036-.271,4.114-.102,1.079-.217,1.911-.347,2.497-.131.586-.282.981-.456,1.183-.131.145-.265.239-.401.282-.139.043-.315.065-.532.065-.275,0-.709-.007-1.303-.022-.594-.014-1.245-.05-1.954-.108.203.275.365.604.488.988.123.383.192.72.207,1.009.622.029,1.233.047,1.834.055.601.007,1.089-.011,1.466-.055.419-.058.773-.155,1.063-.293.289-.138.571-.387.847-.749.217-.275.401-.716.554-1.324.151-.608.282-1.461.391-2.562s.206-2.508.293-4.223c.087-1.715.166-3.81.239-6.285v-.977h-1.911Zm-10.681,1.932v4.125h-4.06v-4.125h4.06Zm-4.06,10.725v-4.82h4.06v4.82h-4.06Z"/><path class="h" d="m321.514,231.148c-.492-.275-.984-.535-1.476-.782-.492-.246-.934-.456-1.325-.629l-1.106,1.671c.491.217,1.056.503,1.693.858.637.354,1.259.724,1.867,1.107.607.384,1.114.742,1.52,1.075l1.237-1.802c-.275-.188-.623-.416-1.042-.684-.42-.268-.876-.539-1.368-.814Z"/><path class="h" d="m312.075,232.099c.538-.075,1.089-.138,1.601-.234.854-.159,1.613-.333,2.279-.521l-.065-1.997c-.781.246-1.603.452-2.464.619-.247.048-.495.084-.743.124.009-.032.018-.06.027-.092.166-.608.318-1.187.456-1.737.137-.55.249-1.005.336-1.368l-2.388-.239c-.029.796-.146,1.65-.348,2.562-.089.401-.184.776-.282,1.141-.758.061-1.506.096-2.237.096-.434,0-.894-.011-1.378-.033-.485-.021-.944-.054-1.379-.098l.152,2.019c.434.015.875.029,1.324.043.448.015.875.022,1.28.022.526,0,1.054-.022,1.585-.056-.171.433-.359.883-.586,1.369-.348.746-.734,1.513-1.161,2.301-.428.789-.88,1.549-1.357,2.28s-.963,1.393-1.454,1.986l2.084,1.064c.622-.825,1.237-1.788,1.845-2.888.608-1.1,1.173-2.232,1.693-3.397.466-1.041.852-2.025,1.178-2.968Z"/><path class="h" d="m318.746,239.379c-.004-.084-.007-.157-.011-.242-.029-.593-.055-1.154-.076-1.683s-.04-.958-.055-1.292c-.015-.434-.021-.854-.021-1.259s.007-.833.021-1.281h-2.127c.014.579.039,1.241.076,1.987.035.746.072,1.487.108,2.225.016.335.03.657.044.971-.592-.096-1.21-.146-1.857-.146-.897,0-1.686.149-2.366.445-.681.297-1.212.706-1.596,1.227s-.575,1.122-.575,1.802c0,.753.206,1.375.619,1.867.412.492.962.861,1.649,1.107s1.451.369,2.291.369c.955,0,1.722-.152,2.301-.456.579-.304,1.002-.709,1.271-1.216.268-.506.401-1.064.401-1.672,0-.174-.003-.379-.009-.608.063.034.132.062.194.098.615.355,1.176.738,1.683,1.151.506.413.969.807,1.389,1.183l1.151-1.845c-.608-.535-1.328-1.067-2.16-1.596-.702-.445-1.494-.815-2.345-1.136Zm-2.16,3.101c-.131.318-.358.568-.684.749-.326.181-.764.271-1.313.271-.738,0-1.3-.145-1.683-.434-.384-.29-.575-.666-.575-1.129,0-.448.22-.817.662-1.107.441-.29,1.023-.435,1.747-.435.716,0,1.388.106,2.031.287.006.28.01.53.01.734,0,.391-.065.746-.195,1.064Z"/><path class="h" d="m343.013,230.735h-2.882c.039-1.558.06-3.162.06-4.819h-1.997c0,1.621-.015,3.195-.043,4.722,0,.033-.003.064-.004.098h-3.253v1.932h3.175c-.046.79-.107,1.561-.19,2.301-.152,1.36-.417,2.634-.793,3.821-.376,1.187-.915,2.265-1.617,3.235s-1.61,1.81-2.725,2.518c.246.188.514.431.804.728.289.296.506.568.651.814,1.187-.781,2.16-1.708,2.92-2.779s1.349-2.25,1.769-3.539.72-2.67.901-4.146c.116-.949.194-1.941.253-2.953h2.939c-.034,1.522-.071,2.862-.109,4.016-.051,1.52-.112,2.765-.185,3.734-.073.97-.156,1.711-.25,2.225-.094.514-.214.857-.358,1.031-.102.13-.217.221-.347.271-.131.051-.29.076-.478.076-.218,0-.572-.007-1.064-.021-.492-.014-1.027-.043-1.606-.087.174.261.315.583.424.966.108.383.17.72.185,1.009.564.014,1.118.025,1.66.033.543.007.98-.011,1.313-.054.376-.058.695-.152.955-.282s.507-.362.738-.695c.174-.232.322-.63.445-1.194s.225-1.349.304-2.355c.079-1.005.148-2.297.206-3.875.058-1.577.109-3.502.152-5.775,0-.087.003-.206.011-.358.007-.152.011-.351.011-.597h-1.976Z"/><path class="h" d="m335.306,239.788c-.352.076-.71.153-1.063.229v-13.125h-7.316v14.638c-.551.107-1.072.208-1.541.298l.369,2.106c.883-.217,1.859-.449,2.931-.695s2.188-.506,3.354-.782c1.164-.275,2.318-.55,3.462-.825l-.195-1.846Zm-2.995-3.69h-3.539v-2.757h3.539v2.757Zm0-7.338v2.757h-3.539v-2.757h3.539Zm-.63,11.81c-1.022.219-1.984.416-2.909.599v-3.27h3.539v2.535c-.211.045-.419.091-.63.136Z"/><rect class="h" x="351.046" y="227.045" width="12.07" height="1.65"/><rect class="h" x="347.29" y="230.019" width="19.604" height="1.758"/><path class="h" d="m350.373,246.041h2.019v-.847h9.27v.782h2.106v-6.838h-13.395v6.903Zm11.288-5.167v2.605h-9.27v-2.605h9.27Z"/><rect class="h" x="350.677" y="233.102" width="12.765" height="1.672"/><rect class="h" x="350.677" y="236.098" width="12.765" height="1.672"/><polygon class="f" points="71.761 24.857 79.707 24.857 79.707 22.795 71.761 22.795 71.761 16.304 69.568 16.304 69.568 33.042 61.557 33.042 61.557 35.104 81.205 35.104 81.205 33.042 71.761 33.042 71.761 24.857"/><path class="f" d="m100.489,16.608h-10.138v7.186h10.138v-7.186Zm-1.889,5.709h-6.404v-1.433h6.404v1.433Zm0-2.822h-6.404v-1.433h6.404v1.433Z"/><path class="f" d="m88.462,27.397c-.667.292-1.332.588-1.998.885v-5.683h2.215v-1.954h-2.215v-4.429h-1.932v4.429h-2.389v1.954h2.389v6.533c-.302.13-.602.26-.891.382-.738.312-1.382.575-1.932.792l.781,2.062c.926-.448,1.954-.955,3.083-1.52,1.128-.564,2.243-1.122,3.343-1.671l-.455-1.78Z"/><path class="f" d="m88.332,26.594h2.783c-.383.639-.835,1.25-1.371,1.824-.839.897-1.767,1.635-2.778,2.214.145.086.303.21.477.369.174.16.348.319.521.478s.305.296.391.412c.952-.63,1.855-1.416,2.714-2.344h1.817c-.206.314-.421.629-.666.944-.58.746-1.221,1.429-1.922,2.051-.702.623-1.415,1.122-2.139,1.498.246.16.496.354.749.586s.46.449.618.651c.695-.449,1.394-1.009,2.096-1.682.701-.673,1.346-1.4,1.933-2.182.466-.622.847-1.244,1.181-1.867h1.77c-.183.44-.393.881-.629,1.324-.471.883-1.013,1.693-1.628,2.431-.615.738-1.264,1.332-1.943,1.78.261.145.528.326.804.543.274.217.499.419.673.608.665-.507,1.295-1.154,1.889-1.943.594-.789,1.125-1.642,1.596-2.562.376-.735.672-1.461.923-2.182h1.335c-.061.755-.126,1.414-.195,1.954-.108.839-.221,1.473-.337,1.899-.115.427-.246.713-.391.858-.072.101-.159.166-.261.195-.101.029-.225.043-.369.043-.159,0-.395-.004-.705-.011-.312-.007-.655-.025-1.031-.054.145.203.257.463.337.782.079.318.126.608.141.868.435.015.843.018,1.227.011.384-.008.698-.019.944-.033.275-.029.518-.087.728-.174s.416-.239.618-.456c.203-.217.377-.576.521-1.075.145-.5.278-1.208.401-2.128.123-.918.235-2.102.337-3.549.014-.13.028-.391.043-.782h-9.147c.284-.42.54-.854.771-1.302h8.876v-1.759h-13.699v1.759Z"/><polygon class="f" points="118.959 30.567 123.084 30.567 123.084 28.743 118.959 28.743 118.959 25.856 116.94 25.856 116.94 28.743 112.989 28.743 112.989 30.567 116.94 30.567 116.94 33.693 111.622 33.693 111.622 35.517 124.018 35.517 124.018 33.693 118.959 33.693 118.959 30.567"/><path class="f" d="m111.719,30.437c-.254-.738-.524-1.418-.814-2.041l-1.476.478c.274.623.535,1.313.781,2.073s.42,1.415.521,1.965l1.563-.564c-.13-.535-.322-1.172-.575-1.911Z"/><path class="f" d="m120.783,21.938c1.042-1.223,1.853-2.674,2.432-4.353l-1.39-.608-.369.087h-9.291v1.78h2.46l-1.201.391c.735,1.528,1.7,2.849,2.877,3.98-.214.138-.427.278-.652.406-1.267.724-2.616,1.281-4.049,1.671.188.203.394.474.618.814.225.34.401.633.532.879,1.577-.492,3.05-1.15,4.418-1.976.252-.152.493-.318.735-.484,1.488,1.055,3.191,1.864,5.137,2.395.131-.261.322-.557.575-.89s.481-.601.685-.803c-1.825-.395-3.429-1.051-4.839-1.939.464-.422.909-.866,1.321-1.35Zm-5.45-3.094h5.098c-.401.763-.884,1.477-1.471,2.127-.354.392-.738.753-1.138,1.1-1.057-.936-1.887-2.012-2.489-3.227Z"/><path class="f" d="m110.469,27.057c.153.442.274.851.349,1.209l1.498-.673c-.102-.419-.253-.886-.456-1.4-.202-.514-.438-1.045-.705-1.596-.268-.55-.547-1.063-.836-1.541l-1.411.564c.289.478.561.999.814,1.563.034.076.057.146.09.222-.882.043-1.77.089-2.63.126-.033.001-.064.003-.097.004.245-.316.492-.639.748-.992.614-.847,1.227-1.726,1.834-2.638.608-.912,1.158-1.78,1.65-2.605l-1.693-.782c-.29.579-.623,1.208-.999,1.889-.343.619-.712,1.238-1.096,1.857-.123-.168-.258-.34-.413-.521-.188-.22-.41-.44-.618-.661.205-.316.416-.653.64-1.033.312-.528.622-1.085.934-1.672.312-.586.604-1.147.88-1.683l-1.78-.694c-.174.492-.392,1.031-.651,1.617-.261.586-.532,1.162-.814,1.726-.113.226-.224.433-.336.637-.196-.176-.391-.368-.587-.529l-.998,1.368c.391.347.781.735,1.172,1.162s.753.854,1.086,1.281c.164.212.311.411.44.6-.123.18-.241.374-.365.551-.306.436-.599.827-.888,1.197-.544.02-1.05.038-1.511.051l.174,1.824c.988-.069,2.099-.143,3.321-.219v8.925h1.802v-9.04c.483-.031.965-.061,1.453-.093Z"/><path class="f" d="m104.36,31.327c-.21.912-.488,1.701-.836,2.367.145.043.321.112.531.206.21.094.409.192.598.293.188.102.34.188.456.261.332-.695.626-1.542.879-2.54s.445-2.012.575-3.04l-1.736-.304c-.102.926-.258,1.845-.467,2.757Z"/><path class="f" d="m131.636,33.063c-.029-.463-.123-1.023-.282-1.683-.159-.658-.34-1.262-.543-1.812l-.933.174c.188.564.354,1.18.499,1.845.145.666.231,1.23.261,1.693l.998-.217Z"/><path class="f" d="m143.371,32.38c-.592-.698-1.065-1.469-1.425-2.312h3.433v-5.558h-4.038v-1.498h2.453v-1.306c.535.446,1.071.847,1.606,1.176.131-.275.294-.579.489-.912.195-.333.38-.615.554-.847-.651-.333-1.3-.767-1.943-1.302-.645-.535-1.252-1.132-1.823-1.791-.572-.659-1.075-1.335-1.51-2.03h-1.823c-.304.651-.72,1.321-1.248,2.008-.528.688-1.118,1.335-1.77,1.943-.631.588-1.291,1.078-1.976,1.477v-1.281h-2.171v-1.585h2.627v-1.693h-7.859v11.484h6.409c-.052,1.079-.104,1.992-.156,2.725-.009.121-.018.226-.027.339-.089-.262-.191-.543-.321-.86-.217-.528-.441-1.009-.673-1.444l-.89.304c.23.449.452.937.662,1.465.209.528.357.988.444,1.378l.729-.271c-.052.568-.106,1.027-.165,1.357-.087.492-.195.811-.325.956-.073.101-.156.17-.25.206s-.206.054-.336.054c-.131,0-.334-.004-.608-.011-.275-.007-.579-.025-.912-.054.131.217.231.478.305.781.072.304.115.579.13.825.376.029.741.04,1.097.033.354-.008.633-.026.836-.055.26-.029.488-.09.684-.185s.372-.25.532-.466c.115-.142.214-.353.302-.619.108.093.222.204.348.348.159.181.315.361.467.542.152.181.271.336.358.467,1.273-.608,2.294-1.292,3.062-2.051.767-.76,1.342-1.563,1.726-2.41.088-.194.146-.392.221-.588.363.853.794,1.648,1.31,2.368.825,1.151,1.853,2.03,3.083,2.638.102-.173.228-.362.38-.564s.312-.398.478-.586c.166-.188.322-.348.467-.478-1.158-.463-2.139-1.169-2.941-2.117Zm-4.02-3.854h-2.026v-2.475h2.171v.434c0,.671-.052,1.352-.145,2.041Zm4.248-2.475v2.475h-2.386c.078-.675.128-1.349.128-2.019v-.456h2.258Zm-4.559-6.361c.521-.651.947-1.273,1.28-1.867.392.608.858,1.227,1.4,1.856.526.609,1.098,1.184,1.711,1.726h-5.986c.581-.548,1.116-1.118,1.594-1.715Zm-8.532-1.129v1.585h-1.823v-1.585h1.823Zm0,3.169v1.672h-1.823v-1.672h1.823Zm-1.823,3.257h1.823v1.737h-1.823v-1.737Zm8.423,7.957c-.667.632-1.553,1.207-2.647,1.725.038-.133.074-.275.107-.434.116-.564.214-1.393.293-2.486.08-1.092.156-2.521.229-4.288.014-.13.021-.376.021-.738h-2.931v-1.737h2.171v-1.585h-2.171v-1.672h2.171v-.176c.155.19.317.417.488.697.195.319.344.601.445.847.614-.384,1.206-.841,1.78-1.349v1.263h2.432v1.498h-3.864v5.558h3.346c-.095.273-.19.545-.317.814-.341.716-.857,1.404-1.553,2.062Z"/><path class="f" d="m126.622,31.338c-.072.601-.185,1.158-.337,1.671-.151.514-.357.952-.618,1.313l1.107.608c.289-.391.513-.865.673-1.422.159-.557.278-1.162.357-1.813.08-.651.134-1.303.163-1.954l-1.193-.239c-.029.622-.08,1.234-.152,1.834Z"/><path class="f" d="m129.314,29.807l-.978.108c.102.651.177,1.346.229,2.084.05.738.061,1.382.032,1.932l1.021-.13c.014-.535-.004-1.176-.055-1.921-.051-.745-.134-1.436-.249-2.073Z"/><rect class="g" x="88" y="56" width="104" height="40" rx="4" ry="4"/><g class="d"><path class="f" d="m188,56.5c1.93,0,3.5,1.57,3.5,3.5v32c0,1.93-1.57,3.5-3.5,3.5h-96c-1.93,0-3.5-1.57-3.5-3.5v-32c0-1.93,1.57-3.5,3.5-3.5h96m0-.5h-96c-2.209,0-4,1.791-4,4v32c0,2.209,1.791,4,4,4h96c2.209,0,4-1.791,4-4v-32c0-2.209-1.791-4-4-4h0Z"/></g><rect class="g" x="16" y="104" width="176" height="40" rx="4" ry="4"/><g class="d"><path class="f" d="m188,104.5c1.93,0,3.5,1.57,3.5,3.5v32c0,1.93-1.57,3.5-3.5,3.5H20c-1.93,0-3.5-1.57-3.5-3.5v-32c0-1.93,1.57-3.5,3.5-3.5h168m0-.5H20c-2.209,0-4,1.791-4,4v32c0,2.209,1.791,4,4,4h168c2.209,0,4-1.791,4-4v-32c0-2.209-1.791-4-4-4h0Z"/></g><rect class="g" x="16" y="152" width="176" height="40" rx="4" ry="4"/><g class="d"><path class="f" d="m188,152.5c1.93,0,3.5,1.57,3.5,3.5v32c0,1.93-1.57,3.5-3.5,3.5H20c-1.93,0-3.5-1.57-3.5-3.5v-32c0-1.93,1.57-3.5,3.5-3.5h168m0-.5H20c-2.209,0-4,1.791-4,4v32c0,2.209,1.791,4,4,4h168c2.209,0,4-1.791,4-4v-32c0-2.209-1.791-4-4-4h0Z"/></g><rect class="g" x="16" y="200" width="176" height="40" rx="4" ry="4"/><g class="d"><path class="f" d="m188,200.5c1.93,0,3.5,1.57,3.5,3.5v32c0,1.93-1.57,3.5-3.5,3.5H20c-1.93,0-3.5-1.57-3.5-3.5v-32c0-1.93,1.57-3.5,3.5-3.5h168m0-.5H20c-2.209,0-4,1.791-4,4v32c0,2.209,1.791,4,4,4h168c2.209,0,4-1.791,4-4v-32c0-2.209-1.791-4-4-4h0Z"/></g><path class="f" d="m74.409,228v-16h2.519v16h-2.519Z"/><path class="f" d="m80.61,228v-16h5.231c1.1,0,2.084.148,2.952.445.869.297,1.557.782,2.062,1.455.507.673.76,1.589.76,2.747,0,1.115-.253,2.033-.76,2.757-.506.724-1.193,1.263-2.062,1.618-.868.354-1.853.532-2.952.532h-2.714v6.448h-2.518Zm2.518-8.467h2.41c1.158,0,2.044-.242,2.659-.727s.923-1.205.923-2.16c0-.97-.308-1.646-.923-2.03s-1.501-.576-2.659-.576h-2.41v5.493Zm6.209,8.467l-3.973-7.121,1.867-1.455,4.949,8.575h-2.844Z"/><path class="f" d="m99.504,217.232c.479,0,.904.112,1.281.336.377.225.68.525.912.901.231.377.348.804.348,1.281,0,.449-.113.865-.337,1.248-.225.384-.524.691-.901.923-.376.231-.803.347-1.28.347-.448,0-.865-.112-1.249-.336-.383-.224-.691-.528-.922-.912-.232-.383-.348-.8-.348-1.249,0-.478.111-.904.336-1.281s.529-.68.912-.912c.384-.231.8-.348,1.248-.348Z"/><path class="f" d="m108.466,228v-16h4.842c1.201,0,2.258.156,3.169.467.912.312,1.632.818,2.16,1.52.528.702.793,1.661.793,2.876,0,1.158-.261,2.11-.781,2.855-.521.746-1.234,1.303-2.139,1.672-.905.369-1.943.553-3.115.553h-2.41v6.057h-2.519Zm2.519-8.098h2.192c1.26,0,2.2-.246,2.822-.738.622-.492.934-1.259.934-2.301,0-1.071-.325-1.809-.977-2.214-.651-.405-1.614-.608-2.888-.608h-2.084v5.862Z"/><path class="f" d="m122.02,228v-16h5.232c1.1,0,2.084.148,2.952.445.869.297,1.556.782,2.062,1.455.507.673.76,1.589.76,2.747,0,1.115-.253,2.033-.76,2.757-.507.724-1.193,1.263-2.062,1.618-.868.354-1.853.532-2.952.532h-2.714v6.448h-2.519Zm2.519-8.467h2.41c1.157,0,2.044-.242,2.659-.727s.923-1.205.923-2.16c0-.97-.308-1.646-.923-2.03s-1.502-.576-2.659-.576h-2.41v5.493Zm6.209,8.467l-3.973-7.121,1.867-1.455,4.949,8.575h-2.844Z"/><path class="f" d="m80.498,178.024c-.058.926-.148,1.545-.271,1.856-.123.312-.336.467-.64.467-.564,0-1.071-.304-1.52-.912-.118-.16-.232-.339-.343-.533,1.043-1.002,1.889-2.142,2.514-3.439l-1.736-.673c-.383.86-.901,1.647-1.525,2.374-.034-.102-.07-.194-.104-.3-.208-.663-.391-1.411-.555-2.225h5.158v-1.65h-1.733l.453-.434c-.232-.246-.555-.514-.967-.803-.373-.262-.734-.485-1.089-.687.024-.003.046-.005.07-.008.692-.076,1.411-.153,2.142-.229.094.319.17.618.213.88l1.28-.564c-.073-.435-.228-.948-.467-1.542-.239-.593-.503-1.143-.792-1.65l-1.194.456c.17.341.33.709.485,1.089-.631.04-1.263.081-1.859.121.167-.225.334-.452.506-.7.434-.629.871-1.281,1.312-1.954s.851-1.321,1.227-1.943l-1.454-.695c-.274.579-.608,1.212-.999,1.899-.085.149-.18.29-.266.438-.214-.248-.461-.51-.778-.799.239-.378.493-.802.773-1.311.355-.644.699-1.263,1.031-1.856l-1.584-.608c-.116.362-.261.76-.435,1.194-.173.434-.358.857-.554,1.27-.079.166-.154.321-.229.474-.145-.113-.29-.23-.433-.333l-.686.964c-.032-1.205-.049-2.436-.031-3.722h-1.822c.014,2.171.078,4.263.195,6.274.098,1.713.255,3.3.463,4.776h-5.847c-.09-.159-.205-.36-.37-.641-.217-.369-.463-.767-.738-1.194-.275-.427-.524-.825-.748-1.194-.168-.276-.295-.468-.402-.619v-.912h2.193v-1.889h-2.193v-4.624h-1.846v4.624h-2.583v1.889h2.394c-.101.53-.217,1.07-.364,1.628-.211.796-.445,1.578-.706,2.344-.261.768-.542,1.48-.847,2.139-.304.659-.622,1.227-.955,1.704.145.232.314.514.51.847.195.333.344.629.445.89.348-.55.684-1.208,1.01-1.976s.625-1.596.9-2.486c.073-.235.127-.483.195-.721v9.242h1.846v-10.337c.084.166.164.317.25.492.225.456.438.901.641,1.335.202.435.354.796.455,1.086l.738-1.091v1.113h1.464c-.061.612-.138,1.218-.248,1.812-.159.861-.427,1.654-.804,2.377-.376.724-.934,1.339-1.671,1.845.202.145.423.351.662.619.239.268.416.51.532.728.854-.608,1.516-1.339,1.986-2.193.399-.725.684-1.527.896-2.378.028.02.053.035.081.055.398.29.773.579,1.129.868.354.29.641.558.857.803l1.107-1.389c-.232-.231-.525-.481-.879-.749-.355-.268-.735-.539-1.141-.814-.279-.19-.543-.348-.81-.51.053-.353.095-.714.134-1.075h2.992c.246,1.318.551,2.496.919,3.517.046.127.098.239.146.361-1.116.913-2.411,1.659-3.902,2.223.188.159.391.369.608.629.217.261.383.485.498.673,1.305-.522,2.49-1.184,3.563-1.977.233.372.479.71.747.989.658.688,1.443,1.031,2.355,1.031.521,0,.937-.09,1.248-.271.311-.181.561-.499.749-.955.188-.456.333-1.096.435-1.921-.218-.087-.457-.213-.717-.38-.261-.166-.485-.343-.674-.532Zm-4.971-10.193c-.034-.616-.049-1.261-.068-1.9.41.337.833.714,1.274,1.14.341.332.597.627.813.904-.056.088-.106.181-.163.268-.363.56-.71,1.046-1.047,1.486-.228.015-.463.031-.672.044-.053-.628-.1-1.271-.137-1.943Zm.488,5.08c-.141-.958-.254-1.988-.346-3.077l.292,1.46c.62-.063,1.277-.133,1.959-.208l-.895.837c.376.232.763.503,1.161.814.112.088.203.167.302.25h-2.46c-.004-.026-.009-.05-.012-.076Z"/><path class="f" d="m70.094,167.98c-.091.144-.174.295-.266.438-.391.609-.765,1.134-1.127,1.601-.248.014-.501.029-.729.038l.303,1.563c.709-.058,1.467-.13,2.27-.217.639-.069,1.299-.138,1.962-.207.06.254.105.491.133.707l1.303-.521c-.073-.42-.214-.93-.423-1.531-.211-.6-.445-1.161-.706-1.683l-1.194.435c.163.366.313.764.458,1.177-.583.045-1.154.088-1.704.13.194-.259.391-.527.596-.818.463-.658.918-1.342,1.367-2.052.448-.708.868-1.382,1.26-2.019l-1.455-.695c-.275.608-.619,1.27-1.031,1.986-.07.122-.147.237-.218.358-.207-.248-.449-.509-.765-.798.231-.377.475-.793.744-1.286.354-.651.697-1.281,1.031-1.889l-1.564-.608c-.115.362-.26.764-.434,1.205s-.358.872-.554,1.292c-.075.16-.148.308-.222.456-.154-.118-.308-.24-.462-.347l-.804,1.129c.463.362.934.778,1.412,1.248.338.334.597.63.819.909Z"/><path class="f" d="m92.185,162.806h-8.142v19.278h2.019v-12.092h6.123v-7.186Zm-1.933,5.731h-4.19v-1.52h4.19v1.52Zm0-2.844h-4.19v-1.433h4.19v1.433Z"/><path class="f" d="m100.173,162.806h-6.273v7.229h6.273v9.726c0,.145-.025.246-.076.304-.051.058-.141.087-.271.087h-.76c-.286,0-.596-.008-.907-.016.184-.239.363-.443.538-.592-1.244-.246-2.289-.684-3.137-1.313-.565-.42-1.019-.913-1.381-1.465h4.453v-1.52h-4.82v-1.455h4.537v-1.498h-2.283c.073-.111.145-.216.221-.336.262-.413.537-.828.826-1.249l-1.889-.542c-.102.333-.25.724-.445,1.172-.154.353-.304.665-.454.955h-2.598c-.089-.29-.226-.62-.422-.999-.21-.405-.438-.767-.684-1.085l-1.606.478c.246.333.463.706.65,1.118.08.174.143.333.202.488h-2.047v1.498h4.146v1.433c0,.007-.002.015-.002.022h-4.47v1.52h4.151c-.117.261-.263.521-.472.782-.326.405-.804.796-1.434,1.172-.629.376-1.473.709-2.529.999.203.159.424.373.662.641.239.268.416.502.532.706,1.173-.377,2.116-.796,2.833-1.259.717-.463,1.26-.952,1.629-1.465.085-.118.141-.238.214-.357.318.462.681.887,1.099,1.269.898.818,2.02,1.415,3.365,1.791.111-.197.26-.422.433-.666.09.212.178.444.262.72.115.383.188.706.217.966.68,0,1.262-.019,1.748-.054.484-.037.879-.141,1.184-.315.318-.16.535-.391.65-.695.115-.304.174-.716.174-1.237v-16.955h-2.041Zm0,5.753h-4.32v-1.542h4.32v1.542Zm0-2.866h-4.32v-1.433h4.32v1.433Z"/><rect class="f" x="105.438" y="171.446" width="6.6" height="1.585"/><rect class="f" x="105.546" y="162.632" width="6.448" height="1.606"/><path class="f" d="m106.393,174.42h-.999v7.381h1.78v-.934h4.82v-6.448h-5.602Zm3.821,4.798h-3.04v-3.148h3.04v3.148Z"/><path class="f" d="m121.958,175.561c.666-1.122,1.188-2.399,1.563-3.832l-1.346-.499-.348.065h-8.749v1.867h7.818c-.239.565-.51,1.104-.827,1.606-.477.757-1.05,1.421-1.677,2.033-1.077-1.06-1.92-2.262-2.512-3.618l-1.824.564c.73,1.646,1.682,3.076,2.835,4.308-.534.375-1.088.724-1.683,1.021-.999.5-2.056.887-3.17,1.162.13.145.268.326.412.543.145.217.282.438.413.662.13.224.224.43.282.619,1.229-.362,2.388-.836,3.474-1.422.637-.344,1.233-.746,1.808-1.177,1.436,1.14,3.096,2.011,5.008,2.577.102-.173.229-.369.38-.586.152-.217.315-.434.488-.651.174-.217.333-.391.478-.521-1.824-.45-3.419-1.186-4.811-2.175.744-.753,1.42-1.587,1.989-2.547Z"/><rect class="f" x="104.417" y="165.52" width="8.38" height="1.65"/><path class="f" d="m112.038,168.516h-6.6v1.585h6.6v-.278c.136.074.293.181.478.332.202.167.398.336.586.51.188.173.326.325.413.456.767-.521,1.35-1.114,1.747-1.78.398-.666.666-1.356.804-2.073.138-.716.206-1.4.206-2.051v-.825h3.17v3.343c0,.608.058,1.082.174,1.422.115.34.317.579.607.717.289.138.68.206,1.172.206h1.411c.435,0,.782-.094,1.043-.282.26-.188.463-.524.607-1.009s.239-1.162.282-2.03c-.261-.072-.562-.173-.901-.304s-.604-.275-.792-.434c-.015.666-.036,1.165-.065,1.498s-.072.55-.13.651c-.058.102-.145.152-.261.152h-.847c-.159,0-.261-.036-.304-.109-.044-.072-.065-.239-.065-.499v-5.146h-7.034v2.605c0,.507-.054,1.028-.162,1.563-.108.536-.33,1.064-.662,1.585-.326.509-.82.991-1.477,1.444v-1.249Z"/><rect class="f" x="127.501" y="162.632" width="6.796" height="1.606"/><rect class="f" x="126.351" y="165.52" width="8.749" height="1.65"/><polygon class="f" points="142.003 169.297 142.003 161.981 139.919 161.981 139.919 169.297 135.057 169.297 135.057 171.316 139.919 171.316 139.919 182.062 142.003 182.062 142.003 171.316 146.758 171.316 146.758 169.297 142.003 169.297"/><path class="f" d="m128.327,174.42h-.977v7.381h1.802v-.934h5.059v-6.448h-5.884Zm4.06,4.798h-3.234v-3.148h3.234v3.148Z"/><rect class="f" x="127.393" y="171.446" width="6.882" height="1.585"/><rect class="f" x="127.393" y="168.516" width="6.882" height="1.585"/><path class="f" d="m74.666,116.098c-.225.029-.455.047-.694.054s-.438.011-.597.011h-12.137c-.434,0-.867-.021-1.302-.065s-.854-.087-1.259-.13v2.41c.463-.043.896-.076,1.303-.098.404-.021.824-.033,1.258-.033h11.897c-.159.319-.391.677-.694,1.075-.305.398-.655.807-1.053,1.227-.398.42-.826.822-1.281,1.205-.456.384-.923.713-1.4.988l1.802,1.455c.782-.55,1.517-1.19,2.204-1.921.688-.73,1.303-1.458,1.845-2.182.543-.724.966-1.354,1.271-1.889.101-.13.221-.285.357-.466.138-.181.258-.329.359-.445l-1.368-1.281c-.116.029-.286.058-.511.087Z"/><path class="f" d="m65.407,121.069c.015.275.021.558.021.847,0,.898-.047,1.745-.142,2.54-.094.796-.26,1.538-.498,2.226-.239.688-.598,1.328-1.075,1.921-.478.594-1.107,1.144-1.889,1.65-.333.246-.685.459-1.054.64-.368.181-.713.322-1.03.423l1.997,1.628c1.143-.579,2.084-1.216,2.822-1.911s1.324-1.436,1.758-2.225c.436-.789.757-1.635.967-2.54.209-.904.344-1.863.401-2.876s.087-2.084.087-3.213h-2.475c.058.319.094.616.108.89Z"/><path class="f" d="m93.707,120.006h-5.383v-2.67c0-.333.014-.738.043-1.216s.064-.854.108-1.129h-2.735c.087.275.148.648.185,1.118.036.471.054.879.054,1.227v2.67h-6.057c-.405,0-.803-.011-1.193-.033-.391-.021-.725-.054-.999-.098v2.388c.274-.029.608-.051.999-.065.391-.014.803-.021,1.236-.021h5.994c-.023.924-.111,1.809-.295,2.638-.209.948-.547,1.824-1.01,2.627s-1.07,1.534-1.823,2.192c-.753.659-1.665,1.241-2.735,1.748l2.127,1.584c1.158-.695,2.129-1.44,2.91-2.236s1.407-1.661,1.877-2.594c.471-.934.807-1.929,1.01-2.985.18-.937.267-1.934.287-2.974h5.379c.377,0,.775.004,1.195.011.418.007.723.025.91.054v-2.345c-.188.029-.477.055-.867.076-.391.022-.797.033-1.217.033Z"/><path class="f" d="m101.934,122.22v-5.102c0-.304.011-.593.032-.868s.04-.521.055-.738h-2.497c.029.217.051.489.065.814.014.326.021.59.021.792v7.273c0,.318-.011.648-.032.988-.021.34-.04.597-.055.771h2.497c-.015-.217-.033-.496-.055-.835-.021-.34-.032-.648-.032-.923v-2.171Z"/><path class="f" d="m109.597,116.25c.029.333.044.695.044,1.085v3.734c0,.956-.025,1.788-.076,2.497-.051.709-.138,1.339-.261,1.889-.123.55-.304,1.049-.543,1.498-.238.449-.546.898-.922,1.346-.666.724-1.444,1.31-2.334,1.758-.891.449-1.85.803-2.877,1.064l1.802,1.889c.535-.188,1.114-.42,1.737-.695.622-.275,1.237-.619,1.845-1.031.608-.412,1.144-.893,1.606-1.443.405-.449.757-.923,1.054-1.422.296-.5.546-1.071.749-1.715.202-.644.351-1.415.444-2.312.095-.897.142-1.961.142-3.191v-3.864c0-.391.011-.752.032-1.085s.04-.637.055-.912h-2.584c.029.275.058.579.087.912Z"/><path class="f" d="m129.689,127.68c-.607-.629-1.23-1.241-1.867-1.834-.451-.42-.881-.8-1.303-1.162.322-.42.638-.858.945-1.324.557-.847,1.056-1.697,1.497-2.551s.814-1.628,1.118-2.323c.072-.188.174-.397.305-.629.13-.231.238-.398.325-.499l-1.411-1.042c-.188.058-.449.109-.781.152-.333.043-.702.065-1.107.065h-8.055c-.217,0-.484-.011-.803-.033-.318-.021-.623-.043-.912-.065-.29-.022-.507-.04-.651-.054v2.453c.116,0,.308-.011.575-.033.268-.021.564-.043.891-.065.325-.022.626-.033.9-.033h7.968c-.159.564-.42,1.187-.781,1.867-.362.68-.774,1.357-1.237,2.03-.464.673-.941,1.285-1.434,1.834-.709.796-1.534,1.599-2.475,2.41-.941.811-1.958,1.556-3.05,2.236-1.094.68-2.226,1.252-3.397,1.715l1.758,1.845c1.144-.536,2.251-1.168,3.322-1.899,1.07-.73,2.087-1.531,3.05-2.399.707-.638,1.353-1.292,1.971-1.953.57.528,1.14,1.075,1.709,1.66.781.803,1.52,1.603,2.215,2.399.694.796,1.31,1.556,1.845,2.279l1.91-1.693c-.361-.448-.807-.962-1.335-1.542-.528-.579-1.096-1.183-1.704-1.812Z"/><path class="f" d="m147.26,123.37c-.811-.333-1.665-.669-2.562-1.009-.898-.34-1.788-.659-2.671-.955-.688-.231-1.307-.425-1.889-.599v-3.385c0-.376.019-.789.055-1.237s.068-.847.098-1.194h-2.671c.072.362.123.771.152,1.227.028.456.043.858.043,1.205v12.548c0,.42-.015.894-.043,1.422-.029.528-.072.98-.13,1.357h2.67c-.029-.275-.058-.583-.087-.923s-.051-.676-.065-1.009-.021-.615-.021-.847v-6.697c.466.153.96.318,1.509.51.745.261,1.516.55,2.312.869.796.318,1.573.647,2.334.988.76.34,1.443.676,2.051,1.009l.978-2.366c-.564-.275-1.252-.579-2.062-.912Z"/><path class="f" d="m102.009,68.879c.528.217.959.42,1.292.608l.934-1.563c-.362-.188-.808-.383-1.335-.586-.529-.203-1.078-.398-1.65-.586-.572-.188-1.104-.34-1.596-.456l-.912,1.39c.507.159,1.046.344,1.617.554.572.21,1.122.423,1.65.64Z"/><path class="f" d="m112.886,70.865c-.441-.354-.771-.738-.988-1.15-.14-.266-.247-.539-.339-.814h2.991c-.043.069-.077.136-.122.206-.326.5-.647.923-.966,1.27l1.606.521c.376-.391.752-.875,1.129-1.455.376-.579.709-1.158.998-1.737l-1.346-.369-.325.065h-7.026c.245-.407.467-.819.666-1.237l-1.846-.282c-.275.637-.684,1.299-1.227,1.986s-1.22,1.306-2.03,1.856c.246.102.521.247.825.435.304.188.55.376.738.564.705-.557,1.298-1.171,1.819-1.823h2.017c-.07.236-.148.463-.243.673-.21.463-.515.868-.912,1.216-.397.347-.931.648-1.596.901-.665.253-1.513.459-2.54.619.174.188.358.427.554.716.159.236.267.442.344.63h-4.415v8.814h14.328v-8.691c.508.142,1.062.268,1.672.376.101-.26.257-.557.467-.89.21-.333.401-.6.575-.803-1.216-.159-2.211-.376-2.985-.651s-1.382-.59-1.823-.945Zm.032,10.301h-10.29v-1.259h10.29v1.259Zm0-2.497h-10.29v-1.237h10.29v1.237Zm0-2.497h-10.29v-1.216h10.29v1.216Zm-7.197-2.518c.906-.206,1.682-.448,2.313-.728.766-.34,1.381-.749,1.845-1.227.281-.289.51-.611.713-.948.231.399.504.787.86,1.155.485.499,1.147.941,1.986,1.324.339.154.725.293,1.139.423h-8.856Z"/><path class="f" d="m101.185,72.863c.977-.296,1.949-.597,2.92-.901l-.218-1.628c-1.129.29-2.243.575-3.343.857-1.101.282-2.049.51-2.844.684l.803,1.802c.811-.246,1.704-.517,2.682-.814Z"/><path class="f" d="m102.411,83.338c-.71.26-1.459.496-2.248.706-.789.209-1.559.387-2.312.532.159.116.337.268.532.456.195.188.383.38.564.575.181.195.322.365.423.51.738-.217,1.517-.467,2.334-.749s1.61-.597,2.378-.944c.766-.348,1.446-.695,2.04-1.042l-1.889-.868c-.507.29-1.114.564-1.823.825Z"/><path class="f" d="m113.31,83.414c-.812-.296-1.607-.575-2.389-.836l-1.693,1.021c.768.261,1.52.54,2.258.836s1.422.586,2.051.868c.631.282,1.162.546,1.596.792l2.346-.977c-.521-.26-1.145-.536-1.867-.825-.725-.29-1.491-.583-2.301-.879Z"/><path class="f" d="m134.411,70.247c-.818-.651-1.592-1.349-2.324-2.095-.73-.745-1.385-1.516-1.963-2.312h-2.107c-.549.883-1.287,1.809-2.214,2.779s-1.968,1.889-3.126,2.757c-1.158.869-2.359,1.614-3.604,2.236.145.145.3.315.467.51.166.195.322.395.467.597.145.203.252.384.325.543,1.196-.627,2.346-1.347,3.452-2.156v1.157h4.276v2.583h-7.013v1.78h7.013v4.95h-8.054v1.802h18.518v-1.802h-8.293v-4.95h7.164v-1.78h-7.164v-2.583h4.451v-1.252c.316.226.632.452.955.665.854.564,1.699,1.064,2.539,1.498.174-.304.381-.622.619-.955s.48-.622.727-.869c-.854-.361-1.715-.807-2.582-1.335-.869-.528-1.713-1.118-2.529-1.77Zm-9.775,2.193c.805-.635,1.571-1.285,2.263-1.965.919-.904,1.675-1.784,2.269-2.638.491.666,1.077,1.339,1.759,2.019.68.681,1.422,1.346,2.225,1.997.249.202.506.393.76.586h-9.275Z"/><path class="f" d="m124.608,83.511l1.759-.781c-.087-.362-.239-.763-.456-1.205-.217-.441-.463-.886-.738-1.335-.274-.449-.557-.861-.846-1.238l-1.672.673c.289.391.564.821.824,1.292.261.471.492.93.695,1.378.202.449.348.854.434,1.216Z"/><path class="f" d="m132.446,81.633c-.275.456-.543.858-.803,1.205l1.562.673c.391-.492.82-1.085,1.291-1.78.471-.694.916-1.382,1.336-2.062l-1.955-.738c-.172.391-.387.825-.639,1.303-.254.478-.518.944-.793,1.4Z"/><rect class="f" x="141.495" y="66.6" width="5.471" height="1.606"/><polygon class="f" points="151.221 73.872 151.221 75.414 157.321 75.414 157.321 73.872 155.021 73.872 155.021 72.07 157.083 72.07 157.083 70.507 155.021 70.507 155.021 68.835 153.392 68.835 153.392 70.507 151.395 70.507 151.395 72.07 153.392 72.07 153.392 73.872 151.221 73.872"/><path class="f" d="m158.103,66.73h-9.53v7.945c0,1.057-.032,2.2-.098,3.43-.065,1.23-.221,2.446-.467,3.647-.215,1.048-.552,2.008-.998,2.891v-6.256h-5.688v7.381h1.628v-.955h3.974c-.038.072-.071.147-.11.217.145.072.326.173.543.304.218.13.424.271.619.423s.344.286.445.402c.448-.796.803-1.679,1.063-2.649.261-.969.459-1.972.597-3.007.138-1.035.231-2.051.282-3.05.051-.999.076-1.925.076-2.779v-6.187h7.663v15.11c0,.16-.028.268-.087.326-.058.058-.166.094-.325.108h-.966c-.485,0-.988-.014-1.509-.043.087.188.17.405.249.651.08.246.148.492.207.738.058.246.101.456.13.629.811,0,1.487-.018,2.03-.054.542-.036.979-.141,1.312-.315.333-.173.562-.42.685-.738.122-.319.185-.752.185-1.303v-16.868h-1.911Zm-12.786,16.434h-2.367v-3.126h2.367v3.126Z"/><rect class="f" x="140.475" y="69.487" width="7.1" height="1.65"/><path class="f" d="m156.996,82.513v-5.666h-5.515v6.491h1.498v-.825h4.017Zm-1.542-4.168v2.67h-2.475v-2.67h2.475Z"/><rect class="f" x="141.365" y="72.483" width="5.666" height="1.585"/><rect class="f" x="141.365" y="75.414" width="5.666" height="1.585"/><path class="f" d="m179.868,83.696c-.926.036-1.878.058-2.854.065s-1.91.007-2.801,0c-.89-.007-1.646-.018-2.269-.033-1.216-.058-2.254-.268-3.115-.63-.861-.361-1.523-.926-1.986-1.693v-7.012h-4.603v1.911h2.627v5.246c-.441.384-.893.764-1.368,1.137-.535.42-1.034.796-1.498,1.129l.999,2.041c.55-.478,1.067-.941,1.552-1.389.485-.449.959-.897,1.423-1.346.665.854,1.479,1.473,2.442,1.856.962.383,2.131.604,3.506.662.637.015,1.378.029,2.225.043.847.015,1.727.018,2.638.011.912-.008,1.792-.022,2.639-.043.846-.022,1.588-.047,2.225-.076.044-.203.102-.431.174-.684.072-.253.152-.5.239-.738.086-.239.166-.431.238-.575-.694.043-1.505.083-2.432.119Z"/><path class="f" d="m170.403,71.94c.202.348.391.728.564,1.14.124.295.203.552.26.792h-3.083v1.52h5.601v1.237h-4.754v1.476h4.754v1.368h-5.753v1.52h5.753v1.802h2.02v-1.802h5.991v-1.52h-5.991v-1.368h5.058v-1.476h-5.058v-1.237h5.904v-1.52h-3.543c.133-.214.271-.441.417-.694.217-.376.441-.774.673-1.194l-.782-.195h3.517v-1.542h-6.187v-1.389h4.754v-1.498h-4.754v-1.476h-2.02v1.476h-4.559v1.498h4.559v1.389h-6.014v1.542h3.327l-.656.152Zm6.482,1.932h-4.435l.71-.173c-.072-.304-.203-.659-.391-1.064-.144-.31-.296-.579-.448-.847h4.788c-.087.238-.187.495-.313.792-.182.427-.352.8-.511,1.118l.599.173Z"/><path class="f" d="m164.899,70.041c.369.427.655.822.857,1.183l1.693-1.281c-.231-.362-.535-.749-.911-1.162-.377-.413-.793-.825-1.249-1.237s-.9-.785-1.335-1.118l-1.562,1.151c.419.347.85.738,1.291,1.172.441.434.847.865,1.216,1.292Z"/><path class="f" d="m27.946,66.361h2.019v19.278h-2.019v-19.278Zm1.041,2.974h5.818v1.411h-5.818v-1.411Zm.195-2.974h6.904v7.49h-6.904v-1.52h4.973v-4.472h-4.973v-1.498Zm2.084,12.439h11.441v1.715h-11.441v-1.715Zm2.562-3.104h1.758v4.038c0,.347-.039.767-.119,1.259-.08.493-.228,1.017-.445,1.574-.217.557-.514,1.096-.89,1.617s-.868.984-1.476,1.39c-.146-.188-.348-.402-.608-.641s-.499-.431-.716-.575c.68-.42,1.197-.915,1.552-1.487.354-.571.601-1.14.737-1.704.139-.564.207-1.042.207-1.433v-4.038Zm-2.193-.586h10.66v1.65h-10.66v-1.65Zm13.482-8.749v1.498h-5.362v4.516h5.362v1.498h-7.316v-7.511h7.316Zm-6.947,9.248h1.846v9.617h-1.846v-9.617Zm.869-6.274h5.84v1.411h-5.84v-1.411Zm5.036-2.974h2.04v16.76c0,.55-.068.988-.205,1.313-.139.326-.381.575-.729.749-.361.173-.824.282-1.389.325-.564.043-1.267.065-2.105.065-.016-.188-.055-.405-.12-.651s-.138-.496-.217-.749c-.08-.253-.171-.467-.271-.641.55.015,1.071.022,1.563.022h.998c.159-.014.271-.054.336-.12.066-.065.099-.177.099-.336v-16.738Z"/><path class="f" d="m52.293,76.174l2.148.564c-.333.869-.738,1.726-1.216,2.573s-.984,1.639-1.52,2.377c-.536.738-1.071,1.39-1.606,1.954-.145-.13-.333-.271-.564-.423-.232-.152-.471-.304-.717-.456s-.455-.271-.629-.358c.839-.752,1.624-1.686,2.355-2.8.73-1.114,1.312-2.258,1.748-3.43Zm-3.496-3.929h19.257v2.041h-19.257v-2.041Zm1.954-5.254h15.327v2.019h-15.327v-2.019Zm6.6,6.361h2.236v9.748c0,.608-.084,1.078-.25,1.411s-.474.579-.923.738c-.434.159-.991.26-1.672.304-.68.043-1.498.065-2.453.065-.043-.319-.137-.684-.281-1.097-.146-.412-.297-.771-.457-1.074.464.014.916.025,1.357.032.441.008.836.011,1.184.011h.717c.201-.015.343-.051.423-.109.079-.058.119-.166.119-.326v-9.704Zm4.928,3.604l1.911-.803c.521.666,1.031,1.393,1.53,2.182.499.789.951,1.567,1.356,2.334s.709,1.462.912,2.084l-2.084.912c-.188-.593-.471-1.281-.847-2.062-.377-.781-.807-1.577-1.292-2.388s-.98-1.563-1.487-2.258Z"/><path class="e" d="m261.079,32.481l-4.872,10.827h1.949l1.103-2.552h5.501l1.099,2.552h1.995l-4.903-10.827h-1.871Zm-1.172,6.774l2.107-4.876,2.099,4.876h-4.206Z"/><path class="e" d="m250.512,39.953l-6.079-7.472h-1.562v10.827h1.887v-7.489l6.079,7.489h1.562v-10.827h-1.887v7.472Z"/><path class="e" d="m237.823,32.481h-1.887v10.827h1.887v-10.827Z"/><path class="e" d="m224,43.308h1.887v-4.192h5.29v-1.624h-5.29v-3.387h5.955v-1.624h-7.842v10.827Z"/><path class="e" d="m279.3,39.953l-6.079-7.472h-1.562v10.827h1.887v-7.489l6.079,7.489h1.562v-10.827h-1.887v7.472Z"/><path class="e" d="m310.306,32.481l-4.872,10.827h1.949l1.103-2.552h5.501l1.099,2.552h1.995l-4.903-10.827h-1.871Zm-1.172,6.774l2.107-4.876,2.099,4.876h-4.206Z"/><path class="e" d="m322.774,41.684v-9.203h-1.887v10.827h7.61v-1.624h-5.723Z"/><path class="e" d="m301.619,32.481h-1.887v10.827h1.887v-10.827Z"/><path class="e" d="m288.727,35.103c.356-.345.776-.613,1.26-.804.484-.19,1.015-.286,1.593-.286.567,0,1.096.106,1.585.317.49.211.936.529,1.338.952l1.222-1.16c-.495-.588-1.108-1.034-1.841-1.338-.732-.304-1.531-.456-2.398-.456-.825,0-1.591.137-2.297.41-.707.273-1.32.66-1.841,1.16-.521.5-.925,1.09-1.214,1.771-.289.68-.433,1.423-.433,2.227s.144,1.547.433,2.227c.288.68.693,1.271,1.214,1.771.521.5,1.132.887,1.833,1.16.701.273,1.464.41,2.289.41.876,0,1.681-.155,2.413-.465.732-.309,1.346-.752,1.841-1.33l-1.222-1.176c-.402.434-.848.756-1.338.967-.49.211-1.018.317-1.585.317-.578,0-1.109-.095-1.593-.286-.485-.19-.905-.458-1.26-.804-.356-.345-.629-.755-.82-1.23-.191-.474-.286-.995-.286-1.562s.095-1.088.286-1.562c.191-.474.464-.884.82-1.23h0Z"/><path class="e" d="m285.577,5.614h-4.211c-.388,0-.702.314-.702.702v.774c-1.592-1.15-3.526-1.827-5.614-1.827-5.426,0-9.825,4.556-9.825,10.175s4.399,10.175,9.825,10.175c2.088,0,4.022-.677,5.614-1.827v.774c0,.388.314.702.702.702h4.211c.388,0,.702-.314.702-.702V6.316c0-.388-.314-.702-.702-.702Zm-9.825,15.088c-2.713,0-4.912-2.356-4.912-5.263s2.199-5.263,4.912-5.263,4.912,2.356,4.912,5.263-2.199,5.263-4.912,5.263Z"/><path class="e" d="m357.256,25.263c.388,0,.702-.314.702-.702v-11.11c0-1.707,1.304-3.194,3.01-3.272.592-.027,1.149.11,1.631.368.297.159.664.079.873-.185l2.481-3.13c.273-.344.164-.848-.22-1.058-1.066-.582-2.279-.912-3.565-.912-1.554,0-3,.482-4.211,1.308v-.255c0-.388-.314-.702-.702-.702h-4.211c-.387,0-.702.314-.702.702v18.246c0,.387.314.702.702.702h4.211Z"/><path class="e" d="m339.965,5.263c-6.007,0-10.877,4.556-10.877,10.175s4.87,10.175,10.877,10.175,10.877-4.556,10.877-10.175-4.87-10.175-10.877-10.175Zm0,15.439c-2.907,0-5.263-2.356-5.263-5.263s2.356-5.263,5.263-5.263,5.263,2.356,5.263,5.263-2.356,5.263-5.263,5.263Z"/><path class="e" d="m323.638,25.614c2.138,0,4.131-.577,5.812-1.574.364-.216.449-.707.186-1.039l-2.32-2.925c-.225-.283-.622-.341-.93-.152-.962.592-2.127.885-3.369.742-2.408-.277-4.348-2.229-4.61-4.638-.344-3.171,2.13-5.852,5.231-5.852,1.008,0,1.948.285,2.748.777.308.189.706.131.93-.152l2.32-2.925c.263-.332.178-.823-.186-1.039-1.681-.996-3.674-1.574-5.812-1.574-6.007,0-10.877,4.556-10.877,10.175s4.87,10.176,10.877,10.176Z"/><path class="e" d="m298.327,5.267c-1.402.141-2.7.654-3.801,1.443v-.431c0-.388-.314-.702-.702-.702h-4.211c-.388,0-.702.314-.702.702v18.246c0,.388.314.702.702.702h4.211c.387,0,.702-.314.702-.702v-10.877c0-1.938,1.571-3.509,3.509-3.509h.351c.388,0,.702-.314.702-.702v-3.469c0-.411-.352-.742-.761-.701Z"/><path class="e" d="m263.189,19.999l-3.581-1.848c-.319-.165-.702-.053-.904.244-.947,1.392-2.54,2.307-4.351,2.307-1.35,0-2.548-.797-3.319-2.031l12.587-2.753c.331-.072.561-.371.553-.71-.119-5.513-4.471-9.944-9.822-9.944-5.426,0-9.825,4.556-9.825,10.175s4.399,10.175,9.825,10.175c3.804,0,7.15-1.827,9.094-4.593.243-.346.117-.828-.258-1.022Zm-8.836-9.823c1.567,0,2.931,1.072,3.656,2.659l-7.801,1.706c.341-2.478,2.065-4.366,4.145-4.366Z"/><path class="e" d="m374.177,25.614c3.804,0,7.151-1.827,9.095-4.593.243-.346.117-.828-.258-1.022l-3.582-1.848c-.319-.165-.702-.053-.903.244-.947,1.392-2.541,2.307-4.352,2.307-1.349,0-2.548-.797-3.318-2.031l12.588-2.753c.33-.072.56-.371.553-.71-.118-5.513-4.471-9.944-9.823-9.944-5.426,0-9.824,4.556-9.824,10.175s4.398,10.176,9.824,10.176Zm0-15.439c1.567,0,2.931,1.072,3.656,2.659l-7.8,1.706c.341-2.478,2.064-4.366,4.144-4.366Z"/><path class="e" d="m224.702,25.263h4.211c.388,0,.702-.314.702-.702v-10.047c0-2.125,1.663-3.948,3.787-3.987,2.165-.04,3.932,1.703,3.932,3.859v10.175c0,.388.314.702.702.702h4.21c.388,0,.702-.314.702-.702v-9.98c0-4.861-3.87-8.946-8.732-8.968-1.686-.008-3.262.461-4.602,1.278V.702c0-.448-.414-.781-.852-.686l-4.211.921c-.322.07-.552.356-.552.686v22.938c0,.388.314.702.702.702Z"/><path class="e" d="m313.673,23.79l-2.326-2.932c-.182-.23-.492-.34-.767-.239-.148.054-.308.084-.476.084-.785-.004-1.397-.694-1.397-1.479v-9.047h3.012c.387,0,.702-.314.702-.702v-3.509c0-.388-.314-.702-.702-.702h-3.012V.702c0-.448-.414-.781-.852-.686l-4.211.921c-.322.07-.552.356-.552.686v3.64h-1.404c-.387,0-.702.314-.702.702v3.509c0,.388.314.702.702.702h1.404v9.123c0,3.488,3.142,6.316,7.018,6.316,1.197,0,2.321-.272,3.306-.749.41-.198.54-.718.257-1.075Z"/><path class="e" d="m323.638,18.246c1.55,0,2.807-1.257,2.807-2.807s-1.257-2.807-2.807-2.807-2.807,1.257-2.807,2.807,1.257,2.807,2.807,2.807Z"/></svg>