<?xml version="1.0" encoding="utf-8"?>
<!-- Generator: Adobe Illustrator 27.9.0, SVG Export Plug-In . SVG Version: 6.00 Build 0)  -->
<svg version="1.1" id="Layer_1" xmlns="http://www.w3.org/2000/svg" xmlns:xlink="http://www.w3.org/1999/xlink" x="0px" y="0px"
	 viewBox="0 0 160 160" style="enable-background:new 0 0 160 160;" xml:space="preserve">
<style type="text/css">
	.st0{display:none;}
	.st1{display:inline;fill:none;}
	.st2{display:inline;}
	.st3{fill:url(#SVGID_1_);}
	.st4{fill:url(#SVGID_00000006706680206234851340000003537014516485444525_);}
	.st5{fill:url(#SVGID_00000027562935489006515770000014472500079237232575_);}
	.st6{fill:url(#SVGID_00000021836695594233287640000017348136591320973975_);}
	.st7{opacity:0.5;fill:#D9C3A6;enable-background:new    ;}
	.st8{fill:none;stroke:#7153AC;stroke-width:3;stroke-linecap:round;stroke-linejoin:round;stroke-miterlimit:10;}
	.st9{fill:#D9C3A6;fill-opacity:0.5;stroke:#7153AC;stroke-width:3;stroke-miterlimit:10;}
	.st10{fill:#7153AC;}
	.st11{fill:#FFFFFF;}
	.st12{opacity:0.5;fill:url(#SVGID_00000044145306374524361740000017829766818999739290_);enable-background:new    ;}
	.st13{fill:url(#SVGID_00000151507738516282280960000003635942346297516424_);}
</style>
<g class="st0">
	<rect class="st1" width="160" height="160"/>
	<g class="st2">
		<g>
			
				<linearGradient id="SVGID_1_" gradientUnits="userSpaceOnUse" x1="60.4136" y1="990.6496" x2="92.202" y2="922.8782" gradientTransform="matrix(1 0 0 1 0 -840)">
				<stop  offset="0.1908" style="stop-color:#D9C3A6;stop-opacity:0.5"/>
				<stop  offset="0.6554" style="stop-color:#D9C3A6;stop-opacity:0.1"/>
			</linearGradient>
			<path class="st3" d="M128.2,123.1c-0.3-0.2-0.5-0.7-1-1c-1.2-1-2.5-2.2-4.2-3.5c-6.7-5-16.7-11-26.9-18.9
				C89.2,94.5,82.2,84.8,76.3,85c-5.2,0.2-8,7.5-17,9.5c-10.5,2.5-11.7-3.5-9-7c2.5-3.7,5.5-5.2,7.7-8c1-1.2,2.5-2.7,4.2-4.2
				c-5.5,0.5-16,0.5-23.2-3.7l-13,37.9l12.5,14.9c1.7-2,4.7-2.2,6.7-0.5s2.2,4.7,0.7,6.7l1.2-1.5c2.2-2.5,6-3,8.5-0.7
				c2.5,2.2,2.7,6,0.7,8.7l-1,1.2l1.2-1.5c2.2-2.5,6-3,8.5-0.7s2.7,6,0.7,8.7l-0.7,1l1.2-1.5c1.7-2,4.7-2.5,7-0.5c2,1.7,2.2,5,0.5,7
				l-1.5,1.7l8.7,5.2c1,0.5,2.2,0.7,3.2,0.7c4.2,0,7.7-3.5,7.7-8c0-0.5,0-1.2-0.2-1.7l4.5,2.7c1.2,0.7,2.5,1.2,4,1.2
				c4.5,0,8-3.7,8-8.2c0-0.2,0-0.5,0-1c1.2,0.7,2.5,1.2,4,1.2c4.5,0,8-3.7,8-8.2c0-0.7,0-1.2-0.2-2c0.7,0.2,1.2,0.2,2,0.2
				c4,0,7.2-3.2,7.2-7.5C129.9,126.1,129.2,124.4,128.2,123.1z"/>
			
				<linearGradient id="SVGID_00000066493027771893619280000010186140096710661552_" gradientUnits="userSpaceOnUse" x1="101.221" y1="966.684" x2="79.1137" y2="905.8255" gradientTransform="matrix(1 0 0 1 0 -840)">
				<stop  offset="0.1407" style="stop-color:#D9C3A6;stop-opacity:0.5"/>
				<stop  offset="0.6692" style="stop-color:#D9C3A6;stop-opacity:0.1"/>
			</linearGradient>
			<path style="fill:url(#SVGID_00000066493027771893619280000010186140096710661552_);" d="M133.9,109.7c0,0-6.5,3.2-10.7,9
				c-6.7-5-16.7-11-26.9-18.9c-6.8-5.3-13.8-15-19.8-14.8c-5.2,0.2-8,7.5-17,9.5c-10.5,2.5-11.7-3.5-9-7c2.5-3.7,5.5-5.2,7.7-8
				c1-1.2,2.5-2.7,4.2-4.2c3.7-3.5,8.5-7,12.2-7.7c6.2-1,25,5.7,32.9,5.7c9.2,0.2,13-1.5,13-1.5L133.9,109.7z"/>
			
				<linearGradient id="SVGID_00000157992800288551854510000003477912207571914649_" gradientUnits="userSpaceOnUse" x1="12.9849" y1="947.9894" x2="28.7558" y2="904.5741" gradientTransform="matrix(1 0 0 1 0 -840)">
				<stop  offset="0" style="stop-color:#FFFFFF;stop-opacity:0"/>
				<stop  offset="1" style="stop-color:#FFFFFF;stop-opacity:0.35"/>
			</linearGradient>
			<path style="fill:url(#SVGID_00000157992800288551854510000003477912207571914649_);" d="M22.4,113.2l-19.2-7
				c-1.2-0.5-2-2-1.5-3.2l14.5-42.3c0.5-1.2,2-2,3.2-1.5l19.2,7c1.2,0.5,2,2,1.5,3.2l-14.5,42.3C25.1,112.9,23.6,113.7,22.4,113.2z"
				/>
			
				<linearGradient id="SVGID_00000032638770341030884420000008905210448625872022_" gradientUnits="userSpaceOnUse" x1="130.5692" y1="902.7158" x2="147.5988" y2="949.5961" gradientTransform="matrix(1 0 0 1 0 -840)">
				<stop  offset="0" style="stop-color:#FFFFFF;stop-opacity:0.35"/>
				<stop  offset="1" style="stop-color:#FFFFFF;stop-opacity:0"/>
			</linearGradient>
			<path style="fill:url(#SVGID_00000032638770341030884420000008905210448625872022_);" d="M137.6,113.2l19.2-7
				c1.2-0.5,2-2,1.5-3.2l-14.5-42.3c-0.5-1.2-2-2-3.2-1.5l-19.2,7c-1.2,0.5-2,2-1.5,3.2l14.5,42.3
				C134.9,112.9,136.4,113.7,137.6,113.2z"/>
			<path class="st7" d="M73.5,143.6c-2-1.7-5.2-1.5-7,0.5l-1.2,1.5l0.7-1c2.2-2.5,1.7-6.5-0.7-8.7c-2.5-2.2-6.2-2-8.5,0.7l-1.7,2
				l1.2-1.7c2.2-2.5,1.7-6.5-0.7-8.7c-2.5-2.2-6.2-2-8.5,0.7l-1.5,1.7c1.7-2,1.5-5.2-0.5-7c-2-1.7-5-1.5-6.7,0.5l-2,2.2
				c-1.7,2-1.5,5.2,0.5,7c2,1.7,5,1.5,6.7-0.5l0.7-1c-2.2,2.5-1.7,6.5,0.7,8.7c2.5,2.2,6.2,2,8.5-0.7l0.7-0.7
				c-2,2.5-1.7,6.2,0.7,8.5c2.5,2.2,6.2,2,8.5-0.7l0.7-0.7l-0.2,0.2c-1.7,2-1.5,5.2,0.5,7c2,1.7,5.2,1.5,7-0.5l1.7-2.2
				C75.8,148.5,75.5,145.3,73.5,143.6z"/>
		</g>
		<g>
			<path class="st8" d="M92.2,148.8l4.7,3"/>
			<path class="st8" d="M128.2,123.1c-0.3-0.2-0.5-0.7-1-1c-1.2-1-2.5-2.2-4.2-3.5c-6.7-5-16.7-11-26.9-18.9
				C89.2,94.5,82.2,84.8,76.3,85c-5.2,0.2-8,7.5-17,9.5c-10.5,2.5-11.7-3.5-9-7c2.5-3.7,5.5-5.2,7.7-8c1-1.2,2.5-2.7,4.2-4.2
				c-5.5,0.5-16,0.5-23.2-3.7l-13,37.9l12.5,14.9c1.7-2,4.7-2.2,6.7-0.5s2.2,4.7,0.7,6.7l1.2-1.5c2.2-2.5,6-3,8.5-0.7
				c2.5,2.2,2.7,6,0.7,8.7l-1,1.2l1.2-1.5c2.2-2.5,6-3,8.5-0.7s2.7,6,0.7,8.7l-0.7,1l1.2-1.5c1.7-2,4.7-2.5,7-0.5c2,1.7,2.2,5,0.5,7
				l-1.5,1.7l8.7,5.2c1,0.5,2.2,0.7,3.2,0.7c4.2,0,7.7-3.5,7.7-8c0-0.5,0-1.2-0.2-1.7l4.5,2.7c1.2,0.7,2.5,1.2,4,1.2
				c4.5,0,8-3.7,8-8.2c0-0.2,0-0.5,0-1c1.2,0.7,2.5,1.2,4,1.2c4.5,0,8-3.7,8-8.2c0-0.7,0-1.2-0.2-2c0.7,0.2,1.2,0.2,2,0.2
				c4,0,7.2-3.2,7.2-7.5C129.9,126.1,129.2,124.4,128.2,123.1z"/>
			<path class="st8" d="M90.2,132.4l18.7,11.5"/>
			<path class="st8" d="M80.5,141.6l11.7,7.2"/>
			<path class="st8" d="M46.3,130.6l-2,2.2c-1.7,2-4.7,2.2-6.7,0.5s-2.2-5-0.5-7l2-2.2c1.7-2,4.7-2.2,6.7-0.5
				C47.8,125.4,48.1,128.6,46.3,130.6z"/>
			<path class="st8" d="M56.8,137.1l-2.5,3c-2.2,2.5-6,3-8.5,0.7c-2.5-2.2-2.7-6-0.7-8.7l2.5-3c2.2-2.5,6-3,8.5-0.7
				C58.5,130.6,58.8,134.3,56.8,137.1z"/>
			<path class="st8" d="M66,144.6l-2,2.2c-2.2,2.5-6,3-8.5,0.7c-2.5-2.2-2.7-6-0.7-8.7l2-2.2c2.2-2.5,6-3,8.5-0.7
				C68,138.1,68.3,142.1,66,144.6z"/>
			<path class="st8" d="M74,150.5l-1.7,2.2c-1.7,2-4.7,2.5-7,0.5c-2-1.7-2.2-5-0.5-7l1.7-2.2c1.7-2,4.7-2.5,7-0.5
				C75.5,145.3,75.8,148.5,74,150.5z"/>
			<path class="st8" d="M22.4,113.2l-19.2-7c-1.2-0.5-2-2-1.5-3.2l14.5-42.3c0.5-1.2,2-2,3.2-1.5l19.2,7c1.2,0.5,2,2,1.5,3.2
				l-14.5,42.3C25.1,112.9,23.6,113.7,22.4,113.2z"/>
			<path class="st8" d="M137.6,113.2l19.2-7c1.2-0.5,2-2,1.5-3.2l-14.5-42.3c-0.5-1.2-2-2-3.2-1.5l-19.2,7c-1.2,0.5-2,2-1.5,3.2
				l14.5,42.3C134.9,112.9,136.4,113.7,137.6,113.2z"/>
			<path class="st8" d="M133.9,109.7c0,0-6.5,3.2-10.7,9c-6.7-5-16.7-11-26.9-18.9c-6.8-5.3-13.8-15-19.8-14.8
				c-5.2,0.2-8,7.5-17,9.5c-10.5,2.5-11.7-3.5-9-7c2.5-3.7,5.5-5.2,7.7-8c1-1.2,2.5-2.7,4.2-4.2c3.7-3.5,8.5-7,12.2-7.7
				c6.2-1,25,5.7,32.9,5.7c9.2,0.2,13-1.5,13-1.5L133.9,109.7z"/>
			<path class="st8" d="M101,123.1l17.7,10.7c0.5,0.5,1.2,0.7,2,1"/>
			<path class="st8" d="M116.2,19.6c-21.7,8.2-1.5,21.9,4.2,16.4c6.5-6-21.2-18.2-36.9,8.7"/>
			<path class="st8" d="M49.3,41c14,6,2.5,24.2-3.7,16.4c-6-7.2,18.2-17.7,36.2,1.5"/>
			<path class="st9" d="M44.6,19.1l-0.2,6.5c0,0.5,0.2,0.7,0.5,1l5.2,3.7c0.7,0.5,0.7,2-0.2,2.2l-6.2,2C43.2,34.7,43,35,43,35.2
				l-2,6.2c-0.2,1-1.7,1.2-2.2,0.2l-3.5-5c-0.2-0.2-0.7-0.5-1-0.5h-6.5c-1,0-1.7-1.2-1-2l4-5.2c0.2-0.2,0.2-0.7,0.2-1.2l-2-6.2
				c-0.2-1,0.5-2,1.5-1.5l6,2.2c0.5,0.2,0.7,0,1.2-0.2l5-4C43.6,17.3,44.8,18.1,44.6,19.1z"/>
			<path class="st9" d="M105.2,43.2l2.5,3.7c0.2,0.2,0.5,0.5,0.7,0.5h4.5c0.7,0,1.2,0.7,0.7,1.5l-2.7,3.7c-0.2,0.2-0.2,0.5-0.2,0.7
				l1.7,4.2c0.2,0.7-0.5,1.2-1,1.2l-4.2-1.5c-0.2,0-0.5,0-0.7,0.2l-3.7,2.5c-0.5,0.5-1.5,0-1.5-0.7v-4.5c0-0.2-0.3-0.5-0.3-0.7
				l-3.7-2.7c-0.5-0.5-0.5-1.2,0.2-1.5l4.2-1.5c0.2,0,0.5-0.2,0.5-0.5l1.2-4.5C104,43,105,42.7,105.2,43.2z"/>
			<path class="st9" d="M77.5,7.6l0.5,3.2c0,0.2,0.2,0.5,0.2,0.5l3,1.5c0.5,0.2,0.5,1,0,1.2l-3,1.2c-0.2,0-0.2,0.2-0.2,0.5l-0.5,3.2
				c0,0.5-0.7,0.7-1,0.2l-2.2-2.2c-0.2-0.2-0.2-0.2-0.5-0.2l-3.2,0.5c-0.5,0-1-0.5-0.7-1l1.5-3c0-0.2,0-0.5,0-0.5l-1.5-3
				c-0.2-0.5,0.2-1,0.7-1l3.2,0.5c0.2,0,0.5,0,0.5-0.2l2.2-2.2C77,6.8,77.5,7.1,77.5,7.6z"/>
			<path class="st9" d="M126.9,1.9l4,3.5c0.2,0,0.5,0,0.7,0l5-1.2c0.7-0.2,1.5,0.5,1.2,1.2l-2,5c-0.2,0.2,0,0.7,0,1l2.7,4.5
				c0.5,0.7,0,1.7-1,1.5l-5.2-0.5c-0.2,0-0.7,0-0.7,0.2l-3.2,4c-0.5,0.7-1.5,0.5-1.7-0.5l-1.2-5c0-0.2-0.2-0.5-0.5-0.7l-5-2
				c-0.5,0-0.7-1.2,0-1.5l4.5-2.7c0.2-0.2,0.5-0.5,0.5-1l0.3-5.2C125.2,1.6,126.2,1.1,126.9,1.9z"/>
		</g>
		<path class="st10" d="M15.9,104c2.1,0,3.7-1.8,3.7-4s-1.7-4-3.7-4s-3.7,1.8-3.7,4C12.1,102.2,13.8,104,15.9,104z"/>
		<path class="st10" d="M144.1,104c2.1,0,3.7-1.8,3.7-4s-1.7-4-3.7-4c-2.1,0-3.7,1.8-3.7,4C140.4,102.2,142.1,104,144.1,104z"/>
		<path class="st10" d="M69.8,37.7c2.1,0,3.7-1.7,3.7-3.7c0-2.1-1.7-3.7-3.7-3.7S66,31.9,66,34S67.7,37.7,69.8,37.7z"/>
		<path class="st10" d="M22.6,10.8c2.1,0,3.7-1.7,3.7-3.7s-1.7-3.7-3.7-3.7S18.9,5,18.9,7.1S20.5,10.8,22.6,10.8z"/>
		<path class="st10" d="M53.8,12.8c1.4,0,2.5-1.1,2.5-2.5s-1.1-2.5-2.5-2.5s-2.5,1.1-2.5,2.5S52.4,12.8,53.8,12.8z"/>
		<path class="st10" d="M99.5,17.8c2.1,0,3.7-1.7,3.7-3.7c0-2.1-1.7-3.7-3.7-3.7c-2.1,0-3.7,1.7-3.7,3.7
			C95.7,16.1,97.4,17.8,99.5,17.8z"/>
	</g>
</g>
<g>
	<path class="st11" d="M158,101.5l-15.1-41.5l-23.2-20l-0.4-0.2L75.8,12.6l-0.4-0.2L47.1,0.2c0,0,0,0-0.4-0.2L2.3,4.1
		C1,3.9,0,4.6,0.1,6C-0.1,6.4,0,6.9,0.4,7.1l16.5,141.4c0.1,1.2,0.9,2.4,2,3.1l0,0c1.1,0.6,2.4,0.9,3.6,0.4l134-47.3
		c0.5-0.1,0.9,0.1,1.1-0.2C158.5,103.7,158.9,102.4,158,101.5z"/>
	
		<radialGradient id="SVGID_00000034795266818720247340000009585612064558843294_" cx="-395.6379" cy="499.2756" r="1.2648" fx="-396.8992" fy="499.183" gradientTransform="matrix(56.2394 0 0 6.4689 22338.9434 -3078.1326)" gradientUnits="userSpaceOnUse">
		<stop  offset="0" style="stop-color:#000000"/>
		<stop  offset="1" style="stop-color:#000000;stop-opacity:0"/>
	</radialGradient>
	<path style="opacity:0.5;fill:url(#SVGID_00000034795266818720247340000009585612064558843294_);enable-background:new    ;" d="
		M88.5,160c39.5,0,71.5-3.7,71.5-8.4s-32-8.4-71.5-8.4S17,147,17,151.6C16.9,156.3,48.9,160,88.5,160z"/>
	
		<linearGradient id="SVGID_00000023964413421671749840000008502813650912991401_" gradientUnits="userSpaceOnUse" x1="291.5082" y1="690.3646" x2="199.867" y2="564.2312" gradientTransform="matrix(0.848 0.5299 -0.5299 0.848 204.7682 -586.7466)">
		<stop  offset="0.1765" style="stop-color:#4A2D86"/>
		<stop  offset="0.2847" style="stop-color:#6039AC;stop-opacity:0.97"/>
		<stop  offset="1" style="stop-color:#535CC6;stop-opacity:0.15"/>
	</linearGradient>
	<path style="fill:url(#SVGID_00000023964413421671749840000008502813650912991401_);" d="M158,101.5l-15.1-41.5l-23.2-20l-0.4-0.2
		L75.8,12.6l-0.4-0.2L47.1,0.2c0,0,0,0-0.4-0.2L2.3,4.1C1,3.9,0,4.6,0.1,6C-0.1,6.4,0,6.9,0.4,7.1l16.5,141.4c0.1,1.2,0.9,2.4,2,3.1
		l0,0c1.1,0.6,2.4,0.9,3.6,0.4l134-47.3c0.5-0.1,0.9,0.1,1.1-0.2C158.5,103.7,158.9,102.4,158,101.5z M148.9,90.2l-29-35.2l18.6,7.5
		L148.9,90.2z M16.1,7.4l30-3l15.6,13.9L26.5,35.6l-0.4-0.2L7.6,9.5l44.7,7.1L16.1,7.4z M33.4,135.3l26.7-50.5l-33.6,46.1l-1.6-84.3
		l-6.1,76.2L5.9,14.4L24,37.2l0.4,0.2l41.2,29.5L26.9,35.8l37-13.5l5.6,41.5l-1-44.2c0.4-0.6,0.2-1.2-0.2-2
		c-0.1-0.5-0.5-0.7-1.1-1.2l-8.2-7.5l15.4,6.7L116.5,42l12.9,10.7l-10.2-4.1c-0.4-0.2-0.6-0.4-0.6-0.4l-0.4-0.2L78.5,27.4l33.6,23.4
		L85.4,63.6l29.1-9.1l4.1,39.2l-45-21.1L117.1,96L33.4,135.3z M119.3,94.1l-0.1-39.5L151,99L119.3,94.1z"/>
</g>
</svg>
