<?xml version="1.0" encoding="UTF-8"?><svg id="a" xmlns="http://www.w3.org/2000/svg" width="64" height="60" viewBox="0 0 64 60"><defs><style>.b{fill:#4a2d86;stroke-width:0px;}</style></defs><path class="b" d="m60.635,49.023h.32l1.25-15.077,1.794-3.905-.555-8.389c.135-1.742-1.358-2.723-2.287-3.125l-1.693,4.288-.458-3.705.283-.229-.076-1.008.698-.252c-.072-.104-.116-.203-.116-.288v-.932c.278-.336.489-1.017.613-1.789.175-.069.289-.173.439-.984.103-.573-.061-.926-.099-.926.069-.52.164-1.547-.084-2.062,0,0,.171-.335.171-.781-.717.111-3.007-1.487-3.69-.186-.993-.112-1.583,1.41-1.134,3.029,0,0-.556-.028-.333.818.207.796.375.977.666,1.092.126.771.335,1.453.614,1.789v.932c0,.051-.015.105-.04.163l.902.327-.08,1.057.283.229-.47,3.822-2.13-4.342c-.301.117-.681.272-1.071.469l-.717,5.461-.31-4.706c.175-2.268-1.917-3.48-3.015-3.9-.068-.026-.139-.059-.215-.102l-1.763,4.467-.498-4.029.308-.251-.084-1.094.822-.297c-.004-.022-.008-.042-.008-.063v-1.136c.337-.409.595-1.241.749-2.182.213-.084.352-.212.533-1.2.129-.699-.072-1.129-.122-1.129.086-.634.204-1.887-.101-2.516,0,0,.209-.408.209-.953-.875.135-3.669-1.815-4.504-.227-1.208-.137-1.929,1.721-1.381,3.695,0,0-.679-.036-.407.998.253.97.458,1.191.814,1.331.154.941.409,1.772.749,2.182v1.031l1.132.412-.086,1.148.306.251-.513,4.155-2.216-4.52c-.021.01-.042.019-.061.028-.574.218-1.773.652-2.751,1.337l-.976,7.438-.451-6.837h0c.017-.217.008-.426-.019-.624-.276-2.2-2.905-3.428-4.134-3.91l-2.454,5.343-.607-4.923.373-.305-.105-1.402,1.012-.367v-1.316c.396-.48.698-1.454.877-2.558.417-.161.656-.421.955-1.559.316-1.211-.479-1.169-.479-1.169.643-2.315-.202-4.489-1.619-4.329-.978-1.86-4.251.424-5.275.266,0,.637.245,1.116.245,1.116-.356.736-.219,2.206-.118,2.948-.059-.001-.778.008-.472,1.169.299,1.137.535,1.398.955,1.559.179,1.104.479,2.078.875,2.558v1.316l1.195.433-.101,1.336.375.305-.647,5.243-2.602-5.663c-1.343.524-4.352,1.939-4.154,4.533l-.337,5.12-.75-5.719c-.978-.685-2.18-1.119-2.751-1.337-.021-.009-.042-.018-.063-.028l-2.216,4.52-.513-4.155.306-.251-.087-1.148,1.132-.412v-1.031c.337-.409.597-1.241.749-2.182.356-.139.561-.361.816-1.331.27-1.034-.409-.998-.409-.998.548-1.974-.173-3.832-1.381-3.695-.835-1.588-3.629.362-4.504.227,0,.544.209.953.209.953-.304.629-.188,1.882-.101,2.516-.051,0-.251.43-.122,1.129.183.988.32,1.116.535,1.2.152.941.407,1.772.746,2.182v1.136c0,.02-.004.041-.006.063l.82.297-.084,1.094.308.251-.495,4.029-1.765-4.467c-.076.042-.15.076-.215.102-1.098.42-3.188,1.632-3.013,3.9l-.312,4.716-.719-5.471c-.388-.197-.767-.352-1.069-.469l-2.129,4.343-.47-3.823.282-.229-.08-1.057.905-.327c-.027-.058-.042-.112-.042-.163v-.932c.276-.336.489-1.017.614-1.789.293-.115.46-.296.668-1.092.221-.846-.333-.818-.333-.818.449-1.619-.143-3.141-1.134-3.029-.683-1.302-2.975.297-3.692.186,0,.446.171.781.171.781-.249.515-.154,1.542-.082,2.062-.04,0-.205.353-.099.926.148.811.261.915.437.984.126.771.335,1.453.614,1.789v.932c0,.085-.042.185-.114.288l.696.252-.078,1.008.282.229-.455,3.703-1.693-4.286c-.93.402-2.423,1.383-2.29,3.125l-.552,8.389,1.794,3.905,1.252,15.077h.32l-.006.231-1.912,2.245.637.815,3.825-1.308v-1.983h.188l.028-11.189,2.176,11.189h.514l.021.143-.371,1.955.784,1.169,1.509-.117.592-1.255-.179-1.895h.179l-.896-15.077.668-1.454,1.065,2.318,1.527,18.392h.39l-.006.282-2.332,2.737.778.996,4.664-1.598v-2.417h.228l.036-13.65,2.655,13.65h.626l.028.174-.453,2.386.955,1.425,1.843-.144.723-1.531-.219-2.311h.219l-1.094-18.392,1.305-2.84,1.583,3.45v19.813h.479l-.002.104-2.912,3.42.97,1.243,5.826-1.995v-2.772l1.828-14.257,1.83,14.257h.188v2.772l5.823,1.995.972-1.243-2.914-3.42-.002-.104h.293v-19.813l1.752-3.817,1.476,3.207-1.094,18.392h.219l-.219,2.311.721,1.531,1.843.144.957-1.425-.456-2.386.028-.174h.626l2.657-13.65.034,13.65h.228v2.417l4.666,1.598.776-.996-2.332-2.737-.006-.282h.39l1.527-18.392,1.065-2.318.668,1.454-.896,15.077h.179l-.179,1.895.592,1.255,1.509.117.784-1.169-.371-1.955.021-.143h.514l2.176-11.189.029,11.189h.188v1.983l3.822,1.308.637-.815-1.912-2.245-.004-.231Z"/></svg>