<?xml version="1.0" encoding="UTF-8"?><svg id="a" xmlns="http://www.w3.org/2000/svg" width="384" height="256" viewBox="0 0 384 256"><defs><style>.b{fill:#fff;}.b,.c,.d{stroke:#4a2d86;stroke-linecap:round;stroke-linejoin:round;}.c,.d{fill:none;stroke-width:2px;}.e{opacity:.5;}.d{stroke-dasharray:0 0 3.875 7.75;}.f{fill:#4a2d86;}.f,.g,.h{stroke-width:0px;}.g{fill:#201339;}.h{fill:#ecedf9;}</style></defs><line class="c" x1="64" y1="64" x2="64" y2="66"/><line class="d" x1="64" y1="73.75" x2="64" y2="186.125"/><line class="c" x1="64" y1="190" x2="64" y2="192"/><line class="c" x1="128" y1="32" x2="130" y2="32"/><line class="d" x1="137.75" y1="32" x2="250.125" y2="32"/><line class="c" x1="254" y1="32" x2="256" y2="32"/><line class="c" x1="320" y1="64" x2="320" y2="66"/><line class="d" x1="320" y1="73.75" x2="320" y2="186.125"/><line class="c" x1="320" y1="190" x2="320" y2="192"/><line class="c" x1="128" y1="224" x2="130" y2="224"/><line class="d" x1="137.75" y1="224" x2="250.125" y2="224"/><line class="c" x1="254" y1="224" x2="256" y2="224"/><rect class="h" width="128" height="64" rx="4" ry="4"/><g class="e"><path class="g" d="m124,.5c1.93,0,3.5,1.57,3.5,3.5v56c0,1.93-1.57,3.5-3.5,3.5H4c-1.93,0-3.5-1.57-3.5-3.5V4C.5,2.07,2.07.5,4,.5h120m0-.5H4C1.791,0,0,1.791,0,4v56c0,2.209,1.791,4,4,4h120c2.209,0,4-1.791,4-4V4c0-2.209-1.791-4-4-4h0Z"/></g><rect class="h" x="256" width="128" height="64" rx="4" ry="4"/><g class="e"><path class="g" d="m380,.5c1.93,0,3.5,1.57,3.5,3.5v56c0,1.93-1.57,3.5-3.5,3.5h-120c-1.93,0-3.5-1.57-3.5-3.5V4c0-1.93,1.57-3.5,3.5-3.5h120m0-.5h-120c-2.209,0-4,1.791-4,4v56c0,2.209,1.791,4,4,4h120c2.209,0,4-1.791,4-4V4c0-2.209-1.791-4-4-4h0Z"/></g><rect class="h" y="192" width="128" height="64" rx="4" ry="4"/><g class="e"><path class="g" d="m124,192.5c1.93,0,3.5,1.57,3.5,3.5v56c0,1.93-1.57,3.5-3.5,3.5H4c-1.93,0-3.5-1.57-3.5-3.5v-56c0-1.93,1.57-3.5,3.5-3.5h120m0-.5H4c-2.209,0-4,1.791-4,4v56c0,2.209,1.791,4,4,4h120c2.209,0,4-1.791,4-4v-56c0-2.209-1.791-4-4-4h0Z"/></g><rect class="h" x="256" y="192" width="128" height="64" rx="4" ry="4"/><g class="e"><path class="g" d="m380,192.5c1.93,0,3.5,1.57,3.5,3.5v56c0,1.93-1.57,3.5-3.5,3.5h-120c-1.93,0-3.5-1.57-3.5-3.5v-56c0-1.93,1.57-3.5,3.5-3.5h120m0-.5h-120c-2.209,0-4,1.791-4,4v56c0,2.209,1.791,4,4,4h120c2.209,0,4-1.791,4-4v-56c0-2.209-1.791-4-4-4h0Z"/></g><path class="g" d="m35.042,41.824h.673c.396,0,.717-.321.717-.717h0c0-.396.321-.717.717-.717h9.595v1.346h1.498c.396,0,.717-.321.717-.717v-16.999c0-.396-.321-.717-.717-.717h-13.2c-.396,0-.717.321-.717.717v17.085c0,.396.321.717.717.717Zm1.39-4.212v-4.125c0-.396.321-.717.717-.717h8.878c.396,0,.717.321.717.717v4.125c0,.396-.321.717-.717.717h-8.878c-.396,0-.717-.321-.717-.717Zm10.312-11.506v3.908c0,.396-.321.717-.717.717h-8.878c-.396,0-.717-.321-.717-.717v-3.908c0-.396.321-.717.717-.717h8.878c.396,0,.717.321.717.717Z"/><path class="g" d="m65.899,31.001c-.342-.489-.659-.985-.951-1.487-.281-.481.062-1.086.619-1.086h5.293c.396,0,.717-.321.717-.717v-.673c0-.396-.321-.717-.717-.717h-7.055c-.396,0-.717-.321-.717-.717v-2.974c0-.396-.321-.717-.717-.717h-.739c-.396,0-.717.321-.717.717v2.974c0,.396-.321.717-.717.717h-6.967c-.396,0-.717.321-.717.717v.673c0,.396.321.717.717.717h6.439c-.27.549-.564,1.096-.893,1.639-.601.991-1.278,1.925-2.03,2.8-.752.876-1.552,1.668-2.398,2.377-.847.709-1.719,1.31-2.616,1.802.159.13.329.297.511.5.18.203.361.409.542.619.181.21.322.401.423.575,1.26-.767,2.45-1.715,3.572-2.844,1.121-1.129,2.142-2.396,3.061-3.799.39-.595.738-1.21,1.074-1.831v5.109c0,.396-.321.717-.717.717h-2.583c-.396,0-.717.321-.717.717v.651c0,.396.321.717.717.717h2.583c.396,0,.717.321.717.717v2.453c0,.396.321.717.717.717h.739c.396,0,.717-.321.717-.717v-2.453c0-.396.321-.717.717-.717h2.496c.396,0,.717-.321.717-.717v-.651c0-.396-.321-.717-.717-.717h-2.496c-.396,0-.717-.321-.717-.717v-5.159c.349.647.716,1.284,1.118,1.902.904,1.39,1.917,2.646,3.039,3.767,1.121,1.122,2.319,2.052,3.593,2.79.115-.188.264-.398.445-.63.181-.231.372-.452.575-.662.202-.209.383-.387.543-.532-1.23-.622-2.403-1.44-3.518-2.453s-2.109-2.146-2.984-3.397Z"/><path class="g" d="m76.338,30.936c.211.12.405.237.583.349.332.211.764.119.98-.21l.728-1.105c-.318-.246-.724-.492-1.216-.738s-1.006-.485-1.541-.716c-.35-.151-.69-.287-1.022-.407-.307-.112-.648.011-.83.282l-.252.376c-.248.37-.107.883.305,1.053.249.103.501.214.756.335.536.253,1.039.514,1.509.781Z"/><path class="g" d="m77.5,25.118c.203.13.39.257.56.381.325.236.774.164,1.006-.164l.758-1.074c-.305-.26-.695-.528-1.173-.803-.478-.274-.984-.535-1.52-.781-.354-.162-.697-.312-1.032-.449-.302-.124-.645-.02-.839.242l-.264.356c-.267.36-.147.88.26,1.07.244.114.493.236.747.366.535.275,1.034.561,1.498.858Z"/><path class="g" d="m93.105,41.334c.332-.183.466-.589.306-.932-.202-.435-.451-.898-.747-1.389-.441-.73-.93-1.473-1.466-2.225-.414-.583-.833-1.131-1.257-1.644-.215-.26-.585-.328-.884-.171l-.512.268c-.395.207-.502.712-.234,1.067s.537.726.803,1.11l-.538,1.134c-.579.034-1.16.069-1.743.103-1.281.075-2.483.141-3.633.2.138-.278.276-.555.42-.862.391-.832.771-1.697,1.14-2.594.303-.736.588-1.448.857-2.135.107-.274.368-.448.663-.448h6.241c.396,0,.717-.321.717-.717v-.521c0-.396-.321-.717-.717-.717h-4.602c-.396,0-.717-.321-.717-.717v-2.192c0-.396.321-.717.717-.717h3.56c.396,0,.717-.321.717-.717v-.521c0-.396-.321-.717-.717-.717h-3.56c-.396,0-.717-.321-.717-.717v-1.932c0-.396-.321-.717-.717-.717h-.672c-.396,0-.717.321-.717.717v1.932c0,.396-.321.717-.717.717h-3.343c-.396,0-.717.321-.717.717v.521c0,.396.321.717.717.717h3.343c.396,0,.717.321.717.717v2.192c0,.396-.321.717-.717.717h-4.451c-.396,0-.717.321-.717.717v.521c0,.396.321.717.717.717h3.411c-.118.398-.229.787-.372,1.216-.217.651-.452,1.306-.706,1.965-.253.659-.514,1.295-.781,1.91-.165.379-.328.727-.49,1.059-.338.016-.664.031-.977.046-.421.019-.732.395-.675.812l.087.641c.051.375.381.646.758.619.853-.061,1.785-.128,2.795-.202,1.281-.095,2.627-.192,4.038-.293,1.142-.082,2.274-.17,3.401-.262.285-.023.56.126.691.38.12.232.23.455.329.669.175.379.629.53.995.329l.669-.368Z"/><path class="g" d="m78.546,34.12c-.355-.3-.89-.191-1.098.224-.278.553-.571,1.118-.881,1.694-.464.861-.919,1.671-1.368,2.431-.307.521-.598.996-.871,1.424-.203.319-.13.738.174.964l.598.445c.343.255.833.157,1.046-.213.276-.48.558-.985.844-1.513.427-.789.847-1.588,1.26-2.399.323-.635.626-1.252.909-1.852.139-.294.057-.639-.191-.849l-.422-.357Z"/><path class="g" d="m304.064,35.734c-.752-.73-1.439-1.49-2.062-2.279-.323-.41-.621-.819-.897-1.227h6.347c.396,0,.717-.321.717-.717v-.629c0-.396-.321-.717-.717-.717h-7.165c-.396,0-.717-.321-.717-.717v-6.816c0-.396-.321-.717-.717-.717h-.737c-.396,0-.717.321-.717.717v6.816c0,.396-.321.717-.717.717h-7.122c-.396,0-.717.321-.717.717v.629c0,.396.321.717.717.717h6.322c-.293.465-.607.929-.959,1.389-.608.796-1.278,1.563-2.009,2.301-.731.738-1.487,1.408-2.269,2.008s-1.563,1.118-2.345,1.552c.159.13.337.297.532.499.195.203.379.413.553.63.174.217.318.413.435.586.796-.507,1.592-1.096,2.388-1.769.797-.673,1.563-1.415,2.302-2.226.737-.81,1.429-1.661,2.073-2.551.288-.399.556-.802.814-1.209v7.906c0,.396.321.717.717.717h.737c.396,0,.717-.321.717-.717v-7.976c.253.381.513.761.793,1.137.658.883,1.364,1.726,2.117,2.529.752.803,1.53,1.549,2.334,2.236.803.688,1.596,1.277,2.377,1.77.13-.188.285-.395.467-.619.18-.224.369-.441.564-.651.195-.209.379-.38.553-.51-.796-.419-1.592-.93-2.388-1.53s-1.57-1.267-2.323-1.998Z"/><path class="g" d="m292.179,27.43c.159.319.297.619.412.9.153.372.58.537.947.373l.706-.315c.365-.163.529-.589.363-.953-.132-.29-.286-.596-.463-.917-.318-.579-.673-1.172-1.063-1.78-.283-.441-.575-.851-.874-1.231-.198-.252-.546-.331-.84-.204l-.544.234c-.422.182-.557.699-.295,1.076.219.315.433.647.643.993.375.623.712,1.23,1.009,1.824Z"/><path class="g" d="m304.912,27.604c.404-.593.81-1.215,1.215-1.867.249-.4.492-.794.73-1.183.233-.38.062-.877-.353-1.039l-.84-.328c-.352-.137-.753.019-.909.363-.175.387-.373.794-.593,1.22-.34.659-.701,1.303-1.085,1.932-.212.349-.422.674-.627.976-.249.366-.105.862.297,1.046l.493.226c.305.139.668.053.868-.216.258-.346.526-.723.805-1.13Z"/><path class="g" d="m325.807,36.418c0-.396-.321-.717-.717-.717h-1.222l1.352-.782c-.203-.318-.499-.695-.89-1.129-.261-.29-.518-.557-.773-.801-.224-.215-.563-.248-.836-.098l-.845.465c.347.347.709.746,1.085,1.194.369.44.652.823.854,1.151h-2.286c-.396,0-.717-.321-.717-.717v-1.78c0-.396.321-.717.717-.717h2.649c.396,0,.717-.321.717-.717v-.325c0-.396-.321-.717-.717-.717h-2.649c-.396,0-.717-.321-.717-.717v-1.194c0-.396.321-.717.717-.717h3.148c.396,0,.717-.321.717-.717v-.391c0-.396-.321-.717-.717-.717h-9.53c-.396,0-.717.321-.717.717v.391c0,.396.321.717.717.717h3.017c.396,0,.717.321.717.717v1.194c0,.396-.321.717-.717.717h-2.431c-.396,0-.717.321-.717.717v.325c0,.396.321.717.717.717h2.431c.396,0,.717.321.717.717v1.78c0,.396-.321.717-.717.717h-3.3c-.396,0-.717.321-.717.717v.26c0,.396.321.717.717.717h10.225c.396,0,.717-.321.717-.717v-.26Z"/><path class="g" d="m310.893,41.346c0,.396.321.717.717.717h1.367v-1.085h13.872v1.085h1.455c.396,0,.717-.321.717-.717v-17.78c0-.396-.321-.717-.717-.717h-16.695c-.396,0-.717.321-.717.717v17.78Zm15.956-15.891v12.895c0,.396-.321.717-.717.717h-12.439c-.396,0-.717-.321-.717-.717v-12.895c0-.396.321-.717.717-.717h12.439c.396,0,.717.321.717.717Z"/><path class="g" d="m351.127,41.334c.332-.183.466-.589.306-.932-.202-.435-.451-.898-.747-1.389-.441-.73-.93-1.473-1.466-2.225-.414-.583-.833-1.131-1.257-1.644-.215-.26-.585-.328-.884-.171l-.512.268c-.395.207-.502.712-.234,1.067s.537.726.803,1.11l-.538,1.134c-.579.034-1.16.069-1.743.103-1.281.075-2.483.141-3.633.2.138-.278.276-.555.42-.862.391-.832.771-1.697,1.14-2.594.303-.736.588-1.448.857-2.135.107-.274.368-.448.663-.448h6.241c.396,0,.717-.321.717-.717v-.521c0-.396-.321-.717-.717-.717h-4.602c-.396,0-.717-.321-.717-.717v-2.192c0-.396.321-.717.717-.717h3.56c.396,0,.717-.321.717-.717v-.521c0-.396-.321-.717-.717-.717h-3.56c-.396,0-.717-.321-.717-.717v-1.932c0-.396-.321-.717-.717-.717h-.672c-.396,0-.717.321-.717.717v1.932c0,.396-.321.717-.717.717h-3.343c-.396,0-.717.321-.717.717v.521c0,.396.321.717.717.717h3.343c.396,0,.717.321.717.717v2.192c0,.396-.321.717-.717.717h-4.451c-.396,0-.717.321-.717.717v.521c0,.396.321.717.717.717h3.411c-.118.398-.229.787-.372,1.216-.217.651-.452,1.306-.706,1.965-.253.659-.514,1.295-.781,1.91-.165.379-.328.727-.49,1.059-.338.016-.664.031-.977.046-.421.019-.732.395-.675.812l.087.641c.051.375.381.646.758.619.853-.061,1.785-.128,2.795-.202,1.281-.095,2.627-.192,4.038-.293,1.142-.082,2.274-.17,3.401-.262.285-.023.56.126.691.38.12.232.23.455.329.669.175.379.629.53.995.329l.669-.368Z"/><path class="g" d="m335.522,25.118c.203.13.39.257.56.381.325.236.774.164,1.006-.164l.758-1.074c-.305-.26-.695-.528-1.173-.803-.478-.274-.984-.535-1.52-.781-.354-.162-.697-.312-1.032-.449-.302-.124-.645-.02-.839.242l-.264.356c-.267.36-.147.88.26,1.07.244.114.493.236.747.366.535.275,1.034.561,1.498.858Z"/><path class="g" d="m336.568,34.12c-.355-.3-.89-.191-1.098.224-.278.553-.571,1.118-.881,1.694-.464.861-.919,1.671-1.368,2.431-.307.521-.598.996-.871,1.424-.203.319-.13.738.174.964l.598.445c.343.255.833.157,1.046-.213.276-.48.558-.985.844-1.513.427-.789.847-1.588,1.26-2.399.323-.635.626-1.252.909-1.852.139-.294.057-.639-.191-.849l-.422-.357Z"/><path class="g" d="m334.36,30.936c.211.12.405.237.583.349.332.211.764.119.98-.21l.728-1.105c-.318-.246-.724-.492-1.216-.738s-1.006-.485-1.541-.716c-.35-.151-.69-.287-1.022-.407-.307-.112-.648.011-.83.282l-.252.376c-.248.37-.107.883.305,1.053.249.103.501.214.756.335.536.253,1.039.514,1.509.781Z"/><path class="g" d="m285.651,225.28c0,1.202-.152,2.154-.456,2.855-.304.702-.716,1.201-1.237,1.498s-1.122.445-1.803.445c-.665,0-1.255-.148-1.769-.445-.515-.297-.919-.796-1.216-1.498-.297-.701-.445-1.653-.445-2.855v-8.574c0-.396-.321-.717-.717-.717h-1.084c-.396,0-.717.321-.717.717v8.423c0,1.303.145,2.409.434,3.321s.695,1.65,1.216,2.215,1.147.977,1.878,1.237,1.537.391,2.42.391,1.69-.13,2.422-.391c.73-.261,1.356-.673,1.877-1.237.521-.564.923-1.303,1.205-2.215s.424-2.019.424-3.321v-8.423c0-.396-.321-.717-.717-.717h-.999c-.396,0-.717.321-.717.717v8.574Z"/><path class="g" d="m300.054,224.261c-.492-.377-1.057-.695-1.693-.955l-2.193-.934c-.42-.174-.828-.358-1.227-.554s-.721-.441-.966-.738c-.247-.296-.369-.677-.369-1.14,0-.622.239-1.118.716-1.487.479-.369,1.129-.554,1.955-.554.709,0,1.349.127,1.92.381.382.169.748.381,1.101.636.306.222.739.138.975-.158l.409-.513c.25-.314.187-.763-.122-1.018-.475-.392-1.012-.718-1.612-.977-.84-.362-1.73-.543-2.67-.543-1.014,0-1.918.192-2.715.575-.796.384-1.418.908-1.867,1.574-.448.666-.672,1.418-.672,2.258,0,.781.162,1.443.488,1.986.325.543.738.991,1.237,1.346.499.355,1.009.641,1.53.857l2.215.955c.492.218.93.428,1.312.63.384.203.685.452.901.749.218.297.325.691.325,1.184,0,.666-.256,1.209-.77,1.628-.515.42-1.249.63-2.204.63-.782,0-1.545-.174-2.29-.521-.538-.251-1.032-.557-1.482-.92-.295-.238-.73-.183-.975.106l-.557.655c-.25.294-.234.748.062.997.615.519,1.302.941,2.062,1.267.977.42,2.016.63,3.115.63,1.173,0,2.178-.214,3.018-.64.84-.428,1.484-.992,1.933-1.693.448-.702.673-1.48.673-2.334,0-.797-.138-1.462-.412-1.998-.275-.535-.659-.99-1.15-1.367Z"/><path class="g" d="m316.356,225.563h1.715c.396,0,.717.321.717.717v3.018c-.275.246-.634.438-1.075.574-.441.139-.908.207-1.399.207-1.101,0-2.027-.246-2.779-.738-.753-.492-1.324-1.197-1.715-2.117-.391-.918-.586-2.008-.586-3.268s.206-2.336.618-3.234c.413-.896.991-1.592,1.737-2.084.745-.492,1.609-.738,2.594-.738.768,0,1.411.142,1.933.424.316.171.61.363.884.574.298.23.726.172.968-.117l.445-.531c.258-.308.216-.765-.094-1.02-.383-.316-.832-.614-1.345-.892-.774-.42-1.727-.63-2.854-.63-1.071,0-2.06.188-2.964.564s-1.693.923-2.366,1.64c-.673.716-1.201,1.588-1.585,2.615s-.575,2.193-.575,3.496c0,1.75.322,3.242.966,4.472s1.527,2.171,2.648,2.822c1.122.651,2.392.977,3.811.977,1.085,0,2.062-.181,2.931-.542.748-.312,1.373-.688,1.873-1.129.153-.135.232-.335.232-.539v-5.887c0-.396-.321-.717-.717-.717h-4.016c-.396,0-.717.321-.717.717v.651c0,.396.321.717.717.717Z"/><path class="g" d="m327.858,216.481l-4.822,14.567c-.154.464.192.942.68.942h1.057c.317,0,.596-.208.687-.512l1.045-3.513c.09-.304.37-.512.687-.512h4.481c.317,0,.596.208.687.512l1.045,3.513c.09.304.37.512.687.512h1.143c.488,0,.834-.478.68-.942l-4.822-14.567c-.097-.293-.371-.491-.68-.491h-1.874c-.309,0-.583.198-.68.491Zm2.794,8.973h-2.44c-.479,0-.823-.461-.687-.921l.365-1.228c.261-.869.518-1.744.771-2.627s.496-1.78.728-2.692h.087c.246.897.491,1.791.738,2.681.245.891.499,1.77.76,2.639l.365,1.228c.137.459-.208.921-.687.921Z"/><path class="g" d="m342.403,216.481l-4.822,14.567c-.154.464.192.942.68.942h1.057c.317,0,.596-.208.687-.512l1.045-3.513c.09-.304.37-.512.687-.512h4.481c.317,0,.596.208.687.512l1.045,3.513c.09.304.37.512.687.512h1.143c.488,0,.834-.478.68-.942l-4.822-14.567c-.097-.293-.371-.491-.68-.491h-1.874c-.309,0-.583.198-.68.491Zm2.794,8.973h-2.44c-.479,0-.823-.461-.687-.921l.365-1.228c.261-.869.518-1.744.771-2.627s.496-1.78.728-2.692h.087c.246.897.491,1.791.738,2.681.245.891.499,1.77.76,2.639l.365,1.228c.137.459-.208.921-.687.921Z"/><path class="g" d="m362.999,217.976c-.528-.701-1.248-1.208-2.16-1.52-.911-.311-1.968-.467-3.169-.467h-4.125c-.396,0-.717.321-.717.717v14.567c0,.396.321.717.717.717h1.085c.396,0,.717-.321.717-.717v-4.624c0-.396.321-.717.717-.717h1.694c1.172,0,2.21-.186,3.115-.554.904-.369,1.617-.927,2.139-1.672.521-.745.781-1.696.781-2.854,0-1.217-.265-2.175-.793-2.877Zm-2.638,5.178c-.622.492-1.562.738-2.822.738h-1.476c-.396,0-.717-.321-.717-.717v-4.428c0-.396.321-.717.717-.717h1.367c1.273,0,2.236.203,2.888.607.651.405.977,1.144.977,2.215,0,1.041-.312,1.809-.934,2.301Z"/><path class="g" d="m49.971,226.659c.225.348.401.638.532.868l1.193-1.605c-.102-.131-.281-.337-.542-.619s-.554-.582-.88-.901c-.325-.317-.626-.618-.9-.901-.252-.257-.434-.429-.564-.536v-1.015h1.845c.396,0,.717-.321.717-.717v-.5c0-.396-.321-.717-.717-.717h-1.128c-.396,0-.717-.321-.717-.717v-2.711c.117-.029.242-.049.357-.079.466-.121.911-.25,1.332-.386.494-.159.657-.773.313-1.161l-.358-.402c-.204-.23-.525-.298-.81-.183-.433.174-.925.343-1.475.505-.76.225-1.562.427-2.41.608-.846.181-1.675.336-2.485.467.116.217.231.477.347.781.116.304.196.572.24.803.854-.13,1.736-.278,2.648-.445.104-.019.2-.047.303-.067v2.27c0,.396-.321.717-.717.717h-1.931c-.396,0-.717.321-.717.717v.5c0,.396.321.717.717.717h2.368c-.099.278-.202.557-.316.847-.283.709-.602,1.408-.956,2.096s-.72,1.331-1.097,1.932c-.376.601-.76,1.118-1.15,1.553.159.246.34.553.543.922s.354.699.456.988c.419-.507.832-1.115,1.237-1.824s.785-1.469,1.14-2.279c.152-.347.28-.704.423-1.055v8.198c0,.396.321.717.717.717h.565c.396,0,.717-.321.717-.717v-8.318c.141.192.276.376.424.579.268.368.514.728.737,1.074Z"/><path class="g" d="m62.345,229.602c-.209-.109-.379-.214-.51-.315-.014.768-.036,1.343-.064,1.726-.029.385-.08.634-.152.75-.072.115-.174.174-.305.174h-1.129c-.188,0-.307-.037-.357-.109s-.076-.26-.076-.564v-4.971c0-.396.321-.717.717-.717h1.194c.396,0,.717-.321.717-.717v-5.862c0-.396-.321-.717-.717-.717h-1.511c.352-.469.719-1.024,1.099-1.672.244-.416.484-.833.717-1.25.218-.389.025-.88-.396-1.025l-.619-.213c-.35-.12-.744.042-.886.384-.087.209-.184.426-.292.65-.217.448-.445.894-.684,1.335s-.467.836-.684,1.184l1.602.607h-5.477l.817-.374c.351-.16.518-.567.369-.922s-.338-.742-.567-1.157c-.272-.492-.552-.957-.839-1.397-.19-.291-.565-.392-.884-.255l-.389.167c-.395.17-.558.65-.335,1.018.243.4.476.823.7,1.269.317.636.537,1.178.687,1.65h-1.218c-.396,0-.717.321-.717.717v5.862c0,.396.321.717.717.717h.472c.435,0,.768.385.711.816-.046.347-.098.689-.164,1.018-.145.73-.373,1.415-.684,2.052-.312.638-.742,1.212-1.292,1.726s-1.267.952-2.149,1.314c.217.188.448.438.695.748.245.312.426.598.542.857,1.013-.448,1.838-.987,2.476-1.617.637-.629,1.143-1.328,1.52-2.095.376-.767.658-1.596.846-2.485.117-.551.209-1.12.284-1.702.046-.359.347-.632.71-.632h.2c.396,0,.717.321.717.717v4.971c0,.637.054,1.14.163,1.509.108.369.314.634.618.792.304.16.738.239,1.303.239h1.693c.463,0,.839-.108,1.129-.325s.507-.594.651-1.129.246-1.295.304-2.279c-.173-.044-.376-.105-.608-.186-.23-.079-.451-.174-.662-.281Zm-7.522-9.52h4.797c.396,0,.717.321.717.717v2.256c0,.396-.321.717-.717.717h-4.797c-.396,0-.717-.321-.717-.717v-2.256c0-.396.321-.717.717-.717Z"/><path class="g" d="m68.813,217.118c.203.13.39.257.559.38.326.236.774.164,1.006-.165l.757-1.074c-.304-.26-.695-.527-1.172-.803-.479-.274-.984-.535-1.52-.781-.354-.162-.698-.312-1.033-.449-.302-.124-.645-.02-.839.242l-.264.356c-.268.36-.146.88.26,1.07.244.114.493.236.747.365.535.275,1.034.562,1.498.858Z"/><path class="g" d="m84.418,233.333c.332-.183.466-.589.306-.933-.202-.435-.451-.898-.747-1.389-.441-.73-.93-1.473-1.467-2.225-.414-.582-.833-1.13-1.256-1.644-.215-.261-.585-.328-.884-.172l-.512.268c-.395.207-.503.712-.234,1.067s.538.726.804,1.11l-.538,1.134c-.58.034-1.16.069-1.743.103-1.281.075-2.483.14-3.633.199.138-.278.276-.555.42-.862.391-.832.771-1.697,1.141-2.595.303-.736.588-1.448.857-2.135.107-.274.368-.448.663-.448h6.24c.396,0,.717-.321.717-.717v-.521c0-.396-.321-.717-.717-.717h-4.602c-.396,0-.717-.321-.717-.717v-2.193c0-.396.321-.717.717-.717h3.561c.396,0,.717-.321.717-.717v-.52c0-.396-.321-.717-.717-.717h-3.561c-.396,0-.717-.321-.717-.717v-1.932c0-.396-.321-.717-.717-.717h-.672c-.396,0-.717.321-.717.717v1.932c0,.396-.321.717-.717.717h-3.342c-.396,0-.717.321-.717.717v.52c0,.396.321.717.717.717h3.342c.396,0,.717.321.717.717v2.193c0,.396-.321.717-.717.717h-4.45c-.396,0-.717.321-.717.717v.521c0,.396.321.717.717.717h3.411c-.118.398-.229.786-.372,1.215-.218.652-.453,1.307-.706,1.965-.253.659-.515,1.296-.782,1.91-.165.38-.328.727-.49,1.06-.338.016-.663.032-.975.046-.421.019-.732.395-.675.812l.087.641c.051.375.381.646.758.619.853-.061,1.784-.129,2.794-.203,1.281-.094,2.627-.191,4.039-.293,1.141-.082,2.275-.17,3.403-.262.285-.023.557.125.688.379.12.233.231.456.33.671.175.379.629.53.994.329l.67-.369Z"/><path class="g" d="m67.651,222.936c.211.12.405.237.583.35.332.211.764.119.981-.21l.728-1.105c-.319-.246-.725-.492-1.217-.738s-1.006-.485-1.541-.717c-.35-.151-.69-.287-1.021-.407-.307-.112-.647.011-.829.282l-.252.375c-.249.37-.107.884.305,1.054.249.103.5.214.756.335.535.254,1.038.514,1.509.781Z"/><path class="g" d="m69.858,226.12c-.355-.3-.89-.191-1.098.225-.277.553-.571,1.118-.88,1.693-.464.861-.92,1.671-1.368,2.431-.307.521-.598.996-.871,1.425-.203.319-.13.738.174.964l.598.445c.342.255.833.158,1.046-.212.277-.48.558-.985.845-1.514.427-.788.847-1.588,1.259-2.398.323-.635.627-1.252.91-1.851.139-.294.057-.639-.191-.849l-.422-.357Z"/><circle class="b" cx="64" cy="64" r="6"/><circle class="b" cx="128" cy="31.989" r="6"/><circle class="b" cx="128" cy="224.093" r="6"/><circle class="b" cx="256" cy="31.989" r="6"/><circle class="b" cx="256" cy="224.093" r="6"/><circle class="b" cx="64" cy="192" r="6"/><circle class="b" cx="319.913" cy="64" r="6"/><circle class="b" cx="319.913" cy="192" r="6"/><path class="f" d="m144.598,139.872l-5.381,11.957h2.152l1.218-2.818h6.075l1.213,2.818h2.204l-5.415-11.957h-2.067Zm-1.294,7.482l2.327-5.385,2.318,5.385h-4.645Z"/><path class="f" d="m132.929,148.123l-6.713-8.251h-1.725v11.957h2.084v-8.271l6.713,8.271h1.725v-11.957h-2.084v8.251Z"/><path class="f" d="m118.915,139.872h-2.084v11.957h2.084v-11.957Z"/><path class="f" d="m103.649,151.829h2.084v-4.629h5.842v-1.794h-5.842v-3.741h6.577v-1.793h-8.661v11.957Z"/><path class="f" d="m164.722,148.123l-6.713-8.251h-1.725v11.957h2.084v-8.271l6.713,8.271h1.725v-11.957h-2.084v8.251Z"/><path class="f" d="m198.964,139.872l-5.381,11.957h2.152l1.218-2.818h6.075l1.213,2.818h2.204l-5.415-11.957h-2.067Zm-1.294,7.482l2.327-5.385,2.318,5.385h-4.645Z"/><path class="f" d="m212.733,150.035v-10.163h-2.084v11.957h8.404v-1.794h-6.32Z"/><path class="f" d="m189.371,139.872h-2.084v11.957h2.084v-11.957Z"/><path class="f" d="m175.133,142.767c.393-.381.856-.677,1.392-.888.535-.21,1.121-.316,1.759-.316.627,0,1.21.117,1.751.35.541.234,1.034.584,1.478,1.051l1.349-1.281c-.546-.65-1.224-1.142-2.033-1.478-.809-.336-1.691-.504-2.648-.504-.911,0-1.757.151-2.536.453-.78.302-1.458.729-2.033,1.281-.575.552-1.022,1.204-1.341,1.956-.319.751-.478,1.571-.478,2.46s.159,1.708.478,2.46c.319.751.766,1.404,1.341,1.956.575.552,1.25.979,2.024,1.281.774.301,1.617.453,2.528.453.968,0,1.856-.171,2.665-.513.809-.341,1.486-.831,2.033-1.469l-1.349-1.299c-.444.479-.937.835-1.478,1.068-.541.234-1.124.35-1.751.35-.638,0-1.224-.105-1.759-.316-.535-.21-.999-.506-1.392-.888-.393-.381-.695-.834-.905-1.358-.211-.524-.316-1.098-.316-1.725s.105-1.202.316-1.726c.21-.524.512-.976.905-1.358h0Z"/><path class="f" d="m171.654,110.2h-4.65c-.428,0-.775.347-.775.775v.855c-1.758-1.27-3.894-2.018-6.2-2.018-5.992,0-10.85,5.031-10.85,11.238s4.858,11.238,10.85,11.238c2.306,0,4.442-.747,6.2-2.018v.855c0,.428.347.775.775.775h4.65c.428,0,.775-.347.775-.775v-20.15c0-.428-.347-.775-.775-.775Zm-10.85,16.663c-2.996,0-5.425-2.602-5.425-5.813s2.429-5.813,5.425-5.813,5.425,2.602,5.425,5.813-2.429,5.813-5.425,5.813Z"/><path class="f" d="m250.815,131.9c.428,0,.775-.347.775-.775v-12.27c0-1.886,1.441-3.528,3.324-3.614.654-.03,1.269.121,1.801.407.328.175.733.087.964-.204l2.74-3.457c.302-.38.182-.936-.243-1.168-1.177-.643-2.517-1.007-3.937-1.007-1.716,0-3.313.532-4.65,1.444v-.282c0-.428-.347-.775-.775-.775h-4.65c-.428,0-.775.347-.775.775v20.15c0,.428.347.775.775.775h4.65Z"/><path class="f" d="m231.719,109.813c-6.634,0-12.013,5.031-12.013,11.238s5.378,11.238,12.013,11.238,12.013-5.031,12.013-11.238-5.378-11.238-12.013-11.238Zm0,17.05c-3.21,0-5.813-2.602-5.813-5.813s2.602-5.813,5.813-5.813,5.813,2.602,5.813,5.813-2.602,5.813-5.813,5.813Z"/><path class="f" d="m213.688,132.288c2.361,0,4.562-.638,6.419-1.738.402-.238.496-.781.205-1.147l-2.562-3.231c-.248-.313-.687-.377-1.027-.168-1.062.654-2.349.977-3.721.819-2.659-.306-4.802-2.461-5.091-5.122-.38-3.502,2.352-6.463,5.777-6.463,1.113,0,2.152.315,3.035.859.34.209.779.145,1.027-.168l2.562-3.231c.29-.366.197-.909-.205-1.147-1.857-1.1-4.058-1.738-6.419-1.738-6.634,0-12.013,5.031-12.013,11.237s5.378,11.238,12.013,11.238Z"/><path class="f" d="m185.735,109.816c-1.549.156-2.982.722-4.198,1.594v-.476c0-.428-.347-.775-.775-.775h-4.65c-.428,0-.775.347-.775.775v20.15c0,.428.347.775.775.775h4.65c.428,0,.775-.347.775-.775v-12.013c0-2.14,1.735-3.875,3.875-3.875h.387c.428,0,.775-.347.775-.775v-3.831c0-.453-.389-.82-.84-.774Z"/><path class="f" d="m146.929,126.086l-3.955-2.041c-.352-.182-.775-.059-.998.269-1.045,1.537-2.806,2.548-4.805,2.548-1.491,0-2.814-.88-3.665-2.244l13.901-3.041c.365-.08.619-.41.611-.784-.131-6.089-4.937-10.982-10.847-10.982-5.992,0-10.85,5.031-10.85,11.238s4.858,11.238,10.85,11.238c4.201,0,7.896-2.018,10.043-5.073.268-.382.129-.914-.285-1.128Zm-9.758-10.849c1.731,0,3.237,1.184,4.038,2.937l-8.615,1.885c.377-2.737,2.28-4.821,4.578-4.821Z"/><path class="f" d="m269.503,132.288c4.201,0,7.897-2.018,10.044-5.073.268-.382.129-.915-.285-1.129l-3.955-2.041c-.352-.182-.776-.059-.997.269-1.045,1.537-2.806,2.548-4.806,2.548-1.489,0-2.814-.88-3.664-2.244l13.902-3.041c.365-.08.618-.41.611-.784-.131-6.089-4.938-10.982-10.848-10.982-5.992,0-10.849,5.031-10.849,11.238s4.857,11.238,10.849,11.238Zm0-17.05c1.731,0,3.237,1.184,4.038,2.937l-8.614,1.885c.376-2.737,2.28-4.821,4.576-4.821Z"/><path class="f" d="m104.424,131.9h4.65c.428,0,.775-.347.775-.775v-11.096c0-2.347,1.836-4.36,4.183-4.403,2.391-.044,4.342,1.881,4.342,4.262v11.238c0,.428.347.775.775.775h4.65c.428,0,.775-.347.775-.775v-11.021c0-5.369-4.275-9.879-9.643-9.904-1.862-.008-3.602.509-5.082,1.411v-6.836c0-.495-.457-.863-.941-.757l-4.65,1.017c-.356.078-.609.393-.609.757v25.333c0,.428.347.775.775.775Z"/><path class="f" d="m202.683,130.273l-2.568-3.238c-.201-.254-.543-.376-.847-.264-.164.06-.34.093-.526.092-.867-.004-1.543-.767-1.543-1.634v-9.991h3.326c.428,0,.775-.347.775-.775v-3.875c0-.428-.347-.775-.775-.775h-3.326v-5.037c0-.495-.457-.863-.941-.757l-4.65,1.017c-.356.078-.609.393-.609.757v4.02h-1.55c-.428,0-.775.347-.775.775v3.875c0,.428.347.775.775.775h1.55v10.075c0,3.852,3.47,6.975,7.75,6.975,1.321,0,2.563-.301,3.651-.827.453-.219.596-.793.284-1.187Z"/><path class="f" d="m213.688,124.15c1.712,0,3.1-1.388,3.1-3.1s-1.388-3.1-3.1-3.1-3.1,1.388-3.1,3.1,1.388,3.1,3.1,3.1Z"/></svg>