<?xml version="1.0" encoding="UTF-8"?><svg id="a" xmlns="http://www.w3.org/2000/svg" width="60" height="64" viewBox="0 0 60 64"><defs><style>.b{fill:#4a2d86;stroke-width:0px;}</style></defs><path class="b" d="m30,14.781c4.138,0,7.494-3.309,7.494-7.39s-3.356-7.391-7.494-7.391-7.493,3.31-7.493,7.391,3.355,7.39,7.493,7.39Z"/><path class="b" d="m30,28.525c5.148,0,10.419-1.758,9.597-6.625-.335-1.976-1.992-4.747-3.251-5.988-.163-.16-.901-.201-1.101-.079-1.528.929-3.321,1.471-5.244,1.471s-3.716-.542-5.243-1.471c-.201-.123-.939-.081-1.102.079-1.258,1.241-2.917,4.011-3.251,5.988-.822,4.867,4.449,6.625,9.596,6.625Z"/><path class="b" d="m9.681,50.256c4.138,0,7.494-3.309,7.494-7.39s-3.356-7.391-7.494-7.391-7.493,3.309-7.493,7.391c0,4.081,3.355,7.39,7.493,7.39Z"/><path class="b" d="m16.026,51.389c-.163-.162-.901-.201-1.101-.08-1.528.929-3.321,1.47-5.244,1.47s-3.716-.541-5.243-1.47c-.201-.121-.94-.082-1.102.08-1.258,1.24-2.916,4.01-3.25,5.987-.823,4.867,4.449,6.624,9.596,6.624s10.419-1.757,9.596-6.624c-.335-1.976-1.993-4.747-3.251-5.987Z"/><path class="b" d="m50.319,50.256c4.138,0,7.493-3.309,7.493-7.39s-3.355-7.391-7.493-7.391-7.494,3.309-7.494,7.391c0,4.081,3.356,7.39,7.494,7.39Z"/><path class="b" d="m59.915,57.376c-.334-1.977-1.992-4.747-3.25-5.987-.163-.162-.902-.201-1.102-.08-1.528.929-3.32,1.47-5.243,1.47s-3.716-.541-5.244-1.47c-.201-.121-.939-.082-1.101.08-1.258,1.24-2.916,4.01-3.251,5.987-.823,4.867,4.449,6.624,9.596,6.624s10.418-1.757,9.596-6.624Z"/><path class="b" d="m40.17,46.372l-8.934-5.086v-10.173c0-.673-.553-1.219-1.236-1.219s-1.235.545-1.235,1.219v10.173l-8.934,5.087c-.591.337-.794,1.083-.453,1.665.341.583,1.098.782,1.689.446l8.933-5.088,8.934,5.087c.591.337,1.346.137,1.688-.446.341-.582.139-1.329-.452-1.665Z"/></svg>