<?xml version="1.0" encoding="UTF-8"?><svg id="a" xmlns="http://www.w3.org/2000/svg" width="64" height="62" viewBox="0 0 64 62"><defs><style>.b{fill:#4a2d86;stroke-width:0px;}</style></defs><path class="b" d="m14.756,12.484c2.686,0,4.864-2.245,4.864-5.016s-2.178-5.018-4.864-5.018-4.865,2.247-4.865,5.018,2.178,5.016,4.865,5.016Z"/><path class="b" d="m28.397,2.79h31.677v26.592h-31.677v-2.22c-.414-.007-.829-.044-1.236-.121l-.133-.025-1.337-.382v5.538h37.089V0H25.692v13.362l2.705.976V2.79Z"/><path class="b" d="m29.215,44.238c0,2.77,2.177,5.017,4.865,5.017s4.864-2.247,4.864-5.017-2.178-5.017-4.864-5.017-4.865,2.245-4.865,5.017Z"/><path class="b" d="m34.08,51.762c-4.562,0-8.615,1.569-9.625,6.786l.081,3.452h19.089l.08-3.452c-1.01-5.217-5.063-6.786-9.624-6.786Z"/><path class="b" d="m49.51,44.238c0,2.77,2.178,5.017,4.865,5.017s4.864-2.247,4.864-5.017-2.178-5.017-4.864-5.017-4.865,2.245-4.865,5.017Z"/><path class="b" d="m54.375,51.762c-4.562,0-8.615,1.569-9.625,6.786l.081,3.452h19.089l.081-3.452c-1.011-5.217-5.063-6.786-9.625-6.786Z"/><path class="b" d="m30.722,23.497l7.849-3.874c1.059-.462,1.555-1.721,1.107-2.814-.447-1.093-1.668-1.603-2.728-1.142l-7.058,2.487-6.386-2.303c-.931-.336-1.898-.554-2.877-.651l-4.305,6.844v-3.664h-2.624v3.69l-4.821-6.001c-2.592,1.106-4.556,3.198-5.256,6.81L.051,38.264c-.251,1.159.456,2.306,1.58,2.565,1.122.259,2.234-.471,2.485-1.628l3.759-10.251.973,30.506c0,1.406,1.104,2.545,2.467,2.545s2.468-1.139,2.468-2.545l.981-18.192.978,18.192c0,1.406,1.106,2.545,2.468,2.545s2.468-1.139,2.468-2.545l1.388-37.068,5.634,1.61c1.033.194,2.1.017,3.023-.5Z"/><rect class="b" x="13.701" y="15.297" width="2.624" height="1.897"/></svg>