<svg width="17" height="16" viewBox="0 0 17 16" fill="none" xmlns="http://www.w3.org/2000/svg">
<g clip-path="url(#clip0_1588_6972)">
<path d="M9.39618 0.930309L11.2216 4.58793C11.3676 4.80309 11.5867 5.01824 11.8057 5.01824L15.9676 5.59199C16.6248 5.6637 16.9168 6.52432 16.4057 6.95463L13.4121 9.82336C13.193 10.0385 13.12 10.2537 13.193 10.5405L13.9231 14.5568C14.0692 15.2022 13.339 15.7042 12.7549 15.4174L9.0311 13.481C8.81205 13.3375 8.51998 13.3375 8.30093 13.481L4.57712 15.4174C3.99299 15.7042 3.26285 15.2022 3.40888 14.5568L4.13904 10.5405C4.21206 10.2537 4.06599 10.0385 3.91996 9.82336L0.926313 6.95463C0.415199 6.52432 0.707246 5.6637 1.36439 5.59199L5.52628 5.01824C5.81835 4.94653 6.03743 4.80309 6.11045 4.58793L7.93585 0.930309C8.22792 0.356564 9.10411 0.356564 9.39618 0.930309Z" fill="#FF9900"/>
</g>
<defs>
<clipPath id="clip0_1588_6972">
<rect width="16" height="16" fill="white" transform="translate(0.666016)"/>
</clipPath>
</defs>
</svg>
