<svg width="16" height="16" viewBox="0 0 16 16" fill="none" xmlns="http://www.w3.org/2000/svg">
<g clip-path="url(#clip0_1588_6975)">
<path d="M9.8845 4.92284C9.8994 4.95269 9.91627 4.98152 9.93501 5.00913C10.0364 5.15854 10.1759 5.32808 10.3505 5.4684C10.5051 5.59262 10.7543 5.74728 11.0742 5.7663L15.1992 6.33496C15.2062 6.33593 15.2132 6.33679 15.2203 6.33756C15.2242 6.33799 15.2249 6.33857 15.224 6.33818C15.2235 6.33794 15.2242 6.33813 15.2263 6.33992C15.2315 6.34449 15.2406 6.35575 15.2462 6.37284C15.2481 6.37858 15.2491 6.38333 15.2495 6.38697C15.2397 6.39544 15.2301 6.40416 15.2208 6.41312L12.2271 9.28185L12.2271 9.28181L12.2205 9.28829C12.0529 9.45291 11.8955 9.66223 11.8113 9.9308C11.7284 10.1952 11.7359 10.4553 11.7931 10.6968L12.5192 14.6909C12.5207 14.6989 12.5223 14.7069 12.524 14.7148C12.5209 14.7181 12.5163 14.7225 12.5095 14.7274C12.492 14.74 12.4714 14.7475 12.4539 14.7495C12.441 14.7509 12.4317 14.7494 12.423 14.7458L8.73812 12.8296C8.28736 12.5547 7.71264 12.5547 7.26188 12.8296L3.577 14.7458C3.56834 14.7494 3.559 14.7509 3.54607 14.7495C3.52861 14.7475 3.50802 14.74 3.49052 14.7274C3.48372 14.7225 3.47908 14.7181 3.47603 14.7148C3.47774 14.7069 3.47932 14.6989 3.48077 14.6909L4.20714 10.6955C4.34787 10.0876 4.0289 9.62583 3.89588 9.43327C3.88807 9.42197 3.8809 9.41159 3.8745 9.40216C3.84494 9.3586 3.81087 9.31827 3.77286 9.28185L0.779209 6.41312C0.769854 6.40416 0.76027 6.39544 0.750465 6.38697C0.750948 6.38333 0.751914 6.37858 0.753799 6.37284C0.759411 6.35575 0.768489 6.34449 0.773731 6.33992C0.775779 6.33813 0.776537 6.33794 0.775989 6.33818C0.775132 6.33857 0.775803 6.33799 0.779745 6.33756C0.786776 6.33679 0.793795 6.33593 0.8008 6.33496L4.96269 5.76122C4.9884 5.75767 5.01391 5.7528 5.03912 5.74661C5.41673 5.65388 5.92352 5.42016 6.13341 4.88696L7.93887 1.26929C7.94056 1.26614 7.94197 1.26456 7.94724 1.2616C7.95626 1.25654 7.97469 1.25 8 1.25C8.02531 1.25 8.04374 1.25654 8.05276 1.2616C8.05801 1.26455 8.05943 1.26614 8.06111 1.26927L9.8845 4.92284Z" stroke="#FF9900" stroke-width="1.5" stroke-miterlimit="10" stroke-linecap="round" stroke-linejoin="round"/>
</g>
<defs>
<clipPath id="clip0_1588_6975">
<rect width="16" height="16" fill="white"/>
</clipPath>
</defs>
</svg>
