<svg width="160" height="160" viewBox="0 0 160 160" fill="none" xmlns="http://www.w3.org/2000/svg">
<g clip-path="url(#clip0_113_208)">
<path d="M79.1008 87.4497C77.0896 84.0906 78.4304 80.0596 81.4472 78.3801C84.7991 76.3646 88.8215 77.7082 90.4975 80.7315L99.883 96.8553C97.8718 93.4962 99.2126 89.4652 102.229 87.7856C105.581 85.7702 109.604 87.1138 111.28 90.137L114.296 95.1757C112.285 91.8166 113.626 87.7856 116.643 86.1061C119.995 84.0906 124.017 85.4342 125.693 88.4575L129.38 94.8398C127.369 91.4807 128.71 87.4497 131.727 85.7702C134.743 84.0906 139.101 85.0983 140.777 88.1215L149.157 102.566C154.52 96.1835 157.872 87.7856 157.872 78.716C157.872 58.2253 141.112 41.7655 121 41.7655H100.218C100.218 41.7655 100.218 41.7655 100.218 42.1015L94.5198 46.1324C94.1846 46.4683 93.8495 46.8042 93.8495 47.1402L94.1846 54.1943C94.1846 55.2021 92.8439 55.8739 92.1735 55.2021L86.4751 51.1711C86.1399 50.8352 85.4695 50.8352 85.1343 50.8352L78.4304 53.1866C77.4248 53.5225 76.4192 52.5148 76.7544 51.507L79.1008 44.7888C79.1008 44.4528 79.1008 43.781 78.7656 43.4451L77.76 42.4374H37.8716C17.7598 42.4374 1 58.8971 1 79.3878C1 92.1525 7.70393 103.574 17.7598 110.292L21.1118 109.62C21.447 109.62 21.7822 109.284 22.1174 108.948L24.4638 102.902C24.799 101.894 26.1397 101.894 26.8101 102.566L30.1621 107.94C30.4973 108.276 30.8325 108.612 31.1677 108.612L37.5364 108.948C38.542 108.948 39.2124 110.292 38.542 110.964L34.5197 115.666V116.002C35.8604 116.002 37.2012 116.338 38.8772 116.338H62.341L63.6818 114.659C63.6818 114.323 64.017 114.323 63.6818 113.987L62.6762 110.628C62.6762 109.956 63.0114 109.62 63.6818 109.956L66.6985 110.964C67.0337 110.964 67.0337 110.964 67.3689 110.964L70.0505 108.948C70.3857 108.612 71.0561 108.948 71.0561 109.62V112.979C71.0561 113.315 71.0561 113.315 71.3913 113.651L74.0728 115.666C74.408 115.666 74.408 116.002 74.408 116.338H97.2014L79.1008 87.4497ZM116.978 60.2408L122.006 58.8971C122.341 58.8971 122.676 58.5612 122.676 58.2253L124.352 53.1866C124.688 52.5148 125.693 52.1789 126.028 52.8507L129.045 57.2175C129.38 57.5535 129.38 57.5535 129.715 57.5535H134.743C135.414 57.5535 136.084 58.5612 135.414 59.233L132.397 63.264C132.062 63.5999 132.062 63.9358 132.397 64.2717L134.073 69.3104C134.408 69.9822 133.403 70.99 132.732 70.6541L127.704 68.9745C127.369 68.9745 127.034 68.9745 126.699 68.9745L122.341 71.9977C121.671 72.3336 120.665 71.9977 120.665 70.99L121 65.9513C121 65.6154 121 65.2795 120.665 64.9435L116.643 61.9203C116.308 61.2485 116.308 60.2408 116.978 60.2408ZM42.2292 74.0132L40.5532 77.0364C40.5532 77.3723 40.5532 77.3723 40.5532 77.7082L41.894 80.7315C42.2292 81.0674 41.5588 81.7392 41.2236 81.7392L37.8716 81.0674C37.5364 81.0674 37.5364 81.0674 37.2012 81.4033L34.8549 83.7547C34.5197 84.0906 33.8493 83.7547 33.8493 83.4188L33.5141 80.0596C33.5141 79.7237 33.5141 79.7237 33.1789 79.7237L30.1621 78.0442C29.8269 77.7082 29.8269 77.0364 30.1621 77.0364L33.1789 75.6928C33.5141 75.6928 33.5141 75.3568 33.5141 75.3568L34.1845 71.9977C34.1845 71.3259 34.8549 71.3259 35.19 71.6618L37.5364 74.0132C37.5364 74.0132 37.8716 74.3491 38.2068 74.3491L41.5588 74.0132C41.894 73.0055 42.2292 73.6773 42.2292 74.0132Z" fill="url(#paint0_linear_113_208)"/>
<path d="M114.632 95.5124L111.615 90.4737C109.604 87.1146 105.582 86.1069 102.565 88.1223C99.2128 90.1378 98.2072 94.1688 100.218 97.192L90.8329 81.0682C88.8217 77.709 84.7994 76.7013 81.7826 78.7168C78.4306 80.7322 77.425 84.7632 79.4362 87.7864L102.23 127.424L85.8049 125.409C82.7882 125.073 79.7714 127.088 78.7658 130.447C77.7602 134.142 79.7714 137.837 83.4586 138.845L86.8105 139.853C112.956 146.907 122.677 159 122.677 159L158.878 138.173C158.878 138.173 160.554 121.714 151.503 106.262L141.783 89.466C139.772 86.1069 135.749 85.0991 132.732 87.1146C129.38 89.1301 128.375 93.161 130.386 96.1843L126.699 89.8019C124.688 86.4428 120.665 85.435 117.649 87.4505C113.961 88.1223 112.621 92.1533 114.632 95.5124ZM114.632 95.5124L122.006 108.613ZM130.051 95.1765L136.755 106.933ZM107.593 109.957L99.8832 97.192Z" fill="url(#paint1_linear_113_208)"/>
<path d="M61.3355 116.34H37.8717C36.5309 116.34 34.8549 116.34 33.5142 116.004" stroke="#262626" stroke-width="2" stroke-miterlimit="10" stroke-linecap="round" stroke-linejoin="round"/>
<path d="M95.5256 116.339H73.0674" stroke="#262626" stroke-width="2" stroke-miterlimit="10"/>
<path d="M100.889 42.438H121.671C142.118 42.438 158.542 58.8978 158.542 79.3885C158.542 88.4581 155.191 96.8559 149.827 103.238" stroke="#262626" stroke-width="2" stroke-miterlimit="10" stroke-linecap="round" stroke-linejoin="round"/>
<path d="M17.7598 110.292C7.70393 103.574 1 92.1532 1 79.3885C1 58.8978 17.4246 42.438 37.8716 42.438H77.76" stroke="#262626" stroke-width="2" stroke-miterlimit="10" stroke-linecap="round" stroke-linejoin="round"/>
<path d="M53.2908 2.46481L53.9612 10.1908C53.9612 10.5267 54.2964 11.1985 54.6316 11.1985L61.3355 15.2295C62.3411 15.9013 62.3411 17.5809 61.0003 17.9168L53.9612 20.94C53.2908 20.94 52.9556 21.2759 52.9556 21.6119L51.2796 29.0019C50.9444 30.3456 49.6036 30.6815 48.5981 29.6738L43.5701 23.9632C43.2349 23.6273 42.8997 23.2914 42.2293 23.2914L34.5198 23.9632C33.179 23.9632 32.5086 22.6196 33.179 21.6119L37.2014 15.2295C37.5366 14.8936 37.5366 14.2218 37.2014 13.8859L34.1846 6.83168C33.8494 5.82394 34.855 4.48029 35.8606 4.8162L43.2349 6.49577C43.5701 6.49577 44.2405 6.49577 44.5757 6.15985L50.274 1.12116C51.6148 0.785244 53.2908 1.12116 53.2908 2.46481Z" fill="url(#paint2_linear_113_208)"/>
<path d="M113.961 22.2834L117.983 21.2757C118.319 21.2757 118.319 20.9398 118.654 20.6039L119.995 16.9088C120.33 16.237 121 16.237 121.335 16.5729L123.682 19.9321C123.682 20.268 124.017 20.268 124.352 20.268H128.375C129.045 20.268 129.38 20.9398 129.045 21.6116L126.363 24.9707C126.363 25.3067 126.028 25.3067 126.363 25.6426L127.704 29.6735C128.039 30.3454 127.369 31.0172 126.699 30.6813L122.676 29.3376C122.341 29.3376 122.006 29.3376 122.006 29.3376L118.654 31.689C117.983 32.0249 117.313 31.689 117.313 31.0172V26.9862C117.313 26.6503 117.313 26.3144 116.978 26.3144L113.626 23.963C113.291 23.2912 113.291 22.6194 113.961 22.2834Z" fill="url(#paint3_linear_113_208)"/>
<path d="M47.257 154.297L46.5866 149.258C46.5866 148.922 46.2514 148.586 45.9162 148.586L41.2235 146.235C40.5531 145.899 40.5531 144.891 41.2235 144.556L45.9162 142.204C46.2514 142.204 46.5866 141.868 46.5866 141.532L47.5922 136.494C47.5922 135.822 48.5978 135.486 49.2682 135.822L52.9554 139.517C53.2906 139.853 53.6258 139.853 53.961 139.853L58.9889 139.181C59.6593 139.181 60.3297 139.853 59.9945 140.525L57.3129 145.227C57.3129 145.563 57.3129 145.899 57.3129 146.235L59.6593 150.938C59.9945 151.61 59.3241 152.617 58.6537 152.282L53.6258 151.274C53.2906 151.274 52.9554 151.274 52.6202 151.61L48.933 155.305C48.5978 155.641 47.5922 155.305 47.257 154.297Z" fill="url(#paint4_linear_113_208)"/>
<path d="M114.632 95.5124L111.615 90.4737C109.604 87.1146 105.582 86.1069 102.565 88.1223C99.2128 90.1378 98.2072 94.1688 100.218 97.192L90.8329 81.0682C88.8217 77.709 84.7994 76.7013 81.7826 78.7168C78.4306 80.7322 77.425 84.7632 79.4362 87.7864L102.23 127.424L85.8049 125.409C82.7882 125.073 79.7714 127.088 78.7658 130.447C77.7602 134.142 79.7714 137.837 83.4586 138.845L86.8105 139.853C112.956 146.907 122.677 159 122.677 159L158.878 138.173C158.878 138.173 160.554 121.714 151.503 106.262L141.783 89.466C139.772 86.1069 135.749 85.0991 132.732 87.1146C129.38 89.1301 128.375 93.161 130.386 96.1843L126.699 89.8019C124.688 86.4428 120.665 85.435 117.649 87.4505C113.961 88.1223 112.621 92.1533 114.632 95.5124ZM114.632 95.5124L122.006 108.613M130.051 95.1765L136.755 106.933M107.593 109.957L99.8832 97.192" stroke="#262626" stroke-width="2" stroke-miterlimit="10" stroke-linecap="round" stroke-linejoin="round"/>
<path d="M90.4977 30.6798L92.5089 37.398C92.5089 37.7339 92.8441 38.0698 93.5145 38.4058L100.218 40.4212C101.224 40.7571 101.559 42.1008 100.554 42.7726L94.8553 46.8036C94.5201 47.1395 94.1849 47.4754 94.1849 47.8113L94.5201 54.8655C94.5201 55.8732 93.1793 56.5451 92.5089 55.8732L86.8106 51.8423C86.4754 51.5064 85.805 51.5064 85.4698 51.5064L78.7658 53.8578C77.7603 54.1937 76.7547 53.1859 77.0899 52.1782L79.4362 45.4599C79.4362 45.124 79.4362 44.4522 79.101 44.1163L74.7435 38.4058C74.0731 37.398 74.7435 36.0544 75.7491 36.0544H82.7882C83.1234 36.0544 83.7938 35.7185 83.7938 35.3825L87.8162 29.672C88.8217 29.3361 90.1625 29.672 90.4977 30.6798Z" fill="url(#paint5_linear_113_208)"/>
<path d="M116.978 60.2422L122.006 58.8985C122.341 58.8985 122.677 58.5626 122.677 58.2267L124.353 53.188C124.688 52.5162 125.693 52.1803 126.029 52.8521L129.045 57.219C129.38 57.5549 129.381 57.5549 129.716 57.5549H134.744C135.414 57.5549 136.084 58.5626 135.414 59.2344L132.397 63.2654C132.062 63.6013 132.062 63.9372 132.397 64.2731L134.073 69.3118C134.408 69.9837 133.403 70.9914 132.732 70.6555L127.705 68.9759C127.369 68.9759 127.034 68.9759 126.699 68.9759L122.341 71.9991C121.671 72.335 120.665 71.9991 120.665 70.9914L121.001 65.9527C121.001 65.6168 121.001 65.2809 120.665 64.945L116.643 61.9217C116.308 61.2499 116.308 60.2422 116.978 60.2422Z" fill="url(#paint6_linear_113_208)"/>
<path d="M14.7431 110.965L20.7767 109.621C21.1119 109.621 21.4471 109.285 21.7823 108.949L24.1287 102.903C24.4639 101.895 25.8046 101.895 26.475 102.567L29.827 107.942C30.1622 108.277 30.4974 108.613 30.8326 108.613L37.2013 108.949C38.2069 108.949 38.8773 110.293 38.2069 110.965L34.1846 115.668C33.8494 116.003 33.8494 116.339 33.8494 116.675L35.5253 122.722C35.8605 123.729 34.8549 124.737 33.8494 124.065L27.8158 121.714C27.4806 121.714 27.1454 121.714 26.8102 121.714L21.4471 125.073C20.4415 125.745 19.4359 125.073 19.4359 124.065L19.7711 117.683C19.7711 117.347 19.7711 117.011 19.4359 116.675L14.408 112.98C13.4024 112.308 13.7376 111.301 14.7431 110.965Z" fill="url(#paint7_linear_113_208)"/>
<path d="M60.3298 117.347L62.3409 114.659C62.3409 114.323 62.6761 114.323 62.3409 113.987L61.3353 110.628C61.3353 109.956 61.6705 109.621 62.3409 109.956L65.3577 110.964C65.6929 110.964 65.6929 110.964 66.0281 110.964L68.7097 108.949C69.0449 108.613 69.7153 108.949 69.7153 109.621V112.98C69.7153 113.316 69.7153 113.316 70.0505 113.652L72.732 115.667C73.0672 116.003 73.0672 116.675 72.3968 116.675L69.0449 117.682C68.7097 117.682 68.7097 118.018 68.7097 118.018L67.7041 121.378C67.3689 122.049 66.6985 122.049 66.6985 121.378L64.6873 118.69C64.6873 118.354 64.3521 118.354 64.0169 118.354H60.665C60.3298 118.354 59.9946 118.018 60.3298 117.347Z" fill="url(#paint8_linear_113_208)"/>
<path d="M33.8492 83.083L33.514 79.7239C33.514 79.388 33.514 79.388 33.1788 79.388L30.162 77.7084C29.8268 77.3725 29.8268 76.7007 30.162 76.7007L33.1788 75.357C33.514 75.357 33.514 75.0211 33.514 75.0211L34.1844 71.662C34.1844 70.9902 34.8548 70.9902 35.19 71.3261L37.5364 73.6775C37.5364 73.6775 37.8716 74.0134 38.2068 74.0134L41.5587 73.6775C42.2291 73.6775 42.5643 74.0134 42.2291 74.6852L40.5531 77.7084C40.5531 78.0444 40.5531 78.0444 40.5531 78.3803L41.8939 81.4035C42.2291 81.7394 41.5587 82.4112 41.2235 82.4112L37.8716 81.7394C37.5364 81.7394 37.5364 81.7394 37.2012 82.0753L34.8548 84.4267C34.5196 83.7549 33.8492 83.7549 33.8492 83.083Z" fill="url(#paint9_linear_113_208)"/>
<path d="M80.7767 79.0519C80.7767 72.3336 75.4136 66.959 68.3744 66.959C61.0001 66.959 55.9722 72.6695 55.9722 79.3878C55.9722 86.1061 61.0001 91.8166 68.3744 91.8166C73.0672 91.8166 76.7544 89.8011 78.7655 86.442C77.7599 83.7547 78.4303 80.7315 80.7767 79.0519ZM76.4192 79.3878C76.4192 84.0906 73.0672 87.7856 68.3744 87.7856C63.6817 87.7856 60.3297 84.0906 60.3297 79.3878C60.3297 74.685 63.6817 70.99 68.3744 70.99C72.732 70.99 76.4192 74.685 76.4192 79.3878Z" fill="#262626"/>
<path d="M90.8327 80.7315C90.8327 80.7315 91.1679 81.0674 91.5031 81.7392L92.5087 80.7315L100.218 90.4729C100.889 89.4652 101.559 88.4575 102.565 87.7856C102.9 87.7856 102.9 87.7856 103.235 87.4497L95.5255 77.7082L102.9 70.6541C103.235 70.3182 103.57 69.6463 103.57 68.9745C103.57 67.9668 102.9 66.959 101.559 66.959C100.889 66.959 100.218 67.2949 99.883 67.6309L89.1567 78.3801C89.4919 79.3878 90.1623 80.0596 90.8327 80.7315Z" fill="#262626"/>
<path d="M88.4862 78.3788V69.3091C88.4862 68.3014 87.4806 67.2936 86.475 67.2936C85.1343 67.2936 84.4639 68.3014 84.4639 69.3091V77.7069C85.8047 77.371 87.1454 77.7069 88.4862 78.3788Z" fill="#262626"/>
<path d="M53.2908 2.46481L53.9612 10.1908C53.9612 10.5267 54.2964 11.1985 54.6316 11.1985L61.3355 15.2295C62.3411 15.9013 62.3411 17.5809 61.0003 17.9168L53.9612 20.94C53.2908 20.94 52.9556 21.2759 52.9556 21.6119L51.2796 29.0019C50.9444 30.3456 49.6036 30.6815 48.5981 29.6738L43.5701 23.9632C43.2349 23.6273 42.8997 23.2914 42.2293 23.2914L34.5198 23.9632C33.179 23.9632 32.5086 22.6196 33.179 21.6119L37.2014 15.2295C37.5366 14.8936 37.5366 14.2218 37.2014 13.8859L34.1846 6.83168C33.8494 5.82394 34.855 4.48029 35.8606 4.8162L43.2349 6.49577C43.5701 6.49577 44.2405 6.49577 44.5757 6.15985L50.274 1.12116C51.6148 0.785244 53.2908 1.12116 53.2908 2.46481Z" stroke="#262626" stroke-width="2" stroke-miterlimit="10"/>
<path d="M113.961 22.2837L117.983 21.2759C118.319 21.2759 118.319 20.94 118.654 20.6041L119.995 16.9091C120.33 16.2372 121 16.2372 121.335 16.5732L123.682 19.9323C123.682 20.2682 124.017 20.2682 124.352 20.2682H128.375C129.045 20.2682 129.38 20.94 129.045 21.6119L126.363 24.971C126.363 25.3069 126.028 25.3069 126.363 25.6428L127.704 29.6738C128.039 30.3456 127.369 31.0174 126.699 30.6815L122.676 29.3379C122.341 29.3379 122.006 29.3379 122.006 29.3379L118.654 31.6892C117.983 32.0252 117.313 31.6892 117.313 31.0174V26.9865C117.313 26.6505 117.313 26.3146 116.978 26.3146L113.626 23.9632C113.291 23.2914 113.291 22.6196 113.961 22.2837Z" stroke="#262626" stroke-width="2" stroke-miterlimit="10"/>
<path d="M47.257 154.298L46.5866 149.259C46.5866 148.923 46.2514 148.587 45.9162 148.587L41.2235 146.236C40.5531 145.9 40.5531 144.892 41.2235 144.556L45.9162 142.205C46.2514 142.205 46.5866 141.869 46.5866 141.533L47.5922 136.494C47.5922 135.822 48.5978 135.486 49.2682 135.822L52.9554 139.517C53.2906 139.853 53.6258 139.853 53.961 139.853L58.9889 139.181C59.6593 139.181 60.3297 139.853 59.9945 140.525L57.3129 145.228C57.3129 145.564 57.3129 145.9 57.3129 146.236L59.6593 150.938C59.9945 151.61 59.3241 152.618 58.6537 152.282L53.6258 151.274C53.2906 151.274 52.9554 151.274 52.6202 151.61L48.933 155.305C48.5978 155.641 47.5922 155.305 47.257 154.298Z" stroke="#262626" stroke-width="2" stroke-miterlimit="10"/>
<path d="M90.4977 30.683L92.5089 37.4013C92.5089 37.7372 92.8441 38.0731 93.5145 38.409L100.218 40.4245C101.224 40.7604 101.559 42.1041 100.554 42.7759L94.8553 46.8069C94.5201 47.1428 94.1849 47.4787 94.1849 47.8146L94.5201 54.8688C94.5201 55.8765 93.1793 56.5483 92.5089 55.8765L86.8106 51.8456C86.4754 51.5096 85.805 51.5096 85.4698 51.5096L78.7658 53.861C77.7603 54.1969 76.7547 53.1892 77.0899 52.1815L79.4362 45.4632C79.4362 45.1273 79.4362 44.4555 79.101 44.1196L74.7435 38.409C74.0731 37.4013 74.7435 36.0576 75.7491 36.0576H82.7882C83.1234 36.0576 83.7938 35.7217 83.7938 35.3858L87.8162 29.6753C88.8217 29.3394 90.1625 29.6753 90.4977 30.683Z" stroke="#262626" stroke-width="2" stroke-miterlimit="10"/>
<path d="M116.978 60.2419L122.006 58.8982C122.341 58.8982 122.677 58.5623 122.677 58.2264L124.353 53.1877C124.688 52.5159 125.693 52.1799 126.029 52.8518L129.045 57.2186C129.38 57.5546 129.381 57.5546 129.716 57.5546H134.744C135.414 57.5546 136.084 58.5623 135.414 59.2341L132.397 63.2651C132.062 63.601 132.062 63.9369 132.397 64.2728L134.073 69.3115C134.408 69.9833 133.403 70.9911 132.732 70.6552L127.705 68.9756C127.369 68.9756 127.034 68.9756 126.699 68.9756L122.341 71.9988C121.671 72.3347 120.665 71.9988 120.665 70.9911L121.001 65.9524C121.001 65.6165 121.001 65.2806 120.665 64.9446L116.643 61.9214C116.308 61.2496 116.308 60.2419 116.978 60.2419Z" stroke="#262626" stroke-width="2" stroke-miterlimit="10"/>
<path d="M14.7431 110.965L20.7767 109.621C21.1119 109.621 21.4471 109.285 21.7823 108.949L24.1287 102.903C24.4639 101.895 25.8046 101.895 26.475 102.567L29.827 107.942C30.1622 108.277 30.4974 108.613 30.8326 108.613L37.2013 108.949C38.2069 108.949 38.8773 110.293 38.2069 110.965L34.1846 115.668C33.8494 116.003 33.8494 116.339 33.8494 116.675L35.5253 122.722C35.8605 123.729 34.8549 124.737 33.8494 124.065L27.8158 121.714C27.4806 121.714 27.1454 121.714 26.8102 121.714L21.4471 125.073C20.4415 125.745 19.4359 125.073 19.4359 124.065L19.7711 117.683C19.7711 117.347 19.7711 117.011 19.4359 116.675L14.408 112.98C13.4024 112.308 13.7376 111.301 14.7431 110.965Z" stroke="#262626" stroke-width="2" stroke-miterlimit="10"/>
<path d="M60.3298 117.347L62.3409 114.66C62.3409 114.324 62.6761 114.324 62.3409 113.988L61.3353 110.629C61.3353 109.957 61.6705 109.621 62.3409 109.957L65.3577 110.965C65.6929 110.965 65.6929 110.965 66.0281 110.965L68.7097 108.949C69.0449 108.613 69.7153 108.949 69.7153 109.621V112.98C69.7153 113.316 69.7153 113.316 70.0505 113.652L72.732 115.668C73.0672 116.003 73.0672 116.675 72.3968 116.675L69.0449 117.683C68.7097 117.683 68.7097 118.019 68.7097 118.019L67.7041 121.378C67.3689 122.05 66.6985 122.05 66.6985 121.378L64.6873 118.691C64.6873 118.355 64.3521 118.355 64.0169 118.355H60.665C60.3298 118.355 59.9946 118.019 60.3298 117.347Z" stroke="#262626" stroke-width="2" stroke-miterlimit="10"/>
<path d="M33.8492 83.083L33.514 79.7239C33.514 79.388 33.514 79.388 33.1788 79.388L30.162 77.7084C29.8268 77.3725 29.8268 76.7007 30.162 76.7007L33.1788 75.357C33.514 75.357 33.514 75.0211 33.514 75.0211L34.1844 71.662C34.1844 70.9902 34.8548 70.9902 35.19 71.3261L37.5364 73.6775C37.5364 73.6775 37.8716 74.0134 38.2068 74.0134L41.5587 73.6775C42.2291 73.6775 42.5643 74.0134 42.2291 74.6852L40.5531 77.7084C40.5531 78.0444 40.5531 78.0444 40.5531 78.3803L41.8939 81.4035C42.2291 81.7394 41.5587 82.4112 41.2235 82.4112L37.8716 81.7394C37.5364 81.7394 37.5364 81.7394 37.2012 82.0753L34.8548 84.4267C34.5196 83.7549 33.8492 83.7549 33.8492 83.083Z" stroke="#262626" stroke-width="2" stroke-miterlimit="10"/>
</g>
<defs>
<linearGradient id="paint0_linear_113_208" x1="79.7712" y1="42.4374" x2="79.7712" y2="116.338" gradientUnits="userSpaceOnUse">
<stop stop-color="white" stop-opacity="0"/>
<stop offset="1" stop-opacity="0.15"/>
</linearGradient>
<linearGradient id="paint1_linear_113_208" x1="88.6169" y1="74.3297" x2="133.494" y2="151.894" gradientUnits="userSpaceOnUse">
<stop stop-color="white" stop-opacity="0.5"/>
<stop offset="1" stop-color="white" stop-opacity="0"/>
</linearGradient>
<linearGradient id="paint2_linear_113_208" x1="35.5509" y1="4.80008" x2="55.7711" y2="24.9772" gradientUnits="userSpaceOnUse">
<stop stop-color="white" stop-opacity="0.5"/>
<stop offset="1" stop-color="white" stop-opacity="0"/>
</linearGradient>
<linearGradient id="paint3_linear_113_208" x1="116.734" y1="19.5827" x2="127.649" y2="30.4752" gradientUnits="userSpaceOnUse">
<stop stop-color="white" stop-opacity="0.5"/>
<stop offset="1" stop-color="white" stop-opacity="0"/>
</linearGradient>
<linearGradient id="paint4_linear_113_208" x1="45.1255" y1="138.392" x2="59.1126" y2="152.349" gradientUnits="userSpaceOnUse">
<stop stop-color="white" stop-opacity="0.5"/>
<stop offset="1" stop-color="white" stop-opacity="0"/>
</linearGradient>
<linearGradient id="paint5_linear_113_208" x1="77.0295" y1="34.9915" x2="96.1171" y2="54.0387" gradientUnits="userSpaceOnUse">
<stop stop-color="white" stop-opacity="0.5"/>
<stop offset="1" stop-color="white" stop-opacity="0"/>
</linearGradient>
<linearGradient id="paint6_linear_113_208" x1="120.444" y1="56.6076" x2="133.98" y2="70.1143" gradientUnits="userSpaceOnUse">
<stop stop-color="white" stop-opacity="0.5"/>
<stop offset="1" stop-color="white" stop-opacity="0"/>
</linearGradient>
<linearGradient id="paint7_linear_113_208" x1="18.3934" y1="107.055" x2="35.229" y2="123.854" gradientUnits="userSpaceOnUse">
<stop stop-color="white" stop-opacity="0.5"/>
<stop offset="1" stop-color="white" stop-opacity="0"/>
</linearGradient>
<linearGradient id="paint8_linear_113_208" x1="61.6327" y1="110.398" x2="70.4211" y2="119.168" gradientUnits="userSpaceOnUse">
<stop stop-color="white" stop-opacity="0.5"/>
<stop offset="1" stop-color="white" stop-opacity="0"/>
</linearGradient>
<linearGradient id="paint9_linear_113_208" x1="32.4441" y1="72.8491" x2="41.4479" y2="81.8334" gradientUnits="userSpaceOnUse">
<stop stop-color="white" stop-opacity="0.5"/>
<stop offset="1" stop-color="white" stop-opacity="0"/>
</linearGradient>
<clipPath id="clip0_113_208">
<rect width="160" height="160" fill="white"/>
</clipPath>
</defs>
</svg>
