<?xml version="1.0" encoding="utf-8"?>
<!-- Generator: Adobe Illustrator 27.9.0, SVG Export Plug-In . SVG Version: 6.00 Build 0)  -->
<svg version="1.1" id="Layer_1" xmlns="http://www.w3.org/2000/svg" xmlns:xlink="http://www.w3.org/1999/xlink" x="0px" y="0px"
	 width="160px" height="160px" viewBox="0 0 160 160" enable-background="new 0 0 160 160" xml:space="preserve">
<g>
	<g>
		<path fill="#C64541" d="M65.582,99.569c-2.247,20.814,0.79,36.854,0.826,37.012c0.03,0.164,0.036,0.34,0.036,0.504h0.735
			c5.035-18.202,4.847-35.73,0.717-51.552C66.796,90.513,66.055,95.244,65.582,99.569"/>
		<path fill="#C64541" d="M48.898,48.661c-9.189-11.029-20.723-19.879-33.653-25.746L0,44.713
			c19.065,7.464,30.975,18.573,37.947,31.637C40.407,66.644,44.106,57.316,48.898,48.661z"/>
		<path fill="#C64541" d="M96.362,66.499c3.134-6.383,6.942-12.378,11.327-17.874c-3.237-5.66-6.887-10.914-10.841-15.67
			c-6.274,5.831-11.345,12.177-15.427,18.737c4.847,8.053,8.315,16.423,10.756,24.634C93.386,73.003,94.771,69.724,96.362,66.499z"
			/>
		<path fill="#C64541" d="M118.026,136.04c5.108-17.698,5.624-34.862,2.891-50.641C115.858,99.131,114.91,115.718,118.026,136.04z"
			/>
		<path fill="#E48B43" d="M95.141,30.902H64.567C42.885,55.682,29.371,94.941,41.95,137.091h21.84
			C63.784,137.091,51.072,71.667,95.141,30.902z"/>
		<path fill="#E48B43" d="M160,44.713l-15.244-21.804c-39.387,17.917-65.976,63.407-51.928,114.182h22.654
			C109.76,100.698,114.728,62.448,160,44.713"/>
	</g>
</g>
</svg>
