<svg width="320" height="320" viewBox="0 0 320 320" fill="none" xmlns="http://www.w3.org/2000/svg">
<g clip-path="url(#clip0_936_469)">
<path d="M0 0V320H320V0H0Z" fill="#C91E6C"/>
<path fill-rule="evenodd" clip-rule="evenodd" d="M20.9824 22.9819C20.9824 21.8774 21.8779 20.9819 22.9824 20.9819H297.018C298.123 20.9819 299.018 21.8774 299.018 22.9819V297.018C299.018 298.123 298.123 299.018 297.018 299.018H22.9824C21.8779 299.018 20.9824 298.123 20.9824 297.018V22.9819ZM24.9824 24.9819V295.018H295.018V24.9819H24.9824Z" fill="white"/>
<path d="M131.776 193.376C131.586 192.802 131.832 191.81 132.266 191.352C134.02 189.488 135.97 187.812 137.752 185.972C142.46 181.114 147.114 176.202 151.804 171.326C152.37 170.738 153.036 170.246 153.63 169.684C154.848 168.532 154.644 167.242 153.126 166.6C151.722 166.006 150.296 165.458 148.874 164.906C147.542 164.39 146.422 164.732 145.464 165.76C144.012 167.316 142.562 168.878 141.076 170.402C134.796 176.848 128.5 183.28 122.214 189.722C121.338 190.62 120.486 191.546 119.626 192.46C118.178 194 115.466 194.782 113.778 194.146C112.128 193.524 111.934 192.24 113.198 191.01C118.356 185.994 123.488 180.948 128.62 175.904C132.55 172.042 136.446 168.146 140.4 164.308C141.998 162.756 141.938 161.032 140.066 159.814C139.016 159.13 137.928 158.496 136.836 157.88C135.674 157.226 134.818 157.452 133.856 158.512C130.296 162.43 126.626 166.248 122.96 170.068C120.806 172.314 118.602 174.51 116.39 176.698C110.916 182.112 105.446 187.532 99.912 192.884C99.252 193.522 98.242 193.944 97.326 194.142C95.25 194.59 93.638 193.202 93.642 191.074C93.678 168.4 93.746 145.726 93.764 123.052C93.778 105.188 93.736 87.3218 93.71 69.4578C93.708 68.0938 93.536 66.7238 93.614 65.3658C93.732 63.2858 94.822 62.3558 96.906 62.3678C107.94 62.4358 118.976 62.5318 130.01 62.5718C139.9 62.6058 149.79 62.5798 159.682 62.5798C159.682 62.5758 159.682 62.5718 159.682 62.5678C173.834 62.5678 187.988 62.5838 202.14 62.5598C208.586 62.5498 215.032 62.4818 221.478 62.3998C224.824 62.3578 226.244 63.5618 226.234 66.9178C226.186 84.6218 226.028 102.326 226.018 120.03C226.012 129.144 226.284 138.258 226.342 147.374C226.414 158.796 226.404 170.218 226.41 181.64C226.412 184.316 226.382 186.994 226.284 189.668C226.158 193.122 225.192 193.996 221.802 193.988C201.584 193.934 181.366 193.882 161.148 193.846C158.416 193.842 155.682 194 152.954 193.92C152.198 193.898 151.022 193.442 150.832 192.906C150.628 192.324 151.158 191.224 151.698 190.678C156.992 185.328 162.35 180.044 167.7 174.75C168.786 173.674 170.046 172.742 170.972 171.548C171.496 170.872 171.502 169.798 171.74 168.902C170.89 168.766 170.036 168.498 169.19 168.52C167.624 168.562 166.066 168.866 164.5 168.892C162.712 168.922 161.058 169.042 159.692 170.456C156.092 174.18 152.398 177.814 148.786 181.528C145.324 185.09 141.892 188.684 138.502 192.316C137.11 193.808 135.39 194.318 133.48 194.246C132.874 194.226 131.922 193.82 131.776 193.376Z" fill="white"/>
<path d="M216.96 130.746C215.812 131.252 214.442 131.512 213.558 132.312C210.36 135.2 207.278 138.22 204.24 141.278C198.426 147.13 192.74 153.16 185.682 157.544C178.612 161.936 170.798 163.572 162.488 162.812C157.742 162.378 153.194 161.106 149.042 158.888C145.896 157.208 142.836 155.14 140.238 152.71C132.978 145.924 125.98 138.858 118.87 131.908C112.544 125.722 106.188 119.566 99.9019 113.34C99.1939 112.638 98.8479 111.568 98.3359 110.668C99.3439 110.49 100.352 110.182 101.362 110.162C103.052 110.13 104.758 110.18 106.43 110.4C107.46 110.536 108.684 110.784 109.4 111.442C112.896 114.652 116.26 118.008 119.654 121.33C123.712 125.304 127.746 129.302 131.802 133.28C135.776 137.178 139.846 140.982 143.724 144.974C150.926 152.386 159.498 155.624 169.878 154.654C176.518 154.034 181.782 151.026 186.61 146.822C188.374 145.286 190.15 143.76 191.854 142.16C193.274 140.826 194.602 139.392 195.964 137.996C198.59 135.306 201.136 132.53 203.86 129.944C206.07 127.844 208.482 125.956 210.826 123.998C213.034 122.154 220.622 122.912 222.636 124.552C223.95 125.622 224.08 126.596 222.906 127.85C222.346 128.448 221.742 129.004 221.176 129.598C219.654 131.192 219.36 131.312 216.96 130.746Z" fill="#C91E6C"/>
<path d="M209.809 120.29C209.105 120.624 207.621 120.944 206.691 121.838C201.695 126.642 196.889 131.642 191.917 136.47C187.733 140.534 183.751 144.958 178.571 147.728C174.807 149.742 170.651 151.172 166.173 150.684C164.019 150.45 161.851 150.282 159.717 149.924C155.057 149.142 151.323 146.562 148.017 143.388C143.685 139.232 139.519 134.906 135.251 130.684C130.865 126.346 126.449 122.038 122.027 117.736C120.113 115.874 118.123 114.09 116.239 112.198C115.885 111.842 115.593 111.018 115.771 110.654C115.957 110.272 116.749 109.988 117.269 110C119.723 110.054 122.193 110.094 124.619 110.414C125.669 110.552 126.809 111.164 127.599 111.894C130.321 114.412 132.911 117.07 135.539 119.688C140.061 124.196 144.515 128.774 149.111 133.202C151.853 135.844 154.595 138.584 157.729 140.696C161.695 143.368 166.183 143.864 170.895 142.32C175.155 140.924 178.413 138.19 181.511 135.16C188.229 128.59 194.887 121.96 201.661 115.448C205.695 111.568 210.503 111.912 215.319 113.58C217.633 114.382 217.875 116.646 215.827 117.946C214.191 118.99 212.901 120.92 209.809 120.29Z" fill="#C91E6C"/>
<path d="M165.769 138.602C161.933 139.06 158.739 137.102 155.923 134.308C151.003 129.426 146.117 124.51 141.193 119.634C138.869 117.332 136.447 115.126 134.157 112.792C133.623 112.248 133.447 111.354 133.105 110.62C133.861 110.446 134.613 110.144 135.373 110.126C137.001 110.088 138.637 110.278 140.265 110.222C141.877 110.168 143.237 110.488 144.421 111.69C148.859 116.204 153.331 120.682 157.825 125.14C159.373 126.674 160.963 128.174 162.631 129.576C165.671 132.136 170.109 130.574 171.311 126.578C172.141 123.822 172.135 123.84 174.875 124.878C175.739 125.206 176.643 125.432 177.539 125.662C179.331 126.122 179.963 127.162 179.493 128.93C178.089 134.22 171.501 139.66 165.769 138.602Z" fill="#C91E6C"/>
<path d="M98.8602 249.282C97.1562 249.324 94.8502 246.858 94.8322 244.972C94.8142 243.056 96.5082 241.518 98.6242 241.526C100.71 241.534 102.582 243.314 102.592 245.298C102.6 246.976 100.478 249.242 98.8602 249.282Z" fill="white"/>
<path d="M124.879 224.062C122.157 226.406 119.389 228.712 116.497 230.842C114.617 232.226 112.541 233.372 110.465 234.454C105.775 236.896 105.117 236.988 97.6413 236.972C91.1673 238.24 85.7153 233.918 80.1113 230.124C77.9033 228.63 75.8973 226.836 73.8193 225.156C73.2293 224.68 72.6193 224.184 72.1753 223.582C71.3413 222.454 71.5753 221.294 72.4293 220.278C73.2653 219.286 74.3893 219.262 75.4073 219.838C76.5393 220.48 77.5753 221.302 78.6013 222.11C80.9993 224 83.3093 226.002 85.7573 227.824C88.8313 230.112 92.1973 231.718 96.1793 231.516C96.5613 231.496 96.9493 231.472 97.3253 231.526C105.293 232.65 111.293 228.704 116.959 223.91C118.417 222.678 119.825 221.386 121.295 220.168C122.661 219.036 123.589 219.144 124.827 220.478C125.975 221.716 126.105 223.006 124.879 224.062Z" fill="white"/>
<path d="M187.26 243.348C186.676 244.138 186.052 244.898 185.45 245.676C184.252 247.228 182.656 247.816 180.72 247.806C173.894 247.772 167.066 247.792 160.24 247.792C160.24 247.864 160.24 247.938 160.24 248.01C153.302 248.01 146.362 248.008 139.424 248.012C137.57 248.012 136.048 247.058 135.704 245.658C135.268 243.88 136.722 242.182 138.636 242.202C147.81 242.298 156.982 242.392 166.156 242.47C170.09 242.504 174.024 242.52 177.956 242.5C178.988 242.494 180.046 242.452 181.042 242.212C182.558 241.846 183.09 240.632 182.998 239.198C182.91 237.808 182.148 236.842 180.722 236.576C180.138 236.468 179.526 236.492 178.926 236.496C166.58 236.568 154.232 236.664 141.886 236.708C138.02 236.722 135.818 234.096 134.224 231.126C132.736 228.354 133.236 225.48 135.344 223.044C137.348 220.726 139.64 219.396 142.992 219.442C155.83 219.616 168.67 219.488 181.51 219.478C182.326 219.478 183.166 219.426 183.95 219.598C185.29 219.892 185.928 220.898 186.046 222.212C186.16 223.48 185.498 224.318 184.336 224.69C183.57 224.936 182.746 225.132 181.948 225.13C170.75 225.112 159.55 225.06 148.352 225C146.934 224.992 145.51 224.774 144.1 224.846C142.92 224.906 141.726 225.152 140.59 225.488C139.514 225.808 138.36 226.482 138.63 227.742C138.846 228.748 139.526 229.95 140.366 230.45C141.366 231.044 142.756 231.17 143.978 231.172C155.616 231.174 167.252 231.104 178.89 231.062C183.514 231.044 186.8 233.468 188.128 237.898C188.708 239.838 188.488 241.686 187.26 243.348Z" fill="white"/>
<path d="M244.134 225.038C238.726 224.992 233.317 224.968 227.909 224.964C225.293 224.962 224.651 225.722 224.715 228.328C224.843 233.568 224.91 238.81 225 244.052C225.004 244.324 224.991 244.598 224.961 244.87C224.763 246.712 223.744 247.782 222.224 247.754C220.622 247.724 219.356 246.374 219.386 244.57C219.43 241.84 219.59 239.114 219.648 236.384C219.704 233.708 219.78 231.028 219.692 228.354C219.588 225.204 218.514 224.49 215.45 224.868C213.678 225.086 211.858 224.906 210.058 224.91C207.054 224.918 204.051 224.996 201.051 224.91C199.769 224.872 198.414 224.686 197.248 224.194C196.622 223.93 195.975 222.872 195.989 222.184C196.001 221.5 196.695 220.46 197.327 220.232C198.679 219.746 200.181 219.496 201.625 219.48C208.669 219.41 215.712 219.448 222.756 219.448C222.756 219.462 222.756 219.476 222.756 219.492C229.912 219.492 237.07 219.504 244.226 219.486C246.826 219.48 248.318 220.432 248.342 222.214C248.366 224.044 246.802 225.062 244.134 225.038Z" fill="white"/>
</g>
<defs>
<clipPath id="clip0_936_469">
<rect width="320" height="320" fill="white"/>
</clipPath>
</defs>
</svg>
